<svg width="616" height="749" viewBox="0 0 616 749" fill="none" xmlns="http://www.w3.org/2000/svg">
<path d="M19.0605 729.162L597.455 729.162L597.455 18.727L19.0606 18.727L19.0605 729.162Z" fill="#06D0A0"/>
<path d="M56.0026 690.311L560.513 690.311L560.513 57.5789L56.0026 57.5788L56.0026 690.311Z" fill="white"/>
<mask id="mask0_2350_6367" style="mask-type:alpha" maskUnits="userSpaceOnUse" x="56" y="57" width="505" height="634">
<path d="M56.0026 690.31L560.513 690.31L560.513 57.5786L56.0026 57.5786L56.0026 690.31Z" fill="white"/>
</mask>
<g mask="url(#mask0_2350_6367)">
<mask id="mask1_2350_6367" style="mask-type:alpha" maskUnits="userSpaceOnUse" x="56" y="57" width="505" height="634">
<path d="M56.0026 690.31L560.513 690.31L560.513 57.5786L56.0026 57.5786L56.0026 690.31Z" fill="white"/>
</mask>
<g mask="url(#mask1_2350_6367)">
<path d="M554.639 -109.934C554.639 -109.934 584.958 690.994 570.638 702.787C556.323 714.576 61.1094 715.418 50.1576 702.787C39.2108 690.156 57.7362 -96.4558 71.2142 -104.881C84.6872 -113.302 550.423 -126.78 554.634 -109.934H554.639Z" fill="#403084"/>
<path d="M505.306 543.962C512.589 543.962 519.868 543.962 527.151 543.962C542.712 543.962 558.278 543.962 573.839 543.962C573.804 541.717 573.775 539.461 573.74 537.186C551.108 537.161 528.48 537.166 505.848 537.186C509.428 491.818 513.333 446.479 517.563 401.166C535.355 401.166 553.146 401.165 570.938 401.151C570.884 398.935 570.83 396.714 570.771 394.488C553.24 394.478 535.714 394.468 518.184 394.468C518.962 386.2 519.745 377.932 520.542 369.664C524.319 330.511 528.352 291.377 532.612 252.273C544.022 252.273 555.431 252.273 566.841 252.273C566.772 250.037 566.708 247.806 566.639 245.575C555.54 245.575 544.445 245.571 533.346 245.571C539.358 190.772 545.829 136.028 552.797 81.3432C555.663 81.3382 558.534 81.3284 561.4 81.3186C561.326 79.1469 561.252 76.9851 561.183 74.8332C558.667 74.8282 556.15 74.8184 553.634 74.8135C555.589 59.548 557.588 44.2874 559.622 29.0317C559.149 15.3174 558.696 2.33675 558.268 -9.77717C554.412 18.4 550.684 46.5969 547.099 74.8085C493.941 74.715 440.782 74.7347 387.619 74.7396C368.217 74.7396 348.81 74.7544 329.408 74.7593C329.915 58.8684 330.437 42.9824 330.989 27.0915C332.658 -21.0293 334.525 -69.1452 336.549 -117.256C334.372 -117.222 332.195 -117.182 330.019 -117.143C327.241 -53.1903 324.897 10.782 322.918 74.7642C265.48 74.779 208.042 74.7888 150.605 74.8233C149.423 74.8233 148.241 74.8233 147.059 74.8233C146.966 71.8589 146.867 68.8944 146.774 65.9299C144.868 6.93119 142.992 -52.0676 140.978 -111.061C138.776 -110.948 136.61 -110.835 134.487 -110.722C136.403 -48.8717 138.427 12.9783 140.48 74.8282C113.155 74.8381 85.8297 74.8282 58.4995 74.9218C58.4158 77.0245 58.3321 79.137 58.2533 81.2644C85.7361 81.3924 113.219 81.4318 140.697 81.4318C142.14 124.934 143.592 168.435 145.02 211.942C145.39 223.219 145.769 234.501 146.138 245.777C115.051 245.812 83.9633 245.851 52.8759 246.009C52.8217 247.959 52.7675 249.909 52.7183 251.859C83.9289 252.041 115.139 252.135 146.35 252.174C147.916 299.669 149.492 347.165 151.068 394.656C117.163 394.7 83.2592 394.788 49.3599 394.976C49.3205 396.871 49.286 398.762 49.2515 400.648C83.2592 400.841 117.272 400.939 151.284 400.988C152.791 446.42 154.293 491.853 155.795 537.29C119.606 537.23 83.3921 537.038 47.2129 537.521C47.1932 539.584 47.1735 541.633 47.1587 543.672C83.4364 544.144 119.744 543.893 156.017 543.893C157.253 581.161 158.543 618.428 159.828 655.701C122.319 655.622 84.702 654.957 47.2129 656.016C47.2473 658.05 47.2818 660.024 47.3212 661.94C83.0474 662.92 118.892 662.211 154.613 662.24C156.425 662.24 158.237 662.24 160.05 662.24C160.606 678.328 161.153 694.411 161.704 710.499C163.561 710.543 165.432 710.583 167.318 710.622C166.811 694.495 166.308 678.368 165.801 662.245C201.035 662.275 236.269 662.304 271.503 662.304C285.995 662.304 300.487 662.304 314.98 662.304C315.098 678.84 315.285 695.376 315.526 711.912C317.166 711.912 318.806 711.907 320.446 711.902C320.51 695.371 320.564 678.835 320.613 662.304C377.278 662.304 433.943 662.314 490.607 662.314C489.667 678.008 488.839 693.707 488.16 709.401C490.026 709.342 491.883 709.278 493.7 709.214C494.886 693.584 495.989 677.949 497.053 662.314C499.796 662.314 502.539 662.314 505.287 662.314C528.229 662.314 551.172 662.408 574.119 662.442C574.169 660.167 574.213 657.813 574.252 655.371C548.68 655.336 523.103 655.371 497.531 655.44C500.037 618.423 502.396 581.387 505.282 544.4C505.292 544.248 505.306 544.09 505.321 543.937L505.306 543.962ZM329.206 81.422C383.419 81.4269 437.631 81.422 491.843 81.422C509.984 81.422 528.126 81.3924 546.267 81.3579C542.436 111.672 538.743 142.006 535.187 172.35C532.326 196.75 529.574 221.156 526.905 245.575C483.762 245.58 440.625 245.61 397.483 245.615C373.265 245.615 349.047 245.63 324.833 245.639C326.035 190.89 327.483 136.146 329.201 81.4121L329.206 81.422ZM324.691 252.243C383.748 252.253 442.806 252.268 501.864 252.278C509.97 252.278 518.075 252.278 526.176 252.278C521.04 299.64 516.278 347.037 511.866 394.473C470.998 394.473 430.131 394.488 389.259 394.493C366.902 394.493 344.551 394.513 322.194 394.523C322.283 387.628 322.361 380.734 322.46 373.84C323.061 333.303 323.804 292.771 324.681 252.243H324.691ZM168.899 655.72C167.796 655.72 166.693 655.72 165.59 655.72C164.422 618.448 163.255 581.18 162.083 543.908C201.449 543.918 240.814 543.928 280.179 543.933C291.737 543.933 303.299 543.933 314.857 543.933C314.724 581.171 314.684 618.413 314.916 655.656C266.243 655.661 217.571 655.676 168.894 655.715L168.899 655.72ZM314.921 526.801C314.906 530.297 314.896 533.788 314.881 537.285L172.651 537.319C169.056 537.319 165.461 537.319 161.872 537.309C160.444 491.877 159.016 446.445 157.558 401.013C192.683 401.062 227.814 401.077 262.939 401.116C280.603 401.136 298.267 401.136 315.93 401.141C315.438 443.028 315.093 484.914 314.916 526.801H314.921ZM316.009 394.527C265.475 394.552 214.946 394.591 164.413 394.651C162.064 394.651 159.71 394.656 157.356 394.66C155.834 347.17 154.298 299.684 152.766 252.194C190.005 252.238 227.247 252.223 264.485 252.233C282.435 252.233 300.384 252.238 318.333 252.243C317.358 299.67 316.585 347.096 316.009 394.532V394.527ZM319.963 180.003C319.417 201.882 318.929 223.765 318.471 245.649C265.682 245.669 212.893 245.699 160.104 245.767C157.587 245.767 155.076 245.772 152.56 245.777C150.797 190.999 149.039 136.215 147.266 81.4367C183.12 81.4318 218.97 81.3776 254.819 81.3973C277.446 81.4121 300.074 81.4121 322.701 81.4121C321.697 114.272 320.781 147.133 319.963 179.998V180.003ZM491.011 655.479C461.563 655.558 432.12 655.651 402.678 655.651C375.323 655.651 347.973 655.656 320.618 655.661C320.727 618.418 320.83 581.18 320.992 543.937C380.38 543.952 439.768 543.957 499.156 543.957C496.221 581.092 493.316 618.276 491.006 655.479H491.011ZM499.697 537.196C473.007 537.221 446.317 537.255 419.627 537.265L321.032 537.29C321.244 491.912 321.554 446.534 322.12 401.151C377.347 401.175 432.574 401.17 487.8 401.175C495.62 401.175 503.44 401.175 511.26 401.175C507.512 441.836 504.016 482.521 500.805 523.231C500.436 527.884 500.072 532.542 499.702 537.201L499.697 537.196Z" fill="#4F3AA7"/>
<path d="M429.799 241.595C517.625 153.77 517.625 11.3769 429.799 -76.4484C341.974 -164.274 199.581 -164.274 111.756 -76.4484C23.9309 11.3768 23.9309 153.77 111.756 241.595C199.581 329.42 341.974 329.42 429.799 241.595Z" fill="#A99ABD"/>
<path d="M270.778 283.281C381.626 283.281 471.486 193.422 471.486 82.5742C471.486 -28.2732 381.626 -118.133 270.778 -118.133C159.931 -118.133 70.0714 -28.2732 70.0714 82.5742C70.0714 193.422 159.931 283.281 270.778 283.281Z" fill="#5B5089"/>
<path d="M270.779 272C375.395 272 460.204 187.191 460.204 82.5742C460.204 -22.0425 375.395 -106.851 270.779 -106.851C166.162 -106.851 81.3534 -22.0425 81.3534 82.5742C81.3534 187.191 166.162 272 270.779 272Z" fill="#776AAC"/>
<path d="M279.685 113.575C296.8 108.654 306.686 90.7907 301.765 73.6757C296.845 56.5607 278.981 46.6752 261.866 51.5958C244.751 56.5163 234.866 74.3797 239.786 91.4947C244.707 108.61 262.57 118.495 279.685 113.575Z" fill="#5B5089"/>
<path d="M432.032 124.189C455.326 100.895 455.326 63.1274 432.032 39.8331C408.738 16.5388 370.97 16.5388 347.676 39.8331C324.382 63.1274 324.382 100.895 347.676 124.189C370.97 147.483 408.738 147.483 432.032 124.189Z" fill="#CCBCE1"/>
<path d="M309.08 254.277C342.469 254.277 369.537 227.209 369.537 193.82C369.537 160.431 342.469 133.364 309.08 133.364C275.691 133.364 248.624 160.431 248.624 193.82C248.624 227.209 275.691 254.277 309.08 254.277Z" fill="#CCBCE1"/>
<path d="M217.816 57.5657C241.739 33.6425 241.739 -5.1445 217.816 -29.0676C193.893 -52.9908 155.106 -52.9908 131.183 -29.0677C107.26 -5.14452 107.26 33.6426 131.183 57.5657C155.106 81.4888 193.893 81.4888 217.816 57.5657Z" fill="#CCBCE1"/>
<path d="M217.759 195.803C241.053 172.509 241.053 134.741 217.759 111.447C194.464 88.1527 156.697 88.1527 133.402 111.447C110.108 134.741 110.108 172.509 133.402 195.803C156.697 219.097 194.464 219.097 217.759 195.803Z" fill="#CCBCE1"/>
<path d="M348.199 372.461C348.199 372.461 343.92 378.444 323.509 375.18C303.092 371.915 302.28 362.933 297.38 360.48C292.48 358.033 263.899 337.617 276.151 295.971C288.398 254.326 339.843 241.262 354.542 241.262C369.241 241.262 379.041 253.508 383.123 254.326C387.205 255.143 411.704 252.691 423.133 266.573C434.568 280.455 433.145 292.982 430.589 298.148C428.033 303.318 348.204 372.456 348.204 372.456L348.199 372.461Z" fill="#65DFD5"/>
<path d="M350.047 373.141C350.047 373.141 336.982 374.776 318.201 362.524C299.419 350.277 285.537 331.495 292.89 309.449C300.237 287.403 319.836 276.786 335.352 271.886C350.869 266.986 371.28 266.986 371.28 266.986C371.28 266.986 368.016 258.822 377.815 257.187C387.615 255.552 406.953 271.95 405.446 279.676C403.944 287.403 404.761 295.567 404.761 295.567L350.052 373.141H350.047Z" fill="#FDA77E"/>
<path d="M334.347 327.672C333.852 327.65 333.473 327.229 333.494 326.734C333.515 326.239 333.937 325.86 334.432 325.881C334.46 325.876 343.368 326.225 347.313 331.974C350.474 336.648 353.917 340.601 354.716 341.501C355.937 341.833 361.566 343.196 364.717 340.38C368.37 337.106 368.767 332.717 368.764 332.685C368.831 332.196 369.278 331.86 369.761 331.898C370.25 331.965 370.603 332.424 370.534 332.916C370.551 332.928 370.101 337.98 365.916 341.717C361.604 345.556 353.975 343.164 353.958 343.153L353.546 342.894C353.529 342.882 349.538 338.441 345.818 332.982C342.406 327.976 334.382 327.671 334.35 327.674L334.347 327.672Z" fill="#AC5649"/>
<path d="M343.25 287.663C343.884 287.389 344.185 286.661 343.898 286.051C343.624 285.416 342.92 285.129 342.302 285.373C342.264 285.384 331.996 289.687 331.671 305.884C331.645 306.559 332.202 307.112 332.877 307.138C333.566 307.139 334.105 306.607 334.131 305.932C334.409 291.332 343.22 287.646 343.245 287.66L343.25 287.663Z" fill="#824B36"/>
<path d="M326.173 336.372C326.724 336.028 326.797 335.397 326.394 334.915C325.98 334.46 325.207 334.328 324.662 334.643C324.658 334.667 313.967 341.069 318.905 355.781C319.081 356.354 319.76 356.701 320.426 356.584C321.058 356.461 321.465 355.886 321.251 355.331C316.783 341.987 326.142 336.39 326.173 336.372Z" fill="#824B36"/>
<path d="M328.161 352.382L336.165 355.243C336.165 355.243 338.41 355.868 339.332 354.067C340.261 352.245 340.386 350.82 338.884 349.677C337.371 348.566 329.232 346.04 329.232 346.04C329.232 346.04 327.051 345.597 326.183 347.826C325.314 350.054 326.108 351.59 328.168 352.379L328.161 352.382Z" fill="#7E3E35"/>
<path d="M343.879 303.352L351.883 306.213C351.883 306.213 354.138 306.806 355.058 305.01C355.978 303.215 356.112 301.763 354.6 300.652C353.096 299.515 344.957 296.989 344.957 296.989C344.957 296.989 342.776 296.546 341.907 298.774C341.03 301.03 341.828 302.537 343.884 303.354L343.879 303.352Z" fill="#7E3E35"/>
<path d="M351.676 378.036C351.676 378.036 368.005 381.301 374.54 386.2C381.075 391.1 393.321 388.648 404.751 382.935C416.185 377.218 420.972 373.047 423.478 369.418C425.985 365.789 434.967 320.879 431.697 305.362C428.432 289.845 425.162 284.133 422.715 283.316C420.268 282.498 408.016 280.051 399.851 279.233C391.687 278.416 386.787 274.334 383.522 275.151C380.257 275.968 369.64 289.85 366.375 298.832C363.11 307.814 347.594 318.431 346.776 325.778C345.959 333.126 345.959 347.007 345.142 354.359C344.324 361.707 347.589 374.776 351.676 378.041V378.036Z" fill="#8BC3FF"/>
<path d="M383.522 275.151C383.345 275.195 383.138 275.289 382.916 275.407C381.444 271.354 375.904 268.823 372.984 266.174C371.856 265.149 369.719 266.543 370.743 267.902C372.171 269.788 373.821 271.349 375.569 272.935C376.406 273.693 377.238 274.481 377.987 275.333C378.711 276.155 379.179 277.155 379.902 277.958C375.387 282.636 368.818 292.11 366.37 298.837C363.105 307.819 347.589 318.436 346.771 325.783C345.954 333.13 345.954 347.012 345.136 354.364C344.319 361.711 347.584 374.781 351.671 378.045C351.671 378.045 353.237 378.361 355.591 378.937C354.163 375.938 350.607 367.547 351.262 359.673C352.08 349.873 354.527 340.074 354.527 332.726C354.527 325.379 355.345 324.562 358.609 321.292C361.874 318.022 369.226 309.045 372.491 300.063C375.471 291.864 383.891 280.272 387.821 275.826C386.117 275.215 384.704 274.86 383.512 275.156L383.522 275.151Z" fill="#619BCD"/>
<path opacity="0.5" d="M399.305 285.63C393.12 290.057 387.885 296.926 383.443 303.043C378.795 309.434 374.983 316.481 372.669 324.06C370.266 331.924 370.167 339.739 370.576 347.884C371.034 357.009 370.403 366.084 371.974 375.11C372.171 376.238 374.077 375.987 373.984 374.84C373.329 366.419 374.417 357.91 374.156 349.474C373.905 341.349 373.801 333.618 376.229 325.764C378.465 318.539 382.158 311.828 386.59 305.726C391.184 299.403 397.231 294.415 401.944 288.279C403.116 286.753 400.821 284.547 399.3 285.635L399.305 285.63Z" fill="#619BCD"/>
<path opacity="0.5" d="M412.63 295.39C412.541 294.277 410.842 294.243 410.867 295.39C411.192 310.562 409.862 326.492 406.593 341.305C403.535 355.162 398.27 367.724 391.273 380.02C389.929 382.379 392.642 382.679 394.139 380.483C402.116 368.793 407.863 356.211 410.685 342.433C413.92 326.665 413.881 311.34 412.625 295.385L412.63 295.39Z" fill="#619BCD"/>
<path d="M431.702 305.362C428.437 289.845 425.167 284.133 422.72 283.316C422.636 283.286 422.533 283.257 422.424 283.222C424.084 288.437 426.674 305.091 425.99 333.125C425.28 362.297 413.871 376.647 405.514 382.551C416.392 377.036 421.041 372.964 423.488 369.418C425.994 365.789 434.977 320.879 431.707 305.362H431.702Z" fill="#619BCD"/>
<path d="M304.299 351.144C303.491 347.859 303.097 344.471 303.151 341.088C303.22 336.917 303.855 332.382 301.576 328.891C300.354 327.024 298.429 325.714 297.153 323.887C295.085 320.918 295.002 317.023 295.302 313.418C295.499 311.035 295.834 308.666 296.302 306.322C296.676 304.436 297.646 302.284 296.917 300.383C295.341 303.166 293.977 306.179 292.889 309.444C287.536 325.498 293.445 339.813 304.304 351.139L304.299 351.144Z" fill="#4A3333"/>
<path opacity="0.5" d="M368.773 261.791C365.745 261.565 362.741 261.594 359.761 261.806C361.884 257.674 362.066 252.785 360.756 248.264C360.392 247.013 358.461 247.535 358.801 248.806C360.086 253.637 358.88 258.064 356.398 262.126C353.591 262.461 350.799 262.944 348.032 263.549C348.79 259.634 347.126 255.636 344.9 252.494C344.373 251.75 343.156 252.42 343.654 253.223C345.742 256.576 345.707 260.004 345.624 263.791C345.624 263.899 345.638 264.002 345.663 264.096C339.862 265.504 334.145 267.366 328.492 269.291C316.678 273.314 304.811 277.894 296.547 287.698C293.283 291.574 290.402 296.001 288.151 300.733C287.364 300.393 286.645 299.994 286.024 299.33C285.202 298.443 283.892 299.763 284.699 300.654C285.418 301.452 286.28 302.215 287.26 302.703C284.823 308.361 283.301 314.393 283.094 320.401C282.828 328.241 285.335 335.558 289.299 342.108C286.861 341.807 284.941 340.803 282.986 339.34C282.282 338.813 281.272 339.852 281.774 340.551C283.513 342.979 286.492 344.378 289.442 344.461C289.954 344.476 290.279 344.24 290.441 343.91C292.544 347.096 294.982 350.09 297.586 352.848C306.436 362.224 318.535 370.107 331.377 372.387C332.564 372.599 332.993 371.023 331.875 370.59C318.52 365.454 306.544 358.85 297.227 347.721C292.376 341.925 288.215 335.135 286.797 327.62C285.29 319.628 287.103 311.37 290.308 304.023C293.297 297.168 297.473 290.643 303.067 285.625C308.72 280.548 315.743 277.352 322.794 274.732C333.736 270.675 345.21 266.602 356.915 265.302C356.964 265.302 357.014 265.297 357.058 265.288C360.943 264.864 364.853 264.746 368.783 265.036C370.861 265.189 370.851 261.949 368.783 261.796L368.773 261.791Z" fill="#338C81"/>
<path d="M564.467 175C564.467 175.005 564.463 175.01 564.458 175.01C539.684 177.606 486.591 185.452 471.264 205.89C451.049 232.841 459.16 239.326 441.21 279.455C423.261 319.584 421.995 390.75 418.627 410.965C415.259 431.179 405.996 450.547 413.575 485.077C421.153 519.606 434.631 550.767 444.736 559.188C454.841 567.609 455.683 560.872 459.051 568.451C462.42 576.029 459.051 581.082 464.946 584.455C470.84 587.823 470.84 584.455 474.208 589.507C477.511 594.461 473.777 600.081 468.03 601.634C463.81 602.775 459.206 603.823 456.52 603.823C450.621 603.823 443.047 595.402 436.306 595.402C429.564 595.402 424.024 602.404 423.428 609.008C422.853 615.384 428.723 689.013 429.129 694.082C429.144 694.278 429.155 694.45 429.175 694.646C429.271 695.588 429.72 698.746 431.659 702.842C434.218 708.248 440.291 710.665 446.271 710.537C514.969 709.068 566.177 706.456 570.642 702.778C579.206 695.726 571.804 406.43 564.467 175Z" fill="#8645D5"/>
<path opacity="0.4" d="M572.224 617.783C565.98 613.464 558.938 610.446 551.482 608.988C545.834 607.885 537.911 606.565 532.11 608.56C526.816 605.236 520.942 602.754 514.545 603.798C510.748 604.418 506.306 607.156 502.918 604.399C500.432 602.375 498.639 599.937 495.768 598.297C490.745 595.422 483.142 593.407 477.711 596.131C475.588 597.194 475.879 601.193 478.42 601.543C481.591 601.981 484.688 601.434 487.85 602.261C491.307 603.168 494.266 604.921 496.773 607.462C501.052 611.79 504.809 613.026 510.812 611.421C514.55 610.421 517.544 609.244 521.493 610.18C524.999 611.007 528.205 612.805 531.263 614.651C538.285 618.891 545.051 623.49 552.162 627.583C553.885 628.572 556.033 626.041 554.363 624.731C549.675 621.048 544.899 617.463 540.038 614.001C540.063 614.001 540.092 614.001 540.117 614.001C543.623 613.957 547.134 614.252 550.576 614.917C557.337 616.222 563.685 618.773 569.589 622.289C572.509 624.027 574.942 619.674 572.219 617.788L572.224 617.783Z" fill="#4B33AE"/>
<path opacity="0.4" d="M570.82 591.487C565.546 586.942 559.548 583.204 555.771 577.167C552.359 571.716 553.093 564.787 548.897 559.779C547.041 557.558 544.633 555.884 541.949 554.81C538.64 553.491 535.025 553.427 532.341 550.827C527.634 546.272 525.772 538.24 523.586 532.286C513.53 504.877 505.775 475.676 487.682 452.162C485.723 449.616 481.325 451.99 483.251 454.752C500.934 480.093 508.168 510.201 518.868 538.742C521.035 544.523 523.089 551.117 527.589 555.574C532.332 560.267 540.536 559.178 544.293 564.767C546.341 567.816 546.179 571.918 547.415 575.311C548.479 578.216 550.025 580.845 551.911 583.288C555.929 588.493 561.326 593.083 566.91 596.549C569.964 598.445 573.627 593.91 570.815 591.487H570.82Z" fill="#4B33AE"/>
<path opacity="0.4" d="M560.4 232.078C561.449 229.955 559.769 226.641 556.805 227.488C552.511 228.714 547.833 232.472 543.233 231.546C541.879 231.275 540.816 231.876 540.215 232.777C533.631 231.541 527.086 228.867 520.946 226.981C509.147 223.367 496.511 221.279 484.151 221.87C481.236 222.007 481.275 226.149 484.151 226.37C498.353 227.464 511.658 230.069 525.048 234.983C536.428 239.159 548.414 242.547 560.04 237.288C562.537 236.155 562.069 233.466 560.405 232.073L560.4 232.078Z" fill="#4B33AE"/>
<path opacity="0.4" d="M562.242 268.36C552.61 275.727 541.752 281.272 532.095 288.624C523.069 295.498 514.757 303.264 507.311 311.827C500.023 320.209 493.469 329.265 487.889 338.867C484.925 343.969 482.098 349.218 479.744 354.63C477.657 359.431 476.421 364.508 478.961 369.354C479.479 370.344 481.02 370.797 481.96 370.142C489.175 365.094 495.163 359.737 500.21 352.444C501.53 350.538 498.437 348.775 497.118 350.636C493.267 356.068 488.185 361.184 482.448 364.794C482.202 359.756 485.299 354.886 487.638 350.523C490.1 345.934 492.764 341.457 495.601 337.089C501.392 328.181 507.902 319.79 515.21 312.074C522.478 304.402 530.47 297.389 539.132 291.327C547.991 285.123 557.766 280.321 566.157 273.447C568.969 271.142 565.157 266.125 562.232 268.365L562.242 268.36Z" fill="#4B33AE"/>
<path opacity="0.4" d="M576.631 300.378C543.647 336.484 518.784 381.271 505.887 428.422C505.424 430.111 507.951 430.78 508.497 429.141C523.93 382.694 547.823 340.615 580.009 303.757C582.018 301.457 578.719 298.093 576.631 300.378Z" fill="#4B33AE"/>
<path d="M553.501 243.162C553.501 243.162 549.586 229.472 538.634 223.578C527.688 217.684 520.104 218.526 520.104 218.526C520.104 218.526 507.473 223.578 503.258 210.105C499.048 196.632 510.836 191.575 518.415 191.575C525.994 191.575 535.261 197.469 535.261 197.469L557.455 172.512C557.455 172.512 554.629 166.308 559.686 161.255C564.739 156.203 572.317 161.255 574.843 162.939C574.843 162.939 574.843 154.519 582.422 154.519C590 154.519 606.005 173.049 607.689 182.312C609.373 191.575 600.809 192.983 600.809 192.983C600.809 192.983 606.005 202.521 601.789 209.263C597.579 215.999 596.737 216.842 595.895 222.736C595.053 228.63 597.579 237.051 593.369 243.793C589.158 250.529 582.422 255.581 582.422 255.581L553.491 243.162H553.501Z" fill="#8BC3FF"/>
<path d="M527.914 200.251C527.229 199.207 525.25 199.853 525.767 201.158C526.648 203.369 526.501 206.195 525.644 208.401C524.989 210.085 522.999 213.399 521.099 214.035C518.267 214.98 519.464 218.841 522.305 218.412C525.545 217.925 528.367 213.557 529.47 210.755C530.987 206.894 530.1 203.59 527.914 200.256V200.251Z" fill="#619BCD"/>
<path d="M414.836 296.006C414.836 296.006 445.997 271.581 473.791 261.476C501.584 251.371 539.482 244.63 539.482 244.63C539.482 244.63 542.85 259.787 561.38 266.528C579.91 273.265 586.647 256.424 585.805 250.524C584.963 244.63 576.542 231.994 563.906 234.525C551.27 237.056 547.06 238.735 547.06 238.735C547.06 238.735 547.902 226.946 545.376 226.104C542.85 225.262 538.639 226.104 538.639 228.631C538.639 231.157 540.324 238.735 540.324 238.735C540.324 238.735 490.632 247.156 479.685 252.208C479.685 252.208 533.587 210.942 535.271 210.942C536.955 210.942 537.797 215.995 539.482 216.837C541.166 217.679 544.534 215.995 545.376 214.31C546.218 212.626 541.166 201.68 541.166 201.68C541.166 201.68 562.222 192.417 560.538 178.939C558.854 165.461 551.275 160.408 540.324 166.308C529.377 172.202 526.851 177.255 526.851 183.996C526.851 190.738 531.484 193.682 532.326 197.893C533.168 202.103 532.326 201.261 528.958 205.471C525.59 209.682 476.74 246.737 472.53 248.422C468.32 250.106 446.421 257.684 426.211 268.636C405.997 279.583 405.997 280.425 405.997 281.267C405.997 282.109 407.681 283.793 407.681 283.793C407.681 283.793 433.79 268.636 443.053 265.263C452.315 261.895 451.473 261.053 452.315 261.895C453.158 262.737 454.842 264.421 454.842 264.421C454.842 264.421 425.364 277.052 413.575 293.898C413.575 293.898 412.733 295.582 414.841 296.006H414.836Z" fill="#C8DCEE"/>
<path d="M568.959 264.844C574.701 263.254 581.59 259.792 580.748 252.213C579.906 244.635 573.169 237.898 559.691 240.424C546.218 242.951 540.319 254.739 541.161 264.849C542.003 274.954 547.897 277.48 553.792 275.796C559.686 274.112 563.325 266.405 568.949 264.849L568.959 264.844Z" fill="#8BC3FF"/>
<path d="M459.313 266.932C458.766 265.741 457.466 264.726 456.521 263.835C455.516 262.889 454.423 262.023 453.285 261.25C452.079 260.427 450.759 262.234 451.754 263.234C452.695 264.18 453.645 265.11 454.571 266.071C455.472 267.001 456.26 268.193 457.348 268.897C458.658 269.749 459.859 268.129 459.313 266.932Z" fill="#93AABC"/>
<path d="M478.656 251.849C478.489 250.761 477.474 249.751 476.755 248.973C475.982 248.146 474.978 246.905 473.732 247.24C473.234 247.373 472.865 247.86 472.865 248.377C472.87 249.554 474.096 250.13 474.864 250.864C475.593 251.563 476.199 252.558 477.09 253.055C477.972 253.548 478.789 252.74 478.656 251.854V251.849Z" fill="#93AABC"/>
<path d="M572.745 184.415C572.745 184.415 556.746 167.569 545.794 169.258C534.847 170.942 530.637 179.362 534.847 186.946C539.058 194.524 569.377 210.529 576.956 209.687C584.534 208.845 589.587 197.056 572.745 184.42V184.415Z" fill="#8BC3FF"/>
<path d="M599.258 192.589C597.367 192.343 594.964 190.821 593.836 189.319C592.802 187.95 589.783 188.093 590.064 190.339C590.384 192.865 589.513 194.761 587.311 195.721C587.016 194.963 586.652 194.199 586.213 193.446C586.203 193.426 586.189 193.412 586.174 193.392C584.5 189.467 580.944 186.532 577.734 183.799C573.026 179.786 568.082 176.117 562.798 172.897C561.168 171.902 559.134 174.374 560.705 175.61C564.782 178.811 568.845 182.061 572.725 185.503C576.409 188.773 580.821 192.102 582.382 196.952C582.495 197.302 582.658 197.587 582.85 197.824C583.948 201.788 583.022 205.624 578.364 207.003C574.725 208.076 570.677 207.293 567.191 206.033C561.01 203.802 555.791 199.572 549.66 197.208C547.838 196.504 546.685 199.4 548.345 200.33C557.1 205.235 566.235 213.262 576.96 212.06C584.091 211.257 588.385 206.195 588.242 200.217C591.212 199.365 593.324 197.036 594.053 194.239C595.589 194.923 597.268 195.17 599.263 195.056C600.888 194.963 600.804 192.791 599.263 192.589H599.258Z" fill="#619BCD"/>
<path opacity="0.4" d="M476.893 679.559C475.411 670.351 470.191 663.205 464.789 655.878C459.234 648.339 455.945 640.76 453.468 631.758C451.35 624.072 449.134 616.759 443.944 610.658C442.88 609.106 441.689 607.644 440.3 606.304C439.029 605.073 436.602 606.743 437.744 608.279C441.176 612.888 443.506 617.931 445.214 623.402C445.736 625.066 446.185 626.805 446.638 628.563C439.566 631.655 415.678 669.1 415.678 669.1L416.52 683.415C416.52 683.415 413.994 688.467 420.73 694.362C427.029 699.872 464.961 697.287 471.954 694.864C471.353 697.228 470.412 699.439 469.034 701.349C467.138 703.984 471.501 706.5 473.382 703.89C478.365 696.967 478.193 687.64 476.893 679.554V679.559Z" fill="#4B33AE"/>
<path d="M421.995 469.077C421.995 469.077 426.629 423.177 425.787 422.335C424.945 421.493 421.153 424.443 421.153 424.443L415.672 472.569L421.995 471.603V469.077Z" fill="#93AABC"/>
<path d="M413.993 603.409C413.993 603.409 424.339 601.355 433.061 610.382C441.786 619.408 427.466 624.461 427.466 624.461L416.52 621.934L413.993 603.404V603.409Z" fill="#619BCD"/>
<path d="M359.969 603.497C359.669 602.985 357.984 590.354 368.936 583.613C379.883 576.876 393.794 584.45 404.948 593.718C416.102 602.985 416.944 604.669 415.26 611.406C413.576 618.142 427.891 621.511 427.891 621.511L436.971 612.785C436.971 612.785 443.053 615.616 447.263 628.252C451.473 640.883 450.631 654.361 446.421 659.413C442.211 664.466 443.053 661.098 441.369 666.992C439.685 672.886 433.79 682.149 424.522 685.522C415.26 688.891 401.782 682.996 394.203 682.996C386.625 682.996 364.726 683.838 355.463 677.102C346.201 670.365 347.885 661.098 348.727 658.571C349.569 656.045 340.306 654.361 340.306 644.256C340.306 634.151 349.569 628.252 349.569 628.252L359.974 603.497H359.969Z" fill="#8BC3FF"/>
<path d="M366.641 605.029C366.641 605.029 377.356 604.669 387.466 608.88C397.571 613.09 402.623 618.985 409.364 616.458C416.101 613.932 420.311 623.195 420.311 623.195L416.943 633.3L385.782 629.931L366.641 605.024V605.029Z" fill="#619BCD"/>
<path d="M365.986 632.886C365.986 632.886 358.407 639.623 349.982 631.202C341.561 622.781 344.929 610.987 349.982 605.935C355.034 600.883 364.612 602.887 369.088 605.674C373.564 608.461 381.143 608.461 382.827 603.409C384.511 598.357 400.516 532.666 403.884 517.503C407.252 502.346 414.831 472.027 415.673 471.185C416.515 470.343 423.251 468.659 423.251 467.817C423.251 466.975 430.83 423.182 430.83 423.182C430.83 423.182 435.882 422.34 435.882 423.182C435.882 424.024 424.093 493.084 423.251 498.978C422.409 504.872 410.62 590.778 410.62 599.199C410.62 607.619 415.673 611.83 417.357 610.145C419.041 608.461 430.83 603.409 439.255 616.04C447.681 628.671 435.124 639.839 427.082 640.992C419.041 642.144 409.355 629.094 407.671 624.879C405.986 620.669 407.671 612.248 406.829 609.722C405.986 607.196 404.302 597.091 405.144 592.876C405.986 588.665 416.933 503.602 416.091 502.76C415.249 501.918 393.351 590.35 393.351 590.35C393.351 590.35 389.982 608.038 384.93 613.932C379.878 619.827 365.981 632.881 365.981 632.881L365.986 632.886Z" fill="#C8DCEE"/>
<path d="M420.73 611.829C420.73 611.829 408.099 615.198 403.042 627.834C397.985 640.469 402.2 647.206 407.252 650.574C412.305 653.943 420.725 654.785 424.099 647.206C427.467 639.627 429.993 637.943 432.519 636.259C435.045 634.575 439.256 624.47 435.045 617.729C430.835 610.992 420.73 611.834 420.73 611.834V611.829Z" fill="#8BC3FF"/>
<path d="M356.723 631.202C356.723 631.202 348.302 626.992 350.829 616.045C353.355 605.098 365.144 604.256 370.201 605.94C375.253 607.624 395.468 616.045 400.52 623.628C405.573 631.207 395.468 639.632 391.258 640.474C387.047 641.317 360.938 631.212 356.728 631.212L356.723 631.202Z" fill="#8BC3FF"/>
<path d="M425.497 641.78C423.463 645.606 421.602 650.796 416.613 651.402C412.467 651.904 407.572 649.56 405.139 646.285C399.462 638.633 403.185 629.321 406.602 621.742C407.124 620.59 405.918 618.788 404.618 619.758C403.968 620.24 403.372 620.782 402.81 621.358C401.712 619.487 399.964 618.044 398.127 616.626C395.374 614.494 392.046 612.366 388.5 612.11C387.505 612.036 387.072 613.361 387.712 614.016C389.628 615.971 392.105 617.32 394.222 619.059C396.093 620.595 398.984 622.604 399.363 625.14C399.408 625.445 399.516 625.706 399.669 625.928C399.102 627.095 398.654 628.336 398.305 629.616C397.787 629.872 397.344 630.311 397.128 630.946C394.961 637.259 390.268 638.909 383.93 637.224C378.518 635.787 373.294 633.802 367.833 632.512C366.232 632.133 365.04 634.521 366.661 635.289C370.556 637.136 374.544 638.717 378.573 640.243C381.754 641.455 385.112 642.71 388.554 642.823C389.111 643.897 389.647 644.749 389.111 645.96C388.633 647.029 387.643 647.95 386.786 648.713C384.945 650.358 382.763 651.505 380.424 652.273C380.198 652.347 380.006 652.451 379.838 652.564C371.314 651.722 361.997 653.199 355.748 654.79C352.626 655.583 353.946 660.315 357.078 659.606C367.32 657.281 383.28 654.804 391.932 662.536C393.149 663.619 394.38 665.761 393.986 667.499C393.695 668.77 391.716 670.085 390.657 670.671C388.288 671.99 385.417 672.281 382.778 672.66C376.879 673.507 371.107 674.497 365.316 675.841C363.932 676.161 364.243 678.313 365.651 678.304C373.673 678.24 383.133 678.633 390.81 675.861C395.759 674.073 401.481 668.696 398.595 662.959C396.3 658.394 392.208 655.622 387.323 654.051C392.031 651.505 395.793 646.985 393.705 641.981C395.153 641.425 396.497 640.627 397.65 639.613C398.27 644.217 400.156 648.541 403.317 651.481C407.04 654.942 413.467 657.193 418.553 656.031C424.537 654.667 427.772 648.89 429.678 643.547C430.544 641.11 426.713 639.524 425.512 641.789L425.497 641.78Z" fill="#619BCD"/>
<path d="M422.104 497.929C421.341 498.712 420.528 499.421 419.622 500.037C418.721 500.652 417.721 501.081 416.815 501.676C415.505 502.538 416.298 504.882 417.938 504.336C420.277 503.553 422.355 501.583 423.882 499.707C424.881 498.48 423.261 496.747 422.104 497.929Z" fill="#93AABC"/>
<path d="M414.92 429.441C411.103 427.604 409.892 422.537 410.867 418.42C411.842 414.299 414.432 410.788 416.5 407.094C417.328 405.612 418.106 403.967 417.879 402.283C417.589 400.131 415.767 398.521 414.979 396.502C414.151 394.385 414.521 391.967 415.323 389.839C416.126 387.712 417.333 385.757 418.229 383.669C418.539 382.945 418.815 382.167 418.677 381.394C418.519 380.508 417.86 379.808 417.2 379.203C415.678 377.804 413.984 376.588 412.59 375.061C411.197 373.535 410.104 371.599 410.128 369.531C410.158 367.158 411.635 365.06 413.211 363.287C415.126 361.14 417.283 359.21 419.627 357.545C422.892 355.231 426.64 353.409 430.628 353.158C433.396 352.985 436.168 353.576 438.783 354.502C442.752 355.901 446.495 358.117 449.272 361.278C452.049 364.439 453.802 368.596 453.645 372.801C453.394 379.414 448.671 385.063 447.48 391.573C446.583 396.468 447.74 401.471 448.248 406.425C448.755 411.378 448.44 416.84 445.195 420.612C443.599 422.468 441.437 423.739 439.271 424.876C435.124 427.058 430.983 428.545 426.3 428.904C422.498 429.195 418.657 431.248 414.91 429.446L414.92 429.441Z" fill="white"/>
<path d="M446.8 373.299C442.786 384.57 434.238 391.031 423.202 394.532C420.824 395.286 421.848 398.546 424.212 398.186C436.247 396.374 446.238 385.299 448.971 373.894C449.311 372.471 447.282 371.939 446.8 373.299Z" fill="#F2F2F2"/>
<path d="M440.674 394.035C439.177 398.132 437.965 401.663 434.661 404.745C431.293 407.887 427.043 410.024 422.69 411.428C421.355 411.861 421.902 413.905 423.271 413.54C432.086 411.186 443.653 405.056 443.948 394.478C444.003 392.503 441.289 392.346 440.674 394.035Z" fill="#F2F2F2"/>
<path d="M191.654 520.03C191.654 520.03 197.548 506.557 208.5 503.183C219.447 499.815 235.451 500.657 235.451 500.657C235.451 500.657 222.82 438.334 222.82 439.177C222.82 440.019 203.448 447.597 196.711 434.966C189.975 422.335 168.076 440.861 168.076 440.861L191.659 520.03H191.654Z" fill="#FDA77E"/>
<path d="M228.276 500.593L232.117 484.274C229.862 473.174 226.942 458.864 224.982 449.37L221.298 440.053C219.831 440.664 217.423 441.422 214.621 441.855C212.7 445.106 206.949 455.998 207.653 468.654C208.342 481.078 221.471 495.757 226.188 500.652C226.912 500.623 227.607 500.603 228.276 500.593Z" fill="#DB815D"/>
<path d="M272.502 410.546C272.502 410.546 296.927 404.652 305.347 405.494C313.768 406.336 313.768 408.02 317.136 406.336C320.504 404.652 329.767 401.284 335.667 402.126C341.561 402.968 369.354 424.024 375.249 440.866C381.143 457.712 376.091 479.606 365.144 496.452C354.197 513.298 332.298 508.241 323.878 511.609C315.457 514.977 292.716 519.188 284.296 517.504C275.875 515.819 272.507 410.546 272.507 410.546H272.502Z" fill="#65DFD5"/>
<path d="M330.196 494.344C335.248 485.924 351.252 453.92 329.354 427.811C313.852 409.325 294.799 407.405 284.99 407.853C278.175 409.178 272.502 410.547 272.502 410.547C272.502 410.547 275.87 515.819 284.291 517.504C286.384 517.922 289.368 517.976 292.79 517.77C312.941 514.111 325.33 502.44 330.191 494.344H330.196Z" fill="#4C9B8F"/>
<path d="M271.66 413.915C271.66 413.915 276.712 410.546 275.028 404.652C273.344 398.757 245.551 402.968 242.183 408.862C238.814 414.757 244.709 423.177 244.709 423.177L255.656 512.451C255.656 512.451 249.761 517.504 253.129 524.24C256.498 530.977 276.712 528.45 284.291 525.082C291.869 521.714 285.975 514.135 285.975 514.135C285.975 514.135 299.448 513.293 305.347 510.767C311.242 508.241 335.667 483.816 331.456 451.813C327.246 419.809 295.242 410.546 286.822 410.546C278.401 410.546 272.507 413.073 271.665 413.915H271.66Z" fill="#FDA77E"/>
<path d="M304.109 462.399C304.56 462.44 304.955 462.104 304.997 461.653C305.038 461.202 304.702 460.806 304.251 460.765C304.226 460.757 296.109 459.982 291.828 464.709C288.39 468.558 284.785 471.72 283.95 472.438C282.803 472.59 277.533 473.135 275.022 470.197C272.113 466.781 272.291 462.754 272.297 462.725C272.296 462.274 271.933 461.914 271.49 461.89C271.039 461.891 270.662 462.263 270.664 462.717C270.647 462.726 270.436 467.361 273.772 471.261C277.21 475.269 284.419 474.036 284.435 474.028L284.84 473.844C284.857 473.835 289.019 470.299 293.06 465.806C296.766 461.687 304.077 462.394 304.105 462.4L304.109 462.399Z" fill="#AC5649"/>
<path d="M300.941 425.041C300.4 424.716 300.217 424.018 300.552 423.501C300.877 422.959 301.551 422.785 302.081 423.082C302.115 423.097 310.894 428.255 309.204 442.977C309.145 443.592 308.572 444.025 307.957 443.966C307.333 443.882 306.909 443.334 306.969 442.719C308.506 429.451 300.97 425.03 300.946 425.039L300.941 425.041Z" fill="#824B36"/>
<path d="M310.451 471.286C309.994 470.907 310.005 470.326 310.43 469.939C310.861 469.577 311.577 469.552 312.033 469.905C312.034 469.926 320.94 477.04 314.661 489.77C314.431 490.268 313.774 490.499 313.184 490.312C312.626 490.123 312.328 489.552 312.589 489.075C318.275 477.527 310.478 471.307 310.451 471.286Z" fill="#824B36"/>
<path d="M306.687 485.555L299.082 487.168C299.082 487.168 296.97 487.459 296.355 485.714C295.736 483.948 295.798 482.641 297.299 481.789C298.806 480.968 306.494 479.675 306.494 479.675C306.494 479.675 308.525 479.541 309.039 481.668C309.553 483.794 308.645 485.089 306.681 485.551L306.687 485.555Z" fill="#7E3E35"/>
<path d="M298.449 439.186L290.843 440.798C290.843 440.798 288.726 441.059 288.112 439.319C287.498 437.579 287.554 436.246 289.062 435.425C290.564 434.578 298.251 433.286 298.251 433.286C298.251 433.286 300.283 433.152 300.797 435.278C301.316 437.43 300.408 438.698 298.444 439.187L298.449 439.186Z" fill="#7E3E35"/>
<path d="M273.344 415.599C273.344 415.599 294.401 447.602 296.927 461.075C299.453 474.548 285.138 505.71 283.454 507.394C281.77 509.078 264.923 510.762 260.713 512.446C256.503 514.13 236.288 516.656 232.078 514.13C227.868 511.604 216.921 480.443 215.232 467.812C213.548 455.181 216.916 428.23 222.81 423.177C228.705 418.125 246.393 423.177 251.445 421.493C256.498 419.809 270.818 413.915 273.344 415.599Z" fill="#8BC3FF"/>
<path d="M279.682 508.684C281.612 508.256 283.025 507.827 283.454 507.399C285.138 505.715 299.458 474.553 296.927 461.08C294.401 447.607 273.344 415.604 273.344 415.604C272.645 415.136 271.04 415.254 268.981 415.697C271.059 419.681 284.966 446.578 288.083 459.82C291.451 474.135 284.715 495.191 282.188 501.086C281.016 503.819 280.214 506.542 279.682 508.689V508.684Z" fill="#619BCD"/>
<path d="M221.973 472.027C216.438 444.342 223.406 426.905 226.07 421.567C224.785 421.927 223.672 422.444 222.815 423.177C216.921 428.23 213.552 455.181 215.237 467.812C216.921 480.443 227.868 511.604 232.083 514.13C232.881 514.608 234.259 514.908 235.993 515.061C232.9 509.423 226.794 496.102 221.978 472.017L221.973 472.027Z" fill="#619BCD"/>
<path opacity="0.5" d="M270.941 484.446C270.705 477.853 270.168 471.288 269.242 464.754C267.41 451.857 263.648 439.531 256.966 428.313C256.266 427.141 254.641 428.166 255.178 429.357C260.487 441.201 263.466 454.088 264.997 466.94C265.756 473.278 266.135 479.67 266.371 486.042C266.593 492.01 266.14 498.234 267.051 504.134C267.336 505.98 270.498 505.985 270.783 504.134C271.758 497.742 271.172 490.892 270.941 484.446Z" fill="#619BCD"/>
<path opacity="0.5" d="M256.724 505.276C255.129 499.151 251.938 493.162 249.461 487.337C246.915 481.344 244.261 475.307 242.631 468.984C239.09 455.25 241.838 441.555 243.684 427.811C243.906 426.147 241.513 425.349 241.075 427.092C237.785 440.226 235.845 454.363 238.125 467.832C239.282 474.671 241.779 481.093 244.428 487.465C247.082 493.847 249.382 500.958 252.972 506.857C254.178 508.837 257.32 507.551 256.724 505.276Z" fill="#619BCD"/>
<path d="M179.86 370.117C178.176 366.749 105.749 298.532 105.749 298.532L103.223 283.375C103.223 283.375 108.275 273.27 100.696 257.266C93.1178 241.262 82.166 242.951 77.9557 237.893C74.4101 233.634 69.663 221.008 53.649 218.649C47.2178 440.319 43.9628 695.632 50.1626 702.787C53.2107 706.308 93.8515 708.78 151.196 710.263C163.142 688.64 169.756 656.469 169.756 656.469C169.756 656.469 184.071 618.571 184.071 610.992C184.071 603.414 189.965 600.045 190.807 588.252C191.649 576.463 184.913 571.405 188.281 564.669C191.649 557.932 191.649 558.774 190.807 552.88C189.965 546.985 192.491 530.139 196.702 520.034C200.912 509.93 206.806 477.926 204.28 449.291C201.754 420.656 181.54 373.495 179.855 370.122L179.86 370.117Z" fill="#65DFD5"/>
<path d="M159.375 592.728C153.948 595.948 148.975 599.903 143.519 603.108C138.476 606.073 133.251 608.732 127.879 611.037C116.696 615.833 103.779 617.3 93.4478 623.855C83.1411 630.394 74.2329 639.027 64.0149 645.778C58.5488 649.388 52.94 652.761 47.2031 655.903C47.2474 658.503 47.2967 661.004 47.3459 663.417C54.2203 659.803 60.9175 655.858 67.3831 651.544C71.3669 648.89 75.2572 646.098 79.0637 643.203C82.5157 643.567 86.209 643.464 89.6068 643.286C93.0637 643.109 92.911 638.416 89.6068 638.022C88.4692 637.889 87.2825 637.751 86.0859 637.638C89.7151 634.624 93.3099 631.547 97.274 629.006C102.765 625.485 108.93 623.983 115.066 622.023C120.645 620.245 126.106 618.113 131.434 615.685C142.036 610.845 153.87 604.669 162.024 596.165C163.718 594.397 161.552 591.443 159.375 592.733V592.728Z" fill="#1BB0A4"/>
<path d="M87.8192 361.327C76.8723 354.394 64.1527 352.995 52.0142 349.282C51.4479 349.11 50.8865 348.913 50.33 348.721C50.2808 351.03 50.2266 353.335 50.1774 355.635C61.8924 359.037 74.6022 359.451 85.4555 365.37C88.1097 366.818 90.3651 362.938 87.8192 361.327Z" fill="#4C9B8F"/>
<path opacity="0.5" d="M50.2562 351.922L62.3751 356.221L82.4172 360.013L85.9578 331.796L51.0491 317.304C50.7733 328.876 50.5074 340.424 50.2562 351.917V351.922Z" fill="#4C9B8F"/>
<path opacity="0.5" d="M48.1485 463.301C48.1042 466.054 48.0648 468.792 48.0254 471.515C58.7999 483.619 69.0327 496.156 78.3299 509.531C92.0295 529.238 103.917 550.137 113.844 571.991C115.095 574.739 119.104 572.356 117.887 569.628C100.751 531.188 77.3943 494.034 48.1485 463.301Z" fill="#1BB0A4"/>
<path opacity="0.5" d="M48.838 422.325C48.8085 423.931 48.7789 425.536 48.7494 427.137C72.0416 438.354 92.9357 454.688 109.457 474.573C107.694 473.938 105.931 473.273 104.148 472.628C101.317 471.604 99.554 476.001 102.12 477.439C106.458 479.867 111.353 481.26 116.193 482.275C118.99 482.861 120.428 479.867 118.808 477.779C100.229 453.812 76.2421 434.981 48.8331 422.33L48.838 422.325Z" fill="#1BB0A4"/>
<path d="M117.538 283.375C107.433 275.796 70.377 260.634 66.1618 258.108C65.2015 257.532 64.3299 256.956 63.5519 256.409C66.2159 252.524 68.5402 248.402 70.5838 244.177C71.6672 241.931 68.5944 240.085 67.2205 242.212C64.1526 246.944 60.7204 251.332 57.1157 255.596C55.9191 256.872 54.3236 258.526 52.4868 260.299C51.7876 286.398 51.1376 312.714 50.5466 338.803C53.7228 341.911 57.0468 344.407 60.2673 345.697C72.8983 350.75 93.9549 333.909 93.9549 333.909L122.59 305.273C122.59 305.273 127.642 290.958 117.538 283.375Z" fill="#1BB0A4"/>
<path d="M184.533 647.122C182.322 642.469 178.279 634.24 165.028 639.42C161.261 640.893 156.829 642.252 152.407 643.449C145.395 630.527 128.927 628.656 115.154 629.7C106.507 630.355 99.2877 632.472 91.9849 637.244C83.7021 642.661 75.6804 648.472 67.6438 654.238C65.6445 655.671 67.4124 658.911 69.6086 657.601C76.547 653.465 83.4609 649.304 90.3008 645.005C96.7911 640.927 102.951 637.298 110.712 636.436C121.866 635.2 138.806 634.654 145.744 645.138C142.1 646.009 138.727 646.743 136.063 647.29C136.915 645.443 137.575 643.513 137.988 641.489C138.417 639.411 135.477 637.948 134.389 640.002C131.015 646.384 127.233 651.722 121.585 656.316C116.154 660.733 109.91 663.885 103.966 667.524C100.627 669.567 103.572 674.59 107.019 672.763C107.585 672.463 108.157 672.153 108.733 671.843C107.994 675.408 106.65 682.469 106.206 688.615C105.581 697.252 115.041 707.224 115.041 707.224C115.041 707.224 120.083 707.889 129.095 709.588C138.106 711.287 148.6 717.289 159.04 717.895C169.475 718.501 171.198 711.287 171.198 711.287C171.198 711.287 186.735 651.771 184.523 647.117L184.533 647.122Z" fill="#1BB0A4"/>
<path d="M269.016 626.957C269.016 626.957 267.16 621.584 259.965 621.658C252.771 621.737 247.438 627.188 240.947 625.824C234.457 624.455 223.628 620.979 213.937 622.52C204.241 624.066 194.924 630.818 194.924 630.818L205.945 648.146L263.703 667.297C263.703 667.297 277.565 662.728 282.789 658.404C288.014 654.08 295.381 637.096 295.361 635.299C295.342 633.501 269.016 626.952 269.016 626.952V626.957Z" fill="#8BC3FF"/>
<path d="M249.392 641.558C249.392 641.558 275.014 616.458 279.313 614.976C283.612 613.489 288.635 612.356 290.412 610.539C292.19 608.722 291.761 602.251 294.593 598.263C297.424 594.274 303.816 586.651 311.321 582.254C318.826 577.856 328.167 577.034 328.911 579.186C329.654 581.338 291.56 617.359 291.56 617.359C291.56 617.359 289.467 623.495 286.635 627.484C283.804 631.473 258.493 652.248 258.493 652.248L249.382 641.558H249.392Z" fill="#C8DCEE"/>
<path d="M294.597 598.263C297.429 594.274 303.821 586.651 311.325 582.254C318.83 577.856 328.171 577.034 328.915 579.186C328.989 579.398 328.684 579.939 328.078 580.737C324.562 581.077 316.836 582.328 309.937 586.947C300.654 593.161 294.341 607.978 294.341 607.978L290.411 610.539C292.189 608.722 291.761 602.251 294.592 598.263H294.597Z" fill="#CEDDEA"/>
<path d="M308.676 595.963C306.618 602.178 299.95 607.442 295.164 611.628C294.819 611.928 294.43 611.977 294.061 611.879C293.913 613.42 293.534 614.937 292.82 616.311C292.347 617.231 290.682 616.793 291.007 615.715C291.406 614.405 291.682 613.095 291.717 611.736C290.835 612.386 289.904 612.967 288.875 613.381C286.403 614.38 283.715 614.267 281.257 615.35C275.343 617.95 270.394 623.313 265.706 627.597C260.526 632.335 255.601 637.372 250.347 642.021C249.303 642.946 247.683 641.656 248.668 640.543C253.124 635.501 258.172 630.906 263.111 626.346C267.563 622.24 272.029 617.793 277.136 614.498C281.725 611.539 287.295 611.908 291.47 608.368C296.631 603.995 301.388 599.041 306.268 594.363C307.509 593.176 309.183 594.412 308.671 595.963H308.676Z" fill="#93AABC"/>
<path d="M237.657 637.19C237.657 637.19 271.005 660.566 274.034 674.561C277.062 688.556 261.954 688.359 259.123 692.348C256.291 696.336 252.421 704.289 247.417 707.224C242.414 710.154 236.648 709.14 235.983 714.182C235.318 719.225 225.002 729.408 215.286 729.157C205.57 728.901 196.13 720.732 184.228 717.629C172.326 714.522 158.976 710.71 154.185 700.335C149.393 689.954 161.103 675.083 161.768 670.04C162.433 664.998 162.019 660.324 174.473 647.6C186.922 634.875 202.99 623.909 212.351 624.889C221.712 625.864 237.662 637.2 237.662 637.2L237.657 637.19Z" fill="#8BC3FF"/>
<path d="M244.315 636.387C254.085 642.085 265.244 650.328 269.892 661.034C271.133 663.895 267.056 665.382 265.337 663.294C262.033 659.276 259.216 655.129 255.356 651.559C251.894 648.358 248.077 645.566 244.029 643.153C237.5 639.263 222.288 631.039 217.325 641.509C215.178 646.034 219.28 650.491 222.003 653.765C224.563 656.848 227.454 659.645 230.423 662.348C232.127 663.599 233.698 664.973 235.052 666.45C241.621 672.113 248.56 677.594 253.435 684.828C254.4 686.261 252.524 687.778 251.224 686.763C244.128 681.233 236.732 675.757 229.813 669.838C224.568 666.825 220.082 662.742 213.577 662.289C205.713 661.743 200.882 666.549 200.217 674.265C200.075 675.94 198.07 677.131 196.524 676.801C194.471 676.363 191.541 675.6 189.605 676.688C187.818 677.698 187.729 680.303 187.769 682.277C187.847 686.276 189.463 690.166 191.452 693.574C195.515 700.532 201.074 706.259 204.255 713.769C205.245 716.098 201.537 717.974 200.257 715.753C199.651 714.699 198.991 713.675 198.307 712.666C198.105 714.099 198.44 715.492 199.508 716.827C200.991 718.678 198.031 721.298 196.357 719.584C193.496 716.654 192.324 711.725 194.535 708.042C194.589 707.948 194.658 707.874 194.717 707.795C189.615 701.271 184.051 695.036 182.17 686.724C181.2 682.44 181.047 676.865 183.873 673.192C186.291 670.05 190.58 669.641 194.461 670.055C196.248 662.26 202.153 656.646 210.593 655.981C212.371 655.843 214.203 655.932 216.034 656.213C210.992 649.885 207.579 642.242 214.124 635.235C222.451 626.322 235.466 631.231 244.3 636.382L244.315 636.387Z" fill="#619BCD"/>
<path d="M272.271 645.089C272.271 645.089 272.561 638.973 277.86 629.922C283.159 620.871 294.278 618.231 298.306 624.662C302.334 631.094 286.778 655.72 281.42 659.374C276.063 663.028 272.271 645.089 272.271 645.089Z" fill="#8BC3FF"/>
<path d="M274.039 640.08C273.473 641.814 272.823 643.488 272.404 645.266C272.025 646.881 268.002 654.804 267.258 656.296C266.78 657.257 260.512 654.455 260.132 653.49C258.877 650.264 270.08 642.232 272.212 639.691C273.517 638.135 274.709 638.032 274.039 640.08Z" fill="#619BCD"/>
<path d="M185.829 395.586C185.829 395.586 198.79 398.019 199.602 401.259C200.415 404.499 192.309 419.08 192.309 426.373C192.309 433.666 191.502 450.675 189.877 453.108C188.256 455.54 164.762 445.815 153.421 447.435C142.081 449.055 121.827 449.867 120.207 445.815C118.587 441.762 121.827 427.993 121.827 427.993L154.229 393.971L185.824 395.591L185.829 395.586Z" fill="white"/>
<path d="M74.8435 346.978C74.8435 346.978 79.7039 366.419 82.1365 378.573C84.5691 390.726 91.0496 413.407 97.53 416.648C104.011 419.888 109.683 414.215 109.683 414.215C109.683 414.215 110.496 434.469 119.404 436.897C128.317 439.329 130.745 429.604 133.985 432.844C137.225 436.084 144.518 440.944 151.806 438.517C159.099 436.084 160.719 410.975 161.527 405.302C162.34 399.629 163.147 428.796 173.68 432.036C184.214 435.277 188.261 423.123 188.261 404.494C188.261 385.865 185.021 368.847 182.588 363.179C180.156 357.506 172.868 329.157 161.527 321.864C150.186 314.571 126.692 305.662 117.779 299.182C108.866 292.702 74.8435 291.081 65.1228 304.855C55.4021 318.628 60.2625 338.07 74.8435 346.983V346.978Z" fill="#8BC3FF"/>
<path d="M112.263 410.778C110.387 402.736 109.811 394.907 109.023 386.703C108.235 378.509 106.369 370.758 103.439 363.071C102.676 361.067 99.6374 361.81 100.169 363.972C102.287 372.585 103.38 381.444 103.582 390.302C103.754 397.93 103.523 406.026 106.645 413.147C108.093 416.451 113.027 414.028 112.268 410.778H112.263Z" fill="#619BCD"/>
<path d="M159.469 358.668C158.769 356.142 155.007 357.206 155.563 359.747C158.681 374.027 158.572 388.288 158.39 402.791C158.341 406.898 164.225 406.706 164.644 402.791C166.225 388.013 163.403 372.841 159.469 358.668Z" fill="#619BCD"/>
<path opacity="0.5" d="M167.397 338.242C161.719 334.854 156.258 334.002 150.339 336.986C147.921 338.208 146.724 338.533 144.05 337.932C142.292 337.538 140.633 336.952 138.835 336.711C135.634 336.277 132.409 336.676 129.41 337.878C126.451 339.059 124.116 341.083 121.546 342.901C117.966 345.427 115.405 345.84 111.195 344.55C104.153 342.398 99.3124 343.964 93.4672 348.214C91.8717 349.371 93.3687 352.05 95.038 350.903C98.1798 348.746 102.169 347.593 105.985 348.421C108.846 349.041 111.333 350.72 114.278 351.085C120.024 351.794 123.944 347.928 128.386 344.988C131.473 342.945 134.876 341.886 138.614 342.551C141.475 343.058 144.168 344.373 147.128 344.329C150.142 344.279 151.836 342.531 154.45 341.413C157.868 339.956 161.389 341.837 164.427 343.339C167.8 345.013 170.696 340.212 167.406 338.247L167.397 338.242Z" fill="#619BCD"/>
</g>
</g>
<path d="M579.588 746.184L612.914 746.184L612.914 712.52L579.588 712.52L579.588 746.184Z" fill="#503DA0"/>
<path d="M577.953 747.833L577.953 710.878L614.543 710.878L614.543 747.833L577.953 747.833ZM581.21 714.169L581.21 744.542L611.286 744.542L611.286 714.169L581.216 714.169L581.21 714.169Z" fill="white"/>
<path d="M291.138 746.191L324.464 746.191L324.464 712.526L291.138 712.526L291.138 746.191Z" fill="#503DA0"/>
<path d="M289.509 747.833L289.509 710.878L326.099 710.878L326.099 747.833L289.509 747.833ZM292.766 714.169L292.766 744.542L322.836 744.542L322.836 714.169L292.766 714.169Z" fill="white"/>
<path d="M291.138 36.1564L324.464 36.1564L324.464 2.49206L291.138 2.49206L291.138 36.1564Z" fill="#503DA0"/>
<path d="M289.509 37.799L289.509 0.843504L326.099 0.843506L326.099 37.799L289.509 37.799ZM292.766 4.13473L292.766 34.5078L322.836 34.5078L322.836 4.13473L292.766 4.13473Z" fill="white"/>
<path d="M2.70097 746.184L36.0272 746.184L36.0272 712.52L2.70097 712.52L2.70097 746.184Z" fill="#503DA0"/>
<path d="M1.06582 747.833L1.06583 710.878L37.6556 710.878L37.6556 747.833L1.06582 747.833ZM4.32253 714.169L4.32253 744.542L34.392 744.542L34.392 714.169L4.32253 714.169Z" fill="white"/>
<path d="M579.581 390.774L612.908 390.774L612.908 357.109L579.581 357.109L579.581 390.774Z" fill="#503DA0"/>
<path d="M577.953 392.423L577.953 355.468L614.543 355.468L614.543 392.423L577.953 392.423ZM581.21 358.759L581.21 389.132L611.286 389.132L611.286 358.759L581.217 358.759L581.21 358.759Z" fill="white"/>
<path d="M2.69418 390.774L36.0204 390.774L36.0204 357.11L2.69418 357.11L2.69418 390.774Z" fill="#503DA0"/>
<path d="M1.06582 392.423L1.06583 355.468L37.6556 355.468L37.6556 392.423L1.06582 392.423ZM4.32253 358.759L4.32253 389.132L34.392 389.132L34.392 358.759L4.32253 358.759Z" fill="white"/>
<path d="M579.588 36.1498L612.914 36.1498L612.914 2.48547L579.588 2.48547L579.588 36.1498Z" fill="#503DA0"/>
<path d="M577.953 37.799L577.953 0.843504L614.543 0.843506L614.543 37.799L577.953 37.799ZM581.217 4.13473L581.217 34.5078L611.286 34.5078L611.286 4.13473L581.217 4.13473Z" fill="white"/>
<path d="M2.70113 36.1498L36.0273 36.1498L36.0273 2.48549L2.70113 2.48549L2.70113 36.1498Z" fill="#503DA0"/>
<path d="M1.06595 37.799L1.06595 0.843504L37.6558 0.843506L37.6558 37.799L1.06595 37.799ZM4.32265 4.13473L4.32265 34.5078L34.3922 34.5078L34.3922 4.13473L4.32265 4.13473Z" fill="white"/>
</svg>
