<svg width="848" height="668" viewBox="0 0 848 668" fill="none" xmlns="http://www.w3.org/2000/svg">
<g filter="url(#filter0_f_4006_444)">
<path d="M823.614 93.7185V45.109C823.614 33.8557 814.369 24.705 803.002 24.705H573.003C557.131 24.705 541.936 30.5482 530.225 41.1613L512.25 57.4481C500.959 67.6784 486.31 73.3144 471.002 73.3144H45.4671C43.6909 73.3144 41.965 73.5404 40.3206 73.9609C39.3352 74.2119 38.375 74.5383 37.4524 74.9211C36.2223 75.4358 35.0486 76.0697 33.9502 76.804C33.1155 77.3626 32.3247 77.9839 31.5841 78.6555C27.4543 82.3899 24.856 87.7623 24.856 93.7247V622.705C24.856 623.056 24.8623 623.408 24.8811 623.753C25.3957 633.826 33.3289 641.991 43.3646 643.008C44.055 643.077 44.7579 643.115 45.4671 643.115H803.009C803.718 643.115 804.421 643.077 805.111 643.008C815.147 641.998 823.074 633.826 823.595 623.753C823.613 623.408 823.62 623.056 823.62 622.705V93.7185H823.614Z" fill="black" fill-opacity="0.4"/>
</g>
<path d="M791.837 60.0907H26.0984C18.0324 60.0907 11.4937 66.6295 11.4937 74.6955V611.508C11.4937 619.574 18.0324 626.113 26.0984 626.113H791.837C799.903 626.113 806.441 619.574 806.441 611.508V74.6955C806.441 66.6295 799.903 60.0907 791.837 60.0907Z" fill="#10203A"/>
<path d="M11.4937 547.415H806.441V604.043C806.441 616.221 799.895 626.112 791.837 626.112H26.0984C18.0397 626.112 11.4937 616.221 11.4937 604.043V547.415Z" fill="#8353E3"/>
<path d="M321.524 590.751H316.524V575.751H321.524V590.751ZM336.524 565.751V600.751H326.524V575.751H321.524V565.751H336.524ZM311.524 590.751H316.524V600.751H301.524V565.751H311.524V590.751ZM371.515 565.751V570.751H351.515V600.751H341.515V565.751H371.515ZM401.495 570.751H406.495V580.751H401.495V585.751H386.495V600.751H376.495V565.751H401.495V570.751ZM396.495 580.751V570.751H386.495V580.751H396.495ZM421.476 570.751V565.751H431.476V570.751H436.476V580.751H441.476V600.751H431.476V590.751H421.476V600.751H411.476V580.751H416.476V570.751H421.476ZM421.476 585.751H431.476V575.751H421.476V585.751ZM456.456 600.751V570.751H446.456V565.751H476.456V570.751H466.456V600.751H456.456ZM506.437 585.751H511.437V595.751H506.437V600.751H481.437V565.751H491.437V580.751H506.437V585.751ZM501.437 595.751V585.751H491.437V595.751H501.437Z" fill="white"/>
<path d="M761.359 188.628H56.576C48.51 188.628 41.9712 194.731 41.9712 202.26V509.89C41.9712 517.419 48.51 523.522 56.576 523.522H761.359C769.426 523.522 775.964 517.419 775.964 509.89V202.26C775.964 194.731 769.426 188.628 761.359 188.628Z" fill="#F0F0F0"/>
<mask id="mask0_4006_444" style="mask-type:alpha" maskUnits="userSpaceOnUse" x="41" y="188" width="735" height="336">
<path d="M761.359 188.628H56.576C48.51 188.628 41.9712 194.732 41.9712 202.26V509.89C41.9712 517.419 48.51 523.523 56.576 523.523H761.359C769.426 523.523 775.964 517.419 775.964 509.89V202.26C775.964 194.732 769.426 188.628 761.359 188.628Z" fill="#F0F0F0"/>
</mask>
<g mask="url(#mask0_4006_444)">
<path opacity="0.2" fill-rule="evenodd" clip-rule="evenodd" d="M-335.499 15.1994C-336.603 15.1994 -337.499 16.0949 -337.499 17.1994V63.3311V109.463V155.594V201.726V247.858V293.989V340.121V386.253V432.384V478.516V524.647V570.779C-337.499 571.884 -336.603 572.779 -335.499 572.779H-287.147H-238.795H-190.443H-142.092H-93.7397H-41.9736H6.37817H54.7299H103.082H151.433H199.785H248.137H296.489H344.841H393.193H441.544H489.896H541.662H590.014H638.366H686.718H735.069H783.421H831.773C832.877 572.779 833.773 571.884 833.773 570.779V524.647V478.516V432.384V386.253V340.121V293.989V247.858V201.726V155.594V109.463V63.3311V17.1994C833.773 16.0949 832.877 15.1994 831.773 15.1994H783.421H735.069H686.718H638.366H590.014H541.662H489.896H441.544H393.193H344.841H296.489H248.137H199.785H151.433H103.082H54.7299H6.37817H-41.9736H-93.7397H-142.092H-190.443H-238.795H-287.147H-335.499ZM-333.499 107.463V65.3311H-289.147V107.463H-333.499ZM-333.499 61.3311H-289.147V19.1994H-333.499V61.3311ZM-285.147 107.463V65.3311H-240.795V107.463H-285.147ZM-285.147 61.3311H-240.795V19.1994H-285.147V61.3311ZM-236.795 107.463V65.3311H-192.443V107.463H-236.795ZM-236.795 61.3311H-192.443V19.1994H-236.795V61.3311ZM-188.443 107.463V65.3311H-144.092V107.463H-188.443ZM-188.443 61.3311H-144.092V19.1994H-188.443V61.3311ZM-140.092 107.463V65.3311H-95.7397V107.463H-140.092ZM-140.092 61.3311H-95.7397V19.1994H-140.092V61.3311ZM-91.7397 107.463V65.3311H-43.9736V107.463H-91.7397ZM-91.7397 61.3311H-43.9736V19.1994H-91.7397V61.3311ZM-39.9736 107.463V65.3311H4.37817V107.463H-39.9736ZM-39.9736 61.3311H4.37817V19.1994H-39.9736V61.3311ZM8.37817 107.463V65.3311H52.7299V107.463H8.37817ZM8.37817 61.3311H52.7299V19.1994H8.37817V61.3311ZM56.7299 107.463V65.3311H101.082V107.463H56.7299ZM56.7299 61.3311H101.082V19.1994H56.7299V61.3311ZM105.082 107.463V65.3311H149.433V107.463H105.082ZM105.082 61.3311H149.433V19.1994H105.082V61.3311ZM153.433 107.463V65.3311H197.785V107.463H153.433ZM153.433 61.3311H197.785V19.1994H153.433V61.3311ZM201.785 107.463V65.3311H246.137V107.463H201.785ZM201.785 61.3311H246.137V19.1994H201.785V61.3311ZM201.785 111.463H246.137V153.594H201.785V111.463ZM201.785 157.594H246.137V199.726H201.785V157.594ZM201.785 203.726H246.137V245.858H201.785V203.726ZM201.785 249.858H246.137V291.989H201.785V249.858ZM201.785 295.989H246.137V338.121H201.785V295.989ZM201.785 342.121H246.137V384.253H201.785V342.121ZM201.785 388.253H246.137V430.384H201.785V388.253ZM201.785 434.384H246.137V476.516H201.785V434.384ZM201.785 480.516H246.137V522.647H201.785V480.516ZM201.785 526.647H246.137V568.779H201.785V526.647ZM197.785 526.647V568.779H153.433V526.647H197.785ZM149.433 526.647V568.779H105.082V526.647H149.433ZM101.082 526.647V568.779H56.7299V526.647H101.082ZM52.7299 526.647V568.779H8.37817V526.647H52.7299ZM4.37817 526.647V568.779H-39.9736V526.647H4.37817ZM-43.9736 526.647V568.779H-91.7397V526.647H-43.9736ZM-95.7397 526.647V568.779H-140.092V526.647H-95.7397ZM-144.092 526.647V568.779H-188.443V526.647H-144.092ZM-192.443 526.647V568.779H-236.795V526.647H-192.443ZM-240.795 526.647V568.779H-285.147V526.647H-240.795ZM-289.147 526.647V568.779H-333.499V526.647H-289.147ZM-289.147 522.647H-333.499V480.516H-289.147V522.647ZM-289.147 476.516H-333.499V434.384H-289.147V476.516ZM-289.147 430.384H-333.499V388.253H-289.147V430.384ZM-289.147 384.253H-333.499V342.121H-289.147V384.253ZM-289.147 338.121H-333.499V295.989H-289.147V338.121ZM-289.147 291.989H-333.499V249.858H-289.147V291.989ZM-289.147 245.858H-333.499V203.726H-289.147V245.858ZM-289.147 199.726H-333.499V157.594H-289.147V199.726ZM-289.147 153.594H-333.499V111.463H-289.147V153.594ZM-285.147 153.594V111.463H-240.795V153.594H-285.147ZM-236.795 153.594V111.463H-192.443V153.594H-236.795ZM-188.443 153.594V111.463H-144.092V153.594H-188.443ZM-140.092 153.594V111.463H-95.7397V153.594H-140.092ZM-91.7397 153.594V111.463H-43.9736V153.594H-91.7397ZM-39.9736 153.594V111.463H4.37817V153.594H-39.9736ZM8.37817 153.594V111.463H52.7299V153.594H8.37817ZM56.7299 153.594V111.463H101.082V153.594H56.7299ZM105.082 153.594V111.463H149.433V153.594H105.082ZM153.433 153.594V111.463H197.785V153.594H153.433ZM153.433 157.594H197.785V199.726H153.433V157.594ZM153.433 203.726H197.785V245.858H153.433V203.726ZM153.433 249.858H197.785V291.989H153.433V249.858ZM153.433 295.989H197.785V338.121H153.433V295.989ZM153.433 342.121H197.785V384.253H153.433V342.121ZM153.433 388.253H197.785V430.384H153.433V388.253ZM153.433 434.384H197.785V476.516H153.433V434.384ZM153.433 480.516H197.785V522.647H153.433V480.516ZM149.433 480.516V522.647H105.082V480.516H149.433ZM101.082 480.516V522.647H56.7299V480.516H101.082ZM52.7299 480.516V522.647H8.37817V480.516H52.7299ZM4.37817 480.516V522.647H-39.9736V480.516H4.37817ZM-43.9736 480.516V522.647H-91.7397V480.516H-43.9736ZM-95.7397 480.516V522.647H-140.092V480.516H-95.7397ZM-144.092 480.516V522.647H-188.443V480.516H-144.092ZM-192.443 480.516V522.647H-236.795V480.516H-192.443ZM-240.795 480.516V522.647H-285.147V480.516H-240.795ZM-240.795 476.516H-285.147V434.384H-240.795V476.516ZM-240.795 430.384H-285.147V388.253H-240.795V430.384ZM-240.795 384.253H-285.147V342.121H-240.795V384.253ZM-240.795 338.121H-285.147V295.989H-240.795V338.121ZM-240.795 291.989H-285.147V249.858H-240.795V291.989ZM-240.795 245.858H-285.147V203.726H-240.795V245.858ZM-240.795 199.726H-285.147V157.594H-240.795V199.726ZM-236.795 199.726V157.594H-192.443V199.726H-236.795ZM-188.443 199.726V157.594H-144.092V199.726H-188.443ZM-140.092 199.726V157.594H-95.7397V199.726H-140.092ZM-91.7397 199.726V157.594H-43.9736V199.726H-91.7397ZM-39.9736 199.726V157.594H4.37817V199.726H-39.9736ZM8.37817 199.726V157.594H52.7299V199.726H8.37817ZM56.7299 199.726V157.594H101.082V199.726H56.7299ZM105.082 199.726V157.594H149.433V199.726H105.082ZM105.082 203.726H149.433V245.858H105.082V203.726ZM105.082 249.858H149.433V291.989H105.082V249.858ZM105.082 295.989H149.433V338.121H105.082V295.989ZM105.082 342.121H149.433V384.253H105.082V342.121ZM105.082 388.253H149.433V430.384H105.082V388.253ZM105.082 434.384H149.433V476.516H105.082V434.384ZM101.082 434.384V476.516H56.7299V434.384H101.082ZM52.7299 434.384V476.516H8.37817V434.384H52.7299ZM4.37817 434.384V476.516H-39.9736V434.384H4.37817ZM-43.9736 434.384V476.516H-91.7397V434.384H-43.9736ZM-95.7397 434.384V476.516H-140.092V434.384H-95.7397ZM-144.092 434.384V476.516H-188.443V434.384H-144.092ZM-192.443 434.384V476.516H-236.795V434.384H-192.443ZM-192.443 430.384H-236.795V388.253H-192.443V430.384ZM-192.443 384.253H-236.795V342.121H-192.443V384.253ZM-192.443 338.121H-236.795V295.989H-192.443V338.121ZM-192.443 291.989H-236.795V249.858H-192.443V291.989ZM-192.443 245.858H-236.795V203.726H-192.443V245.858ZM-188.443 245.858V203.726H-144.092V245.858H-188.443ZM-140.092 245.858V203.726H-95.7397V245.858H-140.092ZM-91.7397 245.858V203.726H-43.9736V245.858H-91.7397ZM-39.9736 245.858V203.726H4.37817V245.858H-39.9736ZM8.37817 245.858V203.726H52.7299V245.858H8.37817ZM56.7299 245.858V203.726H101.082V245.858H56.7299ZM56.7299 249.858H101.082V291.989H56.7299V249.858ZM56.7299 295.989H101.082V338.121H56.7299V295.989ZM56.7299 342.121H101.082V384.253H56.7299V342.121ZM56.7299 388.253H101.082V430.384H56.7299V388.253ZM52.7299 388.253V430.384H8.37817V388.253H52.7299ZM4.37817 388.253V430.384H-39.9736V388.253H4.37817ZM-43.9736 388.253V430.384H-91.7397V388.253H-43.9736ZM-95.7397 388.253V430.384H-140.092V388.253H-95.7397ZM-144.092 388.253V430.384H-188.443V388.253H-144.092ZM-144.092 384.253H-188.443V342.121H-144.092V384.253ZM-144.092 338.121H-188.443V295.989H-144.092V338.121ZM-144.092 291.989H-188.443V249.858H-144.092V291.989ZM-140.092 291.989V249.858H-95.7397V291.989H-140.092ZM-91.7397 291.989V249.858H-43.9736V291.989H-91.7397ZM-39.9736 291.989V249.858H4.37817V291.989H-39.9736ZM8.37817 291.989V249.858H52.7299V291.989H8.37817ZM8.37817 295.989H52.7299V338.121H8.37817V295.989ZM8.37817 342.121H52.7299V384.253H8.37817V342.121ZM4.37817 342.121V384.253H-39.9736V342.121H4.37817ZM-43.9736 342.121V384.253H-91.7397V342.121H-43.9736ZM-95.7397 342.121V384.253H-140.092V342.121H-95.7397ZM-95.7397 338.121H-140.092V295.989H-95.7397V338.121ZM-91.7397 338.121V295.989H-43.9736V338.121H-91.7397ZM-39.9736 338.121V295.989H4.37817V338.121H-39.9736ZM294.489 107.463H250.137V65.3311H294.489V107.463ZM250.137 61.3311H294.489V19.1994H250.137V61.3311ZM342.841 107.463H298.489V65.3311H342.841V107.463ZM298.489 61.3311H342.841V19.1994H298.489V61.3311ZM391.193 107.463H346.841V65.3311H391.193V107.463ZM346.841 61.3311H391.193V19.1994H346.841V61.3311ZM439.544 107.463H395.193V65.3311H439.544V107.463ZM395.193 61.3311H439.544V19.1994H395.193V61.3311ZM487.896 107.463H443.544V65.3311H487.896V107.463ZM443.544 61.3311H487.896V19.1994H443.544V61.3311ZM539.662 107.463H491.896V65.3311H539.662V107.463ZM491.896 61.3311H539.662V19.1994H491.896V61.3311ZM588.014 107.463H543.662V65.3311H588.014V107.463ZM543.662 61.3311H588.014V19.1994H543.662V61.3311ZM636.366 107.463H592.014V65.3311H636.366V107.463ZM592.014 61.3311H636.366V19.1994H592.014V61.3311ZM684.718 107.463H640.366V65.3311H684.718V107.463ZM640.366 61.3311H684.718V19.1994H640.366V61.3311ZM733.069 107.463H688.718V65.3311H733.069V107.463ZM688.718 61.3311H733.069V19.1994H688.718V61.3311ZM781.421 107.463H737.069V65.3311H781.421V107.463ZM737.069 61.3311H781.421V19.1994H737.069V61.3311ZM829.773 107.463H785.421V65.3311H829.773V107.463ZM785.421 61.3311H829.773V19.1994H785.421V61.3311ZM785.421 111.463H829.773V153.594H785.421V111.463ZM785.421 157.594H829.773V199.726H785.421V157.594ZM785.421 203.726H829.773V245.858H785.421V203.726ZM785.421 249.858H829.773V291.989H785.421V249.858ZM785.421 295.989H829.773V338.121H785.421V295.989ZM785.421 342.121H829.773V384.253H785.421V342.121ZM785.421 388.253H829.773V430.384H785.421V388.253ZM785.421 434.384H829.773V476.516H785.421V434.384ZM785.421 480.516H829.773V522.647H785.421V480.516ZM785.421 526.647H829.773V568.779H785.421V526.647ZM737.069 526.647H781.421V568.779H737.069V526.647ZM688.718 526.647H733.069V568.779H688.718V526.647ZM640.366 526.647H684.718V568.779H640.366V526.647ZM592.014 526.647H636.366V568.779H592.014V526.647ZM543.662 526.647H588.014V568.779H543.662V526.647ZM491.896 526.647H539.662V568.779H491.896V526.647ZM443.544 526.647H487.896V568.779H443.544V526.647ZM395.193 526.647H439.544V568.779H395.193V526.647ZM346.841 526.647H391.193V568.779H346.841V526.647ZM298.489 526.647H342.841V568.779H298.489V526.647ZM250.137 526.647H294.489V568.779H250.137V526.647ZM294.489 522.647H250.137V480.516H294.489V522.647ZM294.489 476.516H250.137V434.384H294.489V476.516ZM294.489 430.384H250.137V388.253H294.489V430.384ZM294.489 384.253H250.137V342.121H294.489V384.253ZM294.489 338.121H250.137V295.989H294.489V338.121ZM294.489 291.989H250.137V249.858H294.489V291.989ZM294.489 245.858H250.137V203.726H294.489V245.858ZM294.489 199.726H250.137V157.594H294.489V199.726ZM294.489 153.594H250.137V111.463H294.489V153.594ZM298.489 153.594V111.463H342.841V153.594H298.489ZM346.841 153.594V111.463H391.193V153.594H346.841ZM395.193 153.594V111.463H439.544V153.594H395.193ZM443.544 153.594V111.463H487.896V153.594H443.544ZM491.896 153.594V111.463H539.662V153.594H491.896ZM543.662 153.594V111.463H588.014V153.594H543.662ZM592.014 153.594V111.463H636.366V153.594H592.014ZM640.366 153.594V111.463H684.718V153.594H640.366ZM688.718 153.594V111.463H733.069V153.594H688.718ZM737.069 153.594V111.463H781.421V153.594H737.069ZM737.069 157.594H781.421V199.726H737.069V157.594ZM737.069 203.726H781.421V245.858H737.069V203.726ZM737.069 249.858H781.421V291.989H737.069V249.858ZM737.069 295.989H781.421V338.121H737.069V295.989ZM737.069 342.121H781.421V384.253H737.069V342.121ZM737.069 388.253H781.421V430.384H737.069V388.253ZM737.069 434.384H781.421V476.516H737.069V434.384ZM737.069 480.516H781.421V522.647H737.069V480.516ZM733.069 480.516V522.647H688.718V480.516H733.069ZM684.718 480.516V522.647H640.366V480.516H684.718ZM636.366 480.516V522.647H592.014V480.516H636.366ZM588.014 480.516V522.647H543.662V480.516H588.014ZM539.662 480.516V522.647H491.896V480.516H539.662ZM487.896 480.516V522.647H443.544V480.516H487.896ZM439.544 480.516V522.647H395.193V480.516H439.544ZM391.193 480.516V522.647H346.841V480.516H391.193ZM342.841 480.516V522.647H298.489V480.516H342.841ZM342.841 476.516H298.489V434.384H342.841V476.516ZM342.841 430.384H298.489V388.253H342.841V430.384ZM342.841 384.253H298.489V342.121H342.841V384.253ZM342.841 338.121H298.489V295.989H342.841V338.121ZM342.841 291.989H298.489V249.858H342.841V291.989ZM342.841 245.858H298.489V203.726H342.841V245.858ZM342.841 199.726H298.489V157.594H342.841V199.726ZM346.841 199.726V157.594H391.193V199.726H346.841ZM395.193 199.726V157.594H439.544V199.726H395.193ZM443.544 199.726V157.594H487.896V199.726H443.544ZM491.896 199.726V157.594H539.662V199.726H491.896ZM543.662 199.726V157.594H588.014V199.726H543.662ZM592.014 199.726V157.594H636.366V199.726H592.014ZM640.366 199.726V157.594H684.718V199.726H640.366ZM688.718 199.726V157.594H733.069V199.726H688.718ZM688.718 203.726H733.069V245.858H688.718V203.726ZM688.718 249.858H733.069V291.989H688.718V249.858ZM688.718 295.989H733.069V338.121H688.718V295.989ZM688.718 342.121H733.069V384.253H688.718V342.121ZM688.718 388.253H733.069V430.384H688.718V388.253ZM688.718 434.384H733.069V476.516H688.718V434.384ZM684.718 434.384V476.516H640.366V434.384H684.718ZM636.366 434.384V476.516H592.014V434.384H636.366ZM588.014 434.384V476.516H543.662V434.384H588.014ZM539.662 434.384V476.516H491.896V434.384H539.662ZM487.896 434.384V476.516H443.544V434.384H487.896ZM439.544 434.384V476.516H395.193V434.384H439.544ZM391.193 434.384V476.516H346.841V434.384H391.193ZM391.193 430.384H346.841V388.253H391.193V430.384ZM391.193 384.253H346.841V342.121H391.193V384.253ZM391.193 338.121H346.841V295.989H391.193V338.121ZM391.193 291.989H346.841V249.858H391.193V291.989ZM391.193 245.858H346.841V203.726H391.193V245.858ZM395.193 245.858V203.726H439.544V245.858H395.193ZM443.544 245.858V203.726H487.896V245.858H443.544ZM491.896 245.858V203.726H539.662V245.858H491.896ZM543.662 245.858V203.726H588.014V245.858H543.662ZM592.014 245.858V203.726H636.366V245.858H592.014ZM640.366 245.858V203.726H684.718V245.858H640.366ZM640.366 249.858H684.718V291.989H640.366V249.858ZM640.366 295.989H684.718V338.121H640.366V295.989ZM640.366 342.121H684.718V384.253H640.366V342.121ZM640.366 388.253H684.718V430.384H640.366V388.253ZM636.366 388.253V430.384H592.014V388.253H636.366ZM588.014 388.253V430.384H543.662V388.253H588.014ZM539.662 388.253V430.384H491.896V388.253H539.662ZM487.896 388.253V430.384H443.544V388.253H487.896ZM439.544 388.253V430.384H395.193V388.253H439.544ZM439.544 384.253H395.193V342.121H439.544V384.253ZM439.544 338.121H395.193V295.989H439.544V338.121ZM439.544 291.989H395.193V249.858H439.544V291.989ZM443.544 291.989V249.858H487.896V291.989H443.544ZM491.896 291.989V249.858H539.662V291.989H491.896ZM543.662 291.989V249.858H588.014V291.989H543.662ZM592.014 291.989V249.858H636.366V291.989H592.014ZM592.014 295.989H636.366V338.121H592.014V295.989ZM592.014 342.121H636.366V384.253H592.014V342.121ZM588.014 342.121V384.253H543.662V342.121H588.014ZM539.662 342.121V384.253H491.896V342.121H539.662ZM487.896 342.121V384.253H443.544V342.121H487.896ZM487.896 338.121H443.544V295.989H487.896V338.121ZM491.896 338.121V295.989H539.662V338.121H491.896ZM543.662 338.121V295.989H588.014V338.121H543.662Z" fill="#03303C" fill-opacity="0.4"/>
<path d="M408.742 638.202L381.155 476.734C381.155 476.734 368.716 425.504 341.683 419.04C314.649 412.58 304.475 461.475 311.696 479.195L344.369 651C344.369 651 355.207 677.248 375.565 677.582C395.926 677.906 411.038 660.844 408.739 638.202H408.742Z" fill="#566491"/>
<path d="M287.402 407.328H182.31V591.437H287.402V407.328Z" fill="#C9DDE2"/>
<path d="M261.902 430.01L250.493 440.678L269.292 580.486H227.915L239.084 440.105L227.506 427.304L236.332 405.443L255.216 404.13L261.902 430.01Z" fill="#06D0A0"/>
<path d="M255.749 386.691L276.604 397.522C276.604 397.522 278.245 401.632 278.081 405.074C277.917 408.517 267.57 438.22 267.57 438.22C267.57 438.22 265.111 441.826 262.809 439.86L245.323 413.193L223.513 439.696C223.513 439.696 220.723 442.978 215.628 439.532C215.628 439.532 198.775 418.197 191.385 408.517C183.994 398.837 183.339 390.627 183.339 390.627L204.683 380.129L255.752 386.687L255.749 386.691Z" fill="white"/>
<path d="M278.937 396.745L276.642 397.623C276.642 397.623 275.738 435.47 271.471 473.213C267.204 510.95 252.093 567.401 252.093 567.401C252.093 567.401 216.954 484.702 208.745 461.072C200.536 437.443 188.878 387.908 188.878 387.908L177.545 391.496L126.646 413.155C126.646 413.155 116.79 421.035 118.761 431.863C120.732 442.695 138.14 652.394 138.14 652.394C138.14 652.394 127.795 716.231 125.827 746.095C123.856 775.958 122.543 814.35 122.543 814.35C122.543 814.35 122.666 814.564 122.952 814.941H351.756C349.533 785.396 337.315 655.84 337.315 655.84C337.315 655.84 343.389 558.209 345.03 532.94C346.677 507.665 346.677 488.308 346.677 488.308L345.364 423.653C345.364 423.653 344.668 419.761 339.737 418.2C334.812 416.639 278.944 396.748 278.944 396.748L278.937 396.745Z" fill="#566491"/>
<path d="M178.522 391.917C178.761 391.379 178.515 390.753 177.974 390.514C177.435 390.281 176.802 390.527 176.569 391.068L162.531 423.175C162.519 423.2 159.115 431.209 165.797 435.416L208.175 461.979C208.669 462.29 209.334 462.142 209.646 461.642C209.957 461.142 209.809 460.484 209.315 460.172L166.937 433.61C161.942 430.463 164.361 424.339 164.503 423.99L178.522 391.924V391.917Z" fill="#313763"/>
<path d="M258.208 814.941L252.165 572.757L251.92 572.099L176.358 481.272C176.358 481.272 172.079 476.423 176.683 471.438C181.938 465.749 194.635 452.548 194.669 452.51C195.085 452.088 195.072 451.412 194.65 451.003C194.228 450.593 193.551 450.6 193.142 451.021C193.104 451.059 180.36 464.314 175.111 469.997C169.393 476.187 174.415 482.282 174.752 482.679L250.04 573.179L256.076 814.941H258.211H258.208Z" fill="#313763"/>
<path d="M288.337 399.099C287.953 398.649 287.276 398.604 286.829 398.995C286.388 399.379 286.341 400.055 286.725 400.502L303.918 420.252C304.283 420.824 307.464 426.193 303.228 430.079L271.66 463.92C271.264 464.355 271.283 465.031 271.714 465.428C272.148 465.83 272.825 465.805 273.229 465.374L304.711 431.618C310.461 426.281 305.669 419.015 305.656 418.993L305.577 418.889L288.34 399.095L288.337 399.099Z" fill="#313763"/>
<path d="M256.677 565.714C256.397 566.234 256.592 566.879 257.112 567.159C257.631 567.439 258.283 567.238 258.557 566.718L303.388 482.581C304.103 481.697 308.398 475.891 302.954 469.997C297.705 464.317 284.961 451.059 284.923 451.021C284.514 450.6 283.837 450.593 283.415 451.003C282.993 451.412 282.987 452.088 283.396 452.51C283.427 452.548 296.127 465.752 301.389 471.438C305.986 476.423 301.72 481.259 301.707 481.272L301.556 481.48L256.677 565.714Z" fill="#313763"/>
<path d="M347.194 461.331C347.187 460.739 346.699 460.27 346.114 460.276C345.522 460.283 345.052 460.764 345.059 461.349C345.059 461.478 345.682 505.462 343.387 541.839C341.129 577.632 336.434 652.797 336.421 653.011C336.383 653.603 336.831 654.109 337.423 654.141C338.008 654.172 338.515 653.725 338.547 653.14C338.559 652.926 343.185 578.963 345.518 541.968C347.814 505.566 347.191 461.453 347.191 461.327L347.194 461.331Z" fill="#313763"/>
<path d="M356.599 471.3C356.606 470.714 356.13 470.233 355.544 470.227C354.952 470.22 354.471 470.689 354.464 471.281C354.464 471.347 354.14 494.552 345.408 506.761C345.071 507.243 345.181 507.913 345.663 508.25C346.139 508.593 346.809 508.477 347.153 508.004C356.266 495.257 356.596 471.375 356.596 471.303L356.599 471.3Z" fill="#313763"/>
<path d="M143.228 489.372L113.515 658.55C113.515 658.55 108.584 677.909 82.3187 673.975C56.0441 670.035 54.731 647.718 54.731 647.718L81.4905 462.133C81.4905 462.133 84.1198 423.572 126.646 413.152C126.646 413.152 151.444 417.171 143.228 489.372Z" fill="#566491"/>
<path d="M127.317 573.777C127.219 574.362 127.61 574.913 128.195 575.01C128.775 575.108 129.326 574.718 129.423 574.139L144.554 487.069C144.658 486.483 144.261 485.933 143.682 485.835C143.102 485.737 142.542 486.128 142.447 486.713L127.317 573.777Z" fill="#313763"/>
<path d="M153.525 490.401C153.629 489.816 153.232 489.262 152.653 489.167C152.073 489.07 151.516 489.46 151.418 490.039C151.418 490.071 149.746 499.775 137.056 518.342C136.719 518.823 136.848 519.494 137.337 519.824C137.818 520.154 138.489 520.032 138.82 519.544C151.777 500.594 153.528 490.429 153.528 490.401H153.525Z" fill="#313763"/>
<path d="M262.072 358.718L262.73 398.425C262.73 398.425 263.054 413.851 245.323 413.193C227.591 412.536 208.543 396.786 208.543 396.786L201.641 384.642C201.641 384.642 206.572 373.48 205.914 364.952C205.256 356.418 202.296 324.257 202.296 324.257C202.296 324.257 205.914 314.408 224.958 315.065C244.006 315.723 265.866 327.476 262.068 358.715L262.072 358.718Z" fill="#FDA77E"/>
<path d="M262.072 358.718L262.626 392.197C260.368 393.979 257.408 395.728 253.903 396.461C245.584 398.217 212.693 371.819 209.019 364.958C208.269 363.555 206.956 361.122 205.344 358.139C204.264 345.612 202.299 324.257 202.299 324.257C202.299 324.257 205.917 314.408 224.962 315.065C244.009 315.723 265.869 327.476 262.072 358.715V358.718Z" fill="#D05F3C"/>
<path d="M288.957 255.892L294.584 281.542L291.879 350.612C291.879 350.612 290.128 359.426 284.035 365.478C277.933 371.529 265.86 379.701 265.86 379.701C265.86 379.701 260.012 382.971 253.629 382.118C247.246 381.265 216.947 362.123 216.947 362.123C216.947 362.123 211.764 356.456 209.085 347.179L206.742 340.463C206.742 340.463 196.901 339.994 192.184 327.703C187.467 315.418 188.582 307.337 195.273 303.438C201.962 299.539 206.742 308.287 207.885 313.74L207.006 264.212C207.006 264.212 216.151 244.463 239.557 241.895C262.963 239.321 284.712 244.104 288.954 255.892H288.957Z" fill="#FDA77E"/>
<path d="M273.515 349.589C274.088 349.46 274.45 348.887 274.321 348.315C274.192 347.742 273.625 347.38 273.046 347.509C273.014 347.515 260.551 350.533 247.58 345.662C247.026 345.454 246.415 345.734 246.207 346.285C245.999 346.836 246.28 347.449 246.831 347.657C260.406 352.755 273.474 349.596 273.515 349.589Z" fill="#AC5649"/>
<path d="M248.834 289.082C249.419 289.167 249.791 285.324 249.876 284.739C249.961 284.16 249.558 283.616 248.972 283.531C248.934 283.531 235.533 281.523 231.02 283.921C230.501 284.201 230.305 284.843 230.579 285.365C230.86 285.885 231.678 289.525 232.198 289.245C236.087 287.178 248.805 289.075 248.837 289.082H248.834Z" fill="#AC5649"/>
<path d="M287.914 288.726C288.469 288.921 289.3 286.218 289.495 285.664C289.69 285.104 289.398 284.494 288.843 284.298C288.831 284.298 283.49 282.464 276.667 284.261C276.1 284.412 275.757 284.994 275.905 285.567C276.056 286.139 276.418 288.89 276.991 288.739C283.191 287.105 287.899 288.72 287.911 288.726H287.914Z" fill="#AC5649"/>
<path d="M209.519 264.005L213.011 260.09C213.011 260.09 216.809 261.931 222.553 256.845C228.29 251.77 253.138 255.804 265.406 257.657C277.668 259.511 288.954 255.889 288.954 255.889C288.954 255.889 291.224 256.638 294.502 251.48C297.78 246.332 297.689 222.356 277.448 218.133C257.203 213.9 245.685 225.537 232.188 226.441C218.692 227.344 172.96 248.289 190.818 273.939L209.519 263.998V264.005Z" fill="#AC5649"/>
<path d="M214.756 283.616C213.742 289.985 207.888 313.74 207.888 313.74C202.242 299.237 190.456 303.469 189.335 313.696C189.335 313.696 186.009 299.819 186.967 289.994C187.924 280.179 186.831 272.756 193.192 268.848C199.553 264.933 213.011 260.09 213.011 260.09C216.418 261.924 215.269 280.431 214.756 283.616Z" fill="#BC6D58"/>
<path d="M192.801 316.041C192.808 316.626 193.296 317.101 193.881 317.089C194.473 317.082 194.943 316.595 194.936 316.009C194.924 315.32 195.229 314.571 195.724 313.954C196.089 313.492 196.555 313.108 197.071 312.881C197.534 312.68 198.035 312.608 198.517 312.74C199.017 312.875 199.537 313.227 200.038 313.863C201.325 315.515 202.783 318.653 203.974 321.847C205.306 325.44 206.282 329.043 206.282 330.623C206.282 333.119 203.889 334.141 203.882 334.148C203.334 334.374 203.083 335 203.309 335.545C203.536 336.083 204.163 336.344 204.707 336.111C204.72 336.111 208.414 334.525 208.423 330.626C208.423 328.807 207.39 324.912 205.976 321.11C204.726 317.743 203.152 314.389 201.716 312.548C200.916 311.522 200 310.93 199.074 310.682C198.079 310.414 197.096 310.54 196.212 310.927C195.38 311.292 194.625 311.903 194.045 312.636C193.264 313.618 192.782 314.851 192.801 316.041Z" fill="#AC5649"/>
<path d="M196.237 324.792C195.998 325.33 196.243 325.963 196.785 326.196C197.324 326.428 197.956 326.183 198.189 325.642C198.189 325.642 198.463 324.893 200.74 324.009C202.932 323.149 205.177 324.54 205.183 324.547C205.69 324.846 206.348 324.682 206.654 324.175C206.953 323.669 206.789 323.011 206.282 322.706C206.27 322.699 203.168 320.767 199.965 322.023C196.842 323.238 196.237 324.78 196.237 324.786V324.792Z" fill="#AC5649"/>
<path d="M269.629 227.775C270.196 227.599 270.507 227.001 270.331 226.444C270.148 225.877 269.55 225.566 268.99 225.742C268.917 225.767 244.661 233.093 246.163 258.18C246.195 258.765 246.702 259.212 247.287 259.18C247.873 259.143 248.32 258.642 248.289 258.051C246.89 234.654 269.56 227.803 269.626 227.778L269.629 227.775ZM207.904 244.573C208.008 243.987 207.617 243.437 207.031 243.339C206.452 243.242 205.901 243.632 205.803 244.211C205.797 244.242 203.643 256.471 209.192 261.997C209.607 262.412 210.284 262.406 210.7 261.991C211.116 261.569 211.116 260.892 210.7 260.477C205.939 255.744 207.897 244.611 207.904 244.576V244.573ZM224.218 237.137C224.549 236.649 224.42 235.985 223.932 235.661C223.444 235.33 222.779 235.459 222.449 235.947C222.43 235.979 214.57 247.458 221.68 257.465C222.017 257.953 222.688 258.063 223.17 257.727C223.651 257.384 223.762 256.72 223.425 256.238C217.18 247.436 224.199 237.171 224.218 237.14V237.137ZM241.377 232.25C241.786 231.834 241.78 231.158 241.364 230.742C240.942 230.333 240.265 230.34 239.856 230.755C239.824 230.786 228.797 242.033 232.472 255.801C232.623 256.367 233.205 256.71 233.778 256.556C234.351 256.405 234.688 255.823 234.54 255.25C231.177 242.659 241.352 232.284 241.377 232.25Z" fill="#7E3E35"/>
<path d="M243.792 301.175L243.962 309.067C243.962 309.067 243.833 311.207 241.972 311.494C240.117 311.774 238.81 311.462 238.256 309.823C237.702 308.177 237.891 300.272 237.891 300.272C237.891 300.272 238.14 298.217 240.357 298.101C242.573 297.99 243.688 299.142 243.792 301.175Z" fill="#7E3E35"/>
<path d="M283.843 302.248L284 309.634C284 309.634 283.884 311.641 282.146 311.903C280.401 312.164 279.186 311.877 278.666 310.336C278.153 308.8 278.323 301.405 278.323 301.405C278.323 301.405 278.556 299.473 280.631 299.369C282.706 299.265 283.749 300.344 283.843 302.248Z" fill="#7E3E35"/>
<path d="M275.12 326.551C275.12 326.551 270.019 327.577 266.703 326.979C263.388 326.381 255.002 331.731 255.002 331.731C255.002 331.731 253.878 336.514 256.044 335.982C258.217 335.457 272.416 336.325 272.416 336.325L275.12 326.548V326.551Z" fill="#EE7353"/>
<path d="M270.3 293.497C270.47 292.93 270.149 292.332 269.585 292.166C269.021 291.999 268.426 292.317 268.259 292.88C268.247 292.911 264.903 303.689 265.929 309.391C266.839 314.411 272.662 324.402 273.975 326.624L270.435 335.542C270.215 336.089 270.479 336.712 271.034 336.926C271.581 337.14 272.199 336.873 272.413 336.328L276.343 326.435L276.081 325.985C276.062 325.953 268.977 314.256 268.03 309.017C267.094 303.822 270.287 293.519 270.3 293.494V293.497Z" fill="#AC5649"/>
<path d="M262.462 335.882C262.957 336.199 263.621 336.052 263.939 335.557C264.251 335.063 264.109 334.399 263.608 334.088C263.602 334.082 261.124 332.54 257.707 333.38L254.728 334.113C254.155 334.248 253.806 334.827 253.941 335.4C254.083 335.979 254.662 336.328 255.235 336.187L258.214 335.46C260.759 334.837 262.456 335.882 262.462 335.882Z" fill="#AC5649"/>
<path d="M267.626 357.878C268.206 357.762 268.577 357.195 268.458 356.616C268.341 356.037 267.781 355.666 267.201 355.785C267.176 355.785 258.661 357.507 252.027 354.511C251.494 354.272 250.861 354.511 250.622 355.043C250.383 355.581 250.622 356.213 251.154 356.452C258.413 359.728 267.598 357.875 267.623 357.875L267.626 357.878Z" fill="#AC5649"/>
</g>
<path d="M787.738 11.4814H557.739C542.382 11.4814 527.576 17.1739 516.247 27.4418L498.272 43.7287C486.655 54.2539 471.485 60.0908 455.738 60.0908H30.2032C19.8725 60.0908 11.5 68.3817 11.5 78.6057V162.167H806.448V30.0026C806.448 19.7723 798.075 11.4814 787.745 11.4814H787.738Z" fill="#8353E3"/>
<path d="M782.703 24.8429H744.089C741.88 24.8429 740.089 26.6338 740.089 28.8429V66.992C740.089 69.2012 741.88 70.992 744.089 70.992H782.703C784.912 70.992 786.703 69.2012 786.703 66.992V28.8429C786.703 26.6338 784.912 24.8429 782.703 24.8429Z" fill="#10203A"/>
<path d="M774.91 61.4136L749.761 36.5158L751.883 34.4195L777.025 59.3173L774.91 61.4136Z" fill="white"/>
<path d="M751.883 61.4136L749.761 59.3173L774.91 34.4195L777.025 36.5158L751.883 61.4136Z" fill="white"/>
<path d="M717.694 24.8432H679.08C676.871 24.8432 675.08 26.634 675.08 28.8432V66.9923C675.08 69.2015 676.871 70.9923 679.08 70.9923H717.694C719.903 70.9923 721.694 69.2015 721.694 66.9923V28.8432C721.694 26.634 719.903 24.8432 717.694 24.8432Z" fill="#10203A"/>
<path d="M710.968 60.3724H685.806V35.4621H710.968V60.3724ZM688.8 57.4101H707.974V38.4244H688.8V57.4101Z" fill="white"/>
<path d="M650.632 24.8429H612.019C609.809 24.8429 608.019 26.6338 608.019 28.8429V66.992C608.019 69.2012 609.809 70.992 612.019 70.992H650.632C652.841 70.992 654.632 69.2012 654.632 66.992V28.8429C654.632 26.6338 652.841 24.8429 650.632 24.8429Z" fill="#10203A"/>
<path d="M645.576 57.2094H617.088V60.1718H645.576V57.2094Z" fill="white"/>
<path d="M779.717 96.5802H204.393C199.27 96.5802 195.117 100.733 195.117 105.857V130.127C195.117 135.25 199.27 139.403 204.393 139.403H779.717C784.84 139.403 788.993 135.25 788.993 130.127V105.857C788.993 100.733 784.84 96.5802 779.717 96.5802Z" fill="#10203A"/>
<path d="M219.944 123.095H216.61V113.095H219.944V123.095ZM229.944 106.428V129.762H223.277V113.095H219.944V106.428H229.944ZM213.277 123.095H216.61V129.762H206.61V106.428H213.277V123.095ZM239.937 116.428H246.604V109.762H239.937V116.428ZM246.604 119.762H239.937V126.428H246.604V119.762ZM233.271 129.762V106.428H249.937V109.762H253.271V116.428H249.937V119.762H253.271V126.428H249.937V129.762H233.271ZM263.257 109.762V106.428H269.924V109.762H273.257V116.428H276.591V129.762H269.924V123.095H263.257V129.762H256.591V116.428H259.924V109.762H263.257ZM263.257 119.762H269.924V113.095H263.257V119.762ZM293.244 129.762V119.762H286.578V129.762H279.911V106.428H286.578V116.428H293.244V106.428H299.911V129.762H293.244ZM316.562 113.095V109.762H319.895V106.428H333.228V109.762H336.562V116.428H333.228V119.762H336.562V126.428H333.228V129.762H319.895V126.428H316.562V123.095H323.228V126.428H329.895V119.762H323.228V116.428H329.895V109.762H323.228V113.095H316.562ZM353.215 119.762V113.095H349.882V116.428H346.549V119.762H353.215ZM356.549 119.762H359.882V123.095H356.549V129.762H349.882V123.095H339.882V116.428H343.215V113.095H346.549V109.762H349.882V106.428H356.549V119.762ZM396.532 106.428V109.762H383.199V129.762H376.532V106.428H396.532ZM403.186 126.428H399.853V109.762H403.186V106.428H416.519V109.762H419.853V126.428H416.519V129.762H403.186V126.428ZM413.186 126.428V109.762H406.519V126.428H413.186ZM439.84 133.095V129.762H429.84V133.095H423.173V126.428H426.506V109.762H429.84V106.428H439.84V109.762H443.173V126.428H446.506V133.095H439.84ZM433.173 126.428H436.506V109.762H433.173V126.428ZM456.5 109.762V106.428H463.166V109.762H466.5V116.428H469.833V129.762H463.166V123.095H456.5V129.762H449.833V116.428H453.166V109.762H456.5ZM456.5 119.762H463.166V113.095H456.5V119.762Z" fill="white"/>
<path d="M57.1156 134.602C56.8081 134.602 56.5005 134.508 56.2369 134.32L38.3246 121.447C37.9355 121.171 37.7095 120.725 37.7095 120.248C37.7095 119.771 37.9418 119.326 38.3246 119.049L56.2369 106.177C56.9085 105.694 57.8437 105.844 58.327 106.503C58.8102 107.169 58.6659 108.091 57.9943 108.574L41.7514 120.248L57.9943 131.922C58.6659 132.405 58.8102 133.328 58.327 133.993C58.032 134.395 57.5801 134.602 57.1156 134.602Z" fill="#10203A"/>
<path d="M88.66 134.602C88.1956 134.602 87.7374 134.388 87.4487 133.993C86.9654 133.328 87.1098 132.405 87.7813 131.922L104.024 120.248L87.7813 108.574C87.1098 108.091 86.9654 107.168 87.4487 106.503C87.9319 105.838 88.8734 105.693 89.5387 106.177L107.451 119.049C107.84 119.325 108.066 119.771 108.066 120.248C108.066 120.725 107.834 121.171 107.451 121.447L89.5387 134.319C89.2751 134.508 88.9676 134.602 88.66 134.602Z" fill="#10203A"/>
<path d="M143.157 124.68C139.529 124.68 136.121 123.28 133.554 120.745C128.263 115.504 128.263 106.975 133.554 101.734C136.121 99.1923 139.529 97.799 143.157 97.799C146.784 97.799 150.192 99.1986 152.759 101.734C158.05 106.975 158.05 115.504 152.759 120.745C150.192 123.287 146.784 124.68 143.157 124.68ZM143.157 100.761C140.332 100.761 137.671 101.853 135.675 103.83C131.552 107.916 131.552 114.563 135.675 118.649C137.671 120.626 140.332 121.718 143.157 121.718C145.981 121.718 148.642 120.626 150.638 118.649C154.761 114.563 154.761 107.916 150.638 103.83C148.642 101.853 145.981 100.761 143.157 100.761Z" fill="#10203A"/>
<path d="M167.954 136.731C167.571 136.731 167.188 136.587 166.893 136.298L151.736 121.291C151.152 120.714 151.152 119.773 151.736 119.195C152.32 118.618 153.268 118.618 153.851 119.195L169.008 134.202C169.592 134.779 169.592 135.72 169.008 136.298C168.713 136.587 168.33 136.731 167.948 136.731H167.954Z" fill="#10203A"/>
<path d="M414.692 336.763H411.915V322.874H414.692V320.097H425.803V322.874H428.581V325.652H423.026V322.874H417.47V336.763H423.026V333.985H428.581V336.763H425.803V339.541H414.692V336.763ZM445.234 336.763H442.457V322.874H445.234V320.097H456.345V322.874H459.123V336.763H456.345V339.541H445.234V336.763ZM453.568 336.763V322.874H448.012V336.763H453.568ZM464.668 336.763H461.89V322.874H464.668V320.097H475.779V322.874H478.557V325.652H473.001V322.874H467.446V336.763H473.001V333.985H478.557V336.763H475.779V339.541H464.668V336.763ZM486.879 339.541V322.874H481.324V320.097H497.99V322.874H492.435V339.541H486.879ZM514.646 322.874H517.424V328.43H514.646V331.208H506.313V339.541H500.757V320.097H514.646V322.874ZM511.868 328.43V322.874H506.313V328.43H511.868ZM531.302 331.208H534.08V336.763H531.302V339.541H520.191V320.097H525.746V328.43H531.302V331.208ZM536.858 339.541V320.097H542.413V339.541H536.858ZM528.524 336.763V331.208H525.746V336.763H528.524ZM550.746 322.874H553.524V325.652H559.08V322.874H561.858V320.097H567.413V339.541H561.858V328.43H559.08V331.208H553.524V328.43H550.746V339.541H545.191V320.097H550.746V322.874ZM417.47 373.541V356.874H411.915V354.097H428.581V356.874H423.026V373.541H417.47ZM445.237 356.874H448.015V362.43H445.237V365.208H436.904V373.541H431.348V354.097H445.237V356.874ZM442.459 362.43V356.874H436.904V362.43H442.459ZM453.56 370.763H450.782V356.874H453.56V354.097H464.671V356.874H467.448V370.763H464.671V373.541H453.56V370.763ZM461.893 370.763V356.874H456.337V370.763H461.893ZM475.771 356.874H478.549V359.652H484.104V356.874H486.882V354.097H492.438V373.541H486.882V362.43H484.104V365.208H478.549V362.43H475.771V373.541H470.215V354.097H475.771V356.874ZM495.215 373.541V354.097H509.104V356.874H500.771V362.43H509.104V365.208H511.882V370.763H509.104V373.541H495.215ZM506.326 365.208H500.771V370.763H506.326V365.208ZM517.427 370.763H514.649V356.874H517.427V354.097H528.538V356.874H531.316V370.763H528.538V373.541H517.427V370.763ZM525.76 370.763V356.874H520.204V370.763H525.76ZM534.083 359.652V356.874H536.86V354.097H547.971V356.874H550.749V359.652H547.971V362.43H545.194V365.208H547.971V367.985H550.749V370.763H547.971V373.541H536.86V370.763H534.083V367.985H539.638V370.763H545.194V367.985H542.416V365.208H539.638V362.43H542.416V359.652H545.194V356.874H539.638V359.652H534.083ZM556.294 370.763H553.516V356.874H556.294V354.097H567.405V356.874H570.183V370.763H567.405V373.541H556.294V370.763ZM564.627 370.763V356.874H559.072V370.763H564.627ZM578.505 356.874H581.283V359.652H586.839V356.874H589.616V354.097H595.172V373.541H589.616V362.43H586.839V365.208H581.283V362.43H578.505V373.541H572.95V354.097H578.505V356.874ZM417.47 396.43H423.026V390.874H417.47V396.43ZM423.026 399.208H417.47V404.763H423.026V399.208ZM411.915 407.541V388.097H425.803V390.874H428.581V396.43H425.803V399.208H428.581V404.763H425.803V407.541H411.915ZM431.348 407.541V388.097H448.015V390.874H436.904V396.43H445.237V399.208H436.904V404.763H448.015V407.541H431.348ZM464.671 390.874H467.448V396.43H464.671V399.208H456.337V407.541H450.782V388.097H464.671V390.874ZM461.893 396.43V390.874H456.337V396.43H461.893ZM472.993 393.652H470.215V388.097H475.771V393.652H481.326V388.097H486.882V393.652H484.104V396.43H481.326V399.208H484.104V401.985H486.882V407.541H481.326V401.985H475.771V407.541H470.215V401.985H472.993V399.208H475.771V396.43H472.993V393.652ZM500.76 407.541V399.208H495.204V407.541H489.649V388.097H495.204V396.43H500.76V388.097H506.316V407.541H500.76ZM509.083 407.541V388.097H525.749V390.874H514.638V396.43H522.971V399.208H514.638V404.763H525.749V407.541H509.083ZM528.516 407.541V388.097H542.405V390.874H534.072V396.43H542.405V399.208H545.183V404.763H542.405V407.541H528.516ZM539.627 399.208H534.072V404.763H539.627V399.208ZM561.839 390.874H564.616V396.43H561.839V399.208H553.505V407.541H547.95V388.097H561.839V390.874ZM559.061 396.43V390.874H553.505V396.43H559.061ZM578.494 399.208H581.272V404.763H578.494V407.541H567.383V388.097H572.939V396.43H578.494V399.208ZM584.05 407.541V388.097H589.606V407.541H584.05ZM575.717 404.763V399.208H572.939V404.763H575.717ZM595.161 393.652H592.383V388.097H597.939V393.652H600.717V388.097H606.272V393.652H609.05V388.097H614.606V393.652H611.828V396.43H609.05V399.208H611.828V401.985H614.606V407.541H609.05V401.985H606.272V407.541H600.717V401.985H597.939V407.541H592.383V401.985H595.161V399.208H597.939V396.43H595.161V393.652ZM617.383 407.541V388.097H634.05V390.874H622.939V396.43H631.272V399.208H622.939V404.763H634.05V407.541H617.383ZM636.817 407.541V388.097H653.484V390.874H642.372V396.43H650.706V399.208H642.372V404.763H653.484V407.541H636.817ZM659.028 396.43H656.25V388.097H661.806V396.43H667.362V388.097H672.917V407.541H667.362V399.208H659.028V396.43ZM686.795 407.541V399.208H681.24V407.541H675.684V388.097H681.24V396.43H686.795V388.097H692.351V407.541H686.795ZM697.895 404.763H695.118V390.874H697.895V388.097H709.007V390.874H711.784V404.763H709.007V407.541H697.895V404.763ZM706.229 404.763V390.874H700.673V404.763H706.229ZM725.662 401.985H722.885V393.652H725.662V401.985ZM733.996 388.097V407.541H728.44V393.652H725.662V388.097H733.996ZM720.107 401.985H722.885V407.541H714.551V388.097H720.107V401.985ZM720.107 385.319H717.329V382.541H720.107V385.319ZM728.44 385.319H725.662V382.541H728.44V385.319ZM725.662 388.097H720.107V385.319H725.662V388.097ZM417.47 430.43H423.026V424.874H417.47V430.43ZM423.026 433.208H417.47V438.763H423.026V433.208ZM411.915 441.541V422.097H425.803V424.874H428.581V430.43H425.803V433.208H428.581V438.763H425.803V441.541H411.915ZM431.348 441.541V422.097H448.015V424.874H436.904V430.43H445.237V433.208H436.904V438.763H448.015V441.541H431.348ZM461.893 441.541V433.208H456.337V441.541H450.782V422.097H456.337V430.43H461.893V422.097H467.448V441.541H461.893ZM481.326 433.208H484.104V438.763H481.326V441.541H470.215V422.097H475.771V430.43H481.326V433.208ZM486.882 441.541V422.097H492.438V441.541H486.882ZM478.549 438.763V433.208H475.771V438.763H478.549ZM517.435 435.985H514.657V427.652H517.435V435.985ZM525.768 422.097V441.541H520.213V427.652H517.435V422.097H525.768ZM511.879 435.985H514.657V441.541H506.324V422.097H511.879V435.985ZM539.649 441.541V422.097H556.316V424.874H545.204V430.43H553.538V433.208H545.204V438.763H556.316V441.541H539.649ZM559.083 441.541V422.097H575.749V424.874H564.638V430.43H572.971V433.208H564.638V438.763H575.749V441.541H559.083ZM595.18 430.43H600.736V424.874H595.18V430.43ZM600.736 433.208H595.18V438.763H600.736V433.208ZM589.625 441.541V422.097H603.513V424.874H606.291V430.43H603.513V433.208H606.291V438.763H603.513V441.541H589.625ZM609.058 441.541V422.097H625.725V424.874H614.614V430.43H622.947V433.208H614.614V438.763H625.725V441.541H609.058ZM634.047 441.541V424.874H628.492V422.097H645.158V424.874H639.603V441.541H634.047ZM653.481 430.43H659.036V424.874H653.481V430.43ZM659.036 433.208H653.481V438.763H659.036V433.208ZM647.925 441.541V422.097H661.814V424.874H664.592V430.43H661.814V433.208H664.592V438.763H661.814V441.541H647.925ZM667.359 441.541V422.097H684.026V424.874H672.914V430.43H681.248V433.208H672.914V438.763H684.026V441.541H667.359ZM697.904 435.985H695.126V427.652H697.904V435.985ZM706.237 422.097V441.541H700.681V427.652H697.904V422.097H706.237ZM692.348 435.985H695.126V441.541H686.792V422.097H692.348V435.985ZM692.348 419.319H689.57V416.541H692.348V419.319ZM700.681 419.319H697.904V416.541H700.681V419.319ZM697.904 422.097H692.348V419.319H697.904V422.097Z" fill="#102039"/>
<path d="M425.248 291.939V271.939H418.581V291.939H411.915V268.606H431.915V291.939H425.248ZM441.902 271.939V268.606H448.568V271.939H451.902V278.606H455.235V291.939H448.568V285.273H441.902V291.939H435.235V278.606H438.568V271.939H441.902ZM441.902 281.939H448.568V275.273H441.902V281.939ZM458.555 291.939V268.606H465.222V288.606H471.889V268.606H478.555V295.273H471.889V291.939H458.555ZM495.209 285.273H491.875V275.273H495.209V285.273ZM505.209 268.606V291.939H498.542V275.273H495.209V268.606H505.209ZM488.542 285.273H491.875V291.939H481.875V268.606H488.542V285.273ZM508.536 291.939V268.606H528.536V271.939H515.202V278.606H525.202V281.939H515.202V288.606H528.536V291.939H508.536ZM545.189 291.939V281.939H538.523V291.939H531.856V268.606H538.523V278.606H545.189V268.606H551.856V291.939H545.189ZM561.843 291.939V271.939H555.176V268.606H575.176V271.939H568.51V291.939H561.843ZM598.493 271.939V268.606H605.16V271.939H608.493V278.606H611.827V291.939H605.16V285.273H598.493V291.939H591.827V278.606H595.16V271.939H598.493ZM598.493 281.939H605.16V275.273H598.493V281.939Z" fill="#8353E3"/>
<path d="M791.768 627.594H26.1738C17.2553 627.594 10 620.414 10 611.583V74.6201C10 65.7894 17.2553 58.6094 26.1738 58.6094H455.738C471.146 58.6094 485.896 52.9357 497.262 42.6364L515.237 26.3496C526.873 15.8055 541.967 10 557.74 10H787.739C798.879 10 807.942 18.975 807.942 30.0024V611.583C807.942 620.414 800.686 627.594 791.768 627.594ZM26.1738 61.5718C18.906 61.5718 12.9938 67.4275 12.9938 74.6201V611.583C12.9938 618.776 18.906 624.632 26.1738 624.632H791.768C799.036 624.632 804.948 618.776 804.948 611.583V30.0024C804.948 20.6068 797.228 12.9687 787.739 12.9687H557.74C542.714 12.9687 528.342 18.498 517.258 28.54L499.283 44.8268C487.364 55.6282 471.899 61.5781 455.738 61.5781H26.1738V61.5718Z" fill="url(#paint0_linear_4006_444)"/>
<defs>
<filter id="filter0_f_4006_444" x="0.855957" y="0.704987" width="846.764" height="666.41" filterUnits="userSpaceOnUse" color-interpolation-filters="sRGB">
<feFlood flood-opacity="0" result="BackgroundImageFix"/>
<feBlend mode="normal" in="SourceGraphic" in2="BackgroundImageFix" result="shape"/>
<feGaussianBlur stdDeviation="12" result="effect1_foregroundBlur_4006_444"/>
</filter>
<linearGradient id="paint0_linear_4006_444" x1="408.971" y1="10" x2="408.971" y2="627.594" gradientUnits="userSpaceOnUse">
<stop stop-color="white"/>
<stop offset="1" stop-color="#5930AB"/>
</linearGradient>
</defs>
</svg>
