<svg width="885" height="668" viewBox="0 0 885 668" fill="none" xmlns="http://www.w3.org/2000/svg">
<g filter="url(#filter0_f_4006_270)">
<path d="M823.614 93.7185V45.109C823.614 33.8557 814.369 24.705 803.002 24.705H573.003C557.131 24.705 541.936 30.5482 530.225 41.1613L512.25 57.4481C500.959 67.6784 486.31 73.3144 471.002 73.3144H45.4671C43.6909 73.3144 41.965 73.5404 40.3206 73.9609C39.3352 74.2119 38.375 74.5383 37.4524 74.9211C36.2223 75.4358 35.0486 76.0697 33.9502 76.804C33.1155 77.3626 32.3247 77.9839 31.5841 78.6555C27.4543 82.3899 24.856 87.7623 24.856 93.7247V622.705C24.856 623.056 24.8623 623.408 24.8811 623.753C25.3957 633.826 33.3289 641.991 43.3646 643.008C44.055 643.077 44.7579 643.115 45.4671 643.115H803.009C803.718 643.115 804.421 643.077 805.111 643.008C815.147 641.998 823.074 633.826 823.595 623.753C823.613 623.408 823.62 623.056 823.62 622.705V93.7185H823.614Z" fill="black" fill-opacity="0.4"/>
</g>
<path class="hover" d="M791.837 60.0907H26.0984C18.0324 60.0907 11.4937 66.6295 11.4937 74.6955V611.508C11.4937 619.574 18.0324 626.113 26.0984 626.113H791.837C799.903 626.113 806.441 619.574 806.441 611.508V74.6955C806.441 66.6295 799.903 60.0907 791.837 60.0907Z" fill="#8353E3"/>
<path d="M11.4937 547.415H806.441V604.043C806.441 616.221 799.895 626.112 791.837 626.112H26.0984C18.0397 626.112 11.4937 616.221 11.4937 604.043V547.415Z" fill="#8353E3"/>
<path d="M787.738 11.4814H557.739C542.382 11.4814 527.576 17.1739 516.247 27.4418L498.272 43.7287C486.655 54.2539 471.485 60.0908 455.738 60.0908H30.2032C19.8725 60.0908 11.5 68.3817 11.5 78.6057V162.167H806.448V30.0026C806.448 19.7723 798.075 11.4814 787.745 11.4814H787.738Z" fill="#8353E3"/>
<path d="M791.768 627.594H26.1738C17.2553 627.594 10 620.414 10 611.583V74.6201C10 65.7894 17.2553 58.6094 26.1738 58.6094H455.738C471.146 58.6094 485.896 52.9357 497.262 42.6364L515.237 26.3496C526.873 15.8055 541.967 10 557.74 10H787.739C798.879 10 807.942 18.975 807.942 30.0024V611.583C807.942 620.414 800.686 627.594 791.768 627.594ZM26.1738 61.5718C18.906 61.5718 12.9938 67.4275 12.9938 74.6201V611.583C12.9938 618.776 18.906 624.632 26.1738 624.632H791.768C799.036 624.632 804.948 618.776 804.948 611.583V30.0024C804.948 20.6068 797.228 12.9687 787.739 12.9687H557.74C542.714 12.9687 528.342 18.498 517.258 28.54L499.283 44.8268C487.364 55.6282 471.899 61.5781 455.738 61.5781H26.1738V61.5718Z" fill="url(#paint0_linear_4006_270)"/>
<defs>
<filter id="filter0_f_4006_270" x="0.855957" y="0.704987" width="846.764" height="666.41" filterUnits="userSpaceOnUse" color-interpolation-filters="sRGB">
<feFlood flood-opacity="0" result="BackgroundImageFix"/>
<feBlend mode="normal" in="SourceGraphic" in2="BackgroundImageFix" result="shape"/>
<feGaussianBlur stdDeviation="12" result="effect1_foregroundBlur_4006_270"/>
</filter>
<linearGradient id="paint0_linear_4006_270" x1="408.971" y1="10" x2="408.971" y2="627.594" gradientUnits="userSpaceOnUse">
<stop stop-color="white"/>
<stop offset="1" stop-color="#5930AB"/>
</linearGradient>
</defs>
</svg>
