<svg width="86" height="86" viewBox="0 0 86 86" fill="none" xmlns="http://www.w3.org/2000/svg">
<path d="M62.3389 77.4492H54.6392V85.1533H62.3389V77.4492Z" fill="#009975"/>
<path d="M54.6394 77.4492H46.9397V85.1533H54.6394V77.4492Z" fill="#009975"/>
<path d="M46.9397 77.4492H39.24V85.1533H46.9397V77.4492Z" fill="#009975"/>
<path d="M39.24 77.4492H31.5403V85.1533H39.24V77.4492Z" fill="#009975"/>
<path d="M31.5403 77.4492H23.8406V85.1533H31.5403V77.4492Z" fill="#009975"/>
<path d="M70.0387 69.7461H62.339V77.4502H70.0387V69.7461Z" fill="#009975"/>
<path d="M62.3389 69.7461H54.6392V77.4502H62.3389V69.7461Z" fill="#02C194"/>
<path d="M54.6394 69.7461H46.9397V77.4502H54.6394V69.7461Z" fill="#02C194"/>
<path d="M46.9397 69.7461H39.24V77.4502H46.9397V69.7461Z" fill="#02C194"/>
<path d="M39.24 69.7461H31.5403V77.4502H39.24V69.7461Z" fill="#02C194"/>
<path d="M31.5403 69.7461H23.8406V77.4502H31.5403V69.7461Z" fill="#02C194"/>
<path d="M23.8407 69.7461H16.141V77.4502H23.8407V69.7461Z" fill="#009975"/>
<path d="M77.7384 62.043H70.0387V69.7471H77.7384V62.043Z" fill="#009975"/>
<path d="M70.0387 62.043H62.339V69.7471H70.0387V62.043Z" fill="#02C194"/>
<path d="M62.3389 62.043H54.6392V69.7471H62.3389V62.043Z" fill="#0BE1AE"/>
<path d="M54.6394 62.043H46.9397V69.7471H54.6394V62.043Z" fill="#06D0A0"/>
<path d="M46.9397 62.043H39.24V69.7471H46.9397V62.043Z" fill="#06D0A0"/>
<path d="M39.24 62.043H31.5403V69.7471H39.24V62.043Z" fill="#06D0A0"/>
<path d="M31.5403 62.043H23.8406V69.7471H31.5403V62.043Z" fill="#06D0A0"/>
<path d="M23.8407 62.043H16.141V69.7471H23.8407V62.043Z" fill="#02C194"/>
<path d="M16.1409 62.043H8.44116V69.7471H16.1409V62.043Z" fill="#009975"/>
<path d="M85.4381 54.3398H77.7384V62.044H85.4381V54.3398Z" fill="#009975"/>
<path d="M77.7384 54.3398H70.0387V62.044H77.7384V54.3398Z" fill="#02C194"/>
<path d="M70.0387 54.3398H62.339V62.044H70.0387V54.3398Z" fill="#0BE1AE"/>
<path d="M62.3389 54.3398H54.6392V62.044H62.3389V54.3398Z" fill="#06D0A0"/>
<path d="M54.6394 54.3398H46.9397V62.044H54.6394V54.3398Z" fill="#06D0A0"/>
<path d="M46.9397 54.3398H39.24V62.044H46.9397V54.3398Z" fill="#0BE1AE"/>
<path d="M39.24 54.3398H31.5403V62.044H39.24V54.3398Z" fill="#0BE1AE"/>
<path d="M31.5403 54.3398H23.8406V62.044H31.5403V54.3398Z" fill="#0BE1AE"/>
<path d="M23.8407 54.3398H16.141V62.044H23.8407V54.3398Z" fill="#06D0A0"/>
<path d="M16.1409 54.3398H8.44116V62.044H16.1409V54.3398Z" fill="#06D0A0"/>
<path d="M8.44116 54.3398H0.741455V62.044H8.44116V54.3398Z" fill="#009975"/>
<path d="M85.4381 46.6328H77.7384V54.3369H85.4381V46.6328Z" fill="#009975"/>
<path d="M77.7384 46.6328H70.0387V54.3369H77.7384V46.6328Z" fill="#02C194"/>
<path d="M70.0387 46.6328H62.339V54.3369H70.0387V46.6328Z" fill="#06D0A0"/>
<path d="M62.3389 46.6328H54.6392V54.3369H62.3389V46.6328Z" fill="#06D0A0"/>
<path d="M54.6394 46.6328H46.9397V54.3369H54.6394V46.6328Z" fill="#0BE1AE"/>
<path d="M46.9397 46.6328H39.24V54.3369H46.9397V46.6328Z" fill="#0BE1AE"/>
<path d="M39.24 46.6328H31.5403V54.3369H39.24V46.6328Z" fill="#0BE1AE"/>
<path d="M31.5403 46.6328H23.8406V54.3369H31.5403V46.6328Z" fill="#0BE1AE"/>
<path d="M23.8407 46.6328H16.141V54.3369H23.8407V46.6328Z" fill="#0BE1AE"/>
<path d="M16.1409 46.6328H8.44116V54.3369H16.1409V46.6328Z" fill="#06D0A0"/>
<path d="M8.44116 46.6328H0.741455V54.3369H8.44116V46.6328Z" fill="#009975"/>
<path d="M85.4381 38.9297H77.7384V46.6338H85.4381V38.9297Z" fill="#009975"/>
<path d="M77.7384 38.9297H70.0387V46.6338H77.7384V38.9297Z" fill="#02C194"/>
<path d="M70.0387 38.9297H62.339V46.6338H70.0387V38.9297Z" fill="#06D0A0"/>
<path d="M62.3389 38.9297H54.6392V46.6338H62.3389V38.9297Z" fill="#0BE1AE"/>
<path d="M54.6394 38.9297H46.9397V46.6338H54.6394V38.9297Z" fill="#0BE1AE"/>
<path d="M46.9397 38.9297H39.24V46.6338H46.9397V38.9297Z" fill="#0BE1AE"/>
<path d="M39.24 38.9297H31.5403V46.6338H39.24V38.9297Z" fill="#10E9B5"/>
<path d="M31.5403 38.9297H23.8406V46.6338H31.5403V38.9297Z" fill="#10E9B5"/>
<path d="M23.8407 38.9297H16.141V46.6338H23.8407V38.9297Z" fill="#10E9B5"/>
<path d="M16.1409 38.9297H8.44116V46.6338H16.1409V38.9297Z" fill="#06D0A0"/>
<path d="M8.44116 38.9297H0.741455V46.6338H8.44116V38.9297Z" fill="#009975"/>
<path d="M85.4381 31.2266H77.7384V38.9307H85.4381V31.2266Z" fill="#009975"/>
<path d="M77.7384 31.2266H70.0387V38.9307H77.7384V31.2266Z" fill="#02C194"/>
<path d="M70.0387 31.2266H62.339V38.9307H70.0387V31.2266Z" fill="#06D0A0"/>
<path d="M62.3389 31.2266H54.6392V38.9307H62.3389V31.2266Z" fill="#0BE1AE"/>
<path d="M54.6394 31.2266H46.9397V38.9307H54.6394V31.2266Z" fill="#0BE1AE"/>
<path d="M46.9397 31.2266H39.24V38.9307H46.9397V31.2266Z" fill="#10E9B5"/>
<path d="M39.24 31.2266H31.5403V38.9307H39.24V31.2266Z" fill="#1CFFC9"/>
<path d="M31.5403 31.2266H23.8406V38.9307H31.5403V31.2266Z" fill="#1CFFC9"/>
<path d="M23.8407 31.2266H16.141V38.9307H23.8407V31.2266Z" fill="#10E9B5"/>
<path d="M16.1409 31.2266H8.44116V38.9307H16.1409V31.2266Z" fill="#06D0A0"/>
<path d="M8.44116 31.2266H0.741455V38.9307H8.44116V31.2266Z" fill="#009975"/>
<path d="M85.4381 23.5215H77.7384V31.2256H85.4381V23.5215Z" fill="#009975"/>
<path d="M77.7384 23.5215H70.0387V31.2256H77.7384V23.5215Z" fill="#02C194"/>
<path d="M70.0387 23.5215H62.339V31.2256H70.0387V23.5215Z" fill="#06D0A0"/>
<path d="M62.3389 23.5215H54.6392V31.2256H62.3389V23.5215Z" fill="#0BE1AE"/>
<path d="M54.6394 23.5215H46.9397V31.2256H54.6394V23.5215Z" fill="#0BE1AE"/>
<path d="M46.9397 23.5215H39.24V31.2256H46.9397V23.5215Z" fill="#10E9B5"/>
<path d="M39.24 23.5215H31.5403V31.2256H39.24V23.5215Z" fill="#1CFFC9"/>
<path d="M31.5403 23.5215H23.8406V31.2256H31.5403V23.5215Z" fill="#1CFFC9"/>
<path d="M23.8407 23.5215H16.141V31.2256H23.8407V23.5215Z" fill="#10E9B5"/>
<path d="M16.1409 23.5215H8.44116V31.2256H16.1409V23.5215Z" fill="#06D0A0"/>
<path d="M8.44116 23.5215H0.741455V31.2256H8.44116V23.5215Z" fill="#009975"/>
<path d="M77.7384 15.8184H70.0387V23.5225H77.7384V15.8184Z" fill="#009975"/>
<path d="M70.0387 15.8184H62.339V23.5225H70.0387V15.8184Z" fill="#02C194"/>
<path d="M62.3389 15.8184H54.6392V23.5225H62.3389V15.8184Z" fill="#06D0A0"/>
<path d="M54.6394 15.8184H46.9397V23.5225H54.6394V15.8184Z" fill="#0BE1AE"/>
<path d="M46.9397 15.8184H39.24V23.5225H46.9397V15.8184Z" fill="#10E9B5"/>
<path d="M39.24 15.8184H31.5403V23.5225H39.24V15.8184Z" fill="#10E9B5"/>
<path d="M31.5403 15.8184H23.8406V23.5225H31.5403V15.8184Z" fill="#10E9B5"/>
<path d="M23.8407 15.8184H16.141V23.5225H23.8407V15.8184Z" fill="#06D0A0"/>
<path d="M16.1409 15.8184H8.44116V23.5225H16.1409V15.8184Z" fill="#009975"/>
<path d="M70.0387 8.11328H62.339V15.8174H70.0387V8.11328Z" fill="#009975"/>
<path d="M62.3389 8.11328H54.6392V15.8174H62.3389V8.11328Z" fill="#06D0A0"/>
<path d="M54.6394 8.11328H46.9397V15.8174H54.6394V8.11328Z" fill="#06D0A0"/>
<path d="M46.9397 8.11328H39.24V15.8174H46.9397V8.11328Z" fill="#06D0A0"/>
<path d="M39.24 8.11328H31.5403V15.8174H39.24V8.11328Z" fill="#06D0A0"/>
<path d="M31.5403 8.11328H23.8406V15.8174H31.5403V8.11328Z" fill="#06D0A0"/>
<path d="M23.8407 8.11328H16.141V15.8174H23.8407V8.11328Z" fill="#009975"/>
<path d="M62.3389 0.410156H54.6392V8.11428H62.3389V0.410156Z" fill="#009975"/>
<path d="M54.6394 0.410156H46.9397V8.11428H54.6394V0.410156Z" fill="#009975"/>
<path d="M46.9397 0.410156H39.24V8.11428H46.9397V0.410156Z" fill="#009975"/>
<path d="M39.24 0.410156H31.5403V8.11428H39.24V0.410156Z" fill="#009975"/>
<path d="M31.5403 0.410156H23.8406V8.11428H31.5403V0.410156Z" fill="#009975"/>
<path d="M25.1482 39.212L39.9234 53.8467L62.3713 28.0059" stroke="white" stroke-width="6"/>
</svg>
