<svg width="373" height="267" viewBox="0 0 373 267" fill="none" xmlns="http://www.w3.org/2000/svg">
<path d="M84.3658 40.5234H71.8296V53.0596H84.3658V40.5234Z" fill="#CB7330"/>
<path d="M96.9019 40.5234H84.3657V53.0596H96.9019V40.5234Z" fill="#CB7330"/>
<path d="M109.438 40.5234H96.9019V53.0596H109.438V40.5234Z" fill="#CB7330"/>
<path d="M121.974 40.5234H109.438V53.0596H121.974V40.5234Z" fill="#CB7330"/>
<path d="M134.51 40.5234H121.974V53.0596H134.51V40.5234Z" fill="#CB7330"/>
<path d="M147.046 40.5234H134.51V53.0596H147.046V40.5234Z" fill="#CB7330"/>
<path d="M159.588 40.5234H147.052V53.0596H159.588V40.5234Z" fill="#CB7330"/>
<path d="M71.8296 53.0645H59.2935V65.6006H71.8296V53.0645Z" fill="#CB7330"/>
<path d="M84.3658 53.0645H71.8296V65.6006H84.3658V53.0645Z" fill="#DCAF5B"/>
<path d="M96.9019 53.0645H84.3657V65.6006H96.9019V53.0645Z" fill="#DCAF5B"/>
<path d="M109.438 53.0645H96.9019V65.6006H109.438V53.0645Z" fill="#DCAF5B"/>
<path d="M121.974 53.0645H109.438V65.6006H121.974V53.0645Z" fill="#DCAF5B"/>
<path d="M134.51 53.0645H121.974V65.6006H134.51V53.0645Z" fill="#DCAF5B"/>
<path d="M147.046 53.0645H134.51V65.6006H147.046V53.0645Z" fill="#DCAF5B"/>
<path d="M159.588 53.0645H147.052V65.6006H159.588V53.0645Z" fill="#DCAF5B"/>
<path d="M172.124 53.0645H159.588V65.6006H172.124V53.0645Z" fill="#CB7330"/>
<path d="M71.8296 65.6016H59.2935V78.1378H71.8296V65.6016Z" fill="#CB7330"/>
<path d="M84.3658 65.6016H71.8296V78.1378H84.3658V65.6016Z" fill="#DCAF5B"/>
<path d="M96.9019 65.6016H84.3657V78.1378H96.9019V65.6016Z" fill="#EED57A"/>
<path d="M109.438 65.6016H96.9019V78.1378H109.438V65.6016Z" fill="#EED57A"/>
<path d="M121.974 65.6016H109.438V78.1378H121.974V65.6016Z" fill="#EED57A"/>
<path d="M134.51 65.6016H121.974V78.1378H134.51V65.6016Z" fill="#EED57A"/>
<path d="M147.046 65.6016H134.51V78.1378H147.046V65.6016Z" fill="#EED57A"/>
<path d="M159.588 65.6016H147.052V78.1378H159.588V65.6016Z" fill="#EED57A"/>
<path d="M172.124 65.6016H159.588V78.1378H172.124V65.6016Z" fill="#DCAF5B"/>
<path d="M184.661 65.6016H172.125V78.1378H184.661V65.6016Z" fill="#CB7330"/>
<path d="M197.197 65.6016H184.661V78.1378H197.197V65.6016Z" fill="#CB7330"/>
<path d="M209.733 65.6016H197.197V78.1378H209.733V65.6016Z" fill="#CB7330"/>
<path d="M222.269 65.6016H209.733V78.1378H222.269V65.6016Z" fill="#CB7330"/>
<path d="M234.805 65.6016H222.269V78.1378H234.805V65.6016Z" fill="#CB7330"/>
<path d="M247.341 65.6016H234.805V78.1378H247.341V65.6016Z" fill="#CB7330"/>
<path d="M259.877 65.6016H247.341V78.1378H259.877V65.6016Z" fill="#CB7330"/>
<path d="M272.414 65.6016H259.877V78.1378H272.414V65.6016Z" fill="#CB7330"/>
<path d="M284.95 65.6016H272.414V78.1378H284.95V65.6016Z" fill="#CB7330"/>
<path d="M297.486 65.6016H284.95V78.1378H297.486V65.6016Z" fill="#CB7330"/>
<path d="M310.022 65.6016H297.486V78.1378H310.022V65.6016Z" fill="#CB7330"/>
<path d="M71.8296 78.1367H59.2935V90.6729H71.8296V78.1367Z" fill="#CB7330"/>
<path d="M84.3658 78.1367H71.8296V90.6729H84.3658V78.1367Z" fill="#DCAF5B"/>
<path d="M96.9019 78.1367H84.3657V90.6729H96.9019V78.1367Z" fill="#EED57A"/>
<path d="M109.438 78.1367H96.9019V90.6729H109.438V78.1367Z" fill="#EED57A"/>
<path d="M121.974 78.1367H109.438V90.6729H121.974V78.1367Z" fill="#EED57A"/>
<path d="M134.51 78.1367H121.974V90.6729H134.51V78.1367Z" fill="#DCAF5B"/>
<path d="M147.046 78.1367H134.51V90.6729H147.046V78.1367Z" fill="#DCAF5B"/>
<path d="M159.588 78.1367H147.052V90.6729H159.588V78.1367Z" fill="#DCAF5B"/>
<path d="M172.124 78.1367H159.588V90.6729H172.124V78.1367Z" fill="#DCAF5B"/>
<path d="M184.661 78.1367H172.125V90.6729H184.661V78.1367Z" fill="#DCAF5B"/>
<path d="M197.197 78.1367H184.661V90.6729H197.197V78.1367Z" fill="#DCAF5B"/>
<path d="M209.733 78.1367H197.197V90.6729H209.733V78.1367Z" fill="#DCAF5B"/>
<path d="M222.269 78.1367H209.733V90.6729H222.269V78.1367Z" fill="#DCAF5B"/>
<path d="M234.805 78.1367H222.269V90.6729H234.805V78.1367Z" fill="#DCAF5B"/>
<path d="M247.341 78.1367H234.805V90.6729H247.341V78.1367Z" fill="#DCAF5B"/>
<path d="M259.877 78.1367H247.341V90.6729H259.877V78.1367Z" fill="#DCAF5B"/>
<path d="M272.414 78.1367H259.877V90.6729H272.414V78.1367Z" fill="#DCAF5B"/>
<path d="M284.95 78.1367H272.414V90.6729H284.95V78.1367Z" fill="#DCAF5B"/>
<path d="M297.486 78.1367H284.95V90.6729H297.486V78.1367Z" fill="#DCAF5B"/>
<path d="M310.022 78.1367H297.486V90.6729H310.022V78.1367Z" fill="#DCAF5B"/>
<path d="M322.558 78.1367H310.022V90.6729H322.558V78.1367Z" fill="#CB7330"/>
<path d="M71.8296 90.6738H59.2935V103.21H71.8296V90.6738Z" fill="#CB7330"/>
<path d="M84.3658 90.6738H71.8296V103.21H84.3658V90.6738Z" fill="#DCAF5B"/>
<path d="M96.9019 90.6738H84.3657V103.21H96.9019V90.6738Z" fill="#EED57A"/>
<path d="M109.438 90.6738H96.9019V103.21H109.438V90.6738Z" fill="#EED57A"/>
<path d="M121.974 90.6738H109.438V103.21H121.974V90.6738Z" fill="#DCAF5B"/>
<path d="M134.51 90.6738H121.974V103.21H134.51V90.6738Z" fill="#FFFDFF"/>
<path d="M147.046 90.6738H134.51V103.21H147.046V90.6738Z" fill="#DBE4F2"/>
<path d="M159.588 90.6738H147.052V103.21H159.588V90.6738Z" fill="#FFFDFF"/>
<path d="M172.124 90.6738H159.588V103.21H172.124V90.6738Z" fill="#FFFDFF"/>
<path d="M184.661 90.6738H172.125V103.21H184.661V90.6738Z" fill="#FFFDFF"/>
<path d="M197.197 90.6738H184.661V103.21H197.197V90.6738Z" fill="#FFFDFF"/>
<path d="M209.733 90.6738H197.197V103.21H209.733V90.6738Z" fill="#FFFDFF"/>
<path d="M222.269 90.6738H209.733V103.21H222.269V90.6738Z" fill="#FFFDFF"/>
<path d="M234.805 90.6738H222.269V103.21H234.805V90.6738Z" fill="#FFFDFF"/>
<path d="M247.341 90.6738H234.805V103.21H247.341V90.6738Z" fill="#FFFDFF"/>
<path d="M259.877 90.6738H247.341V103.21H259.877V90.6738Z" fill="#FFFDFF"/>
<path d="M272.414 90.6738H259.877V103.21H272.414V90.6738Z" fill="#FFFDFF"/>
<path d="M284.95 90.6738H272.414V103.21H284.95V90.6738Z" fill="#FFFDFF"/>
<path d="M297.486 90.6738H284.95V103.21H297.486V90.6738Z" fill="#EED57A"/>
<path d="M310.022 90.6738H297.486V103.21H310.022V90.6738Z" fill="#DCAF5B"/>
<path d="M322.558 90.6738H310.022V103.21H322.558V90.6738Z" fill="#CB7330"/>
<path d="M71.8296 103.209H59.2935V115.745H71.8296V103.209Z" fill="#CB7330"/>
<path d="M84.3658 103.209H71.8296V115.745H84.3658V103.209Z" fill="#DCAF5B"/>
<path d="M96.9019 103.209H84.3657V115.745H96.9019V103.209Z" fill="#EED57A"/>
<path d="M109.438 103.209H96.9019V115.745H109.438V103.209Z" fill="#DCAF5B"/>
<path d="M121.974 103.209H109.438V115.745H121.974V103.209Z" fill="#FFFDFF"/>
<path d="M134.51 103.209H121.974V115.745H134.51V103.209Z" fill="#FFFDFF"/>
<path d="M147.046 103.209H134.51V115.745H147.046V103.209Z" fill="#DBE4F2"/>
<path d="M159.588 103.209H147.052V115.745H159.588V103.209Z" fill="#FFFDFF"/>
<path d="M172.124 103.209H159.588V115.745H172.124V103.209Z" fill="#FFFDFF"/>
<path d="M184.661 103.209H172.125V115.745H184.661V103.209Z" fill="#FFFDFF"/>
<path d="M197.197 103.209H184.661V115.745H197.197V103.209Z" fill="#FFFDFF"/>
<path d="M209.733 103.209H197.197V115.745H209.733V103.209Z" fill="#FFFDFF"/>
<path d="M222.269 103.209H209.733V115.745H222.269V103.209Z" fill="#FFFDFF"/>
<path d="M234.805 103.209H222.269V115.745H234.805V103.209Z" fill="#FFFDFF"/>
<path d="M247.341 103.209H234.805V115.745H247.341V103.209Z" fill="#FFFDFF"/>
<path d="M259.877 103.209H247.341V115.745H259.877V103.209Z" fill="#FFFDFF"/>
<path d="M272.414 103.209H259.877V115.745H272.414V103.209Z" fill="#FFFDFF"/>
<path d="M284.95 103.209H272.414V115.745H284.95V103.209Z" fill="#FFFDFF"/>
<path d="M297.486 103.209H284.95V115.745H297.486V103.209Z" fill="#FFFDFF"/>
<path d="M310.022 103.209H297.486V115.745H310.022V103.209Z" fill="#DCAF5B"/>
<path d="M322.558 103.209H310.022V115.745H322.558V103.209Z" fill="#CB7330"/>
<path d="M71.8296 115.746H59.2935V128.282H71.8296V115.746Z" fill="#CB7330"/>
<path d="M84.3658 115.746H71.8296V128.282H84.3658V115.746Z" fill="#DCAF5B"/>
<path d="M96.9019 115.746H84.3657V128.282H96.9019V115.746Z" fill="#DCAF5B"/>
<path d="M109.438 115.746H96.9019V128.282H109.438V115.746Z" fill="#FFFDFF"/>
<path d="M121.974 115.746H109.438V128.282H121.974V115.746Z" fill="#FFFDFF"/>
<path d="M134.51 115.746H121.974V128.282H134.51V115.746Z" fill="#FFFDFF"/>
<path d="M147.046 115.746H134.51V128.282H147.046V115.746Z" fill="#DBE4F2"/>
<path d="M159.588 115.746H147.052V128.282H159.588V115.746Z" fill="#FFFDFF"/>
<path d="M172.124 115.746H159.588V128.282H172.124V115.746Z" fill="#FFFDFF"/>
<path d="M184.661 115.746H172.125V128.282H184.661V115.746Z" fill="#FFFDFF"/>
<path d="M197.197 115.746H184.661V128.282H197.197V115.746Z" fill="#FFFDFF"/>
<path d="M209.733 115.746H197.197V128.282H209.733V115.746Z" fill="#FFFDFF"/>
<path d="M222.269 115.746H209.733V128.282H222.269V115.746Z" fill="#FFFDFF"/>
<path d="M234.805 115.746H222.269V128.282H234.805V115.746Z" fill="#FFFDFF"/>
<path d="M247.341 115.746H234.805V128.282H247.341V115.746Z" fill="#FFFDFF"/>
<path d="M259.877 115.746H247.341V128.282H259.877V115.746Z" fill="#FFFDFF"/>
<path d="M272.414 115.746H259.877V128.282H272.414V115.746Z" fill="#FFFDFF"/>
<path d="M284.95 115.746H272.414V128.282H284.95V115.746Z" fill="#FFFDFF"/>
<path d="M297.486 115.746H284.95V128.282H297.486V115.746Z" fill="#FFFDFF"/>
<path d="M310.022 115.746H297.486V128.282H310.022V115.746Z" fill="#DCAF5B"/>
<path d="M322.558 115.746H310.022V128.282H322.558V115.746Z" fill="#CB7330"/>
<path d="M71.8296 128.281H59.2935V140.817H71.8296V128.281Z" fill="#CB7330"/>
<path d="M84.3658 128.281H71.8296V140.817H84.3658V128.281Z" fill="#DCAF5B"/>
<path d="M96.9019 128.281H84.3657V140.817H96.9019V128.281Z" fill="#DBE4F2"/>
<path d="M109.438 128.281H96.9019V140.817H109.438V128.281Z" fill="#DBE4F2"/>
<path d="M121.974 128.281H109.438V140.817H121.974V128.281Z" fill="#DBE4F2"/>
<path d="M134.51 128.281H121.974V140.817H134.51V128.281Z" fill="#DBE4F2"/>
<path d="M147.046 128.281H134.51V140.817H147.046V128.281Z" fill="#FFFDFF"/>
<path d="M159.588 128.281H147.052V140.817H159.588V128.281Z" fill="#FFFDFF"/>
<path d="M172.124 128.281H159.588V140.817H172.124V128.281Z" fill="#FFFDFF"/>
<path d="M184.661 128.281H172.125V140.817H184.661V128.281Z" fill="#FFFDFF"/>
<path d="M197.197 128.281H184.661V140.817H197.197V128.281Z" fill="#FFFDFF"/>
<path d="M209.733 128.281H197.197V140.817H209.733V128.281Z" fill="#FFFDFF"/>
<path d="M222.269 128.281H209.733V140.817H222.269V128.281Z" fill="#FFFDFF"/>
<path d="M234.805 128.281H222.269V140.817H234.805V128.281Z" fill="#FFFDFF"/>
<path d="M247.341 128.281H234.805V140.817H247.341V128.281Z" fill="#FFFDFF"/>
<path d="M259.877 128.281H247.341V140.817H259.877V128.281Z" fill="#CB7330"/>
<path d="M272.414 128.281H259.877V140.817H272.414V128.281Z" fill="#CB7330"/>
<path d="M284.95 128.281H272.414V140.817H284.95V128.281Z" fill="#CB7330"/>
<path d="M297.486 128.281H284.95V140.817H297.486V128.281Z" fill="#CB7330"/>
<path d="M310.022 128.281H297.486V140.817H310.022V128.281Z" fill="#CB7330"/>
<path d="M322.558 128.281H310.022V140.817H322.558V128.281Z" fill="#CB7330"/>
<path d="M335.1 128.281H322.564V140.817H335.1V128.281Z" fill="#CB7330"/>
<path d="M347.636 128.281H335.1V140.817H347.636V128.281Z" fill="#CB7330"/>
<path d="M360.172 128.281H347.636V140.817H360.172V128.281Z" fill="#CB7330"/>
<path d="M71.8296 140.818H59.2935V153.355H71.8296V140.818Z" fill="#CB7330"/>
<path d="M84.3658 140.818H71.8296V153.355H84.3658V140.818Z" fill="#DCAF5B"/>
<path d="M96.9019 140.818H84.3657V153.355H96.9019V140.818Z" fill="#FFFDFF"/>
<path d="M109.438 140.818H96.9019V153.355H109.438V140.818Z" fill="#FFFDFF"/>
<path d="M121.974 140.818H109.438V153.355H121.974V140.818Z" fill="#FFFDFF"/>
<path d="M134.51 140.818H121.974V153.355H134.51V140.818Z" fill="#FFFDFF"/>
<path d="M147.046 140.818H134.51V153.355H147.046V140.818Z" fill="#FFFDFF"/>
<path d="M159.588 140.818H147.052V153.355H159.588V140.818Z" fill="#FFFDFF"/>
<path d="M172.124 140.818H159.588V153.355H172.124V140.818Z" fill="#FFFDFF"/>
<path d="M184.661 140.818H172.125V153.355H184.661V140.818Z" fill="#FFFDFF"/>
<path d="M197.197 140.818H184.661V153.355H197.197V140.818Z" fill="#FFFDFF"/>
<path d="M209.733 140.818H197.197V153.355H209.733V140.818Z" fill="#FFFDFF"/>
<path d="M222.269 140.818H209.733V153.355H222.269V140.818Z" fill="#FFFDFF"/>
<path d="M234.805 140.818H222.269V153.355H234.805V140.818Z" fill="#FFFDFF"/>
<path d="M247.341 140.818H234.805V153.355H247.341V140.818Z" fill="#CB7330"/>
<path d="M259.877 140.818H247.341V153.355H259.877V140.818Z" fill="#DCAF5B"/>
<path d="M272.414 140.818H259.877V153.355H272.414V140.818Z" fill="#DCAF5B"/>
<path d="M284.95 140.818H272.414V153.355H284.95V140.818Z" fill="#DCAF5B"/>
<path d="M297.486 140.818H284.95V153.355H297.486V140.818Z" fill="#DCAF5B"/>
<path d="M310.022 140.818H297.486V153.355H310.022V140.818Z" fill="#DCAF5B"/>
<path d="M322.558 140.818H310.022V153.355H322.558V140.818Z" fill="#DCAF5B"/>
<path d="M335.1 140.818H322.564V153.355H335.1V140.818Z" fill="#DCAF5B"/>
<path d="M347.636 140.818H335.1V153.355H347.636V140.818Z" fill="#DCAF5B"/>
<path d="M360.172 140.818H347.636V153.355H360.172V140.818Z" fill="#DCAF5B"/>
<path d="M372.709 140.818H360.172V153.355H372.709V140.818Z" fill="#CB7330"/>
<path d="M71.8296 153.354H59.2935V165.89H71.8296V153.354Z" fill="#CB7330"/>
<path d="M84.3658 153.354H71.8296V165.89H84.3658V153.354Z" fill="#DCAF5B"/>
<path d="M96.9019 153.354H84.3657V165.89H96.9019V153.354Z" fill="#FFFDFF"/>
<path d="M109.438 153.354H96.9019V165.89H109.438V153.354Z" fill="#FFFDFF"/>
<path d="M121.974 153.354H109.438V165.89H121.974V153.354Z" fill="#FFFDFF"/>
<path d="M134.51 153.354H121.974V165.89H134.51V153.354Z" fill="#CB7330"/>
<path d="M147.046 153.354H134.51V165.89H147.046V153.354Z" fill="#CB7330"/>
<path d="M159.588 153.354H147.052V165.89H159.588V153.354Z" fill="#CB7330"/>
<path d="M172.124 153.354H159.588V165.89H172.124V153.354Z" fill="#CB7330"/>
<path d="M184.661 153.354H172.125V165.89H184.661V153.354Z" fill="#CB7330"/>
<path d="M197.197 153.354H184.661V165.89H197.197V153.354Z" fill="#CB7330"/>
<path d="M209.733 153.354H197.197V165.89H209.733V153.354Z" fill="#CB7330"/>
<path d="M222.269 153.354H209.733V165.89H222.269V153.354Z" fill="#CB7330"/>
<path d="M234.805 153.354H222.269V165.89H234.805V153.354Z" fill="#CB7330"/>
<path d="M247.341 153.354H234.805V165.89H247.341V153.354Z" fill="#DCAF5B"/>
<path d="M259.877 153.354H247.341V165.89H259.877V153.354Z" fill="#EED57A"/>
<path d="M272.414 153.354H259.877V165.89H272.414V153.354Z" fill="#EED57A"/>
<path d="M284.95 153.354H272.414V165.89H284.95V153.354Z" fill="#EED57A"/>
<path d="M297.486 153.354H284.95V165.89H297.486V153.354Z" fill="#EED57A"/>
<path d="M310.022 153.354H297.486V165.89H310.022V153.354Z" fill="#EED57A"/>
<path d="M322.558 153.354H310.022V165.89H322.558V153.354Z" fill="#EED57A"/>
<path d="M335.1 153.354H322.564V165.89H335.1V153.354Z" fill="#EED57A"/>
<path d="M347.636 153.354H335.1V165.89H347.636V153.354Z" fill="#EED57A"/>
<path d="M360.172 153.354H347.636V165.89H360.172V153.354Z" fill="#DCAF5B"/>
<path d="M372.709 153.354H360.172V165.89H372.709V153.354Z" fill="#CB7330"/>
<path d="M71.8296 165.891H59.2935V178.427H71.8296V165.891Z" fill="#CB7330"/>
<path d="M84.3658 165.891H71.8296V178.427H84.3658V165.891Z" fill="#DCAF5B"/>
<path d="M96.9019 165.891H84.3657V178.427H96.9019V165.891Z" fill="#FFFDFF"/>
<path d="M109.438 165.891H96.9019V178.427H109.438V165.891Z" fill="#FFFDFF"/>
<path d="M121.974 165.891H109.438V178.427H121.974V165.891Z" fill="#CB7330"/>
<path d="M134.51 165.891H121.974V178.427H134.51V165.891Z" fill="#DCAF5B"/>
<path d="M147.046 165.891H134.51V178.427H147.046V165.891Z" fill="#DCAF5B"/>
<path d="M159.588 165.891H147.052V178.427H159.588V165.891Z" fill="#DCAF5B"/>
<path d="M172.124 165.891H159.588V178.427H172.124V165.891Z" fill="#DCAF5B"/>
<path d="M184.661 165.891H172.125V178.427H184.661V165.891Z" fill="#DCAF5B"/>
<path d="M197.197 165.891H184.661V178.427H197.197V165.891Z" fill="#DCAF5B"/>
<path d="M209.733 165.891H197.197V178.427H209.733V165.891Z" fill="#DCAF5B"/>
<path d="M222.269 165.891H209.733V178.427H222.269V165.891Z" fill="#DCAF5B"/>
<path d="M234.805 165.891H222.269V178.427H234.805V165.891Z" fill="#DCAF5B"/>
<path d="M247.341 165.891H234.805V178.427H247.341V165.891Z" fill="#EED57A"/>
<path d="M259.877 165.891H247.341V178.427H259.877V165.891Z" fill="#EED57A"/>
<path d="M272.414 165.891H259.877V178.427H272.414V165.891Z" fill="#EED57A"/>
<path d="M284.95 165.891H272.414V178.427H284.95V165.891Z" fill="#EED57A"/>
<path d="M297.486 165.891H284.95V178.427H297.486V165.891Z" fill="#EED57A"/>
<path d="M310.022 165.891H297.486V178.427H310.022V165.891Z" fill="#EED57A"/>
<path d="M322.558 165.891H310.022V178.427H322.558V165.891Z" fill="#EED57A"/>
<path d="M335.1 165.891H322.564V178.427H335.1V165.891Z" fill="#EED57A"/>
<path d="M347.636 165.891H335.1V178.427H347.636V165.891Z" fill="#DCAF5B"/>
<path d="M360.172 165.891H347.636V178.427H360.172V165.891Z" fill="#CB7330"/>
<path d="M71.8296 178.426H59.2935V190.962H71.8296V178.426Z" fill="#CB7330"/>
<path d="M84.3658 178.426H71.8296V190.962H84.3658V178.426Z" fill="#DCAF5B"/>
<path d="M96.9019 178.426H84.3657V190.962H96.9019V178.426Z" fill="#FFFDFF"/>
<path d="M109.438 178.426H96.9019V190.962H109.438V178.426Z" fill="#FFFDFF"/>
<path d="M121.974 178.426H109.438V190.962H121.974V178.426Z" fill="#CB7330"/>
<path d="M134.51 178.426H121.974V190.962H134.51V178.426Z" fill="#DCAF5B"/>
<path d="M147.046 178.426H134.51V190.962H147.046V178.426Z" fill="#EED57A"/>
<path d="M159.588 178.426H147.052V190.962H159.588V178.426Z" fill="#EED57A"/>
<path d="M172.124 178.426H159.588V190.962H172.124V178.426Z" fill="#EED57A"/>
<path d="M184.661 178.426H172.125V190.962H184.661V178.426Z" fill="#EED57A"/>
<path d="M197.197 178.426H184.661V190.962H197.197V178.426Z" fill="#EED57A"/>
<path d="M209.733 178.426H197.197V190.962H209.733V178.426Z" fill="#EED57A"/>
<path d="M222.269 178.426H209.733V190.962H222.269V178.426Z" fill="#EED57A"/>
<path d="M234.805 178.426H222.269V190.962H234.805V178.426Z" fill="#EED57A"/>
<path d="M247.341 178.426H234.805V190.962H247.341V178.426Z" fill="#EED57A"/>
<path d="M259.877 178.426H247.341V190.962H259.877V178.426Z" fill="#EED57A"/>
<path d="M272.414 178.426H259.877V190.962H272.414V178.426Z" fill="#AF3C55"/>
<path d="M284.95 178.426H272.414V190.962H284.95V178.426Z" fill="#AF3C55"/>
<path d="M297.486 178.426H284.95V190.962H297.486V178.426Z" fill="#EED57A"/>
<path d="M310.022 178.426H297.486V190.962H310.022V178.426Z" fill="#EED57A"/>
<path d="M322.558 178.426H310.022V190.962H322.558V178.426Z" fill="#EED57A"/>
<path d="M335.1 178.426H322.564V190.962H335.1V178.426Z" fill="#AF3C55"/>
<path d="M347.636 178.426H335.1V190.962H347.636V178.426Z" fill="#AF3C55"/>
<path d="M360.172 178.426H347.636V190.962H360.172V178.426Z" fill="#CB7330"/>
<path d="M71.8296 190.963H59.2935V203.499H71.8296V190.963Z" fill="#CB7330"/>
<path d="M84.3658 190.963H71.8296V203.499H84.3658V190.963Z" fill="#DCAF5B"/>
<path d="M96.9019 190.963H84.3657V203.499H96.9019V190.963Z" fill="#FFFDFF"/>
<path d="M109.438 190.963H96.9019V203.499H109.438V190.963Z" fill="#CB7330"/>
<path d="M121.974 190.963H109.438V203.499H121.974V190.963Z" fill="#DCAF5B"/>
<path d="M134.51 190.963H121.974V203.499H134.51V190.963Z" fill="#EED57A"/>
<path d="M147.046 190.963H134.51V203.499H147.046V190.963Z" fill="#EED57A"/>
<path d="M159.588 190.963H147.052V203.499H159.588V190.963Z" fill="#EED57A"/>
<path d="M172.124 190.963H159.588V203.499H172.124V190.963Z" fill="#EED57A"/>
<path d="M184.661 190.963H172.125V203.499H184.661V190.963Z" fill="#EED57A"/>
<path d="M197.197 190.963H184.661V203.499H197.197V190.963Z" fill="#EED57A"/>
<path d="M209.733 190.963H197.197V203.499H209.733V190.963Z" fill="#EED57A"/>
<path d="M222.269 190.963H209.733V203.499H222.269V190.963Z" fill="#EED57A"/>
<path d="M234.805 190.963H222.269V203.499H234.805V190.963Z" fill="#EED57A"/>
<path d="M247.341 190.963H234.805V203.499H247.341V190.963Z" fill="#EED57A"/>
<path d="M259.877 190.963H247.341V203.499H259.877V190.963Z" fill="#AF3C55"/>
<path d="M272.414 190.963H259.877V203.499H272.414V190.963Z" fill="#D05D60"/>
<path d="M284.95 190.963H272.414V203.499H284.95V190.963Z" fill="#D05D60"/>
<path d="M297.486 190.963H284.95V203.499H297.486V190.963Z" fill="#AF3C55"/>
<path d="M310.022 190.963H297.486V203.499H310.022V190.963Z" fill="#EED57A"/>
<path d="M322.558 190.963H310.022V203.499H322.558V190.963Z" fill="#AF3C55"/>
<path d="M335.1 190.963H322.564V203.499H335.1V190.963Z" fill="#D05D60"/>
<path d="M347.636 190.963H335.1V203.499H347.636V190.963Z" fill="#D05D60"/>
<path d="M360.172 190.963H347.636V203.499H360.172V190.963Z" fill="#AF3C55"/>
<path d="M71.8296 203.5H59.2935V216.036H71.8296V203.5Z" fill="#CB7330"/>
<path d="M84.3658 203.5H71.8296V216.036H84.3658V203.5Z" fill="#DCAF5B"/>
<path d="M96.9019 203.5H84.3657V216.036H96.9019V203.5Z" fill="#FFFDFF"/>
<path d="M109.438 203.5H96.9019V216.036H109.438V203.5Z" fill="#CB7330"/>
<path d="M121.974 203.5H109.438V216.036H121.974V203.5Z" fill="#DCAF5B"/>
<path d="M134.51 203.5H121.974V216.036H134.51V203.5Z" fill="#EED57A"/>
<path d="M147.046 203.5H134.51V216.036H147.046V203.5Z" fill="#EED57A"/>
<path d="M159.588 203.5H147.052V216.036H159.588V203.5Z" fill="#EED57A"/>
<path d="M172.124 203.5H159.588V216.036H172.124V203.5Z" fill="#EED57A"/>
<path d="M184.661 203.5H172.125V216.036H184.661V203.5Z" fill="#EED57A"/>
<path d="M197.197 203.5H184.661V216.036H197.197V203.5Z" fill="#EED57A"/>
<path d="M209.733 203.5H197.197V216.036H209.733V203.5Z" fill="#EED57A"/>
<path d="M222.269 203.5H209.733V216.036H222.269V203.5Z" fill="#EED57A"/>
<path d="M234.805 203.5H222.269V216.036H234.805V203.5Z" fill="#EED57A"/>
<path d="M247.341 203.5H234.805V216.036H247.341V203.5Z" fill="#EED57A"/>
<path d="M259.877 203.5H247.341V216.036H259.877V203.5Z" fill="#AF3C55"/>
<path d="M272.414 203.5H259.877V216.036H272.414V203.5Z" fill="#D05D60"/>
<path d="M284.95 203.5H272.414V216.036H284.95V203.5Z" fill="#D05D60"/>
<path d="M297.486 203.5H284.95V216.036H297.486V203.5Z" fill="#D05D60"/>
<path d="M310.022 203.5H297.486V216.036H310.022V203.5Z" fill="#AF3C55"/>
<path d="M322.558 203.5H310.022V216.036H322.558V203.5Z" fill="#D05D60"/>
<path d="M335.1 203.5H322.564V216.036H335.1V203.5Z" fill="#D05D60"/>
<path d="M347.636 203.5H335.1V216.036H347.636V203.5Z" fill="#D05D60"/>
<path d="M360.172 203.5H347.636V216.036H360.172V203.5Z" fill="#AF3C55"/>
<path d="M71.8296 216.035H59.2935V228.571H71.8296V216.035Z" fill="#CB7330"/>
<path d="M84.3658 216.035H71.8296V228.571H84.3658V216.035Z" fill="#DCAF5B"/>
<path d="M96.9019 216.035H84.3657V228.571H96.9019V216.035Z" fill="#CB7330"/>
<path d="M109.438 216.035H96.9019V228.571H109.438V216.035Z" fill="#DCAF5B"/>
<path d="M121.974 216.035H109.438V228.571H121.974V216.035Z" fill="#DCAF5B"/>
<path d="M134.51 216.035H121.974V228.571H134.51V216.035Z" fill="#EED57A"/>
<path d="M147.046 216.035H134.51V228.571H147.046V216.035Z" fill="#DCAF5B"/>
<path d="M159.588 216.035H147.052V228.571H159.588V216.035Z" fill="#EED57A"/>
<path d="M172.124 216.035H159.588V228.571H172.124V216.035Z" fill="#DCAF5B"/>
<path d="M184.661 216.035H172.125V228.571H184.661V216.035Z" fill="#EED57A"/>
<path d="M197.197 216.035H184.661V228.571H197.197V216.035Z" fill="#DCAF5B"/>
<path d="M209.733 216.035H197.197V228.571H209.733V216.035Z" fill="#EED57A"/>
<path d="M222.269 216.035H209.733V228.571H222.269V216.035Z" fill="#DCAF5B"/>
<path d="M234.805 216.035H222.269V228.571H234.805V216.035Z" fill="#EED57A"/>
<path d="M247.341 216.035H234.805V228.571H247.341V216.035Z" fill="#DCAF5B"/>
<path d="M259.877 216.035H247.341V228.571H259.877V216.035Z" fill="#AF3C55"/>
<path d="M272.414 216.035H259.877V228.571H272.414V216.035Z" fill="#D05D60"/>
<path d="M284.95 216.035H272.414V228.571H284.95V216.035Z" fill="#D05D60"/>
<path d="M297.486 216.035H284.95V228.571H297.486V216.035Z" fill="#D05D60"/>
<path d="M310.022 216.035H297.486V228.571H310.022V216.035Z" fill="#D05D60"/>
<path d="M322.558 216.035H310.022V228.571H322.558V216.035Z" fill="#D05D60"/>
<path d="M335.1 216.035H322.564V228.571H335.1V216.035Z" fill="#D05D60"/>
<path d="M347.636 216.035H335.1V228.571H347.636V216.035Z" fill="#D05D60"/>
<path d="M360.172 216.035H347.636V228.571H360.172V216.035Z" fill="#AF3C55"/>
<path d="M71.8296 228.576H59.2935V241.112H71.8296V228.576Z" fill="#CB7330"/>
<path d="M84.3658 228.576H71.8296V241.112H84.3658V228.576Z" fill="#DCAF5B"/>
<path d="M96.9019 228.576H84.3657V241.112H96.9019V228.576Z" fill="#CB7330"/>
<path d="M109.438 228.576H96.9019V241.112H109.438V228.576Z" fill="#DCAF5B"/>
<path d="M121.974 228.576H109.438V241.112H121.974V228.576Z" fill="#EED57A"/>
<path d="M134.51 228.576H121.974V241.112H134.51V228.576Z" fill="#DCAF5B"/>
<path d="M147.046 228.576H134.51V241.112H147.046V228.576Z" fill="#EED57A"/>
<path d="M159.588 228.576H147.052V241.112H159.588V228.576Z" fill="#DCAF5B"/>
<path d="M172.124 228.576H159.588V241.112H172.124V228.576Z" fill="#EED57A"/>
<path d="M184.661 228.576H172.125V241.112H184.661V228.576Z" fill="#DCAF5B"/>
<path d="M197.197 228.576H184.661V241.112H197.197V228.576Z" fill="#EED57A"/>
<path d="M209.733 228.576H197.197V241.112H209.733V228.576Z" fill="#DCAF5B"/>
<path d="M222.269 228.576H209.733V241.112H222.269V228.576Z" fill="#EED57A"/>
<path d="M234.805 228.576H222.269V241.112H234.805V228.576Z" fill="#DCAF5B"/>
<path d="M247.341 228.576H234.805V241.112H247.341V228.576Z" fill="#EED57A"/>
<path d="M259.877 228.576H247.341V241.112H259.877V228.576Z" fill="#DCAF5B"/>
<path d="M272.414 228.576H259.877V241.112H272.414V228.576Z" fill="#AF3C55"/>
<path d="M284.95 228.576H272.414V241.112H284.95V228.576Z" fill="#D05D60"/>
<path d="M297.486 228.576H284.95V241.112H297.486V228.576Z" fill="#D05D60"/>
<path d="M310.022 228.576H297.486V241.112H310.022V228.576Z" fill="#D05D60"/>
<path d="M322.558 228.576H310.022V241.112H322.558V228.576Z" fill="#D05D60"/>
<path d="M335.1 228.576H322.564V241.112H335.1V228.576Z" fill="#D05D60"/>
<path d="M347.636 228.576H335.1V241.112H347.636V228.576Z" fill="#AF3C55"/>
<path d="M71.8296 241.113H59.2935V253.65H71.8296V241.113Z" fill="#CB7330"/>
<path d="M84.3658 241.113H71.8296V253.65H84.3658V241.113Z" fill="#CB7330"/>
<path d="M96.9019 241.113H84.3657V253.65H96.9019V241.113Z" fill="#DCAF5B"/>
<path d="M109.438 241.113H96.9019V253.65H109.438V241.113Z" fill="#DCAF5B"/>
<path d="M121.974 241.113H109.438V253.65H121.974V241.113Z" fill="#DCAF5B"/>
<path d="M134.51 241.113H121.974V253.65H134.51V241.113Z" fill="#DCAF5B"/>
<path d="M147.046 241.113H134.51V253.65H147.046V241.113Z" fill="#DCAF5B"/>
<path d="M159.588 241.113H147.052V253.65H159.588V241.113Z" fill="#DCAF5B"/>
<path d="M172.124 241.113H159.588V253.65H172.124V241.113Z" fill="#DCAF5B"/>
<path d="M184.661 241.113H172.125V253.65H184.661V241.113Z" fill="#DCAF5B"/>
<path d="M197.197 241.113H184.661V253.65H197.197V241.113Z" fill="#DCAF5B"/>
<path d="M209.733 241.113H197.197V253.65H209.733V241.113Z" fill="#DCAF5B"/>
<path d="M222.269 241.113H209.733V253.65H222.269V241.113Z" fill="#DCAF5B"/>
<path d="M234.805 241.113H222.269V253.65H234.805V241.113Z" fill="#DCAF5B"/>
<path d="M247.341 241.113H234.805V253.65H247.341V241.113Z" fill="#DCAF5B"/>
<path d="M259.877 241.113H247.341V253.65H259.877V241.113Z" fill="#DCAF5B"/>
<path d="M272.414 241.113H259.877V253.65H272.414V241.113Z" fill="#DCAF5B"/>
<path d="M284.95 241.113H272.414V253.65H284.95V241.113Z" fill="#AF3C55"/>
<path d="M297.486 241.113H284.95V253.65H297.486V241.113Z" fill="#D05D60"/>
<path d="M310.022 241.113H297.486V253.65H310.022V241.113Z" fill="#D05D60"/>
<path d="M322.558 241.113H310.022V253.65H322.558V241.113Z" fill="#D05D60"/>
<path d="M335.1 241.113H322.564V253.65H335.1V241.113Z" fill="#AF3C55"/>
<path d="M84.3658 253.648H71.8296V266.185H84.3658V253.648Z" fill="#CB7330"/>
<path d="M96.9019 253.648H84.3657V266.185H96.9019V253.648Z" fill="#CB7330"/>
<path d="M109.438 253.648H96.9019V266.185H109.438V253.648Z" fill="#CB7330"/>
<path d="M121.974 253.648H109.438V266.185H121.974V253.648Z" fill="#CB7330"/>
<path d="M134.51 253.648H121.974V266.185H134.51V253.648Z" fill="#CB7330"/>
<path d="M147.046 253.648H134.51V266.185H147.046V253.648Z" fill="#CB7330"/>
<path d="M159.588 253.648H147.052V266.185H159.588V253.648Z" fill="#CB7330"/>
<path d="M172.124 253.648H159.588V266.185H172.124V253.648Z" fill="#CB7330"/>
<path d="M184.661 253.648H172.125V266.185H184.661V253.648Z" fill="#CB7330"/>
<path d="M197.197 253.648H184.661V266.185H197.197V253.648Z" fill="#CB7330"/>
<path d="M209.733 253.648H197.197V266.185H209.733V253.648Z" fill="#CB7330"/>
<path d="M222.269 253.648H209.733V266.185H222.269V253.648Z" fill="#CB7330"/>
<path d="M234.805 253.648H222.269V266.185H234.805V253.648Z" fill="#CB7330"/>
<path d="M247.341 253.648H234.805V266.185H247.341V253.648Z" fill="#CB7330"/>
<path d="M259.877 253.648H247.341V266.185H259.877V253.648Z" fill="#CB7330"/>
<path d="M272.414 253.648H259.877V266.185H272.414V253.648Z" fill="#CB7330"/>
<path d="M284.95 253.648H272.414V266.185H284.95V253.648Z" fill="#CB7330"/>
<path d="M13.6153 0.84375H0.820312V13.6388H13.6153V0.84375Z" fill="#5E6DD2"/>
<path d="M26.4107 0.84375H13.6157V13.6388H26.4107V0.84375Z" fill="#5E6DD2"/>
<path d="M39.2057 0.84375H26.4106V13.6388H39.2057V0.84375Z" fill="#DBE4F2"/>
<path d="M52.0011 0.84375H39.2061V13.6388H52.0011V0.84375Z" fill="#DBE4F2"/>
<path d="M64.7966 0.84375H52.0015V13.6388H64.7966V0.84375Z" fill="#5E6DD2"/>
<path d="M77.5919 0.84375H64.7969V13.6388H77.5919V0.84375Z" fill="#DBE4F2"/>
<path d="M13.6153 13.6387H0.820312V26.4337H13.6153V13.6387Z" fill="#5E6DD2"/>
<path d="M26.4107 13.6387H13.6157V26.4337H26.4107V13.6387Z" fill="#5E6DD2"/>
<path d="M39.2057 13.6387H26.4106V26.4337H39.2057V13.6387Z" fill="#DBE4F2"/>
<path d="M52.0011 13.6387H39.2061V26.4337H52.0011V13.6387Z" fill="#DBE4F2"/>
<path d="M64.7966 13.6387H52.0015V26.4337H64.7966V13.6387Z" fill="#5E6DD2"/>
<path d="M77.5919 13.6387H64.7969V26.4337H77.5919V13.6387Z" fill="#DBE4F2"/>
<path d="M90.3868 13.6387H77.5918V26.4337H90.3868V13.6387Z" fill="#5E6DD2"/>
<path d="M13.6153 26.4336H0.820312V39.2286H13.6153V26.4336Z" fill="#5E6DD2"/>
<path d="M26.4107 26.4336H13.6157V39.2286H26.4107V26.4336Z" fill="#5E6DD2"/>
<path d="M39.2057 26.4336H26.4106V39.2286H39.2057V26.4336Z" fill="#DBE4F2"/>
<path d="M52.0011 26.4336H39.2061V39.2286H52.0011V26.4336Z" fill="#DBE4F2"/>
<path d="M64.7966 26.4336H52.0015V39.2286H64.7966V26.4336Z" fill="#DBE4F2"/>
<path d="M77.5919 26.4336H64.7969V39.2286H77.5919V26.4336Z" fill="#DBE4F2"/>
<path d="M90.3868 26.4336H77.5918V39.2286H90.3868V26.4336Z" fill="#5E6DD2"/>
<path d="M103.182 26.4336H90.3872V39.2286H103.182V26.4336Z" fill="#5E6DD2"/>
<path d="M13.6153 39.2285H0.820312V52.0235H13.6153V39.2285Z" fill="#5E6DD2"/>
<path d="M26.4107 39.2285H13.6157V52.0235H26.4107V39.2285Z" fill="#5E6DD2"/>
<path d="M39.2057 39.2285H26.4106V52.0235H39.2057V39.2285Z" fill="#5E6DD2"/>
<path d="M52.0011 39.2285H39.2061V52.0235H52.0011V39.2285Z" fill="#5E6DD2"/>
<path d="M64.7966 39.2285H52.0015V52.0235H64.7966V39.2285Z" fill="#5E6DD2"/>
<path d="M77.5919 39.2285H64.7969V52.0235H77.5919V39.2285Z" fill="#5E6DD2"/>
<path d="M90.3868 39.2285H77.5918V52.0235H90.3868V39.2285Z" fill="#5E6DD2"/>
<path d="M103.182 39.2285H90.3872V52.0235H103.182V39.2285Z" fill="#5E6DD2"/>
<path d="M13.6153 52.0254H0.820312V64.8204H13.6153V52.0254Z" fill="#5E6DD2"/>
<path d="M26.4107 52.0254H13.6157V64.8204H26.4107V52.0254Z" fill="#5E6DD2"/>
<path d="M39.2057 52.0254H26.4106V64.8204H39.2057V52.0254Z" fill="#DBE4F2"/>
<path d="M52.0011 52.0254H39.2061V64.8204H52.0011V52.0254Z" fill="#DBE4F2"/>
<path d="M64.7966 52.0254H52.0015V64.8204H64.7966V52.0254Z" fill="#DBE4F2"/>
<path d="M77.5919 52.0254H64.7969V64.8204H77.5919V52.0254Z" fill="#DBE4F2"/>
<path d="M90.3868 52.0254H77.5918V64.8204H90.3868V52.0254Z" fill="#5E6DD2"/>
<path d="M103.182 52.0254H90.3872V64.8204H103.182V52.0254Z" fill="#5E6DD2"/>
<path d="M13.6153 64.8262H0.820312V77.6212H13.6153V64.8262Z" fill="#5E6DD2"/>
<path d="M26.4107 64.8262H13.6157V77.6212H26.4107V64.8262Z" fill="#5E6DD2"/>
<path d="M39.2057 64.8262H26.4106V77.6212H39.2057V64.8262Z" fill="#DBE4F2"/>
<path d="M52.0011 64.8262H39.2061V77.6212H52.0011V64.8262Z" fill="#5E6DD2"/>
<path d="M64.7966 64.8262H52.0015V77.6212H64.7966V64.8262Z" fill="#5E6DD2"/>
<path d="M77.5919 64.8262H64.7969V77.6212H77.5919V64.8262Z" fill="#DBE4F2"/>
<path d="M90.3868 64.8262H77.5918V77.6212H90.3868V64.8262Z" fill="#5E6DD2"/>
<path d="M103.182 64.8262H90.3872V77.6212H103.182V64.8262Z" fill="#5E6DD2"/>
<path d="M13.6153 77.6211H0.820312V90.4162H13.6153V77.6211Z" fill="#5E6DD2"/>
<path d="M26.4107 77.6211H13.6157V90.4162H26.4107V77.6211Z" fill="#5E6DD2"/>
<path d="M39.2057 77.6211H26.4106V90.4162H39.2057V77.6211Z" fill="#DBE4F2"/>
<path d="M52.0011 77.6211H39.2061V90.4162H52.0011V77.6211Z" fill="#DBE4F2"/>
<path d="M64.7966 77.6211H52.0015V90.4162H64.7966V77.6211Z" fill="#DBE4F2"/>
<path d="M77.5919 77.6211H64.7969V90.4162H77.5919V77.6211Z" fill="#DBE4F2"/>
<path d="M90.3868 77.6211H77.5918V90.4162H90.3868V77.6211Z" fill="#5E6DD2"/>
<path d="M103.182 77.6211H90.3872V90.4162H103.182V77.6211Z" fill="#5E6DD2"/>
<path d="M13.6153 90.416H0.820312V103.211H13.6153V90.416Z" fill="#5E6DD2"/>
<path d="M26.4107 90.416H13.6157V103.211H26.4107V90.416Z" fill="#5E6DD2"/>
<path d="M39.2057 90.416H26.4106V103.211H39.2057V90.416Z" fill="#5E6DD2"/>
<path d="M52.0011 90.416H39.2061V103.211H52.0011V90.416Z" fill="#5E6DD2"/>
<path d="M64.7966 90.416H52.0015V103.211H64.7966V90.416Z" fill="#5E6DD2"/>
<path d="M77.5919 90.416H64.7969V103.211H77.5919V90.416Z" fill="#5E6DD2"/>
<path d="M90.3868 90.416H77.5918V103.211H90.3868V90.416Z" fill="#5E6DD2"/>
<path d="M103.182 90.416H90.3872V103.211H103.182V90.416Z" fill="#5E6DD2"/>
<path d="M297.486 253.648H284.95V266.185H297.486V253.648Z" fill="#AF3C55"/>
<path d="M310.022 253.648H297.486V266.185H310.022V253.648Z" fill="#AF3C55"/>
<path d="M322.558 253.648H310.022V266.185H322.558V253.648Z" fill="#AF3C55"/>
</svg>
