<svg width="85" height="85" viewBox="0 0 85 85" fill="none" xmlns="http://www.w3.org/2000/svg">
<path d="M61.749 77.04H54.0493V84.7442H61.749V77.04Z" fill="#009975"/>
<path d="M54.0496 77.04H46.3499V84.7442H54.0496V77.04Z" fill="#009975"/>
<path d="M46.3499 77.04H38.6501V84.7442H46.3499V77.04Z" fill="#009975"/>
<path d="M38.6501 77.04H30.9504V84.7442H38.6501V77.04Z" fill="#009975"/>
<path d="M30.9504 77.04H23.2507V84.7442H30.9504V77.04Z" fill="#009975"/>
<path d="M69.4489 69.3369H61.7491V77.041H69.4489V69.3369Z" fill="#009975"/>
<path d="M61.749 69.3369H54.0493V77.041H61.749V69.3369Z" fill="#02C194"/>
<path d="M54.0496 69.3369H46.3499V77.041H54.0496V69.3369Z" fill="#02C194"/>
<path d="M46.3499 69.3369H38.6501V77.041H46.3499V69.3369Z" fill="#02C194"/>
<path d="M38.6501 69.3369H30.9504V77.041H38.6501V69.3369Z" fill="#02C194"/>
<path d="M30.9504 69.3369H23.2507V77.041H30.9504V69.3369Z" fill="#02C194"/>
<path d="M23.2509 69.3369H15.5511V77.041H23.2509V69.3369Z" fill="#009975"/>
<path d="M77.1486 61.6328H69.4489V69.3369H77.1486V61.6328Z" fill="#009975"/>
<path d="M69.4489 61.6328H61.7491V69.3369H69.4489V61.6328Z" fill="#02C194"/>
<path d="M61.749 61.6328H54.0493V69.3369H61.749V61.6328Z" fill="#0BE1AE"/>
<path d="M54.0496 61.6328H46.3499V69.3369H54.0496V61.6328Z" fill="#06D0A0"/>
<path d="M46.3499 61.6328H38.6501V69.3369H46.3499V61.6328Z" fill="#06D0A0"/>
<path d="M38.6501 61.6328H30.9504V69.3369H38.6501V61.6328Z" fill="#06D0A0"/>
<path d="M30.9504 61.6328H23.2507V69.3369H30.9504V61.6328Z" fill="#06D0A0"/>
<path d="M23.2509 61.6328H15.5511V69.3369H23.2509V61.6328Z" fill="#02C194"/>
<path d="M15.551 61.6328H7.85132V69.3369H15.551V61.6328Z" fill="#009975"/>
<path d="M84.8483 53.9297H77.1486V61.6338H84.8483V53.9297Z" fill="#009975"/>
<path d="M77.1486 53.9297H69.4489V61.6338H77.1486V53.9297Z" fill="#02C194"/>
<path d="M69.4489 53.9297H61.7491V61.6338H69.4489V53.9297Z" fill="#0BE1AE"/>
<path d="M61.749 53.9297H54.0493V61.6338H61.749V53.9297Z" fill="#06D0A0"/>
<path d="M54.0496 53.9297H46.3499V61.6338H54.0496V53.9297Z" fill="#06D0A0"/>
<path d="M46.3499 53.9297H38.6501V61.6338H46.3499V53.9297Z" fill="#0BE1AE"/>
<path d="M38.6501 53.9297H30.9504V61.6338H38.6501V53.9297Z" fill="#0BE1AE"/>
<path d="M30.9504 53.9297H23.2507V61.6338H30.9504V53.9297Z" fill="#0BE1AE"/>
<path d="M23.2509 53.9297H15.5511V61.6338H23.2509V53.9297Z" fill="#06D0A0"/>
<path d="M15.551 53.9297H7.85132V61.6338H15.551V53.9297Z" fill="#06D0A0"/>
<path d="M7.85132 53.9297H0.151611V61.6338H7.85132V53.9297Z" fill="#009975"/>
<path d="M84.8483 46.2227H77.1486V53.9268H84.8483V46.2227Z" fill="#009975"/>
<path d="M77.1486 46.2227H69.4489V53.9268H77.1486V46.2227Z" fill="#02C194"/>
<path d="M69.4489 46.2227H61.7491V53.9268H69.4489V46.2227Z" fill="#06D0A0"/>
<path d="M61.749 46.2227H54.0493V53.9268H61.749V46.2227Z" fill="#06D0A0"/>
<path d="M54.0496 46.2227H46.3499V53.9268H54.0496V46.2227Z" fill="#0BE1AE"/>
<path d="M46.3499 46.2227H38.6501V53.9268H46.3499V46.2227Z" fill="#0BE1AE"/>
<path d="M38.6501 46.2227H30.9504V53.9268H38.6501V46.2227Z" fill="#0BE1AE"/>
<path d="M30.9504 46.2227H23.2507V53.9268H30.9504V46.2227Z" fill="#0BE1AE"/>
<path d="M23.2509 46.2227H15.5511V53.9268H23.2509V46.2227Z" fill="#0BE1AE"/>
<path d="M15.551 46.2227H7.85132V53.9268H15.551V46.2227Z" fill="#06D0A0"/>
<path d="M7.85132 46.2227H0.151611V53.9268H7.85132V46.2227Z" fill="#009975"/>
<path d="M84.8483 38.5186H77.1486V46.2227H84.8483V38.5186Z" fill="#009975"/>
<path d="M77.1486 38.5186H69.4489V46.2227H77.1486V38.5186Z" fill="#02C194"/>
<path d="M69.4489 38.5186H61.7491V46.2227H69.4489V38.5186Z" fill="#06D0A0"/>
<path d="M61.749 38.5186H54.0493V46.2227H61.749V38.5186Z" fill="#0BE1AE"/>
<path d="M54.0496 38.5186H46.3499V46.2227H54.0496V38.5186Z" fill="#0BE1AE"/>
<path d="M46.3499 38.5186H38.6501V46.2227H46.3499V38.5186Z" fill="#0BE1AE"/>
<path d="M38.6501 38.5186H30.9504V46.2227H38.6501V38.5186Z" fill="#10E9B5"/>
<path d="M30.9504 38.5186H23.2507V46.2227H30.9504V38.5186Z" fill="#10E9B5"/>
<path d="M23.2509 38.5186H15.5511V46.2227H23.2509V38.5186Z" fill="#10E9B5"/>
<path d="M15.551 38.5186H7.85132V46.2227H15.551V38.5186Z" fill="#06D0A0"/>
<path d="M7.85132 38.5186H0.151611V46.2227H7.85132V38.5186Z" fill="#009975"/>
<path d="M84.8483 30.8174H77.1486V38.5215H84.8483V30.8174Z" fill="#009975"/>
<path d="M77.1486 30.8174H69.4489V38.5215H77.1486V30.8174Z" fill="#02C194"/>
<path d="M69.4489 30.8174H61.7491V38.5215H69.4489V30.8174Z" fill="#06D0A0"/>
<path d="M61.749 30.8174H54.0493V38.5215H61.749V30.8174Z" fill="#0BE1AE"/>
<path d="M54.0496 30.8174H46.3499V38.5215H54.0496V30.8174Z" fill="#0BE1AE"/>
<path d="M46.3499 30.8174H38.6501V38.5215H46.3499V30.8174Z" fill="#10E9B5"/>
<path d="M38.6501 30.8174H30.9504V38.5215H38.6501V30.8174Z" fill="#1CFFC9"/>
<path d="M30.9504 30.8174H23.2507V38.5215H30.9504V30.8174Z" fill="#1CFFC9"/>
<path d="M23.2509 30.8174H15.5511V38.5215H23.2509V30.8174Z" fill="#10E9B5"/>
<path d="M15.551 30.8174H7.85132V38.5215H15.551V30.8174Z" fill="#06D0A0"/>
<path d="M7.85132 30.8174H0.151611V38.5215H7.85132V30.8174Z" fill="#009975"/>
<path d="M84.8483 23.1113H77.1486V30.8155H84.8483V23.1113Z" fill="#009975"/>
<path d="M77.1486 23.1113H69.4489V30.8155H77.1486V23.1113Z" fill="#02C194"/>
<path d="M69.4489 23.1113H61.7491V30.8155H69.4489V23.1113Z" fill="#06D0A0"/>
<path d="M61.749 23.1113H54.0493V30.8155H61.749V23.1113Z" fill="#0BE1AE"/>
<path d="M54.0496 23.1113H46.3499V30.8155H54.0496V23.1113Z" fill="#0BE1AE"/>
<path d="M46.3499 23.1113H38.6501V30.8155H46.3499V23.1113Z" fill="#10E9B5"/>
<path d="M38.6501 23.1113H30.9504V30.8155H38.6501V23.1113Z" fill="#1CFFC9"/>
<path d="M30.9504 23.1113H23.2507V30.8155H30.9504V23.1113Z" fill="#1CFFC9"/>
<path d="M23.2509 23.1113H15.5511V30.8155H23.2509V23.1113Z" fill="#10E9B5"/>
<path d="M15.551 23.1113H7.85132V30.8155H15.551V23.1113Z" fill="#06D0A0"/>
<path d="M7.85132 23.1113H0.151611V30.8155H7.85132V23.1113Z" fill="#009975"/>
<path d="M77.1486 15.4082H69.4489V23.1123H77.1486V15.4082Z" fill="#009975"/>
<path d="M69.4489 15.4082H61.7491V23.1123H69.4489V15.4082Z" fill="#02C194"/>
<path d="M61.749 15.4082H54.0493V23.1123H61.749V15.4082Z" fill="#06D0A0"/>
<path d="M54.0496 15.4082H46.3499V23.1123H54.0496V15.4082Z" fill="#0BE1AE"/>
<path d="M46.3499 15.4082H38.6501V23.1123H46.3499V15.4082Z" fill="#10E9B5"/>
<path d="M38.6501 15.4082H30.9504V23.1123H38.6501V15.4082Z" fill="#10E9B5"/>
<path d="M30.9504 15.4082H23.2507V23.1123H30.9504V15.4082Z" fill="#10E9B5"/>
<path d="M23.2509 15.4082H15.5511V23.1123H23.2509V15.4082Z" fill="#06D0A0"/>
<path d="M15.551 15.4082H7.85132V23.1123H15.551V15.4082Z" fill="#009975"/>
<path d="M69.4489 7.70312H61.7491V15.4073H69.4489V7.70312Z" fill="#009975"/>
<path d="M61.749 7.70312H54.0493V15.4073H61.749V7.70312Z" fill="#06D0A0"/>
<path d="M54.0496 7.70312H46.3499V15.4073H54.0496V7.70312Z" fill="#06D0A0"/>
<path d="M46.3499 7.70312H38.6501V15.4073H46.3499V7.70312Z" fill="#06D0A0"/>
<path d="M38.6501 7.70312H30.9504V15.4073H38.6501V7.70312Z" fill="#06D0A0"/>
<path d="M30.9504 7.70312H23.2507V15.4073H30.9504V7.70312Z" fill="#06D0A0"/>
<path d="M23.2509 7.70312H15.5511V15.4073H23.2509V7.70312Z" fill="#009975"/>
<path d="M61.749 0H54.0493V7.70413H61.749V0Z" fill="#009975"/>
<path d="M54.0496 0H46.3499V7.70413H54.0496V0Z" fill="#009975"/>
<path d="M46.3499 0H38.6501V7.70413H46.3499V0Z" fill="#009975"/>
<path d="M38.6501 0H30.9504V7.70413H38.6501V0Z" fill="#009975"/>
<path d="M30.9504 0H23.2507V7.70413H30.9504V0Z" fill="#009975"/>
<path d="M23.738 40.793L38.5132 55.4277L60.9611 29.5869" stroke="white" stroke-width="6"/>
</svg>
