<svg width="86" height="85" viewBox="0 0 86 85" fill="none" xmlns="http://www.w3.org/2000/svg">
<path d="M62.339 77.0537H54.6393V84.7578H62.339V77.0537Z" fill="#D73810"/>
<path d="M54.6395 77.0537H46.9398V84.7578H54.6395V77.0537Z" fill="#D73810"/>
<path d="M46.9398 77.0537H39.2401V84.7578H46.9398V77.0537Z" fill="#D73810"/>
<path d="M39.2401 77.0537H31.5404V84.7578H39.2401V77.0537Z" fill="#D73810"/>
<path d="M31.5403 77.0537H23.8406V84.7578H31.5403V77.0537Z" fill="#D73810"/>
<path d="M70.0388 69.3506H62.3391V77.0547H70.0388V69.3506Z" fill="#D73810"/>
<path d="M62.3389 69.3506H54.6392V77.0547H62.3389V69.3506Z" fill="#E15E3D"/>
<path d="M54.6395 69.3506H46.9398V77.0547H54.6395V69.3506Z" fill="#E15E3D"/>
<path d="M46.9398 69.3506H39.2401V77.0547H46.9398V69.3506Z" fill="#E15E3D"/>
<path d="M39.2401 69.3506H31.5403V77.0547H39.2401V69.3506Z" fill="#E15E3D"/>
<path d="M31.5403 69.3506H23.8406V77.0547H31.5403V69.3506Z" fill="#E15E3D"/>
<path d="M23.8408 69.3506H16.1411V77.0547H23.8408V69.3506Z" fill="#D73810"/>
<path d="M77.7385 61.6465H70.0388V69.3506H77.7385V61.6465Z" fill="#D73810"/>
<path d="M70.0388 61.6465H62.3391V69.3506H70.0388V61.6465Z" fill="#E15E3D"/>
<path d="M62.339 61.6465H54.6393V69.3506H62.339V61.6465Z" fill="#FF724F"/>
<path d="M54.6395 61.6465H46.9398V69.3506H54.6395V61.6465Z" fill="#F36845"/>
<path d="M46.9398 61.6465H39.2401V69.3506H46.9398V61.6465Z" fill="#F36845"/>
<path d="M39.2401 61.6465H31.5404V69.3506H39.2401V61.6465Z" fill="#F36845"/>
<path d="M31.5403 61.6465H23.8406V69.3506H31.5403V61.6465Z" fill="#F36845"/>
<path d="M23.8407 61.6465H16.141V69.3506H23.8407V61.6465Z" fill="#E15E3D"/>
<path d="M16.1409 61.6465H8.44116V69.3506H16.1409V61.6465Z" fill="#D73810"/>
<path d="M85.4382 53.9434H77.7385V61.6475H85.4382V53.9434Z" fill="#D73810"/>
<path d="M77.7385 53.9434H70.0388V61.6475H77.7385V53.9434Z" fill="#E15E3D"/>
<path d="M70.0388 53.9434H62.3391V61.6475H70.0388V53.9434Z" fill="#FF724F"/>
<path d="M62.339 53.9434H54.6393V61.6475H62.339V53.9434Z" fill="#F36845"/>
<path d="M54.6395 53.9434H46.9398V61.6475H54.6395V53.9434Z" fill="#F36845"/>
<path d="M46.9398 53.9434H39.2401V61.6475H46.9398V53.9434Z" fill="#FF724F"/>
<path d="M39.2401 53.9434H31.5404V61.6475H39.2401V53.9434Z" fill="#FF724F"/>
<path d="M31.5403 53.9434H23.8406V61.6475H31.5403V53.9434Z" fill="#FF724F"/>
<path d="M23.8407 53.9434H16.141V61.6475H23.8407V53.9434Z" fill="#F36845"/>
<path d="M16.1409 53.9434H8.44116V61.6475H16.1409V53.9434Z" fill="#F36845"/>
<path d="M8.44116 53.9434H0.741455V61.6475H8.44116V53.9434Z" fill="#D73810"/>
<path d="M85.4382 46.2363H77.7385V53.9405H85.4382V46.2363Z" fill="#D73810"/>
<path d="M77.7385 46.2363H70.0388V53.9405H77.7385V46.2363Z" fill="#E15E3D"/>
<path d="M70.0388 46.2363H62.3391V53.9405H70.0388V46.2363Z" fill="#F36845"/>
<path d="M62.339 46.2363H54.6393V53.9405H62.339V46.2363Z" fill="#F36845"/>
<path d="M54.6395 46.2363H46.9398V53.9405H54.6395V46.2363Z" fill="#FF724F"/>
<path d="M46.9398 46.2363H39.2401V53.9405H46.9398V46.2363Z" fill="#FF724F"/>
<path d="M39.2401 46.2363H31.5404V53.9405H39.2401V46.2363Z" fill="#FF724F"/>
<path d="M31.5403 46.2363H23.8406V53.9405H31.5403V46.2363Z" fill="#FF724F"/>
<path d="M23.8407 46.2363H16.141V53.9405H23.8407V46.2363Z" fill="#FF724F"/>
<path d="M16.1409 46.2363H8.44116V53.9405H16.1409V46.2363Z" fill="#F36845"/>
<path d="M8.44116 46.2363H0.741455V53.9405H8.44116V46.2363Z" fill="#D73810"/>
<path d="M85.4382 38.5322H77.7385V46.2364H85.4382V38.5322Z" fill="#D73810"/>
<path d="M77.7385 38.5322H70.0388V46.2364H77.7385V38.5322Z" fill="#E15E3D"/>
<path d="M70.0388 38.5322H62.3391V46.2364H70.0388V38.5322Z" fill="#F36845"/>
<path d="M62.3389 38.5322H54.6392V46.2364H62.3389V38.5322Z" fill="#FF724F"/>
<path d="M54.6395 38.5322H46.9398V46.2364H54.6395V38.5322Z" fill="#FF724F"/>
<path d="M46.9398 38.5322H28.7769V46.2364H46.9398V38.5322Z" fill="#FF724F"/>
<path d="M39.2401 38.5322H31.5403V46.2364H39.2401V38.5322Z" fill="#FF724F"/>
<path d="M31.5403 38.5322H23.8406V46.2364H31.5403V38.5322Z" fill="#FF724F"/>
<path d="M23.8408 38.5322H16.1411V46.2364H23.8408V38.5322Z" fill="#FF724F"/>
<path d="M16.1409 38.5322H8.44122V46.2364H16.1409V38.5322Z" fill="#F36845"/>
<path d="M8.44123 38.5322H0.741516V46.2364H8.44123V38.5322Z" fill="#D73810"/>
<path d="M85.4382 30.8311H77.7385V38.5352H85.4382V30.8311Z" fill="#D73810"/>
<path d="M77.7385 30.8311H70.0388V38.5352H77.7385V30.8311Z" fill="#E15E3D"/>
<path d="M70.0388 30.8311H62.3391V38.5352H70.0388V30.8311Z" fill="#F36845"/>
<path d="M62.339 30.8311H54.6393V38.5352H62.339V30.8311Z" fill="#FF724F"/>
<path d="M54.6395 30.8311H46.9398V38.5352H54.6395V30.8311Z" fill="#FF724F"/>
<path d="M46.9398 30.8311H28.7769V38.5352H46.9398V30.8311Z" fill="#FF8B6D"/>
<path d="M39.2401 30.8311H31.5404V38.5352H39.2401V30.8311Z" fill="#FF8B6D"/>
<path d="M31.5403 30.8311H23.8406V38.5352H31.5403V30.8311Z" fill="#FF8B6D"/>
<path d="M23.8407 30.8311H16.141V38.5352H23.8407V30.8311Z" fill="#FF724F"/>
<path d="M16.1409 30.8311H8.44116V38.5352H16.1409V30.8311Z" fill="#F36845"/>
<path d="M8.44116 30.8311H0.741455V38.5352H8.44116V30.8311Z" fill="#D73810"/>
<path d="M85.4382 23.125H77.7385V30.8291H85.4382V23.125Z" fill="#D73810"/>
<path d="M77.7385 23.125H70.0388V30.8291H77.7385V23.125Z" fill="#E15E3D"/>
<path d="M70.0388 23.125H62.3391V30.8291H70.0388V23.125Z" fill="#F36845"/>
<path d="M62.339 23.125H54.6393V30.8291H62.339V23.125Z" fill="#FF724F"/>
<path d="M54.6395 23.125H46.9398V30.8291H54.6395V23.125Z" fill="#FF724F"/>
<path d="M46.9398 23.125H28.7769V30.8291H46.9398V23.125Z" fill="#FF8B6D"/>
<path d="M39.2401 23.125H31.5404V30.8291H39.2401V23.125Z" fill="#FF8B6D"/>
<path d="M31.5403 23.125H23.8406V30.8291H31.5403V23.125Z" fill="#FF8B6D"/>
<path d="M23.8407 23.125H16.141V30.8291H23.8407V23.125Z" fill="#FF724F"/>
<path d="M16.1409 23.125H8.44116V30.8291H16.1409V23.125Z" fill="#F36845"/>
<path d="M8.44116 23.125H0.741455V30.8291H8.44116V23.125Z" fill="#D73810"/>
<path d="M77.7385 15.4219H70.0388V23.126H77.7385V15.4219Z" fill="#D73810"/>
<path d="M70.0388 15.4219H62.3391V23.126H70.0388V15.4219Z" fill="#E15E3D"/>
<path d="M62.3389 15.4219H54.6392V23.126H62.3389V15.4219Z" fill="#F36845"/>
<path d="M54.6395 15.4219H46.9398V23.126H54.6395V15.4219Z" fill="#FF724F"/>
<path d="M46.9398 15.4219H28.7769V23.126H46.9398V15.4219Z" fill="#FF724F"/>
<path d="M39.2401 15.4219H31.5403V23.126H39.2401V15.4219Z" fill="#FF724F"/>
<path d="M31.5403 15.4219H23.8406V23.126H31.5403V15.4219Z" fill="#FF724F"/>
<path d="M23.8408 15.4219H16.1411V23.126H23.8408V15.4219Z" fill="#F36845"/>
<path d="M16.1409 15.4219H8.44122V23.126H16.1409V15.4219Z" fill="#D73810"/>
<path d="M70.0388 7.7168H62.3391V15.4209H70.0388V7.7168Z" fill="#D73810"/>
<path d="M62.339 7.7168H54.6393V15.4209H62.339V7.7168Z" fill="#F36845"/>
<path d="M54.6395 7.7168H46.9398V15.4209H54.6395V7.7168Z" fill="#F36845"/>
<path d="M46.9398 7.7168H39.2401V15.4209H46.9398V7.7168Z" fill="#F36845"/>
<path d="M39.2401 7.7168H31.5404V15.4209H39.2401V7.7168Z" fill="#F36845"/>
<path d="M31.5403 7.7168H23.8406V15.4209H31.5403V7.7168Z" fill="#F36845"/>
<path d="M23.8407 7.7168H16.141V15.4209H23.8407V7.7168Z" fill="#D73810"/>
<path d="M62.339 0.0136719H54.6393V7.7178H62.339V0.0136719Z" fill="#D73810"/>
<path d="M54.6395 0.0136719H46.9398V7.7178H54.6395V0.0136719Z" fill="#D73810"/>
<path d="M46.9398 0.0136719H39.2401V7.7178H46.9398V0.0136719Z" fill="#D73810"/>
<path d="M39.2401 0.0136719H31.5404V7.7178H39.2401V0.0136719Z" fill="#D73810"/>
<path d="M31.5403 0.0136719H23.8406V7.7178H31.5403V0.0136719Z" fill="#D73810"/>
<path d="M26.689 26.7656L58.4892 58.5662" stroke="white" stroke-width="6"/>
<path d="M26.6887 58.5664L58.4893 26.7662" stroke="white" stroke-width="6"/>
</svg>
