<svg width="112" height="41" viewBox="0 0 112 41" fill="none" xmlns="http://www.w3.org/2000/svg">
<path d="M2.47168 28.2471L1.6422 27.6657L2.23423 26.8438L3.04565 27.4283C2.23423 26.8438 2.23456 26.8434 2.23496 26.8428L2.2361 26.8412L2.23965 26.8363L2.25179 26.8197C2.26213 26.8055 2.27695 26.7853 2.29626 26.7593C2.33486 26.7073 2.39139 26.632 2.46576 26.5348C2.61451 26.3405 2.83471 26.059 3.12586 25.7028C3.7081 24.9904 4.5745 23.9788 5.72111 22.7676C8.01365 20.3461 11.4305 17.1229 15.9406 13.9006C24.9621 7.45481 38.3769 1.00024 55.9084 1.00024C73.4377 1.00024 86.9201 7.45026 96.0092 13.8903C100.553 17.11 104.004 20.3304 106.323 22.7498C107.482 23.9598 108.359 24.9706 108.949 25.6823C109.244 26.0381 109.467 26.3193 109.618 26.5133C109.693 26.6104 109.751 26.6856 109.79 26.7375C109.809 26.7635 109.824 26.7836 109.835 26.7977L109.847 26.8144L109.851 26.8192L109.852 26.8208C109.852 26.8213 109.853 26.8218 109.046 27.4123L109.853 26.8218L110.458 27.6493L109.616 28.2338L102.112 33.4409L101.073 34.1623L100.611 32.9849L100.611 32.9847L100.611 32.9845L100.611 32.9843L100.61 32.9818L100.604 32.9662C100.6 32.9573 100.596 32.9454 100.589 32.9304C100.585 32.9204 100.581 32.9091 100.576 32.8965C100.549 32.8333 100.509 32.737 100.454 32.6102C100.343 32.3565 100.173 31.9805 99.9402 31.5023C99.7456 31.103 99.5072 30.6325 99.2228 30.1026C98.1891 34.8066 95.3801 37.2784 92.689 38.5364C91.2266 39.22 89.8172 39.5391 88.7775 39.6887C88.2558 39.7637 87.8222 39.7968 87.5145 39.811C87.3606 39.8182 87.2378 39.8206 87.1508 39.8211C87.1073 39.8214 87.0727 39.8213 87.0477 39.821L87.0194 39.8205H25.0052L24.9752 39.8209C24.9503 39.8211 24.916 39.8212 24.8729 39.8208C24.7867 39.8199 24.6652 39.8171 24.5128 39.8095C24.2085 39.7942 23.7796 39.7597 23.2638 39.6829C22.2356 39.5297 20.8421 39.2055 19.396 38.5163C16.7283 37.245 13.9481 34.7557 12.9256 30.0328C12.6238 30.5983 12.3722 31.0995 12.1682 31.5232C11.9313 32.0153 11.7587 32.4025 11.6464 32.6639C11.5903 32.7947 11.5492 32.8939 11.5227 32.9591C11.5095 32.9917 11.4999 33.0158 11.4939 33.031L11.4875 33.0472L11.4865 33.0498L11.4864 33.05L11.4864 33.0502L11.4863 33.0502L11.4863 33.0504L11.0269 34.2438L9.97926 33.5095L2.47168 28.2471Z" fill="#ED1C24" stroke="white" stroke-width="2"/>
<path d="M97.7522 28.3097C97.7522 28.3097 96.3939 36.5901 87.6457 36.5901H25.418C16.6713 36.5901 15.4396 28.2331 15.4396 28.2331C15.1032 26.015 15.5128 24.4964 16.1674 23.4463C22.4663 14.7697 34.9304 3.1164 56.4791 3.1164C78.2107 3.1164 90.7804 14.9376 97.0765 23.6157C97.8043 24.5833 98.0773 26.1622 97.7522 28.3097Z" fill="white"/>
<path d="M37.7146 19.8987L38.7511 17.621H25.4691L24.427 19.8987H29.573L24.2458 31.0105H27.6854L33.0097 19.8987H37.7146Z" fill="#ED1C24"/>
<path d="M85.4173 27.2736C84.4261 28.6841 83.0216 29.3993 82.2785 28.8664C81.5368 28.3322 81.7413 26.7578 82.7326 25.3473C83.7238 23.9369 85.1311 23.2202 85.8714 23.7531C86.6159 24.2888 86.4086 25.8631 85.4173 27.2736ZM73.7462 27.2194C72.7493 28.6328 71.3448 29.3451 70.6031 28.8123C69.8657 28.2794 70.0631 26.7051 71.0572 25.2918C72.0527 23.8813 73.4599 23.1675 74.1974 23.6989C74.9349 24.2318 74.7375 25.809 73.7462 27.2194ZM59.2422 26.1936C59.2422 26.1936 59.888 24.0038 61.9777 23.1276C61.9777 23.1276 62.5728 22.9239 62.8914 23.1875C62.8914 23.1875 63.3384 23.622 62.8068 24.427C62.3302 25.145 61.1852 26.4444 59.943 26.8818C59.943 26.8818 58.8163 27.379 59.2422 26.1936ZM38.8821 27.2194C37.8852 28.6328 36.4836 29.3451 35.7433 28.8123C35.0016 28.2794 35.2004 26.7051 36.1917 25.2918C37.1858 23.8813 38.5931 23.1675 39.3333 23.6989C40.0779 24.2318 39.8706 25.809 38.8821 27.2194ZM88.7395 28.9348C88.7395 28.9348 88.0669 29.2511 87.7778 28.9462C87.4887 28.6442 87.7468 28.0814 87.7468 28.0814L90.5641 22.0961H87.6918L87.2518 22.8954C85.5738 21.4037 82.4181 22.1745 80.4638 24.2389C79.3343 25.4286 78.6955 26.8405 78.6095 28.0686C78.2894 28.2823 77.755 28.6086 77.0669 28.8821C77.0669 28.8821 76.3929 29.2012 76.101 28.8935C75.8119 28.5915 76.0728 28.0258 76.0728 28.0258L81.0743 17.6253H78.2048L75.5779 22.8412C73.8999 21.3524 70.7469 22.1203 68.7884 24.1848C68.3921 24.6079 68.0593 25.051 67.783 25.5069L67.7858 25.4969C67.7675 25.534 67.7477 25.5739 67.728 25.6081C67.6645 25.7164 67.6039 25.8204 67.5517 25.9258C65.9908 28.6584 64.0491 29.1115 64.0491 29.1115C59.9458 30.351 59.4777 28.3208 59.4777 28.3208C64.0731 26.604 65.8004 24.5709 65.6411 23.0151C65.486 21.4578 63.3709 21.3766 63.3709 21.3766C59.895 21.1658 56.8859 23.622 56.1555 26.0255C55.9355 26.7578 55.8665 27.5101 56.0018 28.1954C54.6101 28.9448 53.8092 29.0645 53.8092 29.0645C52.6529 29.4335 52.5091 28.8793 52.3723 28.5416C52.2313 28.1954 51.7082 25.2049 51.7082 25.2049L56.5884 21.9793H53.6033L49.9371 24.2759C49.1108 24.6222 49.4309 23.7445 49.4309 23.7445L52.4245 17.621H49.5493L44.693 27.5628C44.1347 27.9019 43.0165 28.5573 42.2014 28.8821C42.2014 28.8821 41.5288 29.2012 41.2398 28.8935C40.9451 28.5915 41.2073 28.0258 41.2073 28.0258L44.0275 22.042H41.1538L40.7138 22.8412C39.0372 21.3524 35.8801 22.1203 33.9257 24.1848C31.9671 26.2506 31.468 28.9747 32.8075 30.2698C33.8778 31.3056 35.8039 31.1118 37.5327 29.9364C37.5327 29.9364 37.9684 29.5574 38.2053 30.0005C38.4492 30.4621 39.4391 31.505 41.7192 30.5961C42.451 30.3068 43.1067 29.9735 43.6693 29.66L43.0743 30.8767H45.9438L47.3835 27.9375L48.6342 27.1325C48.6342 27.1325 49.0177 26.8276 49.1686 27.4787C49.1686 27.4787 49.7904 29.9535 50.0302 30.2726C50.2727 30.5961 50.7521 31.3269 52.7713 30.7414C54.3182 30.2897 55.7593 29.7369 56.5221 29.4078C57.1976 30.351 58.4934 30.9879 60.6283 30.9879C63.7755 30.9879 66.002 29.4691 66.9412 28.6784C67.0088 29.3081 67.2486 29.8609 67.673 30.2698C68.7418 31.3056 70.6666 31.1118 72.3939 29.9364C72.3939 29.9364 72.831 29.5574 73.0708 30.0005C73.3161 30.4621 74.3017 31.505 76.5847 30.5961C77.6323 30.1786 78.3317 29.7797 78.7914 29.4691C78.9155 29.7968 79.0974 30.0832 79.3442 30.3254C80.4186 31.3569 82.3406 31.166 84.0679 29.9877C84.0679 29.9877 84.5064 29.6073 84.7462 30.0547C84.9873 30.5163 85.98 31.5606 88.2572 30.6488C90.5401 29.7412 91.193 28.9177 91.193 28.9177L90.6177 27.8919C90.5373 27.9375 89.8351 28.5003 88.7395 28.9348" fill="#ED1C24"/>
</svg>
