<svg width="307" height="54" viewBox="0 0 307 54" fill="none" xmlns="http://www.w3.org/2000/svg">
<rect x="301.344" y="9.44531" width="35.6191" height="294.611" transform="rotate(90 301.344 9.44531)" fill="white"/>
<rect x="301.344" y="9.44531" width="35.6191" height="294.611" transform="rotate(90 301.344 9.44531)" fill="white"/>
<rect x="301.344" y="9.44531" width="35.6191" height="294.611" transform="rotate(90 301.344 9.44531)" fill="white"/>
<path d="M32.0063 13.4141H11.0063V41.4141H32.0063V13.4141Z" fill="#8353E3"/>
<path d="M56.2695 13.4141H35.2695V41.4141H56.2695V13.4141Z" fill="#8353E3"/>
<path d="M80.3275 13.4141H59.3275V41.4141H80.3275V13.4141Z" fill="#8353E3"/>
<path d="M104.386 13.4141H83.3858V41.4141H104.386V13.4141Z" fill="#E6E5E8"/>
<path d="M128.444 13.4141H107.444V41.4141H128.444V13.4141Z" fill="#E6E5E8"/>
<path d="M152.502 13.4141H131.502V41.4141H152.502V13.4141Z" fill="#E6E5E8"/>
<path d="M176.561 13.4141H155.561V41.4141H176.561V13.4141Z" fill="#E6E5E8"/>
<path d="M200.618 13.4141H179.618V41.4141H200.618V13.4141Z" fill="#E6E5E8"/>
<path d="M224.677 13.4141H203.677V41.4141H224.677V13.4141Z" fill="#E6E5E8"/>
<path d="M248.735 13.4141H227.735V41.4141H248.735V13.4141Z" fill="#E6E5E8"/>
<path d="M272.793 13.4141H251.793V41.4141H272.793V13.4141Z" fill="#E6E5E8"/>
<path d="M296.852 13.4141H275.852V41.4141H296.852V13.4141Z" fill="#E6E5E8"/>
<path d="M301.344 45.0645H6.93945V50.0645H301.344V45.0645Z" fill="#06D0A0"/>
<path d="M6.93945 9.44531H1.93945V45.0645H6.93945V9.44531Z" fill="#06D0A0"/>
<path d="M306.344 9.44531H301.344V45.0645H306.344V9.44531Z" fill="#06D0A0"/>
<path d="M301.344 4.44531H6.93945V9.44531H301.344V4.44531Z" fill="#06D0A0"/>
</svg>
