<svg width="50" height="51" viewBox="0 0 50 51" fill="none" xmlns="http://www.w3.org/2000/svg">
<rect x="45.1848" y="14.672" width="23.0021" height="40.3692" transform="rotate(90 45.1848 14.672)" fill="white"/>
<rect x="45.1848" y="14.672" width="23.0021" height="40.3692" transform="rotate(90 45.1848 14.672)" fill="white"/>
<rect x="45.1848" y="14.672" width="23.0021" height="40.3692" transform="rotate(90 45.1848 14.672)" fill="white"/>
<rect x="41.0044" y="9.84113" width="32.6638" height="32.0084" transform="rotate(90 41.0044 9.84113)" fill="white"/>
<rect x="41.0044" y="9.84113" width="32.6638" height="32.0084" transform="rotate(90 41.0044 9.84113)" fill="white"/>
<rect x="41.0044" y="9.84113" width="32.6638" height="32.0084" transform="rotate(90 41.0044 9.84113)" fill="white"/>
<rect x="13.4934" y="5.99866" width="23.0138" height="40.3489" fill="white"/>
<rect x="13.4934" y="5.99866" width="23.0138" height="40.3489" fill="white"/>
<rect x="13.4934" y="5.99866" width="23.0138" height="40.3489" fill="white"/>
<path d="M36.507 45.8251H31.4844V50.8452H36.507V45.8251Z" fill="#06D0A0"/>
<path d="M32.0092 45.8251H26.9866V50.8452H32.0092V45.8251Z" fill="#06D0A0"/>
<path d="M27.5114 45.8251H22.4888V50.8452H27.5114V45.8251Z" fill="#06D0A0"/>
<path d="M23.0136 45.8251H17.991V50.8452H23.0136V45.8251Z" fill="#06D0A0"/>
<path d="M18.5158 45.8251H13.4932V50.8452H18.5158V45.8251Z" fill="#06D0A0"/>
<path d="M41.0048 41.3273H35.9822V46.3473H41.0048V41.3273Z" fill="#06D0A0"/>
<path d="M14.0182 41.3273H8.99561V46.3473H14.0182V41.3273Z" fill="#06D0A0"/>
<path d="M45.5021 36.829H40.4795V41.8491H45.5021V36.829Z" fill="#06D0A0"/>
<path d="M9.52041 36.829H4.4978V41.8491H9.52041V36.829Z" fill="#06D0A0"/>
<path d="M5.02261 32.3325H0V37.3525H5.02261V32.3325Z" fill="#06D0A0"/>
<path d="M5.02261 27.832H0V32.8521H5.02261V27.832Z" fill="#06D0A0"/>
<path d="M5.02261 23.3336H0V28.3536H5.02261V23.3336Z" fill="#06D0A0"/>
<path d="M5.02261 18.838H0V23.858H5.02261V18.838Z" fill="#06D0A0"/>
<path d="M49.9999 32.3325H44.9773V37.3525H49.9999V32.3325Z" fill="#06D0A0"/>
<path d="M49.9999 27.832H44.9773V32.8521H49.9999V27.832Z" fill="#06D0A0"/>
<path d="M49.9999 23.3336H44.9773V28.3536H49.9999V23.3336Z" fill="#06D0A0"/>
<path d="M49.9999 18.8381H44.9773V23.8581H49.9999V18.8381Z" fill="#06D0A0"/>
<path d="M49.9999 14.3386H44.9773V19.3587H49.9999V14.3386Z" fill="#06D0A0"/>
<path d="M5.02261 14.3389H0V19.3589H5.02261V14.3389Z" fill="#06D0A0"/>
<path d="M45.5021 9.84088H40.4795V14.861H45.5021V9.84088Z" fill="#06D0A0"/>
<path d="M9.52017 9.84088H4.49756V14.861H9.52017V9.84088Z" fill="#06D0A0"/>
<path d="M41.0048 5.34247H35.9822V10.3625H41.0048V5.34247Z" fill="#06D0A0"/>
<path d="M14.0182 5.34247H8.99561V10.3625H14.0182V5.34247Z" fill="#06D0A0"/>
<path d="M36.507 0.845215H31.4844V5.86529H36.507V0.845215Z" fill="#06D0A0"/>
<path d="M32.0092 0.845215H26.9866V5.86529H32.0092V0.845215Z" fill="#06D0A0"/>
<path d="M27.5114 0.845215H22.4888V5.86529H27.5114V0.845215Z" fill="#06D0A0"/>
<path d="M23.0136 0.845215H17.991V5.86529H23.0136V0.845215Z" fill="#06D0A0"/>
<path d="M18.5158 0.845215H13.4932V5.86529H18.5158V0.845215Z" fill="#06D0A0"/>
<path d="M25.6932 31.5963H27.7308V35.6708H25.6932V37.7084H19.5811V35.6708H17.5435V31.5963H19.5811V29.5587H23.6556V15.2969H25.6932V13.2593H31.8053V15.2969H33.8429V17.3345H31.8053V19.3714H25.6932V31.5963Z" fill="#503DA0"/>
</svg>
