<svg xmlns="http://www.w3.org/2000/svg" width="616" height="749" fill="none" viewBox="0 0 616 749"><path fill="#06D0A0" d="M19.06 729.162h578.395V18.727H19.061z"/><path fill="#fff" d="M56.003 690.311h504.51V57.579H56.003z"/><mask id="a" width="505" height="634" x="56" y="57" maskUnits="userSpaceOnUse" style="mask-type:alpha"><path fill="#fff" d="M56.003 690.31h504.51V57.579H56.003z"/></mask><g mask="url(#a)"><mask id="b" width="505" height="634" x="56" y="57" maskUnits="userSpaceOnUse" style="mask-type:alpha"><path fill="#fff" d="M56.003 690.31h504.51V57.579H56.003z"/></mask><g mask="url(#b)"><path fill="#403084" d="M554.639-109.934s30.319 800.928 15.999 812.721c-14.315 11.789-509.529 12.631-520.48 0-10.947-12.631 7.578-799.243 21.056-807.668 13.473-8.421 479.209-21.899 483.42-5.053z"/><path fill="#4F3AA7" d="M505.306 543.962h68.533c-.035-2.245-.064-4.501-.099-6.776-22.632-.025-45.26-.02-67.892 0a9524 9524 0 0 1 11.715-136.02c17.792 0 35.583-.001 53.375-.015q-.08-3.324-.167-6.663c-17.531-.01-35.057-.02-52.587-.02.778-8.268 1.561-16.536 2.358-24.804a9562 9562 0 0 1 12.07-117.391h34.229c-.069-2.236-.133-4.467-.202-6.698-11.099 0-22.194-.004-33.293-.004a9469 9469 0 0 1 19.451-164.228c2.866-.005 5.737-.015 8.603-.024q-.112-3.258-.217-6.486c-2.516-.005-5.033-.015-7.549-.02a8927 8927 0 0 1 5.988-45.781c-.473-13.715-.926-26.695-1.354-38.81a8883 8883 0 0 0-11.169 84.587c-53.158-.094-106.317-.074-159.48-.07-19.402 0-38.809.015-58.211.02.507-15.89 1.029-31.777 1.581-47.668 1.669-48.12 3.536-96.236 5.56-144.347q-3.266.053-6.53.113c-2.778 63.953-5.122 127.925-7.101 191.907-57.438.015-114.876.025-172.313.06h-3.546c-.093-2.965-.192-5.93-.285-8.894-1.906-58.999-3.782-117.998-5.796-176.991q-3.305.17-6.491.339c1.916 61.85 3.94 123.7 5.993 185.55-27.325.01-54.65 0-81.98.094a2294 2294 0 0 0-.247 6.342c27.483.128 54.966.168 82.444.168 1.443 43.502 2.895 87.003 4.323 130.51.37 11.277.749 22.559 1.118 33.835-31.087.035-62.175.074-93.262.232q-.082 2.925-.158 5.85c31.21.182 62.421.276 93.632.315 1.566 47.495 3.142 94.991 4.718 142.482-33.905.044-67.809.132-101.708.32q-.059 2.843-.108 5.672c34.007.193 68.02.291 102.032.34q2.26 68.147 4.511 136.302c-36.189-.06-72.403-.252-108.582.231q-.032 3.093-.054 6.151c36.277.472 72.585.221 108.858.221 1.236 37.268 2.526 74.535 3.811 111.808-37.509-.079-75.126-.744-112.615.315q.05 3.05.108 5.924c35.726.98 71.571.271 107.292.3h5.437c.556 16.088 1.103 32.171 1.654 48.259q2.785.065 5.614.123c-.507-16.127-1.01-32.254-1.517-48.377 35.234.03 70.468.059 105.702.059h43.477c.118 16.536.305 33.072.546 49.608q2.46-.001 4.92-.01c.064-16.531.118-33.067.167-49.598 56.665 0 113.33.01 169.994.01a2843 2843 0 0 0-2.447 47.087c1.866-.059 3.723-.123 5.54-.187a6038 6038 0 0 0 3.353-46.9h8.234c22.942 0 45.885.094 68.832.128.05-2.275.094-4.629.133-7.071-25.572-.035-51.149 0-76.721.069 2.506-37.017 4.865-74.053 7.751-111.04.01-.152.024-.31.039-.463zm-176.1-462.54c54.213.005 108.425 0 162.637 0 18.141 0 36.283-.03 54.424-.064a10126 10126 0 0 0-11.08 90.992 9383 9383 0 0 0-8.282 73.225c-43.143.005-86.28.035-129.422.04-24.218 0-48.436.015-72.65.024a17428 17428 0 0 1 4.368-164.227zm-4.515 170.821c59.057.01 118.115.025 177.173.035h24.312a9355 9355 0 0 0-14.31 142.195c-40.868 0-81.735.015-122.607.02-22.357 0-44.708.02-67.065.03.089-6.895.167-13.789.266-20.683q.904-60.805 2.221-121.597zM168.899 655.72h-3.309c-1.168-37.272-2.335-74.54-3.507-111.812q59.049.016 118.096.025h34.678c-.133 37.238-.173 74.48.059 111.723-48.673.005-97.345.02-146.022.059zm146.022-128.919c-.015 3.496-.025 6.987-.04 10.484l-142.23.034c-3.595 0-7.19 0-10.779-.01-1.428-45.432-2.856-90.864-4.314-136.296 35.125.049 70.256.064 105.381.103 17.664.02 35.328.02 52.991.025-.492 41.887-.837 83.773-1.014 125.66zm1.088-132.274c-50.534.025-101.063.064-151.596.124q-3.525.001-7.057.009c-1.522-47.49-3.058-94.976-4.59-142.466 37.239.044 74.481.029 111.719.039q26.925.001 53.848.01c-.975 47.427-1.748 94.853-2.324 142.289zm3.954-214.524c-.546 21.879-1.034 43.762-1.492 65.646-52.789.02-105.578.05-158.367.118-2.517 0-5.028.005-7.544.01-1.763-54.778-3.521-109.562-5.294-164.34 35.854-.005 71.704-.06 107.553-.04 22.627.015 45.255.015 67.882.015-1.004 32.86-1.92 65.721-2.738 98.586zm171.048 475.476c-29.448.079-58.891.172-88.333.172-27.355 0-54.705.005-82.06.01.109-37.243.212-74.481.374-111.724q89.082.021 178.164.02c-2.935 37.135-5.84 74.319-8.15 111.522zm8.686-118.283c-26.69.025-53.38.059-80.07.069l-98.595.025c.212-45.378.522-90.756 1.088-136.139 55.227.024 110.454.019 165.68.024h23.46a9277 9277 0 0 0-10.455 122.056c-.369 4.653-.733 9.311-1.103 13.97z"/><path fill="#A99ABD" d="M429.799 241.595c87.826-87.825 87.826-230.218 0-318.043s-230.218-87.826-318.043 0-87.825 230.218 0 318.043 230.218 87.825 318.043 0"/><path fill="#5B5089" d="M270.778 283.281c110.848 0 200.708-89.859 200.708-200.707 0-110.847-89.86-200.707-200.708-200.707-110.847 0-200.707 89.86-200.707 200.707 0 110.848 89.86 200.707 200.707 200.707"/><path fill="#776AAC" d="M270.779 272c104.616 0 189.425-84.809 189.425-189.426S375.395-106.85 270.779-106.85 81.353-22.042 81.353 82.574 166.162 272 270.78 272"/><path fill="#5B5089" d="M279.685 113.575c17.115-4.921 27.001-22.784 22.08-39.9-4.92-17.114-22.784-27-39.899-22.08s-27 22.785-22.08 39.9 22.784 27 39.899 22.08"/><path fill="#CCBCE1" d="M432.032 124.189c23.294-23.294 23.294-61.062 0-84.356s-61.062-23.294-84.356 0-23.294 61.062 0 84.356 61.062 23.294 84.356 0M309.08 254.277c33.389 0 60.457-27.068 60.457-60.457s-27.068-60.456-60.457-60.456-60.456 27.067-60.456 60.456 27.067 60.457 60.456 60.457M217.816 57.566c23.923-23.924 23.923-62.71 0-86.634-23.923-23.923-62.71-23.923-86.633 0s-23.923 62.71 0 86.634c23.923 23.923 62.71 23.923 86.633 0m-.057 138.237c23.294-23.294 23.294-61.062 0-84.356-23.295-23.294-61.062-23.294-84.357 0-23.294 23.294-23.294 61.062 0 84.356 23.295 23.294 61.062 23.294 84.357 0"/><path fill="#65DFD5" d="M348.199 372.461s-4.279 5.983-24.69 2.719c-20.417-3.265-21.229-12.247-26.129-14.7-4.9-2.447-33.481-22.863-21.229-64.509 12.247-41.645 63.692-54.709 78.391-54.709s24.499 12.246 28.581 13.064 28.581-1.635 40.01 12.247c11.435 13.882 10.012 26.409 7.456 31.575-2.556 5.17-82.385 74.308-82.385 74.308z"/><path fill="#FDA77E" d="M350.047 373.141s-13.065 1.635-31.846-10.617c-18.782-12.247-32.664-31.029-25.311-53.075 7.347-22.046 26.946-32.663 42.462-37.563s35.928-4.9 35.928-4.9-3.264-8.164 6.535-9.799c9.8-1.635 29.138 14.763 27.631 22.489-1.502 7.727-.685 15.891-.685 15.891l-54.709 77.574z"/><path fill="#AC5649" d="M334.347 327.672a.897.897 0 0 1 .085-1.791c.028-.005 8.936.344 12.881 6.093 3.161 4.674 6.604 8.627 7.403 9.527 1.221.332 6.85 1.695 10.001-1.121 3.653-3.274 4.05-7.663 4.047-7.695a.927.927 0 0 1 .997-.787.91.91 0 0 1 .773 1.018c.017.012-.433 5.064-4.618 8.801-4.312 3.839-11.941 1.447-11.958 1.436l-.412-.259c-.017-.012-4.008-4.453-7.728-9.912-3.412-5.006-11.436-5.311-11.468-5.308z"/><path fill="#824B36" d="M343.25 287.663c.634-.274.935-1.002.648-1.612a1.24 1.24 0 0 0-1.596-.678c-.038.011-10.306 4.314-10.631 20.511-.026.675.531 1.228 1.206 1.254a1.243 1.243 0 0 0 1.254-1.206c.278-14.6 9.089-18.286 9.114-18.272zm-17.077 48.709c.551-.344.624-.975.221-1.457-.414-.455-1.187-.587-1.732-.272-.004.024-10.695 6.426-5.757 21.138.176.573.855.92 1.521.803.632-.123 1.039-.698.825-1.253-4.468-13.344 4.891-18.941 4.922-18.959"/><path fill="#7E3E35" d="m328.161 352.382 8.004 2.861s2.245.625 3.167-1.176c.929-1.822 1.054-3.247-.448-4.39-1.513-1.111-9.652-3.637-9.652-3.637s-2.181-.443-3.049 1.786c-.869 2.228-.075 3.764 1.985 4.553zm15.718-49.03 8.004 2.861s2.255.593 3.175-1.203c.92-1.795 1.054-3.247-.458-4.358-1.504-1.137-9.643-3.663-9.643-3.663s-2.181-.443-3.05 1.785c-.877 2.256-.079 3.763 1.977 4.58z"/><path fill="#8BC3FF" d="M351.676 378.036s16.329 3.265 22.864 8.164c6.535 4.9 18.781 2.448 30.211-3.265 11.434-5.717 16.221-9.888 18.727-13.517s11.489-48.539 8.219-64.056c-3.265-15.517-6.535-21.229-8.982-22.046s-14.699-3.265-22.864-4.083c-8.164-.817-13.064-4.899-16.329-4.082s-13.882 14.699-17.147 23.681-18.781 19.599-19.599 26.946c-.817 7.348-.817 21.229-1.634 28.581-.818 7.348 2.447 20.417 6.534 23.682z"/><path fill="#619BCD" d="M383.522 275.151a2.8 2.8 0 0 0-.606.256c-1.472-4.053-7.012-6.584-9.932-9.233-1.128-1.025-3.265.369-2.241 1.728 1.428 1.886 3.078 3.447 4.826 5.033.837.758 1.669 1.546 2.418 2.398.724.822 1.192 1.822 1.915 2.625-4.515 4.678-11.084 14.152-13.532 20.879-3.265 8.982-18.781 19.599-19.599 26.946-.817 7.347-.817 21.229-1.635 28.581-.817 7.347 2.448 20.417 6.535 23.681 0 0 1.566.316 3.92.892-1.428-2.999-4.984-11.39-4.329-19.264.818-9.8 3.265-19.599 3.265-26.947s.818-8.164 4.082-11.434c3.265-3.27 10.617-12.247 13.882-21.229 2.98-8.199 11.4-19.791 15.33-24.237-1.704-.611-3.117-.966-4.309-.67z"/><path fill="#619BCD" d="M399.305 285.63c-6.185 4.427-11.42 11.296-15.862 17.413-4.648 6.391-8.46 13.438-10.774 21.017-2.403 7.864-2.502 15.679-2.093 23.824.458 9.125-.173 18.2 1.398 27.226.197 1.128 2.103.877 2.01-.27-.655-8.421.433-16.93.172-25.366-.251-8.125-.355-15.856 2.073-23.71 2.236-7.225 5.929-13.936 10.361-20.038 4.594-6.323 10.641-11.311 15.354-17.447 1.172-1.526-1.123-3.732-2.644-2.644zm13.325 9.76c-.089-1.113-1.788-1.147-1.763 0 .325 15.172-1.005 31.102-4.274 45.915-3.058 13.857-8.323 26.419-15.32 38.715-1.344 2.359 1.369 2.659 2.866.463 7.977-11.69 13.724-24.272 16.546-38.05 3.235-15.768 3.196-31.093 1.94-47.048z" opacity="0.5"/><path fill="#619BCD" d="M431.702 305.362c-3.265-15.517-6.535-21.229-8.982-22.046-.084-.03-.187-.059-.296-.094 1.66 5.215 4.25 21.869 3.566 49.903-.71 29.172-12.119 43.522-20.476 49.426 10.878-5.515 15.527-9.587 17.974-13.133 2.506-3.629 11.489-48.539 8.219-64.056z"/><path fill="#4A3333" d="M304.299 351.144a39.5 39.5 0 0 1-1.148-10.056c.069-4.171.704-8.706-1.575-12.197-1.222-1.867-3.147-3.177-4.423-5.004-2.068-2.969-2.151-6.864-1.851-10.469a63 63 0 0 1 1-7.096c.374-1.886 1.344-4.038.615-5.939a51 51 0 0 0-4.028 9.061c-5.353 16.054.556 30.369 11.415 41.695z"/><path fill="#338C81" d="M368.773 261.791c-3.028-.226-6.032-.197-9.012.015 2.123-4.132 2.305-9.021.995-13.542-.364-1.251-2.295-.729-1.955.542 1.285 4.831.079 9.258-2.403 13.32a88 88 0 0 0-8.366 1.423c.758-3.915-.906-7.913-3.132-11.055-.527-.744-1.744-.074-1.246.729 2.088 3.353 2.053 6.781 1.97 10.568q0 .163.039.305c-5.801 1.408-11.518 3.27-17.171 5.195-11.814 4.023-23.681 8.603-31.945 18.407a61.2 61.2 0 0 0-8.396 13.035c-.787-.34-1.506-.739-2.127-1.403-.822-.887-2.132.433-1.325 1.324.719.798 1.581 1.561 2.561 2.049-2.437 5.658-3.959 11.69-4.166 17.698-.266 7.84 2.241 15.157 6.205 21.707-2.438-.301-4.358-1.305-6.313-2.768-.704-.527-1.714.512-1.212 1.211 1.739 2.428 4.718 3.827 7.668 3.91.512.015.837-.221.999-.551 2.103 3.186 4.541 6.18 7.145 8.938 8.85 9.376 20.949 17.259 33.791 19.539 1.187.212 1.616-1.364.498-1.797-13.355-5.136-25.331-11.74-34.648-22.869-4.851-5.796-9.012-12.586-10.43-20.101-1.507-7.992.306-16.25 3.511-23.597 2.989-6.855 7.165-13.38 12.759-18.398 5.653-5.077 12.676-8.273 19.727-10.893 10.942-4.057 22.416-8.13 34.121-9.43a1 1 0 0 0 .143-.014c3.885-.424 7.795-.542 11.725-.252 2.078.153 2.068-3.087 0-3.24z" opacity="0.5"/><path fill="#8645D5" d="M564.467 175q0 .009-.009.01c-24.774 2.596-77.867 10.442-93.194 30.88-20.215 26.951-12.104 33.436-30.054 73.565s-19.215 111.295-22.583 131.51-12.631 39.582-5.052 74.112c7.578 34.529 21.056 65.69 31.161 74.111s10.947 1.684 14.315 9.263 0 12.631 5.895 16.004c5.894 3.368 5.894 0 9.262 5.052 3.303 4.954-.431 10.574-6.178 12.127-4.22 1.141-8.824 2.189-11.51 2.189-5.899 0-13.473-8.421-20.214-8.421-6.742 0-12.282 7.002-12.878 13.606-.575 6.376 5.295 80.005 5.701 85.074.015.196.026.368.046.564.096.942.545 4.1 2.484 8.196 2.559 5.406 8.632 7.823 14.612 7.695 68.698-1.469 119.906-4.081 124.371-7.759 8.564-7.052 1.162-296.348-6.175-527.778"/><path fill="#4B33AE" d="M572.224 617.783c-6.244-4.319-13.286-7.337-20.742-8.795-5.648-1.103-13.571-2.423-19.372-.428-5.294-3.324-11.168-5.806-17.565-4.762-3.797.62-8.239 3.358-11.627.601-2.486-2.024-4.279-4.462-7.15-6.102-5.023-2.875-12.626-4.89-18.057-2.166-2.123 1.063-1.832 5.062.709 5.412 3.171.438 6.268-.109 9.43.718 3.457.907 6.416 2.66 8.923 5.201 4.279 4.328 8.036 5.564 14.039 3.959 3.738-1 6.732-2.177 10.681-1.241 3.506.827 6.712 2.625 9.77 4.471 7.022 4.24 13.788 8.839 20.899 12.932 1.723.989 3.871-1.542 2.201-2.852a381 381 0 0 0-14.325-10.73h.079a51.8 51.8 0 0 1 10.459.916c6.761 1.305 13.109 3.856 19.013 7.372 2.92 1.738 5.353-2.615 2.63-4.501zm-1.404-26.296c-5.274-4.545-11.272-8.283-15.049-14.32-3.412-5.451-2.678-12.38-6.874-17.388-1.856-2.221-4.264-3.895-6.948-4.969-3.309-1.319-6.924-1.383-9.608-3.983-4.707-4.555-6.569-12.587-8.755-18.541-10.056-27.409-17.811-56.61-35.904-80.124-1.959-2.546-6.357-.172-4.431 2.59 17.683 25.341 24.917 55.449 35.617 83.99 2.167 5.781 4.221 12.375 8.721 16.832 4.743 4.693 12.947 3.604 16.704 9.193 2.048 3.049 1.886 7.151 3.122 10.544 1.064 2.905 2.61 5.534 4.496 7.977 4.018 5.205 9.415 9.795 14.999 13.261 3.054 1.896 6.717-2.639 3.905-5.062zM560.4 232.078c1.049-2.123-.631-5.437-3.595-4.59-4.294 1.226-8.972 4.984-13.572 4.058-1.354-.271-2.417.33-3.018 1.231-6.584-1.236-13.129-3.91-19.269-5.796-11.799-3.614-24.435-5.702-36.795-5.111-2.915.137-2.876 4.279 0 4.5 14.202 1.094 27.507 3.699 40.897 8.613 11.38 4.176 23.366 7.564 34.992 2.305 2.497-1.133 2.029-3.822.365-5.215zm1.842 36.282c-9.632 7.367-20.49 12.912-30.147 20.264a166.6 166.6 0 0 0-24.784 23.203c-7.288 8.382-13.842 17.438-19.422 27.04-2.964 5.102-5.791 10.351-8.145 15.763-2.087 4.801-3.323 9.878-.783 14.724.518.99 2.059 1.443 2.999.788 7.215-5.048 13.203-10.405 18.25-17.698 1.32-1.906-1.773-3.669-3.092-1.808-3.851 5.432-8.933 10.548-14.67 14.158-.246-5.038 2.851-9.908 5.19-14.271a187 187 0 0 1 7.963-13.434c5.791-8.908 12.301-17.299 19.609-25.015 7.268-7.672 15.26-14.685 23.922-20.747 8.859-6.204 18.634-11.006 27.025-17.88 2.812-2.305-1-7.322-3.925-5.082zm14.389 32.018c-32.984 36.106-57.847 80.893-70.744 128.044-.463 1.689 2.064 2.358 2.61.719 15.433-46.447 39.326-88.526 71.512-125.384 2.009-2.3-1.29-5.664-3.378-3.379" opacity="0.4"/><path fill="#8BC3FF" d="M553.501 243.162s-3.915-13.69-14.867-19.584c-10.946-5.894-18.53-5.052-18.53-5.052s-12.631 5.052-16.846-8.421c-4.21-13.473 7.578-18.53 15.157-18.53s16.846 5.894 16.846 5.894l22.194-24.957s-2.826-6.204 2.231-11.257c5.053-5.052 12.631 0 15.157 1.684 0 0 0-8.42 7.579-8.42s23.583 18.53 25.267 27.793-6.88 10.671-6.88 10.671 5.196 9.538.98 16.28c-4.21 6.736-5.052 7.579-5.894 13.473s1.684 14.315-2.526 21.057c-4.211 6.736-10.947 11.788-10.947 11.788l-28.931-12.419z"/><path fill="#619BCD" d="M527.914 200.251c-.685-1.044-2.664-.398-2.147.907.881 2.211.734 5.037-.123 7.243-.655 1.684-2.645 4.998-4.545 5.634-2.832.945-1.635 4.806 1.206 4.377 3.24-.487 6.062-4.855 7.165-7.657 1.517-3.861.63-7.165-1.556-10.499z"/><path fill="#C8DCEE" d="M414.836 296.006s31.161-24.425 58.955-34.53 65.691-16.846 65.691-16.846 3.368 15.157 21.898 21.898c18.53 6.737 25.267-10.104 24.425-16.004-.842-5.894-9.263-18.53-21.899-15.999s-16.846 4.21-16.846 4.21.842-11.789-1.684-12.631-6.737 0-6.737 2.527c0 2.526 1.685 10.104 1.685 10.104s-49.692 8.421-60.639 13.473c0 0 53.902-41.266 55.586-41.266s2.526 5.053 4.211 5.895c1.684.842 5.052-.842 5.894-2.527.842-1.684-4.21-12.63-4.21-12.63s21.056-9.263 19.372-22.741-9.263-18.531-20.214-12.631c-10.947 5.894-13.473 10.947-13.473 17.688 0 6.742 4.633 9.686 5.475 13.897.842 4.21 0 3.368-3.368 7.578s-52.218 41.266-56.428 42.951c-4.21 1.684-26.109 9.262-46.319 20.214-20.214 10.947-20.214 11.789-20.214 12.631s1.684 2.526 1.684 2.526 26.109-15.157 35.372-18.53c9.262-3.368 8.42-4.21 9.262-3.368l2.527 2.526s-29.478 12.631-41.267 29.477c0 0-.842 1.684 1.266 2.108z"/><path fill="#8BC3FF" d="M568.959 264.844c5.742-1.59 12.631-5.052 11.789-12.631-.842-7.578-7.579-14.315-21.057-11.789-13.473 2.527-19.372 14.315-18.53 24.425.842 10.105 6.736 12.631 12.631 10.947 5.894-1.684 9.533-9.391 15.157-10.947z"/><path fill="#93AABC" d="M459.313 266.932c-.547-1.191-1.847-2.206-2.792-3.097a26 26 0 0 0-3.236-2.585c-1.206-.823-2.526.984-1.531 1.984.941.946 1.891 1.876 2.817 2.837.901.93 1.689 2.122 2.777 2.826 1.31.852 2.511-.768 1.965-1.965m19.343-15.083c-.167-1.088-1.182-2.098-1.901-2.876-.773-.827-1.777-2.068-3.023-1.733-.498.133-.867.62-.867 1.137.005 1.177 1.231 1.753 1.999 2.487.729.699 1.335 1.694 2.226 2.191.882.493 1.699-.315 1.566-1.201z"/><path fill="#8BC3FF" d="M572.745 184.415s-15.999-16.846-26.951-15.157c-10.947 1.684-15.157 10.104-10.947 17.688 4.211 7.578 34.53 23.583 42.109 22.741 7.578-.842 12.631-12.631-4.211-25.267z"/><path fill="#619BCD" d="M599.258 192.589c-1.891-.246-4.294-1.768-5.422-3.27-1.034-1.369-4.053-1.226-3.772 1.02.32 2.526-.551 4.422-2.753 5.382a16 16 0 0 0-1.098-2.275c-.01-.02-.024-.034-.039-.054-1.674-3.925-5.23-6.86-8.44-9.593-4.708-4.013-9.652-7.682-14.936-10.902-1.63-.995-3.664 1.477-2.093 2.713 4.077 3.201 8.14 6.451 12.02 9.893 3.684 3.27 8.096 6.599 9.657 11.449.113.35.276.635.468.872 1.098 3.964.172 7.8-4.486 9.179-3.639 1.073-7.687.29-11.173-.97-6.181-2.231-11.4-6.461-17.531-8.825-1.822-.704-2.975 2.192-1.315 3.122 8.755 4.905 17.89 12.932 28.615 11.73 7.131-.803 11.425-5.865 11.282-11.843 2.97-.852 5.082-3.181 5.811-5.978 1.536.684 3.215.931 5.21.817 1.625-.093 1.541-2.265 0-2.467z"/><path fill="#4B33AE" d="M476.893 679.559c-1.482-9.208-6.702-16.354-12.104-23.681-5.555-7.539-8.844-15.118-11.321-24.12-2.118-7.686-4.334-14.999-9.524-21.1-1.064-1.552-2.255-3.014-3.644-4.354-1.271-1.231-3.698.439-2.556 1.975 3.432 4.609 5.762 9.652 7.47 15.123.522 1.664.971 3.403 1.424 5.161-7.072 3.092-30.96 40.537-30.96 40.537l.842 14.315s-2.526 5.052 4.21 10.947c6.299 5.51 44.231 2.925 51.224.502-.601 2.364-1.542 4.575-2.92 6.485-1.896 2.635 2.467 5.151 4.348 2.541 4.983-6.923 4.811-16.25 3.511-24.336z" opacity="0.4"/><path fill="#93AABC" d="M421.995 469.077s4.634-45.9 3.792-46.742-4.634 2.108-4.634 2.108l-5.481 48.126 6.323-.966z"/><path fill="#619BCD" d="M413.993 603.409s10.346-2.054 19.068 6.973c8.725 9.026-5.595 14.079-5.595 14.079l-10.946-2.527-2.527-18.53z"/><path fill="#8BC3FF" d="M359.969 603.497c-.3-.512-1.985-13.143 8.967-19.884 10.947-6.737 24.858.837 36.012 10.105 11.154 9.267 11.996 10.951 10.312 17.688s12.631 10.105 12.631 10.105l9.08-8.726s6.082 2.831 10.292 15.467c4.21 12.631 3.368 26.109-.842 31.161-4.21 5.053-3.368 1.685-5.052 7.579s-7.579 15.157-16.847 18.53c-9.262 3.369-22.74-2.526-30.319-2.526-7.578 0-29.477.842-38.74-5.894-9.262-6.737-7.578-16.004-6.736-18.531s-8.421-4.21-8.421-14.315 9.263-16.004 9.263-16.004l10.405-24.755z"/><path fill="#619BCD" d="M366.641 605.029s10.715-.36 20.825 3.851c10.105 4.21 15.157 10.105 21.898 7.578 6.737-2.526 10.947 6.737 10.947 6.737l-3.368 10.105-31.161-3.369-19.141-24.907z"/><path fill="#C8DCEE" d="M365.986 632.886s-7.579 6.737-16.004-1.684c-8.421-8.421-5.053-20.215 0-25.267 5.052-5.052 14.63-3.048 19.106-.261s12.055 2.787 13.739-2.265 17.689-70.743 21.057-85.906c3.368-15.157 10.947-45.476 11.789-46.318s7.578-2.526 7.578-3.368 7.579-44.635 7.579-44.635 5.052-.842 5.052 0-11.789 69.902-12.631 75.796-12.631 91.8-12.631 100.221c0 8.42 5.053 12.631 6.737 10.946 1.684-1.684 13.473-6.736 21.898 5.895 8.426 12.631-4.131 23.799-12.173 24.952-8.041 1.152-17.727-11.898-19.411-16.113-1.685-4.21 0-12.631-.842-15.157-.843-2.526-2.527-12.631-1.685-16.846.842-4.211 11.789-89.274 10.947-90.116s-22.74 87.59-22.74 87.59-3.369 17.688-8.421 23.582-18.949 18.949-18.949 18.949z"/><path fill="#8BC3FF" d="M420.73 611.829s-12.631 3.369-17.688 16.005-.842 19.372 4.21 22.74c5.053 3.369 13.473 4.211 16.847-3.368 3.368-7.579 5.894-9.263 8.42-10.947s6.737-11.789 2.526-18.53c-4.21-6.737-14.315-5.895-14.315-5.895z"/><path fill="#8BC3FF" d="M356.723 631.202s-8.421-4.21-5.894-15.157 14.315-11.789 19.372-10.105c5.052 1.684 25.267 10.105 30.319 17.688 5.053 7.579-5.052 16.004-9.262 16.846-4.211.843-30.32-9.262-34.53-9.262z"/><path fill="#619BCD" d="M425.497 641.78c-2.034 3.826-3.895 9.016-8.884 9.622-4.146.502-9.041-1.842-11.474-5.117-5.677-7.652-1.954-16.964 1.463-24.543.522-1.152-.684-2.954-1.984-1.984a15 15 0 0 0-1.808 1.6c-1.098-1.871-2.846-3.314-4.683-4.732-2.753-2.132-6.081-4.26-9.627-4.516-.995-.074-1.428 1.251-.788 1.906 1.916 1.955 4.393 3.304 6.51 5.043 1.871 1.536 4.762 3.545 5.141 6.081.045.305.153.566.306.788a21 21 0 0 0-1.364 3.688 2.3 2.3 0 0 0-1.177 1.33c-2.167 6.313-6.86 7.963-13.198 6.278-5.412-1.437-10.636-3.422-16.097-4.712-1.601-.379-2.793 2.009-1.172 2.777 3.895 1.847 7.883 3.428 11.912 4.954 3.181 1.212 6.539 2.467 9.981 2.58.557 1.074 1.093 1.926.557 3.137-.478 1.069-1.468 1.99-2.325 2.753-1.841 1.645-4.023 2.792-6.362 3.56a2.4 2.4 0 0 0-.586.291c-8.524-.842-17.841.635-24.09 2.226-3.122.793-1.802 5.525 1.33 4.816 10.242-2.325 26.202-4.802 34.854 2.93 1.217 1.083 2.448 3.225 2.054 4.963-.291 1.271-2.27 2.586-3.329 3.172-2.369 1.319-5.24 1.61-7.879 1.989-5.899.847-11.671 1.837-17.462 3.181-1.384.32-1.073 2.472.335 2.463 8.022-.064 17.482.329 25.159-2.443 4.949-1.788 10.671-7.165 7.785-12.902-2.295-4.565-6.387-7.337-11.272-8.908 4.708-2.546 8.47-7.066 6.382-12.07a13 13 0 0 0 3.945-2.368c.62 4.604 2.506 8.928 5.667 11.868 3.723 3.461 10.15 5.712 15.236 4.55 5.984-1.364 9.219-7.141 11.125-12.484.866-2.437-2.965-4.023-4.166-1.758z"/><path fill="#93AABC" d="M422.104 497.929a16 16 0 0 1-2.482 2.108c-.901.615-1.901 1.044-2.807 1.639-1.31.862-.517 3.206 1.123 2.66 2.339-.783 4.417-2.753 5.944-4.629.999-1.227-.621-2.96-1.778-1.778"/><path fill="#fff" d="M414.92 429.441c-3.817-1.837-5.028-6.904-4.053-11.021.975-4.121 3.565-7.632 5.633-11.326.828-1.482 1.606-3.127 1.379-4.811-.29-2.152-2.112-3.762-2.9-5.781-.828-2.117-.458-4.535.344-6.663.803-2.127 2.01-4.082 2.906-6.17.31-.724.586-1.502.448-2.275-.158-.886-.817-1.586-1.477-2.191-1.522-1.399-3.216-2.615-4.61-4.142-1.393-1.526-2.486-3.462-2.462-5.53.03-2.373 1.507-4.471 3.083-6.244a38.4 38.4 0 0 1 6.416-5.742c3.265-2.314 7.013-4.136 11.001-4.387 2.768-.173 5.54.418 8.155 1.344 3.969 1.399 7.712 3.615 10.489 6.776s4.53 7.318 4.373 11.523c-.251 6.613-4.974 12.262-6.165 18.772-.897 4.895.26 9.898.768 14.852.507 4.953.192 10.415-3.053 14.187-1.596 1.856-3.758 3.127-5.924 4.264-4.147 2.182-8.288 3.669-12.971 4.028-3.802.291-7.643 2.344-11.39.542z"/><path fill="#F2F2F2" d="M446.8 373.299c-4.014 11.271-12.562 17.732-23.598 21.233-2.378.754-1.354 4.014 1.01 3.654 12.035-1.812 22.026-12.887 24.759-24.292.34-1.423-1.689-1.955-2.171-.595m-6.126 20.736c-1.497 4.097-2.709 7.628-6.013 10.71-3.368 3.142-7.618 5.279-11.971 6.683-1.335.433-.788 2.477.581 2.112 8.815-2.354 20.382-8.484 20.677-19.062.055-1.975-2.659-2.132-3.274-.443"/><path fill="#FDA77E" d="M191.654 520.03s5.894-13.473 16.846-16.847c10.947-3.368 26.951-2.526 26.951-2.526s-12.631-62.323-12.631-61.48c0 .842-19.372 8.42-26.109-4.211-6.736-12.631-28.635 5.895-28.635 5.895l23.583 79.169z"/><path fill="#DB815D" d="m228.276 500.593 3.841-16.319c-2.255-11.1-5.175-25.41-7.135-34.904l-3.684-9.317c-1.467.611-3.875 1.369-6.677 1.802-1.921 3.251-7.672 14.143-6.968 26.799.689 12.424 13.818 27.103 18.535 31.998a83 83 0 0 1 2.088-.059"/><path fill="#65DFD5" d="M272.502 410.546s24.425-5.894 32.845-5.052c8.421.842 8.421 2.526 11.789.842s12.631-5.052 18.531-4.21c5.894.842 33.687 21.898 39.582 38.74 5.894 16.846.842 38.74-10.105 55.586s-32.846 11.789-41.266 15.157-31.162 7.579-39.582 5.895-11.789-106.958-11.789-106.958z"/><path fill="#4C9B8F" d="M330.196 494.344c5.052-8.42 21.056-40.424-.842-66.533-15.502-18.486-34.555-20.406-44.364-19.958-6.815 1.325-12.488 2.694-12.488 2.694s3.368 105.272 11.789 106.957c2.093.418 5.077.472 8.499.266 20.151-3.659 32.54-15.33 37.401-23.426z"/><path fill="#FDA77E" d="M271.66 413.915s5.052-3.369 3.368-9.263-29.477-1.684-32.845 4.21c-3.369 5.895 2.526 14.315 2.526 14.315l10.947 89.274s-5.895 5.053-2.527 11.789c3.369 6.737 23.583 4.21 31.162.842 7.578-3.368 1.684-10.947 1.684-10.947s13.473-.842 19.372-3.368c5.895-2.526 30.32-26.951 26.109-58.954s-36.214-41.267-44.634-41.267-14.315 2.527-15.157 3.369z"/><path fill="#AC5649" d="M304.109 462.399a.82.82 0 0 0 .142-1.634c-.025-.008-8.142-.783-12.423 3.944-3.438 3.849-7.043 7.011-7.878 7.729-1.147.152-6.417.697-8.928-2.241-2.909-3.416-2.731-7.443-2.725-7.472a.847.847 0 0 0-.807-.835.83.83 0 0 0-.826.827c-.017.009-.228 4.644 3.108 8.544 3.438 4.008 10.647 2.775 10.663 2.767l.405-.184c.017-.009 4.179-3.545 8.22-8.038 3.706-4.119 11.017-3.412 11.045-3.406z"/><path fill="#824B36" d="M300.941 425.041c-.541-.325-.724-1.023-.389-1.54a1.13 1.13 0 0 1 1.529-.419c.034.015 8.813 5.173 7.123 19.895-.059.615-.632 1.048-1.247.989a1.137 1.137 0 0 1-.988-1.247c1.537-13.268-5.999-17.689-6.023-17.68zm9.51 46.245c-.457-.379-.446-.96-.021-1.347.431-.362 1.147-.387 1.603-.034.001.021 8.907 7.135 2.628 19.865-.23.498-.887.729-1.477.542-.558-.189-.856-.76-.595-1.237 5.686-11.548-2.111-17.768-2.138-17.789"/><path fill="#7E3E35" d="m306.687 485.555-7.605 1.613s-2.112.291-2.727-1.454c-.619-1.766-.557-3.073.944-3.925 1.507-.821 9.195-2.114 9.195-2.114s2.031-.134 2.545 1.993c.514 2.126-.394 3.421-2.358 3.883zm-8.238-46.369-7.606 1.612s-2.117.261-2.731-1.479-.558-3.073.95-3.894c1.502-.847 9.189-2.139 9.189-2.139s2.032-.134 2.546 1.992c.519 2.152-.389 3.42-2.353 3.909z"/><path fill="#8BC3FF" d="M273.344 415.599s21.057 32.003 23.583 45.476-11.789 44.635-13.473 46.319-18.531 3.368-22.741 5.052-24.425 4.21-28.635 1.684-15.157-33.687-16.846-46.318c-1.684-12.631 1.684-39.582 7.578-44.635s23.583 0 28.635-1.684 19.373-7.578 21.899-5.894"/><path fill="#619BCD" d="M279.682 508.684c1.93-.428 3.343-.857 3.772-1.285 1.684-1.684 16.004-32.846 13.473-46.319-2.526-13.473-23.583-45.476-23.583-45.476-.699-.468-2.304-.35-4.363.093 2.078 3.984 15.985 30.881 19.102 44.123 3.368 14.315-3.368 35.371-5.895 41.266-1.172 2.733-1.974 5.456-2.506 7.603zm-57.709-36.657c-5.535-27.685 1.433-45.122 4.097-50.46-1.285.36-2.398.877-3.255 1.61-5.894 5.053-9.263 32.004-7.578 44.635s12.631 43.792 16.846 46.318c.798.478 2.176.778 3.91.931-3.093-5.638-9.199-18.959-14.015-43.044z"/><path fill="#619BCD" d="M270.941 484.446c-.236-6.593-.773-13.158-1.699-19.692-1.832-12.897-5.594-25.223-12.276-36.441-.7-1.172-2.325-.147-1.788 1.044 5.309 11.844 8.288 24.731 9.819 37.583.759 6.338 1.138 12.73 1.374 19.102.222 5.968-.231 12.192.68 18.092.285 1.846 3.447 1.851 3.732 0 .975-6.392.389-13.242.158-19.688m-14.217 20.83c-1.595-6.125-4.786-12.114-7.263-17.939-2.546-5.993-5.2-12.03-6.83-18.353-3.541-13.734-.793-27.429 1.053-41.173.222-1.664-2.171-2.462-2.609-.719-3.29 13.134-5.23 27.271-2.95 40.74 1.157 6.839 3.654 13.261 6.303 19.633 2.654 6.382 4.954 13.493 8.544 19.392 1.206 1.98 4.348.694 3.752-1.581" opacity="0.5"/><path fill="#65DFD5" d="M179.86 370.117c-1.684-3.368-74.111-71.585-74.111-71.585l-2.526-15.157s5.052-10.105-2.527-26.109-18.53-14.315-22.74-19.373c-3.546-4.259-8.293-16.885-24.307-19.244-6.431 221.67-9.686 476.983-3.486 484.138 3.048 3.521 43.689 5.993 101.033 7.476 11.946-21.623 18.56-53.794 18.56-53.794s14.315-37.898 14.315-45.477 5.894-10.947 6.736-22.74c.842-11.789-5.894-16.847-2.526-23.583 3.368-6.737 3.368-5.895 2.526-11.789s1.684-22.741 5.895-32.846 10.104-42.108 7.578-70.743-22.74-75.796-24.425-79.169z"/><path fill="#1BB0A4" d="M159.375 592.728c-5.427 3.22-10.4 7.175-15.856 10.38a139 139 0 0 1-15.64 7.929c-11.183 4.796-24.1 6.263-34.431 12.818-10.307 6.539-19.215 15.172-29.433 21.923a238 238 0 0 1-16.812 10.125c.044 2.6.094 5.101.143 7.514 6.874-3.614 13.572-7.559 20.037-11.873a230 230 0 0 0 11.68-8.341c3.453.364 7.146.261 10.544.083 3.457-.177 3.304-4.87 0-5.264a159 159 0 0 0-3.521-.384c3.63-3.014 7.224-6.091 11.188-8.632 5.491-3.521 11.656-5.023 17.792-6.983a148 148 0 0 0 16.368-6.338c10.602-4.84 22.436-11.016 30.59-19.52 1.694-1.768-.472-4.722-2.649-3.432z"/><path fill="#4C9B8F" d="M87.82 361.327c-10.948-6.933-23.667-8.332-35.806-12.045-.566-.172-1.128-.369-1.684-.561l-.153 6.914c11.715 3.402 24.425 3.816 35.279 9.735 2.654 1.448 4.91-2.432 2.363-4.043"/><path fill="#4C9B8F" d="m50.256 351.922 12.12 4.299 20.041 3.792 3.54-28.217-34.908-14.492c-.276 11.572-.542 23.12-.793 34.613z" opacity="0.5"/><path fill="#1BB0A4" d="M48.149 463.301q-.066 4.13-.124 8.214c10.775 12.104 21.008 24.641 30.305 38.016a397.3 397.3 0 0 1 35.514 62.46c1.251 2.748 5.26.365 4.043-2.363-17.136-38.44-40.493-75.594-69.738-106.327m.689-40.976-.089 4.812c23.293 11.217 44.187 27.551 60.708 47.436-1.763-.635-3.526-1.3-5.309-1.945-2.831-1.024-4.594 3.373-2.028 4.811 4.338 2.428 9.233 3.821 14.073 4.836 2.797.586 4.235-2.408 2.615-4.496-18.579-23.967-42.566-42.798-69.975-55.449z" opacity="0.5"/><path fill="#1BB0A4" d="M117.538 283.375c-10.105-7.579-47.161-22.741-51.376-25.267a43 43 0 0 1-2.61-1.699c2.664-3.885 4.988-8.007 7.032-12.232 1.083-2.246-1.99-4.092-3.364-1.965-3.067 4.732-6.5 9.12-10.104 13.384a134 134 0 0 1-4.63 4.703c-.698 26.099-1.348 52.415-1.94 78.504 3.177 3.108 6.5 5.604 9.721 6.894 12.631 5.053 33.688-11.788 33.688-11.788l28.635-28.636s5.052-14.315-5.052-21.898m66.995 363.747c-2.211-4.653-6.254-12.882-19.505-7.702-3.767 1.473-8.199 2.832-12.621 4.029-7.012-12.922-23.48-14.793-37.253-13.749-8.647.655-15.866 2.772-23.17 7.544-8.282 5.417-16.304 11.228-24.34 16.994-2 1.433-.232 4.673 1.965 3.363 6.938-4.136 13.852-8.297 20.692-12.596 6.49-4.078 12.65-7.707 20.411-8.569 11.154-1.236 28.094-1.782 35.032 8.702a315 315 0 0 1-9.681 2.152 26.5 26.5 0 0 0 1.925-5.801c.429-2.078-2.511-3.541-3.599-1.487-3.374 6.382-7.156 11.72-12.804 16.314-5.431 4.417-11.675 7.569-17.619 11.208-3.339 2.043-.394 7.066 3.053 5.239.566-.3 1.138-.61 1.714-.92-.739 3.565-2.083 10.626-2.527 16.772-.625 8.637 8.835 18.609 8.835 18.609s5.042.665 14.054 2.364c9.011 1.699 19.505 7.701 29.945 8.307 10.435.606 12.158-6.608 12.158-6.608s15.537-59.516 13.325-64.17z"/><path fill="#8BC3FF" d="M269.016 626.957s-1.856-5.373-9.051-5.299c-7.194.079-12.527 5.53-19.018 4.166-6.49-1.369-17.319-4.845-27.01-3.304-9.696 1.546-19.013 8.298-19.013 8.298l11.021 17.328 57.758 19.151s13.862-4.569 19.086-8.893c5.225-4.324 12.592-21.308 12.572-23.105-.019-1.798-26.345-8.347-26.345-8.347z"/><path fill="#C8DCEE" d="M249.392 641.558s25.622-25.1 29.921-26.582c4.299-1.487 9.322-2.62 11.099-4.437s1.349-8.288 4.181-12.276c2.831-3.989 9.223-11.612 16.728-16.009s16.846-5.22 17.59-3.068-37.351 38.173-37.351 38.173-2.093 6.136-4.925 10.125-28.142 24.764-28.142 24.764l-9.111-10.69z"/><path fill="#CEDDEA" d="M294.597 598.263c2.832-3.989 9.224-11.612 16.728-16.009s16.846-5.22 17.59-3.068c.074.212-.231.753-.837 1.551-3.516.34-11.242 1.591-18.141 6.21-9.283 6.214-15.596 21.031-15.596 21.031l-3.93 2.561c1.778-1.817 1.35-8.288 4.181-12.276z"/><path fill="#93AABC" d="M308.676 595.963c-2.058 6.215-8.726 11.479-13.512 15.665-.345.3-.734.349-1.103.251-.148 1.541-.527 3.058-1.241 4.432-.473.92-2.138.482-1.813-.596.399-1.31.675-2.62.71-3.979-.882.65-1.813 1.231-2.842 1.645-2.472.999-5.16.886-7.618 1.969-5.914 2.6-10.863 7.963-15.551 12.247-5.18 4.738-10.105 9.775-15.359 14.424-1.044.925-2.664-.365-1.679-1.478 4.456-5.042 9.504-9.637 14.443-14.197 4.452-4.106 8.918-8.553 14.025-11.848 4.589-2.959 10.159-2.59 14.334-6.13 5.161-4.373 9.918-9.327 14.798-14.005 1.241-1.187 2.915.049 2.403 1.6z"/><path fill="#8BC3FF" d="M237.657 637.19s33.348 23.376 36.377 37.371c3.028 13.995-12.08 13.798-14.911 17.787-2.832 3.988-6.702 11.941-11.706 14.876-5.003 2.93-10.769 1.916-11.434 6.958-.665 5.043-10.981 15.226-20.697 14.975-9.716-.256-19.156-8.425-31.058-11.528-11.902-3.107-25.252-6.919-30.043-17.294-4.792-10.381 6.918-25.252 7.583-30.295.665-5.042.251-9.716 12.705-22.44 12.449-12.725 28.517-23.691 37.878-22.711 9.361.975 25.311 12.311 25.311 12.311z"/><path fill="#619BCD" d="M244.315 636.387c9.77 5.698 20.929 13.941 25.577 24.647 1.241 2.861-2.836 4.348-4.555 2.26-3.304-4.018-6.121-8.165-9.981-11.735-3.462-3.201-7.279-5.993-11.327-8.406-6.529-3.89-21.741-12.114-26.704-1.644-2.147 4.525 1.955 8.982 4.678 12.256 2.56 3.083 5.451 5.88 8.42 8.583 1.704 1.251 3.275 2.625 4.629 4.102 6.569 5.663 13.508 11.144 18.383 18.378.965 1.433-.911 2.95-2.211 1.935-7.096-5.53-14.492-11.006-21.411-16.925-5.245-3.013-9.731-7.096-16.236-7.549-7.864-.546-12.695 4.26-13.36 11.976-.142 1.675-2.147 2.866-3.693 2.536-2.053-.438-4.983-1.201-6.919-.113-1.787 1.01-1.876 3.615-1.836 5.589.078 3.999 1.694 7.889 3.683 11.297 4.063 6.958 9.622 12.685 12.803 20.195.99 2.329-2.718 4.205-3.998 1.984a49 49 0 0 0-1.95-3.087c-.202 1.433.133 2.826 1.201 4.161 1.483 1.851-1.477 4.471-3.151 2.757-2.861-2.93-4.033-7.859-1.822-11.542.054-.094.123-.168.182-.247-5.102-6.524-10.666-12.759-12.547-21.071-.97-4.284-1.123-9.859 1.703-13.532 2.418-3.142 6.707-3.551 10.588-3.137 1.787-7.795 7.692-13.409 16.132-14.074 1.778-.138 3.61-.049 5.441.232-5.042-6.328-8.455-13.971-1.91-20.978 8.327-8.913 21.342-4.004 30.176 1.147z"/><path fill="#8BC3FF" d="M272.271 645.089s.29-6.116 5.589-15.167 16.418-11.691 20.446-5.26-11.528 31.058-16.886 34.712-9.149-14.285-9.149-14.285"/><path fill="#619BCD" d="M274.039 640.08c-.566 1.734-1.216 3.408-1.635 5.186-.379 1.615-4.402 9.538-5.146 11.03-.478.961-6.746-1.841-7.126-2.806-1.255-3.226 9.948-11.258 12.08-13.799 1.305-1.556 2.497-1.659 1.827.389"/><path fill="#fff" d="M185.829 395.586s12.961 2.433 13.773 5.673c.813 3.24-7.293 17.821-7.293 25.114s-.807 24.302-2.432 26.735c-1.621 2.432-25.115-7.293-36.456-5.673-11.34 1.62-31.594 2.432-33.214-1.62-1.62-4.053 1.62-17.822 1.62-17.822l32.402-34.022 31.595 1.62z"/><path fill="#8BC3FF" d="M74.844 346.978s4.86 19.441 7.293 31.595 8.913 34.834 15.393 38.075 12.153-2.433 12.153-2.433.813 20.254 9.721 22.682c8.913 2.432 11.341-7.293 14.581-4.053s10.533 8.1 17.821 5.673c7.293-2.433 8.913-27.542 9.721-33.215.813-5.673 1.62 23.494 12.153 26.734s14.581-8.913 14.581-27.542-3.24-35.647-5.673-41.315c-2.432-5.673-9.72-34.022-21.061-41.315s-34.835-16.202-43.748-22.682-42.935-8.101-52.656 5.673c-9.72 13.773-4.86 33.215 9.72 42.128z"/><path fill="#619BCD" d="M112.263 410.778c-1.876-8.042-2.452-15.871-3.24-24.075-.788-8.194-2.654-15.945-5.584-23.632-.763-2.004-3.802-1.261-3.27.901 2.118 8.613 3.211 17.472 3.413 26.33.172 7.628-.059 15.724 3.063 22.845 1.448 3.304 6.382.881 5.623-2.369zm47.206-52.11c-.7-2.526-4.462-1.462-3.906 1.079 3.118 14.28 3.009 28.541 2.827 43.044-.049 4.107 5.835 3.915 6.254 0 1.581-14.778-1.241-29.95-5.175-44.123"/><path fill="#619BCD" d="M167.397 338.242c-5.678-3.388-11.139-4.24-17.058-1.256-2.418 1.222-3.615 1.547-6.289.946-1.758-.394-3.417-.98-5.215-1.221a18.55 18.55 0 0 0-9.425 1.167c-2.959 1.181-5.294 3.205-7.864 5.023-3.58 2.526-6.141 2.939-10.351 1.649-7.042-2.152-11.883-.586-17.728 3.664-1.595 1.157-.098 3.836 1.571 2.689 3.142-2.157 7.131-3.31 10.947-2.482 2.861.62 5.348 2.299 8.293 2.664 5.746.709 9.666-3.157 14.108-6.097 3.087-2.043 6.49-3.102 10.228-2.437 2.861.507 5.554 1.822 8.514 1.778 3.014-.05 4.708-1.798 7.322-2.916 3.418-1.457 6.939.424 9.977 1.926 3.373 1.674 6.269-3.127 2.979-5.092z" opacity="0.5"/></g></g><path fill="#503DA0" d="M579.588 746.184h33.326V712.52h-33.326z"/><path fill="#fff" d="M577.953 747.833v-36.955h36.59v36.955zm3.257-33.664v30.373h30.076v-30.373z"/><path fill="#503DA0" d="M291.138 746.191h33.326v-33.665h-33.326z"/><path fill="#fff" d="M289.509 747.833v-36.955h36.59v36.955zm3.257-33.664v30.373h30.07v-30.373z"/><path fill="#503DA0" d="M291.138 36.156h33.326V2.492h-33.326z"/><path fill="#fff" d="M289.509 37.799V.844h36.59v36.955zm3.257-33.664v30.373h30.07V4.135z"/><path fill="#503DA0" d="M2.701 746.184h33.326V712.52H2.701z"/><path fill="#fff" d="M1.066 747.833v-36.955h36.59v36.955zm3.257-33.664v30.373h30.069v-30.373z"/><path fill="#503DA0" d="M579.581 390.774h33.327v-33.665h-33.327z"/><path fill="#fff" d="M577.953 392.423v-36.955h36.59v36.955zm3.257-33.664v30.373h30.076v-30.373z"/><path fill="#503DA0" d="M2.694 390.774H36.02V357.11H2.694z"/><path fill="#fff" d="M1.066 392.423v-36.955h36.59v36.955zm3.257-33.664v30.373h30.069v-30.373z"/><path fill="#503DA0" d="M579.588 36.15h33.326V2.485h-33.326z"/><path fill="#fff" d="M577.953 37.799V.844h36.59v36.955zm3.264-33.664v30.373h30.069V4.135z"/><path fill="#503DA0" d="M2.701 36.15h33.326V2.485H2.701z"/><path fill="#fff" d="M1.066 37.799V.844h36.59v36.955zM4.323 4.135v30.373h30.07V4.135z"/></svg>