<svg xmlns="http://www.w3.org/2000/svg" width="616" height="749" fill="none" viewBox="0 0 616 749"><path fill="#06D0A0" d="M19.06 729.259h578.395V18.824H19.061z"/><path fill="#fff" d="M56.003 690.407h504.51V57.675H56.003z"/><mask id="a" width="505" height="634" x="56" y="57" maskUnits="userSpaceOnUse" style="mask-type:alpha"><path fill="#fff" d="M56.003 690.407h504.51V57.675H56.003z"/></mask><g mask="url(#a)"><path fill="#E7EFFB" d="M-588.824 36.247H700.83v773.986H-588.824z"/><path fill="#A8C2F0" d="M-588.824 591.961H700.83v218.272H-588.824z"/><path fill="#FA8C75" d="M274.893 96.74h81.686c2.532 0 4.606 2.075 4.606 4.608v83.669c0 2.545-2.076 4.621-4.606 4.621h-81.686a4.63 4.63 0 0 1-4.62-4.621v-83.669c0-2.533 2.075-4.609 4.62-4.609"/><path fill="#F7C86C" d="M268.004 96.74h81.686c2.532 0 4.62 2.075 4.62 4.608v83.669c0 2.545-2.088 4.621-4.62 4.621h-81.686c-2.533 0-4.621-2.076-4.621-4.621v-83.669c0-2.533 2.088-4.609 4.621-4.609"/><path fill="#fff" d="M271.435 100.642h74.825a4.227 4.227 0 0 1 4.219 4.219v76.64c0 2.324-1.895 4.235-4.219 4.235h-74.825c-2.323 0-4.233-1.908-4.233-4.235v-76.64c0-2.324 1.908-4.219 4.233-4.219"/><path fill="#C6D9F7" d="M308.481 125.672c-9.366 0-16.959 7.595-16.959 16.95 0 9.354 7.593 16.962 16.959 16.962s16.945-7.595 16.945-16.962-7.58-16.95-16.945-16.95"/><path fill="#8CABE2" d="M338.264 141.487h4.358c.678 0 1.147.456 1.147 1.134 0 .692-.469 1.148-1.147 1.148h-4.358c-.456 0-1.147-.456-1.147-1.148 0-.678.691-1.134 1.147-1.134M309.63 172.41v4.359c0 .456-.469 1.134-1.147 1.134-.456 0-1.147-.678-1.147-1.134v-4.359c0-.691.691-1.148 1.147-1.148.678 0 1.147.457 1.147 1.148m0-63.688v4.124c0 .678-.469 1.147-1.147 1.147-.456 0-1.147-.469-1.147-1.147v-4.124c0-.691.691-1.383 1.147-1.383.678 0 1.147.692 1.147 1.383m-14.898 60.258-2.06 3.667c-.457.678-1.148.913-1.604.457-.678-.235-.913-.926-.456-1.605l2.06-3.667c.234-.456.913-.691 1.604-.456.456.456.691 1.147.456 1.604m31.844-55.221-2.06 3.667c-.456.457-1.147.691-1.604.457-.678-.457-.678-1.148-.456-1.605l2.06-3.667c.456-.456 1.147-.678 1.604-.456.691.234.691 1.147.456 1.604m-43.298 44.899-3.666 2.061c-.457.235-1.148 0-1.604-.457-.235-.678 0-1.369.456-1.604l3.667-2.061c.691-.456 1.382-.221 1.604.47.456.456.234 1.135-.457 1.591m55.443-32.073-3.667 2.06c-.678.457-1.369.235-1.604-.222-.456-.691-.221-1.382.235-1.604l3.667-2.298c.691-.222 1.369 0 1.603.457.457.691.222 1.382-.234 1.604zm-5.036 32.073 3.667 2.061c.691.235 1.369 0 1.603-.457.457-.678.222-1.369-.234-1.604l-3.667-2.061c-.678-.456-1.369-.221-1.604.47-.456.456-.221 1.135.235 1.591m-55.223-32.073 3.666 2.06c.691.457 1.383.235 1.604-.222.457-.691.235-1.382-.456-1.604l-3.667-2.298c-.456-.222-1.147 0-1.604.457-.234.691 0 1.382.457 1.604zm43.989 42.395 2.06 3.667c.456.678 1.147.913 1.604.457.691-.235.691-.926.456-1.605l-2.06-3.667c-.457-.456-1.148-.691-1.604-.456-.678.456-.678 1.147-.456 1.604m-31.845-55.221 2.061 3.667c.234.457.912.691 1.603.457.457-.457.691-1.148.457-1.605l-2.06-3.667c-.457-.456-1.148-.678-1.604-.456-.678.234-.913 1.147-.457 1.604m-16.033 27.728h4.123c.679 0 1.148.456 1.148 1.134 0 .692-.469 1.148-1.148 1.148h-4.123c-.691 0-1.147-.456-1.147-1.148 0-.678.456-1.134 1.147-1.134"/><path fill="#6F90C5" d="m330.018 158.437-18.799-16.95.472-32.087h-5.271l-.456 33.222v1.147l.913.913 19.697 17.644z"/><path fill="#6F90C5" d="M308.481 137.822a4.81 4.81 0 0 0-4.815 4.802 4.82 4.82 0 0 0 4.815 4.815 4.82 4.82 0 0 0 4.814-4.815 4.81 4.81 0 0 0-4.814-4.802"/><path fill="#FEFEFE" d="M308.48 140.795c-1.01 0-1.841.818-1.841 1.826s.831 1.842 1.841 1.842a1.83 1.83 0 0 0 1.826-1.842 1.816 1.816 0 0 0-1.826-1.826"/><path fill="#9A5931" d="M670.094 92.076H454.518c-8.646 0-15.713 7.07-15.713 15.717v487.529H685.81V107.796c0-8.648-7.068-15.717-15.713-15.717z"/><path fill="#FAB886" d="M657.186 92.076H441.623c-8.646 0-15.714 7.07-15.714 15.717v487.529h246.993V107.796c0-8.648-7.068-15.717-15.713-15.717z"/><path fill="#FFEAE0" d="M648.401 117.648h-197.98v477.676h197.98z"/><path fill="#9A5931" d="M461.446 117.648h-11.025v477.676h11.025z"/><path fill="#EAAD96" d="M336.223 560.595h12.921v35.034h-9.435zm-29.949 0h12.908v35.034h-9.434z"/><path fill="#FAC9B6" d="M300.728 560.595h12.921v35.034h-9.435zm30.171 0h12.905v35.034h-9.419z"/><path fill="#EAAD96" d="M233.332 560.595h-12.905v35.034h9.419z"/><path fill="#FAC9B6" d="M228.007 560.595h-13.101v35.034h9.615z"/><path fill="#EAAD96" d="M262.216 560.595h-12.905v35.034h9.641z"/><path fill="#FAC9B6" d="M256.904 560.595h-12.921v35.034h9.435z"/><path fill="#FAB886" d="M322.501 581.475h37.295V336.484h-37.295z"/><path fill="#fff" d="M208.903 581.475h113.598V336.484H208.903z"/><path fill="#FAB886" d="M212.237 577.434h104.619v-44.747H212.237z"/><path fill="#FFEAE0" d="M214.589 575.662h103.25v-43.639h-103.25z"/><path fill="#CB9171" d="M282.578 532.023H242.49v8.524a3.025 3.025 0 0 0 3.017 3.018h34.057a3.025 3.025 0 0 0 3.017-3.018v-8.524z"/><path fill="#CB9171" d="M214.589 532.023h103.25v3.291h-103.25z"/><path fill="#FAB886" d="M212.237 529.504h104.619v-44.748H212.237z"/><path fill="#FFEAE0" d="M214.589 527.732h103.25v-43.638h-103.25z"/><path fill="#CB9171" d="M282.578 484.094H242.49v8.524a3.024 3.024 0 0 0 3.017 3.017h34.057a3.024 3.024 0 0 0 3.017-3.017v-8.524z"/><path fill="#CB9171" d="M214.589 484.094h103.25v3.293h-103.25z"/><path fill="#FAB886" d="M212.237 481.574h104.619v-44.747H212.237z"/><path fill="#FFEAE0" d="M214.589 479.804h103.25v-43.64h-103.25z"/><path fill="#CB9171" d="M282.578 436.164H242.49v8.523a3.025 3.025 0 0 0 3.017 3.018h34.057a3.025 3.025 0 0 0 3.017-3.018v-8.523z"/><path fill="#CB9171" d="M214.589 436.164h103.25v3.293h-103.25z"/><path fill="#FAB886" d="M212.237 433.644h104.619v-44.747H212.237z"/><path fill="#FFEAE0" d="M214.589 431.875h103.25v-43.641h-103.25z"/><path fill="#CB9171" d="M282.578 388.234H242.49v8.524a3.024 3.024 0 0 0 3.017 3.017h34.057a3.024 3.024 0 0 0 3.017-3.017v-8.524z"/><path fill="#CB9171" d="M214.589 388.234h103.25v3.293h-103.25z"/><path fill="#FAB886" d="M212.237 385.714h104.619v-44.747H212.237z"/><path fill="#FFEAE0" d="M214.589 383.945h103.25v-43.641h-103.25z"/><path fill="#CB9171" d="M282.578 340.304H242.49v8.524a3.025 3.025 0 0 0 3.017 3.018h34.057a3.025 3.025 0 0 0 3.017-3.018v-8.524z"/><path fill="#CB9171" d="M214.589 340.304h103.25v3.294h-103.25z"/><path fill="#8BAA45" d="M279.507 290.05c-.9-1.052-1.841-14.252-18.219-13.2 0 0-1.535 16.328 16.004 20.285 4.301.97 2.213-7.085 2.213-7.085z"/><path fill="#484F80" d="M288.637 299.196c.774-1.037 12.547-4.885 7.927-19.578 0 0-15.216 2.311-14.87 19.137.082 4.149 6.943.443 6.943.443z"/><path fill="#317573" d="M284.86 301.383c0-1.55 8.757-13.587-6.101-24.587 0 0-13.155 12.953-.954 29.085 3.002 3.956 7.055-4.498 7.055-4.498"/><path fill="#BEBF3D" d="M266.145 309.311c-12.546-8.426-10.61-23.217-10.61-23.217 21.386-.415 21.871 16.769 22.964 18.195 0 0 .567 2.587.456 5.022z"/><path fill="#BEBF3D" d="M291.154 309.311h-14.109c3.818-19.232 21.842-18.443 21.842-18.443 1.189 10.876-3.473 15.913-7.733 18.443"/><path fill="#fff" d="M259.671 304.87a23.17 23.17 0 0 0-4.621 13.932 23.23 23.23 0 0 0 8.12 17.682h30.405c4.966-4.276 8.12-10.613 8.12-17.682a23.16 23.16 0 0 0-4.621-13.932h-37.406z"/><path fill="#657799" d="m173.992 252.26-3.147-.219c1.594-23.332-.188-40.575-4.767-46.135-1.261-1.531-5.775-2.614-8.321-2.939l.39-3.134c.797.097 7.898 1.066 10.363 4.054 7.069 8.564 6.467 33.972 5.482 48.357zm-62.868-10.03-3.034-.862c.016-.074 1.984-7.425-.708-22.421-1.171-6.529-3.034-10.835-4.262-13.685-1.285-2.979-2.213-5.128-.773-6.952 2.082-2.63 7.76-3.802 8.403-3.932l.602 3.102c-1.977.39-5.507 1.489-6.532 2.792-.269.334.545 2.222 1.204 3.737 1.285 2.987 3.237 7.498 4.473 14.385 2.847 15.834.732 23.527.643 23.845z"/><path fill="#EEDEDE" d="m166.403 159.087-.821 1.701c1.391.676 2.888 1.409 3.969 1.954l-.04.969c.634.024 1.122.041 1.496.041.952 0 1.221-.122 1.44-.562l.049-.733q-.163-.488-6.101-3.37z"/><path fill="#CDDFE9" d="M136.096 408.99c-11.291-1.254-18.099 64.908-18.099 64.908s34.041 1.074 34.041 0-4.66-63.655-15.942-64.908"/><path fill="#DCB36C" d="M93.936 384.111c.025.09 2.522 9.273-2.53 12.179-3.887 2.239-10.265 2.638-13.616 2.687l-.049 1.823c3.498-.032 10.266-.447 14.569-2.93 6.271-3.615 3.497-13.815 3.375-14.247z"/><path fill="#364656" d="M75.814 378.559s2.367 259.534 3.49 261.317c1.122 1.783 43.549 3.028 43.549 3.028s10.745-197.101 12.169-196.14c1.423.961 5.466 194.105 7.996 195.847 2.538 1.742 40.012-4.803 42.899-6.301s4.515-257.238 1.391-258.76c-3.123-1.523-111.503 1.017-111.503 1.017z"/><path fill="#DCB36C" d="M180.418 396.583c-4.742-1.783-2.415-11.527-2.391-11.625l-1.765-.432c-.114.464-2.725 11.414 3.514 13.759 2.7 1.009 6.572 1.286 9.948 1.286 1.285 0 2.497-.041 3.546-.09 0-.618 0-1.229-.008-1.823-3.668.187-9.419.219-12.844-1.067z"/><path fill="#FDA77E" d="M129.125 126.898c-4.198 2.385-8.883 24.748-8.883 24.748l-4.653 45.63-3.847 13.433 4.954 15.02 37.181-1.099v-25.636s1.236-.415 3.026-2.206 7.906-7.433 8.679-24.537c.602-13.384 3.88-35.348-.708-41.348-1.692-2.214-31.56-6.391-35.758-4.005z"/><path fill="#EE7353" d="M152.604 174.958s.148 1.007-3.555.297c-3.704-.713-5.808.443-5.808.443s-.679 3.404 2.014 3.788c2.699.384 5.839.149 7.35-4.53z"/><path fill="#AC5649" d="M152.089 161.692a.483.483 0 0 0-.819-.508c-.006.009-2.573 4.049-1.223 7.534a56 56 0 0 1 1.948 6.177c-.22.632-1.336 3.529-3.54 4.064-2.553.623-4.62-.549-4.626-.549a.484.484 0 0 0-.652.201.487.487 0 0 0 .205.652c.003.003 2.373 1.341 5.299.632 3.009-.733 4.268-4.831 4.273-4.844l.009-.257c-.003-.009-.748-3.128-2.02-6.424-1.17-3.026 1.141-6.669 1.144-6.679z"/><path fill="#E49A77" d="M129.238 196.796c-8.451-6.024-9.394-25.367-9.394-25.53l-1.579-.261-.219 2.125-.212 2.044.391-.049c.228 3.932-.513 20.1 6.385 27.101 3.717 3.769 11.307 6.684 15.976 6.684 5.059 0 10.265-2.654 13.291-4.462v-5.462s.764-.261 1.952-1.229c-1.399.431-17.765 5.332-26.599-.961z"/><path fill="#5EA796" d="M158.473 203.105s.894-2.833.577-3.72c-.366-1.034-2.513-2.288-2.513-2.288l-2.075 1.107s-10.606 17.927-16.634 17.927c-6.027 0-21.409-27.134-21.409-27.134.016-.163-3.668 1.677-5.108 2.996s-2.416 6.765-2.416 6.765-11.827 2.841-12.494 4.754c-.553 1.588-13.389 131.599-3.034 172.597.968 3.842 34.123 4.591 43.485 4.282 15.195-.497 40.215-4.062 40.215-6.497 0-42.74-8.272-167.508-9.175-168.094-1.082-.7-9.411-2.695-9.411-2.695z"/><path fill="#503DA0" d="M141.143 229.096q.003.002-.001.003l-4.702.352c-1.002.075-1.817.803-1.973 1.797-1.48 9.428-8.762 55.996-9.93 66.715-1.293 11.943.553 58.908 1.383 61.172.205.564 1.021 1.397 2.132 2.331 5.415 4.55 13.318 4.691 19.21.779 2.265-1.504 4.047-2.927 4.134-3.729.244-2.263-.301-59.234-1.171-67.904-.87-8.666-9.064-61.377-9.086-61.521z"/><path fill="#687A98" d="M148.02 226.714c-1.35-.26-5.116-5.821-8.085-11.177-.74.374-1.448.594-2.107.594-.309 0-.651-.073-1.009-.212-2.554 3.892-7.638 10.6-11.103 10.779-3.44.171-8.768-7.376-11.322-12.179l-1.668.887c.724 1.368 7.182 13.189 12.876 13.189h.212c4.726-.244 10.46-8.345 12.673-11.764 2.139 3.834 6.572 11.243 9.167 11.747.187.033.374.057.569.057 3.075 0 6.914-4.363 7.695-5.283l-1.448-1.221c-1.756 2.084-4.929 4.893-6.458 4.591z"/><path fill="#364656" d="M99.02 386.936c-.691.025-1.106.049-1.196.074l1.196 9.174h71.288s-1.782-9.826-1.782-10.086c0-.236-60.16.496-69.506.838"/><path fill="#243242" d="M138.031 159.127c-.618-.032-1.423 1.767-1.797 4.014s-.171 4.095.447 4.127 1.424-1.766 1.798-4.013.171-4.095-.448-4.128"/><path fill="#836F5E" d="M135.974 424.776c-.545.358-.627.415-1.212 13.497a1341 1341 0 0 0-.554 15.216c.375-4.396.651-6.839.814-6.733.228.155.52 5.211.862 13.596.317-8.459 1.139-31.319 1.432-34.062 1.204-.31 4.514-1.01 7.532-1.612l-.374-1.856c-7.996 1.604-8.33 1.823-8.517 1.945z"/><path fill="#243242" d="M160.929 160.389c-.618-.032-1.423 1.767-1.798 4.014-.374 2.246-.17 4.095.448 4.127s1.423-1.767 1.797-4.013c.375-2.247.171-4.095-.447-4.128m-20.181-7.18c-1.936-.048-3.863 0-5.791.139-1.619.122-1.635 2.67 0 2.54a55 55 0 0 1 5.791-.139c1.635.041 1.635-2.499 0-2.54"/><path fill="#fff" d="M109.033 198.147s-38.279 10.421-46.844 20.727-19.156 93.174-17.716 97.773c1.431 4.6 24.435 9.908 24.435 9.908S62.286 473.678 65.32 476.47c1.505 1.384 28.624 3.346 63.91 3.216 0 0 3.555-163.609-.358-217.974-1.708-23.764-19.831-63.573-19.831-63.573z"/><path fill="#D0E2EC" d="M128.889 304.379c.065 1.897-.106 3.419-.586 4.298-.952 1.75-12.917 6.204-33.952 11.332-10.688 2.605-20.685 4.657-28.274 5.854 1.724.439 2.814.692 2.814.692s-.008.236-.032.675c7.98-1.359 17.529-3.411 25.915-5.454 7.703-1.881 32.984-8.304 35.115-12.228.236-.439.415-.985.545-1.595-.024-1.49-.04-2.972-.065-4.429-.496.277-1 .562-1.488.863z"/><path fill="#5EA796" d="M131.5 279.345c-3.514-.903-12.226 2.72-12.226 2.72-9.785 3.85-5.344 22.607-3.058 24.479 2.285 1.873 17.838-2.385 18.92-5.202 1.082-2.816-.122-21.093-3.636-21.997"/><path fill="#fff" d="M199.379 222.643c-7.736-13.954-40.622-19.652-40.622-19.652s-9.972 26.93-11.388 40.371c-6.198 58.851-4.156 236.283-4.156 236.283 32.601-.204 56.418-.757 58.175-2.467 2.058-1.994-4.23-145.389-4.23-145.389s18.229 3.313 26.29-2.589c5.377-3.932 5.873-15.313 5.425-20.833-.854-10.632-21.758-71.77-29.494-85.724"/><path fill="#243242" d="M163.182 153.861a37 37 0 0 0-5.848-.228c-1.627.065-1.635 2.605 0 2.54 1.96-.073 3.904 0 5.848.228 1.619.195 1.611-2.353 0-2.54"/><path fill="#D0E2EC" d="M161.905 234.489c-.707.301-3.424.423-5.076.496-3.904.171-4.864.285-5.319 1.018-.195.309-.22.684-.082 1.018.309.716 1.229 1.156 3.791 2.214 1.212.505 3.4 1.417 3.921 1.938-.627 3.15-10.103 33.386-14.325 42.373l-.122 3.232.285.244c3.392-3.915 16.081-43.961 16.081-45.963 0-1.376-1.846-2.207-5.108-3.566-.374-.155-.797-.334-1.204-.505.708-.049 1.497-.081 2.172-.114 3.245-.138 5.279-.26 6.157-.871.415-.293 1.286-.895 4.344-16.835.732-3.827 1.44-7.775 1.936-10.844.13-.831.244-1.531.334-2.133a89 89 0 0 0-1.806-.578c-1.025 7.156-4.832 26.792-5.979 28.876"/><path fill="#AC5649" d="M134.542 178.177a1.3 1.3 0 0 0-.236-.203l-.594.895-.512.537.049.057c1.358 1.384 5.864 5.219 13.852 5.219 1.708 0 3.579-.179 5.613-.594l-.366-1.783c-10.624 2.165-16.317-2.614-17.814-4.128z"/><path fill="#D0E2EC" d="M187.438 310.029c.106-1.815 2.14-5.495 2.912-6.765l-1.61-.985c-.309.505-3.034 5.023-3.189 7.644-.122 2.166 5.344 12.635 5.962 13.824 2.66 5.055 4.458 8.002 5.686 9.728-.024-1.091-.04-1.677-.04-1.677s.829.13 1.325.212c-3.774-5.919-11.054-19.938-11.046-21.973z"/><path fill="#AC5649" d="m139.634 186.164-1.09 1.457c.081.065 1.635 1.205 4.319 1.205.716 0 1.505-.082 2.367-.285l-.415-1.767c-3.253.765-5.1-.553-5.181-.61"/><path fill="#243242" d="M130.694 116.673c-21.466 4.583-15.601 39.736-15.601 39.736l4.523 3.337 3.278 4.136h2.814s.952-13.522 1.529-14.1c.57-.57 1.92-2.035 2.351-2.817.431-.79 3.254-11.194 3.896-11.552.643-.358 9.534 3.533 18.253 3.891 9.949.407 13.999-2.621 14.561-2.588.561.024.935 13.204.569 17.82 0 0 1.936-11.186 1.293-19.237-.862-10.819-18.83-22.607-37.457-18.635z"/><path fill="#D0E2EC" d="m199.379 292.892 1.131 1.514c2.017-1.498 4.384-2.735 4.945-2.613 1.188.505 14.992 10.477 16.049 11.593l1.424-1.238c-.757-.863-15.097-11.405-16.749-12.097-1.659-.692-4.97 1.481-6.8 2.841m-71.832-14.735c-1.798-.603-11.657 1.791-27.689 5.796-8.899 2.223-18.912 4.73-21.238 4.868-.61-3.427-.196-24.39.227-37.415l-1.813-.057c0 .089-.31 9.378-.456 18.699-.309 19.221.285 19.815.724 20.247.78.79 2.709.497 22.995-4.575 9.664-2.418 22.296-5.65 25.68-5.862.846-.26 2.033-.472 2.887-.578-.659-.798-1.098-1.05-1.317-1.123"/><path fill="#AEBACE" d="M171.617 267.964a6.664 6.664 0 0 0 6.662-6.668 6.664 6.664 0 0 0-6.662-6.667 6.665 6.665 0 0 0-6.662 6.667 6.665 6.665 0 0 0 6.662 6.668"/><path fill="#D0E2EC" d="m77.725 288.773-18.08 4.171.407 1.769 18.08-4.171z"/><path fill="#FDA77E" d="M150.9 261.231c-3.693 1.336-11.998 14.988-14.463 17.862s-13.747 5.853-13.747 5.853c-3.831 2.442-2.147 13.718 0 14.833 2.148 1.115 15.667-3.061 18.937-6.651 3.27-3.582 6.19-7.343 6.19-7.343l2.505 1.953s-3.758 1.808-1.529 4.315 7.166.139 9.257-1.954 1.879-3.972 1.879-3.972 2.855-.139 4.66-2.573 1.18-4.453 1.18-4.453 3.131-1.954 2.432-5.08c-.7-3.134-11.868-6.724-11.559-7.547s21.849 4.681 21.157 1.156c-.895-4.559-23.206-7.726-26.899-6.39z"/><path fill="#5EA796" d="M199.151 289.13s-13.738 9.94-13.128 11.373c0 0 4.799 11.748 7.573 11.878 1.391.065 7.166.016 10.948-2.988s5.589-8.955 5.084-10.787c-1.008-3.663-10.477-9.476-10.477-9.476"/><path fill="#954D4D" d="M160.848 285.508c-.375-1.579-5.466-5.023-8.468-6.936l-.976 1.531c3.408 2.173 7.304 5.023 7.687 5.853.138.562.358 1.148.577 1.677.317-.903.252-1.506.252-1.506s.423-.024 1.05-.187a5 5 0 0 1-.122-.432m-4.482-14.523-.236 1.172-.195.594c.789.261 8.02 3.452 9.923 6.993a3 3 0 0 0-.097-.651s.577-.358 1.179-1.017c-2.847-3.932-10.127-6.994-10.582-7.083z"/><path fill="#364656" d="M175.392 254.068c-.773 1.392-34.221 47.177-34.701 49.179-.089.383 1.066 2.719 1.066 2.719l47.69.937 36.889-50.784-.919-1.954-50.017-.105z"/><path fill="#954D4D" d="m160.799 266.898-.13-.236-6.467-2.467q-.344.572-.699 1.131l4.864 2.288q-.185-.096-.358-.179l-.033-.016c-.105-.057-.203-.106-.3-.155l-.057-.033c-.09-.048-.163-.089-.245-.13-.016-.008-.04-.024-.065-.032-.073-.041-.13-.082-.195-.114a.3.3 0 0 1-.057-.041c-.057-.033-.097-.065-.146-.098a.2.2 0 0 1-.049-.04 1 1 0 0 1-.098-.09.2.2 0 0 0-.04-.033.4.4 0 0 1-.057-.073c0-.008-.016-.016-.016-.032-.017-.033-.017-.066 0-.09.081-.228 1.773.024 4.156.44z"/><path fill="#63574D" d="M85.981 638.467s-35.31 20.539-33.504 28.428c1.805 7.889 46.08-7.343 45.835-7.197-.244.139 1.22 2.557 1.22 2.557s20.751-1.979 21.369-2.109c.618-.122-1.895-18.985-1.96-19.343-.066-.358-32.968-2.336-32.968-2.336zm92.51-2.946s-31.537 4.917-31.61 5.275c-.065.358-2.586 19.213-1.96 19.343.618.122 21.368 2.108 21.368 2.108s1.464-2.418 1.22-2.556 44.031 15.085 45.836 7.197c1.806-7.889-34.854-31.367-34.854-31.367"/><path fill="#D0E2EC" d="M114.402 235.922c.195-.391.171-.823-.065-1.156-.529-.741-1.546-.595-4.01-.253-1.253.171-3.815.529-4.49.277-1.033-2.133-4.141-20.67-6.182-33.826q-.881.281-1.822.587c.537 3.468 1.456 9.239 2.432 15.028 3.164 18.765 3.839 19.286 4.335 19.676.984.766 3.01.554 5.987.139.309-.041.651-.09.984-.13-1.09.985-2.774 2.344-4.303 3.5l-.569.432 15.186 39.223 1.765-.684-14.674-37.896c1.627-1.254 4.889-3.851 5.426-4.909z"/><path fill="#2C3944" d="M134.493 231.07c-.081.504-.179 1.139-.293 1.872a35 35 0 0 0 3.677.204c1.244 0 2.57-.082 3.847-.294-.114-.716-.203-1.335-.284-1.864-2.433.407-5.141.261-6.939.082z"/><path fill="#503DA0" d="M138.544 216.481q.005.001.002.006l-2.345 2.067a1 1 0 0 0-.073.07c-.461.489-5.604 5.977-5.434 7.105.062.408.513 1.188 1.077 2.034 1.499 2.249 4.123 3.427 6.826 3.396 1.873-.021 3.722-.607 5.085-1.893.907-.857 1.759-1.82 1.8-2.446.084-1.283-4.231-7.355-4.769-8.105a1 1 0 0 0-.12-.144l-2.052-2.085q-.002-.004.003-.005"/><path fill="#425463" d="M186.771 255.679c-8.37-.024-9.566-.024-9.81.017-.561.097-.845.138-19.286 25.562a8347 8347 0 0 0-16.666 23.072c.317.765.748 1.636.748 1.636h.398c13.528-18.797 32.96-45.622 35.36-48.406 1.122-.017 4.921 0 9.248.008 7.728.024 18.318.057 27.176 0 5.369-.033 8.997-.081 11.453-.163l.936-1.286-.301-.635c-8.175.285-28.478.22-39.264.187z"/><path fill="#D0E2EC" d="M103.616 300.471c-1.35-10.371 4.693-17.12 4.758-17.185l-.536-.497c-.545.049-1.082.098-1.627.171-1.733 2.32-5.645 8.703-4.466 17.755 1.18 9.094 7.313 13.856 9.899 15.485a24 24 0 0 1 1.53-.123l.447-.92c-.09-.04-8.663-4.379-10.005-14.686m110.51-2.809c.139.293 3.23 7.238-3.798 16.51-7.004 9.24-18.424 6.041-18.904 5.902l-.529 1.816c.057.016 2.367.668 5.605.668 4.506 0 10.802-1.262 15.332-7.246 7.752-10.233 4.157-18.122 4.002-18.456zm-128.82 55.652c-2.107.049-5.027.22-8.671.529-3.27.269-6.548.602-8.923.847-.025.626-.049 1.261-.082 1.905 9.339-.994 18.693-1.677 20.808-1.311.073 1.335.13 4.844.154 9.5l-.057-1.107-21.23 1.099-.073 1.897 21.368-1.107c.065 15.484-.227 42.406-1.537 45.899-2.83.146-15.008.545-21.474.749-.016.635-.04 1.262-.057 1.897 6.824-.22 20.197-.652 22.06-.782a1.2 1.2 0 0 0 .846-.464c2.716-3.379 1.911-57.825 1.838-58.298-.155-1.066-1.22-1.335-4.97-1.253m101.75 59.307c-.878-3.289-1.383-32.36-1.57-48.878 1.619-.155 7.841-.334 12.998-.456l-.073-1.889c-4.417.106-10.867.277-12.941.448-.041-3.655-.057-6.529-.065-8.109 1.618-.301 6.938-.472 12.673-.504-.025-.643-.049-1.278-.082-1.897-13.136.049-13.901.79-14.169 1.05a1.05 1.05 0 0 0-.317.749c0 1.498.113 16.282.398 30.586.578 29.234 1.261 29.82 1.798 30.292 1.049.912 6.841 1.148 12.412 1.148.789 0 1.57 0 2.335-.016-.024-.627-.041-1.262-.065-1.897-6.19.049-12.022-.147-13.332-.627"/><path fill="#EEDEDE" d="M145.694 158.672c-2.026-.293-5.727-.472-8.281-.529-5.889-.139-6.222.179-6.523.456-1.082 1.001-2.286 8.369-2.205 9.891.017.358.09.814.48 1.107.879.66 10.973 1.254 14.577 1.254.593 0 1.016-.016 1.179-.049.138-.032.561-.114.797-.529.366-.651 1.318-5.08 1.326-5.121 1.033-4.868.757-5.332.561-5.674-.284-.48-.838-.635-1.903-.79zm-1.513 10.306c-2.18.139-11.315-.545-13.625-.911.049-1.685 1.041-6.717 1.586-7.97 1.969-.285 11.526.081 13.755.521-.097 1.644-1.261 6.797-1.716 8.36m24.451-9.256c-1.863-.269-5.287-.399-7.646-.431-5.458-.065-5.808.26-6.084.521-1.082 1.001-2.286 8.369-2.205 9.891.017.358.09.814.48 1.107.822.611 9.233 1.115 12.925 1.115.789 0 1.359-.024 1.595-.073.146-.032.577-.122.821-.537.366-.643 1.342-5.088 1.351-5.129 1.057-4.885.789-5.349.585-5.69-.276-.473-.829-.635-1.806-.774zm-1.667 10.323c-2.034.155-10.233-.423-12.397-.765.049-1.686 1.041-6.733 1.586-7.979 1.749-.268 10.412-.105 12.584.334-.106 1.645-1.31 6.847-1.773 8.402z"/><path fill="#EEDEDE" d="m120.999 155.928-.749 1.742 8.118 3.501h2.351v-1.889h-1.96zm33.309 4.372c-.757-.659-1.741-.944-2.92-.855-3.376.253-5.475 2.63-5.564 2.736l1.423 1.245s1.7-1.897 4.287-2.092c1.895-.138 2.156 1.319 2.196 1.775l1.887-.122c-.008-.163-.138-1.661-1.301-2.679z"/><path fill="#FDA77E" d="M115.955 152.55c-3.611 0-6.149 4.152-5.677 9.256s3.782 9.248 7.394 9.24c3.611 0 6.149-4.152 5.677-9.256-.471-5.105-3.782-9.248-7.394-9.24"/><path fill="#AC5649" d="m115.898 155.049-.284 1.807c1.83.269 2.155 6.155 1.797 10.055l1.798.138c.179-1.897.838-11.397-3.311-12.008z"/><path fill="#954D4D" d="m115.492 162.693 2.806.489.334-1.8-2.807-.488z"/><path fill="#FDA77E" d="M196.361 278.849c-1.537 2.646 5.719 7.457 5.719 7.457l-.383.863s-6.824-2.45-12.111-1.783c-5.288.676-3.799 3.509-3.799 3.509s-2.066.529-2.261 2.361c-.196 1.831 1.439 3.175 1.439 3.175s-1.732.911-.382 3.37c1.342 2.45 4.807 3.607 4.807 3.607s-1.561 2.808-1.415 3.581c.147.774 1.391 2.215 1.391 2.215s1.692 1.734 4.449 1.327c1.196-.179 7.207-6.261 7.207-6.261s3.734-2.564 4.531-3.72c2.497-3.655 1.993-8.865 1.993-8.865s4.392-2.223 2.229-5.683c-2.164-3.468-11.876-7.791-13.414-5.145z"/><path fill="#AC5649" d="M185.787 288.902s-.374.098-.813.351c1.805.333 9.045 1.856 14.552 5.706l1.081-1.546c-5.547-3.884-12.51-5.487-14.918-5.943a2 2 0 0 0 .106 1.441z"/><path fill="#A84F4F" d="M199.452 284.295a31 31 0 0 0 2.628 2.011l-.383.863s-.715-.261-1.862-.587c4.132 2.166 6.938 5.259 7.654 6.106.13-1.229.097-2.222.073-2.703-1.627-1.636-4.441-4.054-8.11-5.698zm-10.956 18.912 2.635 1.099.496-1.824-2.245-1.058s-.488.879-.894 1.791zm-3.531-8.768s-.398.212-.667.708c1.863.407 6.996 2.858 11.282 5.227l.912-1.653c-2.994-1.653-9.753-5.226-12.511-5.479.423.741.984 1.205.984 1.205z"/><path fill="#4F463F" d="M207.782 666.196c-6.556.195-23.947-4.47-38.947-8.809-.74-.472-1.285-.708-1.626-.708-.139 0-.301.024-.488.097-3.758-1.09-7.313-2.149-10.461-3.085-5.922-1.758-8.98-2.654-10.631-3.077l-.22 1.897c2.139.569 6.141 1.758 10.314 2.995 2.937.872 6.239 1.849 9.72 2.866-.471 1.075-.902 2.565-1.138 3.68 1 .098 1.683.163 1.903.179.26-1.083.691-2.573 1.057-3.33.269.082.545.155.822.236a30 30 0 0 1 1.668 1.279c1.171.382 2.757.887 4.62 1.465q-.828-.745-1.57-1.392c13.966 3.956 28.9 7.774 35.025 7.595 2.847-.081 4.417-1.783 5.19-3.5-.285-.709-.716-1.466-1.285-2.28-.138.896-.822 3.794-3.962 3.883zm-149.612.545c-3.196-.505-4.286-2.467-4.644-3.533-.488.781-.83 1.522-.992 2.198.951 1.4 2.61 2.768 5.344 3.199.146.025.341.033.561.033 7.304 0 52.791-12.423 62.088-15.061-.065-.61-.138-1.229-.204-1.864-8.304 2.41-57.915 15.696-62.144 15.02z"/><path fill="#4F463F" d="M97.214 658.209c-.455.481-1.082 1.433-1.643 2.369 1.765-.569 2.79-.911 2.75-.895-.033.016-.033.073-.017.155.033-.049.073-.09.106-.131.602.171 1.96 1.083 3.473 2.304.749-.073 1.651-.154 2.636-.252-5.792-5.129-6.89-3.997-7.305-3.558z"/><path fill="#AEBACE" d="m171.325 251.373-.326 4.257 2.188.155.293-4.217z"/><path fill="#657799" d="M102.485 258.195c2.554-13.498 5.873-14.784 6.922-14.825.431-.016 1.098.057 1.887.855 2.205 2.239 3.628 7.75 4.32 13.962 0 0 .374.22 1.301.179.879-.033 1.383-.301 1.383-.301-.757-6.83-1.895-13.156-4.759-16.054-1.236-1.246-2.659-1.856-4.246-1.799-4.547.162-7.337 5.861-9.517 17.771 0 0 .399.261 1.18.359a3.4 3.4 0 0 0 1.529-.155z"/><path fill="#657799" d="M106.015 204.009c-.65-1.514-1.464-3.395-1.203-3.737.561-.708 1.879-1.367 3.278-1.872h-5.816c-1.342 1.799-.423 3.932.838 6.863 1.228 2.849 3.09 7.164 4.262 13.685 2.692 15.003.732 22.347.707 22.42l3.034.863c.09-.318 2.205-8.011-.642-23.845-1.236-6.887-3.181-11.397-4.474-14.385zm62.487-.106c-2.058-2.492-6.702-3.468-8.858-3.819l-1.171 3.021c2.57.464 6.523 1.506 7.597 2.808 4.588 5.553 6.369 22.803 4.767 46.135l3.147.22c.985-14.385 1.578-39.793-5.482-48.357z"/><path fill="#AEBACE" d="M104.421 282.878c-5.198-6.431-2.375-25.082-2.351-25.277 0 0-.325-.228-.854-.318-.618-.098-.935.073-.935.073-.106.782-2.408 18.138 2.245 25.913zm8.98-2.254 2.237-.53c1.855-4.119 3.164-10.575 2.221-22.583 0 0-.139-.146-.944-.097-.594.032-.854.244-.854.244.992 12.676-.789 19.376-2.66 22.966"/><path fill="#9AABBE" d="M232.64 607.049h24.15v-10.021l-24.15 1.652zm197.627 0h24.15v-10.021l-24.15 1.652zm19.936 17.699-.138-9.712-14.894.554s-1.146 16.917-.349 16.713c.789-.203 24.012 25.538 24.012 25.538h9.98s.757-23.755-.805-27.313c-1.57-3.557-17.798-5.78-17.798-5.78z"/><path fill="#69727A" d="M440.499 677.119c11.788 0 21.344-10.428 21.344-23.291 0-12.864-9.556-23.291-21.344-23.291s-21.344 10.427-21.344 23.291c0 12.863 9.556 23.291 21.344 23.291"/><path fill="#576068" d="M442.712 631.367c-10.68 0-19.376 10.168-19.376 22.673s8.688 22.672 19.376 22.672 19.367-10.168 19.367-22.672-8.687-22.673-19.367-22.673m0 43.448c-9.639 0-17.48-9.321-17.48-20.775s7.841-20.776 17.48-20.776 17.48 9.322 17.48 20.776-7.841 20.775-17.48 20.775"/><path fill="#576068" d="M442.712 646.005c-3.831 0-6.955 3.606-6.955 8.027s3.124 8.027 6.955 8.027 6.954-3.607 6.954-8.027c0-4.421-3.115-8.027-6.954-8.027m0 14.173c-2.79 0-5.068-2.751-5.068-6.138s2.27-6.138 5.068-6.138 5.067 2.751 5.067 6.138-2.269 6.138-5.067 6.138"/><path fill="#8091A4" d="M434.594 626.67a85 85 0 0 0-.049 1.896c2.937-.105 18.025-.219 24.394 8.418 5.458 7.4 5.491 16.836 5.198 20.857h1.903c.318-4.355.228-14.092-5.588-21.98-6.914-9.379-22.385-9.33-25.874-9.191z"/><path fill="#9AABBE" d="M447.991 604.893h-11.29v12.537h11.29z"/><path fill="#8091A4" d="M447.991 613.441h-11.29v1.889h11.29z"/><path fill="#9AABBE" d="M456.149 635.763c-9.167-6.895-16.959-5.869-16.959-5.869l-4.604 1.473h4.612l.032 3.713s8.517-1.368 14.284 4.884c5.767 6.261 4.392 17.878 4.392 17.878h5.182s2.237-15.183-6.939-22.087zm-204.134-11.015-.138-9.712-14.894.554s-1.147 16.917-.35 16.713c.789-.203 24.012 25.538 24.012 25.538h9.981s.756-23.755-.805-27.313c-1.57-3.557-17.798-5.78-17.798-5.78z"/><path fill="#69727A" d="M242.311 677.119c11.788 0 21.344-10.428 21.344-23.291 0-12.864-9.556-23.291-21.344-23.291s-21.344 10.427-21.344 23.291c0 12.863 9.556 23.291 21.344 23.291"/><path fill="#576068" d="M244.523 631.367c-10.68 0-19.375 10.168-19.375 22.673s8.687 22.672 19.375 22.672 19.368-10.168 19.368-22.672-8.688-22.673-19.368-22.673m0 43.448c-9.639 0-17.48-9.321-17.48-20.775s7.841-20.776 17.48-20.776 17.481 9.322 17.481 20.776-7.842 20.775-17.481 20.775"/><path fill="#576068" d="M244.523 646.005c-3.831 0-6.954 3.606-6.954 8.027s3.123 8.027 6.954 8.027c3.832 0 6.955-3.607 6.955-8.027 0-4.421-3.115-8.027-6.955-8.027m0 14.173c-2.79 0-5.067-2.751-5.067-6.138s2.269-6.138 5.067-6.138 5.068 2.751 5.068 6.138-2.269 6.138-5.068 6.138"/><path fill="#8091A4" d="M236.414 626.67a79 79 0 0 0-.049 1.896c2.936-.105 18.025-.219 24.394 8.418 5.458 7.4 5.491 16.836 5.198 20.857h1.903c.317-4.355.228-14.092-5.588-21.98-6.914-9.379-22.385-9.33-25.875-9.191z"/><path fill="#9AABBE" d="M249.802 604.893h-11.29v12.537h11.29z"/><path fill="#8091A4" d="M249.802 613.441h-11.29v1.889h11.29z"/><path fill="#9AABBE" d="M257.961 635.763c-9.167-6.895-16.96-5.869-16.96-5.869l-4.604 1.473h4.612l.033 3.713s8.516-1.368 14.284 4.884c5.767 6.261 4.392 17.878 4.392 17.878h5.181s2.237-15.183-6.938-22.087z"/><path fill="#7D91A4" d="M526.111 450.377c-8.923-11.927-18.115-23.275-18.204-23.389l-8.069 6.553c14.918 18.391 31.544 40.843 33.936 46.965-5.223 9.525-46.178 64.876-71.768 98.84l8.297 6.26c.179-.236 18.18-24.138 36.083-48.463 36.888-50.091 37.466-53.022 37.856-54.951.521-2.606-.26-5.78-5.743-14.296-2.944-4.575-7.109-10.469-12.396-17.527z"/><path fill="#8091A4" d="M454.417 602.344h-24.15v1.889h24.15zm-197.627 0h-24.15v1.889h24.15z"/><path fill="#9AABBE" d="M572.402 387.26h-255.94v10.396h255.94z"/><path fill="#7D91A4" d="M-146.249 537.347v45.134s609.573 2.043 609.573 0-8.907-25.522-8.907-25.522l38.572-3.704 8.76-13.124h-67.212zm69.67 28.958s-21.955.586-22.687 0c-.732-.587 6.1-10.966 6.1-10.966h16.586zm115.016 1.001-1.749-6.261H17.337l-2.912 5.52H4.24s4.075-9.598 4.66-10.038c.586-.439 37.84 0 37.84 0l1.018 10.779z"/><path fill="#A7BACD" d="M351.349 320.447c-20.441-16.453-22.45-16.314-24.785-16.168-2.724.179-4.563 2.06-7.816 6-2.058 2.483-4.824 6.065-8.232 10.632-6.019 8.068-14.129 19.368-22.841 31.84-8.077 11.56-16.138 23.364-22.133 32.384-10.737 16.184-10.794 17.194-10.883 18.863-.139 2.67 1.326 4.893 6.84 10.347 2.961 2.931 7.077 6.741 12.242 11.332a862 862 0 0 0 13.576 11.797l-18.415 24.886h12.607l83.302-112.565 8.866-10.77-3.758-3.199c-.089-.074-9.159-7.791-18.57-15.371zm-85.522 83.022c3.571-6 15.081-23.316 29.811-44.409 16.667-23.87 27.421-38.263 31.781-43.375 2.79 1.799 7.475 5.332 12.811 9.541l-65.472 86.97c-4.043-3.721-7.239-6.822-8.923-8.719zm90.915-59.812-63.064 85.22a863 863 0 0 1-11.371-9.875l65.829-87.434a886 886 0 0 1 11.038 9.126l-2.44 2.963z"/><path fill="#fff" d="M326.564 304.287c-2.724.179-4.563 2.06-7.816 6-2.058 2.483-4.824 6.065-8.232 10.632-6.019 8.068-14.129 19.367-22.841 31.839-8.077 11.56-16.138 23.365-22.133 32.385-10.737 16.184-10.794 17.194-10.883 18.863-.139 2.67 1.326 4.892 6.84 10.347.684.676 1.44 1.408 2.245 2.182l.074-.098c-.277-.277-.553-.537-.814-.798-5.507-5.454-6.979-7.677-6.841-10.347.09-1.669.139-2.678 10.884-18.863 5.987-9.028 14.056-20.832 22.133-32.384 8.712-12.464 16.821-23.772 22.841-31.84 3.408-4.567 6.173-8.141 8.231-10.632 3.262-3.94 5.092-5.821 7.817-6 .309-.024.618-.04.96-.016.147-.285.358-.537.61-.725-1.505-.635-2.269-.586-3.083-.537z" opacity="0.59"/><path fill="#9AABBE" d="M355.546 320.447c-20.441-16.453-22.45-16.314-24.784-16.168-2.725.179-4.564 2.06-7.817 6-2.058 2.483-4.824 6.065-8.232 10.632-6.019 8.068-14.129 19.368-22.841 31.84-8.077 11.56-16.138 23.364-22.133 32.384-10.737 16.184-10.794 17.194-10.883 18.863-.138 2.67 1.326 4.893 6.841 10.347 2.96 2.931 7.076 6.741 12.242 11.332a858 858 0 0 0 13.575 11.797l-18.415 24.886h12.608l83.301-112.565 8.867-10.77-3.758-3.199c-.09-.074-9.159-7.791-18.571-15.371zm-85.522 83.022c3.571-6 15.081-23.316 29.812-44.409 16.666-23.87 27.42-38.263 31.78-43.375 2.79 1.799 7.475 5.332 12.811 9.541l-65.472 86.97c-4.042-3.721-7.239-6.822-8.923-8.719zm90.915-59.812-63.064 85.22a870 870 0 0 1-11.371-9.875l65.829-87.434a879 879 0 0 1 11.038 9.126l-2.44 2.963z"/><path fill="#E4E9F4" d="M543.421 307.071c-4.572-1.302-188.192-8.019-191.12-5.088-3.669 3.655-113.113 148.263-120.621 148.646s-331.979 4.022-336.762 14.181c-4.774 10.16-10.289 66.317-7.898 68.71s547.574 2.988 557.132 0 133.269-190.213 132.61-193.283c-.65-3.069-28.762-31.863-33.333-33.166z"/><path fill="#C5CFE9" d="M399.731 310.792c-.09-.513-37.1-8.296-50.44-.106-11.502 7.05-46.983 65.6-31.089 75.613 15.903 10.005 138.606 27.5 154.508 15.696s31.748-75.67 23.541-87.222-96.431-3.46-96.52-3.973z"/><path fill="#ACB9D5" d="M431.828 338.862a105 105 0 0 0-27.77 8.589 103 103 0 0 0-7.353 3.818c-.903.513-.488 1.986.602 1.774 7.565-1.489 15.341-2.491 22.995-1.074.505.089.976-.399 1.017-.871.041-.554-.366-.92-.87-1.018-5.849-1.083-11.795-.773-17.651.082a102.8 102.8 0 0 1 21.376-7.832 104 104 0 0 1 8.02-1.62c1.204-.195.838-2.052-.358-1.856z"/><path fill="#3C6187" d="M450.48 383.938c-.456-10.225-13.788-16.021-13.788-16.021s.367 2.825 0-4.461c-.366-7.286-22.693-9.034-23.238-10.499-.545-1.466 17.308-44.819 10.061-51.022 0 0-6.613-.277-7.142 0-.528.276-24.695 53.193-24.695 56.734s28.405 31.489 29.852 33.394c1.448 1.905-22.678 51.996-29.852 57.565s-61.453 7.522-69.27 7.115-38.865 14.068-38.865 14.068 3.986 7.929 6.654 7.611c2.668-.317 13.486-9.101 14.039-9.199.545-.098 76.429 1.677 83.546 0s16.52-8.792 17.602-8.939c1.082-.146 3.652 3.55 3.823 3.745.171.187 11.12-21.573 11.12-21.573s11.241-.521 12.396-.644c1.155-.13 18.212-47.649 17.757-57.874" opacity="0.21"/><path fill="#06D0A0" d="M399.121 358.807s-.317.912.049 1.099c1.033.537 5.856 2.133 5.856 2.133s-11.022 6.065-28.119 6.065c-12.413 0-14.422-9.053-14.422-9.053l9.639-1.31.203-.595c-.317-.065-27.957 1.23-41.777 10.103-5.897 3.786-16.341 19.058-30.584 31.042-.578.488.358 5.861.358 5.861-6.703 5.39-12.405 8.727-20.629 11.015-7.955 2.214-23.076 7.807-24.597 6.35-.301-.285 15.39 49.985 16.203 50.417 7.215 3.826 40.589-2.369 77.567-1.661 42.753.814 65.163-36.292 65.708-35.747s9.932 2.337 9.932 2.337 20.123-42.797 15.487-57.948c-4.645-15.15-40.882-20.108-40.882-20.108z"/><path fill="#09A781" d="m313.054 396.825 1.797.766 12.917-16.527-1.488-1.172z"/><path fill="#D1D9E8" d="M353.537 361.193c1.708.033 3.498-1.091 4.059-2.524-2.017.318-4.148.692-6.312 1.14.268.806 1.09 1.36 2.253 1.384m56.63 1.107c.83.016 1.676-.244 2.4-.676a127 127 0 0 0-4.734-1.172c.065 1.05.967 1.815 2.342 1.848zm-79.291 9.225c-1.741-.033-3.58 1.131-4.1 2.613-.521 1.473.464 2.703 2.212 2.735 1.741.033 3.579-1.131 4.1-2.613s-.464-2.703-2.212-2.735m18.879.366c-1.741-.033-3.579 1.131-4.1 2.613s.464 2.703 2.213 2.735c1.74.033 3.579-1.131 4.099-2.613.521-1.473-.463-2.703-2.212-2.735m18.879.374c-1.741-.032-3.579 1.132-4.099 2.614-.521 1.481.463 2.702 2.212 2.735s3.579-1.132 4.1-2.613c.52-1.474-.464-2.703-2.213-2.736m18.871.367c-1.74-.033-3.579 1.131-4.099 2.613-.521 1.473.463 2.703 2.212 2.735 1.741.033 3.579-1.131 4.1-2.613.52-1.474-.464-2.703-2.213-2.735m18.88.365c-1.741-.032-3.579 1.132-4.1 2.614s.464 2.702 2.213 2.735c1.748.032 3.579-1.132 4.099-2.613.521-1.474-.464-2.703-2.212-2.736m18.879.375c-1.741-.033-3.579 1.131-4.1 2.613-.52 1.473.464 2.703 2.213 2.735s3.579-1.131 4.1-2.613c.52-1.473-.464-2.703-2.213-2.735m-82.025-9.606c-1.74-.033-3.579 1.131-4.099 2.613-.521 1.474.463 2.703 2.212 2.735 1.741.033 3.579-1.131 4.1-2.613.52-1.473-.464-2.703-2.213-2.735m18.88.374c-1.741-.032-3.579 1.132-4.1 2.614s.464 2.702 2.213 2.735c1.74.033 3.579-1.132 4.099-2.613.521-1.474-.464-2.703-2.212-2.736m14.788 3.965h-.131c.114 1.001 1.001 1.726 2.335 1.75 1.488.033 3.05-.822 3.79-1.994a70 70 0 0 1-5.994.252zm22.97-3.232c-1.74-.032-3.579 1.132-4.099 2.613-.521 1.482.463 2.703 2.212 2.736 1.741.032 3.579-1.132 4.1-2.613.52-1.474-.464-2.703-2.213-2.736m18.872.375c-1.741-.033-3.579 1.131-4.1 2.613-.521 1.474.464 2.703 2.212 2.735s3.58-1.131 4.1-2.613c.521-1.473-.464-2.703-2.212-2.735m-93.112 21.101c-1.741-.032-3.579 1.132-4.1 2.614s.464 2.702 2.213 2.735c1.741.033 3.579-1.132 4.1-2.613s-.464-2.703-2.213-2.736m18.879.367c-1.74-.033-3.579 1.131-4.099 2.613-.521 1.473.463 2.703 2.212 2.735 1.741.033 3.579-1.131 4.1-2.613.521-1.474-.464-2.703-2.213-2.735m18.88.374c-1.741-.033-3.579 1.132-4.1 2.613s.464 2.703 2.213 2.736c1.74.032 3.579-1.132 4.099-2.614.521-1.473-.463-2.702-2.212-2.735m18.871.366c-1.741-.032-3.579 1.132-4.1 2.614-.52 1.473.464 2.702 2.213 2.735s3.579-1.132 4.099-2.613c.521-1.482-.463-2.703-2.212-2.736m18.879.367c-1.74-.033-3.579 1.131-4.099 2.613-.521 1.474.463 2.703 2.212 2.735 1.741.033 3.579-1.131 4.1-2.613.52-1.473-.464-2.703-2.213-2.735m18.88.373c-1.741-.032-3.579 1.132-4.1 2.614-.521 1.473.464 2.702 2.212 2.735 1.741.033 3.58-1.132 4.1-2.613.521-1.474-.464-2.703-2.212-2.736m14.779 2.98c-.52 1.474.464 2.703 2.213 2.736.984.016 2.001-.342 2.79-.936.252-1.368.455-2.703.602-3.989-.391-.261-.903-.416-1.497-.424-1.741-.032-3.579 1.132-4.099 2.613zM319.65 378.273a561 561 0 0 1-4.164 4.673c.406.374 1.008.602 1.748.619 1.741.032 3.579-1.132 4.1-2.614.464-1.318-.276-2.434-1.684-2.678m18.351.318c-1.741-.033-3.579 1.131-4.1 2.613-.52 1.473.464 2.703 2.213 2.735 1.741.033 3.579-1.131 4.099-2.613.521-1.482-.463-2.703-2.212-2.735m18.879.374c-1.74-.033-3.579 1.132-4.099 2.613-.521 1.474.463 2.703 2.212 2.736 1.749.032 3.579-1.132 4.1-2.614.52-1.473-.464-2.702-2.213-2.735m18.98 5.28c1.72-.83 2.637-2.492 2.05-3.71-.588-1.219-2.458-1.534-4.178-.704s-2.637 2.492-2.049 3.711 2.458 1.534 4.177.703m18.771-4.547c-1.741-.033-3.579 1.132-4.1 2.613-.52 1.474.464 2.703 2.213 2.736 1.74.032 3.579-1.132 4.099-2.614.521-1.473-.463-2.703-2.212-2.735m18.879.374c-1.741-.032-3.579 1.132-4.099 2.614-.521 1.473.463 2.702 2.212 2.735 1.741.033 3.579-1.132 4.1-2.613.52-1.474-.464-2.703-2.213-2.736m18.88.367c-1.741-.033-3.579 1.131-4.1 2.613-.521 1.473.464 2.703 2.212 2.735 1.741.033 3.579-1.131 4.1-2.613.521-1.474-.464-2.703-2.212-2.735m-74.241 21.476c-1.74-.033-3.579 1.131-4.099 2.613-.521 1.473.463 2.703 2.212 2.735 1.741.033 3.579-1.131 4.1-2.613s-.464-2.703-2.213-2.735m18.88.366c-1.741-.033-3.579 1.132-4.1 2.613-.521 1.474.464 2.703 2.212 2.736 1.741.032 3.579-1.132 4.1-2.614.521-1.473-.464-2.702-2.212-2.735m18.879.366c-1.741-.033-3.579 1.131-4.1 2.613-.52 1.473.464 2.703 2.213 2.735 1.741.033 3.579-1.131 4.099-2.613.521-1.474-.463-2.703-2.212-2.735m18.879.374c-1.74-.032-3.579 1.132-4.099 2.613-.521 1.474.463 2.703 2.212 2.736 1.749.032 3.579-1.132 4.1-2.613.52-1.474-.464-2.703-2.213-2.736m18.871.367c-1.74-.033-3.579 1.131-4.099 2.613-.521 1.482.463 2.703 2.212 2.735s3.579-1.131 4.1-2.613c.52-1.473-.464-2.703-2.213-2.735m-119.775-10.339c-1.74-.033-3.579 1.132-4.099 2.613-.521 1.474.463 2.703 2.212 2.736 1.741.032 3.579-1.132 4.1-2.614s-.464-2.702-2.213-2.735m18.88.366c-1.741-.032-3.579 1.132-4.1 2.613s.464 2.703 2.212 2.736c1.749.032 3.579-1.132 4.1-2.613.521-1.474-.464-2.703-2.212-2.736m18.879.375c-1.741-.033-3.579 1.131-4.1 2.613-.52 1.473.464 2.703 2.213 2.735 1.741.033 3.579-1.131 4.099-2.613.521-1.482-.463-2.703-2.212-2.735m18.879.366c-1.74-.032-3.579 1.132-4.099 2.614-.521 1.473.463 2.703 2.212 2.735 1.741.033 3.579-1.131 4.1-2.613s-.464-2.703-2.213-2.736m18.871.367c-1.74-.033-3.579 1.131-4.099 2.613-.521 1.473.463 2.703 2.212 2.735 1.741.033 3.579-1.131 4.1-2.613.52-1.474-.464-2.703-2.213-2.735m18.88.374c-1.741-.032-3.579 1.132-4.1 2.613-.52 1.474.464 2.703 2.213 2.736 1.74.032 3.579-1.132 4.099-2.613.521-1.474-.463-2.703-2.212-2.736m18.879.366c-1.741-.032-3.579 1.132-4.099 2.614-.521 1.473.463 2.702 2.212 2.735 1.741.032 3.579-1.132 4.1-2.613.52-1.474-.464-2.703-2.213-2.736m-55.361 21.843c-1.74-.033-3.579 1.131-4.099 2.613-.521 1.473.463 2.703 2.212 2.735 1.741.033 3.579-1.131 4.1-2.613s-.464-2.703-2.213-2.735m18.88.374c-1.741-.033-3.58 1.131-4.1 2.613-.521 1.474.464 2.703 2.212 2.735s3.579-1.131 4.1-2.613c.521-1.473-.464-2.703-2.212-2.735m18.871.366c-1.741-.033-3.579 1.131-4.1 2.613s.464 2.703 2.213 2.735c1.74.033 3.579-1.131 4.099-2.613.521-1.473-.463-2.703-2.212-2.735m18.879.367c-1.741-.033-3.579 1.131-4.1 2.613-.52 1.473.464 2.703 2.213 2.735 1.741.033 3.579-1.131 4.099-2.613.521-1.474-.463-2.703-2.212-2.735m-63.145-9.232c-1.741-.032-3.579 1.132-4.1 2.613-.52 1.474.464 2.703 2.213 2.736 1.74.032 3.579-1.132 4.099-2.614.521-1.473-.463-2.702-2.212-2.735m18.879.366c-1.741-.032-3.579 1.132-4.1 2.614-.52 1.473.464 2.702 2.213 2.735 1.741.033 3.579-1.132 4.099-2.613.521-1.474-.463-2.703-2.212-2.736m18.879.375c-1.74-.033-3.579 1.132-4.099 2.613-.521 1.474.463 2.703 2.212 2.736 1.741.032 3.579-1.132 4.1-2.614.521-1.473-.464-2.703-2.213-2.735m18.88.366c-1.741-.032-3.579 1.132-4.1 2.613-.52 1.474.464 2.703 2.213 2.736 1.748.032 3.579-1.132 4.099-2.614.521-1.473-.463-2.702-2.212-2.735m-36.482 22.216c-1.741-.032-3.579 1.132-4.099 2.614-.521 1.473.463 2.702 2.212 2.735 1.741.033 3.579-1.132 4.1-2.613.52-1.474-.464-2.703-2.213-2.736m18.871.367c-1.74-.033-3.579 1.131-4.099 2.613-.521 1.473.463 2.703 2.212 2.735s3.579-1.131 4.1-2.613c.52-1.474-.464-2.703-2.213-2.735m18.88.366c-1.741-.032-3.579 1.132-4.1 2.614-.008.032-.016.065-.033.097 2.636.578 5.458 1.116 5.458 1.116s.366-.782.993-2.166c-.155-.952-1.033-1.628-2.318-1.653zm-44.266-8.865c-1.741-.033-3.579 1.132-4.1 2.613-.521 1.474.464 2.703 2.213 2.736 1.74.032 3.579-1.132 4.099-2.613.521-1.474-.463-2.703-2.212-2.736m18.879.375c-1.741-.033-3.579 1.131-4.1 2.613-.52 1.473.464 2.703 2.213 2.735 1.741.033 3.579-1.131 4.1-2.613.52-1.474-.464-2.703-2.213-2.735m18.871.366c-1.74-.033-3.579 1.131-4.099 2.613-.521 1.474.463 2.703 2.212 2.735 1.741.033 3.579-1.131 4.1-2.613s-.464-2.703-2.213-2.735" opacity="0.69"/><path fill="#EAF3FF" d="M392.719 452.705c-3.75-2.108-4.612-16.184-20.376-33.476-15.235-16.713-41.825-28.175-65.13-22.395-9.281 2.304-12.811 9.354-17.813 11.747-1.302.619-6.313-3.794-7.614-3.216-1.139.505-2.57 3.525-3.799 3.973-4.075 1.474-9.679 4.062-16.675 4.584-18.334 1.375-44.672-1.059-75.118-.538-1.839.033-3.181-3.256-5.044-3.224-2.236.033-4.994 3.387-7.272 3.42-1.122.016-1.805-3.444-2.936-3.42-2.465.033-5.385 3.542-7.89 3.574-100.693 1.368-228.83 1.49-248.84 12.83-29.828 16.893-35.098 85.139-35.098 85.139s194.479-2.321 198.033-.114c3.498 2.173.814 13.562.814 13.562l333.597-.187s10.452-42.194 2.245-54.87-17.334-15.272-21.084-17.381z"/><path fill="#09A781" d="M377.5 370.359c-8.85-.35-14.706-2.507-17.423-6.431-1.31-1.897-1.61-3.884-1.594-5.398-.627.098-1.269.196-1.912.302.025 1.766.448 3.989 1.936 6.146 3.059 4.453 9.428 6.895 18.92 7.27q1.183.048 2.343.049c16.496 0 28.233-6.896 33.7-10.942-.838-.195-1.66-.382-2.457-.562-5.979 4.12-17.586 10.185-33.513 9.566"/><path fill="#E2E9F3" d="m428.339 487.174 1.578 1.042c29.12-44.083 105.508-159.139 109.233-162.168l-1.155-1.498c-4.506 3.493-105.361 156.119-109.656 162.616z"/><path fill="#ACB9D5" d="m350.747 346.237-1.366-1.001a422 422 0 0 0-2.937-2.117c-.398-.285-1.049-.171-1.309.253a.967.967 0 0 0 .252 1.311c.854.618 1.716 1.229 2.57 1.856.399.285.789.578 1.188.863q.317.23.634.472l.025.016c-.228.008-.456.016-.676.041a7.5 7.5 0 0 0-2.83.928c-.431.244-.683.806-.423 1.27.236.431.805.684 1.269.423a8 8 0 0 1 1.082-.496c.016 0 .04-.017.081-.025.065-.016.13-.041.195-.057a7 7 0 0 1 .797-.163l.407-.049q.183-.012.049 0h.203c.626 0 1.237.025 1.716-.455.497-.505.521-1.222.22-1.84-.252-.521-.675-.896-1.131-1.23zm128.78-13.196c-.748-.953-2.172.293-1.415 1.245 3.408 4.331 4.807 10.144 3.627 15.542-1.195 5.438-4.709 9.899-9.492 12.667-2.79 1.612-5.832 2.735-8.899 3.696-.716.228-1.106 1.237-.35 1.709 1.44.888 3.425 2.044 3.474 3.981.04 1.677-1.863 2.418-3.148 2.947-1.123.464-.277 2.158.838 1.694 1.968-.814 4.197-2.101 4.189-4.535 0-2.011-1.229-3.443-2.709-4.583 5.165-1.767 10.184-4.144 13.722-8.45 3.783-4.608 5.393-10.812 4.344-16.673a21 21 0 0 0-4.173-9.248z"/><path fill="#ABBADA" d="M172.78 460.089c-2.855-3.281-3.204-49.53-66.146-48.089-49.464 1.132-154.687-.22-198.961 16.453-44.275 16.681-46.064 105.881-46.056 105.881l354.25-1.978s7.142-39.492 0-51.882-40.231-17.112-43.087-20.393z"/><path fill="#98A9C8" d="M173.919 511.345c-20.116 3.63-64.504-14.003-70.946-22.413-10.387-13.554 19.156-47.356-6.385-46.721-3.473.09-80.178 3.933-83.708 4.038-45.755 1.417-55.386-6.455-82.31 3.688-44.274 16.681-68.961 84.398-68.953 84.398l354.25-1.979s7.142-39.491 0-51.882-37.669 30.089-41.948 30.862z" opacity="0.58"/><path fill="#8093B6" d="M110.912 474.206c-5.564 2.369-11.038 21.15-16.268 55.806-.171 1.115-.318 2.076-.35 2.239l.911.244.895.301c.057-.163.09-.375.406-2.491 6.727-44.531 12.372-53.161 15.138-54.349 3.823-1.628 45.812-2.841 94.38-3.672a61 61 0 0 0-3.798-1.815c-45.348.798-87.231 2.003-91.322 3.745z" opacity="0.44"/><path fill="#9AABBE" d="M-147.746 573.493v28.672h613.9l103.019-11.975v-16.901c-92.688-.798-716.927-.895-716.927.204z"/><path fill="#D5E3EE" d="M360.085 463.639a30 30 0 0 0-4.278-.985c-.098-.017-.651-.122-1.05-.171.074-.171.13-.358.196-.489.26-.537.553-1.058.829-1.579.602-1.107 1.204-2.223 1.668-3.403 1.708-4.372 1.496-9.338-.187-13.677-1.725-4.445-5.068-8.181-9.045-10.762-1.278-.822-2.603 1.131-1.318 1.962 3.375 2.182 6.19 5.218 7.849 8.898 1.798 3.997 2.074 8.694.472 12.797-.439 1.132-1.033 2.182-1.602 3.249-.529.985-1.326 2.124-1.4 3.272-.097 1.409 1.074 1.987 2.278 2.117.911.098 1.814.228 2.709.431 3.709.839 7.182 2.492 10.208 4.787 3.384 2.573 6.109 5.951 7.866 9.827.626 1.384 2.741.333 2.115-1.051-3.27-7.221-9.769-12.846-17.31-15.223"/><path fill="#09A781" d="M410.566 393.887c-1.229 2.076-3.433 6.048-7.541 13.742-4.05 7.587-8.663 16.461-9.435 18.61-.114.317-.293.806 0 1.262.317.496 1.073 1.074 6.727 2.654l.325.089.529-1.815-.35-.098c-3.359-.936-4.767-1.465-5.344-1.742 1.562-3.778 13.128-25.709 16.789-31.929-.57-.261-1.131-.521-1.7-.782z"/><path fill="#D5E3EE" d="M381.567 458.013c-7.971-.781-15.975.22-23.865 1.327-7.996 1.124-15.992 2.264-23.988 3.395-4.506.635-9.012 1.278-13.519 1.913-1.204.171-.837 2.027.358 1.856 7.923-1.123 15.854-2.238 23.776-3.362 7.915-1.123 15.829-2.45 23.793-3.167 4.425-.398 8.874-.513 13.299-.073 1.212.122 1.35-1.766.146-1.889"/><path fill="#8FA0B1" d="M83.996 422.747c-1.537-2.369-4.083-2.964-9.557-3.485-22.036-2.092-96.74-1.595-119.117-1.4-23.597.212-47.308.586-65.057 1.026-30.616.757-30.852 1.001-32.707 2.923-1.505 1.555-2.326 2.417-3.376 22.151-.504 9.492-1 22.494-1.464 38.645-.585 20.279-.984 40.559-1.155 49.88H88.714c-.081-9.224-.293-29.055-.716-49.017-1.187-56.392-2.75-58.794-4.002-60.715zm-184.661 12.26c-10.363.187-20.791.537-25.533.936-.504 3.094-1.082 8.703-1.513 14.337a5.2 5.2 0 0 1-5.491 4.795 5.2 5.2 0 0 1-4.864-5.585c.147-1.873.326-4.071.537-6.309 1.204-12.611 2.164-14.483 4.222-16.006 1.513-1.115 2.342-1.725 20.872-2.287 4.23-.13 8.427-.22 11.575-.277 2.88-.057 5.246 2.247 5.287 5.129a5.197 5.197 0 0 1-5.1 5.259zm93.34-.081h-59.356a5.2 5.2 0 0 1-5.197-5.202 5.2 5.2 0 0 1 5.197-5.203h59.355a5.2 5.2 0 0 1 5.198 5.203 5.2 5.2 0 0 1-5.198 5.202m80.047 23.104a5.19 5.19 0 0 1-5.336-4.95c-.276-6-.724-12.032-1.203-15.329-5.808-.351-17.294-.717-30.365-.945a5.19 5.19 0 0 1-5.1-5.267 5.196 5.196 0 0 1 5.279-5.129c35.928.578 35.074 1.327 36.132 1.775 3.391 1.457 4.376 4.689 5.238 17.283.17 2.54.309 5.048.398 7.132a5.194 5.194 0 0 1-5.043 5.43"/><path fill="#9AABBE" d="M75.83 422.747c-1.538-2.369-4.084-2.964-9.558-3.485-22.035-2.092-96.74-1.595-119.116-1.4-23.598.212-47.308.586-65.057 1.026-30.617.757-30.853 1.001-32.708 2.923-1.504 1.555-2.326 2.417-3.375 22.151-.505 9.492-1.001 22.494-1.464 38.645-.586 20.279-.985 40.559-1.155 54.748h237.15a3647 3647 0 0 0-.715-53.885c-1.188-56.392-2.75-58.794-4.002-60.715zm-184.662 12.26c-10.362.187-20.79.537-25.533.936-.504 3.094-1.082 8.703-1.513 14.337a5.195 5.195 0 0 1-5.49 4.795 5.197 5.197 0 0 1-4.864-5.585c.146-1.873.325-4.071.536-6.309 1.204-12.611 2.164-14.483 4.222-16.006 1.513-1.115 2.343-1.725 20.872-2.287 4.23-.13 8.427-.22 11.575-.277 2.88-.057 5.247 2.247 5.287 5.129a5.196 5.196 0 0 1-5.1 5.259zm93.34-.081h-59.355a5.2 5.2 0 0 1-5.198-5.202 5.2 5.2 0 0 1 5.198-5.203h59.355a5.2 5.2 0 0 1 5.197 5.203 5.2 5.2 0 0 1-5.197 5.202m80.048 23.104a5.19 5.19 0 0 1-5.336-4.95c-.277-6-.724-12.032-1.204-15.329-5.808-.351-17.293-.717-30.365-.945a5.19 5.19 0 0 1-5.1-5.267 5.196 5.196 0 0 1 5.28-5.129c35.927.578 35.073 1.327 36.13 1.775 3.393 1.457 4.377 4.689 5.24 17.283.17 2.54.308 5.048.398 7.132a5.194 5.194 0 0 1-5.043 5.43"/><path fill="#D1DAE1" d="M-132.868 475.069c-.203.212-1.115 61.847 1.399 62.685 2.513.839 185.597 1.401 186.613 0 1.009-1.4 1.009-63.247-.943-64.598-1.952-1.352-185.109-.13-187.061 1.913z"/><path fill="#3C6187" d="M290.189 478.431c2.668-.318 13.486-9.102 14.039-9.2.545-.097 76.428 1.677 83.546 0 7.117-1.677 16.52-8.792 17.602-8.939-5.352-4.583-10.176-6.195-12.657-7.587-.724-.407-1.342-1.27-1.976-2.507-9.997 5.137-60.803 6.936-68.343 6.545-7.817-.407-38.865 14.068-38.865 14.068s3.986 7.929 6.654 7.611z" opacity="0.15"/><path fill="#FDA77E" d="M273.863 459.177c-9.671 5.316-13.258 10.673-13.673 12.716-.407 2.044 1.366 2.321 1.366 2.321s-1.041 2.678 0 3.272c1.041.595 2.359-.089 2.359-.089s0 1.498 1.725 2.002c1.724.497 3.815-1.139 3.815-1.139s.17 1.343 2.082 1.424c1.911.082 7.654-5.413 9.964-6.057 2.31-.643 5.54 3.078 12.21 0s9.817-6.236 9.744-7.107-10.005-13.115-9.948-13.139c0 0-9.972.472-19.644 5.796"/><path fill="#FDA77E" d="M399.064 425.074s-14.088 15.541-25.379 19.123c-11.29 3.582-68.172 6.798-80.17 9.192-16.951 3.37-21.994 12.83-21.506 13.139 2.985 1.848 16.39 6.423 16.39 6.423s12.38-5.34 15.064-6.13c2.725-.806 73.297 2.475 87.434-4.323 16.431-7.896 29.438-29.429 28.608-30.927s-13.006-6.676-20.441-6.497"/><path fill="#CE6851" d="m284.869 466.659-.895-1.572c-3.782 2.158-15.919 9.436-15.252 13.653.448-.261.741-.48.741-.48s.114.871 1.163 1.253c0-.309-.025-.651-.122-1.026-.488-1.97 7.077-7.668 14.373-11.828zm-6.174-3.997c-1.456 1.034-14.243 10.233-15.227 14.002-.09.342-.155.66-.22.969.399-.098.675-.236.675-.236s0 1.001.944 1.636c.049-.513.155-1.148.35-1.913.618-2.369 9.24-9.224 14.527-12.985l-1.041-1.473zm-17.139 11.552s-.138.358-.26.83c1.407-2.345 5.377-7.978 13.088-12.464l-.903-1.563c-7.288 4.242-11.347 9.378-13.194 12.22.366.83 1.269.977 1.269.977"/><path fill="#8FA0B1" d="M288.96 468.759c-.594-2.173-2.286-3.606-5.027-4.241-8.036-1.872-45.616-2.206-75.354-1.937-17.277.162-33.31.537-45.153 1.066-6.45.285-11.583.619-15.26.977-6.238.61-8.248 1.221-9.777 2.947-1.464 1.653-3.278 3.72-4.596 30.463a869 869 0 0 0-.821 24.627l-.09 5.283h158.429l-.114-5.308c-.309-14.873-1.147-49.904-2.237-53.885zm-142.738 6.538c6.979-1.018 30.983-2.109 66.879-2.361 34.611-.236 58.176.456 66.09 1.327.244 3.533.513 9.72.773 17.177H144.571c.472-7.294 1.033-13.204 1.651-16.143m-2.757 42.251c.13-5.251.309-10.607.545-15.712h136.279c.147 5.088.285 10.429.407 15.712z"/><path fill="#9AABBE" d="M292.531 468.759c-.594-2.173-2.285-3.606-5.027-4.241-8.036-1.872-45.616-2.206-75.354-1.937-17.277.162-33.31.537-45.153 1.066-6.45.285-11.583.619-15.26.977-6.238.61-8.248 1.221-9.777 2.947-1.464 1.653-3.278 3.72-4.596 30.463a869 869 0 0 0-.821 24.627l-.09 5.283h158.429l-.114-5.308c-.309-14.873-1.147-49.904-2.237-53.885zm-142.738 6.538c6.979-1.018 30.983-2.109 66.879-2.361 34.611-.236 58.176.456 66.09 1.327.244 3.533.513 9.72.773 17.177H148.142c.472-7.294 1.033-13.204 1.651-16.143m-2.757 42.251c.13-5.251.309-10.607.545-15.712H283.86c.147 5.088.285 10.429.407 15.712z"/><path fill="#9AABBE" d="m241.473 525.868 19.327 18.863-58.094-.481c-4.563-3.557-21.287-17.356-31.813-26.1l-6.637 8.003c.081.065 7.231 6.016 15.43 12.765 4.824 3.973 7.638 9.061 10.445 11.332 1.683 1.36 5.108 3.59 6.035 4.315 1.879 1.465 2.953.073 4.799.073l85.588.717-37.832-36.92-7.256 7.449z"/><path fill="#8FA0B1" d="M551.075 337.307c-19.067-14.548-19.709-16.412-21.914-16.429-.244 0-3.351.53-3.579.546-2.716.179-4.449 2.06-7.499 6-1.928 2.483-4.507 6.065-7.671 10.632-5.588 8.068-13.104 19.367-21.157 31.839-7.467 11.56-14.909 23.365-20.424 32.385-9.883 16.184-9.883 17.194-9.883 18.863 0 2.67 1.586 4.892 7.385 10.347 3.116 2.931 7.435 6.74 12.844 11.332 5.239 4.445 13.641 11.015 17.212 13.929l9.647-2.222 60.29-87.719 7.777-11.373-3.742-3.012c-.098-.074-9.509-7.653-19.27-15.102zm-53.539 38.897c15.422-23.893 25.427-38.295 29.502-43.391 2.888 1.775 7.785 5.292 13.365 9.468l-30.251 43.212-12.624-9.264v-.016zm-27.461 44.409c2.318-4.282 8.378-14.303 16.594-27.345 3.384 2.719 8.183 6.545 11.599 9.216l-18.806 26.857c-4.238-3.721-7.605-6.823-9.387-8.728m87.686-59.697-58.492 85.105a792 792 0 0 1-11.884-9.875l61.315-87.572a986 986 0 0 1 11.396 8.931z"/><path fill="#9AABBE" d="m66.386 591.175-14.251 2.329v13.969h18.44l.097-14.751 18.058-2.54.415-58.656h-22.76zm2.253 33.573-.138-9.712-14.894.554s-1.147 16.917-.35 16.713c.79-.203 24.012 25.538 24.012 25.538h9.98s.757-23.755-.804-27.313c-1.57-3.557-17.798-5.78-17.798-5.78z"/><path fill="#69727A" d="M58.935 677.119c11.788 0 21.344-10.428 21.344-23.291 0-12.864-9.556-23.291-21.344-23.291S37.59 640.964 37.59 653.828c0 12.863 9.556 23.291 21.344 23.291"/><path fill="#576068" d="M61.147 631.367c-10.68 0-19.375 10.168-19.375 22.673s8.687 22.672 19.375 22.672 19.368-10.168 19.368-22.672-8.688-22.673-19.368-22.673m0 43.448c-9.639 0-17.48-9.321-17.48-20.775s7.841-20.776 17.48-20.776c9.64 0 17.48 9.322 17.48 20.776s-7.84 20.775-17.48 20.775"/><path fill="#576068" d="M61.148 646.005c-3.832 0-6.955 3.606-6.955 8.027s3.123 8.027 6.955 8.027c3.83 0 6.954-3.607 6.954-8.027 0-4.421-3.115-8.027-6.955-8.027m0 14.173c-2.79 0-5.068-2.751-5.068-6.138s2.27-6.138 5.068-6.138 5.067 2.751 5.067 6.138-2.27 6.138-5.068 6.138"/><path fill="#8091A4" d="M53.038 626.67a85 85 0 0 0-.05 1.896c2.937-.105 18.026-.219 24.395 8.418 5.458 7.4 5.49 16.836 5.198 20.857h1.903c.317-4.355.228-14.092-5.588-21.98-6.914-9.379-22.385-9.33-25.875-9.191z"/><path fill="#9AABBE" d="M66.426 604.893h-11.29v12.537h11.29z"/><path fill="#8091A4" d="M66.426 613.441h-11.29v1.889h11.29z"/><path fill="#9AABBE" d="M74.585 635.763c-9.167-6.895-16.96-5.869-16.96-5.869l-4.604 1.473h4.612l.033 3.713s8.516-1.368 14.283 4.884c5.767 6.261 4.393 17.878 4.393 17.878h5.181s2.237-15.183-6.938-22.087zm386.827-78.3c-1.635-2.002-3.603-2.116-7.922-2.361-2.603-.146-6.41-.301-11.323-.447-9.224-.277-22.483-.554-39.402-.823-30.885-.48-73.069-.911-118.783-1.205-44.005-.284-87.499-.423-119.328-.366-55.58.09-56.89.619-58.281 1.172-5.702 2.288-6.946 10.673-7.906 23.251h10.42c.333-4.25.96-10.738 1.984-13.465 12.12-.668 83.432-.765 171.598-.196 88.427.57 155.696 1.555 170.76 2.475.407 4.136.456 12.277.212 19.107l10.379.383c.008-.228.203-5.569.146-11.324-.122-12.22-1.228-14.556-2.554-16.185zm93.25-220.701c-21.19-16.168-23.182-16.038-25.501-15.883-2.716.179-4.449 2.06-7.499 6-1.928 2.483-4.507 6.065-7.671 10.632-5.588 8.068-13.104 19.367-21.157 31.839-7.467 11.561-14.91 23.365-20.425 32.385-9.882 16.184-9.883 17.194-9.883 18.863 0 2.67 1.587 4.892 7.386 10.347 3.116 2.931 7.435 6.741 12.844 11.332a951 951 0 0 0 14.194 11.796l-55.613 80.921h-596.444v10.397h601.886l123.118-179.126 7.776-11.373-3.741-3.012c-.098-.073-9.509-7.653-19.27-15.102zm6.67 23.609-58.493 85.106c-12.355-10.079-25.045-20.988-29.193-25.408 3.262-6 13.852-23.316 27.477-44.409 15.422-23.894 25.427-38.295 29.503-43.392 6.165 3.794 21.449 15.484 33.032 24.7l-2.334 3.411z"/><path fill="#9AABBE" d="m544.318 341.25-64.127 91.592 8.506 5.966 64.128-91.592z"/><path fill="#7D91A4" d="M89.772 572.711c0 2.768.024 10.363 0 12.431-.716 1.49-10.03 6.456-18.327 10.233l-.528.236-.025.578a201 201 0 0 0-.203 5.976h1.903c.033-1.645.09-3.509.171-5.316a242 242 0 0 0 8.94-4.372c9.167-4.762 9.948-6.236 9.964-7.237.024-1.97.008-9.729 0-12.529zm-23.386-.073h22.467l.016-1.889H66.386z"/><path fill="#9AABBE" d="M486.164 389.442s19.661 15.859 19.864 15.574 11.746-17.121 11.746-17.121l-21.263-15.606-10.347 17.145z"/><path fill="#7D91A4" d="m191.31 535.002 19.912 16.86c-3.652 3.501-7.272 7.173-8.443 7.873-2.4-1.669-16.846-14.687-27.835-24.733h-2.798c2.513 2.304 8.142 7.441 13.803 12.546 15.537 14.01 16.131 14.084 16.602 14.149.041 0 .09.016.155.016.61 0 2.359-.659 10.07-9.313l1.171-.725-19.693-16.673h-2.952zm74.647.09 19.107 19.498c-3.546 2.247-7.451 4.51-8.541 4.811-2.123-1.457-16.423-15.02-26.07-24.309h-2.643l-.041.041c.065.065 6.751 6.521 13.503 12.903 13.868 13.132 14.446 13.205 14.942 13.278h.114c1.179 0 4.791-1.937 10.729-5.763l.976-.627-19.441-19.832h-2.643z"/><path fill="#7D91A4" d="M204.495 550.242c-1.09 0-1.968.749-1.968 1.677s.878 1.677 1.968 1.677 1.969-.749 1.969-1.677-.879-1.677-1.969-1.677m72.004 3.679c1.087 0 1.968-.75 1.968-1.677 0-.926-.881-1.677-1.968-1.677s-1.969.751-1.969 1.677c0 .927.882 1.677 1.969 1.677m-110.348-26.205c.635.521 1.399 1.164 2.278 1.889h16.317c-.765-.627-1.529-1.262-2.294-1.889zm77.217 0 1.936 1.889h14.878l-1.936-1.889z"/><path fill="#9AABBE" d="m124.626 587.235 15.537 1.099 18.326-32.1h-16.781z"/><path fill="#7D91A4" d="M139.577 590.409c-5.084-2.027-10.412-4.298-11.957-5.177 1.488-3.444 11.566-21.81 18.383-34.022l-1.651-.919c-.049.081-4.8 8.605-9.452 17.112-9.615 17.592-9.493 17.918-9.265 18.512.163.424.464 1.205 14.031 6.562l.789.309 21.735-41.6-1.676-.879-20.945 40.094z"/><path fill="#7D91A4" d="M147.272 578.304h33.96v12.35h-41.216v1.888h43.103v-16.127h-35.847zm-10.819 2.361c-1.09 0-1.968.748-1.968 1.677 0 .928.878 1.677 1.968 1.677s1.969-.749 1.969-1.677c0-.929-.879-1.677-1.969-1.677"/><path fill="#9AABBE" d="m286.805 587.43 17.236.904 18.334-32.1h-16.78z"/><path fill="#7D91A4" d="M303.455 590.409c-5.084-2.027-10.42-4.298-11.957-5.177 1.489-3.444 11.567-21.81 18.383-34.022l-1.651-.919c-.049.081-4.799 8.605-9.452 17.112-9.614 17.592-9.492 17.918-9.265 18.512.163.424.464 1.205 14.032 6.562l.789.309 21.734-41.6-1.675-.879-20.946 40.094z"/><path fill="#7D91A4" d="M311.158 578.304h33.96v12.35h-41.215v1.888h43.102v-16.127h-35.847zm-10.818 2.361c-1.09 0-1.969.748-1.969 1.677 0 .928.879 1.677 1.969 1.677s1.968-.749 1.968-1.677c0-.929-.878-1.677-1.968-1.677m153.231-7.791h5.881v29.185h-5.011v.122h6.898v-31.334h-7.809c.016.659.033 1.335.041 2.035zm-32.228 22.03c-2.115-.652-153.369 0-153.369 0l-3.847 7.27h162.268c-1.456-2.809-3.669-6.847-5.052-7.27M64.548 540.823c.13 4.583.382 9.15-.082 9.224l1.887-.106c.041-7.645-.154-16.087.204-17.967 1.594-.236 7.638-.432 13.942-.464v-1.897c-7.687.057-14.381.317-15.105.749-.602.358-1.115.667-.846 10.469z"/><path fill="#9AABBE" d="M561.023 381.341s-6.385 2.817-7.508 4.348c-1.366 1.864-2.448 10.029-2.448 10.029l16.496 10.103s8.427-3.093 9.631-4.884c1.358-2.028.479-9.761.479-9.761s-14.796-9.493-16.65-9.843z"/><path fill="#AEBDCB" d="M559.29 385.518c-.74-.537-2.277.456-3.449 2.206s-1.521 3.615-.78 4.144c.74.537 2.277-.456 3.448-2.206 1.172-1.759 1.522-3.615.781-4.144"/><path fill="#D1DAE1" d="m499.065 377.841-7.256 12.456s11.608 9.15 11.787 9.207 8.044-11.877 8.044-12.122-12.575-9.541-12.575-9.541"/><path fill="#749FBB" d="M495.128 390.272h3.978l-1.985-3.468-1.985 3.468zm5.328-3.134 2.335-3.215-3.97-.432zm1.667 3.696c-.935 0-1.683.855-1.683 1.905s.756 1.905 1.683 1.905c.928 0 1.684-.855 1.684-1.905s-.756-1.905-1.684-1.905m3.571-4.958c-.894 0-1.618.855-1.618 1.913s.724 1.913 1.618 1.913 1.619-.855 1.619-1.913-.724-1.913-1.619-1.913"/><path fill="#D5E3EE" d="M322.758 484.105c-2.05-1.042-4.206-1.815-6.394-2.507-1.155-.367-1.781 1.416-.626 1.783 3.514 1.115 7.19 2.426 9.972 4.941 2.92 2.646 4.141 6.383 4.336 10.241.114 2.272-.073 4.543-.334 6.798-.138 1.213 1.741 1.352 1.887.147.497-4.226.684-8.63-.723-12.708-1.375-3.973-4.434-6.823-8.118-8.687zm16.162 13.343c-.455.252-.651.79-.423 1.27.073.163.138.326.204.488.016.041.024.082.04.122.025.074.041.147.057.22.081.326.187.717.171 1.059v-.082.44c0 .179-.016.358-.033.537-.016.163-.04.334-.073.497 0 .024-.016.065-.024.089-.025.098-.057.196-.082.293-.146.473.074 1.051.578 1.205.472.147 1.049-.073 1.204-.578a7.28 7.28 0 0 0-.342-5.137c-.203-.448-.83-.667-1.269-.423zm-78.014-53.689c-2.628-1.352-5.418-.497-8.061.35l-4.637 1.481c-.74.237-1.472.481-2.212.709-.374.114-1.058.39-1.456.195-.358-.179-.342-.904-.407-1.237a9.6 9.6 0 0 0-.545-1.824c-.423-1.042-1.122-2.035-2.115-2.597-2.595-1.465-5.71.326-8.028 1.579a38.5 38.5 0 0 0-7.785 5.553c-.894.822.35 2.247 1.245 1.416 1.96-1.799 4.091-3.395 6.393-4.722a35 35 0 0 1 3.661-1.856c1.09-.472 2.473-.969 3.587-.317.821.48 1.285 1.457 1.537 2.336.317 1.107.269 2.451 1.31 3.191 1.025.733 2.318.351 3.408 0 1.472-.472 2.945-.936 4.417-1.408 1.488-.472 2.969-1.009 4.482-1.376 1.334-.325 2.871-.553 4.148.106.456.236 1.001.204 1.31-.252.26-.383.203-1.075-.252-1.311zm10.013 6.512-.179-.163a1.04 1.04 0 0 0-.456-.163h-.748a.66.66 0 0 0-.374.057.76.76 0 0 0-.326.18.7.7 0 0 0-.211.293.73.73 0 0 0-.106.35c0 .081.008.171.016.252a.93.93 0 0 0 .22.448c.057.057.122.106.179.163.138.089.293.146.456.162h.748q.193.027.374-.057a.74.74 0 0 0 .325-.179.7.7 0 0 0 .212-.293.75.75 0 0 0 .106-.35l-.017-.252a.9.9 0 0 0-.219-.448m45.177-30.797c-.496-.017-1.066.113-1.204.577-.155.513.089 1.002.578 1.205q.158.063.317.139l.114.057q.292.159.561.342c.179.122.358.252.529.39.032.025.065.057.097.082.082.081.171.163.252.244a7 7 0 0 1 .635.733c.032.049.065.089.097.138l-.016-.016c.098.187.228.358.325.537.106.204.204.407.293.619.187.456.838.659 1.269.423.472-.26.708-.822.423-1.27-2.367-3.704-3.05-4.192-4.295-4.233z"/><path fill="#D5E3EE" d="M318.097 423.405c.04.057.097.178 0 0"/><path fill="#FFF2EA" d="M554.328 328.686h-.341c-.358-.024-.879.236-1.253.26-.756.049-1.602-.073-2.343-.26-.821-.204-1.643-.554-2.22-1.124.032.717.13 1.425.285 2.125s.829.839 1.342.595c.341.39.943.545 1.399.065.081-.082.162-.163.244-.253.195.334.569.546 1.057.399.806-.252 1.619-.488 2.432-.724-.13-.302-.268-.586-.447-.823a.8.8 0 0 1-.146-.26z" opacity="0.11"/><path fill="#C0CFEC" d="M116.85 415.314c-1.765-.855-3.856-.806-5.726-.334-2.009.513-3.856 1.571-5.865 2.043-.927.22-1.603.065-2.383-.464-.789-.537-1.538-1.082-2.424-1.465-1.79-.782-3.823-.912-5.743-.692-2.326.268-4.547 1.115-6.727 1.937-.594.228-.797 1.059-.529 1.588.31.619.984.757 1.586.529 3.303-1.237 7.077-2.638 10.55-1.172 1.692.716 2.856 2.263 4.848 2.214 2.018-.041 3.921-1.107 5.784-1.775 1.887-.683 3.969-1.082 5.856-.179.578.277 1.31-.171 1.505-.724.228-.66-.146-1.23-.724-1.506z"/><path fill="#fff" d="M74.439 419.254c-14.186-1.351-50.212-1.62-80.04-1.596h-7.484l-1.049 3.468s92.59.505 95.34 2.296c1.05.684 2.22 2.703 4.14 3.46-.463-2.792-.919-3.501-1.342-4.144-1.537-2.369-4.083-2.963-9.557-3.484z" opacity="0.75"/><path fill="#06D0A0" d="M306.115 451.028s-9.151 1.343-9.191 1.36c-.041.016-.61.529-.61.529l1.984-.269c.236-.032 6.434-.024 7.988 3.2 1.554 3.223-1.383 10.852-1.383 10.852l-.895.04s.106.432.171.472c.065.041 6.101.017 6.337-.073.236-.081 4.888-8.532 1.627-12.276-3.262-3.745-6.012-3.843-6.012-3.843z"/><path fill="#D5E3EE" d="M356.23 471.242h-13.17c-.634 0-1.22.415-1.268 1.091-.049.602.447 1.27 1.09 1.27h13.169c.634 0 1.22-.415 1.269-1.091.048-.602-.448-1.27-1.09-1.27"/><path fill="#F8FBFF" d="M296.094 411.724c-1.155-1.685-3.595-1.84-5.409-1.384a8.4 8.4 0 0 0-2.823 1.319 7 7 0 0 0-1.049.928c-.057.057-.106.122-.163.179a3.3 3.3 0 0 0-.545-.945c-.528-.626-1.301-1.042-2.09-1.221-1.887-.415-3.709.505-5.409 1.197l-10.957 4.469c-2.066.847-4.132 1.686-6.198 2.532-.562.228-.765.993-.505 1.514.285.578.944.741 1.513.505l15.398-6.285c1.245-.504 2.481-1.09 3.758-1.514.862-.285 1.961-.513 2.701.171.317.293.252.619.35 1.01.162.667.675 1.229 1.374 1.318 1.285.163 1.944-1.001 2.774-1.734a5.75 5.75 0 0 1 3.083-1.384c.919-.122 1.952 0 2.505.806.342.505 1.171.473 1.594.106.505-.439.448-1.091.106-1.595zm23.516-10.103c-2.555-.684-5.182-1.042-7.825-.994a30 30 0 0 0-3.889.318c-1.179.179-2.521.342-3.432 1.197-1.049.993.431 2.694 1.488 1.693.277-.261.594-.35.96-.431a25 25 0 0 1 5.125-.538c2.302 0 4.604.285 6.824.879.586.155 1.229-.089 1.44-.692.187-.545-.098-1.278-.691-1.441z"/></g><path fill="#503DA0" d="M579.588 746.281h33.326v-33.664h-33.326z"/><path fill="#fff" d="M577.953 747.93v-36.955h36.59v36.955zm3.257-33.664v30.373h30.076v-30.373z"/><path fill="#503DA0" d="M291.138 746.288h33.326v-33.665h-33.326z"/><path fill="#fff" d="M289.509 747.93v-36.955h36.59v36.955zm3.257-33.664v30.373h30.07v-30.373z"/><path fill="#503DA0" d="M291.138 36.253h33.326V2.59h-33.326z"/><path fill="#fff" d="M289.509 37.896V.94h36.59v36.956zm3.257-33.664v30.373h30.07V4.232z"/><path fill="#503DA0" d="M2.701 746.281h33.326v-33.664H2.701z"/><path fill="#fff" d="M1.066 747.93v-36.955h36.59v36.955zm3.257-33.664v30.373h30.07v-30.373z"/><path fill="#503DA0" d="M579.581 390.871h33.327v-33.665h-33.327z"/><path fill="#fff" d="M577.953 392.52v-36.956h36.59v36.956zm3.257-33.664v30.373h30.076v-30.373z"/><path fill="#503DA0" d="M2.694 390.871H36.02v-33.665H2.694z"/><path fill="#fff" d="M1.066 392.52v-36.956h36.59v36.956zm3.257-33.664v30.373h30.069v-30.373z"/><path fill="#503DA0" d="M579.588 36.247h33.326V2.582h-33.326z"/><path fill="#fff" d="M577.953 37.896V.94h36.59v36.956zm3.264-33.664v30.373h30.069V4.232z"/><path fill="#503DA0" d="M2.701 36.247h33.326V2.582H2.701z"/><path fill="#fff" d="M1.066 37.896V.94h36.59v36.956zM4.323 4.232v30.373h30.069V4.232z"/><path fill="#FDA77E" d="m372.278 357.702 1.205-5.421c11.646-7.731 34.215-21.415 31.323-14.307-3.614 8.885-7.228 20.932-6.024 21.083 9.638 1.205 4.584 5.201 3.663 6.225-3.663 2.457-10.289 4.768-23.842 3.262-13.554-1.506-14.909-4.969-13.252-8.282 1.325-2.651 5.17-2.811 6.927-2.56"/><mask id="b" width="42" height="34" x="364" y="335" maskUnits="userSpaceOnUse" style="mask-type:alpha"><path fill="#FDA77E" d="m372.278 357.702 1.205-5.421c11.646-7.73 34.215-21.415 31.323-14.307-3.614 8.885-7.228 20.933-6.024 21.083 1.205.151 8.217 2.642 2.561 4.819 0 1.958-9.187 6.175-22.74 4.669-13.554-1.506-14.909-4.97-13.252-8.283 1.325-2.65 5.17-2.811 6.927-2.56"/></mask><g mask="url(#b)"><path fill="#E39773" d="M395.449 352.991c2.274-3.554 6.515-9.3 8.351-11.728-2.487-6.043-35.184 8.352-36.428 11.728s2.488 6.042 7.463 6.753c4.976.711 17.77-2.31 20.614-6.753"/></g><path fill="#FDA77E" d="m372.925 295.521-5.235 10.932-6.074 31.321s-.143 4.146 1.956 7.508c2.104 3.363 6.666 8.309 6.666 8.309s2.283 2.086 5.241 2.377 18.592-5.114 18.592-5.114 2.927-2 5.111-5.885l1.761-2.77s4.471.827 7.888-4.198c3.416-5.023 3.768-8.771 1.172-11.229-2.594-2.458-5.665.968-6.754 3.298l5.622-22.162s-2.025-9.839-12.271-13.463c-10.246-3.627-20.524-3.773-23.674 1.077z"/><path fill="#AC5649" d="M369.976 339.252a.493.493 0 0 1 .431-.885c.013.006 5.295 2.678 11.637 1.857a.492.492 0 0 1 .126.976c-6.637.858-12.176-1.941-12.194-1.948m25.91-24.583c.261.083-.361 1.753-.443 2.013a.494.494 0 0 1-.62.319c-.015-.008-5.984-1.879-7.373-3.785a.494.494 0 0 1 .109-.688c.221-.159 1.296-1.506 1.455-1.284 1.197 1.643 6.859 3.422 6.874 3.426zm-20.845-5.902c.262-.067.534 1.21.601 1.473a.495.495 0 0 1-.356.601c-.006-.001-2.536.624-5.6-.482a.495.495 0 0 1-.296-.632c.093-.257.372-1.506.629-1.413 2.784 1.005 5.014.455 5.02.453zm32.722-1.218-1.156-2.127s-1.9.426-3.944-2.465c-2.043-2.886-13.634-3.696-19.342-4.158-5.705-.461-10.394-3.279-10.394-3.279s-1.099.097-2.028-2.567c-.93-2.659 1.641-13.423 11.182-13.184 9.543.234 13.491 6.679 19.46 8.509s24.308 16.067 13.577 25.709l-7.354-6.441z"/><path fill="#BC6D58" d="M403.341 315.809c-.217 2.969-.093 14.261-.093 14.261 4.067-5.922 8.917-2.776 8.341 1.938 0 0 2.959-5.885 3.566-10.401.605-4.511 1.88-7.731-.566-10.159-2.445-2.43-7.982-6.026-7.982-6.026-1.724.465-3.161 8.902-3.266 10.387"/><path fill="#AC5649" d="M409.784 332.695a.493.493 0 0 1-.956-.239c.078-.308.02-.677-.137-1.006a1.66 1.66 0 0 0-.492-.625 1 1 0 0 0-.635-.216c-.239.008-.51.112-.802.344-.753.607-1.739 1.863-2.611 3.172-.978 1.475-1.796 2.991-1.963 3.7-.263 1.122.704 1.834.706 1.837a.492.492 0 1 1-.578.796c-.005-.002-1.498-1.104-1.091-2.857.192-.817 1.068-2.459 2.104-4.018.917-1.381 1.979-2.722 2.818-3.398.468-.376.942-.545 1.384-.559.475-.016.904.145 1.26.412.335.252.611.606.794.996.247.524.333 1.129.199 1.661"/><path fill="#AC5649" d="M407.317 336.265a.49.49 0 0 1-.394.573.493.493 0 0 1-.573-.397s-.044-.366-.974-1.003c-.894-.618-2.049-.229-2.053-.227a.5.5 0 0 1-.622-.322.497.497 0 0 1 .323-.621c.006-.002 1.603-.543 2.91.359 1.275.876 1.384 1.632 1.384 1.635z"/><path fill="#7E3E35" d="M384.577 284.927a.49.49 0 0 1-.175-.672.494.494 0 0 1 .677-.174c.03.019 10.156 5.87 6.833 16.984a.49.49 0 1 1-.941-.282c3.097-10.366-6.366-15.836-6.393-15.854zm25.963 14.061a.492.492 0 1 1 .982.059c-.001.015-.323 5.737-3.4 7.635a.494.494 0 0 1-.517-.842c2.639-1.625 2.934-6.834 2.935-6.85zm-6.546-5.063a.49.49 0 0 1 .284-.632.493.493 0 0 1 .636.285c.006.016 2.326 6.004-1.925 9.75a.494.494 0 0 1-.697-.04.494.494 0 0 1 .043-.696c3.734-3.296 1.664-8.649 1.658-8.665zm-7.195-4.006a.496.496 0 0 1 .165-.676.497.497 0 0 1 .677.165c.01.017 3.779 6.235.675 12.033a.49.49 0 0 1-.667.201.493.493 0 0 1-.205-.667c2.84-5.302-.637-11.038-.645-11.056m-8.358 30.716-.909 3.528s-.168.975.638 1.3c.804.322 1.424.32 1.846-.358.422-.681 1.172-4.253 1.172-4.253s.105-.95-.879-1.236c-.985-.284-1.607.116-1.868 1.019m-18.11-3.744-.85 3.302s-.16.914.594 1.215c.756.301 1.332.301 1.729-.337.392-.636 1.096-3.977 1.096-3.977s.1-.892-.822-1.158-1.504.109-1.747.955"/><path fill="#EE7353" d="M371.686 328.731s2.184.999 3.737 1.08 4.756 3.37 4.756 3.37 0 2.268-.917 1.801c-.921-.466-7.392-1.574-7.392-1.574l-.184-4.679z"/><path fill="#AC5649" d="M377.34 314.387a.492.492 0 1 1 .982-.062c.002.016.368 5.212-.695 7.665-.939 2.16-4.609 6.035-5.434 6.895l.649 4.38a.49.49 0 1 1-.971.145l-.722-4.86.165-.175c.012-.012 4.43-4.52 5.409-6.774.968-2.236.621-7.203.618-7.215zm-.951 19.873a.49.49 0 1 1-.326-.927c.004-.002 1.28-.434 2.727.304l1.261.644a.494.494 0 1 1-.447.879l-1.262-.641c-1.077-.549-1.95-.259-1.953-.259m-4.642 9.338a.49.49 0 0 1-.24-.655.49.49 0 0 1 .652-.24c.012.002 3.656 1.674 6.953 1.028a.492.492 0 0 1 .187.965c-3.607.706-7.538-1.096-7.55-1.099zm29.152-14.737a.5.5 0 0 1 .7-.02.495.495 0 0 1 .018.698l-5.379 5.677a.496.496 0 0 1-.697.022.495.495 0 0 1-.021-.699z"/></svg>