<svg xmlns="http://www.w3.org/2000/svg" width="616" height="749" fill="none" viewBox="0 0 616 749"><path fill="#06D0A0" d="M19.06 729.162h578.395V18.727H19.061z"/><path fill="#fff" d="M56.002 690.311h504.511V57.579H56.003z"/><mask id="a" width="505" height="634" x="56" y="57" maskUnits="userSpaceOnUse" style="mask-type:alpha"><path fill="#fff" d="M56.002 690.311h504.511V57.579H56.003z"/></mask><g mask="url(#a)"><path fill="#E7EFFB" d="M-192.988 23.326h1112.59v667.568h-1112.59z"/><path fill="#8CABE2" d="M-192.988 502.631h1112.59v188.262h-1112.59z"/><path fill="#8CABE2" d="M349.786 504.988 768.05 390.574h151.552v51.517L900.264 514.3z"/><path fill="#EBF2FC" d="M901.12 235.171H359.597V23.326H901.12z"/><path fill="#ACC5ED" d="M406.653 58.112h494.468v78.7H406.653zM901.121 35.35v11.7H406.653v-11.7z"/><path fill="#fff" d="m359.597 502.524 395.075-104.851V241.519L359.597 43.518z"/><path fill="#8CABE2" d="m373.902 485.937 213.52-51.481V164.245L373.902 60.108zm228.897-55.192 98.394-23.724V219.722l-98.394-47.985zm106.529-25.686 41.206-9.919V243.804l-41.206-20.12z"/><path fill="#8CABE2" d="M587.424 244.66v-80.413L373.904 60.11v152.264zm15.375 2.356 98.394 14.877v-42.169l-98.394-47.985zm106.529 16.09 41.206 6.244v-25.544l-41.206-20.12v39.422z"/><path fill="#C6D9F7" d="M587.424 434.456v-270.21l-8.455-4.102H373.902v274.312z"/><path fill="#6F90C5" d="m332.091 29.677 414.626 210.345h42.347L429.879 23.326h-97.788z"/><path fill="#EBF2FC" d="M789.065 240.022v-14.735l-310.06-201.96h-49.126z"/><path fill="#C6D9F7" d="M759.559 240.022h16.519L401.588 23.326h-63.146z"/><path fill="#8CABE2" d="M499.626 329.285h7.777l2.353 22.156H497.27z"/><path fill="#fff" d="M498.34 329.285h7.777l2.356 22.156h-12.486z"/><path fill="#BBCEEE" d="M489.244 351.44h19.264a.81.81 0 0 0 .821-.821c0-.463-.356-.856-.821-.856h-19.264a.867.867 0 0 0-.856.856c0 .463.391.821.856.821"/><path fill="#fff" d="M528.486 342.023a1.38 1.38 0 0 1-1.354 1.213h-50.768c-.678 0-1.176-.536-1.105-1.213l3.888-35.211c.071-.643.714-1.212 1.355-1.212h50.803c.678 0 1.176.571 1.07 1.212z"/><path fill="#C6D9F7" d="m476.756 338.525 3.497-31.895h48.841l-3.497 31.895z"/><path fill="#8CABE2" d="M528.916 342.023a1.384 1.384 0 0 1-1.355 1.212h-.107c-.678 0-1.177-.536-1.105-1.212l1.39-12.486c.071-.679.213-1.749.285-2.427l.856-7.919c.071-.679.142-1.355.178-1.535 0-.143.107-.857.178-1.5l.249-2.246c.071-.679.178-1.784.249-2.463l.501-4.638c.106-.643.714-1.212 1.39-1.212h.071c.679 0 1.177.571 1.106 1.212l-.071.536c-.072.679-.143 1.355-.178 1.535 0 .178-.072.856-.143 1.535l-.462 4.031c-.072.678-.143 1.463-.178 1.713-.036.284-.107 1.034-.178 1.712l-.857 7.528c-.071.679-.178 1.784-.249 2.463l-1.57 14.163z"/><path fill="#fff" d="M529.485 311.341c0-.178.142-.285.285-.32.178 0 .284.106.249.249l-.107.927c0 .143-.142.285-.285.321-.142 0-.284-.107-.249-.25zm-.249 2.069a.48.48 0 0 1 .32-.321c.143 0 .249.107.249.249l-.249 2.283c-.035.142-.142.284-.32.284-.143.036-.249-.071-.249-.213zm-.427 3.852c.035-.142.178-.284.32-.284.142-.036.249.071.249.249l-2.498 22.512c0 .142-.142.284-.285.284-.178.036-.284-.071-.249-.249z"/><path fill="#9BABD3" d="M530.092 317.584c-.071.679.964.857 1.07.178l.214-2.14c.071-.678-.963-.856-1.035-.178z"/><path fill="#F3F2EE" d="M529.663 321.508c-.071.678.999.892 1.07.213l.214-2.14c.071-.678-.964-.892-1.035-.213z"/><path fill="#8CABE2" d="M466.303 348.869h3.71v1.141h-3.71zm44.452 0h3.71v1.141h-3.71zm-4.46 0h3.71v1.141h-3.71zm-4.46 0h3.71v1.141h-3.71zm-4.425 0h3.711v1.141h-3.711zm-4.46 0h3.71v1.141h-3.71zm-4.425 0h3.711v1.141h-3.711zm-4.46 0h3.711v1.141h-3.711zm-4.424 0h3.71v1.141h-3.71zm-4.46 0h3.71v1.141h-3.71zm-4.425 0h3.711v1.141h-3.711z"/><path fill="#fff" d="M461.558 350.546h57.652v-1.106h-57.652z"/><path fill="#8CABE2" d="M461.558 350.546h57.652l-.536.427c-.249.249-.892.463-1.39.463h-53.799c-.501 0-1.142-.214-1.429-.463l-.5-.427z"/><path fill="#9BABD3" d="M506.688 432.064h25.651v-5.065h-25.651zm0-63.537h25.651v-5.101h-25.651z"/><path fill="#9BABD3" d="M530.555 442.09h5.103v-88.761h-5.103z"/><path fill="#EAAD96" d="M504.975 442.09h5.103v-88.761h-5.103zm-112.627-10.026h25.615v-5.065h-25.615z"/><path fill="#9BABD3" d="M392.348 368.527h25.615v-5.101h-25.615z"/><path fill="#EAAD96" d="M390.35 441.234h5.101v-87.905h-5.101z"/><path fill="#FFEAE0" d="M380.324 356.682h136.283v-5.245H380.324z"/><path fill="#FAC9B6" d="M509.009 356.682h36.995v-5.245h-36.995z"/><path fill="#6CABD8" d="M523.955 437.884c0 1.855-1.5 3.354-3.319 3.354-1.82 0-3.355-1.499-3.355-3.354zm-25.651 0a3.35 3.35 0 0 1-3.354 3.354c-1.855 0-3.319-1.499-3.319-3.354zm49.233 0c0 1.855-1.5 3.354-3.355 3.354s-3.319-1.499-3.319-3.354z"/><path fill="#6CABD8" d="M529.52 437.884c0 1.855-1.499 3.354-3.318 3.354-1.82 0-3.355-1.499-3.355-3.354z"/><path fill="#FAC9B6" d="M489.742 436.669h59.83v-73.241h-59.83z"/><path fill="#FAC9B6" d="M526.489 436.669h23.083v-73.241h-23.083z"/><path fill="#FAC9B6" d="M489.742 437.991h59.83v-4.247h-59.83z"/><path fill="#FFEAE0" d="M489.742 437.991h36.746v-4.247h-36.746zm-.178-23.76h36.925v14.699h-36.925zm0-50.981h36.925v14.735h-36.925zm0 16.982h36.925v14.735h-36.925zm0 16.981h36.925v14.735h-36.925z"/><path fill="#FAC9B6" d="M501.979 365.854h10.738c.356 0 .678.284.678.678 0 .356-.32.678-.678.678h-10.738c-.356 0-.643-.32-.643-.678 0-.392.285-.678.643-.678m0 50.945h10.738c.356 0 .678.284.678.678 0 .356-.32.679-.678.679h-10.738c-.356 0-.643-.321-.643-.679 0-.391.285-.678.643-.678m0-16.982h10.738c.356 0 .678.285.678.678 0 .356-.32.679-.678.679h-10.738c-.356 0-.643-.32-.643-.679 0-.391.285-.678.643-.678m0-16.982h10.738c.356 0 .678.285.678.679 0 .356-.32.678-.678.678h-10.738c-.356 0-.643-.32-.643-.678 0-.392.285-.679.643-.679m-12.415-19.123h60.008v-1.677h-60.008z"/><path fill="#EAAD96" d="M489.564 433.922h60.008v-1.64h-60.008z"/><path fill="#6F90C5" d="M403.764 399.173h-5.851v42.063h5.851zm20.514 0h-5.85l11.131 42.063h5.815zm13.876-30.434h17.66c2.034 0 3.711 1.678 3.711 3.711 0 2.068-1.677 3.746-3.711 3.746h-17.66c-2.033 0-3.71-1.678-3.71-3.746 0-2.033 1.677-3.711 3.71-3.711"/><path fill="#6F90C5" d="m447.11 391.681-45.13 3.391-11.345-62.969 30.324-.107c8.491-.035 15.841 5.886 17.589 14.199z"/><path fill="#8CABE2" d="m401.873 394.464-.285-1.499a4.56 4.56 0 0 1-3.675 3.032 4.545 4.545 0 0 1-5.1-3.924l-6.316-55.012c-.356-2.462 1.428-4.78 3.889-5.101a4.05 4.05 0 0 1 1.855.143l21.513-.071c8.064.391 14.913 6.208 16.626 14.163l8.526 45.486-37.031 2.783z"/><path fill="#8CABE2" d="M462.986 399.387h-65.144c-3.245 0-5.921-2.641-5.921-5.886 0-3.281 2.676-5.922 5.921-5.922h65.144c3.246 0 5.886 2.641 5.886 5.922a5.893 5.893 0 0 1-5.886 5.886"/><path fill="#6F90C5" d="M432.626 399.173h-5.85v42.063h5.85zm20.515 0h-5.851l11.132 42.063h5.85z"/><path fill="#8CABE2" d="M484.891 202.918h73.991v92.614h-75.846v-92.614zm70.282 3.71h-68.427v85.194h68.427z"/><path fill="#8CABE2" d="M483.534 203.418h72.173v88.904h-72.173z"/><path fill="#C6D9F7" d="M555.707 207.129v85.193H487.28v-85.193z"/><path fill="#fff" d="M483.534 201.563h74.028v92.615h-75.881v-92.615h1.855zm70.282 3.711h-68.427v85.193h68.427z"/><path fill="#676C99" d="M500.98 221.899h40.991v55.69H500.98z"/><path fill="#ACC5ED" d="M500.98 274.449h40.991v1.998H500.98zm0-2.927h40.991v1.998H500.98zm0-2.888h40.991v1.997H500.98zm0-2.925h40.991v1.998H500.98zm0-2.89h40.991v1.998H500.98z"/><path fill="#EBF2FC" d="M500.98 227.75h40.991v34.141H500.98zm0-3.639h40.991v1.998H500.98z"/><path fill="#676C99" d="M507.652 232.958v38.957c0 .536-.427.999-.964.999h-.035c-.536 0-.963-.463-.963-.999v-38.957c0-.572.427-.999.963-.999h.035c.537 0 .964.427.964.999"/><path fill="#676C99" d="M509.08 265.602v5.601c0 .964-.75 1.713-1.677 1.713a1.713 1.713 0 0 1-1.713-1.713v-5.601c0-.928.785-1.677 1.713-1.677.927 0 1.677.749 1.677 1.677"/><path fill="#8CABE2" d="M394.63 202.063h73.991v92.65h-75.882v-92.65zm70.282 3.711h-68.427v85.193h68.427z"/><path fill="#8CABE2" d="M393.275 202.562h72.136v88.903h-72.136z"/><path fill="#C6D9F7" d="M465.411 206.309v85.157h-68.39v-85.157z"/><path fill="#fff" d="M393.275 200.707h74.029v92.65h-75.882v-92.65h1.855zm70.283 3.746H395.13v85.158h68.428z"/><path fill="#8CABE2" d="M409.934 227.821h40.958v40.955h-40.958z"/><path fill="#fff" d="M450.892 256.72v12.057h-40.958V256.72l20.479-10.917z"/><path fill="#676C99" d="m430.413 233.992 9.098 5.281v17.017l-9.098 5.281-9.134-5.281v-17.017z"/><path fill="#fff" d="M455.136 98.066h5.53v375.705h-5.53zm74.171 34.927h5.53l1.212 319.371h-5.53z"/><path fill="#C6D9F7" d="M339.939 23.326v484.121H239.405V23.327z"/><path fill="#6F90C5" d="M339.939 23.326v484.121l19.658-4.922V23.326z"/><path fill="#ACC5ED" d="M239.405 334.064h100.534v173.383H239.405z"/><path fill="#9A5931" d="M160.739 80.803H-19.958c-7.279 0-13.2 5.921-13.2 13.164v408.667H173.94V93.967c0-7.243-5.921-13.164-13.2-13.164z"/><path fill="#FAB886" d="M149.93 80.803H-30.805c-7.243 0-13.164 5.921-13.164 13.164v408.667H163.13V93.967c0-7.243-5.957-13.164-13.2-13.164"/><path fill="#FFEAE0" d="M142.58 102.245h-166v400.389h166z"/><path fill="#9A5931" d="M105.692 141.38H79.007a4.065 4.065 0 0 0-4.067 4.066v182.626a4.065 4.065 0 0 0 4.067 4.066h26.685a4.065 4.065 0 0 0 4.066-4.066V145.448a4.065 4.065 0 0 0-4.066-4.066z"/><path fill="#8CABE2" d="M112.576 141.38h-26.72c-2.211 0-4.03 1.82-4.03 4.066v182.626c0 2.247 1.819 4.066 4.03 4.066h26.72c2.212 0 4.031-1.819 4.031-4.066V145.448c0-2.246-1.819-4.066-4.031-4.066z"/><path fill="#ABC2EA" d="M81.823 192.254v18.872l34.784-52.408v-13.272a4.02 4.02 0 0 0-1.57-3.21zm0 46.343v50.446l34.784-52.408v-50.447zm0 64.216v18.872l34.784-52.373V250.44z"/><path fill="#676C99" d="M216.108 499.065H327.63a4.14 4.14 0 0 1 4.138 4.138v8.776H212.004v-8.776c0-2.282 1.855-4.138 4.101-4.138z"/><path fill="#fff" d="M221.887 254.756h99.964v235.177h-99.964z"/><path fill="#676C99" d="M222.779 257.718h98.215c2.247 0 4.102-1.855 4.102-4.102v-8.775H218.675v8.775a4.103 4.103 0 0 0 4.102 4.102z"/><path fill="#ACC5ED" d="M324.918 254.756c.107-.356.178-.75.178-1.142v-.249H218.675v.249c0 .392.035.786.142 1.142z"/><path fill="#8CABE2" d="M222.779 489.932h98.215c2.247 0 4.102 1.855 4.102 4.102v8.811H218.675v-8.811a4.103 4.103 0 0 1 4.102-4.102z"/><path fill="#676C99" d="M324.918 492.928c.107.356.178.714.178 1.105v.249H218.675v-.249c0-.391.035-.749.142-1.105z"/><path fill="#6F90C5" d="M250.249 371.168h43.24c1.39 0 2.533 1.141 2.533 2.569a2.543 2.543 0 0 1-2.533 2.534h-43.24a2.544 2.544 0 0 1-2.534-2.534c0-1.428 1.142-2.569 2.534-2.569"/><path fill="#ACC5ED" d="M253.96 379.729h35.818a1.6 1.6 0 0 1 1.606 1.607 1.6 1.6 0 0 1-1.606 1.606H253.96a1.6 1.6 0 0 1-1.607-1.606c0-.892.715-1.607 1.607-1.607m-1.464-16.41h38.779a2.3 2.3 0 0 1 2.283 2.283 2.3 2.3 0 0 1-2.283 2.282h-38.779a2.3 2.3 0 0 1-2.282-2.282 2.3 2.3 0 0 1 2.282-2.283"/><path fill="#C6D9F7" d="M241.151 394.214c5.708 0 10.346 4.638 10.346 10.346s-4.638 10.382-10.346 10.382-10.346-4.638-10.346-10.382a10.33 10.33 0 0 1 10.346-10.346"/><path fill="#fff" d="M241.364 397.391a7.377 7.377 0 0 1 7.386 7.385c0 4.104-3.319 7.421-7.386 7.421-4.066 0-7.42-3.319-7.42-7.421s3.319-7.385 7.42-7.385"/><path fill="#6F90C5" d="M241.329 397.175c2.854 0 5.352 1.606 6.635 3.959-.5.214-.571.857-.32 1.142.427.462.32 1.354-.678 1.534-.999.181-1.998 1.248-1.713 2.783.285 1.571-.75 2.247-2.069 1.678-1.319-.572-2.783.106-2.282 1.89.32 1.142-.107 1.784-.821 2.034-3.604-.572-6.315-3.711-6.315-7.457a7.57 7.57 0 0 1 7.563-7.563"/><path fill="#C6D9F7" d="M241.329 402.206a2.544 2.544 0 0 1 2.534 2.534c0 1.392-1.142 2.569-2.534 2.569a2.58 2.58 0 0 1-2.569-2.569c0-1.428 1.141-2.534 2.569-2.534m13.807 1.283h14.629c.678 0 1.247.572 1.247 1.248 0 .714-.571 1.284-1.247 1.284h-14.629c-.678 0-1.248-.572-1.248-1.284 0-.678.572-1.248 1.248-1.248"/><path fill="#ACC5ED" d="M256.349 407.735h12.237c.427 0 .785.356.785.786a.79.79 0 0 1-.785.785h-12.237c-.463 0-.821-.356-.821-.785 0-.427.356-.786.821-.786m-.427-8.17h13.093c.607 0 1.105.537 1.105 1.142 0 .642-.5 1.141-1.105 1.141h-13.093a1.13 1.13 0 0 1-1.142-1.141 1.15 1.15 0 0 1 1.142-1.142"/><path fill="#C6D9F7" d="M286.424 394.214c5.708 0 10.346 4.638 10.346 10.346s-4.638 10.382-10.346 10.382-10.382-4.638-10.382-10.382 4.638-10.346 10.382-10.346"/><path fill="#fff" d="M286.602 397.391c4.102 0 7.42 3.281 7.42 7.385a7.414 7.414 0 0 1-7.42 7.421c-4.102 0-7.386-3.319-7.386-7.421a7.38 7.38 0 0 1 7.386-7.385"/><path fill="#6F90C5" d="M286.602 397.175c2.854 0 5.352 1.606 6.635 3.959-.536.214-.571.857-.32 1.142.427.462.32 1.354-.678 1.534-.999.181-1.998 1.248-1.713 2.783.249 1.571-.786 2.247-2.069 1.678-1.319-.572-2.783.106-2.282 1.89.32 1.142-.107 1.784-.821 2.034-3.604-.572-6.316-3.711-6.316-7.457a7.546 7.546 0 0 1 7.564-7.563"/><path fill="#C6D9F7" d="M286.602 402.206a2.543 2.543 0 0 1 2.533 2.534c0 1.392-1.141 2.569-2.533 2.569a2.58 2.58 0 0 1-2.57-2.569c0-1.428 1.142-2.534 2.57-2.534m13.807 1.283h14.59c.714 0 1.284.572 1.284 1.248a1.28 1.28 0 0 1-1.284 1.284h-14.59c-.678 0-1.248-.572-1.248-1.284 0-.678.572-1.248 1.248-1.248"/><path fill="#ACC5ED" d="M301.586 407.735h12.237c.462 0 .821.356.821.786 0 .427-.356.785-.821.785h-12.237a.79.79 0 0 1-.785-.785c0-.427.355-.786.785-.786m-.427-8.17h13.093a1.15 1.15 0 0 1 1.141 1.142c0 .642-.5 1.141-1.141 1.141h-13.093c-.608 0-1.106-.501-1.106-1.141 0-.608.501-1.142 1.106-1.142"/><path fill="#C6D9F7" d="M241.151 424.502c5.708 0 10.346 4.638 10.346 10.346s-4.638 10.346-10.346 10.346-10.346-4.638-10.346-10.346 4.638-10.346 10.346-10.346"/><path fill="#fff" d="M241.364 427.643c4.067 0 7.386 3.319 7.386 7.42a7.38 7.38 0 0 1-7.386 7.386c-4.066 0-7.42-3.319-7.42-7.386 0-4.066 3.318-7.42 7.42-7.42"/><path fill="#6F90C5" d="M241.329 427.466c2.854 0 5.352 1.606 6.635 3.959-.5.214-.571.857-.32 1.106.427.463.32 1.355-.678 1.57-.999.178-1.998 1.213-1.713 2.783.285 1.535-.75 2.211-2.069 1.678-1.319-.572-2.783.071-2.282 1.89.32 1.142-.107 1.784-.821 2.034-3.604-.608-6.315-3.711-6.315-7.457a7.57 7.57 0 0 1 7.563-7.563"/><path fill="#C6D9F7" d="M241.329 432.459c1.39 0 2.534 1.141 2.534 2.569a2.52 2.52 0 0 1-2.534 2.534c-1.393 0-2.569-1.141-2.569-2.534a2.58 2.58 0 0 1 2.569-2.569m13.807 1.284h14.629c.678 0 1.247.572 1.247 1.284 0 .678-.571 1.248-1.247 1.248h-14.629a1.264 1.264 0 0 1-1.248-1.248c0-.714.572-1.284 1.248-1.284"/><path fill="#ACC5ED" d="M255.922 429.854h13.093c.607 0 1.105.501 1.105 1.142 0 .607-.5 1.141-1.105 1.141h-13.093a1.15 1.15 0 0 1-1.142-1.141c0-.643.501-1.142 1.142-1.142"/><path fill="#C6D9F7" d="M286.424 424.502c5.708 0 10.346 4.638 10.346 10.346s-4.638 10.346-10.346 10.346-10.382-4.638-10.382-10.346 4.638-10.346 10.382-10.346"/><path fill="#fff" d="M286.602 427.643a7.415 7.415 0 0 1 7.42 7.42c0 4.102-3.318 7.386-7.42 7.386a7.38 7.38 0 0 1-7.386-7.386c0-4.066 3.319-7.42 7.386-7.42"/><path fill="#6F90C5" d="M286.602 427.466c2.854 0 5.352 1.606 6.635 3.959-.536.214-.571.857-.32 1.106.427.463.32 1.355-.678 1.57-.999.178-1.998 1.213-1.713 2.783.249 1.535-.786 2.211-2.069 1.678-1.319-.572-2.783.071-2.282 1.89.32 1.142-.107 1.784-.821 2.034-3.604-.608-6.316-3.711-6.316-7.457a7.546 7.546 0 0 1 7.564-7.563"/><path fill="#C6D9F7" d="M286.602 432.459c1.39 0 2.533 1.141 2.533 2.569a2.52 2.52 0 0 1-2.533 2.534c-1.393 0-2.57-1.141-2.57-2.534a2.58 2.58 0 0 1 2.57-2.569"/><path fill="#FDA77E" d="m589.485 416.5-9.26-54.587s-1.894-11.462-11.743-11.893-13.695 3.852-12.629 9.766c1.075 5.913 23.1 57.199 23.1 57.199s6.738 5.58 10.532-.485"/><path fill="#384161" d="M520.848 217.912c-18.795 1.893-25.787 26.04-15.255 39.96-5.269 4.787-8.314 15.916-1.888 20.343 0 0-5.275 9.924 4.778 14.699 10.052 4.769 27.515 2.384 32.036-7.413 4.526-9.791 1.081-14.515 1.081-14.515 10.589-25.074 14.24-56.603-20.752-53.074"/><path fill="#5287D4" d="M557.185 292.46c15.582 13.577 20.112 51.52 23.506 66.606l-22.989.536s-2.889.878-3.898-1.23c-1.015-2.115-18.802-38.546-18.802-38.546s11.677-26.821 22.183-27.366"/><path fill="#3667BC" d="m539.925 384.953 23.278-.739s3.94 7.505 5.418 15.26c.247 1.316.27 7.959.137 18.064l-37.121.196-.394-18.688s-.739-14.528 8.682-14.093"/><path fill="#FDA77E" d="M503.005 560.088c.788 17.324 3.134 51.912 2.364 53.198-.77 1.285-16.855 14.845-15.896 16.155.715.973 31.725-.049 32.134-.674 1.185-1.818-1.026-11.539-1.356-12.463l2.083-56.21h-19.323z"/><path fill="#535A68" d="M524.381 632.206c.323-.6.097-3.446.006-4.083-.019-.141-.978-.38-.984-.527-.238-3.562-.996-8.711-1.362-9.158-.238-.293-1.485-.955-1.485-.955s.874 2.835-.146 3.527c-4.063 2.748-12.304 6.795-13.049 6.684-1.069-.153-1.748-6.054-7.979-6.299-3.629-.141-10.025 3.447-12.328 8.191-.122.251-.758.447-.898.661-.22.337-.122 1.812.043 1.959h38.188z"/><path fill="#424954" d="M511.979 629.82c2.309-.178 8.266-.404 12.518-.533-.037-.514-.08-.955-.104-1.163 0-.043-.086-.086-.202-.141-3.959.123-12.664.423-13.507.686-.635.196-1.601.716-2.303 1.09-.196.104-.41.22-.532.281h-21.424c-.122.068-.226.141-.269.208-.116.172-.141.655-.122 1.096h21.51c-.226.312-.422.606-.568.857h1.582c.66-.894 1.613-1.989 2.065-2.044.256.159.574.991.825 2.044h1.35c-.184-.863-.446-1.744-.819-2.387z"/><path fill="#FDA77E" d="M562.611 560.088c-.788 17.324-3.134 51.912-2.364 53.198.77 1.285 16.855 14.845 15.896 16.155-.715.973-31.724-.049-32.134-.674-1.185-1.818 1.027-11.539 1.356-12.463l-2.083-56.21h19.323z"/><path fill="#535A68" d="M541.236 632.206c-.324-.6-.098-3.446-.007-4.083.019-.141.978-.38.984-.527.238-3.562.996-8.711 1.362-9.158.239-.293 1.485-.955 1.485-.955s-.874 2.835.147 3.527c4.062 2.748 12.303 6.795 13.049 6.684 1.069-.153 1.747-6.054 7.978-6.299 3.629-.141 10.025 3.447 12.328 8.191.122.251.758.447.898.661.22.337.123 1.812-.042 1.959h-38.189z"/><path fill="#424954" d="M553.637 629.82c-2.309-.178-8.266-.404-12.518-.533.037-.514.08-.955.104-1.163 0-.043.086-.086.202-.141 3.959.123 12.664.423 13.507.686.636.196 1.601.716 2.303 1.09.196.104.41.22.532.281h21.424c.123.068.226.141.269.208.116.172.141.655.123 1.096h-21.511c.226.312.422.606.568.857h-1.582c-.66-.894-1.613-1.989-2.065-2.044-.256.159-.574.991-.824 2.044h-1.351c.184-.863.446-1.744.819-2.387z"/><path fill="#5287D4" d="M574.176 426.97c-.77-9.305-11.583-34.832-11.583-34.832h-59.564s-10.813 25.527-11.583 34.832c-1.087 13.144.99 102.38 8.913 174.641 0 0 4.637.195 12.726.195 8.088 0 11.772-.195 11.772-.195l6.598-161.552h2.718l6.598 161.552s3.629.195 11.772.195 12.726-.195 12.726-.195c7.917-72.261 10-161.504 8.913-174.641z"/><path fill="#284C9A" d="M534.51 440.164h-3.519l-7.979-3.735.55-1.187 7.716 3.612h2.871l7.557-4.537.672 1.127zm5.962 154.292 25.567-.147c.042-.435.091-.869.134-1.31l-25.756.147zm-15.328.092.055-1.31-25.713.147c.043.435.092.869.134 1.31z"/><path fill="#3667BC" d="M515.433 384.518s-7.869.738-14.358 12.555c-4.829 8.771-7.659 17.135-8.802 20.86l70.003-.257c.238-.982.434-1.984.604-3.005 1.55-9.728 2.56-26.834 2.56-26.834z"/><path fill="#284C9A" d="M538.856 395.235a.387.387 0 0 0-.38-.406.44.44 0 0 0-.425.406l-1.815 37.471a.375.375 0 0 0 .381.399.423.423 0 0 0 .419-.399z"/><path fill="#5287D4" d="m511.398 283.881-28.248 13.244s-2.116 1.297-1.79 4.978c.327 3.675 18.282 76.048 18.282 76.048s-10.38 35.493-6.376 35.455l78.21-.78s.466-21.548-5.098-34.884c-.536-3.288.223-59.374.223-59.374s-2.183-10.682-4.429-15.175c-2.255-4.499-5.539-10.878-5.539-10.878l-20.038-10.074z"/><path fill="#FDA77E" d="M514.386 260.668s.91 11.376.917 14.22c0 2.845-3.905 8.992-3.905 8.992l14.608 13.834 14.979 22.892s.235-13.434.577-24.889c.137-4.807-4.993-11.523-4.967-13.276.092-5.936-1.789-16.256-1.789-16.256l-20.42-5.514z"/><path fill="#fff" d="m525.803 297.524.203.19 14.979 22.893s.216-12.496.536-23.657l-15.721.577z"/><path fill="#D05F3C" d="M514.386 260.668s.257 3.183.492 6.595a100 100 0 0 0 4.143 3.656c5.811 4.819 11.166 8.278 13.294 8.757 2.135.485 2.836-.32 4.134-1.087-.584-6.072-.831-12.452-.831-12.452z"/><path fill="#284C9A" d="M557.185 292.46a.42.42 0 0 0-.552-.152c-.19.111-.234.355-.117.542.013.013 3.264 4.953 4.746 9.04a268 268 0 0 1 2.544 7.308.43.43 0 0 0 .504.295.38.38 0 0 0 .263-.485c-.006-.006-1.05-3.19-2.556-7.343-1.52-4.179-4.816-9.189-4.829-9.208z"/><path fill="#5287D4" d="m479.016 302.863-8.533 62.91s-.739 3.865 3.861 4.879l16.736 3.276s2.49.215 2.963-2.791c.479-3.005 6.623-47.481 6.623-47.481s1.434-4.02-1.335-8.843c-2.779-4.819-16.178-17.692-16.178-17.692s-3.855 2.286-4.134 5.739z"/><path fill="#284C9A" d="M501.066 323.71a.41.41 0 0 0-.339-.453.403.403 0 0 0-.454.345l-5.434 39.095a.4.4 0 0 0 .339.453.407.407 0 0 0 .454-.339l5.431-39.104z"/><path fill="#284C9A" d="M504.127 325.093a.41.41 0 0 0-.406-.4.4.4 0 0 0-.393.406c0 .026.19 8.383-4.907 12.588a.403.403 0 0 0 .51.624c5.399-4.454 5.196-13.196 5.196-13.218"/><path fill="#FDA77E" d="M542.114 224.875s3.978 10.028 4.286 13.519c.308 3.498.098 23.876.098 23.876s-.215 2.422-1.253 3.319c-1.028.898-5.196 6.202-8.308 7.407-3.105 1.198-5.583 1.173-8.939-.444s-10.497-7.197-11.153-9.059c-.657-1.854-1.421-3.516-1.421-3.516s-2.884.996-5.086-3.627c-2.195-4.623-2.988-7.959.105-9.341 3.093-1.389 4.685.577 5.688 2.09l-1.082-12.195s-.473-8.856 6.113-12.648c6.592-3.792 16.565-2.822 20.949.622z"/><path fill="#AC5649" d="M529.898 260.484a.39.39 0 0 0-.542.136.405.405 0 0 0 .136.552c.013.006 4.949 3.018 11.382.165a.4.4 0 0 0 .203-.53c-.092-.203-.327-.295-.53-.203-6.049 2.692-10.63-.111-10.649-.117z"/><path fill="#EE7353" d="m540.893 254.964-6.332-.321s-1.507-.241-1.653.543c-.152.786 2.76 1.303 3.223 1.867.467.571.499 1.034 1.672.453l3.087-2.542z"/><path fill="#AC5649" d="M538.26 244.878a.396.396 0 0 0-.276-.491.39.39 0 0 0-.492.276c-.006.012-1.297 4.388 1.12 7.315 1.697 2.057 1.869 2.691 1.869 2.863-.381.294-1.77 1.376-2.76 1.931a.4.4 0 0 0-.159.542.41.41 0 0 0 .552.158c1.199-.675 2.957-2.083 2.963-2.089l.105-.13s.504-.818-1.954-3.786c-2.151-2.6-.977-6.576-.971-6.589zm-2.411 12.343a.4.4 0 0 0 .762-.247s-.229-.552-1.238-.878l-.824-.27a.406.406 0 0 0-.505.263.394.394 0 0 0 .257.498l.825.269c.65.21.726.368.726.368zm2.154 8.517a.402.402 0 0 0-.263-.758c-.006.006-2.687.989-5.989-.257a.4.4 0 0 0-.511.235.4.4 0 0 0 .235.517c3.572 1.341 6.519.263 6.525.263zm-6.366-22.394c.215.031.564-.628.596-.853a.4.4 0 0 0-.339-.454c-.013 0-5.041-.745-6.732.153a.39.39 0 0 0-.165.535c.105.197.203.78.394.676 1.462-.774 6.223-.06 6.246-.06zm12.336.066c.203.073.419-.425.492-.634a.397.397 0 0 0-.241-.51c-.007 0-2.011-.688-4.568-.013a.413.413 0 0 0-.289.491c.06.21.295.726.511.676 2.319-.615 4.089-.013 4.095-.007z"/><path fill="#7E3E35" d="m529.743 246.455.067 2.955s-.054.805-.746.91c-.695.104-1.186-.007-1.39-.628-.209-.615-.142-3.577-.142-3.577s.092-.773.923-.818c.831-.038 1.253.393 1.291 1.161zm12.704-.093.061 2.771s-.045.749-.701.844c-.651.098-1.107-.007-1.304-.584-.19-.577-.124-3.354-.124-3.354s.086-.72.866-.761c.78-.038 1.167.361 1.205 1.081z"/><path fill="#AC5649" d="M509.637 250.576c0 .222.184.399.406.393.223 0 .4-.184.394-.406-.007-.257.111-.536.295-.767.136-.178.314-.32.504-.406a.87.87 0 0 1 .543-.054c.19.054.38.184.571.419.485.621 1.027 1.801 1.475 2.999.498 1.351.866 2.698.866 3.288 0 .936-.898 1.322-.898 1.322a.403.403 0 0 0-.216.524.395.395 0 0 0 .524.209c.006 0 1.395-.59 1.395-2.058 0-.682-.387-2.14-.916-3.57-.473-1.265-1.063-2.521-1.599-3.209-.301-.387-.641-.609-.99-.701a1.63 1.63 0 0 0-1.075.092 2.15 2.15 0 0 0-.812.641c-.295.374-.473.831-.467 1.278z"/><path fill="#AC5649" d="M510.929 253.858a.4.4 0 0 0 .202.529.4.4 0 0 0 .524-.209s.104-.282.958-.609c.825-.32 1.665.197 1.672.197.19.117.431.054.542-.136a.4.4 0 0 0-.136-.552s-1.168-.726-2.367-.257c-1.173.46-1.395 1.034-1.395 1.034z"/><path fill="#FDA77E" d="m486.715 357.358 59.599 6.182s6.338.603 5.552 6.484c-.781 5.882-5.951 6.085-5.951 6.085l-66.407 1.684c-10.36.031-13.669-22.839 7.207-20.435"/><path fill="#FDA77E" d="m545.705 375.322 1.421.634s1.44-.333 4.444-2.422c3.001-2.096 3.604-3.085 3.604-3.085s2.95-.479 7.084 1.861c4.133 2.33 6.344 4.068 7.549 4.357 1.206.288 2.725-1.253 2.725-1.253s2.424 1.636 4.921-.418c3.203 1.61 5.104-1.088 3.873-2.613l-1.802-2.232s1.139-.105 1.862-.872c.72-.767-.248-1.671-.248-1.671s-6.972-6.471-8.805-8.212c-1.84-1.741-4.829-2.828-7.176-2.927-2.354-.092-3.794-.7-5.872.4-2.071 1.094-10.76 6.877-10.76 6.877s-8.067 8.535-2.817 11.579z"/><path fill="#AC5649" d="M559.098 365.765a.397.397 0 0 0-.485.289.39.39 0 0 0 .289.485c.019.006 7.2 1.776 13.323 9.132a.4.4 0 0 0 .564.054.404.404 0 0 0 .054-.565c-6.284-7.559-13.723-9.385-13.742-9.391zm20.112 4.63c.13.171.387.203.565.066a.397.397 0 0 0 .066-.558c-.019-.025-6.731-8.881-13.212-10.393a.395.395 0 0 0-.479.295.4.4 0 0 0 .295.485c6.198 1.449 12.746 10.079 12.765 10.105m-16.404-7.493a.396.396 0 0 0-.479.302.4.4 0 0 0 .302.478c.019.007 7.201 1.56 14.494 11.548.13.177.38.215.564.092a.41.41 0 0 0 .086-.565c-7.477-10.231-14.948-11.848-14.967-11.855"/><path fill="#384161" d="M542.206 221.279s2.817.46 1.637 4.978-3.67 8.653-13.434 11.272c-9.764 2.613-14.246 10.596-14.548 17.271 0 0-5.472-9.576-4.422-20.324 1.05-10.743 12.797-15.458 30.767-13.197"/><path fill="#fff" d="m547.304 315.176 14.789-.707.333 4.394-14.789.707z"/><path fill="#ACC5ED" d="M301.586 433.885h12.237a.83.83 0 0 1 .821.821c0 .427-.356.785-.821.785h-12.237a.79.79 0 0 1-.785-.785c0-.428.355-.821.785-.821"/><path fill="#C6D9F7" d="M301.159 429.854h13.093c.643 0 1.141.501 1.141 1.142 0 .607-.5 1.141-1.141 1.141h-13.093c-.608 0-1.106-.536-1.106-1.141 0-.643.501-1.142 1.106-1.142m-60.008 23.156c5.708 0 10.346 4.638 10.346 10.346s-4.638 10.382-10.346 10.382-10.346-4.639-10.346-10.382a10.33 10.33 0 0 1 10.346-10.346"/><path fill="#fff" d="M241.364 456.184a7.377 7.377 0 0 1 7.386 7.385c0 4.104-3.319 7.421-7.386 7.421-4.066 0-7.42-3.319-7.42-7.421s3.318-7.385 7.42-7.385"/><path fill="#6F90C5" d="M241.329 455.971c2.854 0 5.352 1.606 6.635 3.959-.5.214-.571.857-.32 1.141.427.463.32 1.355-.678 1.535-.999.181-1.998 1.248-1.713 2.783s-.75 2.247-2.069 1.677c-1.319-.571-2.783.107-2.282 1.891.32 1.141-.107 1.784-.821 2.033-3.604-.571-6.315-3.71-6.315-7.456a7.57 7.57 0 0 1 7.563-7.563"/><path fill="#C6D9F7" d="M241.329 461.001a2.544 2.544 0 0 1 2.534 2.534c0 1.392-1.142 2.569-2.534 2.569a2.58 2.58 0 0 1-2.569-2.569c0-1.428 1.141-2.534 2.569-2.534"/><path fill="#ACC5ED" d="M255.136 462.285h14.629c.678 0 1.247.572 1.247 1.248a1.24 1.24 0 0 1-1.247 1.248h-14.629a1.24 1.24 0 0 1-1.248-1.248c0-.678.572-1.248 1.248-1.248m1.213 4.244h12.237c.427 0 .785.356.785.786a.79.79 0 0 1-.785.785h-12.237c-.463 0-.821-.356-.821-.785 0-.428.356-.786.821-.786"/><path fill="#C6D9F7" d="M255.922 458.358h13.093c.607 0 1.105.537 1.105 1.142 0 .642-.5 1.141-1.105 1.141h-13.093a1.13 1.13 0 0 1-1.142-1.141 1.15 1.15 0 0 1 1.142-1.142m30.502-5.348c5.708 0 10.346 4.638 10.346 10.346s-4.638 10.382-10.346 10.382-10.382-4.639-10.382-10.382c0-5.744 4.638-10.346 10.382-10.346"/><path fill="#fff" d="M286.602 456.184c4.102 0 7.42 3.281 7.42 7.385a7.414 7.414 0 0 1-7.42 7.421c-4.102 0-7.386-3.319-7.386-7.421a7.38 7.38 0 0 1 7.386-7.385"/><path fill="#6F90C5" d="M286.602 455.971c2.854 0 5.352 1.606 6.635 3.959-.536.214-.571.857-.32 1.141.427.463.32 1.355-.678 1.535-.999.181-1.998 1.248-1.713 2.783.249 1.535-.786 2.247-2.069 1.677-1.319-.571-2.783.107-2.282 1.891.32 1.141-.107 1.784-.821 2.033-3.604-.571-6.316-3.71-6.316-7.456a7.546 7.546 0 0 1 7.564-7.563"/><path fill="#C6D9F7" d="M286.602 461.001a2.543 2.543 0 0 1 2.533 2.534c0 1.392-1.141 2.569-2.533 2.569a2.58 2.58 0 0 1-2.57-2.569c0-1.428 1.142-2.534 2.57-2.534m13.807 1.284h14.59c.714 0 1.284.572 1.284 1.248 0 .714-.572 1.248-1.284 1.248h-14.59a1.24 1.24 0 0 1-1.248-1.248c0-.678.572-1.248 1.248-1.248"/><path fill="#ACC5ED" d="M301.586 466.529h12.237c.462 0 .821.356.821.786 0 .427-.356.785-.821.785h-12.237a.79.79 0 0 1-.785-.785c0-.428.355-.786.785-.786m-.427-8.171h13.093a1.15 1.15 0 0 1 1.141 1.142c0 .642-.5 1.141-1.141 1.141h-13.093c-.608 0-1.106-.501-1.106-1.141 0-.608.501-1.142 1.106-1.142"/><path fill="#FA8C75" d="M271.869 269.704c20.692 0 37.46 16.768 37.46 37.46 0 20.693-16.768 37.425-37.46 37.425s-37.46-16.768-37.46-37.425 16.768-37.46 37.46-37.46"/><path fill="#fff" d="M263.307 284.297h17.124v14.306h14.306v17.124h-14.306v14.305h-17.124v-14.305h-14.308v-17.124h14.308z"/><path fill="#6F90C5" d="M99.714 640.044H221.44a5.817 5.817 0 0 1 5.815 5.815c0 3.174-2.605 5.779-5.815 5.779H99.714c-3.174 0-5.779-2.605-5.779-5.779 0-3.21 2.605-5.815 5.78-5.815"/><path fill="#A65645" d="M192.542 621.775s24.652 11.881 25.117 12.024c.5.142 5.779 1.034 5.136 4.173-.607 3.103-2.711 5.601-2.711 5.601s-.75 1.035-3.246 1.248c-2.498.214-54.264-.678-54.264-.678s-5.922.32-5.85-4.173c.071-4.496.714-20.55.714-20.55v-13.592h30.753l4.354 15.947z"/><path fill="#171948" d="M222.188 640.004c-.857 2.104-2.104 3.568-2.104 3.568s-.75 1.034-3.246 1.248c-2.498.213-54.264-.679-54.264-.679s-5.85.321-5.85-4.137zm-19.872-13.307c.178-.178.214-.463.036-.643a.46.46 0 0 0-.643-.071l-7.278 6.28a.41.41 0 0 0-.036.607c.142.214.427.214.607.071zm-4.816-2.246a.466.466 0 0 0 .143-.643c-.143-.213-.427-.249-.643-.142l-7.314 4.887a.42.42 0 0 0-.107.607c.142.214.392.285.607.143z"/><path fill="#667F93" d="m163.573 371.437 4.208-2.711 28.97-2.283s3.319.821 3.174 4.567c-.142 3.746-3.675 105.992-3.675 105.992l-3.318 63.538-1.177 68.248 1.784 9.026 1.248 3.853s-1.248 2.247-4.138 2.392c-2.925.142-23.475.142-23.475.142l-9.027 4.425s-4.709.427-4.567-4.567c.143-4.994.964-12.38.964-12.38l1.962-28.862-4.318-130.324 11.38-81.056z"/><path fill="#445460" d="M187.297 610.322c.249-.035.427-.284.391-.5-.071-.249-.284-.427-.536-.392-.071 0-17.088 3.032-23.759 4.102-6.885 1.141-9.597 3.068-9.632 3.068a.49.49 0 0 0-.107.643.493.493 0 0 0 .643.107s2.569-1.82 9.24-2.926c6.885-1.105 23.724-4.102 23.76-4.102m.287-113.27c.035-.25-.178-.463-.427-.463s-.463.178-.463.427-2.318 77.737-2.534 89.725c-.249 12.023 0 19.086 0 19.086 0 .249.214.462.463.462.249-.035.427-.213.427-.462 0-.036-.213-7.063 0-19.051.214-11.988 2.534-89.511 2.534-89.724"/><path fill="#A65645" d="m137.531 626.412 2.712 4.138 11.131 12.308s.963 2.211.75 4.208c-.214 2.034-2.641 2.997-2.641 2.997h-23.046s-7.883-.501-11.916-1.177c-4.031-.678-9.881-2.14-9.881-2.14s-1.355-1.106-.679-5.281c.679-4.173 1.82-13.485 1.82-13.485l1.784-13.591 29.218 1.606.75 10.417z"/><path fill="#171948" d="M151.658 643.678c.285.821.608 2.14.463 3.39-.213 2.033-2.64 2.996-2.64 2.996h-23.046s-7.883-.5-11.916-1.176c-4.031-.679-9.882-2.14-9.882-2.14s-1.354-1.106-.678-5.281c.071-.356.107-.75.178-1.177 3.639.643 8.562 1.535 11.81 2.176 5.636 1.105 9.205 1.212 9.205 1.212zm-8.455-7.205c.249 0 .427-.178.463-.427a.47.47 0 0 0-.463-.463l-20.3-.427c-.25-.035-.463.178-.463.427s.178.463.427.463zm-4.14-4.211c.25 0 .465-.178.465-.427.036-.249-.178-.463-.427-.463l-12.773-.465a.474.474 0 0 0-.465.465c0 .252.214.427.428.463z"/><path fill="#667F93" d="M169.604 373.042s-1.106 33.572-3.032 37.173c-1.962 3.639-4.174 10.56-4.174 10.56l-12.094 78.415-9.49 129.574-.571 1.784s-5.137-2.354-8.456-1.642c-3.319.679-26.08 5.815-26.08 5.815s-3.746.572-4.173-2.498c-.427-3.032.143-8.74.143-8.74l2.498-4.318s1.034-73.741 2.569-81.376c1.535-7.634 1.677-8.064 1.677-8.064s-3.067-58.437-2.783-71.744c.25-13.342 4.994-85.8 4.994-85.8s-1.39-3.032 1.927-3.889h52.193s3.888-1.926 4.852 4.745z"/><path fill="#445460" d="M170.031 373.826c0-.249-.178-.463-.428-.463-.249 0-.462.178-.462.427 0 .107-.679 29.72-2.392 34.142l-4.78 12.699-.036.072-12.058 78.415a.48.48 0 0 0 .391.536.445.445 0 0 0 .501-.392l12.058-78.379 4.745-12.629c1.784-4.602 2.463-34.355 2.463-34.428z"/><path fill="#445460" d="M164.859 373.826c0-.249-.178-.463-.427-.463s-.465.178-.465.427l-1.213 44.559c0 .249.178.463.428.463.249.035.462-.178.462-.427l1.213-44.559zm-28.863 244.845a.504.504 0 0 0 .501-.427c0-.249-.178-.463-.427-.463-.036-.035-10.702-.927-16.555.321-5.779 1.212-17.945 4.958-17.981 4.958-.249.071-.356.32-.284.572.071.213.32.356.536.285.035 0 12.165-3.711 17.909-4.923 5.708-1.213 16.268-.321 16.303-.321zm-20.014-127.612c0-.249-.178-.462-.427-.462s-.462.178-.462.427l-1.355 39.956c-.107.821-3.103 19.978-3.103 29.79s.391 53.728.391 53.835c0 .249.214.463.465.463.252 0 .427-.214.427-.463 0-.107-.391-43.56-.391-53.835s3.103-29.61 3.103-29.681l1.355-40.027z"/><path fill="#fff" d="m184.016 248.428 13.235-5.21s6.529 4.173 8.491 8.064c1.927 3.888 15.805 63.824 15.805 63.824s1.464 10.347-7.848 12.166c-9.276 1.784-16.768-.427-16.768-.427l-18.052-69.675 5.137-8.74z"/><path fill="#06D0A0" d="M177.665 232.731h-38.744l-6.956 20.299v115.268h50.302V264.019z"/><path fill="#503DA0" d="m171.136 242.22-4.494 4.173 6.529 98.681-7.349 14.128-9.49-14.878 5.921-97.895-6.92-6.707 6.565-5.352 6.778.178z"/><path fill="#06AA83" d="m169.674 223.668 2.534 1.32 3.281 3.496s3.711 5.495 2.57 8.278l-3.782 9.133s-1.713 2.712-3.139.501l-7.243-11.06-8.241 10.346s-1.535 2.211-4.994-.214c-3.497-2.427-12.664-16.803-12.664-16.803s-.178-4.318 1.07-6.316c1.247-1.997 7.065-4.424 7.065-4.424l23.546 5.743z"/><path fill="#FDA77E" d="M172.206 212.931v15.911s-.714 5.424-9.881 4.318c-9.134-1.141-17.124-9.24-17.124-9.24l-.214-24.51 27.221 13.521z"/><path fill="#D05F3C" d="M172.206 212.931v9.489c-6.422.071-14.877-.32-19.122-2.818-3.852-2.247-6.457-7.279-8.028-11.559l-.071-8.633z"/><path fill="#571F0E" d="M186.692 364.019h-57.439v8.132h57.439z"/><path fill="#fff" d="M173.385 362.412h-12.629c-.927 0-1.677.75-1.677 1.677v8.064c0 .928.75 1.677 1.677 1.677h12.629c.892 0 1.642-.749 1.642-1.677v-8.064c0-.927-.75-1.677-1.642-1.677"/><path fill="#5EA796" d="M245.022 272.793c.821-.642.964-1.819.321-2.604a1.834 1.834 0 0 0-2.605-.321l-29.755 23.262c-.821.643-3.959 3.995-3.319 4.816.607.785 4.781-1.248 5.601-1.891l29.755-23.262z"/><path fill="#FDA77E" d="M237.957 281.927s3.462.571 4.102 2.925c.679 2.353-1.39 14.234-2.747 16.196-1.319 1.962-6.956 7.741-6.956 7.741s-2.282 1.355-4.246.572c-1.927-.785-8.384-4.887-8.384-4.887s-1.927-1.713-1.571-3.319c.356-1.642 3.497-12.593 3.497-12.593l.249-1.034-4.78-2.854s-1.141-1.284-.392-2.641c.75-1.319 2.105-2.427 2.105-2.427l19.121 2.318z"/><path fill="#AC5649" d="M231.108 291.808c.214.107.463 0 .572-.249.107-.214 0-.463-.249-.572l-9.347-3.888c-.25-.107-.501 0-.608.249a.41.41 0 0 0 .249.572zm-5.065 11.736c.214.143.501.072.607-.142.143-.213.072-.5-.142-.607l-7.492-4.496c-.214-.107-.463-.035-.607.178-.143.214-.072.463.142.607zm2.854-5.494c.214.107.463 0 .607-.214.107-.213 0-.5-.213-.607l-8.811-4.282c-.214-.107-.501-.036-.608.178a.46.46 0 0 0 .214.607z"/><path fill="#FDA77E" d="m184.443 171.547-.427 15.912-1.106 13.807s-2.676 13.556-10.31 15.554l-10.524-.178s-9.099-2.033-12.024-6.458c-2.925-4.46-5.065-10.773-5.065-10.773s-5.922-.999-5.779-10.31c.107-9.276 6.92-6.992 7.741-1.784l.892-5.101.071-11.665s.463-8.527 12.557-9.919c12.059-1.391 22.548 3.39 23.974 10.917z"/><path fill="#AC5649" d="M175.667 202.764c.249 0 .427-.25.392-.501a.396.396 0 0 0-.463-.392c-.035 0-6.458.608-13.413-1.034-.214-.071-.463.107-.537.356a.5.5 0 0 0 .356.536c7.063 1.677 13.628 1.035 13.663 1.035z"/><path fill="#824B36" d="M182.839 179.324c.214.142.501.142.643-.072.142-.178.107-.462-.071-.643-.036 0-3.21-2.533-8.491.25-.214.106-.285.391-.178.607s.391.285.607.178c4.745-2.498 7.492-.32 7.492-.32zm-18.232-.036c.178.178.501.178.643 0a.454.454 0 0 0 0-.643s-3.568-3.461-9.525-.785c-.214.107-.321.391-.214.607.107.214.356.32.608.214 5.387-2.427 8.49.607 8.49.607z"/><path fill="#AC5649" d="M140.527 186.959c-.071.249.071.5.32.536.25.071.501-.107.537-.32.071-.285.284-.572.536-.786.213-.142.427-.249.678-.284.214-.036.392-.036.607.071.178.107.356.32.501.607.356.821.643 2.247.821 3.675.178 1.642.213 3.21.035 3.853-.249 1.034-1.319 1.212-1.319 1.212a.444.444 0 0 0-.391.501.477.477 0 0 0 .536.391s1.677-.285 2.069-1.891c.178-.749.142-2.462-.036-4.137-.178-1.535-.501-3.068-.892-3.96a2.15 2.15 0 0 0-.892-1.034c-.392-.214-.785-.249-1.212-.178-.356.071-.75.249-1.035.463-.427.32-.749.785-.856 1.283z"/><path fill="#AC5649" d="M141.025 190.883c-.142.214-.106.501.107.643a.45.45 0 0 0 .608-.071s.213-.285 1.212-.427c.999-.107 1.784.678 1.784.678a.454.454 0 1 0 .643-.643s-1.106-1.105-2.534-.927c-1.39.178-1.82.749-1.82.749z"/><path fill="#824B36" d="M154.548 164.091s1.606 2.996.501 5.886c-1.106 2.925-7.172 5.423-7.172 5.423s2.534 8.598-.928 11.917c0 0-2.818-5.317-6.099-3.746 0 0-4.389-6.28-4.247-11.988.143-5.672 1.571-6.387 1.571-6.387s1.39-6.991 5.637-9.489 11.095-.285 11.095-.285l-.356 8.669z"/><path fill="#824B36" d="M190.08 176.649s-8.242.571-11.238-9.17c0 0-9.17.427-14.164-1.713-4.993-2.175-7.062-1.748-7.062-1.748l-2.14 1.464s-5.993-2.069-5.993-7.35 4.709-10.097 11.988-9.419c7.278.715 15.876 2.034 20.692 7.991 4.78 5.957 6.028 15.269 7.955 16.732 1.962 1.429 2.925 1.391 2.925 1.391l-2.961 1.819z"/><path fill="#C38F6A" d="M178.557 161.415a.46.46 0 0 0 .32-.572c-.035-.249-.284-.391-.536-.32-.035 0-5.245 1.464-12.308-1.748-1.997-.892-3.924-1.32-5.672-1.32-1.927-.035-3.64.392-5.03 1.142-1.39.714-2.427 1.784-2.961 2.96a4.5 4.5 0 0 0-.391 1.82c0 .249.178.465.427.465a.474.474 0 0 0 .465-.465c0-.5.107-.963.32-1.464.463-.998 1.355-1.89 2.569-2.533 1.248-.679 2.819-1.07 4.603-1.035 1.606.036 3.426.392 5.316 1.248 7.35 3.355 12.88 1.82 12.88 1.82zm5.352 5.317c.214-.107.32-.392.214-.608-.107-.213-.356-.32-.572-.213-.036 0-4.031 1.784-12.737.821-.25-.036-.463.142-.501.391-.036.249.142.463.392.501 8.953.998 13.164-.892 13.2-.892zm-14.842-10.738c.214.107.465-.036.536-.285s-.035-.5-.284-.571c-.072 0-18.659-5.886-19.658 5.708a.394.394 0 0 0 .391.462c.25.036.463-.142.501-.391.892-10.453 18.445-4.923 18.517-4.923z"/><path fill="#7E3E35" d="m159.186 182.214-.071 3.138s.036.857.785.963c.75.107 1.248-.035 1.464-.678.213-.643.142-3.782.142-3.782s-.071-.82-.963-.856-1.319.427-1.355 1.212zm19.158.892-.072 3.139s.036.856.786.963c.749.107 1.248-.036 1.463-.678.216-.643.143-3.782.143-3.782s-.107-.821-.964-.856c-.892-.036-1.319.427-1.354 1.212z"/><path fill="#AC5649" d="M172.135 207.044a.444.444 0 0 0 .391-.501.443.443 0 0 0-.5-.391s-3.461.5-7.67-.607a.506.506 0 0 0-.536.32.46.46 0 0 0 .32.572c4.353 1.141 7.99.607 7.99.607z"/><path fill="#654D4D" d="M154.584 182.712c.249-.036.427-.285.391-.501a.443.443 0 0 0-.5-.391l-10.311 1.39a.48.48 0 0 0-.391.536c.035.25.249.392.5.356z"/><path fill="#AC5649" d="M149.409 190.132a.454.454 0 0 0-.642.643l5.53 5.281a.41.41 0 0 0 .607-.035c.178-.178.178-.465 0-.608zm30.147 7.207a.45.45 0 0 0 .071.608c.178.178.465.142.643-.036l2.925-3.675c.178-.213.142-.5-.071-.643-.178-.142-.463-.142-.607.072z"/><path fill="#EE7353" d="M173.883 194.237s.143.963-3.319.284c-3.497-.643-5.459.427-5.459.427s-.642 3.175 1.891 3.533c2.534.391 5.459.142 6.885-4.247z"/><path fill="#AC5649" d="M173.421 181.822a.55.55 0 0 0-.143-.643.514.514 0 0 0-.643.178s-2.391 3.782-1.141 7.063a47 47 0 0 1 1.82 5.779c-.214.572-1.248 3.319-3.319 3.817-2.391.572-4.318-.536-4.318-.536-.213-.107-.5-.036-.607.178-.142.249-.036.5.178.643 0 0 2.211 1.248 4.958.571 2.819-.678 3.995-4.531 3.995-4.531l.036-.249c-.036 0-.714-2.925-1.891-6.028-1.105-2.819 1.035-6.244 1.07-6.244z"/><path fill="#654D4D" d="M154.012 181.822c-.249 0-.463.178-.463.427-.035.249.178.462.427.462l18.908.821c.036 1.284.143 4.887 1.213 6.529.643 1.034 2.033 1.571 3.639 1.748 1.784.214 3.924 0 5.601-.5 3.355-.999 3.426-7.599 3.426-7.634l.036-.428-32.787-1.428zm19.8 1.748 12.059.536c-.107 1.39-.536 5.673-2.783 6.351-1.57.463-3.568.678-5.245.463-1.355-.178-2.498-.572-2.997-1.319-.927-1.464-1.034-4.781-1.034-6.029z"/><path fill="#654D4D" d="M167.784 182.855a.47.47 0 0 0-.463-.462.47.47 0 0 0-.463.462s.072 5.922-2.427 6.743c-1.428.465-3.674.572-5.636.285-1.606-.214-2.997-.715-3.462-1.464-1.034-1.784-.821-6.138-.821-6.173.036-.249-.177-.463-.427-.463-.249 0-.462.178-.462.427 0 0-.249 4.674.963 6.672.607 1.034 2.211 1.641 4.102 1.89 2.069.285 4.46.178 6.028-.32 3.139-.999 3.068-7.599 3.068-7.599z"/><path fill="#fff" d="M142.489 225.094s4.781 5.886 5.423 11.381c.214 2.069.928 34.177 1.678 73.243 1.248 64.074-2.211 178.415-2.211 178.415s.571 4.994-6.387 4.46c-6.92-.572-41.349-8.882-41.349-8.882s-6.1-2.247-5.814-8.883c.249-6.671 16.946-152.977 16.946-152.977l-3.889-59.152s-3.888-20.263 1.962-24.972c4.318-3.532 19.015-10.346 26.187-13.591a176 176 0 0 1 4.031-1.784l3.425 2.747zm33.072 7.101 5.352 256.974s.892 4.389 3.959 3.675c3.068-.678 23.046-11.81 23.046-11.81s2.069-2.498 2.354-7.349c.284-4.852-7.063-121.726-7.063-121.726l-.857-9.704s3.068-48.02 3.068-57.474-7.027-40.027-7.027-40.027-.143-.821-2.641-2.783c-2.498-1.926-20.265-13.485-20.265-13.485l.072 3.711z"/><path fill="#99C3DB" d="m136.603 223.097-6.028 18.872c-.107.214-1.284 3.319 1.784 5.815l.071.036 15.841 8.882.427-.821-15.805-8.847c-2.605-2.14-1.5-4.709-1.5-4.709l6.064-18.944-.856-.284z"/><path fill="#99C3DB" d="m150.23 321.134-15.482-60.755c-.036-.427-.285-3.532 1.034-4.173l6.458-3.139-.391-.785-6.422 3.103c-2.034.964-1.571 5.101-1.571 5.137l.036.071 15.482 60.755zm32.894-87.227 4.674 12.664c.071.249.678 2.712-.964 4.781l-11.131 5.921.427.785 11.203-5.957.142-.106c2.104-2.534 1.212-5.673 1.177-5.708l-4.674-12.7-.856.32z"/><path fill="#99C3DB" d="m177.238 320.494 10.31-58.046v-.071s.143-2.392-1.713-3.568l-5.814-3.604-.463.785 5.779 3.604c1.319.821 1.319 2.463 1.319 2.712l-10.31 58.045zm23.653-66.395a.43.43 0 0 0-.536-.356c-.214.036-.392.285-.321.536 0 .036 3.21 14.949 4.496 24.866 1.248 9.919-.285 23.475-.285 23.51-.035.249.143.501.392.501a.446.446 0 0 0 .5-.392c0-.035 1.571-13.7.285-23.724-1.283-9.99-4.495-24.901-4.531-24.936z"/><path fill="#99C3DB" d="M204.243 257.202a.473.473 0 0 0-.462-.465c-.25.036-.428.214-.428.465 0 .036.143 3.319-.856 9.312-.036.249.107.5.356.536a.48.48 0 0 0 .536-.391c1.034-6.064.856-9.455.856-9.455zm-94.398 126.474c-.249 0-.465-.249-.465-.501a.444.444 0 0 1 .501-.391l35.391 2.961-.536 12.986c0 .143 0 3.533-2.104 3.889h-.107l-30.538-2.247c-.391.035-3.281.213-3.746-2.14v-12.916c0-.249.214-.427.463-.427a.476.476 0 0 1 .427.501v12.737c.356 1.606 2.783 1.319 2.783 1.319h.071l30.502 2.247c1.355-.285 1.319-2.961 1.319-2.996l.536-12.095-34.499-2.925z"/><path fill="#99C3DB" d="M108.383 400.264a.444.444 0 0 1 .501-.391c.214.035.427.249.391.5l-1.212 19.338v.071s-.607 2.391 3.281 2.498l26.543 1.428h.071s3.497.75 3.532-1.428l.857-18.588a.5.5 0 0 1 .5-.427c.25.036.427.249.392.501l-.857 18.587c-.071 3.032-4.101 2.354-4.531 2.247l-26.507-1.39c-4.78-.143-4.244-3.319-4.173-3.639l1.212-19.3zm75.811-16.911a.47.47 0 0 1-.463-.463c0-.249.178-.462.427-.462l20.657-1.177.749 13.058c0 .106.356 3.532-1.677 4.137h-.107l-15.769 1.319c-.391.072-3.246.608-3.924-1.677v-.107l-1.284-12.808a.396.396 0 0 1 .392-.463c.249-.036.463.142.501.392l1.247 12.773c.537 1.57 2.89.963 2.89.963h.071l15.734-1.284c1.319-.462 1.034-3.174 1.034-3.174l-.714-12.201-19.764 1.176z"/><path fill="#99C3DB" d="M184.443 400.121c-.036-.249.178-.462.427-.462.214 0 .427.178.463.427l.714 19.48v.071s-.392 2.498 3.461 2.14l11.772-1.642h.071s3.497.285 3.319-1.891l-.963-18.694c0-.25.178-.463.427-.463.249-.036.463.178.463.427l.963 18.695c.249 3.032-3.817 2.854-4.247 2.818l-11.7 1.642c-4.745.462-4.532-2.783-4.46-3.139l-.715-19.409z"/><path fill="#654D4D" d="M185.871 232.839a1.037 1.037 0 0 0-1.499 0 1.07 1.07 0 0 0 .035 1.499s6.849 6.636 7.243 14.341c.427 8.135.572 46.557.572 46.663 0 .572.462 1.07 1.07 1.07.571 0 1.034-.5 1.034-1.07 0-.106-.178-38.637-.572-46.772-.462-8.562-7.848-15.733-7.883-15.733z"/><path fill="#654D4D" d="M193.078 292.381a6.775 6.775 0 0 0-6.778 6.778 6.775 6.775 0 0 0 6.778 6.778 6.775 6.775 0 0 0 6.778-6.778 6.775 6.775 0 0 0-6.778-6.778"/><path fill="gray" d="M195.539 297.517c-.892-1.354-2.712-1.712-4.067-.82s-1.748 2.747-.821 4.066c.892 1.355 2.712 1.748 4.067.821 1.354-.892 1.713-2.712.821-4.067"/><path fill="#06AA83" d="M136.316 262.554c.536-.142.928-.714.785-1.283a1.035 1.035 0 0 0-1.247-.785s-9.205 1.89-12.095 9.56c-2.747 7.314-2.676 16.054-2.676 16.09 0 .572.465 1.07 1.07 1.07.572 0 1.034-.5 1.034-1.07 0-.036-.071-8.42 2.534-15.34 2.498-6.6 10.56-8.242 10.595-8.242"/><path fill="#999" d="M131.787 315.107c.32 0 .607-.285.607-.607a.624.624 0 0 0-.607-.608c-.036 0-5.601.072-6.386-1.926-.928-2.247-2.641-25.793-2.677-25.864 0-.32-.284-.572-.642-.572-.321.036-.572.321-.537.643 0 .071 1.749 23.831 2.748 26.258 1.105 2.747 7.456 2.676 7.492 2.676z"/><path fill="#06AA83" d="M136.316 260.486c-.571-.143-1.141.249-1.283.785a1.114 1.114 0 0 0 .821 1.283c.035 0 8.099 1.642 10.559 8.242 2.605 6.92 2.569 15.304 2.569 15.34 0 .572.463 1.07 1.035 1.07s1.07-.5 1.07-1.07c0-.036.071-8.776-2.676-16.09-2.89-7.67-12.095-9.56-12.095-9.56"/><path fill="#999" d="M140.385 313.893a.603.603 0 0 0-.608.608c0 .322.25.607.608.607 0 0 6.386.071 7.492-2.676.999-2.427 2.747-26.187 2.747-26.258.036-.32-.214-.607-.572-.643a.655.655 0 0 0-.643.572c0 .071-1.748 23.617-2.64 25.864-.821 1.998-6.386 1.926-6.386 1.926z"/><path fill="#06AA83" d="M135.033 261.592c.035.571.536.998 1.141.963.571-.036.999-.536.963-1.141l-1.855-24.332v-.071c0-.036-1.355-11.416-9.098-10.809-.572.036-.999.536-.964 1.141.036.572.536.999 1.141.964 5.459-.428 6.707 8.134 6.814 8.918l1.855 24.367z"/><path fill="#999" d="M132.893 313.073c-.892 0-1.642.608-1.642 1.319 0 .75.75 1.355 1.642 1.355s.82-.572.82-1.283c0-.75.072-1.391-.82-1.391m6.064 0c.892 0 1.641.608 1.641 1.319 0 .75-.749 1.355-1.641 1.355s-.857-.572-.857-1.283c0-.75-.035-1.391.857-1.391"/><path fill="#fff" d="m118.193 276.931-5.85 59.116s-2.605 5.136-12.629 5.815c-9.99.714-16.16-4.709-16.16-4.709l6.956-77.097s-.75-14.163 20.443-23.83c0 0 9.24 2.854 9.098 11.736l-1.856 28.969z"/><path fill="#99C3DB" d="M119.621 261.485a.396.396 0 0 0-.391-.465.447.447 0 0 0-.501.392l-5.172 58.01c-.035.249.143.462.392.5a.5.5 0 0 0 .5-.427z"/><path fill="#99C3DB" d="M124.366 262.448a.48.48 0 0 0-.391-.536c-.249-.036-.463.142-.501.391 0 .036-1.748 11.772-6.137 15.948a.453.453 0 0 0 0 .642c.178.178.463.214.643.036 4.602-4.424 6.386-16.481 6.386-16.481"/><path fill="#FDA77E" d="m171.207 333.3.321-2.246s5.1-3.462 8.955-4.567c3.889-1.106 19.373-.607 19.373-.607s1.962 1.248.428 3.032c-1.535 1.819-9.597 1.534-9.597 1.534l-2.211.356s-2.925 3.818-5.495 3.818l-11.771-1.32z"/><path fill="#99C3DB" d="m153.013 326.628 8.74.572s1.248-.285 1.535 5.53c.285 5.85-1.926 19.871-1.926 19.871s-.178 4.709-4.745 4.425c-4.567-.285-14.7-3.889-14.7-3.889l11.096-26.507z"/><path fill="#FDA77E" d="m173.207 330.804-23.297-3.21s-7.172 17.518-4.923 20.263c2.211 2.782 5.388 2.925 5.388 2.925l18.194-1.391z"/><path fill="#fff" d="M161.753 327.199s-3.888 1.535-4.994 8.74-2.069 17.053-.142 21.084l-59.937-3.746s-10.846-1.784-12.628-11.096c-1.82-9.311 1.784-16.803 5.136-19.157 3.32-2.353 15.127-5.136 15.127-5.136z"/><path fill="#99C3DB" d="M140.598 324.239c.25.035.463-.143.501-.392.036-.249-.142-.463-.392-.5l-43.061-6.672a.48.48 0 0 0-.536.392c-.036.249.142.463.391.5zm13.592 33.106a.504.504 0 0 0 .501-.427.5.5 0 0 0-.428-.5l-52.622-3.281a.5.5 0 0 0-.5.427c0 .249.177.462.427.5z"/><path fill="#571F0E" d="M245.914 302.513h-40.1c-1.606 0-3.462 1.319-4.102 2.925l-21.976 54.549c-.643 1.606.142 2.925 1.748 2.925h40.101c1.606 0 3.462-1.319 4.102-2.925l21.976-54.549c.643-1.606-.143-2.925-1.749-2.925"/><path fill="#BD7D71" d="M246.984 303.618h-40.1c-1.607 0-3.462 1.319-4.102 2.925l-21.976 54.549c-.643 1.606.142 2.925 1.748 2.925h40.137c1.57 0 3.425-1.319 4.066-2.925l21.976-54.549c.643-1.606-.143-2.925-1.749-2.925"/><path fill="#571F0E" d="M236.852 300.478h-20.657c-.572 0-1.141.213-1.677.607a3.07 3.07 0 0 0-1.106 1.39l-1.677 4.102c-.107.285-.178.572-.178.821 0 .356.107.678.285.963.178.249.427.463.75.607.249.107.5.143.749.143h20.621c.572 0 1.177-.214 1.677-.572.501-.356.928-.856 1.142-1.39l1.641-4.138c.143-.285.178-.571.178-.821 0-.356-.071-.678-.249-.927-.178-.285-.463-.501-.785-.643-.214-.071-.463-.142-.714-.142m-20.657 1.534h20.835c0 .036.035.036.035.036.036.036.036.071.036.142 0 .072-.036.178-.071.285l-1.642 4.102c-.107.285-.356.536-.607.714-.249.178-.572.32-.821.32h-20.621c-.071 0-.142-.035-.178-.035s-.036-.036-.071-.036v-.142c0-.071 0-.178.035-.249l1.678-4.138c.106-.249.32-.536.607-.714.249-.178.536-.285.785-.285"/><path fill="#FDA77E" d="M173.207 330.804s14.842 1.464 19.658 2.14c4.78.714 23.724.285 23.724.285s1.39.071 1.535 1.82c.142 1.712-1.177 2.353-1.177 2.353l-6.814 1.642s-.963 2.996-1.855 4.102c-.927 1.105-4.389 1.962-4.389 1.962s-.213 2.14-1.535 3.174-3.746 1.39-3.746 1.39-1.784 1.82-3.103 2.57-5.993 1.39-5.993 1.39-18.659-1.248-21.762-4.994c-3.138-3.746-1.319-9.99-1.319-9.99s1.035-7.777 6.778-7.848z"/><path fill="#AC5649" d="M189.795 333.015c.249.036.501-.142.501-.391.035-.249-.143-.463-.392-.501l-10.453-1.141c-.249-.036-.462.142-.5.392-.036.249.178.462.391.5zm5.21 5.246c-.249-.036-.501.142-.501.391a.45.45 0 0 0 .356.501c.036 0 9.739 1.283 15.34.356a.48.48 0 0 0 .392-.537c-.071-.213-.285-.391-.536-.355-5.495.892-15.056-.356-15.056-.356zm-3.39 10.702c-.249-.036-.463.178-.463.427s.178.462.427.462l7.027.285c.249 0 .463-.178.463-.427a.5.5 0 0 0-.427-.5l-7.027-.25zm1.39-4.461c-.249 0-.463.178-.463.428 0 .249.178.462.427.462.036 0 9.49.608 11.061.143a.47.47 0 0 0 .284-.572c-.071-.249-.32-.356-.571-.285-1.391.392-10.702-.178-10.738-.178z"/><path fill="#8CABE2" d="M9.367 143.664h55.44c.857 0 1.536.679 1.536 1.499v14.555c0 .821-.679 1.499-1.535 1.499H9.368c-.822 0-1.5-.678-1.5-1.499v-14.555c0-.82.678-1.499 1.5-1.499"/><path fill="#484F80" d="M14.968 153.403a.96.96 0 0 1-.963-.963c0-.536.427-.963.963-.963h44.274c.5 0 .928.427.928.963s-.427.963-.928.963z"/><path fill="#fff" d="M41.653 164.711H64.13a2.2 2.2 0 0 1 2.212 2.211v22.441c0 1.248-1 2.246-2.212 2.246H41.653c-1.212 0-2.211-.998-2.211-2.246v-22.441a2.2 2.2 0 0 1 2.211-2.211"/><path fill="#8CABE2" d="M44.685 186.259c-.536 0-.963-.427-.963-.928 0-.536.427-.963.963-.963H61.06c.536 0 .963.427.963.963 0 .501-.427.928-.963.928zm0-7.172c-.536 0-.963-.427-.963-.928 0-.536.427-.963.963-.963H61.06c.536 0 .963.427.963.963 0 .501-.427.928-.963.928zM51 171.915a.96.96 0 0 1-.963-.963c0-.5.427-.928.963-.928h10.062c.536 0 .963.428.963.928a.96.96 0 0 1-.963.963z"/><path fill="#6F90C5" d="M288.996 652.518h130.269c3.319 0 6.043 2.723 6.043 6.08 0 3.319-2.724 6.043-6.043 6.043H288.996c-3.319 0-6.08-2.724-6.08-6.043 0-3.357 2.761-6.08 6.08-6.08"/><path fill="#FDA77E" d="M305.485 406.155s-1.007 10.855-.821 14.363-.56 9.402-.56 9.402l-2.724 13.468s-.335.895-1.568.784c-1.23-.112-1.568-.335-1.568-.335s-.635-1.454-.446-3.843c.223-2.387.746-7.199.746-7.199l-1.267-.896s-3.282 3.769-4.327 5.746c-1.081 1.977-1.23 3.768-1.23 3.768s-.447 3.431-.261 5.259c.223 1.791 1.156 3.768 1.156 3.768l2.65 2.35s2.5.858 2.686 2.537c.186 1.68-.821 1.568-1.754 1.268-.97-.298-8.02-3.208-9.102-4.177-1.081-.97-2.761-5.523-2.761-5.523s-2.798-2.574-3.17-4.514c-.372-1.903.933-13.205.933-13.205s1.193-4.776 2.423-7.946c1.268-3.208 5.895-11.975 5.895-11.975l1.94-15.296 14.249 2.461-1.119 9.737z"/><path fill="#AC5649" d="M287.282 433.686c.037-.26-.112-.523-.373-.56-.26-.037-.523.111-.56.372l-2.501 13.319c-.037.26.112.484.372.523a.45.45 0 0 0 .561-.372l2.501-13.279zm-3.657-.933c.037-.261-.149-.484-.409-.524-.261-.037-.484.149-.524.41l-1.342 11.19c-.037.261.149.484.409.524.224.037.484-.149.524-.41z"/><path fill="#54353A" d="M392.071 629.498s1.267 6.267.409 10.221c-.858 3.992-2.873 10.521-2.873 10.521s-1.007 7.462.784 11.302c1.828 3.806 7.385 4.252 15.445 4.029 8.02-.223 15.22-1.156 13.242-8.692-1.94-7.537-6.154-16.639-6.154-16.639l-2.761-12.049.223-14.063-18.318 15.37z"/><path fill="#963" d="M389.347 655.911c.037 1.977.335 4.103 1.044 5.634 1.828 3.805 7.385 4.252 15.445 4.029 7.723-.186 14.624-1.082 13.431-7.835-1.454 2.464-3.843 2.799-3.843 2.799s-12.272 1.305-17.943.746c-4.327-.446-7.088-3.805-8.132-5.371z"/><path fill="#566491" d="m385.653 515.196-2.387 3.694-.074 58.794 2.947 54.539s-.409 9.288 14.661 8.243c15.071-1.007 17.085-4.626 17.085-4.626l-1.754-7.385 1.605-81.587-.297-28.241s-15.071-21.897-31.784-3.431z"/><path fill="#313763" d="M410.872 539.185a.43.43 0 0 1 .447-.447c.26 0 .484.186.484.447l.372 90.428c0 .26-.186.484-.447.484a.494.494 0 0 1-.484-.484z"/><path fill="#54353A" d="M318.355 638.714s-10.183 6.715-15.445 9.325c-5.296 2.612-14.81 4.14-14.81 4.14s-1.94.635-2.014 2.464c-.074 1.791.598 4.401.598 4.401s-.149 1.828 4.177 2.237c4.364.447 24.845-.149 24.845-.149s3.059-.56 7.909-2.312c4.849-1.716 9.476-2.014 9.476-2.014s-.074 3.394 1.531 3.394h10.893s3.021.297 3.17-2.613c.149-2.872.074-17.608.074-17.608l.71-20.22h-25.405c-1.531 7.722-1.38 12.386-5.709 18.95z"/><path fill="#963" d="M286.423 657.925c.112.672.261 1.118.261 1.118s-.149 1.829 4.177 2.238c4.364.447 24.845-.149 24.845-.149s3.059-.56 7.909-2.312c4.849-1.717 9.476-2.014 9.476-2.014s-.074 3.393 1.531 3.393h10.892s3.022.298 3.171-2.612c0-.26.037-.597.037-1.007l-12.758-.037s-1.417-.523-4.178-.523-17.534 2.088-17.534 2.088l-27.829-.186z"/><path fill="#566491" d="M337.866 499.267s-13.951.409-15.966 11.714l-.932 116.726s-3.171 5.073-2.613 11.005l7.686.672s4.924 5.708 10.669 5.857c5.708.149 12.536-.298 12.536-.298s2.163-.635 2.237-4.177c.075-3.583 5.148-93.897 5.148-93.897s1.081-31.969-.97-39.915l-17.795-7.685z"/><path fill="#313763" d="M341.486 636.96c0 .26-.224.486-.484.446a.43.43 0 0 1-.447-.446l1.717-106.655c0-.26.223-.484.484-.484.26.038.484.224.446.484z"/><path fill="#566491" d="m328.092 387.428-6.154 120.944s-1.605 15.37 12.011 17.682c13.617 2.312 20.295-.895 23.615-17.534 3.356-16.675 13.914-100.127 13.914-100.127s-11.302-30.739-43.386-20.965"/><path fill="#313763" d="M345.252 515.72c0 .26-.224.483-.484.483-.261-.037-.484-.223-.447-.483l2.687-81.55c0-.26.223-.446.484-.446.26 0 .483.223.446.483z"/><path fill="#434472" d="m328.092 387.428-1.679 33.053c6.715.037 26.71.186 43.534-.149.933-7.311 1.531-11.937 1.531-11.937s-11.302-30.739-43.386-20.965z"/><path fill="#566491" d="m356.147 400.968-1.156 22.009s-.859 6.378 9.588 7.385l8.99 1.305 9.7 87.218s.56 18.281 16.526 18.281 17.646-18.541 17.646-18.541.97-86.437.747-119.264c-.224-32.828-56.219-30.441-62.039 1.605z"/><path fill="#313763" d="M407.59 418.242a.43.43 0 0 1 .447-.447c.26 0 .483.186.483.447l2.424 103.707c0 .26-.223.447-.484.447-.26 0-.446-.187-.484-.447z"/><path fill="#434472" d="m356.147 400.968-1.007 19.548c14.921-.112 30.999-.447 37.603-1.305 10.781-1.454 19.288-3.17 25.48-7.499 0-4.627 0-8.804-.038-12.349-.223-32.828-56.218-30.441-62.038 1.605"/><path fill="#313763" d="M393.524 434.43c.261.037.41.26.372.523a.464.464 0 0 1-.523.41l-46.668-7.386a.5.5 0 0 1-.409-.56.494.494 0 0 1 .561-.372z"/></g><path fill="#503DA0" d="M579.588 746.185h33.326V712.52h-33.326z"/><path fill="#fff" d="M577.953 747.833v-36.955h36.589v36.955zm3.256-33.664v30.373h30.077v-30.373z"/><path fill="#503DA0" d="M291.138 746.191h33.326v-33.664h-33.326z"/><path fill="#fff" d="M289.509 747.833v-36.955h36.59v36.955zm3.257-33.664v30.373h30.069v-30.373z"/><path fill="#503DA0" d="M291.138 36.156h33.326V2.492h-33.326z"/><path fill="#fff" d="M289.509 37.8V.843h36.59v36.955zm3.257-33.665v30.373h30.069V4.135z"/><path fill="#503DA0" d="M2.701 746.185h33.326V712.52H2.701z"/><path fill="#fff" d="M1.066 747.833v-36.955h36.59v36.955zm3.257-33.664v30.373h30.07v-30.373z"/><path fill="#503DA0" d="M579.581 390.774h33.326V357.11h-33.326z"/><path fill="#fff" d="M577.953 392.423v-36.955h36.59v36.955zm3.257-33.664v30.373h30.076v-30.373z"/><path fill="#503DA0" d="M2.694 390.774H36.02V357.11H2.694z"/><path fill="#fff" d="M1.066 392.423v-36.955h36.59v36.955zm3.256-33.664v30.373h30.07v-30.373z"/><path fill="#503DA0" d="M579.588 36.15h33.326V2.486h-33.326z"/><path fill="#fff" d="M577.953 37.8V.843h36.59v36.955zm3.264-33.665v30.373h30.069V4.135z"/><path fill="#503DA0" d="M2.7 36.15h33.327V2.486H2.701z"/><path fill="#fff" d="M1.066 37.8V.843h36.59v36.955zM4.322 4.134v30.373h30.07V4.135z"/><path fill="#FDA77E" d="m289.191 417.526 1.58-12.708 14.898 2.573-1.151 10.135z"/><path fill="#566491" d="m292.505 336.045 12.719-74.442s5.734-23.618 18.197-26.598c12.464-2.979 17.154 19.563 13.825 27.733l-15.063 79.207s-4.997 12.101-14.382 12.255c-9.387.149-16.354-7.717-15.295-18.155z"/><path fill="#E6E6E6" d="m283.484 417.526.758-5.914 14.868 5.914z"/><path fill="#566491" d="M282.102 417.526c.239-2.562 2.698-28.734 4.192-41.821 1.571-13.768 6.127-38.517 6.127-38.517s4.944-9.32 16.005-7.55 13.654 11.107 13.654 11.107-2.049 20.964-3.317 28.492c-1.092 6.465-9.225 39.189-11.495 48.289H282.1z"/><path fill="#313763" d="M305.306 329.91a.49.49 0 0 1-.506-.476.49.49 0 0 1 .476-.506c.036 0 12.797-.525 17.265 11.65a.494.494 0 0 1-.926.339c-4.223-11.499-16.275-11.004-16.309-11.004z"/><path fill="#566491" d="m328.122 398.041-.993 19.485h45.284c-3.542-7.232-16.404-27.98-44.291-19.485"/><path fill="#434472" d="m328.122 398.041-.993 19.485h45.284c-3.542-7.232-16.404-27.98-44.291-19.485"/><path fill="#566491" d="m357.456 412.147-.282 5.38h65.113c-.006-2.542-.015-4.904-.031-7.044-.234-34.27-58.743-31.774-64.802 1.663z"/><path fill="#434472" d="m357.456 412.147-.282 5.38h65.113c-.006-2.542-.015-4.904-.031-7.044-.234-34.27-58.743-31.774-64.802 1.663z"/><path fill="#C9DDE2" d="M348.446 229.604h48.451v84.88h-48.451z"/><path fill="#06D0A0" d="m360.203 240.062 5.259 4.918-8.667 64.456h19.076l-5.149-64.72 5.338-5.902-4.069-10.078-8.706-.605z"/><path fill="#fff" d="m363.039 220.09-9.615 4.994s-.756 1.895-.68 3.482 4.845 15.281 4.845 15.281 1.134 1.663 2.195.756l8.062-12.294 10.055 12.218s1.286 1.514 3.635-.075c0 0 7.77-9.836 11.177-14.299s3.709-8.248 3.709-8.248l-9.84-4.84-23.544 3.024z"/><path fill="#566491" d="m352.349 224.726 1.058.405s.417 17.449 2.384 34.849c1.967 17.398 8.934 43.424 8.934 43.424s16.2-38.127 19.985-49.021c3.784-10.894 9.159-33.731 9.159-33.731l5.224 1.654 23.466 9.986s4.544 3.633 3.636 8.625c-.909 4.994-8.934 101.671-8.934 101.671s4.769 29.431 5.676 43.199c.909 13.768 1.514 31.467 1.514 31.467s-.057.099-.189.273H318.777c1.025-13.621 6.658-73.35 6.658-73.35s-2.801-45.011-3.557-56.661c-.759-11.652-.759-20.576-.759-20.576l.605-29.808s.321-1.795 2.594-2.514c2.271-.72 28.028-9.89 28.028-9.89z"/><path fill="#313763" d="M398.643 222.5a.49.49 0 0 1 .253-.647.493.493 0 0 1 .647.255l6.472 14.803c.006.011 1.575 3.704-1.505 5.643L384.972 254.8a.492.492 0 0 1-.525-.832l19.537-12.246c2.303-1.451 1.188-4.274 1.123-4.436l-6.464-14.783z"/><path fill="#313763" d="m361.906 417.526 2.785-111.654.114-.303 34.836-41.874s1.973-2.236-.15-4.534c-2.423-2.623-8.276-8.709-8.292-8.726a.491.491 0 1 1 .704-.686c.017.017 5.893 6.128 8.313 8.748 2.636 2.854.321 5.664.165 5.847l-34.71 41.723-2.783 111.459h-.984zM348.015 225.81a.49.49 0 0 1 .696-.048.495.495 0 0 1 .047.695l-7.926 9.105c-.168.264-1.635 2.739.318 4.531l14.554 15.602a.493.493 0 0 1-.723.67l-14.515-15.563c-2.651-2.46-.441-5.81-.435-5.82l.036-.048z"/><path fill="#313763" d="M362.611 302.625a.491.491 0 1 1-.867.463l-20.668-38.789c-.33-.408-2.31-3.085.2-5.802 2.42-2.619 8.296-8.731 8.313-8.748a.491.491 0 1 1 .704.686c-.014.017-5.869 6.105-8.295 8.726-2.12 2.298-.153 4.528-.147 4.534l.07.096zm-41.73-48.124a.49.49 0 0 1 .497-.486.49.49 0 0 1 .487.494c0 .06-.288 20.338.771 37.109 1.041 16.501 3.205 51.154 3.211 51.253a.49.49 0 0 1-.462.521.49.49 0 0 1-.518-.461c-.006-.099-2.138-34.198-3.214-51.254-1.058-16.783-.771-37.12-.771-37.178z"/><path fill="#313763" d="M316.544 259.098a.49.49 0 0 1 .487-.494.49.49 0 0 1 .498.486c0 .03.149 10.728 4.175 16.357a.494.494 0 0 1-.804.573c-4.202-5.877-4.354-16.887-4.354-16.92zm65.77 120.275a.5.5 0 0 1-.515-.473.48.48 0 0 1 .467-.509l26.847-1.061a.504.504 0 0 1 .519.473.485.485 0 0 1-.468.51zm-60.207.017a.523.523 0 0 1-.518-.492.467.467 0 0 1 .468-.494l26.85-.163c.27 0 .5.219.515.492a.466.466 0 0 1-.468.495z"/><path fill="#566491" d="m414.915 267.429 13.698 77.995s2.274 8.926 14.383 7.112c12.113-1.816 12.718-12.105 12.718-12.105l-12.336-85.56s-1.213-17.778-20.818-22.582c0 0-11.433 1.853-7.645 35.14"/><path fill="#313763" d="M422.25 306.342a.492.492 0 0 1-.971.166l-6.976-40.141a.494.494 0 1 1 .972-.164z"/><path fill="#313763" d="M410.167 267.904a.494.494 0 0 1 .972-.167c0 .014.77 4.489 6.621 13.048a.49.49 0 0 1-.129.684.493.493 0 0 1-.684-.13c-5.974-8.736-6.781-13.422-6.781-13.435z"/><path fill="#FDA77E" d="m360.124 207.194-.303 18.306s-.15 7.111 8.025 6.808 16.957-7.564 16.957-7.564l3.182-5.599s-2.274-5.146-1.97-9.077c.303-3.935 1.668-18.762 1.668-18.762s-1.668-4.541-10.448-4.238c-8.782.303-18.86 5.722-17.109 20.124z"/><path fill="#D05F3C" d="m360.124 207.194-.255 15.434c1.041.822 2.405 1.628 4.021 1.966 3.836.81 18.999-11.361 20.693-14.524.346-.647.951-1.768 1.694-3.143.498-5.776 1.404-15.621 1.404-15.621s-1.668-4.541-10.448-4.238c-8.782.303-18.86 5.722-17.109 20.124z"/><path fill="#FDA77E" d="m347.729 159.789-2.594 11.825 1.247 31.844s.807 4.063 3.616 6.853c2.814 2.79 8.38 6.558 8.38 6.558s2.696 1.507 5.639 1.114 16.911-9.219 16.911-9.219 2.389-2.612 3.625-6.889l1.08-3.096s4.537-.216 6.711-5.883c2.175-5.664 1.661-9.39-1.424-11.187-3.083-1.798-5.287 2.235-5.814 4.75l.405-22.834s-4.216-9.105-15.007-10.289c-10.79-1.187-20.818 1.018-22.773 6.453z"/><path fill="#AC5649" d="M367.097 202.696a.491.491 0 1 1-.232.955c-.015-.003-5.736-1.492-11.754.651a.492.492 0 0 1-.329-.926c6.297-2.243 12.296-.683 12.315-.68m7.328-29.561c.273.019.062 1.786.043 2.058a.493.493 0 0 1-.526.456c-.017-.004-6.251-.417-8.048-1.941a.494.494 0 0 1-.056-.694c.177-.206.904-1.766 1.11-1.589 1.549 1.314 7.464 1.71 7.479 1.71zm-21.704-1.073c.233-.138.854 1.008.993 1.241a.494.494 0 0 1-.171.676c-.005.001-2.252 1.316-5.5 1.124a.494.494 0 0 1-.463-.521c.016-.272-.07-1.548.203-1.532 2.95.174 4.931-.983 4.936-.987zm31.631-8.534-1.61-1.805s-1.75.849-4.398-1.496c-2.645-2.34-14.101-.48-19.757.375-5.653.854-10.856-.816-10.856-.816s-1.047.346-2.558-2.032c-1.512-2.374-1.469-13.427 7.862-15.374 9.334-1.951 14.644 3.414 20.866 3.83 6.223.416 27.306 10.073 19.073 21.898l-8.622-4.583z"/><path fill="#BC6D58" d="M381.938 172.569c.468 2.936 3.167 13.888 3.167 13.888 2.602-6.687 8.036-4.735 8.553-.02 0 0 1.533-6.398 1.092-10.928-.441-4.525.062-7.947-2.87-9.749-2.933-1.805-9.137-4.037-9.137-4.037-1.571.845-1.041 9.378-.805 10.846"/><path fill="#AC5649" d="M392.06 187.518a.492.492 0 0 1-.984-.015c.005-.318-.135-.663-.363-.947a1.7 1.7 0 0 0-.622-.495 1 1 0 0 0-.666-.065c-.231.062-.47.225-.701.518-.594.761-1.266 2.208-1.815 3.68-.614 1.657-1.064 3.318-1.064 4.047 0 1.15 1.103 1.622 1.106 1.624a.491.491 0 1 1-.38.906c-.006 0-1.709-.731-1.713-2.529 0-.838.476-2.635 1.128-4.387.576-1.552 1.302-3.099 1.964-3.948.369-.473.791-.745 1.218-.86a1.98 1.98 0 0 1 1.32.113c.383.168.731.45.998.788.36.453.583 1.021.574 1.57"/><path fill="#AC5649" d="M390.476 191.553a.492.492 0 1 1-.9.392s-.126-.345-1.176-.753c-1.01-.396-2.045.245-2.048.248a.5.5 0 0 1-.678-.171.497.497 0 0 1 .171-.678c.006-.003 1.436-.893 2.912-.314 1.44.56 1.719 1.27 1.719 1.273z"/><path fill="#7E3E35" d="M356.64 146.825a.49.49 0 0 1-.324-.614.495.495 0 0 1 .619-.323c.033.012 11.216 3.389 10.524 14.955a.49.49 0 0 1-.519.461.493.493 0 0 1-.461-.521c.644-10.786-9.807-13.945-9.837-13.956zm28.457 7.744a.492.492 0 1 1 .969-.166c.002.014.995 5.652-1.563 8.199a.492.492 0 0 1-.695-.7c2.195-2.182 1.292-7.315 1.289-7.331zm-7.521-3.428a.493.493 0 0 1 .816-.548c.008.014 3.632 5.307.354 9.92a.493.493 0 0 1-.687.121.493.493 0 0 1-.117-.686c2.878-4.058-.358-8.791-.366-8.805zm-7.911-2.253a.494.494 0 0 1 .006-.695.496.496 0 0 1 .695.006c.015.015 5.099 5.2 3.405 11.547a.493.493 0 0 1-.954-.254c1.55-5.805-3.14-10.588-3.152-10.604m-1.113 31.777-.079 3.638s.06.987.918 1.119c.855.129 1.457-.014 1.713-.77.255-.759.168-4.403.168-4.403s-.114-.948-1.136-1.002c-1.023-.05-1.536.481-1.584 1.418m-18.465.495-.073 3.405s.054.925.855 1.046c.805.12 1.365-.012 1.605-.723.236-.708.158-4.117.158-4.117s-.108-.891-1.064-.939-1.437.45-1.481 1.328"/><path fill="#EE7353" d="M354.108 192.364s2.352.473 3.881.197 5.394 2.191 5.394 2.191.519 2.205-.48 1.96c-1.002-.243-7.548.158-7.548.158l-1.247-4.508z"/><path fill="#AC5649" d="M356.331 177.124a.491.491 0 1 1 .941-.284c.005.015 1.547 4.983 1.074 7.612-.42 2.314-3.104 6.921-3.709 7.945l1.631 4.111a.491.491 0 1 1-.911.363l-1.812-4.561.12-.208c.009-.014 3.276-5.407 3.713-7.822.431-2.396-1.041-7.145-1.047-7.157zm3.613 19.541a.494.494 0 0 1-.681-.149.49.49 0 0 1 .153-.678c.003-.002 1.145-.713 2.72-.326l1.374.338a.492.492 0 1 1-.234.956l-1.373-.335c-1.173-.287-1.956.194-1.959.194m-2.381 10.141a.49.49 0 0 1-.383-.582.49.49 0 0 1 .579-.383c.012 0 3.938.794 6.996-.587a.491.491 0 0 1 .403.895c-3.347 1.51-7.581.656-7.593.656z"/><path fill="#FDA77E" d="M364.368 318.892s-2.567-7.103-9.596-8.802c-7.033-1.696-16.225-3.318-16.225-3.318s-2.393.153-2.162 3.012c.231 2.857 9.193 4.092 11.51 6.408z"/><path fill="#FDA77E" d="M358.286 314.146s-15.435 1.513-20.41 2.232c-4.978.723-24.666.29-24.666.29s-1.443.073-1.587 1.873c-.144 1.802 1.227 2.452 1.227 2.452l7.068 1.73s1.008 3.098 1.947 4.252 4.544 2.016 4.544 2.016.216 2.236 1.587 3.315c1.37 1.083 3.895 1.443 3.895 1.443s1.874 1.875 3.244 2.668 6.202 1.442 6.202 1.442 19.403-1.297 22.649-5.188c3.245-3.893 1.37-10.379 1.37-10.379s-1.083-8.074-7.068-8.146z"/><path fill="#AC5649" d="M341.037 316.443a.468.468 0 1 1-.099-.931l10.862-1.184a.466.466 0 0 1 .515.416.465.465 0 0 1-.416.515zm-5.383 5.455a.468.468 0 1 1 .116.929c-.031.003-10.094 1.304-15.93.357a.467.467 0 0 1-.386-.537.475.475 0 0 1 .54-.391c5.701.926 15.631-.356 15.66-.359zm3.503 11.094a.469.469 0 0 1 .036.936l-7.285.29a.473.473 0 0 1-.489-.45.47.47 0 0 1 .453-.488zm-1.455-4.612a.47.47 0 0 1 .06.936c-.031.003-9.852.599-11.484.126a.468.468 0 1 1 .262-.899c1.477.428 11.134-.163 11.162-.163"/><path fill="#E6E6E6" d="m371.281 316.803-8.262-2.311s-1.854-.494-3.677 6.33c-1.821 6.822-2.603 16.007-2.603 16.007l13.625 3.74z"/><path fill="#566491" d="M455.976 348.635s1.472-11.535-6.593-13.831l-79.549-20.66s-2.3-.771-3.209 3.216l-3.674 20.787s-1.122 3.617 3.413 4.825l68.162 15.911c10.406 2.427 18.819-2.074 19.889-4.325.78-1.639 1.286-3.638 1.559-5.922z"/><path fill="#313763" d="M450.369 335.104a.497.497 0 0 1-.18-.675.49.49 0 0 1 .672-.18c.028.015 9.363 5.211 4.345 19.645a.497.497 0 0 1-.627.306.49.49 0 0 1-.306-.626c4.747-13.661-3.878-18.459-3.905-18.47zm-10.02-3.485a.491.491 0 1 1-.231.953l-47.968-11.628a.492.492 0 1 1 .231-.956zm-6.643 26.043a.492.492 0 1 1-.234.956l-47.965-11.631a.49.49 0 1 1 .23-.956z"/></svg>