<svg xmlns="http://www.w3.org/2000/svg" width="616" height="749" fill="none" viewBox="0 0 616 749"><path fill="#06D0A0" d="M19.06 729.162h578.395V18.727H19.061z"/><path fill="#fff" d="M56.002 690.31h504.511V57.579H56.003z"/><mask id="b" width="505" height="634" x="56" y="57" maskUnits="userSpaceOnUse" style="mask-type:alpha"><path fill="#fff" d="M56.002 690.31h504.511V57.579H56.003z"/></mask><g clip-path="url(#a)" mask="url(#b)"><path fill="#D7ECF4" d="M664.49 420.874s15.087-413.74 1.507-434.108C652.418-33.6-.437-12.48-20.428 18.824s-3.019 577.049 4.904 606.092c7.922 29.043 672.092 17.725 672.092 17.725z"/><path fill="#B7DCE5" d="m178.442-8.95.061 10.487s-14.03-10.664-31.997 2.404c-17.967 13.073-27.713 37.645-29.355 67.165-1.646 29.524-1.473 38.984-1.473 38.984l14.567.1s-2.521-58.208 12.328-82.512c14.848-24.3 34.735-11.92 34.735-11.92s-2.725 10.244 7.121 11.158 13.068-2.058 13.752-4.622c.395-1.477.867-18.466 1.057-32.573-7.017.433-13.952.874-20.791 1.33z"/><path fill="#E6E6E6" d="M130.609 106.066c-4.487-3.145-9.1-5.337-14.614-3.461-1.044.355-.893 2.105.307 2.006 2.456-.204 4.83-.477 7.199.407 2.11.784 3.95 2.157 5.752 3.474 1.434 1.048 2.816-1.4 1.356-2.422z"/><path fill="#B7DCE5" d="M75.43 221.878c-1.07-2.945-1.486-5.903-.845-7.666 1.455-4.003 9.1-8.373 9.1-8.373l10.193 24.391s-7.282 2.547-12.012.364c-1.382-.637-2.698-1.963-3.838-3.609-1.277.819-2.967 1.789-3.807 1.789-1.455 0-2.547-1.819-2.547-4.002 0-1.607 2.36-2.426 3.76-2.889zm219.033-99.768s2.911-8.737 1.819-9.828c-1.091-1.092-4.37 2.547-6.553 1.455-2.184-1.092-11.206-18.188-11.063-18.924s7.42-8.018 13.973-6.559c6.554 1.456 12.012 15.655 11.284 18.566s-1.819 3.274-1.819 3.274 1.594 11.505-4.12 19.042c-5.709 7.532-3.525-7.026-3.525-7.026z"/><path fill="#B7DCE5" d="M89.698 226.024s-18.201-34.232-19.661-59.321c-2.001-34.401 30.035-76.993 76.993-93.011 46.963-16.018 88.459-12.744 112.486 2.183s41.973 58.606 42.376 60.52c.398 1.915-14.524 26.665-14.524 26.665L89.702 226.019z"/><path fill="#D7ECF4" d="M230.577 239.148s53.148-23.663 68.075-62.612c14.926-38.954 2.183-64.8-61.158-73.173-63.344-8.373-120.495 37.13-135.785 54.972-15.29 17.837-25.119 56.791-7.645 72.809 17.473 16.018 70.621 43.32 136.513 8.009z"/><path fill="#B7DCE5" d="M87.601 222.307c22.529 25.565 58.069 36.589 91.452 33.336 36.043-3.517 70.124-22.425 95.762-47.47 13.965-13.644 25.418-30.312 28.467-49.942.178-1.131 2.118-.875 2.01.273-1.638 17.815-11.457 33.534-23.352 46.429-12.531 13.584-27.678 25.145-43.748 34.228-31.517 17.82-68.928 25.474-104.213 15.169-18.483-5.397-35.627-15.489-48.405-29.996-1.217-1.377.806-3.413 2.027-2.027"/><path fill="#D7ECF4" d="M73.766 185.532c.052 0 .104 0 .156-.013a.913.913 0 0 0 .745-1.048c-.702-4.184-.303-16.837 6.237-34.743 2.344-6.42 9.937-23.213 29.823-40.535 18.739-16.325 42.042-27.722 69.27-33.881 31.326-7.087 54.101-3.175 67.69 1.351 14.718 4.904 22.134 11.566 22.207 11.635a.912.912 0 0 0 1.231-1.347c-.308-.282-7.706-6.948-22.745-11.981-13.827-4.626-36.983-8.629-68.781-1.438-27.523 6.224-51.095 17.759-70.063 34.284-14.225 12.392-25.283 27.44-30.334 41.284-8.36 22.896-6.406 35.163-6.32 35.674a.91.91 0 0 0 .897.758z"/><path fill="#B7DCE5" d="M229.849 127.026s29.853-16.018 55.7-1.819c25.846 14.199.727 41.137-16.746 49.873-17.474 8.737-45.867 12.744-61.157-.363-15.291-13.108-6.19-34.22 22.207-47.691z"/><path fill="#fff" d="M232.955 131.068s24.867-13.346 46.404-1.516c21.532 11.829.606 34.271-13.952 41.548s-38.213 10.616-50.952-.303-5.155-28.511 18.5-39.729"/><path fill="#B7DCE5" d="M173.24 196.01s22.208-19.656 53.876-7.281c31.672 12.375 1.819 45.139-8.373 50.965s-32.4 18.201-54.603 7.645c-22.208-10.556-13.108-37.857 9.1-51.329"/><path fill="#fff" d="M177.325 199.909s18.279-16.178 44.346-5.995c26.068 10.188 1.499 37.156-6.891 41.951s-26.67 14.983-44.944 6.294c-18.279-8.689-10.786-31.161 7.489-42.25"/><path fill="#B7DCE5" d="M151.76 202.564s30.217-11.284 40.409-31.672c10.192-20.384 1.092-34.947-25.846-34.583s-46.599 8.737-61.885 26.938c-15.29 18.201-10.192 33.127 1.092 38.589 11.283 5.463 26.21 6.554 46.23.728"/><path fill="#fff" d="M150.604 196.734s24.564-9.174 32.85-25.751c8.286-16.573.888-28.411-21.012-28.116-21.901.294-37.884 7.103-50.315 21.9-12.432 14.797-8.287 26.934.887 31.373 9.175 4.44 21.312 5.328 37.59.594"/><path fill="#B7DCE5" d="M203.453 175.626s6.189 21.117 5.098 24.391c-1.092 3.275-4.371 3.275-5.462 2.547-1.092-.728-13.108-17.837-13.471-20.384-.364-2.547 2.91-10.192 13.835-6.554M290.461 95.9s-25.483-52.42-107.029-38.59c-81.545 13.835-113.577 54.24-124.137 83.729-10.556 29.485-4.003 60.429 9.828 70.985s9.464 13.835 9.464 13.835-17.11-4.734-28.03-32.4-.913-67.161 26.575-94.648c24.391-24.392 78.293-55.691 135.785-51.33 52.784 4.003 70.986 28.03 77.175 37.494 6.19 9.465 3.639 10.92.364 10.92zm249.354-82.958c-18.613-13.545-33.15-2.49-33.15-2.49l.403-31.6c-7.749.066-15.676.148-23.754.256.745 19.133 2.473 50.996 2.967 52.845.706 2.655 4.046 5.73 14.247 4.787 10.2-.945 7.376-11.561 7.376-11.561s20.605-12.826 35.987 12.353c15.381 25.18 12.769 85.483 12.769 85.483l15.091-.099s.178-9.803-1.524-40.392c-1.703-30.585-11.8-56.046-30.412-69.586z"/><path fill="#E6E6E6" d="M556.287 118.744c4.648-3.257 9.43-5.527 15.139-3.586 1.083.368.927 2.183-.32 2.079-2.543-.212-5.003-.494-7.455.42-2.183.81-4.089 2.235-5.956 3.595-1.486 1.083-2.919-1.451-1.408-2.508"/><path fill="#B7DCE5" d="M386.526 135.369s-3.02-9.053-1.885-10.184c1.131-1.13 4.527 2.643 6.788 1.508 2.261-1.131 11.608-18.843 11.461-19.605s-7.688-8.303-14.48-6.796c-6.788 1.507-12.445 16.217-11.691 19.236s1.884 3.396 1.884 3.396-1.65 11.921 4.267 19.726c5.917 7.806 3.656-7.281 3.656-7.281"/><path fill="#B7DCE5" d="M598.672 243.025s18.859-35.466 20.371-61.456c2.075-35.64-31.113-79.77-79.77-96.364-48.652-16.594-91.651-13.202-116.54 2.261-24.893 15.464-43.489 60.72-43.9 62.699-.412 1.98 15.048 27.627 15.048 27.627l204.791 65.229z"/><path fill="#D7ECF4" d="M452.716 256.622s-55.067-24.517-70.526-64.869c-15.464-40.357-2.261-67.135 63.362-75.807 65.627-8.676 124.839 38.469 140.68 56.951 15.84 18.483 26.024 58.836 7.922 75.43-18.101 16.594-73.168 44.884-141.434 8.299z"/><path fill="#B7DCE5" d="M600.842 239.174c-23.343 26.488-60.161 37.91-94.744 34.536-37.342-3.643-72.653-23.235-99.214-49.181-14.467-14.133-26.332-31.403-29.494-51.74-.181-1.169-2.191-.91-2.083.282 1.694 18.456 11.873 34.743 24.192 48.102 12.981 14.073 28.675 26.049 45.325 35.462 32.651 18.461 71.41 26.392 107.968 15.719 19.146-5.592 36.914-16.048 50.151-31.074 1.26-1.43-.832-3.539-2.101-2.101z"/><path fill="#D7ECF4" d="M615.18 201.074q-.077 0-.161-.013a.945.945 0 0 1-.771-1.087c.728-4.336.312-17.443-6.462-35.995-2.426-6.649-10.296-24.049-30.897-41.995-19.414-16.91-43.558-28.722-71.765-35.102-32.457-7.342-56.051-3.292-70.132 1.399-15.247 5.08-22.932 11.981-23.005 12.05a.94.94 0 0 1-1.33-.061.94.94 0 0 1 .061-1.33c.32-.29 7.983-7.198 23.568-12.41 14.324-4.79 38.312-8.94 71.258-1.49 28.514 6.45 52.94 18.401 72.588 35.519 14.736 12.839 26.193 28.428 31.43 42.77 8.663 23.724 6.64 36.428 6.549 36.961a.94.94 0 0 1-.927.784z"/><path fill="#B7DCE5" d="M453.474 140.458s-30.927-16.594-57.705-1.884-.754 42.618 17.348 51.671 47.521 13.203 63.362-.377c15.84-13.579 6.411-35.453-23.005-49.405z"/><path fill="#fff" d="M450.256 144.647s-25.765-13.826-48.076-1.572c-22.308 12.254-.628 35.505 14.454 43.047s39.59 10.997 52.789-.317c13.198-11.309 5.34-29.536-19.167-41.162z"/><path fill="#B7DCE5" d="M512.119 211.929s-23.005-20.367-55.821-7.541c-32.811 12.821-1.884 46.768 8.676 52.801s33.566 18.86 56.575 7.923 13.579-39.222-9.43-53.179z"/><path fill="#fff" d="M507.891 215.97s-18.937-16.763-45.944-6.207-1.551 38.495 7.138 43.463c8.693 4.968 27.627 15.52 46.564 6.519s11.176-32.283-7.762-43.77z"/><path fill="#B7DCE5" d="M534.37 218.721s-31.304-11.691-41.864-32.812-1.131-36.207 26.777-35.83 48.276 9.053 64.116 27.908c15.841 18.86 10.56 34.323-1.13 39.98s-27.155 6.788-47.899.754"/><path fill="#fff" d="M535.574 212.678s-25.452-9.503-34.037-26.678c-8.585-17.17-.918-29.437 21.771-29.129 22.688.307 39.248 7.359 52.125 22.688 12.878 15.334 8.586 27.904-.918 32.504s-22.078 5.519-38.941.615"/><path fill="#B7DCE5" d="M480.815 190.808s-6.411 21.875-5.28 25.271 4.526 3.396 5.657 2.642c1.13-.754 13.579-18.483 13.956-21.121s-3.019-10.56-14.333-6.787zm-90.14-82.594s26.401-54.309 110.884-39.98c84.482 14.333 117.67 56.198 128.612 86.748 10.937 30.551 4.15 62.608-10.184 73.545s-9.806 14.334-9.806 14.334 17.725-4.904 29.043-33.566c11.314-28.661.948-69.577-27.531-98.062-25.271-25.27-81.117-57.696-140.681-53.178-54.685 4.15-73.545 29.043-79.956 38.845-6.41 9.807-3.772 11.314-.376 11.314zM61.794 350.725s53.932-6.034 63.362-3.396 9.43 50.164 9.43 50.164l46.39 60.347s54.686-3.773 58.082-2.643 3.396 26.024 3.396 26.024l13.203-.753s-4.527-15.087-.754-18.86 43.463-.32 43.463-.32l8.195 80.042-197.692 8.196-84.036-40.02zm503.668 34.557s-.377-16.217-3.019-21.874c-1.044-2.231-4.201-3.284-7.849-3.401-.112-2.057-.233-4.11-.281-6.172 1.555-.36 2.967-.598 3.82-.472 2.642.377 4.904 2.261 4.904 2.261s1.13-2.261.753-3.019c-.377-.754-6.034-3.773-7.922-3.773-1.889 0-10.56.377-10.56 1.507 0 0 0 4.904 1.13 5.28.433.143 1.858-.207 3.6-.675.173 1.767.285 3.539.355 5.31-4.401.646-8.646 2.443-10.201 5.034-3.396 5.657-1.507 26.4-1.507 26.4s-8.3.754-7.542-1.884c.754-2.638-3.019-65.246-6.41-66.758-3.396-1.507-106.357 4.904-107.869 5.28l-.918 188.076 84.11.641 37.563-64.852 33.067-35.956-5.224-30.962z"/><path fill="#D7ECF4" d="M427.451 337.713s87.124-6.788 90.139-4.15c3.019 2.638 5.657 58.836 4.527 61.101-1.131 2.261-88.632 8.676-90.14 6.034-1.507-2.638-4.526-62.985-4.526-62.985"/><path fill="#B7DCE5" d="M517.672 345.722c-1.836-.749-3.855-.056-5.172 1.369-.138.147-.26.303-.377.463l-.758-2.651c-.632-2.2-.961-5.211-2.317-7.095-.91-1.265-2.595-1.88-3.833-.645-.607.606-.763 1.442-.971 2.239-.303 1.174-.597 2.352-.892 3.53-4.63 1.083-9.291 1.451-14.051 1.205-1.772-.091-2.998.307-3.665 2.044a28 28 0 0 0-.706 2.118l-3.01-9.997c-.399-1.33-1.989-1.36-2.738-.36-.78 1.04-1.291 2.188-1.494 3.474-.117.732.186 2.144-.148 2.578-.29.376-2.36.511-2.854.61q-1.071.22-2.149.421-2.332.434-4.678.784c-1.676.251-3.352.437-5.033.649-.888.113-1.702.265-2.343.949-.741.788-.949 2.01-1.248 3.006-.052.169-.099.334-.151.502a74 74 0 0 1-2.201-10.031c-.195-1.313-2.044-1.296-2.646-.347-1.586 2.508-2.552 5.298-2.807 8.226-5.497.602-10.994 1.2-16.486 1.832-1.421.165-1.482 2.387 0 2.274 5.947-.455 11.886-.944 17.829-1.434.792-.065 1.364-.593 1.412-1.412q.117-2.063.688-3.959a74 74 0 0 0 2.859 10.136c.481 1.33 2.387 1.447 2.824 0l1.404-4.652c.173-.568.255-1.568.701-1.967.447-.398 1.369-.312 1.971-.381a140 140 0 0 0 8.689-1.312c1.919-.355 5.51-.386 6.831-2.036.338-.42.468-.853.507-1.313.966 3.206 1.928 6.411 2.894 9.621.424 1.408 2.477 1.438 2.889 0l1.685-5.891c.381-1.339.19-1.187 1.52-1.118 1.074.057 2.148.087 3.223.078 4.08-.039 8.143-.602 12.098-1.602a1.51 1.51 0 0 0 1.048-1.049c.095-.368.507-2.949.91-4.301 0 1.148.87 3.106 1.026 3.647l2.729 9.538c.485 1.69 2.82 1.252 2.95-.398.134-1.711.593-5.536 3.227-4.457 1.789.732 2.568-2.175.797-2.898zm-.009 17.833c-5.262.58-10.53 1.143-15.792 1.711-.789.087-1.499.611-1.486 1.486 0 .177.013.35.026.515-5.891.381-11.791.667-17.695.836a455 455 0 0 1-9.78.173c-2.556.018-5.254-.147-7.442 1.404-1.178.836-1.403.138-2.252-.732-.598-.615-1.252-1.191-2.079-1.473-2.391-.814-4.379 1.234-6.498 1.945-5.18 1.732-10.945-.429-16.286.511-1.178.208-.919 2.248.286 2.105 5.297-.628 10.586 1.256 15.857.221 1.218-.238 2.322-.684 3.409-1.282 1.36-.745 2.188-1.239 3.336-.048 1.143 1.183 2.33 2.543 4.167 2.062 1.074-.282 1.789-1.247 2.854-1.572 1.456-.442 3.153-.273 4.652-.278a439 439 0 0 0 29.32-1.017c.854-.057 1.82-.919 1.43-1.88-.035-.061-.061-.126-.087-.191 4.687-.502 9.378-1.009 14.069-1.503 1.897-.199 1.91-3.205 0-2.993zm1.629 23.828c-.272-3.734-.493-7.481-.857-11.206a1.48 1.48 0 0 0-1.044-1.299c.71-.481.511-1.828-.576-1.893-6.012-.356-12.051.073-17.967 1.178-1.746.325-4.93.39-4.882 2.828.022 1.092.697 2.188.935 3.245.325 1.42.403 2.884.451 4.336.087 2.542.048 5.115.619 7.61.226.975.516 2.278 1.205 3.058.775.879 1.914.754 2.988.693 3.011-.169 6.021-.372 9.027-.619a280 280 0 0 0 4.687-.429c1.295-.13 2.872-.056 4.115-.477 2.673-.909 1.447-4.981 1.299-7.034zm-6.856 4.769c-1.564.156-3.123.299-4.687.437-2.746.238-5.822.815-8.616.633-.714-1.066-.784-3.067-.883-4.189-.135-1.481-.13-2.971-.191-4.457-.056-1.382-.147-2.768-.385-4.132-.083-.468-.854-2.357-.992-3.141 3.002-1.018 6.592-1.286 9.659-1.65 3.218-.381 6.445-.546 9.681-.594-.307.226-.511.594-.485 1.122.143 2.742.377 5.48.585 8.217l.286 3.734c.078.992.441 2.491.32 3.617-1.217.403-3.227.299-4.305.403z"/><path fill="#B7DCE5" d="M511.591 379.395c-3.245-.043-6.502.317-9.707.784-1.482.217-1.153 2.799.355 2.638 3.114-.329 6.22-.437 9.352-.571 1.827-.078 1.845-2.829 0-2.851m-1.525 6.441a771 771 0 0 0-6.965.078c-1.745.026-1.745 2.686 0 2.712 2.322.035 4.644.065 6.965.078 1.841.009 1.846-2.872 0-2.863zm-23.537-7.666c-3.691-.013-7.459.515-11.137.801q-5.197.401-10.396.81-10.765.844-21.532 1.681c-1.633.125-1.654 2.685 0 2.568 7.303-.507 14.602-1.018 21.905-1.525 3.591-.251 7.177-.498 10.768-.749 3.574-.251 7.23-.303 10.768-.84 1.586-.243 1.161-2.738-.372-2.742zm-.849 9.594c-7.03.16-14.13 1.174-21.147 1.694-3.465.255-6.931.498-10.4.719-3.426.216-6.957.203-10.348.74-1.378.217-.936 2.235.312 2.313 3.426.217 6.982-.195 10.404-.372a884 884 0 0 0 10.773-.624c6.878-.446 13.969-.602 20.778-1.689 1.59-.251 1.191-2.816-.377-2.777z"/><path fill="#1A1A1A" d="M527.981 697.253c.758-15.095 2.482-43.086 2.469-44.251l-8.84-19.717-195.466-3.331 9.317 67.303h192.52z"/><path fill="#5FA39B" d="M80.086 374.219c0 .364 4.973 20.761 6.54 30.603 1.569 9.841.897 15.325 3.102 16.763s3.673 2.152 4.063 4.336c.39 2.187.338 8.069.338 8.069l12.596 6.034 7.988 48.756-53.694 12.722-5.077-63.847 24.14-63.432z"/><path fill="#FDA77E" d="M55.825 325.918s2.486-6.601 4.648-9.179c2.161-2.577 13.12-2.334 13.12-2.334l24.577-23.269s-1.3-18.972-.23-21.177c1.07-2.201 3.236-4.782 3.574-7.342s-1.26-15.321-1.26-15.321l-31.5-8.784-43.956 20.925.182 16.794c.04 3.651-.974 10.963-1.668 14.623-.688 3.66-4.647 9.179-12.297 10.725-7.65 1.542 2.352 14.944 2.352 14.944l34.453 12.042 8.005-2.643z"/><path fill="#7E3E35" d="M22.78 276.573c.039.632.277 1.23.463 1.837 1.135 3.742.165 7.788.637 11.669.03.242.07.502.225.693.204.255.559.333.884.329 1.178-.022 2.131-.923 2.954-1.763 3.31-3.379 6.653-6.8 9.079-10.863 1.178-1.98 2.127-4.089 3.175-6.138a67 67 0 0 1 6.138-9.785c2.27-3.002 3.227 2.183 3.816 3.833.485 1.369 1.278 2.655 2.408 3.569 2.465 2.002 6.376 1.404 7.559-1.776.762-2.048-.074-4.305-.182-6.488-.1-2.001.416-3.977.931-5.908 1.079-4.063 2.192-8.209 4.527-11.7.489-.736 1.06-1.546.905-2.417-.178-.992-1.213-1.568-2.157-1.915-3.756-1.373-7.914-1.36-11.821-.524s-7.602 2.461-11.175 4.254c-3.557 1.785-7.056 3.773-9.98 6.467-2.928 2.694-5.272 6.159-6.038 10.062-.616 3.115-.208 6.298-.2 9.447 0 1.274.143 2.738-.615 3.812-.75 1.061-1.607 1.884-1.516 3.314zm69.876-20.406c-2.728-.836-5.535.273-8.026 1.369-2.672 1.178-5.34 2.542-7.589 4.427-1.356 1.135.407 3.032 1.824 2.308 4.284-2.191 8.368-5.158 13.389-4.877 1.91.108 2.11-2.703.402-3.227m-6.913 9.664c-.71-.581-1.58-.745-2.456-.472-1.009.312-1.529 1.117-1.676 2.096q-.054.084-.1.173a2.6 2.6 0 0 0 .17 2.586c.996 1.512 3.283 1.677 4.443.256 1.027-1.252.919-3.574-.38-4.639"/><path fill="#65DFD5" d="M24.872 272.311s3.379-14.195 21.944-19.51c18.565-5.314 26.963-5.405 30.598-6.904s23.633 5.267 23.633 5.267 11.76-7.84 11.643-18.431c-.117-10.586-29.39-16.477-34.54-19.708-5.146-3.231-24.997-15.429-46.049-3.881C11.05 220.692 5.328 232.075 6.887 240.82c1.555 8.746 3.83 16.391 6.034 17.825 2.205 1.438 3.288-.035 3.673 2.153.39 2.187.78 4.738 2.274 7.645 1.49 2.906 6.004 3.868 6.004 3.868"/><path fill="#5AC1B9" d="M102.181 248.193c-7.688-7.308-19.977-8.313-30.273-6.671-.247-1.979-.255-3.833.035-5.83.065-.438.602-3.379 1.018-4.83.021.29.034.581.056.849.06.797 1.196.784 1.239-.013.052-.957.728-3.136-.737-3.435-1.182-.242-1.897 1.2-2.27 2.058-.787 1.815-1.06 3.889-1.325 5.843-.255 1.897-.39 3.833.16 5.679q-.772.147-1.524.316c-3.457.771-6.81 1.927-10.227 2.846-1.338.359-2.69.68-4.041.987-.568-1.221-1.334-2.373-1.863-3.617a32.4 32.4 0 0 1-1.698-5.176c-.208-.87-1.447-.468-1.308.377.455 2.777 1.243 6.333 2.907 8.871-1.434.334-2.868.676-4.284 1.079-.572.16-1.144.337-1.707.519-3.474-2.78-6.645-5.929-9.4-9.425a57 57 0 0 1-3.803-5.466c-1.33-2.175-2.884-4.484-2.932-7.109-.017-.801-1.217-.784-1.239.013-.143 4.622 3.323 9.292 5.908 12.869a58 58 0 0 0 9.157 9.937 45 45 0 0 0-10.803 5.96 46 46 0 0 0-5.011 4.332c-3.119-2.915-6.879-5.865-10.868-7.359-.936-.351-2.551-.507-2.725.831-.186 1.434 1.963 3.353 2.855 4.284.767.797 1.919-.407 1.191-1.217a19 19 0 0 1-1.481-1.845c.91.81 2.438 1.334 3.487 2.005 2.187 1.412 4.201 3.037 6.085 4.83-2.178 2.4-4.08 5.046-5.579 7.909-.467.893.797 1.594 1.348.767 5.808-8.75 13.813-15.741 23.892-19.085 5.97-1.979 12.241-3.123 18.284-4.882 6.164-1.793 12.384-2.603 18.803-2.161 6.216.425 12.575 2.088 17.222 6.441.975.91 2.417-.559 1.447-1.481z"/><path fill="#5FA39B" d="M58.117 235.389a55.4 55.4 0 0 1-9.746-21.987c-.182-.906-1.534-.498-1.373.394a54.6 54.6 0 0 0 9.585 22.511c.672.927 2.218.009 1.534-.918m31.932-7.637c-.442 3.37-1.538 8.776-4.782 10.565-1.048.576-.104 2.07.94 1.572 3.88-1.849 5.107-8.104 5.557-11.925.113-.966-1.59-1.186-1.715-.212" opacity="0.5"/><path fill="#739BC8" d="M68.78 274.654s1.586 11.301-.943 13.887c-2.53 2.582-13.108 3.431-13.814 5.627-.706 2.2 10.816 21.06 13.034 23.226 2.213 2.165 18.6-2.028 25.825-9.408 7.22-7.381 8.082-28.935 7.35-29.29s-19.743-2.344-21.567-2.322c-1.823.022-9.893-3.179-9.875-1.72z"/><path fill="#fff" d="M40.24 269.491s5.592 10.53 8.187 14.151 10.404 16.685 11.894 19.224c1.49 2.538 9.716 15.19 9.716 15.19s-1.88.061-2.984-.658-13.376-21.398-15.234-24.3-12.653-21.77-13.043-23.958 1.464.351 1.464.351m3.11-16.469s24.313 19.817 26.878 20.523c2.564.702 8.429 2.829 8.429 2.829s20.826 1.234 21.567 2.322c.74 1.087.242 3.357.242 3.357s-21.779-2.755-23.975-3.098-8.442-3.924-9.538-4.279c-1.1-.355-22.845-18.738-22.845-18.738l-.762-2.911z"/><path fill="#376B90" d="M98.409 294.367c-1.872-.771-3.886-.966-5.883-1.187-2.594-.29-5.189-.641-7.731-1.243-4.982-1.178-9.032-3.664-13.359-6.255-.572-.342-1.005.503-.498.88 3.82 2.832 7.927 5.193 12.531 6.471 4.743 1.312 9.69 1.356 14.433 2.599.723.19 1.248-.953.515-1.256zm-11.466 16.096c-3.907-1.828-8.789-3.253-11.76-6.515-3.067-3.361-5.41-7.415-7.836-11.236-.377-.593-1.26-.06-.935.559 2.122 4.046 4.807 8.2 7.861 11.609 3.032 3.383 7.953 4.942 11.977 6.805.814.376 1.516-.836.693-1.222" opacity="0.5"/><path fill="#65DFD5" d="M88.35 697.253c-2.373-46.066-10.152-195.877-11.131-200.499-1.157-5.466-5.025-25.504-5.05-28.059-.027-2.556 2.122-6.229 4.235-13.558 2.11-7.325 5.489-32.556 4.63-44.234-.857-11.673 2.167-35.809-1.251-47.82s-19.002-34.848-19.002-34.848 1.394-5.856.64-8.039-4.379.412-10.586.117c-6.211-.299-19.045-5.271-25.677-10.677S6.35 292.678 3.076 293.808c-3.275 1.131-8.68 7.762-8.68 7.762s-18.198 5.675-28.35 11.995c-10.158 6.319-16.274 14.415-19.77 29.06-3.491 14.645-2.105 41.648-2.417 46.399-.312 4.752-5.237 21.966-4.66 41.679.58 19.712 9.789 27.28 9.789 27.28s-.966 12.059 2.72 15.307c3.686 3.245 6.29 7.602 6.29 7.602s-.724.737-1.413 4.397 1.512 4.73 1.525 5.826-10.201 35.895-13 47.244c-2.797 11.349-7.51 47.916-9.97 90.3-1.672 28.787-.343 54.841.684 68.598H88.351z"/><path fill="#5FA39B" d="M72.177 465.147c-.919-.485-2.27-.208-3.249-.156q-2.086.103-4.167.277c-5.115.433-10.543 1.044-15.502 2.547.168-1.776.194-3.565 1.139-5.224 1.455-2.547 3.105-4.686 3.534-7.679.399-2.803-.078-5.692-1.113-8.313-1.135-2.867-3.348-5.211-4.345-8.113-1.858-5.414-.043-11.582-4.795-15.862-5.128-4.613-12.41-3.894-18.556-2.166-.022.005-.039.018-.056.022-.36-.247-.728-.485-1.122-.693-2.564-1.356-5.419-1.884-8.3-1.715q-.869.053-1.732.125c-.16-.827-.507-1.611-1.083-2.239-.372-.403-1.68-.897-1.862-1.239-.273-.507.727-2.421.957-3.067q.632-1.792 1.252-3.59c1.685-4.899 3.266-9.837 4.509-14.871 2.49-10.071 3.283-20.397 2.031-30.702-.164-1.351-2.256-1.394-2.165.022a99.3 99.3 0 0 1-3.089 31.612c-1.321 5.011-2.95 9.936-4.66 14.826-.62 1.776-2.097 4.293-1.859 6.225.238 1.927 2.305 1.923 3.002 3.335-9.378 1.23-18.24 4.583-25.5 10.929a44 44 0 0 0-6.138 6.61c-1.741 2.304-3.773 4.912-4.08 7.857-.1.944 1.148 1.525 1.88 1.053 3.569-2.322 7.095-4.7 10.612-7.095 1.092-.741.082-2.474-1.061-1.772a746 746 0 0 0-7.576 4.678c.36-.533.74-1.04 1.07-1.516a40 40 0 0 1 2.898-3.638 42.6 42.6 0 0 1 6.268-5.74c4.66-3.474 9.936-6.003 15.597-7.346 3.201-.758 6.52-1.187 9.79-1.481 3.733-.338 6.93.402 9.945 2.672.953.719 1.863 1.39 2.976 1.845 1.594.65 3.123 1.005 4.353 2.3 2.478 2.612 2.738 6.485 3.145 9.872.203 1.685 2.785 1.746 2.703-.03-.243-5.332-1.36-11.657-6.87-14-.984-.416-1.984-.693-2.92-1.169 5.753-.971 13.138-1.17 15.693 5.028 1.135 2.76.901 5.909 1.322 8.815.489 3.388 2.126 5.791 3.811 8.681 1.672 2.863 2.742 6.337 2.166 9.672-.528 3.054-2.772 5.168-3.916 7.953-1.208 2.932-.065 6.263-2.326 8.78-1.975 2.196-4.652 3.448-7.45 4.253q-.852.249-1.698.49c-2.668.771-5.336 1.416-7.983 2.322-3.058 1.048-6.181 1.689-9.417 1.866-6.341.343-12.66-.736-18.85-2.014a174 174 0 0 1-19.038-5.055c-2.863-.94-5.7-1.988-8.36-3.417-2.594-1.395-4.751-3.219-6.987-5.107-2.157-1.824-4.392-3.245-7.138-3.981-2.698-.728-5.778-.961-7.84-3.054a.87.87 0 0 0-.632-.264c-.018-.013-.026-.026-.044-.034-.563-.373-1.251-.958-1.984-1.192.97 1.161 1.625 1.703 1.625 1.703s-.966 12.059 2.72 15.307 6.29 7.602 6.29 7.602l-.04.044c4.267.762 8.733.814 12.947.61 3.258-.156 6.498-.489 9.73-.914 3.062 1.555 6.254 2.902 9.377 4.055.784.29 1.572.558 2.37.814-10.435 2.564-20.9 4.934-31.66 4.15-1.196-.087-1.473 1.953-.264 2.122 8.905 1.222 17.694-.147 26.396-2.114 3.756-.849 7.49-1.776 11.236-2.651 2.837.581 5.727.919 8.616.953 11.379.135 22.853-4.496 32.863-9.676 1.304-.434 2.569-1.257 3.652-1.932 2.105-1.321 4.206-2.937 5.267-5.254.186-.403.32-.81.424-1.226 3.682-.412 7.325-1.139 11.015-1.529a169 169 0 0 1 5.545-.485q1.56-.116 3.127-.187c.598-.03 1.425-.186 2.114-.13.139.537.134 1.244.108 1.915-7.363.299-14.645 1.386-21.731 3.422-1.239.355-.693 2.179.55 1.91 7.09-1.538 14.285-2.473 21.54-2.642.14 0 .265-.031.382-.065.71.255 1.663-.16 1.776-1.17.173-1.589.554-4.847-1.17-5.756zM57.943 326.841c-11.712 4.249-23.39-2.045-33.14-8.126-4.943-3.08-9.651-6.472-14.416-9.82-4.544-3.197-9.243-6.22-14.571-7.918-1.044-.334-1.4 1.23-.425 1.616 5.657 2.217 10.634 5.67 15.507 9.243 4.93 3.613 9.95 7.078 15.191 10.227 9.647 5.8 21.151 10.976 32.457 6.87 1.308-.472.718-2.569-.603-2.088z"/><path fill="#fff" d="M79.272 433.743c.355-.732 13.817-5.263 16.018-4.557 2.2.707-1.55 25.214-3.002 26.323-1.447 1.114-14.238.156-14.238.156z"/><path fill="#5FA39B" d="M46.001 429.724s9.135.632 13.528 1.68c4.392 1.049 16.763-3.101 19.344-.576 2.582 2.53 4.232 19.674 1.01 25.548-3.223 5.878-29.888 5.072-29.888 5.072s2.833-8.065 2.439-10.617c-.395-2.551-6.329-11.249-6.368-14.536l-.07-6.571zm643.066 267.529c.581-11.595-2.057-34.635-3.305-52.542-2.408-34.505-14.809-77.876-14.857-82.026-.043-4.15 2.499-13.644 2.499-13.644l-147.242 21.588s-16.239 100.587-14.181 126.62h177.082z"/><path fill="#333" d="M475.556 697.253c.758-15.095 2.482-43.086 2.469-44.251l-8.84-19.717-195.466-3.331 9.317 67.303h192.52z"/><path fill="#5FA39B" d="M296.655 697.253c-.394-16.789-2.677-42.627-2.677-42.627l-101.774 6.008s-2.703 20.692-3.076 36.619z"/><path fill="#9858E6" d="m313.457 287.222.004.002c-.101.002-11.936.188-29.904 13.77-18.041 13.64-31.231 37.113-33.535 43.467-2.305 6.351-4.427 29.312-3.99 33.258q.438 3.951.057 5.142c-.382 1.191-7.394 11.153-6.901 19.847.192 3.4.981 6.129 1.967 8.285 2.082 4.551 4.42 9.101 5.539 13.98.363 1.583.843 2.992 1.474 3.733 2.001 2.352 5.548 1.126 5.969 3.495.42 2.37-.278 11.076 4.132 16.564 4.409 5.488 13.09 3.812 14.671 3.795 1.581-.018.078 7.116.082 7.511.005.394-5.583 13.705-4.219 30.294.694 8.435 4.222 17.431 7.524 24.238 3.391 6.989 11.09 10.405 18.777 9.286l104.239-15.181a20 20 0 0 0 16.889-16.772l18.337-120.085c.255-1.669.31-3.366.015-5.028-.509-2.875-1.613-7.516-3.724-10.095-2.877-3.517-3.545-8.966-3.652-10.049l-.035-.369c-.223-2.209-2.645-24.371-10.625-32.923-6.393-6.851-22.214-17.946-29.418-22.863-2.4-1.637-5.224-2.499-8.129-2.533l-65.543-.771z"/><path fill="#6924BD" d="M294.087 427.151c-1.443-1.871-4.995-3.556-4.198-6.333.741-2.573 3.084-4.371 3.678-7.065.524-2.382.074-4.99-1.256-7.043a10 10 0 0 0-1.066-1.351c-.303-.321-1.109-.728-1.312-1.113-.542-1.031 1.706-2.916 2.235-3.83 3.404-5.882 1.269-13.271.732-19.591-.724-8.481-.901-17.222-.264-25.712.099-1.352-1.954-1.291-2.088.021-.732 7.173-1.152 14.221-.849 21.442.151 3.608.45 7.199.836 10.789.342 3.189.727 6.55-.282 9.664-.463 1.425-1.23 2.521-2.209 3.634-.767.871-1.542 1.807-1.663 3.002-.269 2.595 2.902 3.53 3.794 5.709 2.201 5.376-4.773 8.516-3.378 13.796.732 2.764 3.426 3.907 4.955 6.09 2.17 3.093.827 7.009-2.361 8.676-1.789.936-.173 3.63 1.612 2.695 4.92-2.578 6.514-8.997 3.075-13.467z"/><path fill="#6924BD" d="M286.151 412.281a34 34 0 0 0-3.08-2.21c.927-.246 1.616-1.576.81-2.59-3.79-4.756-9.122-8.186-14.333-11.184-2.72-1.564-5.492-3.036-8.225-4.574a185 185 0 0 1-3.791-2.192c-.532-.316-2.014-.922-2.274-1.49-.506-1.104 1.304-.792 1.802-.693 1.062.217 1.486-1.334.433-1.637-1.238-.355-2.689-.711-3.842.091-1.026.714-1.238 2.066-.688 3.14.736 1.443 2.529 2.309 3.837 3.136 1.768 1.118 3.583 2.149 5.398 3.184 6.887 3.929 13.57 7.779 18.95 13.649-3.461-1.967-7.238-3.535-10.829-4.873-5.566-2.075-11.695-3.773-17.664-3.998-1.204-.044-1.451 1.862-.264 2.113 5.644 1.192 11.158 2.266 16.581 4.31a71 71 0 0 1 7.81 3.513c2.646 1.386 5.068 3.119 7.671 4.566 1.364.762 3.002-1.209 1.707-2.261zm110.013-76.015c-1.585 4.968-2.023 10.405-2.369 15.585-.373 5.531-.464 11.076-.52 16.616-.057 5.406-.126 10.82-.511 16.213-.403 5.627-1.369 11.084-2.504 16.598-.385 1.863 2.287 2.573 2.855.754 3.24-10.339 3.17-21.762 3.279-32.491.056-5.419.021-10.837.255-16.252.238-5.635 1.04-11.162 1.611-16.763.126-1.243-1.745-1.343-2.092-.26z"/><path fill="#6924BD" d="M417.523 322.605c-.953 3.534-1.356 7.199-2.339 10.737a78.5 78.5 0 0 1-3.955 11.029 80.5 80.5 0 0 1-5.155 9.711c-2.009 3.231-4.808 6.159-6.48 9.564-.342.693.594 1.533 1.144.862 5.003-6.095 9.343-12.492 12.583-19.713a82 82 0 0 0 3.916-10.569c1.061-3.625 2.231-7.576 2.308-11.375.022-1.169-1.723-1.364-2.022-.251zm-131.628 38.403c-4.613-6.25-8.364-13.073-10.989-20.393a77 77 0 0 1-3.01-10.833c-.867-4.34-1.542-8.832-.711-13.224.273-1.447-1.931-2.04-2.222-.589-.823 4.136-.32 8.308.412 12.418a76.7 76.7 0 0 0 3.235 12.176c2.738 7.697 6.675 14.944 11.7 21.389.715.914 2.296.018 1.581-.948z" opacity="0.5"/><path fill="#6924BD" d="M297.855 452.287c0-.394 3.127-3.197-.069-6.324-3.197-3.128-7.957-4.661-9.993-9.777-2.032-5.119-3.249-7.874-8.793-8.602-5.545-.732-16.534 6.9-17.231 15.611-.698 8.706 15.243 20.003 15.243 20.003l20.839-10.903z"/><path fill="#9858E6" d="M367.138 277.942s6.307-2.045 7.498-1.269c1.195.779 1.226 3.547 2.404 2.742s3.556-.434 4.357.745c.806 1.178 3.834 8.182 3.751 9.213-.082 1.031-9.845 12.206-12.591 14.216-2.747 2.005-17.686 10.079-33.518 8.667-15.832-1.407-30.975-19.842-31.845-23.386-.871-3.543 1.017-11.474 3.378-12.682 2.361-1.213 15.828 1.013 15.828 1.013l40.738.745z"/><path fill="#1A1A1A" d="M314.661 286.761s-4.041-6.229-3.279-8.611c.767-2.383 18.778.411 18.778.411l36.51.009s6.389-1.087 7.58-.706c1.192.381 1.222 3.149 2.01 3.14.789-.008 3.149-1.221 3.162-.034.013 1.186-3.352 5.661-3.352 5.661l-23.399 6.887-38.014-6.757z"/><path fill="#FDA77E" d="M376.325 286.146s-9.061-3.426-9.347-8.187-40.998-3.131-40.998-3.131-2.976 6.246-4.016 7.303c-1.039 1.056-7.727 3.898-7.727 3.898s5.263 11.409 19.132 14.025c13.87 2.617 21.376 2.14 30.022-2.698s12.159-9.226 12.926-11.214z"/><path fill="#FDA77E" d="M317.381 239.153s-6.558-1.131-4.825 7.454c1.733 8.586 5.48 14.282 9.17 14.243l4.219 11.015 31.672 11.539 12.137-14.06 1.993-5.35s2.859-.849 6.055-8.26c3.197-7.411 2.331-11.907.269-13.112-2.062-1.208-60.685-3.465-60.685-3.465z"/><path fill="#65DFD5" d="m323.073 265.549 22.507 10.816c2.499 1.2 6.636.338 8.698-.914 2.057-1.252 15.273-6.311 15.277-5.904s-2.005 6.168-1.979 8.624.056 5.328-.338 6.97c-.399 1.642-8.577 11.977-15.187 14.095s-16.594-1.049-20.778-4.28c-4.18-3.231-9.672-12.596-10.11-14.64s2.43-5.354 2.408-7.403c-.021-2.049-.493-7.368-.493-7.368z"/><path fill="#fff" d="M318.668 243.268s2.2 13.904 3.885 18.396c1.69 4.487 12.571 9.044 15.568 10.361s7.948 4.544 10.816 4.509c2.867-.035 9.235-3.5 11.968-4.085 2.733-.584 7.615-3.504 8.433-3.924.815-.42 4.276-21.35 4.276-21.35l.814-.42s-1.837 19.687-4.254 23.399c-1.702 2.616-8.55 5.007-10.179 5.847-1.628.836-10.196 4.206-12.245 4.232-2.049.022-11.955-6.835-14.008-7.22-2.053-.386-9.478-4.813-11.145-7.663-1.672-2.85-2.976-9.802-3.868-16.754-.897-6.957-.057-5.328-.057-5.328z"/><path fill="#5FA39B" d="M365.67 277.747c-3.089-.035-5.618 2.2-8.23 3.582-3.387 1.789-7.121 3.214-11.002 3.21-7.962-.013-14.403-5.514-20.207-10.288-.307-.251-.736.165-.437.451 5.232 4.951 11.14 10.175 18.586 11.093 3.578.442 7.113-.269 10.426-1.629 1.703-.697 3.34-1.542 4.934-2.456 1.871-1.074 4.18-3.331 6.428-3.309.923.009.429-.637-.494-.645z" opacity="0.5"/><path fill="#5FA39B" d="M365.388 282.091c-3.01 2.625-6.133 5.051-9.373 7.403-3.457 2.508-7.594 3.426-11.817 2.885-8.031-1.027-14.277-6.831-19.492-12.601-.277-.307-.684.143-.437.451 5.228 6.51 11.777 12.566 20.453 13.566 3.933.455 7.875-.286 11.228-2.443 3.703-2.386 7.155-6.168 10.257-9.265.611-.606-.186-.541-.819.009z" opacity="0.5"/><path fill="#fff" d="M354.888 296.134c-4.483 2.097-10.625 2.573-18.023.195-6.736-2.165-14.251-13.484-15.546-15.498 1.018 2.772 6.055 11.11 9.949 14.125 4.18 3.232 14.169 6.402 20.779 4.28 5.241-1.681 11.461-8.516 14.017-12.098-2.751 2.664-7.983 7.502-11.176 8.996"/><path fill="#5FA39B" d="M325.499 238.711c-3.803-6.818-8.429-13.337-13.077-19.605-.386-.515-1.252-.021-.875.525 4.474 6.471 8.546 13.163 12.839 19.747.455.697 1.516.065 1.109-.663z" opacity="0.5"/><path fill="#65DFD5" d="M316.593 240.829s3.773 7.745 16.919 11.288c13.151 3.543 28.688.918 34.817-.788 6.129-1.707 8.949-5.835 9.759-6.662s8.009-16.884 8.403-18.53-.437-2.452.784-3.288c1.222-.832 3.656-2.907 1.971-6.987s-12.925-20.757-31.806-23.828c-18.882-3.071-41.7 8.239-49.813 15.702s-7.264 10.322-5.181 13.575 11.392 11.552 12.657 14.818 1.486 4.696 1.486 4.696z"/><path fill="#5AC1B9" d="M377.239 241.812c-2.746.81-5.501 1.755-8.26 2.703 2.053-2.334 3.547-5.583 4.717-8.247.351-.801-.823-1.499-1.2-.684a41 41 0 0 1-2.694 4.92c-1.01 1.564-2.339 2.95-3.249 4.566a.66.66 0 0 0-.091.303 183 183 0 0 1-5.016 1.633 34 34 0 0 1-3.76.914c-.229-3.782-.047-7.559.654-11.288.33-1.737.754-3.461 1.291-5.146.234-.741.49-2.248 1.1-2.729q.269-1.02.862-.091.065.61.044 1.222c0 .736 1.083.706 1.135-.013.073-1.053.385-3.769-1.361-3.652-1.689.108-2.603 2.998-3.049 4.275-1.971 5.631-2.616 11.743-2.252 17.677-3.678.507-7.381.438-11.163-.013-4.613-.554-9.118-1.455-13.428-2.876a.8.8 0 0 0-.121-.42c-1.607-2.625-3.136-5.254-4.327-8.1-.949-2.257-1.98-4.756-2.248-7.251.758.905 1.369 2.365 1.776 3.071a83 83 0 0 1 2.083 3.834c.342.667 1.3.069.988-.594a82 82 0 0 0-3.015-5.817c-.637-1.113-1.169-2.326-2.469-2.729-.507-.156-.94.277-.966.754-.182 3.131 1.126 6.332 2.305 9.178 1.035 2.508 2.252 4.977 3.72 7.269-3.777-1.438-7.385-3.314-10.764-5.766-.615-.446-1.303.533-.784 1.04 7.07 6.961 17.738 9.308 27.237 10.578 5.575.745 10.981.667 16.412-.901 2.755-.797 5.454-1.807 8.131-2.829 2.737-1.048 6.077-2.486 8.607-3.981.983-.58.281-1.139-.828-.81z"/><path fill="#5AC1B9" d="M354.694 244.762c-.94-3.942-1.473-7.94-1.664-11.981-.039-.858-1.368-.849-1.338.013.152 4.176.836 8.243 2.014 12.25.186.632 1.135.355.983-.282zm-11.812-1.109c-3.188-6.09-5.891-12.106-7.039-18.946-.117-.689-1.157-.385-1.048.299 1.095 6.688 3.136 13.64 6.952 19.323.472.706 1.524.078 1.13-.676z"/><path fill="#7E3E35" d="M339.719 254.465c-4.422-1.412-8.983-.611-13.419.294-1.182.243-.909 2.244.312 2.123 4.154-.412 8.299-.771 12.345.481 1.85.572 2.595-2.313.767-2.898zm26.457 2.04c-3.63-1.629-7.97-2.725-11.972-2.625-1.508.039-1.884 2.356-.334 2.694 3.834.832 7.671.719 11.41 2.131 1.26.477 2.135-1.641.896-2.196zm-33.348 3.994c-1.23-.663-3.123-.737-3.812.749a1.9 1.9 0 0 0-.16.555c-.299 1.182.446 2.391 1.624 2.824 1.035.381 2.43.238 3.184-.641 1.013-1.179.441-2.794-.836-3.487m28.995.186c-1.044-.437-2.486-.256-3.149.676-.463.13-.844.498-.992.987-.359 1.174.299 2.448 1.382 2.967 1.204.577 2.681.13 3.517-.874 1.07-1.283.871-3.076-.753-3.756z"/><path fill="#6924BD" d="M383.641 289.667c-3.4 4.873-6.93 9.365-11.99 12.605-4.639 2.972-9.85 4.899-15.147 6.337-5.96 1.62-12.289 3.058-18.47 1.984-5.756-1.001-11.093-3.751-15.702-7.281-5.345-4.094-9.65-9.231-14.086-14.251-.641-.728-1.945.273-1.351 1.066 7.303 9.728 16.65 19.453 28.9 22.381 6.319 1.511 12.635.524 18.851-.992 5.739-1.395 11.431-3.288 16.572-6.242 6.177-3.552 10.444-8.68 14.437-14.467.849-1.231-1.165-2.361-2.014-1.148z"/><path fill="#FDA77E" d="M292.756 542.24s24.136-.264 30.919-1.092c6.783-.827 25.565-7.822 25.565-7.822s6.103-45.893 5.726-45.889c-.377 0-17.369-1.698-24.898-.485-7.532 1.213-23.225 14.584-23.225 14.584l-14.078 40.7z"/><path fill="#842A2E" d="M336.354 500.189c-2.37 1.092-4.969 1.651-7.303 2.82-2.335 1.17-4.492 3.192-4.791 5.787-.048.416-.043.853.143 1.226.273.537.862.832 1.429 1.031 2.72.948 5.692.524 8.568.533 3.357.008 6.948.576 9.893-1.04.598-.329 1.161-.754 1.538-1.321.425-.645.585-1.434.658-2.205.174-1.823-.095-3.725-1.009-5.31-.831-1.447-2.447-2.79-4.08-3.236-1.759-.481-3.526 1.014-5.051 1.72z"/><path fill="#5AC1B9" d="M284.093 612.866s19.583-2.855 27.523-1.053c7.94 1.798 23.663-9.308 23.663-9.308l9.651-14.437.58-50.549-52.225-1.911s-8.494 37.273-8.49 37.65c0 .377-.702 39.612-.702 39.612z"/><path fill="#65DFD5" d="M202.634 492.488s74.979-7.225 83.296-5.432c8.317 1.798 10.729 2.837 21.385.49 10.655-2.348 31.295-3.5 34.557-2.695s7.043 1.898 7.043 1.898l-3.331 2.118s-25.526 5.236-38.52 29.012c-12.999 23.776-14.962 51.334-14.494 59.624.468 8.295-3.712 40.019-2.911 44.537s-81.736 45.018-81.736 45.018l-32.456-36.61 8.823-125.321 18.344-12.648z"/><path fill="#5AC1B9" d="M319.244 493.454c-14.862 7.77-24.846 22.177-32.301 36.753-4.093 8-7.246 16.512-11.608 24.361-4.258 7.662-10.786 13.718-15.39 21.163-4.804 7.767-8.382 16.846-9.278 25.981-.104 1.061 1.602 1.239 1.845.23 1.927-8.079 4.414-15.741 8.624-22.953 4.232-7.256 10.305-13.073 14.918-20.051 4.812-7.281 7.81-15.736 11.634-23.555 3.765-7.693 7.94-15.269 13.216-22.048 5.475-7.034 12.037-13.046 19.86-17.365 1.659-.918.16-3.391-1.507-2.516zm-30.031 83.499c-.051-1.213-1.529-1.49-2.174-.563-2.382 3.409-3.777 7.091-4.466 11.175-.173 1.031 1.356 1.473 1.594.421.559-2.439 1.49-4.791 2.694-6.987-.168 5.289-.844 10.543-1.537 15.793-.828 6.276-1.845 12.752-1.386 19.093.121 1.646 2.547 1.646 2.581-.026.13-6.541.659-12.956 1.443-19.453.779-6.458 1.524-12.93 1.247-19.449zm-.168-16.152c-5.294 7.61-8.733 16.594-12.22 25.136-3.539 8.671-6.467 17.629-6.657 27.076-.018.78 1.152.75 1.204-.013.645-9.486 3.79-18.552 7.467-27.25 3.466-8.195 6.918-16.581 11.938-23.966.724-1.066-1.005-2.027-1.728-.983z"/><path fill="#fff" d="M292.679 446.387s3.599.035 6.826 3.76 6.679 8.971 8.213 11.214 3.171 13.922 4.704 16.547c1.538 2.625 3.816 4.106 4.968 5.982 1.152 1.871-1.096 3.404-4.492 3.066-3.4-.342-10.997-5.54-10.997-5.54l-9.222-35.024z"/><path fill="#93AABC" d="M307.592 481.516s22.013 15.438 25.063 18.422 3.084 6.004 3.084 6.004-8.343-4.059-9.872-5.926-1.55-3.755-2.313-4.5c-.762-.745-18.972-10.357-18.972-10.357l3.01-3.639z"/><path fill="#fff" d="M276.371 457.554s.81 5.271.459 7.537-2.201 5.683-1.036 8.685c1.166 3.006 6.528 10.491 8.793 10.841 2.266.351 2.634-.784 2.634-.784s3.028 1.101 5.28-.056c0 0 4.193 4.102 6.463 4.834 2.27.728 3.019-.035 3.019-.035s1.958 6.766 5.367 7.862c3.404 1.096 4.89-1.187 4.106-3.816-.784-2.633-2.352-8.273-3.149-12.037s-2.413-13.931-3.976-18.817c-1.564-4.885-4.271-11.27-6.935-13.501-2.664-2.235-9.083-2.919-13.207-.611-4.124 2.309-9.347 7.645-9.334 8.776s1.52 1.113 1.52 1.113z"/><path fill="#E5EAEC" d="M302.524 487.056c-1.083-5.999-3.157-11.981-5.349-17.655-.368-.949-1.837-.568-1.546.446 1.698 5.908 3.062 11.925 4.812 17.811.403 1.36 2.326.75 2.083-.597zm-9.334-3.703c-.953-1.681-2.058-3.171-2.777-4.995-.663-1.672-1.044-3.4-1.386-5.159-.177-.909-1.637-.675-1.603.234.139 3.808 1.573 8.317 4.206 11.15.793.853 2.114-.26 1.564-1.235zm16.707-.408c-1.256-3.396-1.603-6.969-2.179-10.517-.567-3.495-1.529-6.934-2.928-10.187-.464-1.075-2.218-.646-1.802.519 1.226 3.422 2.153 6.87 2.686 10.47.515 3.495.831 7.004 2.074 10.339.499 1.339 2.651.736 2.149-.619z"/><path fill="#FDA77E" d="M226.882 385.195s5.575 4.449 13.744 1.464c6.836-2.495 11.916-17.893 13.926-18.725 2.01-.827 5.666 1.148 7.269-.078s1-19.392 2.187-21.827c1.187-2.434 4.366-6.913 5.146-9.343s.68-11.717.68-11.717l-34.098-16.992-46.153 25.534s-6.337 11.375-10.725 16.265c-4.387 4.895-31.733 14.879-31.733 14.879l39.34 16.126 17.014 5.064 23.412-.658z"/><path fill="#6C4E4E" d="M179.751 339.073c.004.403-1.945 6.883 1.724 10.075 3.669 3.188 10.504.693 14.112-1.767s6.792-6.532 10.014-7.377c3.223-.84 12.055-5.38 14.84-9.044s13.311-1.356 13.723-.554c.411.801-.338 6.059 4.518 7.216 4.855 1.156 5.176-6.515 6.77-8.551 1.594-2.035 5.6-4.907 5.6-4.907l-10.209-10.79-43.562 3.703-17.526 21.992z"/><path fill="#65DFD5" d="M179.43 340.914s9.954-7.195 14.394-7.243c4.44-.047 10.504.694 13.709-1.762s12.029-7.802 16.46-8.659 21.528.13 25.114 1.728 8.46 4.371 11.687 3.929c3.227-.438 7.996.303 8.854.905 0 0 10.776-15.251 9.07-23.711-1.707-8.459-6.134-7.199-6.199-13.254-.065-6.056-6.155-9.218-13.042-11.163-6.883-1.945-28.787-10.993-40.491-10.863-11.708.125-38.633 11.725-46.257 15.845-7.628 4.119-12.782 12.656-13.133 17.503s1.676 5.636 3.335 9.655c1.659 4.02.104 9.69.966 14.524s5.765 10.435 7.784 10.413c2.018-.022 4.037-.043 5.254.347s2.504 1.81 2.504 1.81z"/><path fill="#5AC1B9" d="M270.18 325.901c-2.798-1.482-5.678-2.01-8.823-2.023-1.919-.009-3.751-.005-5.518-.871-1.482-.728-2.833-1.68-4.345-2.356a31.6 31.6 0 0 0-4.236-1.516c1.875-2.651 2.867-5.83 3.608-8.962.386-1.629.693-3.271 1.009-4.916.122-.633-.039-2.565.256-.945.177.988.507 1.967.745 2.941.247 1.01 1.728.555 1.538-.441-.234-1.239-.377-4.232-1.859-4.774-1.355-.498-2.001 1.122-2.291 2.105-1.429 4.869-2.131 9.664-4.968 13.996q-.154.239-.178.459c-4.028-.88-8.243-1.122-12.267-.962a51.9 51.9 0 0 0-18.379 4.154c-1.598.689-3.118 1.499-4.621 2.335-1.516-2.738-2.868-5.48-3.834-8.481a43 43 0 0 1-1.178-4.423c-.052-.251-.593-2.062-.377-2.283.867-.879 1.902 1.911 2.006 2.162.312.762 1.563.429 1.256-.36-.537-1.386-1.534-4.158-3.257-4.448-2.11-.355-2.08 2.534-1.924 3.846.624 5.246 2.461 10.63 5.233 15.156q-.953.541-1.919 1.061c-3.227 1.729-6.541 1.928-10.11 2.27-3.643.347-7.173 1.282-10.409 2.824-.013-.008-.026-.021-.043-.03-2.443-1.369-4.895-2.772-7.065-4.557-.441-.364-1.139-.788-1.438-1.282-.333-.299-.307-.299.083-.013l.909.195c1.308.29 2.599.611 3.847 1.109.844.338 1.42-1.083.602-1.477-1.261-.611-8.876-3.751-7.758.342.429 1.568 2.517 2.868 3.747 3.803 1.516 1.152 3.123 2.175 4.738 3.18a26.7 26.7 0 0 0-5.102 3.963c-.745.741.355 1.715 1.13 1.104 4.977-3.941 10.79-6.367 17.136-6.856 2.893-.226 5.826-.321 8.559-1.408 2.621-1.04 4.938-2.673 7.424-3.972 10.847-5.675 24.859-7.554 36.567-3.457 3.18 1.113 5.865 3.556 9.248 4.016 1.62.22 3.24.078 4.869.125 2.226.065 4.301.611 6.298 1.581 1.273.62 2.365-1.252 1.096-1.923z"/><path fill="#5FA39B" d="M264.211 308.228c-3.006 4.695-6.796 8.091-10.959 11.695-.836.723.269 2.079 1.187 1.503 4.67-2.937 8.434-7.688 11.245-12.362.567-.94-.888-1.754-1.473-.84z" opacity="0.5"/><path fill="#5AC1B9" d="M203.475 320.599c-2.352-3.322-4.93-6.376-6.987-9.915a83 83 0 0 1-5.51-11.392c-.195-.498-.953-.303-.81.234 1.096 4.136 2.551 8.013 4.592 11.79 1.966 3.639 4.271 7.524 7.212 10.47.753.758 2.148-.273 1.503-1.187m-13.693 1.455c-8.117-3.469-15.03-9.421-19.184-17.265-.472-.893-1.793-.087-1.338.801 4.236 8.304 11.071 14.857 19.734 18.4 1.096.447 1.889-1.468.793-1.936zm57.489-32.045c-.654 6.16-2.95 11.496-5.609 17.002-.542 1.122.97 1.966 1.667.953 3.565-5.176 5.099-11.804 5.614-17.972.091-1.083-1.564-1.035-1.676.017z"/><path fill="#5FA39B" d="M232.621 313.231c-.502 1.581-1.225 3.184-1.559 4.804-.238 1.152 1.338 1.533 1.737.459.576-1.547.819-3.288 1.23-4.891.234-.914-1.126-1.26-1.408-.372" opacity="0.5"/><path fill="#7E3E35" d="M268.032 333.936c-4.002-.234-8.589.047-12.223 1.893-1.2.61-.646 2.772.736 2.607 3.937-.468 7.528-1.174 11.526-.732 2.37.26 2.409-3.625-.039-3.768m-5.977 10.317c-.356-1.117-1.386-1.853-2.56-1.68a2 2 0 0 0-.373.095q-.252-.014-.515.03c-1.707.325-2.543 2.352-2.491 3.929.069 2.183 2.59 2.976 4.254 1.91 1.29-.831 2.165-2.767 1.689-4.284z"/><path fill="#1A1A1A" d="M272.246 339.147a2 2 0 0 0-.212-.538c-.567-.965-1.481-1.559-2.404-2.152a73 73 0 0 0-3.552-2.144c-4.647-2.634-31.863-11.557-38.68-14.286-.932-.372-1.603 1.248-.672 1.642 6.779 2.885 36.636 14.571 42.224 17.17-2.603 2.339-4.747 5.479-6.419 8.416-1.04 1.828-1.551 3.92-2.001 5.986-.282 1.3-.338 3.778.065 4.003 3.001 1.693 5.778-3.873 6.861-5.566a82 82 0 0 0 1.81-2.92c1.243-2.131 2.374-4.405 2.829-6.848.147-.801.364-1.901.151-2.763m-5.553 9.182a56 56 0 0 1-2.495 3.985c-.537.789-1.082 1.707-1.741 2.392-.368.381-.437 1.26-.39.004.117-3.054 2.404-7.346 4.029-9.824 1.156-1.767 2.603-3.422 3.629-3.721-.467 2.556-1.741 4.895-3.032 7.164"/><path fill="#65DFD5" d="M216.08 357.049s-6.454.472-6.844 1.689-3.002 21.025-3.782 23.46c-.779 2.43-1.637 4.253-1.399 4.552.238.303 4.262-.953 4.262-.953s2.093 6.84 5.727 6.801 13.67-5.397 14.848-8.234c1.183-2.838 1.087-11.319 3.054-16.183s4.323-10.95 3.5-12.15c-.819-1.204-4.864-1.967-5.666-1.148-.797.814-4.951 8.732-6.159 9.153-1.209.415-3.232.034-3.647-1.17-.416-1.208-3.297-6.021-3.899-5.813z"/><path fill="#fff" d="M206.182 386.577s3.418-12.704 3.773-17.149c.355-4.444 1.117-10.413 1.295-11.673.178-1.261 5.969-25.552 8.767-28.406 2.794-2.855 12.094-1.746 13.328.259 1.235 2.006 1.005 18.158 1.04 21.39.034 3.231-2.296 11.734-3.474 14.571-1.183 2.837-2.365 5.276-2.339 7.697s-.866 12.54-.866 12.54 1.009-.715 1.594-1.993c.584-1.277 1.529-10.33 2.191-12.882.663-2.551 4.245-11.002 4.397-13.861.151-2.863.719-24.672-1.75-29.086s-14.532.156-14.532.156-2.002 1.637-4.726 10.955-5.454 18.227-5.843 19.444-1.989 13.302-1.919 14.333c.069 1.031-1.841 9.304-2.04 10.426s-1.932 3.491-1.456 3.725c.477.234 2.569-.446 2.569-.446z"/><path fill="#5FA39B" d="M225.748 365.954c-1.651 3.18-2.621 6.593-2.699 10.184-.091 4.197.979 8.117.16 12.315-.151.788.923 1.056 1.196.316 1.23-3.357.286-7.056.013-10.496-.325-4.102.407-8.117 2.192-11.825.277-.572-.568-1.065-.867-.494zm-8.07 1.62c-.502 4.176-1.009 8.347-1.49 12.523-.485 4.241-1.525 7.632-3.738 11.275-.355.585.498 1.247.966.728 2.491-2.777 3.444-6.671 3.877-10.279.567-4.739.918-9.508 1.351-14.26.056-.623-.892-.593-.966.009z" opacity="0.5"/><path fill="#1A1A1A" d="M219.211 327.742c-2.594 2.573-2.88 5.917-2.776 9.412.043 1.429 2.274 1.412 2.226-.026-.087-2.776-.329-6.055 1.715-8.247.715-.767-.415-1.876-1.161-1.139z"/><path fill="#FDA77E" d="M234.762 329.795s1.897-11.327-2.981-14.099c-4.873-2.773-10.893.524-12.418 9.018s1.806 17.746 5.847 18.106c4.042.359 9.192-8.577 9.547-13.025z"/><path fill="#DE835C" d="M226.012 342.244c-2.032-.806-3.184-1.833-4.059-3.838-.831-1.897-1.23-3.877-1.433-5.93-.13-1.312-2.067-1.338-2.084.022-.043 3.617 2.391 12.271 7.589 10.876.611-.164.485-.935-.013-1.13"/><path fill="#DE835C" d="M229.603 328.959c-.97 2.191-2.062 4.253-3.158 6.376-.472.918.81 2.04 1.521 1.148 1.55-1.937 2.75-4.406 3.443-6.788.303-1.048-1.347-1.776-1.806-.741z" opacity="0.5"/><path fill="#D87856" d="M248.397 374.28c-.914-1.07-2.213-2.781-2.88-4.042-.555-1.052-1.49-.134-1.014.91.624 1.369 1.161 4.258 2.322 5.254 1.026.888 2.438-1.104 1.572-2.122"/><path fill="#6924BD" d="M110.827 382.029s-7.922-11.314-10.937-10.937c-3.02.377-4.15 4.149-4.15 4.149s15.464 11.314 16.594 13.957c1.131 2.642 3.396-.754 3.396-.754l-4.903-6.411zm94.722 118.16s15.083-.541 19.232-.208c4.154.334 6.424 1.061 8.287-1.221 1.862-2.283 2.742-25.301.459-27.163s-16.586.935-20.744.225-13.978-2.11-13.978-2.11z"/><path fill="#fff" d="M231.902 495.754s16.98.571 19.999.914c3.019.346 4.955 4.851 7.983 5.57 3.024.723 11.652-3.898 11.652-3.898s-5.362-7.485-4.994-8.243.749-.386.749-.386 6.87 7.468 9.135 7.823c2.266.351 4.137-1.178 3.357-3.431-.779-2.252-13.012-17.209-15.671-19.067-2.66-1.858-12.874-4.388-15.884-3.976-3.015.411-8.633 3.863-10.521 3.508s-6.424-1.061-7.152 1.209 1.603 8.658.867 10.174c-.737 1.516-.672 7.55.485 9.803z"/><path fill="#E5EAEC" d="M271.103 483.851c-.823-1.971-3.6-2.937-5.48-3.483-2.334-.676-4.773-.884-7.112-1.533-2.772-.767-5.436-2.326-7.823-3.907-1.031-.685-1.914.948-.94 1.65 1.88 1.351 3.621 2.798 5.722 3.825 1.871.918 3.86 1.472 5.891 1.91 1.958.424 4.18.745 5.904 1.832l.507.308q.786.357.143.649c-.187.39-.962.741-1.33.997-.975.675-1.993 1.299-3.063 1.806-2.1.996-4.413 1.581-6.752 1.421-2.197-.148-4.011-1.482-6.156-1.668-2.2-.186-4.128.957-6.094 1.75-2.413.975-4.899 1.685-7.442 2.244-1.88.411-1.044 3.244.823 2.867 3.019-.61 5.922-1.563 8.75-2.776 1.295-.555 2.699-1.343 4.154-1.018 1.161.26 2.213.918 3.37 1.217 5.085 1.308 10.374-.671 14.454-3.686 1.391-1.027 3.301-2.417 2.474-4.405"/><path fill="#93AABC" d="m328.466 505.807-38.672 3.362 1.871 5.388 36.892-7.182z"/><path fill="#fff" d="M332.378 509.558c1.472-.324 2.702-1.373 3.547-2.62.693-1.022 1.161-2.214 1.239-3.448.078-1.235-.26-2.508-1.031-3.474-1.04-1.304-2.772-1.928-4.44-1.902-1.083.018-2.205.308-3.01 1.027-.81.719-1.23 1.932-.823 2.937.164.407.455.784.459 1.226 0 .55-.442.983-.719 1.459-1.59 2.751 2.408 5.32 4.782 4.795z"/><path fill="#B0C1D3" d="M285.605 518.434s46.538-10.084 46.889-10.886c.347-.805-.459-1.152-.459-1.152s-3.11.568-3.911.221c-.806-.346-35.086 4.332-35.086 4.332l-8.957 1.29 1.529 6.195z"/><path fill="#fff" d="M252.803 500.653s8.957-1.291 14.346-3.162c5.388-1.876 8.498-2.443 11.348-.641s7.853 7.017 13.9 9.815 7.983 2.3 8.529 5.016-6.476 3.504-9.239 3.27c-2.764-.238-5.22-2.062-5.22-2.062s.914 2.305.243 4.306-3.279 4.505-3.279 4.505 1.395 3.846-.082 5.501c-1.477 1.654-8.802 4.028-10.782 3.747-1.979-.282-2.958-3.76-2.958-3.76s-8.888 2.464-13.047-1.62c-4.154-4.085-3.759-24.911-3.759-24.911z"/><path fill="#E5EAEC" d="M287.485 511.889c-.407-2.287-1.823-4.159-3.149-6.012-1.641-2.305-3.413-4.51-5.076-6.792-.693-.953-2.166.008-1.534 1.013 2.586 4.111 5.172 8.252 7.325 12.601.572 1.156 2.66.459 2.434-.81m-3.465 6.159c-.178-1.334-.234-2.677-.503-3.998-.169-.836-1.364-.602-1.546.087-.372 1.408-.325 2.889-.186 4.327.13 1.326.251 2.785 1.031 3.894.416.589 1.55.507 1.654-.312.169-1.351-.273-2.659-.45-3.998m-6.857 6.913c-1.2.156-2.374.459-3.574.602-1.108.13-2.3-.052-3.257.59-.71.476-.58 1.455.104 1.871 1.027.619 2.391.273 3.522.091 1.23-.195 2.495-.438 3.625-.966 1.04-.49.944-2.357-.42-2.183z"/><path fill="#6924BD" d="M213.13 507.206c.39-.021 7.827-.442 12.457-1.88s23.542-7.216 27.151-5.847 8.468 10.907 8.147 19.171c-.32 8.265-.883 12.22-3.205 12.744-2.326.524-14.502.424-19.501 2.278-4.998 1.854-13.189 9.772-13.189 9.772l-11.856-36.233z"/><path fill="#E5EAEC" d="M278.302 496.382c-2.897-1.672-6.016-1.638-9.057-.654a64 64 0 0 0-5.258 1.945c-1.811.762-4.089 1.754-6.086 1.871-.459.026-.459.732.009.719 1.654-.048 3.127.221 4.786-.117 1.733-.355 3.366-1.035 5.02-1.637 3.496-1.278 6.541-1.841 10.162-.802 1.399.403 1.676-.606.433-1.321z"/><path fill="#6924BD" d="M44.858 672.797s-12.804 1.646-13.983-2.486c-1.178-4.137 14.715-34.484 15.061-37.126s-.987-21.489.416-31.308c1.403-9.824 10.236-29.91 11.344-32.184 1.11-2.274-1.944-5.258 1.044-7.931s10.543-1.624 10.543-1.624l3.6 18.82-28.025 93.843z"/><path fill="#9858E6" d="M40.777 697.253h164.071c.97-16.594-.117-63.215-2.136-76.335-2.434-15.814-2.651-35.805-1.191-40.344 1.46-4.544 27.744-15.39 30.668-24.096 2.923-8.707-2.192-28.264-4.891-33.518-2.698-5.25-3.543-13.54-7.372-18.777s-14.424-8.52-14.424-8.52.424-30.178-2.014-46.37c-2.439-16.191-9.954-48.171-9.989-51.567-.039-3.396 9.898-10.248 9.681-11.422-1-5.458-20.007-18.829-41.916-21.987s-47.812 8.442-50.783 12.622 1.243 10.171 1.243 10.171-3.353 3.807-7.074 8.754c-3.716 4.942-8.381 26.873-14.558 48.812-6.172 21.944-26.14 58.749-27.575 65.554-1.433 6.805 2.365 9.403 4.7 16.169s4.496 32.011 4.496 32.011-1.888-.356-3.764.796c-1.871 1.153-3.352 3.808-3.335 5.315 0 .13.03.299.078.498-1.598.109-3.17.59-4.687 1.287-.892.411-.23 1.789.671 1.542 1.664-.451 3.336-.399 4.982-.1.957 2.478 2.165 5.631 1.71 7.299-.32 1.174-1.381 2.802-2.59 4.353-2 1.408-3.803 3.6-5.362 5.263-2.049 2.187-4.128 4.488-5.61 7.108-.467.832.598 1.525 1.27.957.944-.797 1.836-1.654 2.716-2.529-1.776 5.115-3.96 12.661-5.874 20.471-2.599 10.582-10.157 63.769-11.136 86.579z"/><path fill="#6924BD" d="M225.319 549.383c-.152-1.291-1.291-.854-1.183.485.134 1.654.264 3.543-.108 5.25-1.625-5.311-3.249-10.617-4.7-15.984-1.724-6.376-2.967-12.882-4.756-19.236-2.365-8.404-7.537-17.786-16.04-20.653 1.538-1.269 3.396-2.166 5.371-2.491 1.127-.186.767-1.871-.277-1.906-3.465-.117-6.484 1.066-8.905 3.591a19 19 0 0 0-2.041-.073c-.273-1.668-1.148-3.162-2.547-4.328-.892-.745-2.001-.992-2.91-1.62-.745-.515-.577-1.096-.468-1.971.125-1.004.294-2.009.463-3.01 1.113-6.688 1.724-13.367 1.274-20.15-.464-6.952-2.205-13.463-3.946-20.168-1.733-6.671-1.343-13.701-2.001-20.523-.728-7.489-2.054-14.931-5.012-21.883-.516-1.217-2.465-.754-2.04.585 2.005 6.354 3.222 12.938 3.786 19.574.545 6.454.147 13.038 1.074 19.445.481 3.313 1.559 6.488 2.369 9.728a73 73 0 0 1 1.789 10.071c.702 6.727.563 13.523-.511 20.202-.29 1.807-.62 3.609-.858 5.419-.195 1.469-.437 3.071.42 4.397 1.413 2.183 6.095 2.157 5.545 5.644a2 2 0 0 0-.018.476c-.151.13-.29.308-.394.542-.719 1.628-.909 3.413-1.36 5.128a74 74 0 0 1-1.442 4.7c-1.079 3.179-2.3 6.311-3.478 9.46-1.209 3.227-2.279 6.588-4.133 9.521-1.624 2.568-3.768 4.795-5.943 6.904-9.299 9.023-20.492 15.771-30.507 23.923-.957.78.334 2.43 1.347 1.711 10.916-7.77 22.451-14.775 32.153-24.109 2.231-2.144 4.38-4.405 6.065-7.013 1.793-2.772 2.88-5.925 4.058-8.988 1.3-3.374 2.647-6.731 3.855-10.14.031-.082.061-.169.091-.251q.01.512.005 1.031a70.4 70.4 0 0 1-.836 10.218c-1.096 6.935-3.305 13.315-5.761 19.86-.49 1.304 1.537 2.04 2.204.901 3.622-6.155 5.779-13.554 6.914-20.562 1.096-6.783 1.654-14.238.394-21.06.099.013.195.03.303.026 11.812-.056 16.98 12.419 19.423 22.03 3.01 11.847 5.834 21.84 10.326 33.245.442 1.122 1.845 1.338 2.53.303 1.966-2.976.818-4.877.416-8.264z"/><path fill="#6924BD" d="M168.337 603.722c11.587-1.373 22.385-7.359 32.292-13.519.078-4.544.381-8.039.892-9.629.13-.407.468-.849.97-1.325-20.306 7.883-46.009 6.731-65.142-3.232-9.061-4.717-17.252-10.98-24.391-18.279-7.199-7.359-12.86-15.853-18.695-24.287-3.292-4.756-6.692-9.495-10.603-13.77-1.967-2.148-4.085-4.193-6.346-6.025-1.841-1.49-4.046-2.66-6.463-2.175-.515.104-.732.78-.472 1.196a23 23 0 0 0 2.057 2.794c.81.961 2.14-.316 1.555-1.308 1.4 1.035 2.643 2.586 3.665 3.625 1.902 1.932 3.677 3.99 5.388 6.09 3.349 4.12 6.329 8.538 9.287 12.943 5.77 8.589 18.838 31.638 26.167 39.001 14.481 14.559 23.889 25.474 44.433 27.805 1.642.186 3.465.212 5.415.099z"/><path fill="#6924BD" d="M182.367 455.999c-6.233-5.384-14.922-8.044-23.044-8.399-4.353-.191-8.931.208-13.051 1.706a24 24 0 0 0-4.214 2.036c-.013-.034-.022-.073-.035-.108-4.925-11.236-2.785-23.759-2.439-35.597.356-12.241-2.434-24.551-.45-36.744.121-.741-.957-1.057-1.144-.303-3.127 12.383-.234 25.222-.671 37.81-.42 12.102-2.239 24.525 2.789 35.982.031.065.065.121.1.177-1.685 1.192-3.262 2.543-4.756 3.968-6.268 5.973-11.067 13.255-16.027 20.298-2.646 3.76-5.349 7.489-8.386 10.95-2.698 3.08-5.696 5.869-8.706 8.637-6.22 5.722-13.45 11.946-15.806 20.406-.208.749.953 1.265 1.291.528 3.236-7.025 8.234-12.353 13.909-17.499 5.804-5.267 11.266-10.526 15.983-16.824 4.947-6.601 9.296-13.649 14.662-19.934 2.82-3.3 5.922-6.527 9.521-8.979 3.855-2.625 8.2-3.864 12.826-4.189a40 40 0 0 1 13.774 1.43c4.648 1.33 8.659 3.604 12.618 6.324.983.676 2.166-.892 1.26-1.672z" opacity="0.5"/><path fill="#6924BD" d="M193.837 395.53a337 337 0 0 1-15.373-9.867c-4.764-3.249-9.295-6.926-14.233-9.911-4.878-2.949-10.036-4.232-15.732-3.868-5.722.368-11.349 1.707-16.755 3.582-6.125 2.127-12.189 4.878-17.79 8.152-.957.564-.285 2.296.802 1.846 6.553-2.734 12.916-5.818 19.726-7.905 6.692-2.049 14.775-3.972 21.718-2.14 6.588 1.737 12.068 6.796 17.53 10.612a338 338 0 0 0 18.617 12.098c1.654 1.001 3.132-1.607 1.481-2.603zM72.627 557.851c-1.369-.165-1.494 1.945-.29 2.317.762.238 2.478.598 2.703 1.581.1.429-.537 1.473-.676 1.85a81 81 0 0 0-1.564 4.682q-.352 1.19-.67 2.391c-1.131-.42-2.544-.268-3.678-.16-1.339.125-1.352 2.066.021 2.109.633.022 1.274.035 1.897.152.395.073.771.19 1.157.29a83 83 0 0 0-.875 4.119 95 95 0 0 0-1.195 8.772 89 89 0 0 0-.312 4.92c-.057 1.512-.256 3.11.216 4.562.394 1.208 2.08 1.178 2.456-.026.511-1.655.269-3.548.342-5.272a91 91 0 0 1 .412-5.622c.398-3.838 1.065-7.654 1.94-11.41a99 99 0 0 1 1.443-5.449c.507-1.737 1.265-3.469 1.659-5.228.667-2.984-2.56-4.284-4.986-4.578m14.948 129.682c.3-7.697.295-15.399.325-23.1.057-14.784.225-29.671 2.816-44.269 1.438-8.095 3.248-18.24 6.527-25.794.823-1.897-1.58-1.408-2.434.511-12.41 27.934-9.928 58.853-10.79 88.624-.125 4.392-.338 8.78-.675 13.159-.013.195-.035.394-.052.589h3.811c.226-3.257.343-6.519.464-9.724z"/><path fill="#3D57A4" d="M114.678 587.448c.178-1.836-1.395-2.053-1.59-.247-2.339 22.009-4.054 44.602-1.897 66.65.191 1.953 3.24 2.005 3.093 0-1.616-22.143-1.724-44.286.39-66.403zm66.888 46.824c-.377-2.092-3.548-1.2-3.184.88 3.171 18.11 5.059 36.324 6.87 54.607.195 1.963 3.21 2.041 3.123 0-.801-18.599-3.496-37.186-6.814-55.487z" opacity="0.5"/><path fill="#78C1BA" d="M348.43 485.163s-7.533 9.785-9.365 14.706-2.443 18.132-2.4 22.281c.044 4.15.347 21.805.303 22.97-.043 1.166 23.205-11.534 23.205-11.534l13.016-17.114 4.184-31.352-15.559-8.507-13.389 8.546z"/><path fill="#5FA39B" d="M370.742 482.625c.06-.897-.797-1.178-1.443-.905-.338-.295-.823-.399-1.208-.221-.278-.559-1.031-.737-1.586-.399a1.2 1.2 0 0 0-.403-.138c-.116-.91-1.555-1.283-2.096-.369-.446-.208-1.001-.134-1.33.451-1.841 3.253-3.734 6.48-5.497 9.772a1.05 1.05 0 0 0-.125.455c-3.08.377-6.112.463-9.257.372-.97-.026-1.199 1.555-.212 1.72 3.461.589 6.996.472 10.465-.013 1.802-.251 3.587-.602 5.389-.849 1.918-.264 3.85-.173 5.761-.403.823-.1 1.234-1.096.788-1.646.437-2.569.589-5.237.762-7.831z"/><path fill="#fff" d="M373.501 440.656c-.373.382-17.222 11.882-20.562 16.82s-4.037 10.227-6.25 14.779c-2.214 4.548-5.558 9.114-4.778 11.366.78 2.253 6.787-.074 7.143-2.339 0 0-1.833 4.925-.672 7.55 1.161 2.629 3.032 1.477 3.032 1.477s-.342 3.4 3.427 2.98c3.768-.42 9.655-14.06 9.655-14.06s-1.092 3.786.052 4.903c1.143 1.118 7.913-.84 7.913-.84l5.657-34.761-4.613-7.87z"/><path fill="#E5EAEC" d="M351.67 463.804c-.498 2.881-.936 5.722-1.642 8.568-.702 2.829-1.555 5.661-1.914 8.559-.165 1.3 1.741 1.897 2.035.537a773 773 0 0 1 1.967-8.91c.632-2.768 1.33-5.683 1.278-8.542-.018-.952-1.551-1.217-1.72-.212zm8.776 2.933c-.074-.789-1.283-1.062-1.469-.182-.416 1.962-.758 3.859-1.473 5.748-.762 2.014-1.763 3.933-2.685 5.873-1.741 3.66-2.876 7.165-4.176 11.002-.45 1.335 1.274 2.14 1.72.81a121 121 0 0 1 4.929-12.327c1.542-3.331 3.504-7.152 3.158-10.929zm6.28 5.938c-1.035 2.456-2.187 4.869-3.218 7.329-.455 1.083 1.083 2.032 1.628.927 1.218-2.469 2.119-5.085 2.911-7.714.23-.767-1-1.304-1.321-.542"/><path fill="#6C4E4E" d="M147.801 670.168s-31.581 9.395-33.422 13.566-3.625 13.619-1.689 18.124 23.685 27.652 37.641 27.501c13.952-.152 189.18-84.279 189.18-84.279l-30.134-30.98-161.58 56.068z"/><path fill="#4A3333" d="M268.422 657.836a14275 14275 0 0 0-31.854 14.095c.81-.84.164-2.664-1.131-2.521-6.363.693-12.263 3.651-17.984 6.35a314 314 0 0 0-8.438 4.154 1.5 1.5 0 0 0-1.096-.775c-.407-.65-1.326-1.083-2.123-.685-1.932.962-3.859 1.928-5.791 2.889a39.4 39.4 0 0 0-5.341 2.669c-.892.532-.87 1.468-.407 2.096l-.676.476c-.615.447-.732 1.127-.554 1.703-9.785 5.133-19.635 10.101-29.953 14.103-.853.33-1.026 1.243-.732 1.88-3.214 1.291-6.614 2.642-10.075 2.677-.234-.437-.65-.767-1.221-.749-3.513.117-6.299-1.75-9.157-3.556a160 160 0 0 1-8.451-5.731c-5.61-4.067-10.885-8.564-15.971-13.268-1.13-1.044-2.763.615-1.672 1.711 5.289 5.315 11.054 10.136 17.101 14.563a147 147 0 0 0 9.309 6.302c2.283 1.417 4.695 2.699 7.337 2.872q.13.058.286.096c3.747.792 7.394-.052 10.942-1.322 3.976-1.425 7.896-3.019 11.795-4.643 7.723-3.218 15.351-6.662 23.005-10.032a66928 66928 0 0 0 47.66-20.999q13.369-5.9 26.738-11.795c1.75-.771.204-3.322-1.533-2.56z"/><path fill="#FDA77E" d="M317.542 601.565s-9.746 5.765-14.264 6.19c-4.522.424-16.581 1.312-38.711 12.869-22.13 11.556-54.751 29.259-74.317 33.621s-37.316 2.291-46.299 8.425c-8.984 6.133-20.155 19.453-20.857 24.365s5.345 5.977 6.103 6.346c0 0-1.083 4.539 1.967 7.524 3.049 2.984 4.162 1.087 4.557 2.967.398 1.88.047 4.526 2.711 6.384 2.66 1.859 4.895-.805 6.411-.069s1.932 4.128 9.46 2.915c7.533-1.213 11.643-4.652 12.367-7.298.723-2.647-.044-4.15-.044-4.15s18.795-5.861 24.781-10.452 8.589-8.013 8.589-8.013 84.609-23.551 98.517-27.852 21.394-9.664 21.394-9.664l-2.365-44.104z"/><path fill="#D58F6E" d="M165.699 696.253c-.966-1.629-2.118-3.054-2.889-4.809-.602-1.368-1.1-2.815-2.101-3.963-1.074-1.23-3.283-1.702-3.807-3.288-.572-1.741-.373-3.413-1.386-5.063-.849-1.382-2.118-2.335-3.279-3.431-1.486-1.407-1.923-3.075-2.409-4.99-.697-2.737-2.209-5.895-5.431-5.995-1.179-.034-1.412 1.807-.256 2.062 3.613.806 3.201 5.514 4.527 8.23.671 1.373 1.758 2.361 2.867 3.37 1.499 1.365 2.391 2.69 2.668 4.743.178 1.3.303 2.53 1.213 3.552 1.04 1.174 2.686 1.52 3.626 2.807 1.901 2.595 2.256 6.008 4.803 8.234.992.871 2.569-.26 1.854-1.464z" opacity="0.5"/><path fill="#D58F6E" d="M139.017 679.68c-2.577 2.179-4.847 4.851-7.039 7.416-1.477 1.728-3.326 4.093-2.144 6.406.455.888 1.841.819 2.291-.026.538-1.005.646-2.101 1.27-3.084.68-1.066 1.598-2.006 2.417-2.963 1.758-2.062 3.59-4.072 5.063-6.354.767-1.191-.901-2.205-1.854-1.399z"/><path fill="#93AABC" d="M368.944 651.118s108.12 17.737 117.117 12.734 26.128-25.179 26.128-25.179l-130.995-10.27-12.254 22.71z"/><path fill="#1A1A1A" d="M441.65 672.637s12.557 10.049 15.173 7.758c2.616-2.292 4.821-7.598 3.292-9.465-1.529-1.871-18.526-3.946-18.526-3.946l.061 5.657z"/><path fill="#93AABC" d="M362.638 663.48s9.828-5.557 38.113-5.865 41.908 3.695 43.497 11.219c1.59 7.528-9.36 6.514-12.007 5.787-2.646-.728-18.556-6.965-36.649-5.636-18.093 1.33-31.222 7.884-31.222 7.884l-1.737-13.389z"/><path fill="#B0C1D3" d="M370.876 697.253c-3.448-11.894-9.291-34.159-9.456-49.02-.229-21.121-11.283 2.763-11.283 2.763s3.387 31.716 8.347 46.257z"/><path fill="#93AABC" d="M367.987 690.643c.585 2.192 1.13 4.405 1.698 6.614h2.477c-.61-2.174-1.243-4.344-1.827-6.519-1.244-4.639-2.5-9.278-3.687-13.934-2.365-9.287-4.236-18.626-4.154-28.251.009-1.169-1.732-1.126-1.801.022-.59 9.495 1.316 18.972 3.621 28.138 1.174 4.656 2.43 9.291 3.669 13.93zM460.01 434.48s3.128 25.417 2.642 28.038c-.485 2.625-2.083 4.821-2.564 7.446s14.493 108.54 15.156 110.831 3.617 3.92 6.675 2.911c3.063-1.009 3.5-2.499 3.561-4.007s-13.71-109.263-14.372-111.555c-.663-2.291-4.31-5.457-4.626-6.982s-3.864-35.259-3.864-35.259l-2.612 8.577z"/><path fill="#1A1A1A" d="M441.982 494.978s12.835-33.708 16.174-38.646c3.34-4.938 31.266-42.592 31.764-46.741s-3.292-5.618-3.292-5.618l-45.837 51.038-21.506 34.18 18.99 11.865z"/><path fill="#6C4E4E" d="M384.694 637.798s265.532 34.458 273.767 28.71c8.234-5.748 12.47-32.574 12.007-40.487s-21.576-76.335-21.576-76.335l-88.35-8.468-163.668 49.115-12.176 47.47z"/><path fill="#4A3333" d="M666.587 628.425c-14.334 1.763-28.589-.472-42.684-2.989a696 696 0 0 0-42.085-6.172c-3.92-.455-7.844-.888-11.769-1.309-4.154-.441-8.334-1.052-12.509-1.065-1.412-.004-1.75 2.231-.312 2.517 6.974 1.39 14.251 1.676 21.315 2.469 7.342.827 14.676 1.728 21.992 2.759 14.138 2.001 28.142 5.102 42.354 6.553 8.017.819 15.13.702 23.1-.593 1.321-.217 1.94-2.335.593-2.17z"/><path fill="#4A3333" d="M565.22 642.06c1.013-10.95 3.149-21.402 3.149-21.402l-34.796-9.936-123.119-14.502-17.794 10.517-7.971 31.061s98.301 12.757 177.135 21.45c1.052-3.522 2.72-9.945 3.391-17.188z"/><path fill="#65DFD5" d="M391.348 625.28s16.676 7.364 34.019 6.796c17.344-.567 19.207-2.85 22.975-2.889 3.773-.039 17.326-2.075 19.574-3.608s1.486-2.278 3.366-2.677c1.88-.398 7.173.676 9.859 4.795s20.332 31.46 29.467 39.283 10.651 8.182 12.527 7.407 1.481-2.655 4.128-1.932c2.647.728 13.246 4.007 19.604-.966 6.359-4.973 14.143-17.504 16.993-32.998s5.402-23.442 6.857-28.363 1.975-26.422 3.041-32.469-.169-15.464-.169-15.464l-81.351-23.633-55.301 48.124-42.731 24.603-2.867 13.987z"/><path fill="#5AC1B9" d="m418.918 597.069-24.703 14.224-2.867 13.987s16.676 7.364 34.02 6.796l1.078-.039c-2.144-9.863-6.081-27.999-7.532-34.968zm72.003 32.278c-5.54-4.149-11.686-6.904-18.469-7.926 1.55-2.855 1.529-6.273 1.784-9.491.364-4.583 1.131-9.243 3.266-13.363.646-1.247-1.169-2.287-1.893-1.078-2.191 3.643-3.261 7.662-3.829 11.851-.537 3.963-.286 8.204-2.516 11.686-.1.156-.156.317-.187.477-.71.771-.325 2.491 1.101 2.629 6.978.667 13.947 2.972 19.734 6.991 1.096.758 2.036-1.005 1.009-1.771z"/><path fill="#5FA39B" d="M480.889 583.52c-.32-1.317-2.274-.958-2.3.337-.082 4.206.459 8.326.07 12.558a60.8 60.8 0 0 1-2.573 12.682c-.399 1.261 1.546 1.746 1.971.52 1.459-4.21 2.473-8.446 2.971-12.882.476-4.219.875-9.053-.143-13.215z" opacity="0.5"/><path fill="#5AC1B9" d="M558.641 578.101c-3.206 12.618-6.324 25.196-7.771 38.165-.702 6.298-.741 12.895-3.232 18.825-2.421 5.765-6.259 11.054-9.542 16.352q-2.948 4.757-5.917 9.494l-2.976 4.739a391 391 0 0 0-4.387 7.147c-.373.62-.759 1.291-.72 2.014.646.217 1.313-.221 1.85-.636 2.421-1.846 3.924-4.562 5.419-7.147.823-1.426 1.793-2.738 2.664-4.124a185 185 0 0 1 4.673-7.125 203 203 0 0 0 7.074-11.011q.238-.396.476-.797a175 175 0 0 0 1.841-3.167c3.193-5.622 4.535-11.491 5.111-17.889.633-7.008 1.417-13.939 2.651-20.874 1.395-7.844 3.05-15.671 4.743-23.455.273-1.265-1.628-1.776-1.949-.515zm-31.586-12.194c3.023.724 34.371 4.531 38.477.338 1.148-1.174 1.754-3.322 2.032-5.8l-55.405-16.096-25.942-.541-3.149 2.742-2.768 20.999s11.656-3.521 20.337-2.863 11.353 3.27 15.485 2.096c4.137-1.178 7.905-1.594 10.929-.875z"/><path fill="#5FA39B" d="M450.703 597.112a128 128 0 0 0-9.863 12.072c-2.508 3.483-4.626 7.195-7.321 10.508.343-.927.741-1.828 1.205-2.716.394-.758-.711-1.386-1.153-.658a14.35 14.35 0 0 0-2.001 5.696c-.06.468.407 1.001.893.667 3.924-2.69 6.28-7.372 9.022-11.136a140 140 0 0 1 10.703-12.982c.91-.979-.576-2.439-1.485-1.451" opacity="0.5"/><path fill="#5AC1B9" d="M540.5 622.724c-1.577 5.74-4.57 10.903-8.26 15.538-1.707 2.144-3.556 4.167-5.48 6.12-1.897 1.932-4.362 3.925-5.518 6.415-.399.854.619 1.707 1.343 1.014 2.105-2.023 3.985-4.397 6.029-6.506 2.084-2.149 4.059-4.397 5.869-6.779 3.496-4.609 6.251-9.742 7.719-15.355.286-1.096-1.403-1.542-1.702-.451z" opacity="0.5"/><path fill="#FDA77E" d="M394.301 619.588s10.504-5.392 23.291-8.55c12.791-3.158 34.951-11.695 41.31-16.668 0 0 4.089-5.323 8.217-7.632 4.124-2.309 7.455-8 9.308-11.041 1.854-3.037 12.579-22.767 18.96-25.478 6.384-2.712 23.705 0 23.705 0l-20.444-46.807s-23.321 5.912-27.856 5.206-15.225-12.656-29.97-15.892-29.069-2.326-29.069-2.326l-24.031 114.171 6.575 15.017z"/><path fill="#D58F6E" d="M505.032 530.392c-24.921-6.23-32.18-18.957-30.511-22.016l23.642-5.007c11.219 9.921 31.791 33.254 6.869 27.023"/><path fill="#D58F6E" d="M476.843 508.025c-3.374 2.556-6.939 3.53-11.123 3.755-.862.048-1.074 1.317-.191 1.542 4.341 1.101 9.231-.216 12.787-2.837 1.473-1.087-.004-3.569-1.473-2.456z"/><path fill="#5AC1B9" d="M459.942 592.369c-1.932 2.092-3.565 4.353-5.042 6.792-1.356 2.244-3.309 5.068-3.708 7.688-.212 1.417 1.438 2.097 2.283.932.762-1.053 1.13-2.383 1.667-3.565.59-1.3 1.231-2.573 1.902-3.834 1.286-2.408 2.733-4.738 4.154-7.064.468-.767-.645-1.616-1.261-.949z"/><path fill="#65DFD5" d="M455.055 500.683c-1.928-3.751-4.526.048-6.411.069s-5.665-.693-7.16.455c-1.494 1.148-6.341 6.48-11.626 6.16l-103.186 78.444s-2.295 3.041-5.678 4.21-3.366 2.677-5.562 8.737-4.028 10.98-4.228 27.579c-.195 16.598 1.859 32.04 3.756 33.149s26.015-1.035 30.914-1.468c4.899-.429 27.848-5.96 35.666-15.096 7.823-9.135 15.975-22.428 19.644-31.897s15.875-31.477 22.948-40.232 7.424-11.019 7.424-11.019 16.417-16.399 18.609-23.208c2.187-6.814 6.818-32.136 4.89-35.887z"/><path fill="#5AC1B9" d="M413.832 546.307c-5.263 10.474-10.149 16.646-14.368 27.588-2.118 5.492-4.748 13.597-6.203 19.301-1.399 5.484-2.252 13.112-2.473 18.786-.035.936 1.498 1.152 1.659.208.953-5.592 1.75-11.119 3.222-16.616 1.499-5.579 3.362-11.054 5.467-16.434 4.253-10.859 9.473-21.289 14.636-31.733.637-1.286-1.295-2.395-1.945-1.108z"/><path fill="#5FA39B" d="M444.711 506.379c-3.274 8.191-4.136 16.919-5.405 25.578-1.317 8.983-3.617 17.556-7.858 25.625-.671 1.278 1.278 2.391 1.949 1.113 4.219-8.017 6.667-16.55 7.94-25.499 1.265-8.867 1.793-17.929 4.8-26.44.32-.91-1.083-1.239-1.43-.377z"/><path fill="#5FA39B" d="M319.213 616.634s-2.595 4.176-.689 6.043 19.215-2.097 22.624-.624 7.225 5.579 18.938 7.338c11.712 1.758 29.744-4.852 28.189-8.984s-.056-5.28-.056-5.28l3.348-4.184s2.352-26.427 12.713-45.023c10.361-18.595 20.705-38.321 23.256-46.646s-.493-10.556-.493-10.556L319.209 616.63z" opacity="0.5"/><path fill="#B0C1D3" d="M407.066 544.393s4.423 25.222 4.076 27.865c-.346 2.642-1.832 4.924-2.178 7.567-.347 2.642 20.029 107.656 20.808 109.908.78 2.253 3.812 3.73 6.818 2.565s3.366-2.677 3.349-4.185c-.018-1.507-19.284-108.418-20.06-110.671-.78-2.252-4.583-5.232-4.977-6.735s-5.661-35.016-5.661-35.016l-2.17 8.697z"/><path fill="#93AABC" d="M440.32 685.246c-.936-5.315-1.893-10.625-2.842-15.936a28325 28325 0 0 0-5.756-32.24c-1.902-10.621-3.808-21.242-5.709-31.862-.953-5.311-1.902-10.621-2.855-15.932q-.695-3.89-1.403-7.779c-.394-2.17-.754-4.406-1.815-6.372-1.248-2.309-3.686-3.617-4.47-6.198-.854-2.812-.932-6.043-1.33-8.945-.814-5.969-1.624-11.925-2.746-17.846-.13-.693-1.287-.524-1.23.182.398 5.18 1.039 10.322 1.685 15.476.277 2.214.567 4.423.853 6.632.277 2.157.359 4.552 1.321 6.545.905 1.871 2.703 2.989 3.794 4.708 1.2 1.893 1.491 4.254 1.867 6.415.914 5.19 1.841 10.379 2.768 15.568 3.569 20.012 7.13 40.028 10.716 60.035l1.222 6.809c-1.174.065-2.343.299-3.513.377-1.356.091-2.711.083-4.067.117-.667.018-1.018.763-.854 1.295-.082.507.143 1.049.793 1.2 2.733.633 5.501.88 8.295.654l1.183 6.593c.489 2.716.974 5.436 1.464 8.152.376 2.109 2.503 8.576-1.131 8.897-1.239.108-1.997.888-.723.91 4.63.065 5.042-4.289 4.483-7.446z"/><path fill="#93AABC" d="M432.289 667.144c-.329-.788-1.317-.974-1.81-.216-.247.377-.256.78-.395 1.195-.138.416-.246.169-.545.494-.624.676-1.568 1.534-2.417 1.776-.784.225-.841 1.494.017 1.663 1.356.26 2.733-.272 3.729-1.195.862-.797 1.928-2.508 1.421-3.717"/><path fill="#65DFD5" d="M428.711 488.334s15.269-17.894 20.519-20.969c5.245-3.076 8.602-6.506 9.72-8.027 1.113-1.52 2.057-18.881 2.057-18.881s6.68-10.257 10.418-13.315 7.779-12.908 12.262-17.105c4.479-4.198 6.043-2.95 6.043-2.95s-1.975-4.262-5.007-5.735-18.262-14.511-22.109-21.259c-3.846-6.749-7.757-19.908-13.042-20.224-5.284-.321-67.1 38.07-71.925 45.29-4.826 7.221-7.788 81.555-8.473 87.974-.684 6.419-3.911 21.918-3.911 21.918s-28.393 25.201-28.346 29.35-.896 21.511-1.256 23.399c-.355 1.889-8.178 11.028-12.522 27.67-4.345 16.642-4.674 21.173-4.674 21.173l22.996-1.005 12.51 5.9s33.95.385 35.05-2.266c1.105-2.651.893-4.726-1.775-7.338s-5.709-4.842-6.151-10.872c-.442-6.029 13.57-35.224 18.764-43.579 5.189-8.356 31.516-50.129 32.209-55.795s-3.543-13.54-3.352-13.354z"/><path fill="#5FA39B" d="M461.436 439.803c1.534-2.304 6.814-10.066 9.984-12.661 3.739-3.058 7.78-12.908 12.263-17.105 4.479-4.198 6.043-2.95 6.043-2.95s-1.976-4.262-5.008-5.735-18.261-14.511-22.108-21.259c-3.846-6.749-7.758-19.908-13.042-20.224a2 2 0 0 0-.477.047c1.191.914 3.734 3.661 5.501 11.215 2.374 10.157 4.648 45.966 6.55 47.452 1.901 1.49 4.556 2.967 4.569 4.098s-3.292 9.464-3.998 13.999a24 24 0 0 0-.281 3.123z" opacity="0.5"/><path fill="#5AC1B9" d="M429.612 489.607c-3.114-5.73-6.458-11.322-9.469-17.114a360 360 0 0 1-8.554-17.586c-5.389-11.903-9.846-24.204-15.477-35.999-2.699-5.653-5.449-11.527-10.582-15.373-1.035-.775-2.391 1.005-1.373 1.819 4.509 3.617 6.961 9.162 9.365 14.277 2.776 5.921 5.215 11.986 7.675 18.041 4.739 11.669 9.681 23.23 15.433 34.445 3.284 6.406 6.623 12.907 10.517 18.967 1.001 1.56 3.353.152 2.469-1.477z"/><path fill="#5FA39B" d="M381.302 406.909c-.372-.632-1.369-.645-1.724.018-1.789 3.344-2.503 6.713-2.655 10.478-.035.849 1.273.827 1.317-.013.134-2.612.918-5.229 2.07-7.607.65 2.443.36 5.19.29 7.654a198 198 0 0 1-.571 10.171c-.55 6.805-1.399 13.583-2.283 20.354-1.728 13.211-3.613 26.461-3.703 39.811-.009 1.386 2.204 1.377 2.235-.004.285-14.139 2.187-28.138 3.933-42.146.836-6.723 1.611-13.454 2.066-20.216.229-3.387.377-6.783.416-10.179.034-2.854.108-5.787-1.391-8.325z" opacity="0.5"/><path fill="#5AC1B9" d="M380.913 602.292c-.741-2.819-1.776-5.553-2.491-8.385-.745-2.942-1.347-5.917-1.858-8.906-1.005-5.891-1.638-11.838-2.3-17.772-1.356-12.168-3.695-24.183-5.112-36.338a147 147 0 0 1-.758-8.814c-.307-5.471-.528-10.929-.121-16.404.42-5.605 1.36-11.175 1.443-16.806.013-.763-.061-1.659-.702-2.075a.43.43 0 0 0-.286-.087c-.849.117-1.031 5.241-1.135 6.06q-.435 3.514-.806 7.034c-.58 5.54-1.052 11.089-1.221 16.642-.173 5.744.321 11.483 1.061 17.175.563 4.331 1.274 8.641 1.945 12.955 1.932 12.35 2.928 24.812 4.864 37.152 1.023 6.51 2.153 13.644 5.008 19.644.675 1.425 2.841.368 2.464-1.07z"/><path fill="#5AC1B9" d="M404.697 542.794c-6.48-3.556-13.042-6.952-19.6-10.365-2.872-1.494-5.87-2.88-8.546-4.721-1.265-.871-2.456-1.872-3.457-3.045-1.122-1.322-1.681-2.846-2.569-4.293-.428-.697-1.615-.416-1.576.446.125 2.755 2.369 5.315 4.357 7.035 2.603 2.252 5.722 3.772 8.772 5.323 7.264 3.695 14.519 7.411 21.861 10.946.879.424 1.629-.849.758-1.33z" opacity="0.5"/><path fill="#5AC1B9" d="M344.779 557.387c-1.62-.935-4.587.849-5.7 2.01-.356.368.013 1.135.545.918.698-.285 1.365-.645 2.067-.914.078-.03.26-.103.485-.194-.416.294-.819.554-.992.706a62 62 0 0 0-2.53 2.278c-1.13 1.07-2.326 2.101-3.093 3.448-4.795 6.415-8.1 14.303-10.72 21.731-1.516 4.293-2.785 8.672-3.886 13.09-1.069 4.293-2.36 8.858-2.482 13.298-.021.732.975.758 1.2.147 1.482-4.032 2.114-8.45 3.175-12.609 1.105-4.31 2.365-8.576 3.855-12.769a104 104 0 0 1 5.224-12.207c2.014-3.967 4.492-7.545 6.848-11.296 0-.004.005-.013.009-.018.94-1.013 2.049-1.936 2.972-2.811 1.117-1.061 3.413-2.369 3.478-4.032.013-.317-.191-.62-.455-.776"/><path fill="#2A665F" d="M386.227 609.544c-1.472-1.642-3.153-3.119-4.587-4.787-1.187-1.377-1.667-3.145-3.183-4.314-.104-.078-.217-.156-.347-.156-.316 0-.42.425-.398.741.091 1.351.662 2.629 1.316 3.816a27 27 0 0 0 2.526 3.799c.805 1.013 1.698 1.996 2.131 3.214 1.369 3.829-3.206 4.851-5.861 5.661a64 64 0 0 1-11.045 2.348c-3.375.402-7.113.671-10.387-.434-7.572-2.559-10.621-5.544-22.316-5.791-11.696-.251-14.334.156-15.434 2.807-1.104 2.651.806 4.895 6.082 4.461s8.611-5.752 16.182-3.192c7.572 2.56 6.091 5.215 12.514 6.277 6.424 1.061 24.534 1.62 29.043.06 4.509-1.559 7.52-2.343 7.849-6.497.13-1.637-.481-2.447-1.178-3.782-.771-1.481-1.616-2.75-2.72-4.011l-.195-.22z" opacity="0.5"/><path fill="#5AC1B9" d="M429.72 507.276c-7.125 14.068-16.386 26.621-25.266 39.599-9.066 13.25-16.728 27.228-22.03 42.418-2.348 6.723-5.821 16.499 1.607 21.411 1.105.732 2.478-1.039 1.417-1.875-6.19-4.856-1.906-14.234.233-20.107a163 163 0 0 1 9.448-21.138c7.047-13.177 16.169-24.998 24.494-37.356 4.631-6.878 8.2-14.337 11.574-21.93.719-1.62-.645-2.655-1.472-1.022zm35.814-87.797c-.945-.905-2.647-.836-3.266-2.044-.654-1.282-.503-3.361-.654-4.782a539 539 0 0 1-.546-5.354c-1.308-13.272-2.53-26.695-6.658-39.452-.42-1.299-2.425-.74-2.049.59 3.617 12.808 4.609 26.062 5.93 39.248.308 3.079.494 6.228 1.022 9.278.174 1 .421 2.001 1.105 2.785.442.507.957.806 1.568 1.074.381.165 1.187.303 1.464.572.983.953-.225 3.227-.567 4.262a71 71 0 0 0-1.373 4.683c-.767 3.001-1.521 6.163-1.603 9.274-.039 1.42 2.153 1.693 2.482.307.745-3.166 1.148-6.389 1.992-9.542.689-2.573 2.27-5.497 2.235-8.196-.013-.992-.355-2.001-1.082-2.698z"/><path fill="#65DFD5" d="M523.628 406.966s3.769-.421 6.428 1.438c2.66 1.858 4.956 4.851 4.956 4.851s1.078-4.916 3.707-6.077c2.63-1.161 4.878-2.317 4.878-2.317s6.67-11.011 11.894-15.971c5.228-4.96 25.149-11.21 25.149-11.21l-8.009 95.892-18.279 18.682-28.333-4.219-14.991-25.864 7.052-45.338z"/><path fill="#5AC1B9" d="M539.555 414.121c-.797-.935-2.127-.259-2.408.711a25 25 0 0 0-.918-1.438c-.975-1.399-2.864-1.256-1.963.238 1.287 2.131 2.114 5.397 2.933 7.758.771 2.235 1.135 4.548 1.633 6.852.216.988 1.542.624 1.629-.238.298-2.95-.265-6.125-1.356-9.07 1.966 3.543 3.439 7.195 3.963 11.383.646 5.176-.039 10.357-1.832 15.243-.464 1.269 1.65 2.148 2.209.901 4.496-10.084 3.474-23.746-3.881-32.34z"/><path fill="#5AC1B9" d="M538.516 432.951c-1.715 10.439-5.007 20.345-10.314 29.528-.939 1.624 1.59 3.062 2.53 1.442 5.445-9.382 9.101-19.86 10.335-30.65.165-1.438-2.313-1.758-2.551-.316z"/><path fill="#4E9187" d="m526.019 488.031 28.333 4.219 2.642-2.699 2.322-26.396-44.45 5.635z"/><path fill="#fff" d="M517.863 431.92s2.59-4.553 5.956-7.23c3.365-2.676 4.873-2.694 4.838-6.085-.039-3.396-2.72-7.516-2.72-7.516s.346-3.019-1.949-6.012-5.48-3.669-7.853-3.664c-2.374.004-16.603 9.59-16.603 9.59l-1.044 7.931 19.379 12.99z"/><path fill="#E5EAEC" d="M522.312 411.562c-.078-.325-.429-.386-.693-.273-1.205.532-1.551 1.966-2.028 3.118a29.7 29.7 0 0 0-1.563 5.038c-.789 3.591-1.114 7.281-1.599 10.92-.182 1.36 1.872 1.962 2.11.559.606-3.518.779-7.095 1.455-10.6a37 37 0 0 1 1.269-4.803c.438-1.304 1.382-2.573 1.049-3.955zm-14.966-1.408c-.39-.953-1.681-.572-1.521.437.122.763.291 1.525.334 2.3-.879.239-1.763.477-2.612.81-.442.174-.875.373-1.304.568-.584.268-3.205 1-3.79 1.265-.125.056 1.776-.343 1.685-.239-.013.018-.03.039-.026.061 0 .039.043.061.082.078.979.359 1.984.628 2.985.931 1.083.329 2.213.702 3.322.477.126.203.104.42.126.645q.037.402.112.797c.169.862 1.512.797 1.698-.017.559-2.435-.151-5.835-1.082-8.113z"/><path fill="#5B74CA" d="M498.072 415.542s9.772-3.123 15.919 6.996c6.146 10.118 7.381 19.912 5.172 24.837-2.21 4.929-25.946 16.923-25.946 16.923s-10.808 2.335-17.725-9.282 2.001-24.162 7.216-30.252 15.364-9.217 15.364-9.217z"/><path fill="#fff" d="M501.473 450.58s-1.95-5.635-1.586-7.147 1.486-2.278 1.486-2.278l-.78-2.257s-5.648.814-6.796-.68c-1.148-1.495-1.945-5.259-.823-6.402 1.118-1.144 3.374-1.923 3.374-1.923s-2.304-3.747-.814-5.649c1.49-1.901 13.164-3.539 13.935-2.036.771 1.499.814 5.649.814 5.649s3.019-.035 3.794 2.222c.776 2.257.797 3.764.429 4.899-.364 1.135-6.385 2.711-6.385 2.711l.403 2.257s1.889.355 2.283 1.863c.394 1.507.819 6.025.819 6.025l-10.153 2.75z"/><path fill="#E5EAEC" d="M514.502 434.974q.012-.034.017-.074c-.537-2.417-14.822-1.317-18.682.84-1.767.992-2.217 1.759-2.161 2.309.039.056.074.113.113.165 1.147 1.494 6.796.68 6.796.68l.745 2.157c.073-.031.143-.061.221-.091 3.746-1.607 6.198-1.378 6.926-1.256l-.36-2.023s6.017-1.573 6.385-2.712zm-4.544-8.2c-3.712-.68-9.018-.338-12.228 1.832-.541.364-.065 1.1.511.849 3.271-1.442 7.836-1.94 11.345-1.265.927.178 1.303-1.247.372-1.42z"/><path fill="#739BC8" d="M532.651 473.628s-26.678 9.343-38.399 6.831-7.303-12.743-2.798-14.679c0 0-3.895-11.275 13.016-17.114 16.91-5.844 27.176 1.966 27.237 7.246 0 0 5.67-.034 7.97 4.44 2.313 4.501.48 9.426-7.022 13.276z"/><path fill="#376B90" d="M529.567 454.223c-6.147-.975-12.661.762-18.539 2.426-3.058.866-6.034 1.91-8.997 3.062-2.854 1.113-5.969 2.101-8.563 3.755-.62.395-.208 1.361.511 1.179 2.928-.745 5.722-2.092 8.611-2.993 2.794-.871 5.635-1.62 8.473-2.339 6.012-1.525 11.942-2.716 18.166-2.357 1.546.091 1.897-2.49.342-2.737zm2.698 13.813c-2.369-1.256-5.085-.485-7.58-.047-3.448.602-6.857 1.373-10.253 2.213-3.261.81-6.497 1.702-9.733 2.621-2.534.719-5.826 1.273-7.766 3.192-.425.42-.494 1.308.017 1.702 2.257 1.746 5.293.165 7.723-.468.784-.203.628-1.524-.212-1.446-.715.069-1.429.121-2.148.182 1.416-.39 2.897-.65 4.076-.979 2.676-.745 5.349-1.495 8.035-2.205a134 134 0 0 1 8.104-1.889 71 71 0 0 1 4.661-.779c.519-.065 1.052-.152 1.581-.187-.035.741.645 1.512 1.546 1.291.754-.182 1.334-.459 1.975-.909.784-.546.914-1.802-.026-2.3z"/><path fill="#8BB2D8" d="M491.406 467.365c-1.217 1.707-2.079 3.721-1.438 5.826.459 1.512 2.69.853 2.343-.676-.32-1.416.654-2.72 1.313-3.885.827-1.464-1.287-2.582-2.222-1.265zm6.129-14.567c-2.226 1.156-3.34 4.08-2.928 6.471.143.832 1.472.771 1.637-.017.191-.914.407-1.837.823-2.673.429-.857 1.057-1.537 1.65-2.282.672-.841-.173-2.019-1.178-1.495z"/><path fill="#fff" d="M502.958 413.979s-7.519 2.343-11.266 4.647c-1.871 1.152-5.588 6.472-9.352 7.269-4.487.948-4.544-1.46-3.062-4.115 1.161-2.084 6.705-7.615 6.705-7.615s3.664-9.846 5.163-10.994 3.396-.039 4.141-.801 2.998-1.919 5.263-1.568 4.925 1.832 9.82 1.027c4.894-.806 9.802-.486 10.954 1.39s-16.148 6.588-16.148 6.588z"/><path fill="#E5EAEC" d="M494.113 404.293c-3.006 2.781-6.203 6.407-8.884 9.499-.645.745.234 1.339 1.118.654 3.283-2.547 6.254-5.839 8.949-8.996.688-.806-.395-1.885-1.183-1.157"/><path fill="#78C1BA" d="M588.866 509.602s-1.837 4.548.506 12.063c2.344 7.52 20.424 39.759 25.344 41.592 4.925 1.832 10.556-.494 12.835.992 2.278 1.485 8.754 7.073 20.406 3.551 11.656-3.521 34.167-14.328 42.67-30.26 8.503-15.936 4.643-23.815 6.493-27.228 1.849-3.413 10.053-12.18 10.343-20.103.291-7.922-2.391-46.365-3.625-55.781-1.235-9.417-2.85-19.206-9.729-27.428-6.878-8.221-17.525-16.026-18.301-17.906s-7.697-14.251-10.356-16.105c-2.66-1.858-24.534-1.62-24.534-1.62l-43.363 1.226s-31.209 9.014-36.446 12.843c-3.716 2.716 2.729 8.269-3.032 33.223-5.765 24.958-4.526 34.748-4.067 42.289.459 7.537-2.292 32.083-2.292 32.083l37.143 16.569z"/><path fill="#5AC1B9" d="M558.48 429.221c2.109-11.539 5.05-18.885 3.699-30.715-.195-1.702-2.764-1.763-2.725.03.26 12.116-2.906 19.657-4.916 31.495a124.6 124.6 0 0 0-1.75 17.894c-.143 5.882-.191 12.167.975 17.958.402 2.006 3.612 1.495 3.538-.519-.112-3.032-.554-6.056-.693-9.088a121 121 0 0 1-.06-9.118c.186-6.021.853-12.007 1.936-17.932z"/><path fill="#5FA39B" d="M588.866 509.602s-.165.411-.334 1.187l4.678-.667-12.747-27.774-26.575-13.853c-.55 10.128-2.161 24.539-2.161 24.539l37.143 16.568z" opacity="0.5"/><path fill="#292C2D" d="M632.562 353.077s7.732-7.186 10.054-22.221c2.322-15.039-12.059-32.097-18.418-40.773-6.359-8.68-.767-20.596-21.415-21.597-20.649-1.005-30.797 13.19-33.894 15.728-3.098 2.538-8.681 6.359-11.003 21.393-2.321 15.04.499 20.974 8.629 31.023 8.126 10.053 41.847 5.895 41.847 5.895l24.2 10.556z"/><path fill="#65DFD5" d="M566.51 336.626s-8.069-9.859.555-20.883 47.989-9.629 54.954-5.696 11.392 8.984 11.392 8.984l8.373-.455s11.435-20.527 7.632-35.423-25.079-28.147-26.544-28.493-15.247 4.903-18.17 4.206c-2.924-.698-14.186 2.339-19.233 7.129-5.05 4.791-14.454 11.089-20.964 15.529-6.51 4.444-11.834 17.616-10.682 23.07 1.152 5.453 1.889 6.172 1.919 9.087s-.693 12.978 10.764 22.945z"/><path fill="#5FA39B" d="M638.202 317.788c-3.522-4.912-8.005-9.283-13.597-11.743-6.342-2.79-13.484-3.353-20.298-4.054-7.324-.754-14.216-.416-21.289 1.719-6.052 1.828-12.159 4.159-17.153 8.131-2.604 2.07-4.934 4.574-5.627 7.922-.728 3.509.1 7.052.901 10.465.156.658 1.169.368 1.009-.29-.745-3.067-1.399-6.398-.641-9.53.776-3.201 3.162-5.457 5.748-7.311 4.73-3.392 10.166-5.545 15.702-7.234 6.389-1.949 12.618-2.556 19.271-1.98 6.268.546 12.843 1.088 18.855 3.059 6.424 2.105 11.375 6.562 15.347 11.907.784 1.057 2.564.026 1.78-1.066z"/><path fill="#fff" d="M586.89 466.624s-1.143-1.117-3.032-1.477c-1.888-.359-1.16-2.629-3.053-3.361s-20.831-7.693-25.76-10.283c-4.929-2.586-11.7-.628-16.217.177-4.518.806-25.21 5.553-26.704 7.078-1.49 1.525.043 4.15 1.944 5.259 0 0-5.258 1.944-4.093 4.946s6.064 2.573 9.828 2.157c0 0 2.664 2.235 6.805 1.434s18.622-4.539 19.003-4.167c.381.373-10.517 3.886-10.114 6.523.407 2.638 3.426 2.981 4.933 2.586 1.508-.394 16.192-2.438 18.851-.58 2.66 1.858 4.964 5.605 7.615 6.705 2.651 1.105 4.158.711 4.925 1.832.767 1.122 9.391-3.495 13.09-10.326s1.984-8.507 1.984-8.507z"/><path fill="#E5EAEC" d="M545.663 457.87c-3.361.996-6.688 2.097-10.127 2.798-3.123.633-6.285 1.062-9.4 1.75-2.404.533-5.531 1.031-7.333 2.885-1.468 1.512-1.637 3.665-.191 5.211.819.875 2.235-.442 1.547-1.39-2.66-3.648 10.547-5.467 12.375-5.809 4.708-.879 9.226-2.131 13.696-3.868 1.005-.39.464-1.876-.563-1.573z"/><path fill="#FDA77E" d="M508.957 479.918s4.535.706 5.648-.815 2.196-6.06 6.342-6.48 18.24 12.627 21.259 12.592 6.779-.827 9.798-.862 12.527 7.407 12.527 7.407l-37.438 30.802-29.377-1.036-6.237-18.79z"/><path fill="#1A1A1A" d="M543.635 489.33c-.81 2.187-1.75 3.963-3.422 5.635-1.646 1.646-3.539 3.019-5.297 4.536-.914.788.095 2.577 1.243 2.083 4.73-2.032 10.591-5.614 11.565-11.175.472-2.699-3.144-3.63-4.084-1.079z"/><path fill="#AC5649" d="M533.664 489.204c-.823 1.109-1.351 2.417-2.187 3.531-.819 1.091-1.729 2.213-2.703 3.166-.602.585.199 1.62.914 1.157 2.499-1.607 5.28-3.99 6.233-6.931.463-1.438-1.495-1.953-2.257-.923"/><path fill="#FDA77E" d="M500.545 482.533c7.745-.611 12.739-2.463 14.268-3.312 3.227 11.381 9.988 34.55 11.211 36.181s2.378 9.003 2.803 12.485c-6.2 0-16.664 4.552-28.282-.952-14.524-6.88-29.302-21.98-28.792-29.114s4.841-6.37 12.74-10.956c7.898-4.587 6.369-3.567 16.052-4.332"/><path fill="#AC5649" d="M507.14 506.275c-.498-.32-.627-1.006-.311-1.528a1.096 1.096 0 0 1 1.53-.283l11.304 7.524a1.07 1.07 0 0 1 .307 1.5 1.067 1.067 0 0 1-1.498.307z"/><path fill="#D87856" d="M501.984 482.169c-1.027 1.962-1.321 4.275-1.092 6.463.152 1.429 2.24 1.46 2.27-.026.039-1.949.585-3.63 1.282-5.432.55-1.421-1.767-2.335-2.46-1.005"/><path fill="#74FEF3" d="M499.943 552.813s1.945 5.259 5.727 6.35c3.785 1.092 9.035-1.607 15.476.962s19.683 6.198 28.727 5.722c9.044-.477 16.633 3.591 29.398-1.828s20.848-25.119 21.125-34.553c.273-9.434-10.482-27.419-16.182-31.508-5.701-4.089-14.407-6.631-14.407-6.631s-1.17-3.383-3.054-3.361-10.092 8.407-16.092 11.491-23.572 17.608-28.817 20.679c-5.246 3.075-14.234 9.209-14.559 14.112-.325 4.908-2.135 11.717-3.621 13.995-1.486 2.279-4.492 3.067-3.721 4.566z"/><path fill="#5AC1B9" d="M584.179 514.778c-6.008-6.978-15.208-11.479-24.261-12.874.515-.446 1.022-.901 1.529-1.351.139.082.308.13.52.126 4.375-.074 8.455.177 12.635 1.602.944.321 1.273-1.117.39-1.468-3.539-1.412-7.529-2.343-11.397-2.188a220 220 0 0 0 6.117-5.778c.961-.948-.538-2.413-1.499-1.464-9.261 9.109-19.328 17.374-30.109 24.625-5.05 3.396-10.387 6.337-15.442 9.72-4.284 2.863-8.451 6.289-10.846 10.954-3.067 5.969-2.941 14.065-9.62 17.535-.728.376-.195 1.667.584 1.342 5.112-2.127 6.94-7.632 8.599-12.475 1.074-3.131 2.282-6.103 4.387-8.697 1.794-2.209 3.99-4.072 6.303-5.718a80 80 0 0 1 2.768-1.875c.021.311.186.615.558.81 4.999 2.629 9.56 5.882 14.091 9.234 2.222 1.642 4.444 3.284 6.727 4.834 1.772 1.209 3.716 2.954 5.912 1.889.395-.191.542-.819.295-1.174-2.096-3.006-4.583-5.536-7.697-7.485-.611-.381-1.356.568-.771 1.022 2.231 1.729 4.271 3.691 5.982 5.93-.936-.407-1.859-1.23-2.491-1.672a133 133 0 0 1-2.954-2.139c-1.954-1.452-3.885-2.937-5.835-4.397-3.859-2.893-7.805-5.731-12.102-7.948 3.535-2.222 7.173-4.293 10.66-6.58a205 205 0 0 0 3.842-2.586q.084.043.182.074c3.526 1.065 6.493 4.639 8.706 7.424.399.502 1.23-.165.88-.693-1.239-1.884-2.699-3.595-4.319-5.168-1.018-.987-2.244-2.265-3.63-2.906a213 213 0 0 0 10.153-7.611 203 203 0 0 0 4.856-3.998c.13.126.308.217.55.247 8.603 1.126 15.936 4.665 22.511 9.993-2.408-.68-4.773-1.564-7.116-2.387-.784-.277-1.088.953-.33 1.239a100 100 0 0 0 10.006 3.232c.728.195 1.122-.68.68-1.196z"/><path fill="#5FA39B" d="M565.016 557.673c-3.214-.719-6.636-.875-9.906-1.195-3.34-.33-6.688-.607-10.036-.841a310 310 0 0 0-10.058-.554c-3.214-.121-6.606-.511-9.768.212-.411.095-.762.65-.585 1.057.507 1.174 1.348 1.707 2.539 2.122 2.101.737 4.301 1.322 6.471 1.807.914.203 1.204-1.057.364-1.378a63 63 0 0 0-4.102-1.381c-.628-.191-1.811-.377-2.673-.784 2.803-.239 5.757.16 8.521.311 3.231.182 6.458.386 9.685.641q4.84.384 9.668.897c3.197.338 6.432.957 9.638 1.07 1.13.039 1.355-1.733.246-1.984zm-3.145-34.418c-4.851-4.847-11.158-8.529-17.997-9.608-1.287-.203-1.841 1.733-.524 1.993 6.614 1.299 12.596 3.937 17.512 8.646.671.641 1.663-.373 1.009-1.031m-23.723 21.285c-7.823-2.205-16.101-4.834-22.286-10.322-1.07-.949-2.634.654-1.551 1.585 6.727 5.804 15.091 7.914 23.473 10.123.892.234 1.252-1.135.364-1.386m-13.138.29c-2.231-.78-4.462-1.624-6.489-2.859-1.954-1.191-3.132-2.846-4.791-4.314-.61-.541-1.828-.004-1.481.884 1.763 4.518 8.135 6.666 12.354 7.835 1.004.278 1.368-1.212.407-1.546" opacity="0.5"/><path fill="#B0C1D3" d="M417.31 654.042s-1.958-6.766-.853-9.045c1.109-2.274 4.184-2.235 5.284-2.473 1.101-.238 14.598-.126 15.984 2.183s4.18 16.612 3.071 18.509-12.804 2.023-12.804 2.023l-10.682-11.202z"/><path fill="#93AABC" d="M437.517 662.016a406 406 0 0 0-1.516-9.378c-.364-2.101-.424-4.99-2.209-6.462-1.759-1.452-4.756-1.257-6.883-1.265-2.954-.009-6.029.143-8.88.957-.693.199-.476 1.131.174 1.187 2.421.221 4.847-.069 7.272-.113 1.958-.034 5.692-.515 7.121 1.027 1.361 1.468 1.343 4.773 1.659 6.683a303 303 0 0 1 1.17 7.672 1.06 1.06 0 0 0 2.088-.308z"/><path fill="#1A1A1A" d="M414.309 651.369c.74-.429 1.646-.433 2.499-.425.693.009 1.464.269 2.153.403a1 1 0 0 0 .385.022c.139-.026.256-.113.368-.195.685-.511 1.313-1.092 2.01-1.585 1.282-.906 2.963-1.46 4.436-.646.879.485 1.403 1.443 1.702 2.4.299.962.416 1.971.736 2.924.122.355.273.71.537.974.273.273.637.429.988.585q1.034.467 2.01 1.044c.849.502 1.408 1.096 1.914 1.936.473.784.195 1.72-.238 2.465-.333.576-.797 1.07-1.295 1.507-.741.65-1.902 1.027-1.789 2.218.03.338.13.663.182.996.1.685-.004 1.217-.399 1.776a7.3 7.3 0 0 1-3.149 2.525c-.771.325-1.693.503-2.421.091-.472-.264-.793-.74-1.031-1.225-.948-1.937-.944-4.414-2.521-5.887-.58-.541-1.321-.884-1.927-1.399-.52-.442-.927-.992-1.36-1.52a17.3 17.3 0 0 0-2.98-2.842c-.897-.671-2.396-1.616-2.47-2.863-.064-1.152.672-2.707 1.668-3.283z"/><path fill="#333" d="M412.593 656.316c.342 1.117 1.313 1.945 1.698 3.045.42 1.195.091 2.503-.013 3.764s.143 2.746 1.243 3.366c.516.29 1.135.337 1.724.342.983.008 1.967-.065 2.933-.23.346-.056.719-.125 1.035.03.164.078.299.213.42.347.671.754 1.113 1.681 1.75 2.465s1.581 1.442 2.582 1.312c.979-.13 1.724-.983 2.105-1.897s.506-1.91.814-2.85c.165-.503.394-1.001.793-1.352.338-.299.766-.463 1.156-.688.572-.338 1.066-.832 1.334-1.439.468-1.043.213-2.321-.467-3.24-.685-.918-1.742-1.503-2.846-1.806-.672-.182-1.395-.281-1.958-.693-.884-.641-1.122-1.828-1.334-2.898s-.563-2.261-1.529-2.763c-1.057-.546-2.348-.005-3.34.654-.992.663-1.992 1.477-3.184 1.503-1.108.026-2.85-1.118-3.85-.403-.958.68-1.391 2.361-1.062 3.426z"/><path fill="#1A1A1A" d="M423.518 660.409a5 5 0 0 0-.04-.351c-.207-1.208-1.204-2.586-2.551-2.568-.749.008-1.442.472-1.797 1.121-.364.672-.282 1.356-.174 2.075a1 1 0 0 0 .109.308c.143.481.394.922.779 1.278 1.01.935 2.625.966 3.609-.018.493-.494.502-1.321.065-1.845"/></g><path fill="#503DA0" d="M579.588 746.184h33.327V712.52h-33.327z"/><path fill="#fff" d="M577.953 747.833v-36.955h36.59v36.955zm3.257-33.664v30.373h30.076v-30.373z"/><path fill="#503DA0" d="M291.138 746.191h33.326v-33.665h-33.326z"/><path fill="#fff" d="M289.51 747.833v-36.955h36.59v36.955zm3.256-33.664v30.373h30.07v-30.373z"/><path fill="#503DA0" d="M291.138 36.156h33.326V2.492h-33.326z"/><path fill="#fff" d="M289.51 37.799V.844h36.59v36.955zm3.256-33.664v30.373h30.07V4.135z"/><path fill="#503DA0" d="M2.701 746.184h33.326V712.52H2.701z"/><path fill="#fff" d="M1.066 747.833v-36.955h36.59v36.955zm3.257-33.664v30.373h30.07v-30.373z"/><path fill="#503DA0" d="M579.582 390.774h33.326v-33.665h-33.326z"/><path fill="#fff" d="M577.953 392.423v-36.955h36.59v36.955zm3.257-33.664v30.373h30.076v-30.373z"/><path fill="#503DA0" d="M2.694 390.774h33.327V357.11H2.694z"/><path fill="#fff" d="M1.066 392.423v-36.955h36.59v36.955zm3.257-33.664v30.373h30.07v-30.373z"/><path fill="#503DA0" d="M579.588 36.15h33.327V2.485h-33.327z"/><path fill="#fff" d="M577.953 37.799V.844h36.59v36.955zm3.264-33.664v30.373h30.069V4.135z"/><path fill="#503DA0" d="M2.701 36.15h33.326V2.485H2.701z"/><path fill="#fff" d="M1.066 37.799V.844h36.59v36.955zM4.323 4.135v30.373h30.07V4.135z"/><defs><clipPath id="a"><path fill="#fff" d="M-65.644-21.273h773.13v750.631h-773.13z"/></clipPath></defs></svg>