<svg xmlns="http://www.w3.org/2000/svg" width="616" height="749" fill="none" viewBox="0 0 616 749"><path fill="#06D0A0" d="M19.06 729.259h578.395V18.824H19.061z"/><path fill="#fff" d="M56.002 690.407h504.511V57.675H56.003z"/><mask id="a" width="505" height="634" x="56" y="57" maskUnits="userSpaceOnUse" style="mask-type:alpha"><path fill="#fff" d="M56.002 690.407h504.511V57.675H56.003z"/></mask><g mask="url(#a)"><path fill="#E7EFFB" d="M-588.824 36.247H700.829v773.986H-588.824z"/><path fill="#A8C2F0" d="M-588.824 591.961H700.829v218.272H-588.824z"/><path fill="#FA8C75" d="M274.893 96.74h81.686c2.532 0 4.605 2.075 4.605 4.608v83.669c0 2.545-2.075 4.621-4.605 4.621h-81.686a4.63 4.63 0 0 1-4.621-4.621v-83.669c0-2.533 2.076-4.609 4.621-4.609"/><path fill="#F7C86C" d="M268.003 96.74h81.687c2.532 0 4.62 2.075 4.62 4.608v83.669c0 2.545-2.088 4.621-4.62 4.621h-81.687c-2.532 0-4.62-2.076-4.62-4.621v-83.669c0-2.533 2.088-4.609 4.62-4.609"/><path fill="#fff" d="M271.435 100.642h74.825a4.227 4.227 0 0 1 4.219 4.219v76.64c0 2.324-1.895 4.235-4.219 4.235h-74.825c-2.323 0-4.233-1.908-4.233-4.235v-76.64c0-2.324 1.908-4.219 4.233-4.219"/><path fill="#C6D9F7" d="M308.481 125.672c-9.365 0-16.959 7.595-16.959 16.95 0 9.354 7.594 16.962 16.959 16.962s16.945-7.595 16.945-16.962-7.58-16.95-16.945-16.95"/><path fill="#8CABE2" d="M338.264 141.487h4.358c.678 0 1.147.456 1.147 1.134 0 .692-.469 1.148-1.147 1.148h-4.358c-.456 0-1.147-.456-1.147-1.148 0-.678.691-1.134 1.147-1.134M309.63 172.41v4.359c0 .456-.469 1.134-1.147 1.134-.457 0-1.148-.678-1.148-1.134v-4.359c0-.691.691-1.148 1.148-1.148.678 0 1.147.457 1.147 1.148m0-63.688v4.124c0 .678-.469 1.147-1.147 1.147-.457 0-1.148-.469-1.148-1.147v-4.124c0-.691.691-1.383 1.148-1.383.678 0 1.147.692 1.147 1.383m-14.898 60.258-2.06 3.667c-.457.678-1.148.913-1.604.457-.678-.235-.913-.926-.457-1.605l2.061-3.667c.234-.456.912-.691 1.603-.456.457.456.691 1.147.457 1.604m31.844-55.221-2.06 3.667c-.457.457-1.148.691-1.604.457-.678-.457-.678-1.148-.456-1.605l2.06-3.667c.456-.456 1.147-.678 1.604-.456.691.234.691 1.147.456 1.604m-43.298 44.899-3.666 2.061c-.457.235-1.148 0-1.604-.457-.235-.678 0-1.369.456-1.604l3.667-2.061c.691-.456 1.382-.221 1.604.47.456.456.234 1.135-.457 1.591m55.443-32.073-3.667 2.06c-.678.457-1.369.235-1.604-.222-.456-.691-.222-1.382.235-1.604l3.666-2.298c.691-.222 1.37 0 1.604.457.457.691.222 1.382-.234 1.604zm-5.036 32.073 3.666 2.061c.691.235 1.37 0 1.604-.457.457-.678.222-1.369-.234-1.604l-3.667-2.061c-.678-.456-1.369-.221-1.604.47-.456.456-.222 1.135.235 1.591m-55.223-32.073 3.666 2.06c.691.457 1.382.235 1.604-.222.456-.691.235-1.382-.456-1.604l-3.667-2.298c-.456-.222-1.147 0-1.604.457-.234.691 0 1.382.457 1.604zm43.988 42.395 2.061 3.667c.456.678 1.147.913 1.603.457.691-.235.691-.926.457-1.605l-2.06-3.667c-.457-.456-1.148-.691-1.604-.456-.678.456-.678 1.147-.457 1.604m-31.844-55.221 2.06 3.667c.235.457.913.691 1.604.457.457-.457.691-1.148.457-1.605l-2.061-3.667c-.456-.456-1.147-.678-1.603-.456-.679.234-.913 1.147-.457 1.604m-16.033 27.728h4.123c.678 0 1.148.456 1.148 1.134 0 .692-.47 1.148-1.148 1.148h-4.123c-.691 0-1.147-.456-1.147-1.148 0-.678.456-1.134 1.147-1.134"/><path fill="#6F90C5" d="m330.018 158.437-18.799-16.95.472-32.087h-5.271l-.456 33.222v1.147l.913.913 19.697 17.644z"/><path fill="#6F90C5" d="M308.481 137.822a4.807 4.807 0 0 0-4.814 4.802 4.82 4.82 0 0 0 4.814 4.815 4.82 4.82 0 0 0 4.814-4.815 4.81 4.81 0 0 0-4.814-4.802"/><path fill="#FEFEFE" d="M308.48 140.795a1.84 1.84 0 0 0-1.841 1.826 1.85 1.85 0 0 0 1.841 1.842 1.83 1.83 0 0 0 1.826-1.842 1.817 1.817 0 0 0-1.826-1.826"/><path fill="#9A5931" d="M670.094 92.076H454.517c-8.645 0-15.713 7.07-15.713 15.717v487.529h247.005V107.796c0-8.648-7.067-15.717-15.713-15.717z"/><path fill="#FAB886" d="M657.186 92.076H441.622c-8.645 0-15.713 7.07-15.713 15.717v487.529h246.992V107.796c0-8.648-7.067-15.717-15.713-15.717z"/><path fill="#FFEAE0" d="M648.401 117.648H450.42v477.676h197.981z"/><path fill="#9A5931" d="M461.446 117.648H450.42v477.676h11.026z"/><path fill="#EAAD96" d="M336.223 560.595h12.921v35.034h-9.435zm-29.949 0h12.908v35.034h-9.434z"/><path fill="#FAC9B6" d="M300.728 560.595h12.921v35.034h-9.435zm30.171 0h12.905v35.034h-9.419z"/><path fill="#EAAD96" d="M233.332 560.595h-12.905v35.034h9.419z"/><path fill="#FAC9B6" d="M228.007 560.595h-13.101v35.034h9.615z"/><path fill="#EAAD96" d="M262.216 560.595h-12.905v35.034h9.641z"/><path fill="#FAC9B6" d="M256.904 560.595h-12.921v35.034h9.435z"/><path fill="#FAB886" d="M322.501 581.475h37.295V336.484h-37.295z"/><path fill="#fff" d="M208.903 581.475h113.598V336.484H208.903z"/><path fill="#FAB886" d="M212.237 577.434h104.619v-44.747H212.237z"/><path fill="#FFEAE0" d="M214.589 575.662h103.25v-43.639h-103.25z"/><path fill="#CB9171" d="M282.578 532.023H242.49v8.524a3.025 3.025 0 0 0 3.017 3.018h34.057a3.025 3.025 0 0 0 3.017-3.018v-8.524z"/><path fill="#CB9171" d="M214.589 532.023h103.25v3.291h-103.25z"/><path fill="#FAB886" d="M212.237 529.504h104.619v-44.748H212.237z"/><path fill="#FFEAE0" d="M214.589 527.732h103.25v-43.638h-103.25z"/><path fill="#CB9171" d="M282.578 484.094H242.49v8.524a3.024 3.024 0 0 0 3.017 3.017h34.057a3.024 3.024 0 0 0 3.017-3.017v-8.524z"/><path fill="#CB9171" d="M214.589 484.094h103.25v3.293h-103.25z"/><path fill="#FAB886" d="M212.237 481.574h104.619v-44.747H212.237z"/><path fill="#FFEAE0" d="M214.589 479.804h103.25v-43.64h-103.25z"/><path fill="#CB9171" d="M282.578 436.164H242.49v8.523a3.025 3.025 0 0 0 3.017 3.018h34.057a3.025 3.025 0 0 0 3.017-3.018v-8.523z"/><path fill="#CB9171" d="M214.589 436.164h103.25v3.293h-103.25z"/><path fill="#FAB886" d="M212.237 433.644h104.619v-44.747H212.237z"/><path fill="#FFEAE0" d="M214.589 431.875h103.25v-43.641h-103.25z"/><path fill="#CB9171" d="M282.578 388.234H242.49v8.524a3.024 3.024 0 0 0 3.017 3.017h34.057a3.024 3.024 0 0 0 3.017-3.017v-8.524z"/><path fill="#CB9171" d="M214.589 388.234h103.25v3.293h-103.25z"/><path fill="#FAB886" d="M212.237 385.714h104.619v-44.747H212.237z"/><path fill="#FFEAE0" d="M214.589 383.945h103.25v-43.641h-103.25z"/><path fill="#CB9171" d="M282.578 340.304H242.49v8.524a3.025 3.025 0 0 0 3.017 3.018h34.057a3.025 3.025 0 0 0 3.017-3.018v-8.524z"/><path fill="#CB9171" d="M214.589 340.304h103.25v3.294h-103.25z"/><path fill="#8BAA45" d="M279.507 290.05c-.9-1.052-1.841-14.252-18.219-13.2 0 0-1.535 16.328 16.004 20.285 4.301.97 2.213-7.085 2.213-7.085z"/><path fill="#484F80" d="M288.638 299.196c.773-1.037 12.546-4.885 7.926-19.578 0 0-15.216 2.311-14.87 19.137.082 4.149 6.944.443 6.944.443z"/><path fill="#317573" d="M284.86 301.383c0-1.55 8.756-13.587-6.101-24.587 0 0-13.155 12.953-.954 29.085 3.002 3.956 7.055-4.498 7.055-4.498"/><path fill="#BEBF3D" d="M266.146 309.311c-12.547-8.426-10.611-23.217-10.611-23.217 21.386-.415 21.871 16.769 22.964 18.195 0 0 .567 2.587.457 5.022z"/><path fill="#BEBF3D" d="M291.154 309.311h-14.109c3.819-19.232 21.842-18.443 21.842-18.443 1.189 10.876-3.473 15.913-7.733 18.443"/><path fill="#fff" d="M259.671 304.87a23.17 23.17 0 0 0-4.621 13.932 23.23 23.23 0 0 0 8.12 17.682h30.405c4.967-4.276 8.12-10.613 8.12-17.682a23.16 23.16 0 0 0-4.621-13.932h-37.406z"/><path fill="#657799" d="m173.992 252.26-3.148-.219c1.595-23.332-.187-40.575-4.766-46.135-1.261-1.531-5.775-2.614-8.321-2.939l.39-3.134c.797.097 7.898 1.066 10.363 4.054 7.068 8.564 6.467 33.972 5.482 48.357zm-62.869-10.03-3.034-.862c.017-.074 1.985-7.425-.707-22.421-1.172-6.529-3.034-10.835-4.262-13.685-1.286-2.979-2.213-5.128-.773-6.952 2.082-2.63 7.76-3.802 8.402-3.932l.602 3.102c-1.976.39-5.507 1.489-6.531 2.792-.269.334.545 2.222 1.203 3.737 1.286 2.987 3.238 7.498 4.474 14.385 2.847 15.834.732 23.527.643 23.845z"/><path fill="#EEDEDE" d="m166.403 159.087-.821 1.701c1.391.676 2.887 1.409 3.969 1.954l-.04.969c.634.024 1.122.041 1.496.041.952 0 1.22-.122 1.44-.562l.049-.733q-.163-.488-6.101-3.37z"/><path fill="#CDDFE9" d="M136.095 408.99c-11.29-1.254-18.098 64.908-18.098 64.908s34.041 1.074 34.041 0-4.661-63.655-15.943-64.908"/><path fill="#DCB36C" d="M93.936 384.111c.025.09 2.522 9.273-2.53 12.179-3.888 2.239-10.265 2.638-13.616 2.687l-.049 1.823c3.498-.032 10.266-.447 14.569-2.93 6.27-3.615 3.497-13.815 3.375-14.247z"/><path fill="#364656" d="M75.813 378.559s2.367 259.534 3.49 261.317c1.122 1.783 43.55 3.028 43.55 3.028s10.745-197.101 12.169-196.14c1.423.961 5.466 194.105 7.996 195.847 2.537 1.742 40.011-4.803 42.899-6.301s4.514-257.238 1.391-258.76c-3.124-1.523-111.503 1.017-111.503 1.017z"/><path fill="#DCB36C" d="M180.418 396.583c-4.742-1.783-2.415-11.527-2.391-11.625l-1.765-.432c-.114.464-2.725 11.414 3.514 13.759 2.7 1.009 6.572 1.286 9.948 1.286 1.285 0 2.497-.041 3.546-.09 0-.618 0-1.229-.008-1.823-3.668.187-9.419.219-12.844-1.067z"/><path fill="#FDA77E" d="M129.125 126.898c-4.198 2.385-8.883 24.748-8.883 24.748l-4.653 45.63-3.847 13.433 4.954 15.02 37.181-1.099v-25.636s1.236-.415 3.026-2.206 7.906-7.433 8.679-24.537c.602-13.384 3.88-35.348-.708-41.348-1.692-2.214-31.56-6.391-35.758-4.005z"/><path fill="#EE7353" d="M152.603 174.958s.149 1.007-3.555.297c-3.703-.713-5.808.443-5.808.443s-.679 3.404 2.014 3.788c2.699.384 5.84.149 7.351-4.53z"/><path fill="#AC5649" d="M152.088 161.692a.483.483 0 0 0-.818-.508c-.006.009-2.573 4.049-1.223 7.534a56 56 0 0 1 1.948 6.177c-.221.632-1.337 3.529-3.54 4.064-2.553.623-4.62-.549-4.626-.549a.483.483 0 0 0-.652.201.487.487 0 0 0 .205.652c.003.003 2.373 1.341 5.298.632 3.01-.733 4.269-4.831 4.273-4.844l.009-.257c-.003-.009-.748-3.128-2.02-6.424-1.17-3.026 1.142-6.669 1.145-6.679z"/><path fill="#E49A77" d="M129.238 196.796c-8.451-6.024-9.395-25.367-9.395-25.53l-1.578-.261-.219 2.125-.212 2.044.391-.049c.227 3.932-.513 20.1 6.385 27.101 3.717 3.769 11.306 6.684 15.975 6.684 5.06 0 10.266-2.654 13.292-4.462v-5.462s.764-.261 1.952-1.229c-1.399.431-17.765 5.332-26.599-.961z"/><path fill="#5EA796" d="M158.472 203.105s.895-2.833.578-3.72c-.366-1.034-2.513-2.288-2.513-2.288l-2.075 1.107s-10.607 17.927-16.634 17.927-21.409-27.134-21.409-27.134c.016-.163-3.668 1.677-5.108 2.996s-2.416 6.765-2.416 6.765-11.827 2.841-12.494 4.754c-.553 1.588-13.389 131.599-3.034 172.597.968 3.842 34.123 4.591 43.485 4.282 15.195-.497 40.215-4.062 40.215-6.497 0-42.74-8.272-167.508-9.175-168.094-1.082-.7-9.411-2.695-9.411-2.695z"/><path fill="#503DA0" d="M141.143 229.096q.003.002-.001.003l-4.702.352c-1.003.075-1.818.803-1.973 1.797-1.48 9.428-8.762 55.996-9.93 66.715-1.294 11.943.553 58.908 1.382 61.172.205.564 1.022 1.397 2.133 2.331 5.415 4.55 13.318 4.691 19.21.779 2.265-1.504 4.047-2.927 4.134-3.729.244-2.263-.301-59.234-1.172-67.904-.869-8.666-9.063-61.377-9.085-61.521z"/><path fill="#687A98" d="M148.02 226.714c-1.35-.26-5.116-5.821-8.085-11.177-.74.374-1.448.594-2.107.594-.309 0-.651-.073-1.009-.212-2.554 3.892-7.638 10.6-11.103 10.779-3.44.171-8.768-7.376-11.322-12.179l-1.668.887c.724 1.368 7.182 13.189 12.876 13.189h.212c4.726-.244 10.46-8.345 12.673-11.764 2.139 3.834 6.572 11.243 9.167 11.747.187.033.374.057.569.057 3.075 0 6.914-4.363 7.695-5.283l-1.448-1.221c-1.756 2.084-4.929 4.893-6.458 4.591z"/><path fill="#364656" d="M99.02 386.936c-.691.025-1.106.049-1.196.074l1.196 9.174h71.288s-1.782-9.826-1.782-10.086c0-.236-60.16.496-69.506.838"/><path fill="#243242" d="M138.031 159.127c-.618-.032-1.423 1.767-1.797 4.014-.375 2.247-.171 4.095.447 4.127s1.424-1.766 1.798-4.013.171-4.095-.448-4.128"/><path fill="#836F5E" d="M135.973 424.776c-.545.358-.626.415-1.212 13.497-.276 6.236-.553 15.151-.553 15.216.374-4.396.651-6.839.814-6.733.227.155.52 5.211.862 13.596.317-8.459 1.139-31.319 1.431-34.062 1.204-.31 4.515-1.01 7.533-1.612l-.374-1.856c-7.996 1.604-8.33 1.823-8.517 1.945z"/><path fill="#243242" d="M160.929 160.389c-.618-.032-1.423 1.767-1.798 4.014-.374 2.246-.17 4.095.448 4.127s1.423-1.767 1.797-4.013c.375-2.247.171-4.095-.447-4.128m-20.181-7.18q-2.902-.07-5.791.139c-1.619.122-1.635 2.67 0 2.54a55 55 0 0 1 5.791-.139c1.635.041 1.635-2.499 0-2.54"/><path fill="#fff" d="M109.033 198.147s-38.28 10.421-46.844 20.727c-8.566 10.307-19.156 93.174-17.717 97.773 1.432 4.6 24.435 9.908 24.435 9.908s-6.62 147.123-3.587 149.915c1.505 1.384 28.624 3.346 63.91 3.216 0 0 3.555-163.609-.358-217.974-1.708-23.764-19.831-63.573-19.831-63.573z"/><path fill="#D0E2EC" d="M128.889 304.379c.065 1.897-.106 3.419-.586 4.298-.952 1.75-12.917 6.204-33.952 11.332-10.688 2.605-20.685 4.657-28.274 5.854 1.724.439 2.814.692 2.814.692s-.008.236-.032.675c7.98-1.359 17.529-3.411 25.915-5.454 7.703-1.881 32.984-8.304 35.115-12.228.236-.439.415-.985.545-1.595-.024-1.49-.04-2.972-.065-4.429-.496.277-1 .562-1.488.863z"/><path fill="#5EA796" d="M131.5 279.345c-3.514-.903-12.226 2.72-12.226 2.72-9.785 3.85-5.344 22.607-3.058 24.479 2.285 1.873 17.838-2.385 18.92-5.202 1.082-2.816-.122-21.093-3.636-21.997"/><path fill="#fff" d="M199.379 222.643c-7.736-13.954-40.622-19.652-40.622-19.652s-9.972 26.93-11.388 40.371c-6.198 58.851-4.156 236.283-4.156 236.283 32.601-.204 56.418-.757 58.175-2.467 2.058-1.994-4.23-145.389-4.23-145.389s18.229 3.313 26.29-2.589c5.376-3.932 5.873-15.313 5.425-20.833-.854-10.632-21.759-71.77-29.494-85.724"/><path fill="#243242" d="M163.182 153.861a37 37 0 0 0-5.848-.228c-1.627.065-1.635 2.605 0 2.54 1.96-.073 3.904 0 5.848.228 1.619.195 1.611-2.353 0-2.54"/><path fill="#D0E2EC" d="M161.905 234.489c-.708.301-3.425.423-5.076.496-3.904.171-4.864.285-5.319 1.018a1.1 1.1 0 0 0-.082 1.018c.309.716 1.228 1.156 3.791 2.214 1.212.505 3.4 1.417 3.92 1.938-.626 3.15-10.102 33.386-14.324 42.373l-.122 3.232.285.244c3.392-3.915 16.081-43.961 16.081-45.963 0-1.376-1.846-2.207-5.108-3.566-.374-.155-.797-.334-1.204-.505.708-.049 1.497-.081 2.172-.114 3.245-.138 5.279-.26 6.157-.871.415-.293 1.285-.895 4.344-16.835.732-3.827 1.44-7.775 1.936-10.844.13-.831.244-1.531.333-2.133a87 87 0 0 0-1.805-.578c-1.025 7.156-4.832 26.792-5.979 28.876"/><path fill="#AC5649" d="M134.542 178.177c-.09-.089-.147-.146-.236-.203l-.594.895-.512.537.049.057c1.358 1.384 5.864 5.219 13.852 5.219 1.708 0 3.579-.179 5.612-.594l-.366-1.783c-10.623 2.165-16.317-2.614-17.813-4.128z"/><path fill="#D0E2EC" d="M187.438 310.029c.106-1.815 2.14-5.495 2.912-6.765l-1.61-.985c-.309.505-3.034 5.023-3.189 7.644-.122 2.166 5.344 12.635 5.962 13.824 2.66 5.055 4.458 8.002 5.686 9.728-.024-1.091-.04-1.677-.04-1.677s.829.13 1.325.212c-3.774-5.919-11.054-19.938-11.046-21.973z"/><path fill="#AC5649" d="m139.634 186.164-1.09 1.457c.081.065 1.635 1.205 4.319 1.205.716 0 1.505-.082 2.367-.285l-.415-1.767c-3.254.765-5.1-.553-5.181-.61"/><path fill="#243242" d="M130.694 116.673c-21.466 4.583-15.601 39.736-15.601 39.736l4.523 3.337 3.278 4.136h2.814s.952-13.522 1.529-14.1c.57-.57 1.92-2.035 2.351-2.817.431-.79 3.254-11.194 3.896-11.552.643-.358 9.534 3.533 18.253 3.891 9.948.407 13.999-2.621 14.56-2.588.562.024.936 13.204.57 17.82 0 0 1.936-11.186 1.293-19.237-.862-10.819-18.83-22.607-37.458-18.635z"/><path fill="#D0E2EC" d="m199.379 292.892 1.131 1.514c2.017-1.498 4.384-2.735 4.945-2.613 1.188.505 14.992 10.477 16.049 11.593l1.423-1.238c-.756-.863-15.096-11.405-16.748-12.097-1.659-.692-4.97 1.481-6.8 2.841m-71.833-14.735c-1.797-.603-11.656 1.791-27.688 5.796-8.899 2.223-18.912 4.73-21.239 4.868-.61-3.427-.195-24.39.228-37.415l-1.814-.057c0 .089-.309 9.378-.455 18.699-.31 19.221.284 19.815.724 20.247.78.79 2.708.497 22.995-4.575 9.663-2.418 22.296-5.65 25.679-5.862.846-.26 2.034-.472 2.888-.578-.659-.798-1.098-1.05-1.318-1.123"/><path fill="#AEBACE" d="M171.617 267.964a6.665 6.665 0 0 0 6.662-6.668 6.665 6.665 0 0 0-6.662-6.667 6.665 6.665 0 0 0-6.662 6.667 6.665 6.665 0 0 0 6.662 6.668"/><path fill="#D0E2EC" d="m77.725 288.773-18.08 4.171.407 1.769 18.08-4.171z"/><path fill="#FDA77E" d="M150.9 261.231c-3.693 1.336-11.998 14.988-14.463 17.862s-13.747 5.853-13.747 5.853c-3.831 2.442-2.147 13.718 0 14.833 2.148 1.115 15.667-3.061 18.937-6.651 3.269-3.582 6.19-7.343 6.19-7.343l2.505 1.953s-3.758 1.808-1.529 4.315 7.166.139 9.256-1.954c2.091-2.092 1.879-3.972 1.879-3.972s2.856-.139 4.661-2.573c1.806-2.434 1.18-4.453 1.18-4.453s3.131-1.954 2.432-5.08c-.7-3.134-11.868-6.724-11.559-7.547s21.849 4.681 21.157 1.156c-.895-4.559-23.207-7.726-26.899-6.39z"/><path fill="#5EA796" d="M199.151 289.13s-13.738 9.94-13.128 11.373c0 0 4.799 11.748 7.573 11.878 1.39.065 7.166.016 10.948-2.988s5.588-8.955 5.084-10.787c-1.009-3.663-10.477-9.476-10.477-9.476"/><path fill="#954D4D" d="M160.848 285.508c-.375-1.579-5.467-5.023-8.468-6.936l-.976 1.531c3.408 2.173 7.304 5.023 7.687 5.853.138.562.357 1.148.577 1.677.317-.903.252-1.506.252-1.506s.423-.024 1.05-.187a5 5 0 0 1-.122-.432m-4.482-14.523-.236 1.172-.195.594c.789.261 8.02 3.452 9.923 6.993a3 3 0 0 0-.097-.651s.577-.358 1.179-1.017c-2.847-3.932-10.127-6.994-10.582-7.083z"/><path fill="#364656" d="M175.391 254.068c-.772 1.392-34.22 47.177-34.7 49.179-.089.383 1.066 2.719 1.066 2.719l47.69.937 36.889-50.784-.92-1.954-50.016-.105z"/><path fill="#954D4D" d="m160.799 266.898-.13-.236-6.467-2.467q-.344.572-.7 1.131l4.865 2.288q-.185-.096-.358-.179l-.033-.016a11 11 0 0 0-.301-.155l-.057-.033c-.089-.048-.162-.089-.244-.13-.016-.008-.04-.024-.065-.032-.073-.041-.13-.082-.195-.114a.3.3 0 0 1-.057-.041c-.057-.033-.098-.065-.146-.098q-.025-.014-.049-.04a1 1 0 0 1-.098-.09.2.2 0 0 0-.04-.033.4.4 0 0 1-.057-.073c0-.008-.017-.016-.017-.032-.016-.033-.016-.066 0-.09.082-.228 1.774.024 4.157.44z"/><path fill="#63574D" d="M85.98 638.467s-35.31 20.539-33.504 28.428 46.08-7.343 45.836-7.197c-.244.139 1.22 2.557 1.22 2.557s20.751-1.979 21.369-2.109c.618-.122-1.896-18.985-1.961-19.343s-32.967-2.336-32.967-2.336zm92.511-2.946s-31.537 4.917-31.61 5.275c-.065.358-2.586 19.213-1.96 19.343.618.122 21.368 2.108 21.368 2.108s1.464-2.418 1.22-2.556 44.031 15.085 45.836 7.197c1.806-7.889-34.854-31.367-34.854-31.367"/><path fill="#D0E2EC" d="M114.402 235.922c.195-.391.171-.823-.065-1.156-.529-.741-1.546-.595-4.01-.253-1.253.171-3.815.529-4.49.277-1.034-2.133-4.141-20.67-6.182-33.826q-.88.281-1.823.587c.537 3.468 1.457 9.239 2.433 15.028 3.164 18.765 3.839 19.286 4.335 19.676.984.766 3.01.554 5.987.139.309-.041.651-.09.984-.13-1.09.985-2.774 2.344-4.303 3.5l-.569.432 15.186 39.223 1.765-.684-14.674-37.896c1.627-1.254 4.889-3.851 5.426-4.909z"/><path fill="#2C3944" d="M134.493 231.07c-.081.504-.179 1.139-.293 1.872a35 35 0 0 0 3.677.204c1.244 0 2.57-.082 3.847-.294-.114-.716-.203-1.335-.284-1.864-2.433.407-5.141.261-6.939.082z"/><path fill="#503DA0" d="M138.543 216.481q.005.001.003.006l-2.346 2.067c-.026.024-.048.044-.072.07-.461.489-5.605 5.977-5.434 7.105.062.408.513 1.188 1.077 2.034 1.499 2.249 4.123 3.427 6.826 3.396 1.873-.021 3.722-.607 5.084-1.893.908-.857 1.76-1.82 1.801-2.446.084-1.283-4.231-7.355-4.769-8.105a1 1 0 0 0-.12-.144l-2.052-2.085q-.002-.004.002-.005"/><path fill="#425463" d="M186.771 255.679c-8.37-.024-9.566-.024-9.81.017-.561.097-.845.138-19.286 25.562a8347 8347 0 0 0-16.666 23.072c.317.765.748 1.636.748 1.636h.398c13.528-18.797 32.96-45.622 35.36-48.406 1.122-.017 4.921 0 9.248.008 7.728.024 18.318.057 27.176 0 5.369-.033 8.997-.081 11.453-.163l.936-1.286-.301-.635c-8.175.285-28.478.22-39.264.187z"/><path fill="#D0E2EC" d="M103.616 300.471c-1.35-10.371 4.693-17.12 4.758-17.185l-.537-.497c-.545.049-1.081.098-1.626.171-1.733 2.32-5.645 8.703-4.466 17.755 1.179 9.094 7.313 13.856 9.899 15.485a24 24 0 0 1 1.529-.123l.448-.92c-.09-.04-8.663-4.379-10.005-14.686m110.51-2.809c.138.293 3.229 7.238-3.799 16.51-7.003 9.24-18.423 6.041-18.903 5.902l-.529 1.816c.057.016 2.367.668 5.604.668 4.507 0 10.803-1.262 15.333-7.246 7.752-10.233 4.157-18.122 4.002-18.456zm-128.82 55.652c-2.107.049-5.027.22-8.671.529-3.27.269-6.548.602-8.923.847q-.036.939-.082 1.905c9.338-.994 18.693-1.677 20.808-1.311.073 1.335.13 4.844.154 9.5l-.057-1.107-21.23 1.099-.073 1.897 21.368-1.107c.065 15.484-.228 42.406-1.537 45.899-2.83.146-15.008.545-21.474.749-.017.635-.041 1.262-.057 1.897 6.824-.22 20.197-.652 22.06-.782a1.2 1.2 0 0 0 .846-.464c2.716-3.379 1.911-57.825 1.838-58.298-.155-1.066-1.22-1.335-4.97-1.253m101.75 59.307c-.879-3.289-1.383-32.36-1.57-48.878 1.619-.155 7.841-.334 12.998-.456l-.073-1.889c-4.417.106-10.867.277-12.941.448-.041-3.655-.057-6.529-.065-8.109 1.618-.301 6.938-.472 12.673-.504-.025-.643-.049-1.278-.082-1.897-13.136.049-13.901.79-14.169 1.05a1.05 1.05 0 0 0-.318.749c0 1.498.114 16.282.399 30.586.577 29.234 1.261 29.82 1.798 30.292 1.049.912 6.84 1.148 12.412 1.148.789 0 1.57 0 2.335-.016-.025-.627-.041-1.262-.065-1.897-6.19.049-12.023-.147-13.332-.627"/><path fill="#EEDEDE" d="M145.694 158.672c-2.026-.293-5.727-.472-8.281-.529-5.889-.139-6.222.179-6.523.456-1.082 1.001-2.286 8.369-2.205 9.891.017.358.09.814.48 1.107.879.66 10.973 1.254 14.577 1.254.593 0 1.016-.016 1.179-.049.138-.032.561-.114.797-.529.366-.651 1.318-5.08 1.326-5.121 1.033-4.868.757-5.332.561-5.674-.284-.48-.838-.635-1.903-.79zm-1.513 10.306c-2.18.139-11.315-.545-13.625-.911.049-1.685 1.041-6.717 1.586-7.97 1.969-.285 11.526.081 13.755.521-.097 1.644-1.261 6.797-1.716 8.36m24.451-9.256c-1.863-.269-5.287-.399-7.646-.431-5.458-.065-5.808.26-6.084.521-1.082 1.001-2.286 8.369-2.205 9.891.017.358.09.814.48 1.107.822.611 9.232 1.115 12.925 1.115.789 0 1.359-.024 1.595-.073.146-.032.577-.122.821-.537.366-.643 1.342-5.088 1.35-5.129 1.058-4.885.789-5.349.586-5.69-.276-.473-.83-.635-1.806-.774zm-1.667 10.323c-2.034.155-10.233-.423-12.397-.765.049-1.686 1.041-6.733 1.586-7.979 1.749-.268 10.412-.105 12.584.334-.106 1.645-1.31 6.847-1.773 8.402z"/><path fill="#EEDEDE" d="m120.998 155.928-.748 1.742 8.118 3.501h2.351v-1.889h-1.961zm33.31 4.372c-.757-.659-1.741-.944-2.921-.855-3.375.253-5.474 2.63-5.563 2.736l1.423 1.245s1.7-1.897 4.287-2.092c1.895-.138 2.155 1.319 2.196 1.775l1.887-.122c-.008-.163-.138-1.661-1.301-2.679z"/><path fill="#FDA77E" d="M115.955 152.55c-3.611 0-6.149 4.152-5.677 9.256.471 5.104 3.782 9.248 7.394 9.24 3.611 0 6.149-4.152 5.677-9.256-.472-5.105-3.782-9.248-7.394-9.24"/><path fill="#AC5649" d="m115.898 155.049-.284 1.807c1.83.269 2.155 6.155 1.797 10.055l1.798.138c.179-1.897.838-11.397-3.311-12.008z"/><path fill="#954D4D" d="m115.492 162.693 2.806.489.334-1.8-2.807-.488z"/><path fill="#FDA77E" d="M196.361 278.849c-1.537 2.646 5.718 7.457 5.718 7.457l-.382.863s-6.824-2.45-12.112-1.783c-5.287.676-3.798 3.509-3.798 3.509s-2.066.529-2.262 2.361c-.195 1.831 1.44 3.175 1.44 3.175s-1.732.911-.382 3.37c1.342 2.45 4.807 3.607 4.807 3.607s-1.562 2.808-1.415 3.581c.146.774 1.391 2.215 1.391 2.215s1.692 1.734 4.449 1.327c1.196-.179 7.207-6.261 7.207-6.261s3.734-2.564 4.531-3.72c2.497-3.655 1.993-8.865 1.993-8.865s4.392-2.223 2.228-5.683c-2.163-3.468-11.875-7.791-13.413-5.145z"/><path fill="#AC5649" d="M185.787 288.902s-.374.098-.813.351c1.805.333 9.045 1.856 14.552 5.706l1.081-1.546c-5.547-3.884-12.51-5.487-14.918-5.943a2 2 0 0 0 .106 1.441z"/><path fill="#A84F4F" d="M199.452 284.295a31 31 0 0 0 2.628 2.011l-.383.863s-.715-.261-1.862-.587c4.132 2.166 6.938 5.259 7.654 6.106.13-1.229.098-2.222.073-2.703-1.627-1.636-4.441-4.054-8.11-5.698zm-10.956 18.912 2.635 1.099.496-1.824-2.245-1.058s-.488.879-.894 1.791zm-3.531-8.768s-.398.212-.667.708c1.863.407 6.996 2.858 11.282 5.227l.912-1.653c-2.994-1.653-9.753-5.226-12.511-5.479.423.741.984 1.205.984 1.205z"/><path fill="#4F463F" d="M207.782 666.196c-6.557.195-23.947-4.47-38.947-8.809q-1.112-.708-1.627-.708a1.3 1.3 0 0 0-.488.097c-3.758-1.09-7.312-2.149-10.46-3.085-5.922-1.758-8.98-2.654-10.631-3.077l-.22 1.897c2.139.569 6.141 1.758 10.314 2.995 2.936.872 6.239 1.849 9.72 2.866-.471 1.075-.903 2.565-1.138 3.68 1 .098 1.683.163 1.903.179.26-1.083.691-2.573 1.057-3.33.269.082.545.155.822.236.464.326 1.041.766 1.667 1.279 1.172.382 2.758.887 4.621 1.465-.554-.497-1.074-.961-1.57-1.392 13.966 3.956 28.9 7.774 35.025 7.595 2.847-.081 4.417-1.783 5.19-3.5-.285-.709-.716-1.466-1.285-2.28-.139.896-.822 3.794-3.962 3.883zm-149.612.545c-3.196-.505-4.286-2.467-4.644-3.533-.488.781-.83 1.522-.993 2.198.952 1.4 2.611 2.768 5.345 3.199.146.025.341.033.56.033 7.305 0 52.791-12.423 62.089-15.061-.065-.61-.139-1.229-.204-1.864-8.305 2.41-57.915 15.696-62.144 15.02z"/><path fill="#4F463F" d="M97.214 658.209c-.455.481-1.082 1.433-1.643 2.369 1.765-.569 2.79-.911 2.75-.895-.033.016-.033.073-.017.155.033-.049.073-.09.106-.131.602.171 1.96 1.083 3.473 2.304.748-.073 1.651-.154 2.636-.252-5.792-5.129-6.89-3.997-7.305-3.558z"/><path fill="#AEBACE" d="m171.324 251.373-.325 4.257 2.188.155.293-4.217z"/><path fill="#657799" d="M102.485 258.195c2.554-13.498 5.873-14.784 6.922-14.825.431-.016 1.098.057 1.887.855 2.205 2.239 3.628 7.75 4.32 13.962 0 0 .374.22 1.301.179.878-.033 1.383-.301 1.383-.301-.757-6.83-1.895-13.156-4.759-16.054-1.236-1.246-2.66-1.856-4.246-1.799-4.547.162-7.337 5.861-9.517 17.771 0 0 .399.261 1.18.359a3.4 3.4 0 0 0 1.529-.155z"/><path fill="#657799" d="M106.015 204.009c-.65-1.514-1.464-3.395-1.204-3.737.562-.708 1.879-1.367 3.278-1.872h-5.815c-1.343 1.799-.423 3.932.837 6.863 1.229 2.849 3.091 7.164 4.263 13.685 2.692 15.003.732 22.347.707 22.42l3.034.863c.09-.318 2.205-8.011-.642-23.845-1.237-6.887-3.181-11.397-4.474-14.385zm62.487-.106c-2.058-2.492-6.703-3.468-8.858-3.819l-1.172 3.021c2.571.464 6.524 1.506 7.598 2.808 4.587 5.553 6.369 22.803 4.766 46.135l3.148.22c.984-14.385 1.578-39.793-5.482-48.357z"/><path fill="#AEBACE" d="M104.421 282.878c-5.198-6.431-2.375-25.082-2.351-25.277 0 0-.325-.228-.854-.318-.618-.098-.935.073-.935.073-.106.782-2.408 18.138 2.245 25.913zm8.98-2.254 2.237-.53c1.855-4.119 3.164-10.575 2.221-22.583 0 0-.139-.146-.944-.097-.594.032-.854.244-.854.244.992 12.676-.789 19.376-2.66 22.966"/><path fill="#9AABBE" d="M232.639 607.049h24.151v-10.022l-24.151 1.653zm197.628 0h24.15v-10.022l-24.15 1.653zm19.937 17.699-.139-9.712-14.893.554s-1.147 16.917-.35 16.713c.789-.203 24.012 25.538 24.012 25.538h9.98s.757-23.755-.805-27.313c-1.57-3.557-17.797-5.78-17.797-5.78z"/><path fill="#69727A" d="M440.499 677.119c11.788 0 21.344-10.428 21.344-23.291 0-12.864-9.556-23.291-21.344-23.291s-21.344 10.427-21.344 23.291c0 12.863 9.556 23.291 21.344 23.291"/><path fill="#576068" d="M442.712 631.367c-10.68 0-19.376 10.168-19.376 22.673s8.688 22.672 19.376 22.672 19.367-10.168 19.367-22.672-8.687-22.673-19.367-22.673m0 43.448c-9.639 0-17.48-9.321-17.48-20.775s7.841-20.776 17.48-20.776 17.48 9.322 17.48 20.776-7.841 20.775-17.48 20.775"/><path fill="#576068" d="M442.712 646.005c-3.831 0-6.955 3.606-6.955 8.027s3.124 8.027 6.955 8.027 6.955-3.607 6.955-8.027c0-4.421-3.116-8.027-6.955-8.027m0 14.173c-2.79 0-5.068-2.751-5.068-6.138s2.27-6.138 5.068-6.138 5.068 2.751 5.068 6.138-2.27 6.138-5.068 6.138"/><path fill="#8091A4" d="M434.594 626.67a79 79 0 0 0-.049 1.896c2.936-.105 18.025-.219 24.394 8.418 5.458 7.4 5.491 16.836 5.198 20.857h1.903c.318-4.355.228-14.092-5.588-21.98-6.914-9.379-22.385-9.33-25.875-9.191z"/><path fill="#9AABBE" d="M447.991 604.893h-11.29v12.537h11.29z"/><path fill="#8091A4" d="M447.991 613.441h-11.29v1.889h11.29z"/><path fill="#9AABBE" d="M456.15 635.763c-9.168-6.895-16.96-5.869-16.96-5.869l-4.604 1.473h4.612l.032 3.713s8.517-1.368 14.284 4.884c5.767 6.261 4.392 17.878 4.392 17.878h5.182s2.237-15.183-6.938-22.087zm-204.135-11.015-.138-9.712-14.894.554s-1.147 16.917-.35 16.713c.789-.203 24.012 25.538 24.012 25.538h9.981s.756-23.755-.805-27.313c-1.57-3.557-17.798-5.78-17.798-5.78z"/><path fill="#69727A" d="M242.311 677.119c11.788 0 21.344-10.428 21.344-23.291 0-12.864-9.556-23.291-21.344-23.291s-21.344 10.427-21.344 23.291c0 12.863 9.556 23.291 21.344 23.291"/><path fill="#576068" d="M244.523 631.367c-10.68 0-19.375 10.168-19.375 22.673s8.687 22.672 19.375 22.672 19.368-10.168 19.368-22.672-8.687-22.673-19.368-22.673m0 43.448c-9.638 0-17.48-9.321-17.48-20.775s7.842-20.776 17.48-20.776 17.481 9.322 17.481 20.776-7.842 20.775-17.481 20.775"/><path fill="#576068" d="M244.524 646.005c-3.832 0-6.955 3.606-6.955 8.027s3.123 8.027 6.955 8.027 6.954-3.607 6.954-8.027c0-4.421-3.115-8.027-6.954-8.027m0 14.173c-2.79 0-5.068-2.751-5.068-6.138s2.269-6.138 5.068-6.138 5.067 2.751 5.067 6.138-2.269 6.138-5.067 6.138"/><path fill="#8091A4" d="M236.414 626.67a79 79 0 0 0-.049 1.896c2.936-.105 18.025-.219 24.394 8.418 5.458 7.4 5.491 16.836 5.198 20.857h1.903c.318-4.355.228-14.092-5.588-21.98-6.914-9.379-22.385-9.33-25.874-9.191z"/><path fill="#9AABBE" d="M249.803 604.893h-11.291v12.537h11.291z"/><path fill="#8091A4" d="M249.803 613.441h-11.291v1.889h11.291z"/><path fill="#9AABBE" d="M257.961 635.763c-9.167-6.895-16.96-5.869-16.96-5.869l-4.604 1.473h4.613l.032 3.713s8.517-1.368 14.284 4.884c5.767 6.261 4.392 17.878 4.392 17.878h5.181s2.237-15.183-6.938-22.087z"/><path fill="#7D91A4" d="M526.111 450.377c-8.923-11.927-18.115-23.275-18.204-23.389l-8.069 6.553c14.918 18.391 31.544 40.843 33.935 46.965-5.222 9.525-46.177 64.876-71.767 98.84l8.297 6.26c.179-.236 18.179-24.138 36.083-48.463 36.888-50.091 37.466-53.022 37.856-54.951.521-2.606-.26-5.78-5.743-14.296-2.944-4.575-7.109-10.469-12.396-17.527z"/><path fill="#8091A4" d="M454.417 602.344h-24.15v1.888h24.15zm-197.627 0h-24.151v1.888h24.151z"/><path fill="#9AABBE" d="M572.403 387.26H316.462v10.396h255.941z"/><path fill="#7D91A4" d="M-146.249 537.347v45.133s609.573 2.044 609.573 0-8.907-25.522-8.907-25.522l38.572-3.704 8.76-13.123h-67.212zm69.67 28.957s-21.955.586-22.687 0 6.1-10.966 6.1-10.966h16.586zm115.016 1.001-1.749-6.26H17.337l-2.912 5.52H4.24s4.075-9.599 4.66-10.038c.586-.44 37.84 0 37.84 0l1.018 10.778z"/><path fill="#A7BACD" d="M351.349 320.447c-20.441-16.453-22.45-16.314-24.785-16.168-2.725.179-4.563 2.06-7.817 6-2.058 2.483-4.823 6.065-8.231 10.632-6.02 8.068-14.129 19.368-22.841 31.84-8.077 11.56-16.138 23.364-22.133 32.384-10.737 16.184-10.794 17.194-10.884 18.863-.138 2.67 1.326 4.893 6.841 10.347 2.961 2.931 7.077 6.741 12.242 11.332a857 857 0 0 0 13.576 11.797l-18.416 24.886h12.608l83.302-112.565 8.866-10.77-3.758-3.199c-.089-.074-9.159-7.791-18.57-15.371zm-85.522 83.022c3.57-6 15.08-23.316 29.811-44.409 16.667-23.87 27.42-38.263 31.78-43.375 2.79 1.799 7.476 5.332 12.812 9.541l-65.472 86.97c-4.043-3.721-7.24-6.822-8.923-8.719zm90.915-59.812-63.064 85.22a863 863 0 0 1-11.372-9.875l65.83-87.434a886 886 0 0 1 11.038 9.126l-2.44 2.963z"/><path fill="#fff" d="M326.564 304.287c-2.725.179-4.563 2.06-7.817 6-2.058 2.483-4.823 6.065-8.231 10.632-6.02 8.068-14.129 19.367-22.841 31.839-8.077 11.56-16.138 23.365-22.133 32.385-10.737 16.184-10.794 17.194-10.884 18.863-.138 2.67 1.326 4.892 6.841 10.347.683.676 1.44 1.408 2.245 2.182l.073-.098c-.276-.277-.553-.537-.813-.798-5.507-5.454-6.979-7.677-6.841-10.347.09-1.669.139-2.678 10.884-18.863 5.986-9.028 14.056-20.832 22.133-32.384 8.711-12.464 16.821-23.772 22.84-31.84 3.409-4.567 6.174-8.141 8.232-10.632 3.262-3.94 5.092-5.821 7.817-6 .309-.024.618-.04.96-.016.146-.285.358-.537.61-.725-1.505-.635-2.269-.586-3.083-.537z" opacity="0.59"/><path fill="#9AABBE" d="M355.546 320.447c-20.441-16.453-22.45-16.314-24.785-16.168-2.724.179-4.563 2.06-7.816 6-2.058 2.483-4.824 6.065-8.232 10.632-6.019 8.068-14.129 19.368-22.841 31.84-8.077 11.56-16.138 23.364-22.133 32.384-10.737 16.184-10.794 17.194-10.883 18.863-.139 2.67 1.326 4.893 6.841 10.347 2.96 2.931 7.076 6.741 12.241 11.332a862 862 0 0 0 13.576 11.797l-18.415 24.886h12.607l83.302-112.565 8.866-10.77-3.758-3.199c-.089-.074-9.159-7.791-18.57-15.371zm-85.522 83.022c3.571-6 15.081-23.316 29.811-44.409 16.667-23.87 27.421-38.263 31.781-43.375 2.79 1.799 7.475 5.332 12.811 9.541l-65.472 86.97c-4.043-3.721-7.239-6.822-8.923-8.719zm90.915-59.812-63.064 85.22a863 863 0 0 1-11.371-9.875l65.829-87.434a886 886 0 0 1 11.038 9.126l-2.44 2.963z"/><path fill="#E4E9F4" d="M543.421 307.072c-4.572-1.303-188.192-8.019-191.12-5.088-3.669 3.655-113.113 148.263-120.621 148.645s-331.979 4.022-336.762 14.182c-4.774 10.16-10.289 66.316-7.898 68.71s547.574 2.987 557.132 0 133.269-190.214 132.61-193.283c-.65-3.069-28.762-31.864-33.333-33.166z"/><path fill="#C5CFE9" d="M399.73 310.792c-.089-.513-37.099-8.295-50.439-.106-11.502 7.05-46.983 65.6-31.089 75.614 15.902 10.005 138.606 27.5 154.508 15.695s31.748-75.67 23.54-87.222c-8.207-11.552-96.43-3.46-96.52-3.973z"/><path fill="#ACB9D5" d="M431.828 338.862a105 105 0 0 0-27.77 8.589 103 103 0 0 0-7.353 3.818c-.903.513-.488 1.986.602 1.774 7.564-1.489 15.341-2.491 22.995-1.074.504.089.976-.399 1.017-.871.04-.554-.366-.92-.871-1.018-5.848-1.083-11.794-.773-17.651.082a103 103 0 0 1 21.377-7.832 103 103 0 0 1 8.02-1.62c1.204-.195.838-2.052-.358-1.856z"/><path fill="#3C6187" d="M450.48 383.939c-.456-10.225-13.787-16.022-13.787-16.022s.366 2.826 0-4.46c-.367-7.286-41.291-10.967-31.309-10.967 14.943-2.806 22.19-44.352 14.943-50.555 0 0-3.425-.277-3.954 0-.528.277-24.695 53.193-24.695 56.734s28.405 31.49 29.853 33.395c1.447 1.905-22.678 51.996-29.853 57.564-7.174 5.569-61.453 7.523-69.27 7.115s-38.865 14.068-38.865 14.068 3.986 7.929 6.654 7.612 13.486-9.102 14.039-9.199c.545-.098 76.429 1.677 83.546 0s16.52-8.793 17.602-8.939 3.652 3.549 3.823 3.745c.171.187 11.12-21.574 11.12-21.574s11.241-.521 12.396-.643c1.155-.13 18.212-47.649 17.757-57.874" opacity="0.21"/><path fill="#06D0A0" d="M399.121 358.807s-.317.912.049 1.099c1.033.538 5.856 2.133 5.856 2.133s-11.022 6.065-28.119 6.065c-12.413 0-14.422-9.053-14.422-9.053l9.639-1.31.203-.595c-.317-.065-35.7 2.085-49.52 10.958-5.897 3.786-8.598 18.203-22.841 30.187-.578.488.358 5.861.358 5.861-6.703 5.39-12.405 8.727-20.629 11.015-7.955 2.214-23.076 7.807-24.597 6.35-.301-.285 15.39 49.986 16.203 50.417 7.215 3.826 40.589-2.369 77.567-1.661 42.753.814 65.163-36.292 65.708-35.747s9.932 2.337 9.932 2.337 25.076-41.102 20.439-56.253c-4.644-15.15-45.834-21.803-45.834-21.803z"/><mask id="b" width="191" height="117" x="255" y="357" maskUnits="userSpaceOnUse" style="mask-type:alpha"><path fill="#06D0A0" d="M399.121 358.807s-.317.912.049 1.099c1.033.538 5.856 2.133 5.856 2.133s-11.022 6.065-28.119 6.065c-12.413 0-14.422-9.053-14.422-9.053l9.639-1.31.203-.595c-.317-.065-35.7 2.085-49.52 10.958-5.897 3.786-8.598 18.203-22.841 30.187-.578.488.358 5.861.358 5.861-6.703 5.39-12.405 8.727-20.629 11.015-7.955 2.214-23.076 7.807-24.597 6.35-.301-.285 15.39 49.986 16.203 50.417 7.215 3.826 40.589-2.369 77.567-1.661 42.753.814 65.163-36.292 65.708-35.747s9.932 2.337 9.932 2.337 25.076-41.102 20.439-56.253c-4.644-15.15-45.834-21.803-45.834-21.803z"/></mask><g fill="#D1D9E8" mask="url(#b)" opacity="0.69"><path d="M353.537 361.193c1.709.033 3.498-1.091 4.059-2.524-2.017.318-4.148.692-6.312 1.14.269.806 1.09 1.36 2.253 1.384m56.63 1.107c.83.016 1.676-.244 2.4-.676a127 127 0 0 0-4.734-1.172c.065 1.05.967 1.815 2.342 1.848zm-79.291 9.225c-1.741-.033-3.58 1.131-4.1 2.613-.521 1.473.464 2.703 2.212 2.735 1.741.033 3.579-1.131 4.1-2.613s-.464-2.703-2.212-2.735m18.879.366c-1.741-.033-3.579 1.131-4.1 2.613s.464 2.703 2.213 2.735c1.74.033 3.579-1.131 4.099-2.613.521-1.473-.463-2.703-2.212-2.735m18.879.374c-1.74-.032-3.579 1.132-4.099 2.614-.521 1.481.463 2.702 2.212 2.735s3.579-1.132 4.1-2.613c.52-1.474-.464-2.703-2.213-2.736m18.871.367c-1.74-.033-3.579 1.131-4.099 2.613-.521 1.473.463 2.703 2.212 2.735 1.741.033 3.579-1.131 4.1-2.613.52-1.474-.464-2.703-2.213-2.735m18.88.365c-1.741-.032-3.579 1.132-4.1 2.614s.464 2.702 2.213 2.735 3.579-1.132 4.099-2.613c.521-1.474-.463-2.703-2.212-2.736m18.879.375c-1.741-.033-3.579 1.131-4.099 2.613-.521 1.473.463 2.703 2.212 2.735s3.579-1.131 4.1-2.613c.52-1.473-.464-2.703-2.213-2.735m10.493-5.609c-1.741-.032-3.579 1.132-4.1 2.614-.52 1.473.464 2.702 2.213 2.735s3.579-1.132 4.099-2.613c.521-1.474-.463-2.703-2.212-2.736m-92.518-3.997c-1.74-.033-3.579 1.131-4.099 2.613-.521 1.474.463 2.703 2.212 2.735 1.741.033 3.579-1.131 4.1-2.613.52-1.473-.464-2.703-2.213-2.735m18.88.374c-1.741-.032-3.579 1.132-4.1 2.614s.464 2.702 2.213 2.735c1.74.033 3.579-1.132 4.099-2.613.521-1.474-.464-2.703-2.212-2.736m14.787 3.965h-.13c.114 1.001 1.001 1.726 2.335 1.75 1.488.033 3.05-.822 3.79-1.994a70 70 0 0 1-5.995.252zm22.971-3.232c-1.74-.032-3.579 1.132-4.099 2.613-.521 1.482.464 2.703 2.212 2.736 1.741.032 3.579-1.132 4.1-2.613.521-1.474-.464-2.703-2.213-2.736m18.872.375c-1.741-.033-3.579 1.131-4.1 2.613-.521 1.474.464 2.703 2.212 2.735s3.579-1.131 4.1-2.613c.521-1.473-.464-2.703-2.212-2.735m-93.112 21.101c-1.74-.032-3.579 1.132-4.099 2.614-.521 1.481.463 2.702 2.212 2.735 1.741.033 3.579-1.132 4.1-2.613s-.464-2.703-2.213-2.736m18.88.367c-1.741-.033-3.579 1.131-4.1 2.613-.521 1.473.464 2.703 2.213 2.735 1.74.033 3.579-1.131 4.099-2.613.521-1.474-.464-2.703-2.212-2.735m18.878.374c-1.74-.033-3.579 1.132-4.099 2.613-.521 1.482.464 2.703 2.212 2.736 1.741.032 3.579-1.132 4.1-2.614.521-1.473-.464-2.702-2.213-2.735m18.872.366c-1.741-.032-3.579 1.132-4.1 2.614-.52 1.473.464 2.702 2.213 2.735s3.579-1.132 4.1-2.613-.464-2.703-2.213-2.736m18.879.367c-1.74-.033-3.579 1.131-4.099 2.613-.521 1.474.464 2.703 2.212 2.735 1.741.033 3.579-1.131 4.1-2.613.521-1.473-.464-2.703-2.213-2.735m18.88.373c-1.741-.032-3.579 1.132-4.1 2.614-.52 1.473.464 2.702 2.213 2.735 1.74.033 3.579-1.132 4.099-2.613.521-1.474-.463-2.703-2.212-2.736m-100.375-9.923a580 580 0 0 1-4.165 4.673c.407.374 1.008.602 1.749.619 1.74.032 3.579-1.132 4.099-2.614.464-1.318-.276-2.434-1.683-2.678m18.35.318c-1.741-.033-3.579 1.131-4.1 2.613-.52 1.473.464 2.703 2.213 2.735 1.741.033 3.579-1.131 4.099-2.613.521-1.482-.463-2.703-2.212-2.735m18.879.374c-1.74-.033-3.579 1.132-4.099 2.613-.521 1.474.463 2.703 2.212 2.736 1.749.032 3.579-1.132 4.1-2.614.52-1.473-.464-2.702-2.213-2.735m18.98 5.28c1.72-.83 2.637-2.492 2.05-3.71-.588-1.219-2.458-1.534-4.178-.704s-2.637 2.492-2.049 3.711c.587 1.219 2.458 1.534 4.177.703m18.771-4.547c-1.741-.033-3.579 1.132-4.1 2.613-.52 1.474.464 2.703 2.213 2.736 1.74.032 3.579-1.132 4.099-2.614.521-1.473-.463-2.703-2.212-2.735m18.879.374c-1.74-.032-3.579 1.132-4.099 2.614-.521 1.473.463 2.702 2.212 2.735 1.741.033 3.579-1.132 4.1-2.613.52-1.474-.464-2.703-2.213-2.736m18.88.367c-1.741-.033-3.579 1.131-4.1 2.613-.521 1.473.464 2.703 2.213 2.735 1.74.033 3.579-1.131 4.099-2.613.521-1.474-.464-2.703-2.212-2.735m10.852-5.611c-1.741-.033-3.579 1.131-4.1 2.613-.52 1.474.464 2.703 2.213 2.735 1.74.033 3.579-1.131 4.099-2.613.521-1.473-.463-2.703-2.212-2.735m-5.143 14.869c-1.741-.033-3.579 1.132-4.099 2.613-.521 1.474.463 2.703 2.212 2.736 1.741.032 3.579-1.132 4.1-2.614.52-1.473-.464-2.702-2.213-2.735m10.327-5.012c-1.741-.032-3.579 1.132-4.1 2.614-.52 1.473.464 2.702 2.213 2.735 1.74.032 3.579-1.132 4.099-2.613.521-1.474-.463-2.703-2.212-2.736m-90.277 17.23c-1.74-.033-3.579 1.131-4.099 2.613-.521 1.473.463 2.703 2.212 2.735 1.741.033 3.579-1.131 4.1-2.613s-.464-2.703-2.213-2.735m18.879.366c-1.74-.033-3.579 1.132-4.099 2.613-.521 1.474.463 2.703 2.212 2.736 1.741.032 3.579-1.132 4.1-2.614.52-1.473-.464-2.702-2.213-2.735m18.88.366c-1.741-.033-3.579 1.131-4.1 2.613-.52 1.473.464 2.703 2.213 2.735 1.74.033 3.579-1.131 4.099-2.613.521-1.474-.463-2.703-2.212-2.735m18.879.374c-1.741-.032-3.579 1.132-4.099 2.613-.521 1.474.463 2.703 2.212 2.736 1.749.032 3.579-1.132 4.1-2.613.52-1.474-.464-2.703-2.213-2.736m18.872.367c-1.741-.033-3.579 1.131-4.1 2.613s.464 2.703 2.213 2.735c1.748.033 3.579-1.131 4.099-2.613.521-1.473-.463-2.703-2.212-2.735m-119.776-10.339c-1.74-.033-3.579 1.132-4.099 2.613-.521 1.474.463 2.703 2.212 2.736 1.741.032 3.579-1.132 4.1-2.614s-.464-2.702-2.213-2.735m18.88.366c-1.741-.032-3.579 1.132-4.1 2.613s.464 2.703 2.213 2.736c1.748.032 3.579-1.132 4.099-2.613.521-1.474-.463-2.703-2.212-2.736m18.879.375c-1.741-.033-3.579 1.131-4.1 2.613-.52 1.473.464 2.703 2.213 2.735 1.741.033 3.579-1.131 4.1-2.613s-.464-2.703-2.213-2.735m18.879.366c-1.74-.032-3.579 1.132-4.099 2.614-.521 1.473.464 2.703 2.212 2.735 1.741.033 3.579-1.131 4.1-2.613s-.464-2.703-2.213-2.736m18.872.367c-1.741-.033-3.579 1.131-4.1 2.613-.521 1.473.464 2.703 2.212 2.735 1.741.033 3.579-1.131 4.1-2.613.521-1.474-.464-2.703-2.212-2.735m18.879.374c-1.741-.032-3.579 1.132-4.1 2.613-.52 1.474.464 2.703 2.213 2.736 1.741.032 3.579-1.132 4.099-2.613.521-1.474-.463-2.703-2.212-2.736m18.879.366c-1.741-.032-3.579 1.132-4.1 2.614-.52 1.473.464 2.702 2.213 2.735 1.74.032 3.579-1.132 4.099-2.613.521-1.474-.463-2.703-2.212-2.736m-55.361 21.843c-1.741-.033-3.579 1.131-4.1 2.613-.52 1.473.464 2.703 2.213 2.735 1.741.033 3.579-1.131 4.099-2.613.521-1.482-.463-2.703-2.212-2.735m18.879.374c-1.74-.033-3.579 1.131-4.099 2.613-.521 1.474.464 2.703 2.212 2.735s3.579-1.131 4.1-2.613c.521-1.473-.464-2.703-2.213-2.735m18.872.366c-1.741-.033-3.579 1.131-4.1 2.613s.464 2.703 2.212 2.735c1.741.033 3.579-1.131 4.1-2.613.521-1.473-.464-2.703-2.212-2.735m18.879.367c-1.741-.033-3.579 1.131-4.1 2.613-.52 1.473.464 2.703 2.213 2.735 1.74.033 3.579-1.131 4.099-2.613.521-1.474-.463-2.703-2.212-2.735m-63.145-9.232c-1.741-.032-3.579 1.132-4.1 2.613-.52 1.474.464 2.703 2.213 2.736 1.74.032 3.579-1.132 4.099-2.614.521-1.473-.463-2.702-2.212-2.735m18.879.366c-1.741-.032-3.579 1.132-4.1 2.614-.52 1.473.464 2.702 2.213 2.735 1.74.033 3.579-1.132 4.099-2.613.521-1.474-.463-2.703-2.212-2.736m18.879.375c-1.741-.033-3.579 1.132-4.099 2.613-.521 1.474.463 2.703 2.212 2.736 1.741.032 3.579-1.132 4.1-2.614.52-1.473-.464-2.703-2.213-2.735m18.88.366c-1.741-.032-3.579 1.132-4.1 2.613-.521 1.474.464 2.703 2.212 2.736 1.749.032 3.579-1.132 4.1-2.614.521-1.473-.464-2.702-2.212-2.735m-36.482 22.216c-1.741-.032-3.579 1.132-4.099 2.614-.521 1.473.463 2.702 2.212 2.735 1.741.033 3.579-1.132 4.1-2.613.52-1.474-.464-2.703-2.213-2.736m18.871.367c-1.74-.033-3.579 1.131-4.099 2.613-.521 1.473.463 2.703 2.212 2.735s3.579-1.131 4.1-2.613c.52-1.474-.464-2.703-2.213-2.735m18.879.366c-1.74-.032-3.579 1.132-4.099 2.614-.008.032-.016.065-.033.097 2.636.578 5.458 1.116 5.458 1.116s.366-.782.993-2.166c-.155-.952-1.033-1.628-2.319-1.653zm-44.265-8.865c-1.741-.033-3.579 1.132-4.1 2.613-.521 1.474.464 2.703 2.212 2.736 1.741.032 3.579-1.132 4.1-2.613.521-1.474-.464-2.703-2.212-2.736m18.879.375c-1.741-.033-3.579 1.131-4.1 2.613-.52 1.473.464 2.703 2.213 2.735 1.741.033 3.579-1.131 4.099-2.613.521-1.474-.463-2.703-2.212-2.735m18.871.366c-1.741-.033-3.579 1.131-4.1 2.613-.52 1.474.464 2.703 2.213 2.735 1.741.033 3.579-1.131 4.1-2.613s-.464-2.703-2.213-2.735"/></g><path fill="#09A781" d="m313.054 396.826 1.797.765 12.917-16.526-1.488-1.172z"/><path fill="#EAF3FF" d="M392.719 452.706c-3.75-2.109-4.612-16.185-20.376-33.476-15.235-16.713-41.825-28.176-65.13-22.396-9.281 2.304-12.811 9.354-17.813 11.748-1.302.618-6.313-3.794-7.614-3.216-1.139.505-2.57 3.525-3.799 3.973-4.075 1.473-9.679 4.062-16.675 4.583-18.334 1.376-44.672-1.058-75.118-.537-1.839.032-3.181-3.257-5.044-3.224-2.236.032-4.994 3.387-7.272 3.419-1.122.016-1.805-3.444-2.936-3.419-2.465.032-5.385 3.541-7.89 3.574-100.693 1.367-228.83 1.49-248.84 12.83-29.828 16.892-35.098 85.138-35.098 85.138s194.479-2.32 198.033-.114c3.498 2.174.814 13.563.814 13.563l333.597-.187s10.452-42.195 2.245-54.87c-8.207-12.676-17.334-15.273-21.084-17.381z"/><path fill="#09A781" d="M377.5 370.36c-8.849-.35-14.706-2.508-17.423-6.432-1.309-1.897-1.61-3.883-1.594-5.397-.626.097-1.269.195-1.912.301.025 1.767.448 3.989 1.936 6.146 3.059 4.454 9.428 6.896 18.92 7.27q1.183.05 2.343.049c16.496 0 28.233-6.895 33.7-10.941-.838-.196-1.66-.383-2.457-.562-5.979 4.119-17.586 10.184-33.513 9.566"/><path fill="#E2E9F3" d="m428.339 487.175 1.578 1.042c29.12-44.084 105.508-159.14 109.233-162.168l-1.155-1.498c-4.506 3.492-105.361 156.119-109.656 162.615z"/><path fill="#ACB9D5" d="m350.747 346.238-1.366-1.001a348 348 0 0 0-2.937-2.117c-.398-.285-1.049-.171-1.309.252a.966.966 0 0 0 .252 1.311c.854.619 1.716 1.229 2.57 1.856.399.285.789.578 1.188.863.211.155.423.309.634.472l.025.016c-.228.009-.456.017-.675.041a7.5 7.5 0 0 0-2.831.928c-.431.245-.683.806-.423 1.27.236.432.805.684 1.269.424a7.5 7.5 0 0 1 1.082-.497c.016 0 .04-.016.081-.024.065-.017.13-.041.195-.057.261-.074.529-.123.797-.163l.407-.049q.183-.012.049 0h.203c.627 0 1.237.024 1.717-.456.496-.505.52-1.221.219-1.84-.252-.521-.675-.895-1.13-1.229zm128.78-13.197c-.748-.952-2.172.293-1.415 1.246 3.408 4.331 4.807 10.144 3.628 15.541-1.196 5.438-4.71 9.9-9.493 12.667-2.79 1.612-5.832 2.736-8.899 3.696-.716.228-1.106 1.238-.349 1.71 1.439.887 3.424 2.043 3.473 3.981.04 1.677-1.863 2.418-3.148 2.947-1.123.464-.277 2.157.838 1.693 1.968-.814 4.197-2.1 4.189-4.534 0-2.011-1.228-3.444-2.709-4.584 5.165-1.766 10.184-4.143 13.722-8.45 3.783-4.608 5.393-10.811 4.344-16.673a21 21 0 0 0-4.173-9.248z"/><path fill="#FDA77E" d="m362.711 358.85 8.169-.855c6.27 1.045 19.854 10.449 6.935 10.544-10.335.076-14.376-6.428-15.104-9.689"/><path fill="#FDA77E" d="M371.641 367.639c11.57 4.226 27.373-2.263 33.829-6.036-.922 0-3.093-.453-4.401-2.264s2.389-12.575 4.401-17.732l-24.271 16.475c-8.007 1.425-21.128 5.332-9.558 9.557"/><path fill="#E07F61" d="M404.587 343.129s-1.236 2.844-1.883 6.653c-2.832 3.157-8.183 10.024-12.067 13.169-5.248 4.252-10.206 2.717-14.686 1.446-1.234-.359-5.567-2.92-2.556-8.705.802-6.302 0-7.306 0-7.306l31.192-5.259z"/><path fill="#FDA77E" d="M375.419 294.202s-3.509 9.454-3.729 13.356c-.204 3.891-1.727 12.309-1.727 12.309s-2.867 12.401-3.543 17.046c-.663 4.633 1.042 8.301 2.008 10.209.969 1.895 4.106 8.124 5.498 9.025 1.391.915 10.66 2.254 10.66 2.254s1.822.33 4.07-.74c2.237-1.072 11.75-7.882 11.75-7.882s1.387-1.306 3.152-3.358c1.768-2.064 3.402-5.709 3.402-5.709s3.429 2.354 6.834-1.959c3.403-4.3 6.298-11.253 3.643-13.779-2.668-2.527-4.904-.561-4.904-.561l3.475-13.525s4.862-19.624-13.587-23.694c-18.434-4.079-27.001 7.006-27.001 7.006z"/><path fill="#10203A" d="M392.911 313.537a.52.52 0 0 0-.698.247.527.527 0 0 0 .257.705l6.991 3.29c.268.125.58.011.705-.258a.527.527 0 0 0-.264-.694zm-11.364-1.633a.519.519 0 1 0-.182-1.023l-7 1.219a.517.517 0 0 0-.415.615.52.52 0 0 0 .602.422z"/><path fill="#AC5649" d="M372.311 339.925c-.181.146-.271.47-.19.711.087.257.297.332.486.188 0 0 .781-.709 2.305-.528l8.471 1.711c.009.002 1.121.211 1.275.912.057.265.259.392.453.276.192-.104.298-.409.24-.677-.258-1.245-1.789-1.548-1.798-1.55l-8.489-1.714c-1.768-.209-2.743.671-2.753.669zm9.763 5.74a.51.51 0 0 0 .613-.404.52.52 0 0 0-.388-.625l-6.736-1.503a.52.52 0 0 0-.627.401.53.53 0 0 0 .401.628zm34.108-17.19a.514.514 0 0 0 .712-.197.51.51 0 0 0-.196-.713s-2.576-1.469-4.504.445c-.81.815-1.791 2.345-2.604 3.917-.927 1.755-1.678 3.597-1.799 4.483-.237 1.907 1.464 2.906 1.464 2.906a.527.527 0 0 0 .723-.181.536.536 0 0 0-.194-.726s-1.1-.645-.948-1.865c.097-.768.797-2.47 1.681-4.138.783-1.483 1.678-2.92 2.42-3.652 1.364-1.338 3.243-.28 3.243-.28z"/><path fill="#AC5649" d="M413.095 334.619a.52.52 0 0 0 .652.361.53.53 0 0 0 .35-.655s-.196-.794-1.635-1.583c-1.477-.808-3.114-.062-3.128-.064a.533.533 0 0 0-.273.694c.116.264.43.39.694.274 0 0 1.194-.542 2.201.019 1.047.569 1.139.95 1.139.95zm-9.935-.281c.243-.145.316-.472.173-.727a.526.526 0 0 0-.728-.159l-5.531 3.427a.513.513 0 0 0-.171.713c.146.244.47.328.713.171zm-33.378-4.413a.537.537 0 0 0 .733.133.527.527 0 0 0 .133-.734l-1.85-2.637a.51.51 0 0 0-.723-.117.5.5 0 0 0-.13.721z"/><path fill="#10203A" d="M413.564 292.695s8.533 1.299 9.494 7.053c.974 5.756-7.979 23.977-7.979 23.977s-6.724 6.503-10.032 8.937c0 0 6.146-17.889 4.761-25.345-1.382-7.469-1.284-10.471-1.284-10.471s-3.903 1.082-15.911-1.43c-11.996-2.496-19.295-.891-20.985 13.09l-.662 5.23s-3.522-5.661-.43-13.471c0 0-3.334-.116-4.613-2.554 0 0 2.961.469 4.236-1.794 0 0-1.116-1.759-4.214-1.386 0 0 .648-5.38 7.111-6.704 0 0-1.857-1.325-1.697-3.558 0 0 1.516 1.344 3 1.816 0 0-2.008-3.33-1.121-7.11 0 0 1.187-.652 3.655.215 2.47.854 6.172 4.842 13.045 3.051 6.885-1.788 22.921-3.896 23.627 10.452z"/><path fill="#3B4D6A" d="M394.249 293.709a.513.513 0 0 0 .445-.583.52.52 0 0 0-.58-.456c-.029.008-9.003 1.296-16.158-5.972a.53.53 0 0 0-.744.002.53.53 0 0 0 .002.744c7.519 7.644 17.008 6.274 17.037 6.265z"/><path fill="#3B4D6A" d="M370.5 292.609a.51.51 0 0 0-.196.709.53.53 0 0 0 .722.198c.016-.011 5.925-3.439 12.477-1.657.284.079.573-.1.649-.37a.545.545 0 0 0-.383-.652c-6.952-1.882-13.253 1.759-13.269 1.77zm30.34-1.905a.527.527 0 0 0-.109-1.048c-.029.009-7.707.949-12.877-3.751a.533.533 0 0 0-.737.042.516.516 0 0 0 .028.736c5.532 5.023 13.683 4.019 13.697 4.021z"/><path fill="#3F342E" d="m395.625 320.353-.57 3.595s-.227.961-1.1.924c-.862-.02-1.426-.272-1.541-1.051-.113-.792.613-4.358.613-4.358s.287-.909 1.305-.781c1.004.129 1.421.745 1.295 1.67zm-18.481-3.519-.688 3.572s-.267.955-1.135.892c-.858-.046-1.42-.31-1.503-1.111-.089-.787.756-4.332.756-4.332s.311-.905 1.324-.735c1.013.169 1.399.794 1.246 1.715z"/><path fill="#EE7353" d="M383.935 332.539s-3.861 1.076-5.917-.285c-2.039-1.358-1.638 1.208-.141 2.655 1.484 1.447 7.64 1.221 6.058-2.37"/><path fill="#AC5649" d="M381.499 322.672a.53.53 0 0 0-.449-.582.523.523 0 0 0-.596.447c-.002.013-.371 3.101-2.351 4.843-.013-.003-.127.099-.142.11-1.088.996-1.791 2.114-1.973 3.274-.173 1.186.175 2.402 1.169 3.557l.077.095c.193.21.526.231.737.038a.51.51 0 0 0 .052-.734l-.078-.095c-.786-.887-1.052-1.815-.919-2.699.136-.909.721-1.82 1.628-2.645l.129-.113c2.298-2.008 2.709-5.483 2.712-5.494zm3.069 11.378a.524.524 0 0 0 .385-.636.52.52 0 0 0-.618-.396c-.013-.002-2.295.574-2.901 1.372a.55.55 0 0 0 .109.739.535.535 0 0 0 .738-.11c.374-.5 2.272-.97 2.285-.968z"/><path fill="#ABBADA" d="M172.78 460.089c-2.855-3.28-3.205-49.529-66.146-48.088-49.464 1.131-154.687-.22-198.961 16.453-44.275 16.68-46.064 105.881-46.056 105.881l354.25-1.978s7.142-39.492 0-51.883c-7.142-12.39-40.232-17.112-43.087-20.393z"/><path fill="#98A9C8" d="M173.919 511.345c-20.116 3.631-64.504-14.002-70.946-22.412-10.387-13.555 19.156-47.356-6.385-46.721-3.473.09-80.178 3.932-83.709 4.038-45.754 1.416-55.385-6.456-82.309 3.688-44.274 16.681-68.961 84.397-68.953 84.397l354.25-1.978s7.142-39.492 0-51.883c-7.142-12.39-37.669 30.089-41.948 30.863z" opacity="0.58"/><path fill="#8093B6" d="M110.912 474.206c-5.564 2.369-11.038 21.15-16.269 55.806a132 132 0 0 1-.35 2.239l.912.244.895.301c.056-.163.089-.375.406-2.491 6.727-44.531 12.372-53.161 15.138-54.349 3.823-1.628 45.811-2.841 94.38-3.672a61 61 0 0 0-3.798-1.815c-45.348.798-87.231 2.003-91.322 3.745z" opacity="0.44"/><path fill="#9AABBE" d="M-147.746 573.492v28.673h613.9l103.019-11.976v-16.9c-92.688-.798-716.927-.896-716.927.203z"/><path fill="#D5E3EE" d="M360.086 463.639a30 30 0 0 0-4.279-.985c-.098-.017-.651-.122-1.049-.171.073-.171.13-.358.195-.489.26-.537.553-1.058.83-1.579.602-1.107 1.204-2.223 1.667-3.403 1.708-4.372 1.497-9.338-.187-13.677-1.724-4.445-5.067-8.181-9.045-10.762-1.277-.822-2.603 1.131-1.318 1.962 3.376 2.182 6.19 5.218 7.85 8.898 1.797 3.997 2.074 8.694.471 12.797-.439 1.132-1.033 2.182-1.602 3.249-.529.985-1.326 2.124-1.399 3.272-.098 1.409 1.074 1.987 2.277 2.117.911.098 1.814.228 2.709.431 3.709.839 7.183 2.492 10.208 4.787 3.384 2.573 6.109 5.951 7.866 9.827.627 1.384 2.741.333 2.115-1.051-3.27-7.221-9.769-12.846-17.309-15.223"/><path fill="#09A781" d="M410.566 393.887c-1.228 2.076-3.433 6.048-7.54 13.742-4.051 7.587-8.663 16.461-9.436 18.61-.114.317-.293.806 0 1.262.317.496 1.074 1.074 6.727 2.654l.325.089.529-1.815-.35-.098c-3.359-.936-4.766-1.465-5.344-1.742 1.562-3.778 13.129-25.709 16.789-31.929l-1.7-.782z"/><path fill="#D5E3EE" d="M381.567 458.014c-7.971-.782-15.975.22-23.865 1.327-7.996 1.123-15.992 2.263-23.988 3.395-4.506.635-9.013 1.278-13.519 1.913-1.204.171-.838 2.027.358 1.856 7.923-1.124 15.853-2.239 23.776-3.362 7.915-1.124 15.829-2.451 23.792-3.167 4.425-.399 8.875-.513 13.3-.073 1.212.122 1.35-1.767.146-1.889"/><path fill="#8FA0B1" d="M83.996 422.747c-1.537-2.369-4.083-2.964-9.557-3.485-22.036-2.092-96.74-1.595-119.117-1.4-23.597.212-47.308.586-65.057 1.026-30.616.757-30.852 1.001-32.707 2.923-1.505 1.555-2.326 2.417-3.376 22.151-.504 9.492-1 22.494-1.464 38.645-.585 20.279-.984 40.559-1.155 49.88H88.714c-.081-9.224-.293-29.055-.716-49.017-1.187-56.392-2.75-58.794-4.002-60.715zm-184.661 12.26c-10.363.187-20.791.537-25.533.936-.504 3.094-1.082 8.703-1.513 14.337a5.2 5.2 0 0 1-5.491 4.795 5.2 5.2 0 0 1-4.864-5.585c.147-1.873.326-4.071.537-6.309 1.204-12.611 2.164-14.483 4.222-16.006 1.513-1.115 2.342-1.725 20.872-2.287 4.23-.13 8.427-.22 11.575-.277 2.88-.057 5.246 2.247 5.287 5.129a5.197 5.197 0 0 1-5.1 5.259zm93.34-.081h-59.356a5.2 5.2 0 0 1-5.197-5.202 5.2 5.2 0 0 1 5.197-5.203h59.355a5.2 5.2 0 0 1 5.198 5.203 5.2 5.2 0 0 1-5.198 5.202m80.047 23.104a5.19 5.19 0 0 1-5.336-4.95c-.276-6-.724-12.032-1.203-15.329-5.808-.351-17.294-.717-30.365-.945a5.19 5.19 0 0 1-5.1-5.267 5.196 5.196 0 0 1 5.279-5.129c35.928.578 35.074 1.327 36.132 1.775 3.391 1.457 4.376 4.689 5.238 17.283.17 2.54.309 5.048.398 7.132a5.194 5.194 0 0 1-5.043 5.43"/><path fill="#9AABBE" d="M75.83 422.747c-1.538-2.369-4.084-2.964-9.558-3.485-22.035-2.092-96.74-1.595-119.116-1.4-23.597.212-47.308.586-65.057 1.026-30.617.757-30.853 1.001-32.707 2.923-1.505 1.555-2.327 2.417-3.376 22.151-.504 9.492-1.001 22.494-1.464 38.645-.586 20.279-.984 40.559-1.155 54.748h237.15a3647 3647 0 0 0-.715-53.885c-1.188-56.392-2.75-58.794-4.002-60.715zm-184.661 12.26c-10.363.187-20.791.537-25.534.936-.504 3.094-1.081 8.703-1.512 14.337a5.197 5.197 0 0 1-5.491 4.795 5.197 5.197 0 0 1-4.864-5.585c.146-1.873.325-4.071.537-6.309 1.203-12.611 2.163-14.483 4.221-16.006 1.513-1.115 2.343-1.725 20.872-2.287 4.23-.13 8.427-.22 11.575-.277 2.88-.057 5.247 2.247 5.287 5.129a5.196 5.196 0 0 1-5.1 5.259zm93.339-.081h-59.355a5.2 5.2 0 0 1-5.198-5.202 5.2 5.2 0 0 1 5.198-5.203h59.355a5.2 5.2 0 0 1 5.198 5.203 5.2 5.2 0 0 1-5.198 5.202m80.048 23.104a5.19 5.19 0 0 1-5.336-4.95c-.277-6-.724-12.032-1.204-15.329-5.808-.351-17.293-.717-30.365-.945a5.19 5.19 0 0 1-5.1-5.267 5.196 5.196 0 0 1 5.28-5.129c35.928.578 35.074 1.327 36.131 1.775 3.392 1.457 4.376 4.689 5.238 17.283.171 2.54.31 5.048.399 7.132a5.194 5.194 0 0 1-5.043 5.43"/><path fill="#D1DAE1" d="M-132.868 475.069c-.203.212-1.115 61.847 1.399 62.685 2.513.839 185.597 1.401 186.613 0 1.009-1.4 1.009-63.247-.943-64.598-1.952-1.352-185.109-.13-187.061 1.913z"/><path fill="#3C6187" d="M290.189 478.431c2.668-.318 13.486-9.102 14.039-9.2.545-.097 76.429 1.677 83.546 0s16.521-8.792 17.602-8.939c-5.352-4.583-10.175-6.195-12.656-7.587-.724-.407-1.342-1.27-1.977-2.507-9.997 5.137-60.803 6.936-68.343 6.545-7.817-.407-38.865 14.068-38.865 14.068s3.986 7.929 6.654 7.611z" opacity="0.15"/><path fill="#FDA77E" d="M273.863 459.178c-9.671 5.316-13.258 10.673-13.673 12.716-.407 2.043 1.366 2.32 1.366 2.32s-1.041 2.679 0 3.273 2.359-.09 2.359-.09 0 1.498 1.725 2.003c1.724.497 3.815-1.14 3.815-1.14s.17 1.343 2.082 1.425c1.911.081 7.654-5.414 9.964-6.057s5.54 3.077 12.21 0 9.817-6.236 9.744-7.107-10.005-13.115-9.948-13.14c0 0-9.972.473-19.644 5.797"/><path fill="#FDA77E" d="M399.064 425.075s-14.089 15.541-25.379 19.123-68.172 6.798-80.17 9.191c-16.952 3.37-21.995 12.83-21.507 13.14 2.986 1.848 16.391 6.423 16.391 6.423s12.38-5.341 15.064-6.13c2.725-.806 73.297 2.475 87.434-4.323 16.431-7.897 29.437-29.43 28.608-30.928s-13.007-6.675-20.441-6.496"/><path fill="#CE6851" d="m284.869 466.659-.895-1.572c-3.783 2.158-15.919 9.436-15.252 13.653.448-.261.74-.48.74-.48s.114.871 1.164 1.253c0-.309-.025-.651-.122-1.026-.488-1.97 7.076-7.668 14.373-11.828zm-6.174-3.997c-1.456 1.034-14.243 10.233-15.227 14.002-.09.342-.155.66-.22.969.399-.098.675-.236.675-.236s0 1.001.944 1.636c.049-.513.154-1.148.349-1.913.619-2.369 9.241-9.224 14.528-12.985l-1.041-1.473zm-17.139 11.552s-.138.358-.26.83c1.407-2.345 5.377-7.978 13.088-12.464l-.903-1.563c-7.288 4.242-11.347 9.378-13.194 12.22.366.83 1.269.977 1.269.977"/><path fill="#8FA0B1" d="M288.96 468.759c-.593-2.173-2.285-3.606-5.026-4.241-8.037-1.872-45.617-2.206-75.355-1.937-17.277.162-33.309.537-45.153 1.066-6.45.285-11.583.619-15.259.977-6.239.61-8.248 1.221-9.778 2.947-1.464 1.653-3.278 3.72-4.595 30.463a871 871 0 0 0-.822 24.627l-.089 5.283h158.428l-.114-5.308c-.309-14.873-1.147-49.904-2.237-53.885zm-142.737 6.538c6.979-1.018 30.982-2.109 66.878-2.361 34.611-.236 58.176.456 66.09 1.327.244 3.533.513 9.72.773 17.177H144.571c.472-7.294 1.033-13.204 1.652-16.143m-2.758 42.251c.13-5.251.309-10.607.545-15.712h136.279c.147 5.088.285 10.429.407 15.712z"/><path fill="#9AABBE" d="M292.531 468.759c-.594-2.173-2.285-3.606-5.027-4.241-8.036-1.872-45.616-2.206-75.354-1.937-17.277.162-33.31.537-45.153 1.066-6.45.285-11.583.619-15.26.977-6.238.61-8.248 1.221-9.777 2.947-1.464 1.653-3.278 3.72-4.596 30.463a869 869 0 0 0-.821 24.627l-.09 5.283h158.429l-.114-5.308c-.309-14.873-1.147-49.904-2.237-53.885zm-142.738 6.538c6.979-1.018 30.983-2.109 66.879-2.361 34.611-.236 58.176.456 66.09 1.327.244 3.533.513 9.72.773 17.177H148.142c.472-7.294 1.033-13.204 1.651-16.143m-2.757 42.251c.13-5.251.309-10.607.545-15.712H283.86c.147 5.088.285 10.429.407 15.712z"/><path fill="#9AABBE" d="m241.473 525.868 19.327 18.863-58.094-.48c-4.564-3.558-21.287-17.357-31.813-26.1l-6.637 8.002c.081.066 7.231 6.017 15.43 12.765 4.824 3.973 7.638 9.061 10.444 11.333 1.684 1.359 5.109 3.59 6.036 4.314 1.879 1.466 2.953.074 4.799.074l85.587.716-37.831-36.919-7.256 7.449z"/><path fill="#8FA0B1" d="M551.075 337.307c-19.067-14.547-19.71-16.412-21.914-16.428-.244 0-3.351.529-3.579.545-2.717.179-4.449 2.06-7.5 6-1.927 2.483-4.506 6.065-7.67 10.632-5.588 8.068-13.104 19.368-21.157 31.84-7.467 11.56-14.91 23.364-20.425 32.384-9.883 16.185-9.883 17.194-9.883 18.863 0 2.67 1.586 4.893 7.386 10.347 3.115 2.931 7.435 6.741 12.844 11.332 5.238 4.445 13.641 11.015 17.212 13.93l9.647-2.223 60.29-87.719 7.776-11.373-3.741-3.012c-.098-.073-9.509-7.652-19.27-15.101zm-53.539 38.898c15.422-23.894 25.427-38.295 29.502-43.391 2.888 1.774 7.784 5.291 13.364 9.468l-30.25 43.212-12.625-9.265v-.016zm-27.461 44.409c2.318-4.282 8.378-14.304 16.593-27.346 3.384 2.719 8.183 6.546 11.6 9.216l-18.806 26.857c-4.238-3.72-7.606-6.822-9.387-8.727m87.686-59.698-58.493 85.106a803 803 0 0 1-11.884-9.875l61.315-87.573a989 989 0 0 1 11.396 8.931z"/><path fill="#9AABBE" d="m66.386 591.175-14.251 2.329v13.969h18.44l.098-14.751 18.058-2.54.414-58.656H66.386zm2.253 33.573-.139-9.712-14.893.554s-1.147 16.917-.35 16.713c.789-.203 24.012 25.538 24.012 25.538h9.98s.757-23.755-.805-27.313c-1.57-3.557-17.797-5.78-17.797-5.78z"/><path fill="#69727A" d="M58.935 677.119c11.787 0 21.343-10.428 21.343-23.291 0-12.864-9.556-23.291-21.343-23.291S37.59 640.964 37.59 653.828c0 12.863 9.556 23.291 21.344 23.291"/><path fill="#576068" d="M61.147 631.367c-10.68 0-19.375 10.168-19.375 22.673s8.687 22.672 19.375 22.672 19.367-10.168 19.367-22.672-8.687-22.673-19.367-22.673m0 43.448c-9.639 0-17.48-9.321-17.48-20.775s7.841-20.776 17.48-20.776 17.48 9.322 17.48 20.776-7.841 20.775-17.48 20.775"/><path fill="#576068" d="M61.147 646.005c-3.831 0-6.955 3.606-6.955 8.027s3.124 8.027 6.955 8.027 6.955-3.607 6.955-8.027c0-4.421-3.116-8.027-6.955-8.027m0 14.173c-2.79 0-5.067-2.751-5.067-6.138s2.269-6.138 5.067-6.138 5.068 2.751 5.068 6.138-2.27 6.138-5.068 6.138"/><path fill="#8091A4" d="M53.037 626.67c-.024.667-.04 1.302-.048 1.896 2.936-.105 18.025-.219 24.394 8.418 5.458 7.4 5.49 16.836 5.198 20.857h1.903c.317-4.355.228-14.092-5.588-21.98-6.914-9.379-22.385-9.33-25.875-9.191z"/><path fill="#9AABBE" d="M66.426 604.893h-11.29v12.537h11.29z"/><path fill="#8091A4" d="M66.426 613.441h-11.29v1.889h11.29z"/><path fill="#9AABBE" d="M74.585 635.763c-9.168-6.895-16.96-5.869-16.96-5.869l-4.604 1.473h4.612l.033 3.713s8.516-1.368 14.283 4.884c5.767 6.261 4.393 17.878 4.393 17.878h5.181s2.237-15.183-6.938-22.087zm386.827-78.3c-1.635-2.003-3.603-2.117-7.922-2.361-2.603-.147-6.41-.301-11.323-.448-9.224-.277-22.483-.554-39.402-.822-30.885-.48-73.069-.912-118.783-1.205-44.005-.285-87.499-.423-119.327-.366-55.581.089-56.891.618-58.282 1.172-5.702 2.288-6.946 10.673-7.906 23.251h10.42c.333-4.25.96-10.738 1.985-13.466 12.119-.667 83.431-.765 171.597-.195 88.427.57 155.696 1.555 170.76 2.475.407 4.135.456 12.276.212 19.107l10.379.382c.008-.228.203-5.568.146-11.324-.122-12.219-1.228-14.556-2.554-16.184zm93.25-220.701c-21.189-16.168-23.182-16.038-25.501-15.883-2.716.179-4.449 2.06-7.499 6-1.928 2.483-4.506 6.065-7.671 10.632-5.588 8.068-13.104 19.367-21.157 31.839-7.467 11.561-14.909 23.365-20.424 32.385-9.883 16.184-9.883 17.194-9.883 18.863 0 2.67 1.586 4.892 7.385 10.347 3.116 2.931 7.435 6.741 12.844 11.332a951 951 0 0 0 14.194 11.796l-55.613 80.921h-596.444v10.397h601.886l123.118-179.126 7.777-11.373-3.742-3.012c-.098-.073-9.509-7.653-19.27-15.102zm6.67 23.609-58.493 85.106c-12.355-10.079-25.045-20.988-29.193-25.408 3.262-6 13.852-23.316 27.477-44.409 15.422-23.894 25.427-38.295 29.503-43.392 6.165 3.794 21.449 15.484 33.032 24.7l-2.334 3.411z"/><path fill="#9AABBE" d="m544.318 341.25-64.128 91.592 8.507 5.966 64.127-91.592z"/><path fill="#7D91A4" d="M89.772 572.711c0 2.768.024 10.363 0 12.431-.716 1.49-10.03 6.456-18.327 10.233l-.528.236-.025.578a201 201 0 0 0-.203 5.976h1.903c.033-1.645.09-3.509.171-5.316a242 242 0 0 0 8.94-4.372c9.167-4.762 9.948-6.236 9.964-7.237.024-1.97.008-9.729 0-12.529zm-23.386-.073h22.467l.016-1.889H66.386z"/><path fill="#9AABBE" d="M486.164 389.442s19.66 15.859 19.864 15.574c.203-.285 11.745-17.121 11.745-17.121l-21.262-15.606-10.347 17.145z"/><path fill="#7D91A4" d="m191.31 535.002 19.912 16.86c-3.652 3.501-7.272 7.172-8.443 7.872-2.4-1.669-16.846-14.686-27.835-24.732h-2.798a2492 2492 0 0 0 13.803 12.545c15.537 14.011 16.13 14.084 16.602 14.149.041 0 .09.016.155.016.61 0 2.359-.659 10.07-9.313l1.171-.724-19.693-16.673h-2.952zm74.647.09 19.107 19.497c-3.547 2.247-7.451 4.511-8.541 4.812-2.123-1.457-16.423-15.02-26.07-24.309h-2.643l-.041.041c.065.065 6.751 6.52 13.502 12.903 13.869 13.131 14.447 13.205 14.943 13.278h.114c1.179 0 4.791-1.938 10.729-5.764l.976-.627-19.441-19.831h-2.643z"/><path fill="#7D91A4" d="M204.496 550.242c-1.09 0-1.969.749-1.969 1.677s.879 1.677 1.969 1.677 1.968-.749 1.968-1.677-.878-1.677-1.968-1.677m72.003 3.679c1.087 0 1.968-.75 1.968-1.677 0-.926-.881-1.677-1.968-1.677s-1.969.751-1.969 1.677c0 .927.882 1.677 1.969 1.677m-110.348-26.205c.635.521 1.399 1.164 2.278 1.889h16.317c-.765-.627-1.529-1.262-2.294-1.889zm77.217 0 1.936 1.889h14.878l-1.936-1.889z"/><path fill="#9AABBE" d="m124.626 587.234 15.536 1.099 18.327-32.1h-16.781z"/><path fill="#7D91A4" d="M139.577 590.409c-5.084-2.027-10.412-4.299-11.957-5.178 1.488-3.444 11.567-21.81 18.383-34.021l-1.651-.92c-.049.081-4.799 8.605-9.452 17.112-9.615 17.593-9.493 17.919-9.265 18.513.163.423.464 1.205 14.031 6.562l.789.309 21.735-41.6-1.676-.88-20.945 40.095z"/><path fill="#7D91A4" d="M147.272 578.304h33.96v12.35h-41.216v1.888h43.103v-16.127h-35.847zm-10.819 2.36c-1.09 0-1.968.749-1.968 1.677s.878 1.677 1.968 1.677 1.969-.749 1.969-1.677-.879-1.677-1.969-1.677"/><path fill="#9AABBE" d="m286.805 587.43 17.236.903 18.334-32.1h-16.78z"/><path fill="#7D91A4" d="M303.455 590.409c-5.084-2.027-10.42-4.299-11.957-5.178 1.489-3.444 11.567-21.81 18.383-34.021l-1.651-.92c-.049.081-4.799 8.605-9.452 17.112-9.615 17.593-9.493 17.919-9.265 18.513.163.423.464 1.205 14.032 6.562l.789.309 21.734-41.6-1.676-.88-20.945 40.095z"/><path fill="#7D91A4" d="M311.158 578.304h33.96v12.35h-41.216v1.888h43.103v-16.127h-35.847zm-10.818 2.36c-1.09 0-1.969.749-1.969 1.677s.879 1.677 1.969 1.677 1.968-.749 1.968-1.677-.878-1.677-1.968-1.677m153.231-7.79h5.881v29.185h-5.011v.122h6.898v-31.334h-7.809q.027.987.041 2.035zm-32.227 22.03c-2.115-.652-153.37 0-153.37 0l-3.847 7.27h162.268c-1.456-2.809-3.669-6.847-5.051-7.27M64.547 540.823c.13 4.584.383 9.151-.08 9.224l1.886-.106c.04-7.644-.154-16.086.204-17.967 1.594-.236 7.638-.431 13.941-.464v-1.897c-7.686.057-14.38.318-15.105.749-.602.358-1.114.668-.846 10.47z"/><path fill="#9AABBE" d="M561.023 381.342s-6.386 2.816-7.508 4.347c-1.367 1.864-2.449 10.03-2.449 10.03l16.496 10.103s8.427-3.094 9.631-4.885c1.359-2.027.48-9.761.48-9.761s-14.796-9.492-16.65-9.843z"/><path fill="#AEBDCB" d="M559.29 385.519c-.74-.538-2.278.455-3.449 2.206s-1.521 3.614-.781 4.144c.74.537 2.278-.456 3.449-2.207 1.171-1.758 1.521-3.614.781-4.143"/><path fill="#D1DAE1" d="m499.065 377.841-7.255 12.456s11.607 9.15 11.786 9.207 8.045-11.877 8.045-12.122-12.576-9.541-12.576-9.541"/><path fill="#749FBB" d="M495.128 390.272h3.978l-1.985-3.468-1.985 3.468zm5.328-3.134 2.335-3.215-3.97-.432zm1.667 3.696c-.935 0-1.684.855-1.684 1.905s.757 1.905 1.684 1.905c.928 0 1.684-.854 1.684-1.905 0-1.05-.756-1.905-1.684-1.905m3.572-4.958c-.895 0-1.619.855-1.619 1.913s.724 1.913 1.619 1.913 1.619-.855 1.619-1.913-.724-1.913-1.619-1.913"/><path fill="#D5E3EE" d="M322.758 484.106c-2.05-1.043-4.206-1.816-6.394-2.508-1.155-.366-1.781 1.417-.626 1.783 3.514 1.115 7.191 2.426 9.972 4.942 2.921 2.645 4.141 6.382 4.336 10.241.114 2.271-.073 4.543-.334 6.798-.138 1.213 1.741 1.351 1.888.146.496-4.225.683-8.629-.724-12.708-1.375-3.973-4.433-6.822-8.118-8.686zm16.162 13.342c-.456.253-.651.79-.423 1.27.073.163.138.326.203.489.016.041.025.081.041.122.024.073.04.147.057.22.081.325.187.716.171 1.058v-.081.439c0 .179-.017.359-.033.538a5 5 0 0 1-.073.496c0 .025-.016.065-.025.09-.024.097-.056.195-.081.293-.146.472.073 1.05.578 1.205.471.146 1.049-.074 1.203-.578a7.27 7.27 0 0 0-.341-5.137c-.204-.448-.83-.668-1.269-.424zm-78.014-53.689c-2.628-1.352-5.418-.497-8.061.35l-4.637 1.481c-.74.237-1.472.481-2.212.709-.374.114-1.058.39-1.456.195-.358-.179-.342-.904-.407-1.237a9.6 9.6 0 0 0-.545-1.824c-.423-1.042-1.123-2.035-2.115-2.597-2.595-1.465-5.71.326-8.028 1.579a38.5 38.5 0 0 0-7.785 5.553c-.894.822.35 2.247 1.245 1.416 1.96-1.799 4.091-3.395 6.393-4.722a35 35 0 0 1 3.661-1.856c1.09-.472 2.472-.969 3.587-.317.821.48 1.285 1.457 1.537 2.336.317 1.107.269 2.451 1.31 3.191 1.025.733 2.318.351 3.408 0 1.472-.472 2.945-.936 4.417-1.408 1.488-.472 2.969-1.009 4.482-1.376 1.334-.325 2.871-.553 4.148.106.456.236 1.001.204 1.31-.252.26-.383.203-1.075-.252-1.311zm10.013 6.513-.179-.163a1 1 0 0 0-.455-.163h-.749a.66.66 0 0 0-.374.057.75.75 0 0 0-.325.179.7.7 0 0 0-.212.293.74.74 0 0 0-.105.35c0 .082.008.171.016.253q.049.254.219.447c.057.057.122.106.179.163q.21.137.456.163h.748c.13.016.252 0 .374-.057a.8.8 0 0 0 .326-.179.7.7 0 0 0 .211-.293.74.74 0 0 0 .106-.35l-.016-.253a.93.93 0 0 0-.22-.447m45.177-30.798c-.497-.016-1.066.114-1.204.578-.155.513.089 1.001.577 1.205a6 6 0 0 1 .431.195q.294.159.562.342c.179.122.358.253.528.391.033.024.066.057.098.081.081.082.171.163.252.245.147.146.293.309.423.464.073.089.147.179.212.268.032.049.065.09.097.139l-.016-.017c.098.188.228.359.325.538q.16.303.293.618c.187.456.838.66 1.269.424.472-.261.708-.823.423-1.27-2.367-3.704-3.05-4.193-4.295-4.234z"/><path fill="#D5E3EE" d="M318.097 423.406c.04.056.097.178 0 0"/><path fill="#FFF2EA" d="M554.328 328.686h-.341c-.358-.024-.879.236-1.253.261-.756.049-1.602-.073-2.342-.261-.822-.203-1.644-.553-2.221-1.123.032.716.13 1.425.285 2.125s.829.838 1.342.594c.341.391.943.545 1.399.065q.121-.12.244-.252c.195.334.569.545 1.057.399.806-.253 1.619-.489 2.432-.725-.13-.301-.268-.586-.447-.822-.089-.122-.13-.195-.146-.261z" opacity="0.11"/><path fill="#C0CFEC" d="M116.85 415.314c-1.765-.855-3.856-.806-5.726-.334-2.01.513-3.856 1.571-5.865 2.043-.928.22-1.603.065-2.384-.464-.789-.537-1.537-1.082-2.424-1.465-1.789-.782-3.822-.912-5.742-.692-2.327.268-4.547 1.115-6.727 1.937-.594.228-.797 1.059-.529 1.588.31.619.984.757 1.586.529 3.303-1.237 7.077-2.638 10.55-1.172 1.692.716 2.855 2.263 4.848 2.214 2.018-.041 3.921-1.107 5.784-1.775 1.887-.683 3.969-1.082 5.856-.179.578.277 1.31-.171 1.505-.724.228-.66-.146-1.23-.724-1.506z"/><path fill="#fff" d="M74.439 419.254c-14.186-1.351-50.212-1.62-80.04-1.595h-7.484l-1.049 3.468s92.59.505 95.34 2.296c1.05.683 2.22 2.702 4.14 3.459-.463-2.792-.919-3.5-1.342-4.143-1.537-2.369-4.083-2.964-9.557-3.485z" opacity="0.75"/><path fill="#06D0A0" d="M306.115 451.028s-9.151 1.343-9.191 1.36c-.041.016-.611.529-.611.529l1.985-.269c.236-.032 6.434-.024 7.988 3.2 1.554 3.223-1.383 10.852-1.383 10.852l-.895.04s.106.432.171.472c.065.041 6.101.017 6.337-.073.236-.081 4.888-8.532 1.626-12.276-3.261-3.745-6.011-3.843-6.011-3.843z"/><path fill="#D5E3EE" d="M356.229 471.243H343.06c-.634 0-1.22.415-1.269 1.091-.048.602.448 1.27 1.09 1.27h13.17c.634 0 1.22-.416 1.268-1.091.049-.603-.447-1.27-1.09-1.27"/><path fill="#F8FBFF" d="M296.094 411.724c-1.155-1.685-3.595-1.84-5.409-1.384a8.5 8.5 0 0 0-2.823 1.319 7 7 0 0 0-1.049.928c-.057.057-.106.122-.163.179a3.3 3.3 0 0 0-.545-.944c-.529-.627-1.301-1.042-2.09-1.221-1.887-.415-3.709.505-5.409 1.197l-10.957 4.469c-2.066.847-4.132 1.685-6.198 2.532-.562.228-.765.993-.505 1.514.285.578.944.741 1.513.505l15.398-6.285c1.245-.505 2.481-1.091 3.758-1.514.862-.285 1.96-.513 2.701.171.317.293.252.618.349 1.009.163.668.676 1.229 1.375 1.319 1.285.163 1.944-1.001 2.774-1.734a5.74 5.74 0 0 1 3.083-1.384c.919-.122 1.952 0 2.505.806.342.505 1.171.472 1.594.106.505-.44.448-1.091.106-1.596zm23.515-10.103c-2.554-.684-5.181-1.042-7.825-.994a30 30 0 0 0-3.888.318c-1.179.179-2.521.342-3.432 1.197-1.05.993.431 2.694 1.488 1.693.277-.261.594-.35.96-.431a25 25 0 0 1 5.125-.538c2.302 0 4.603.285 6.824.879.586.155 1.228-.089 1.44-.692.187-.545-.098-1.278-.692-1.441z"/></g><path fill="#503DA0" d="M579.588 746.281h33.327v-33.664h-33.327z"/><path fill="#fff" d="M577.953 747.93v-36.955h36.59v36.955zm3.257-33.664v30.373h30.076v-30.373z"/><path fill="#503DA0" d="M291.138 746.288h33.326v-33.665h-33.326z"/><path fill="#fff" d="M289.51 747.93v-36.955h36.59v36.955zm3.256-33.664v30.373h30.07v-30.373z"/><path fill="#503DA0" d="M291.138 36.253h33.326V2.59h-33.326z"/><path fill="#fff" d="M289.51 37.896V.94h36.59v36.956zm3.256-33.664v30.373h30.07V4.232z"/><path fill="#503DA0" d="M2.701 746.281h33.326v-33.664H2.701z"/><path fill="#fff" d="M1.066 747.93v-36.955h36.59v36.955zm3.257-33.664v30.373h30.07v-30.373z"/><path fill="#503DA0" d="M579.582 390.871h33.326v-33.665h-33.326z"/><path fill="#fff" d="M577.953 392.52v-36.956h36.59v36.956zm3.257-33.664v30.373h30.076v-30.373z"/><path fill="#503DA0" d="M2.694 390.871h33.327v-33.665H2.694z"/><path fill="#fff" d="M1.066 392.52v-36.956h36.59v36.956zm3.257-33.664v30.373h30.07v-30.373z"/><path fill="#503DA0" d="M579.588 36.247h33.327V2.582h-33.327z"/><path fill="#fff" d="M577.953 37.896V.94h36.59v36.956zm3.264-33.664v30.373h30.069V4.232z"/><path fill="#503DA0" d="M2.701 36.247h33.326V2.582H2.701z"/><path fill="#fff" d="M1.066 37.896V.94h36.59v36.956zM4.323 4.232v30.373h30.07V4.232z"/></svg>