<svg xmlns="http://www.w3.org/2000/svg" width="616" height="749" fill="none" viewBox="0 0 616 749"><path fill="#06D0A0" d="M19.06 729.162h578.395V18.727H19.06z"/><path fill="#fff" d="M56.002 690.311h504.511V57.579H56.002z"/><mask id="a" width="505" height="634" x="56" y="57" maskUnits="userSpaceOnUse" style="mask-type:alpha"><path fill="#fff" d="M56.002 690.311h504.511V57.579H56.002z"/></mask><g mask="url(#a)"><path fill="#E7EFFB" d="M-192.988 23.326H919.601v667.568H-192.988z"/><path fill="#8CABE2" d="M-192.988 502.631H919.601v188.262H-192.988z"/><path fill="#8CABE2" d="m349.786 504.988 418.263-114.414h151.552v51.517L900.264 514.3z"/><path fill="#EBF2FC" d="M901.12 235.171H359.596V23.326H901.12z"/><path fill="#ACC5ED" d="M406.653 58.112H901.12v78.7H406.653zM901.12 35.35v11.7H406.653v-11.7z"/><path fill="#fff" d="m359.596 502.524 395.075-104.851V241.519L359.596 43.518z"/><path fill="#8CABE2" d="m373.902 485.937 213.519-51.481V164.245L373.902 60.108zm228.897-55.192 98.393-23.724V219.722l-98.393-47.985zm106.528-25.686 41.207-9.919V243.804l-41.207-20.12z"/><path fill="#8CABE2" d="M587.423 244.66v-80.413L373.904 60.11v152.264zm15.376 2.356 98.393 14.877v-42.169l-98.393-47.985zm106.528 16.09 41.206 6.244v-25.544l-41.206-20.12v39.422z"/><path fill="#C6D9F7" d="M587.423 434.456v-270.21l-8.455-4.102H373.902v274.312z"/><path fill="#6F90C5" d="m332.09 29.677 414.626 210.345h42.348L429.879 23.326H332.09z"/><path fill="#EBF2FC" d="M789.064 240.022v-14.735l-310.06-201.96h-49.125z"/><path fill="#C6D9F7" d="M759.559 240.022h16.519L401.588 23.326h-63.147z"/><path fill="#8CABE2" d="M499.625 329.285h7.777l2.354 22.156H497.27z"/><path fill="#fff" d="M498.339 329.285h7.777l2.356 22.156h-12.486z"/><path fill="#BBCEEE" d="M489.244 351.44h19.264c.462 0 .82-.356.82-.821 0-.463-.355-.856-.82-.856h-19.264a.87.87 0 0 0-.857.856c0 .463.392.821.857.821"/><path fill="#fff" d="M528.486 342.023c-.071.679-.679 1.213-1.355 1.213h-50.767c-.679 0-1.177-.536-1.106-1.213l3.889-35.211c.071-.643.714-1.212 1.354-1.212h50.803c.679 0 1.177.571 1.07 1.212z"/><path fill="#C6D9F7" d="m476.755 338.525 3.497-31.895h48.841l-3.497 31.895z"/><path fill="#8CABE2" d="M528.915 342.023c-.071.678-.678 1.212-1.355 1.212h-.106c-.679 0-1.177-.536-1.106-1.212l1.39-12.486c.072-.679.214-1.749.285-2.427l.857-7.919c.071-.679.142-1.355.177-1.535 0-.143.107-.857.178-1.5l.25-2.246c.071-.679.178-1.784.249-2.463l.5-4.638c.107-.643.714-1.212 1.391-1.212h.071c.678 0 1.176.571 1.105 1.212l-.071.536c-.071.679-.142 1.355-.178 1.535 0 .178-.071.856-.142 1.535l-.463 4.031c-.071.678-.142 1.463-.178 1.713-.035.284-.107 1.034-.178 1.712l-.856 7.528c-.071.679-.178 1.784-.249 2.463l-1.571 14.163z"/><path fill="#fff" d="M529.484 311.341c0-.178.143-.285.285-.32.178 0 .285.106.249.249l-.106.927c0 .143-.143.285-.285.321-.143 0-.285-.107-.249-.25zm-.249 2.069a.48.48 0 0 1 .321-.321c.142 0 .249.107.249.249l-.249 2.283c-.036.142-.143.284-.321.284-.142.036-.249-.071-.249-.213zm-.427 3.852c.036-.142.178-.284.321-.284.142-.036.249.071.249.249l-2.498 22.512c0 .142-.143.284-.285.284-.178.036-.285-.071-.249-.249z"/><path fill="#9BABD3" d="M530.092 317.584c-.071.679.963.857 1.07.178l.213-2.14c.072-.678-.963-.856-1.034-.178z"/><path fill="#F3F2EE" d="M529.663 321.508c-.072.678.998.892 1.07.213l.213-2.14c.071-.678-.963-.892-1.034-.213z"/><path fill="#8CABE2" d="M466.302 348.869h3.711v1.141h-3.711zm44.452 0h3.711v1.141h-3.711zm-4.46 0h3.71v1.141h-3.71zm-4.46 0h3.71v1.141h-3.71zm-4.425 0h3.711v1.141h-3.711zm-4.46 0h3.711v1.141h-3.711zm-4.424 0h3.71v1.141h-3.71zm-4.46 0h3.71v1.141h-3.71zm-4.425 0h3.711v1.141h-3.711zm-4.46 0h3.711v1.141h-3.711zm-4.424 0h3.71v1.141h-3.71z"/><path fill="#fff" d="M461.558 350.546h57.652v-1.106h-57.652z"/><path fill="#8CABE2" d="M461.557 350.546h57.652l-.536.427c-.249.249-.892.463-1.39.463h-53.799c-.501 0-1.141-.214-1.428-.463l-.501-.427z"/><path fill="#9BABD3" d="M506.688 432.064h25.65v-5.065h-25.65zm0-63.537h25.65v-5.101h-25.65z"/><path fill="#9BABD3" d="M530.554 442.09h5.103v-88.761h-5.103z"/><path fill="#EAAD96" d="M504.975 442.09h5.103v-88.761h-5.103zm-112.628-10.026h25.615v-5.065h-25.615z"/><path fill="#9BABD3" d="M392.347 368.527h25.615v-5.101h-25.615z"/><path fill="#EAAD96" d="M415.929 441.234h5.065v-87.905h-5.065zm-25.579 0h5.1v-87.905h-5.1z"/><path fill="#FFEAE0" d="M380.324 356.682h136.283v-5.245H380.324z"/><path fill="#FAC9B6" d="M509.008 356.682h36.995v-5.245h-36.995z"/><path fill="#6CABD8" d="M523.954 437.884c0 1.855-1.5 3.354-3.319 3.354-1.82 0-3.355-1.499-3.355-3.354zm-25.651 0a3.35 3.35 0 0 1-3.354 3.354c-1.855 0-3.319-1.499-3.319-3.354zm49.233 0c0 1.855-1.5 3.354-3.355 3.354s-3.319-1.499-3.319-3.354z"/><path fill="#6CABD8" d="M529.52 437.884c0 1.855-1.5 3.354-3.319 3.354-1.82 0-3.355-1.499-3.355-3.354z"/><path fill="#FAC9B6" d="M489.741 436.669h59.83v-73.241h-59.83z"/><path fill="#FAC9B6" d="M526.488 436.669h23.083v-73.241h-23.083z"/><path fill="#FAC9B6" d="M489.741 437.991h59.83v-4.247h-59.83z"/><path fill="#FFEAE0" d="M489.741 437.991h36.747v-4.247h-36.747zm-.178-23.76h36.925v14.699h-36.925zm0-50.981h36.925v14.735h-36.925zm0 16.982h36.925v14.735h-36.925zm0 16.981h36.925v14.735h-36.925z"/><path fill="#FAC9B6" d="M501.978 365.854h10.738c.356 0 .678.284.678.678 0 .356-.32.678-.678.678h-10.738c-.356 0-.643-.32-.643-.678 0-.392.285-.678.643-.678m0 50.945h10.738c.356 0 .678.284.678.678 0 .356-.32.679-.678.679h-10.738c-.356 0-.643-.321-.643-.679 0-.391.285-.678.643-.678m0-16.982h10.738c.356 0 .678.285.678.678 0 .356-.32.679-.678.679h-10.738c-.356 0-.643-.32-.643-.679 0-.391.285-.678.643-.678m0-16.982h10.738c.356 0 .678.285.678.679 0 .356-.32.678-.678.678h-10.738c-.356 0-.643-.32-.643-.678 0-.392.285-.679.643-.679m-12.415-19.123h60.008v-1.677h-60.008z"/><path fill="#EAAD96" d="M489.563 433.922h60.008v-1.64h-60.008z"/><path fill="#6F90C5" d="M403.763 399.173h-5.85v42.063h5.85zm20.515 0h-5.851l11.132 42.063h5.814zm13.876-30.434h17.66c2.033 0 3.71 1.678 3.71 3.711 0 2.068-1.677 3.746-3.71 3.746h-17.66c-2.033 0-3.711-1.678-3.711-3.746 0-2.033 1.678-3.711 3.711-3.711"/><path fill="#6F90C5" d="m447.11 391.681-45.131 3.391-11.345-62.969 30.324-.107c8.491-.035 15.841 5.886 17.589 14.199z"/><path fill="#8CABE2" d="m401.873 394.464-.285-1.499a4.56 4.56 0 0 1-3.675 3.032 4.547 4.547 0 0 1-5.101-3.924l-6.315-55.012c-.356-2.462 1.428-4.78 3.888-5.101a4.06 4.06 0 0 1 1.856.143l21.513-.071c8.063.391 14.912 6.208 16.625 14.163l8.527 45.486-37.031 2.783z"/><path fill="#8CABE2" d="M462.986 399.387h-65.144c-3.246 0-5.922-2.641-5.922-5.886 0-3.281 2.676-5.922 5.922-5.922h65.144c3.246 0 5.886 2.641 5.886 5.922a5.893 5.893 0 0 1-5.886 5.886"/><path fill="#6F90C5" d="M432.626 399.173h-5.85v42.063h5.85zm20.514 0h-5.85l11.131 42.063h5.851z"/><path fill="#8CABE2" d="M484.89 202.918h73.991v92.614h-75.846v-92.614zm70.283 3.71h-68.427v85.194h68.427z"/><path fill="#8CABE2" d="M483.533 203.418h72.174v88.904h-72.174z"/><path fill="#C6D9F7" d="M555.707 207.129v85.193h-68.428v-85.193z"/><path fill="#fff" d="M483.533 201.563h74.029v92.615H481.68v-92.615h1.855zm70.283 3.711h-68.428v85.193h68.428z"/><path fill="#676C99" d="M500.98 221.899h40.991v55.69H500.98z"/><path fill="#ACC5ED" d="M500.98 274.449h40.991v1.998H500.98zm0-2.927h40.991v1.998H500.98zm0-2.888h40.991v1.997H500.98zm0-2.925h40.991v1.998H500.98zm0-2.89h40.991v1.998H500.98z"/><path fill="#EBF2FC" d="M500.98 227.75h40.991v34.141H500.98zm0-3.639h40.991v1.998H500.98z"/><path fill="#676C99" d="M507.651 232.958v38.957c0 .536-.427.999-.963.999h-.036c-.536 0-.963-.463-.963-.999v-38.957c0-.572.427-.999.963-.999h.036c.536 0 .963.427.963.999"/><path fill="#676C99" d="M509.079 265.602v5.601c0 .964-.75 1.713-1.677 1.713a1.713 1.713 0 0 1-1.713-1.713v-5.601c0-.928.785-1.677 1.713-1.677.927 0 1.677.749 1.677 1.677"/><path fill="#8CABE2" d="M394.63 202.063h73.99v92.65h-75.881v-92.65zm70.282 3.711h-68.427v85.193h68.427z"/><path fill="#8CABE2" d="M393.275 202.562h72.135v88.903h-72.135z"/><path fill="#C6D9F7" d="M465.411 206.309v85.157h-68.39v-85.157z"/><path fill="#fff" d="M393.275 200.707h74.029v92.65h-75.882v-92.65h1.855zm70.282 3.746H395.13v85.158h68.427z"/><path fill="#8CABE2" d="M409.934 227.821h40.957v40.955h-40.957z"/><path fill="#fff" d="M450.891 256.72v12.057h-40.957V256.72l20.479-10.917z"/><path fill="#676C99" d="m430.413 233.992 9.098 5.281v17.017l-9.098 5.281-9.134-5.281v-17.017z"/><path fill="#fff" d="M455.136 98.066h5.53v375.705h-5.53zm74.171 34.927h5.53l1.212 319.371h-5.53z"/><path fill="#C6D9F7" d="M339.938 23.326v484.121H239.405V23.327z"/><path fill="#6F90C5" d="M339.938 23.326v484.121l19.658-4.922V23.326z"/><path fill="#ACC5ED" d="M239.405 334.064h100.533v173.383H239.405z"/><path fill="#9A5931" d="M160.738 80.803H-19.959c-7.278 0-13.2 5.921-13.2 13.164v408.667h207.1V93.967c0-7.243-5.922-13.164-13.201-13.164z"/><path fill="#FAB886" d="M149.929 80.803H-30.805c-7.243 0-13.165 5.921-13.165 13.164v408.667h207.1V93.967c0-7.243-5.958-13.164-13.201-13.164"/><path fill="#FFEAE0" d="M142.58 102.245h-166v400.389h166z"/><path fill="#9A5931" d="M105.691 141.38H79.006a4.065 4.065 0 0 0-4.066 4.066v182.626a4.065 4.065 0 0 0 4.066 4.066h26.685a4.065 4.065 0 0 0 4.067-4.066V145.448a4.066 4.066 0 0 0-4.067-4.066z"/><path fill="#8CABE2" d="M112.576 141.38h-26.72c-2.212 0-4.031 1.82-4.031 4.066v182.626c0 2.247 1.82 4.066 4.03 4.066h26.721c2.211 0 4.031-1.819 4.031-4.066V145.448c0-2.246-1.82-4.066-4.031-4.066z"/><path fill="#ABC2EA" d="M81.822 192.254v18.872l34.785-52.408v-13.272a4.02 4.02 0 0 0-1.571-3.21zm0 46.343v50.446l34.785-52.408v-50.447zm0 64.216v18.872l34.785-52.373V250.44z"/><path fill="#676C99" d="M216.107 499.065H327.63a4.14 4.14 0 0 1 4.137 4.138v8.776H212.003v-8.776c0-2.282 1.855-4.138 4.102-4.138z"/><path fill="#fff" d="M221.886 254.756h99.964v235.177h-99.964z"/><path fill="#676C99" d="M222.778 257.718h98.216c2.247 0 4.102-1.855 4.102-4.102v-8.775H218.674v8.775a4.103 4.103 0 0 0 4.102 4.102z"/><path fill="#ACC5ED" d="M324.918 254.756c.107-.356.178-.75.178-1.142v-.249H218.674v.249c0 .392.036.786.143 1.142z"/><path fill="#8CABE2" d="M222.778 489.932h98.216c2.247 0 4.102 1.855 4.102 4.102v8.811H218.674v-8.811a4.103 4.103 0 0 1 4.102-4.102z"/><path fill="#676C99" d="M324.918 492.928c.107.356.178.714.178 1.105v.249H218.674v-.249c0-.391.036-.749.143-1.105z"/><path fill="#6F90C5" d="M250.249 371.168h43.239c1.391 0 2.534 1.141 2.534 2.569a2.544 2.544 0 0 1-2.534 2.534h-43.239a2.544 2.544 0 0 1-2.534-2.534c0-1.428 1.141-2.569 2.534-2.569"/><path fill="#ACC5ED" d="M253.959 379.729h35.819a1.6 1.6 0 0 1 1.606 1.607 1.6 1.6 0 0 1-1.606 1.606h-35.819a1.6 1.6 0 0 1-1.606-1.606 1.6 1.6 0 0 1 1.606-1.607m-1.464-16.41h38.78a2.3 2.3 0 0 1 2.282 2.283 2.3 2.3 0 0 1-2.282 2.282h-38.78a2.3 2.3 0 0 1-2.282-2.282 2.3 2.3 0 0 1 2.282-2.283"/><path fill="#C6D9F7" d="M241.151 394.214c5.708 0 10.346 4.638 10.346 10.346s-4.638 10.382-10.346 10.382-10.347-4.638-10.347-10.382a10.33 10.33 0 0 1 10.347-10.346"/><path fill="#fff" d="M241.364 397.391a7.377 7.377 0 0 1 7.386 7.385c0 4.104-3.319 7.421-7.386 7.421-4.066 0-7.421-3.319-7.421-7.421s3.319-7.385 7.421-7.385"/><path fill="#6F90C5" d="M241.328 397.175c2.854 0 5.353 1.606 6.636 3.959-.5.214-.572.857-.32 1.142.427.462.32 1.354-.679 1.534-.999.181-1.997 1.248-1.713 2.783.285 1.571-.749 2.247-2.068 1.678-1.32-.572-2.783.106-2.283 1.89.321 1.142-.106 1.784-.821 2.034-3.603-.572-6.315-3.711-6.315-7.457a7.57 7.57 0 0 1 7.563-7.563"/><path fill="#C6D9F7" d="M241.329 402.206a2.543 2.543 0 0 1 2.533 2.534c0 1.392-1.141 2.569-2.533 2.569a2.58 2.58 0 0 1-2.57-2.569c0-1.428 1.141-2.534 2.57-2.534m13.807 1.283h14.628c.679 0 1.248.572 1.248 1.248 0 .714-.572 1.284-1.248 1.284h-14.628c-.679 0-1.248-.572-1.248-1.284 0-.678.572-1.248 1.248-1.248"/><path fill="#ACC5ED" d="M256.348 407.735h12.237c.427 0 .785.356.785.786a.79.79 0 0 1-.785.785h-12.237c-.463 0-.821-.356-.821-.785 0-.427.356-.786.821-.786m-.427-8.17h13.094c.607 0 1.105.537 1.105 1.142 0 .642-.5 1.141-1.105 1.141h-13.094a1.127 1.127 0 0 1-1.141-1.141 1.15 1.15 0 0 1 1.141-1.142"/><path fill="#C6D9F7" d="M286.423 394.214c5.708 0 10.346 4.638 10.346 10.346s-4.638 10.382-10.346 10.382-10.381-4.638-10.381-10.382 4.638-10.346 10.381-10.346"/><path fill="#fff" d="M286.601 397.391c4.102 0 7.421 3.281 7.421 7.385a7.415 7.415 0 0 1-7.421 7.421c-4.102 0-7.385-3.319-7.385-7.421a7.38 7.38 0 0 1 7.385-7.385"/><path fill="#6F90C5" d="M286.601 397.175c2.854 0 5.352 1.606 6.636 3.959-.536.214-.572.857-.32 1.142.427.462.32 1.354-.679 1.534-.999.181-1.997 1.248-1.713 2.783.249 1.571-.785 2.247-2.068 1.678-1.32-.572-2.783.106-2.283 1.89.321 1.142-.107 1.784-.821 2.034-3.603-.572-6.315-3.711-6.315-7.457a7.546 7.546 0 0 1 7.563-7.563"/><path fill="#C6D9F7" d="M286.601 402.206a2.544 2.544 0 0 1 2.534 2.534c0 1.392-1.141 2.569-2.534 2.569a2.58 2.58 0 0 1-2.569-2.569c0-1.428 1.141-2.534 2.569-2.534m13.808 1.283h14.59c.714 0 1.283.572 1.283 1.248 0 .714-.571 1.284-1.283 1.284h-14.59c-.679 0-1.248-.572-1.248-1.284 0-.678.571-1.248 1.248-1.248"/><path fill="#ACC5ED" d="M301.585 407.735h12.237c.463 0 .821.356.821.786 0 .427-.356.785-.821.785h-12.237a.79.79 0 0 1-.785-.785c0-.427.356-.786.785-.786m-.427-8.17h13.094a1.15 1.15 0 0 1 1.141 1.142c0 .642-.501 1.141-1.141 1.141h-13.094c-.607 0-1.105-.501-1.105-1.141 0-.608.5-1.142 1.105-1.142"/><path fill="#C6D9F7" d="M241.151 424.502c5.708 0 10.346 4.638 10.346 10.346s-4.638 10.346-10.346 10.346-10.347-4.638-10.347-10.346 4.638-10.346 10.347-10.346"/><path fill="#fff" d="M241.364 427.643c4.066 0 7.385 3.319 7.385 7.42a7.38 7.38 0 0 1-7.385 7.386c-4.066 0-7.421-3.319-7.421-7.386 0-4.066 3.319-7.42 7.421-7.42"/><path fill="#6F90C5" d="M241.328 427.466c2.854 0 5.353 1.606 6.636 3.959-.5.214-.572.857-.32 1.106.427.463.32 1.355-.679 1.57-.999.178-1.997 1.213-1.713 2.783.285 1.535-.749 2.211-2.068 1.678-1.32-.572-2.783.071-2.283 1.89.321 1.142-.106 1.784-.821 2.034-3.603-.608-6.315-3.711-6.315-7.457a7.57 7.57 0 0 1 7.563-7.563"/><path fill="#C6D9F7" d="M241.329 432.459c1.39 0 2.533 1.141 2.533 2.569a2.52 2.52 0 0 1-2.533 2.534c-1.393 0-2.57-1.141-2.57-2.534a2.58 2.58 0 0 1 2.57-2.569m13.807 1.284h14.628c.679 0 1.248.572 1.248 1.284 0 .678-.572 1.248-1.248 1.248h-14.628a1.263 1.263 0 0 1-1.248-1.248c0-.714.572-1.284 1.248-1.284"/><path fill="#ACC5ED" d="M255.921 429.854h13.094c.607 0 1.105.501 1.105 1.142 0 .607-.5 1.141-1.105 1.141h-13.094a1.15 1.15 0 0 1-1.141-1.141c0-.643.501-1.142 1.141-1.142"/><path fill="#C6D9F7" d="M286.423 424.502c5.708 0 10.346 4.638 10.346 10.346s-4.638 10.346-10.346 10.346-10.381-4.638-10.381-10.346 4.638-10.346 10.381-10.346"/><path fill="#fff" d="M286.601 427.643a7.416 7.416 0 0 1 7.421 7.42c0 4.102-3.319 7.386-7.421 7.386a7.38 7.38 0 0 1-7.385-7.386c0-4.066 3.319-7.42 7.385-7.42"/><path fill="#6F90C5" d="M286.601 427.466c2.854 0 5.352 1.606 6.636 3.959-.536.214-.572.857-.32 1.106.427.463.32 1.355-.679 1.57-.999.178-1.997 1.213-1.713 2.783.249 1.535-.785 2.211-2.068 1.678-1.32-.572-2.783.071-2.283 1.89.321 1.142-.107 1.784-.821 2.034-3.603-.608-6.315-3.711-6.315-7.457a7.546 7.546 0 0 1 7.563-7.563"/><path fill="#C6D9F7" d="M286.601 432.459c1.39 0 2.534 1.141 2.534 2.569a2.52 2.52 0 0 1-2.534 2.534c-1.392 0-2.569-1.141-2.569-2.534a2.58 2.58 0 0 1 2.569-2.569"/><path fill="#ACC5ED" d="M301.585 433.885h12.237a.83.83 0 0 1 .821.821c0 .427-.356.785-.821.785h-12.237a.79.79 0 0 1-.785-.785c0-.428.356-.821.785-.821"/><path fill="#C6D9F7" d="M301.158 429.854h13.094c.643 0 1.141.501 1.141 1.142a1.15 1.15 0 0 1-1.141 1.141h-13.094c-.607 0-1.105-.536-1.105-1.141 0-.643.5-1.142 1.105-1.142m-60.007 23.156c5.708 0 10.346 4.638 10.346 10.346s-4.638 10.382-10.346 10.382-10.347-4.639-10.347-10.382a10.33 10.33 0 0 1 10.347-10.346"/><path fill="#fff" d="M241.364 456.184a7.377 7.377 0 0 1 7.385 7.385c0 4.104-3.319 7.421-7.385 7.421s-7.421-3.319-7.421-7.421 3.319-7.385 7.421-7.385"/><path fill="#6F90C5" d="M241.328 455.971c2.854 0 5.353 1.606 6.636 3.959-.5.214-.572.857-.32 1.141.427.463.32 1.355-.679 1.535-.999.181-1.997 1.248-1.713 2.783s-.749 2.247-2.068 1.677c-1.32-.571-2.783.107-2.283 1.891.321 1.141-.106 1.784-.821 2.033-3.603-.571-6.315-3.71-6.315-7.456a7.57 7.57 0 0 1 7.563-7.563"/><path fill="#C6D9F7" d="M241.329 461.001a2.543 2.543 0 0 1 2.533 2.534c0 1.392-1.141 2.569-2.533 2.569a2.58 2.58 0 0 1-2.57-2.569c0-1.428 1.141-2.534 2.57-2.534"/><path fill="#ACC5ED" d="M255.136 462.285h14.628c.679 0 1.248.572 1.248 1.248a1.24 1.24 0 0 1-1.248 1.248h-14.628a1.24 1.24 0 0 1-1.248-1.248c0-.678.572-1.248 1.248-1.248m1.212 4.244h12.237c.427 0 .785.356.785.786a.79.79 0 0 1-.785.785h-12.237c-.463 0-.821-.356-.821-.785 0-.428.356-.786.821-.786"/><path fill="#C6D9F7" d="M255.921 458.358h13.094c.607 0 1.105.537 1.105 1.142 0 .642-.5 1.141-1.105 1.141h-13.094a1.127 1.127 0 0 1-1.141-1.141 1.15 1.15 0 0 1 1.141-1.142m30.502-5.348c5.708 0 10.346 4.638 10.346 10.346s-4.638 10.382-10.346 10.382-10.381-4.639-10.381-10.382c0-5.744 4.638-10.346 10.381-10.346"/><path fill="#fff" d="M286.601 456.184c4.102 0 7.421 3.281 7.421 7.385a7.415 7.415 0 0 1-7.421 7.421c-4.102 0-7.385-3.319-7.385-7.421a7.38 7.38 0 0 1 7.385-7.385"/><path fill="#6F90C5" d="M286.601 455.971c2.854 0 5.352 1.606 6.636 3.959-.536.214-.572.857-.32 1.141.427.463.32 1.355-.679 1.535-.999.181-1.997 1.248-1.713 2.783.249 1.535-.785 2.247-2.068 1.677-1.32-.571-2.783.107-2.283 1.891.321 1.141-.107 1.784-.821 2.033-3.603-.571-6.315-3.71-6.315-7.456a7.546 7.546 0 0 1 7.563-7.563"/><path fill="#C6D9F7" d="M286.601 461.001a2.544 2.544 0 0 1 2.534 2.534c0 1.392-1.141 2.569-2.534 2.569a2.58 2.58 0 0 1-2.569-2.569c0-1.428 1.141-2.534 2.569-2.534m13.808 1.284h14.59c.714 0 1.283.572 1.283 1.248 0 .714-.571 1.248-1.283 1.248h-14.59a1.24 1.24 0 0 1-1.248-1.248c0-.678.571-1.248 1.248-1.248"/><path fill="#ACC5ED" d="M301.585 466.529h12.237c.463 0 .821.356.821.786 0 .427-.356.785-.821.785h-12.237a.79.79 0 0 1-.785-.785c0-.428.356-.786.785-.786m-.427-8.171h13.094a1.15 1.15 0 0 1 1.141 1.142c0 .642-.501 1.141-1.141 1.141h-13.094c-.607 0-1.105-.501-1.105-1.141 0-.608.5-1.142 1.105-1.142"/><path fill="#FA8C75" d="M271.869 269.704c20.692 0 37.46 16.768 37.46 37.46 0 20.693-16.768 37.425-37.46 37.425-20.693 0-37.461-16.768-37.461-37.425s16.768-37.46 37.461-37.46"/><path fill="#fff" d="M263.306 284.297h17.125v14.306h14.305v17.124h-14.305v14.305h-17.125v-14.305h-14.307v-17.124h14.307z"/><path fill="#6F90C5" d="M144.671 640.044h121.726a5.816 5.816 0 0 1 5.814 5.815c0 3.174-2.604 5.779-5.814 5.779H144.671c-3.175 0-5.78-2.605-5.78-5.779 0-3.21 2.605-5.815 5.78-5.815"/><path fill="#A65645" d="M237.498 621.775s24.652 11.881 25.117 12.024c.501.142 5.779 1.034 5.136 4.173-.607 3.103-2.711 5.601-2.711 5.601s-.75 1.035-3.246 1.248c-2.498.214-54.264-.678-54.264-.678s-5.921.32-5.85-4.173c.071-4.496.714-20.55.714-20.55v-13.592h30.753l4.354 15.947z"/><path fill="#171948" d="M267.144 640.004c-.856 2.104-2.104 3.568-2.104 3.568s-.75 1.034-3.246 1.248c-2.498.213-54.264-.679-54.264-.679s-5.85.321-5.85-4.137zm-19.871-13.307c.177-.178.213-.463.035-.643a.46.46 0 0 0-.643-.071l-7.278 6.28a.41.41 0 0 0-.036.607c.142.214.427.214.607.071zm-4.816-2.246a.467.467 0 0 0 .142-.643c-.142-.213-.427-.249-.643-.142l-7.314 4.887a.42.42 0 0 0-.107.607c.142.214.392.285.607.143z"/><path fill="#667F93" d="m208.529 371.437 4.209-2.711 28.969-2.283s3.319.821 3.174 4.567c-.142 3.746-3.674 105.992-3.674 105.992l-3.319 63.538-1.177 68.248 1.784 9.026 1.248 3.853s-1.248 2.247-4.138 2.392c-2.925.142-23.475.142-23.475.142l-9.027 4.425s-4.709.427-4.566-4.567.963-12.38.963-12.38l1.962-28.862-4.318-130.324 11.381-81.056z"/><path fill="#445460" d="M232.253 610.322c.249-.035.427-.284.392-.5-.072-.249-.285-.427-.537-.392-.071 0-17.088 3.032-23.759 4.102-6.885 1.141-9.597 3.068-9.632 3.068a.493.493 0 0 0-.107.643.493.493 0 0 0 .643.107s2.569-1.82 9.24-2.926c6.885-1.105 23.724-4.102 23.76-4.102m.287-113.27c.036-.25-.178-.463-.427-.463s-.463.178-.463.427-2.318 77.737-2.533 89.725c-.25 12.023 0 19.086 0 19.086a.47.47 0 0 0 .462.462c.249-.035.427-.213.427-.462 0-.036-.213-7.063 0-19.051.214-11.988 2.534-89.511 2.534-89.724"/><path fill="#A65645" d="m182.487 626.412 2.711 4.138 11.132 12.308s.963 2.211.749 4.208c-.213 2.034-2.64 2.997-2.64 2.997h-23.046s-7.883-.501-11.916-1.177c-4.031-.678-9.881-2.14-9.881-2.14s-1.355-1.106-.679-5.281c.679-4.173 1.82-13.485 1.82-13.485l1.784-13.591 29.218 1.606.75 10.417z"/><path fill="#171948" d="M196.615 643.678c.284.821.607 2.14.462 3.39-.213 2.033-2.64 2.996-2.64 2.996h-23.046s-7.883-.5-11.916-1.176c-4.031-.679-9.882-2.14-9.882-2.14s-1.354-1.106-.678-5.281c.071-.356.107-.75.178-1.177 3.639.643 8.562 1.535 11.81 2.176 5.637 1.105 9.205 1.212 9.205 1.212zm-8.456-7.205c.249 0 .427-.178.463-.427a.47.47 0 0 0-.463-.463l-20.3-.427c-.249-.035-.463.178-.463.427s.178.463.427.463zm-4.139-4.211c.249 0 .465-.178.465-.427.035-.249-.178-.463-.428-.463l-12.773-.465a.473.473 0 0 0-.464.465c0 .252.213.427.427.463z"/><path fill="#667F93" d="M214.56 373.042s-1.106 33.572-3.032 37.173c-1.962 3.639-4.174 10.56-4.174 10.56L195.26 499.19l-9.49 129.574-.571 1.784s-5.137-2.354-8.456-1.642c-3.319.679-26.079 5.815-26.079 5.815s-3.747.572-4.174-2.498c-.427-3.032.143-8.74.143-8.74l2.498-4.318s1.034-73.741 2.569-81.376c1.535-7.634 1.677-8.064 1.677-8.064s-3.067-58.437-2.782-71.744c.249-13.342 4.994-85.8 4.994-85.8s-1.391-3.032 1.926-3.889h52.193s3.888-1.926 4.852 4.745z"/><path fill="#445460" d="M214.987 373.826c0-.249-.178-.463-.427-.463s-.463.178-.463.427c0 .107-.678 29.72-2.391 34.142l-4.781 12.699-.035.072-12.059 78.415a.48.48 0 0 0 .391.536.445.445 0 0 0 .501-.392l12.059-78.379 4.744-12.629c1.785-4.602 2.463-34.355 2.463-34.428z"/><path fill="#445460" d="M209.815 373.826c0-.249-.178-.463-.427-.463s-.465.178-.465.427l-1.213 44.559c0 .249.178.463.428.463.249.035.462-.178.462-.427l1.213-44.559zm-28.863 244.845a.504.504 0 0 0 .501-.427c0-.249-.178-.463-.427-.463-.036-.035-10.702-.927-16.555.321-5.779 1.212-17.945 4.958-17.981 4.958-.249.071-.355.32-.284.572.071.213.32.356.536.285.035 0 12.166-3.711 17.909-4.923 5.708-1.213 16.268-.321 16.303-.321zm-20.014-127.612c0-.249-.177-.462-.427-.462-.249 0-.462.178-.462.427l-1.355 39.956c-.107.821-3.103 19.978-3.103 29.79s.391 53.728.391 53.835c0 .249.214.463.465.463.252 0 .427-.214.427-.463 0-.107-.391-43.56-.391-53.835s3.103-29.61 3.103-29.681l1.355-40.027z"/><path fill="#fff" d="m228.972 248.428 13.235-5.21s6.529 4.173 8.491 8.064c1.927 3.888 15.805 63.824 15.805 63.824s1.464 10.347-7.848 12.166c-9.276 1.784-16.768-.427-16.768-.427l-18.052-69.675 5.137-8.74z"/><path fill="#06D0A0" d="M222.621 232.731h-38.744l-6.956 20.299v115.268h50.302V264.019z"/><path fill="#503DA0" d="m216.092 242.22-4.493 4.173 6.528 98.681-7.349 14.128-9.49-14.878 5.922-97.895-6.921-6.707 6.565-5.352 6.778.178z"/><path fill="#06AA83" d="m214.63 223.668 2.534 1.32 3.281 3.496s3.711 5.495 2.57 8.278l-3.782 9.133s-1.713 2.712-3.139.501l-7.243-11.06-8.241 10.346s-1.535 2.211-4.994-.214c-3.497-2.427-12.664-16.803-12.664-16.803s-.178-4.318 1.07-6.316c1.248-1.997 7.065-4.424 7.065-4.424l23.546 5.743z"/><path fill="#FDA77E" d="M217.162 212.931v15.911s-.714 5.424-9.881 4.318c-9.134-1.141-17.124-9.24-17.124-9.24l-.214-24.51 27.221 13.521z"/><path fill="#D05F3C" d="M217.162 212.931v9.489c-6.422.071-14.877-.32-19.121-2.818-3.853-2.247-6.458-7.279-8.029-11.559l-.071-8.633z"/><path fill="#571F0E" d="M231.648 364.019h-57.439v8.132h57.439z"/><path fill="#fff" d="M218.341 362.412h-12.628c-.928 0-1.678.75-1.678 1.677v8.064c0 .928.75 1.677 1.678 1.677h12.628c.892 0 1.642-.749 1.642-1.677v-8.064c0-.927-.75-1.677-1.642-1.677"/><path fill="#5EA796" d="M289.978 272.793c.821-.642.964-1.819.321-2.604a1.834 1.834 0 0 0-2.605-.321l-29.755 23.262c-.821.643-3.959 3.995-3.319 4.816.608.785 4.781-1.248 5.602-1.891l29.754-23.262z"/><path fill="#FDA77E" d="M282.914 281.927s3.461.571 4.101 2.925c.679 2.353-1.39 14.234-2.747 16.196-1.319 1.962-6.956 7.741-6.956 7.741s-2.282 1.355-4.246.572c-1.927-.785-8.384-4.887-8.384-4.887s-1.927-1.713-1.571-3.319c.356-1.642 3.497-12.593 3.497-12.593l.249-1.034-4.78-2.854s-1.141-1.284-.392-2.641c.75-1.319 2.105-2.427 2.105-2.427l19.121 2.318z"/><path fill="#AC5649" d="M276.064 291.808c.214.107.463 0 .572-.249.107-.214 0-.463-.249-.572l-9.348-3.888c-.249-.107-.5 0-.607.249a.41.41 0 0 0 .249.572zm-5.065 11.736c.214.143.501.072.607-.142.143-.213.071-.5-.142-.607l-7.492-4.496c-.214-.107-.463-.035-.607.178-.143.214-.072.463.142.607zm2.854-5.494c.214.107.463 0 .607-.214.107-.213 0-.5-.213-.607l-8.811-4.282c-.214-.107-.501-.036-.608.178a.46.46 0 0 0 .214.607z"/><path fill="#FDA77E" d="m229.399 171.547-.427 15.912-1.106 13.807s-2.676 13.556-10.31 15.554l-10.524-.178s-9.099-2.033-12.024-6.458c-2.925-4.46-5.065-10.773-5.065-10.773s-5.921-.999-5.779-10.31c.107-9.276 6.92-6.992 7.741-1.784l.892-5.101.071-11.665s.463-8.527 12.558-9.919c12.058-1.391 22.547 3.39 23.973 10.917z"/><path fill="#AC5649" d="M220.624 202.764c.249 0 .427-.25.391-.501a.396.396 0 0 0-.463-.392c-.035 0-6.457.608-13.413-1.034-.214-.071-.463.107-.536.356a.495.495 0 0 0 .355.536c7.063 1.677 13.628 1.035 13.663 1.035z"/><path fill="#824B36" d="M227.795 179.324c.214.142.501.142.643-.072.142-.178.107-.462-.071-.643-.036 0-3.21-2.533-8.491.25-.214.106-.285.391-.178.607s.391.285.607.178c4.745-2.498 7.492-.32 7.492-.32zm-18.232-.036c.178.178.501.178.643 0a.454.454 0 0 0 0-.643s-3.568-3.461-9.525-.785c-.214.107-.32.391-.214.607.107.214.356.32.608.214 5.387-2.427 8.491.607 8.491.607z"/><path fill="#AC5649" d="M185.483 186.959c-.071.249.071.5.32.536.25.071.501-.107.537-.32.071-.285.284-.572.536-.786.213-.142.427-.249.678-.284.214-.036.392-.036.607.071.178.107.356.32.501.607.356.821.643 2.247.821 3.675.178 1.642.213 3.21.035 3.853-.249 1.034-1.319 1.212-1.319 1.212a.444.444 0 0 0-.391.501.477.477 0 0 0 .536.391s1.677-.285 2.069-1.891c.178-.749.142-2.462-.036-4.137-.178-1.535-.5-3.068-.892-3.96a2.15 2.15 0 0 0-.892-1.034c-.392-.214-.785-.249-1.212-.178-.356.071-.75.249-1.035.463-.427.32-.749.785-.856 1.283z"/><path fill="#AC5649" d="M185.981 190.883c-.142.214-.106.501.107.643a.447.447 0 0 0 .607-.071s.214-.285 1.213-.427c.999-.107 1.784.678 1.784.678a.454.454 0 1 0 .643-.643s-1.106-1.105-2.534-.927c-1.39.178-1.82.749-1.82.749z"/><path fill="#824B36" d="M199.504 164.091s1.606 2.996.501 5.886c-1.106 2.925-7.172 5.423-7.172 5.423s2.534 8.598-.928 11.917c0 0-2.818-5.317-6.099-3.746 0 0-4.389-6.28-4.247-11.988.143-5.672 1.571-6.387 1.571-6.387s1.39-6.991 5.637-9.489 11.095-.285 11.095-.285l-.356 8.669z"/><path fill="#824B36" d="M235.036 176.649s-8.242.571-11.238-9.17c0 0-9.169.427-14.163-1.713-4.994-2.175-7.063-1.748-7.063-1.748l-2.14 1.464s-5.993-2.069-5.993-7.35 4.709-10.097 11.988-9.419c7.278.715 15.876 2.034 20.692 7.991 4.781 5.957 6.028 15.269 7.955 16.732 1.962 1.429 2.925 1.391 2.925 1.391l-2.961 1.819z"/><path fill="#C38F6A" d="M223.513 161.415a.46.46 0 0 0 .32-.572c-.035-.249-.284-.391-.536-.32-.035 0-5.245 1.464-12.308-1.748-1.997-.892-3.924-1.32-5.672-1.32-1.927-.035-3.639.392-5.03 1.142-1.39.714-2.427 1.784-2.96 2.96a4.5 4.5 0 0 0-.392 1.82c0 .249.178.465.427.465a.474.474 0 0 0 .465-.465c0-.5.107-.963.32-1.464.463-.998 1.355-1.89 2.57-2.533 1.248-.679 2.818-1.07 4.602-1.035 1.606.036 3.426.392 5.317 1.248 7.349 3.355 12.879 1.82 12.879 1.82zm5.352 5.317c.214-.107.321-.392.214-.608-.107-.213-.356-.32-.572-.213-.035 0-4.031 1.784-12.737.821-.249-.036-.463.142-.501.391-.035.249.143.463.392.501 8.953.998 13.164-.892 13.2-.892zm-14.842-10.738c.214.107.465-.036.537-.285.071-.249-.036-.5-.285-.571-.071 0-18.659-5.886-19.658 5.708a.394.394 0 0 0 .392.462c.249.036.462-.142.5-.391.892-10.453 18.446-4.923 18.517-4.923z"/><path fill="#7E3E35" d="m204.142 182.214-.071 3.138s.036.857.785.963c.75.107 1.248-.035 1.464-.678.214-.643.142-3.782.142-3.782s-.071-.82-.963-.856-1.319.427-1.355 1.212zm19.157.892-.071 3.139s.036.856.786.963c.749.107 1.247-.036 1.463-.678.216-.643.143-3.782.143-3.782s-.107-.821-.964-.856c-.892-.036-1.319.427-1.354 1.212z"/><path fill="#AC5649" d="M217.091 207.044a.444.444 0 0 0 .391-.501.443.443 0 0 0-.5-.391s-3.462.5-7.67-.607a.506.506 0 0 0-.536.32.46.46 0 0 0 .32.572c4.353 1.141 7.99.607 7.99.607z"/><path fill="#654D4D" d="M199.54 182.712c.249-.036.427-.285.391-.501a.443.443 0 0 0-.5-.391l-10.311 1.39a.48.48 0 0 0-.391.536c.035.25.249.392.5.356z"/><path fill="#AC5649" d="M194.365 190.132a.454.454 0 0 0-.642.643l5.53 5.281a.41.41 0 0 0 .607-.035c.178-.178.178-.465 0-.608zm30.147 7.207a.45.45 0 0 0 .071.608c.178.178.465.142.643-.036l2.925-3.675c.178-.213.142-.5-.071-.643-.178-.142-.463-.142-.608.072z"/><path fill="#EE7353" d="M218.839 194.237s.143.963-3.319.284c-3.496-.643-5.458.427-5.458.427s-.643 3.175 1.89 3.533c2.534.391 5.459.142 6.885-4.247z"/><path fill="#AC5649" d="M218.377 181.822a.55.55 0 0 0-.143-.643.514.514 0 0 0-.643.178s-2.391 3.782-1.141 7.063a47 47 0 0 1 1.82 5.779c-.214.572-1.248 3.319-3.319 3.817-2.391.572-4.318-.536-4.318-.536-.213-.107-.5-.036-.607.178-.142.249-.036.5.178.643 0 0 2.211 1.248 4.958.571 2.819-.678 3.996-4.531 3.996-4.531l.035-.249c-.035 0-.714-2.925-1.891-6.028-1.105-2.819 1.035-6.244 1.07-6.244z"/><path fill="#654D4D" d="M198.968 181.822c-.249 0-.463.178-.463.427-.035.249.178.462.427.462l18.908.821c.036 1.284.143 4.887 1.213 6.529.643 1.034 2.033 1.571 3.639 1.748 1.784.214 3.924 0 5.601-.5 3.355-.999 3.426-7.599 3.426-7.634l.036-.428-32.787-1.428zm19.8 1.748 12.059.536c-.107 1.39-.536 5.673-2.783 6.351-1.57.463-3.568.678-5.245.463-1.355-.178-2.498-.572-2.997-1.319-.927-1.464-1.034-4.781-1.034-6.029z"/><path fill="#654D4D" d="M212.74 182.855a.47.47 0 0 0-.463-.462.47.47 0 0 0-.463.462s.071 5.922-2.427 6.743c-1.428.465-3.675.572-5.637.285-1.606-.214-2.996-.715-3.461-1.464-1.034-1.784-.821-6.138-.821-6.173.036-.249-.178-.463-.427-.463s-.462.178-.462.427c0 0-.25 4.674.963 6.672.607 1.034 2.211 1.641 4.102 1.89 2.068.285 4.46.178 6.028-.32 3.139-.999 3.068-7.599 3.068-7.599z"/><path fill="#fff" d="M187.445 225.094s4.781 5.886 5.423 11.381c.214 2.069.928 34.177 1.678 73.243 1.248 64.074-2.211 178.415-2.211 178.415s.571 4.994-6.387 4.46c-6.92-.572-41.349-8.882-41.349-8.882s-6.099-2.247-5.814-8.883c.249-6.671 16.946-152.977 16.946-152.977l-3.889-59.152s-3.888-20.263 1.962-24.972c4.318-3.532 19.015-10.346 26.187-13.591a176 176 0 0 1 4.031-1.784l3.425 2.747zm33.072 7.101 5.352 256.974s.892 4.389 3.959 3.675c3.068-.678 23.046-11.81 23.046-11.81s2.069-2.498 2.354-7.349c.284-4.852-7.063-121.726-7.063-121.726l-.857-9.704s3.068-48.02 3.068-57.474-7.027-40.027-7.027-40.027-.142-.821-2.641-2.783c-2.498-1.926-20.265-13.485-20.265-13.485l.072 3.711z"/><path fill="#99C3DB" d="m181.559 223.097-6.028 18.872c-.107.214-1.284 3.319 1.784 5.815l.071.036 15.841 8.882.427-.821-15.805-8.847c-2.605-2.14-1.5-4.709-1.5-4.709l6.064-18.944-.856-.284z"/><path fill="#99C3DB" d="m195.187 321.134-15.483-60.755c-.035-.427-.285-3.532 1.034-4.173l6.458-3.139-.391-.785-6.422 3.103c-2.034.964-1.571 5.101-1.571 5.137l.036.071 15.482 60.755zm32.893-87.227 4.673 12.664c.072.249.679 2.712-.963 4.781l-11.131 5.921.427.785 11.203-5.957.142-.106c2.104-2.534 1.212-5.673 1.177-5.708l-4.674-12.7-.856.32z"/><path fill="#99C3DB" d="m222.194 320.494 10.311-58.046v-.071s.142-2.392-1.713-3.568l-5.815-3.604-.463.785 5.779 3.604c1.319.821 1.32 2.463 1.32 2.712l-10.311 58.045zm23.653-66.395a.43.43 0 0 0-.536-.356c-.214.036-.392.285-.32.536 0 .036 3.209 14.949 4.495 24.866 1.248 9.919-.285 23.475-.285 23.51-.035.249.143.501.392.501.249.035.463-.143.501-.392 0-.035 1.57-13.7.284-23.724-1.283-9.99-4.495-24.901-4.531-24.936z"/><path fill="#99C3DB" d="M249.199 257.202a.473.473 0 0 0-.462-.465c-.249.036-.427.214-.427.465 0 .036.142 3.319-.857 9.312-.035.249.107.5.356.536a.48.48 0 0 0 .536-.391c1.035-6.064.857-9.455.857-9.455zm-94.398 126.474c-.249 0-.465-.249-.465-.501a.444.444 0 0 1 .501-.391l35.391 2.961-.536 12.986c0 .143 0 3.533-2.104 3.889h-.107l-30.538-2.247c-.391.035-3.281.213-3.746-2.14v-12.916c0-.249.214-.427.463-.427a.476.476 0 0 1 .427.501v12.737c.356 1.606 2.783 1.319 2.783 1.319h.071l30.502 2.247c1.355-.285 1.319-2.961 1.319-2.996l.536-12.095-34.499-2.925z"/><path fill="#99C3DB" d="M153.34 400.264a.443.443 0 0 1 .5-.391c.214.035.427.249.392.5l-1.213 19.338v.071s-.607 2.391 3.281 2.498l26.543 1.428h.071s3.497.75 3.533-1.428l.856-18.588a.5.5 0 0 1 .5-.427c.25.036.428.249.392.501l-.856 18.587c-.072 3.032-4.102 2.354-4.532 2.247l-26.507-1.39c-4.78-.143-4.244-3.319-4.173-3.639l1.213-19.3zm75.81-16.911a.47.47 0 0 1-.463-.463c0-.249.178-.462.427-.462l20.657-1.177.75 13.058c0 .106.356 3.532-1.678 4.137h-.106l-15.77 1.319c-.391.072-3.245.608-3.924-1.677v-.107l-1.283-12.808a.394.394 0 0 1 .391-.463c.249-.036.463.142.501.392l1.248 12.773c.536 1.57 2.889.963 2.889.963h.071l15.734-1.284c1.319-.462 1.035-3.174 1.035-3.174l-.714-12.201-19.765 1.176z"/><path fill="#99C3DB" d="M229.399 400.121c-.036-.249.178-.462.427-.462.214 0 .427.178.463.427l.714 19.48v.071s-.392 2.498 3.461 2.14l11.772-1.642h.071s3.497.285 3.319-1.891l-.963-18.694c0-.25.178-.463.427-.463.249-.036.463.178.463.427l.963 18.695c.249 3.032-3.817 2.854-4.247 2.818l-11.7 1.642c-4.745.462-4.532-2.783-4.46-3.139l-.714-19.409z"/><path fill="#654D4D" d="M230.827 232.839a1.037 1.037 0 0 0-1.499 0 1.07 1.07 0 0 0 .035 1.499s6.849 6.636 7.243 14.341c.427 8.135.572 46.557.572 46.663 0 .572.463 1.07 1.07 1.07.572 0 1.034-.5 1.034-1.07 0-.106-.178-38.637-.571-46.772-.463-8.562-7.848-15.733-7.884-15.733z"/><path fill="#654D4D" d="M238.034 292.381a6.775 6.775 0 0 0-6.778 6.778 6.775 6.775 0 0 0 6.778 6.778 6.775 6.775 0 0 0 6.778-6.778 6.775 6.775 0 0 0-6.778-6.778"/><path fill="gray" d="M240.494 297.517c-.892-1.354-2.711-1.712-4.066-.82s-1.748 2.747-.821 4.066c.892 1.355 2.712 1.748 4.067.821 1.354-.892 1.712-2.712.82-4.067"/><path fill="#06AA83" d="M181.272 262.554c.536-.142.928-.714.786-1.283a1.037 1.037 0 0 0-1.248-.785s-9.205 1.89-12.095 9.56c-2.747 7.314-2.676 16.054-2.676 16.09 0 .572.465 1.07 1.07 1.07.572 0 1.034-.5 1.034-1.07 0-.036-.071-8.42 2.534-15.34 2.498-6.6 10.56-8.242 10.595-8.242"/><path fill="#999" d="M176.743 315.107a.625.625 0 0 0 .607-.607.624.624 0 0 0-.607-.608c-.035 0-5.601.072-6.386-1.926-.928-2.247-2.641-25.793-2.676-25.864 0-.32-.285-.572-.643-.572-.321.036-.572.321-.536.643 0 .071 1.748 23.831 2.747 26.258 1.105 2.747 7.456 2.676 7.492 2.676z"/><path fill="#06AA83" d="M181.272 260.486c-.572-.143-1.141.249-1.283.785a1.114 1.114 0 0 0 .82 1.283c.036 0 8.1 1.642 10.56 8.242 2.605 6.92 2.569 15.304 2.569 15.34 0 .572.463 1.07 1.035 1.07s1.07-.5 1.07-1.07c0-.036.071-8.776-2.676-16.09-2.89-7.67-12.095-9.56-12.095-9.56"/><path fill="#999" d="M185.341 313.893a.603.603 0 0 0-.608.608c0 .322.25.607.608.607 0 0 6.386.071 7.492-2.676.999-2.427 2.747-26.187 2.747-26.258.036-.32-.214-.607-.572-.643a.655.655 0 0 0-.643.572c0 .071-1.748 23.617-2.64 25.864-.821 1.998-6.387 1.926-6.387 1.926z"/><path fill="#06AA83" d="M179.989 261.592c.035.571.536.998 1.141.963.571-.036.999-.536.963-1.141l-1.855-24.332v-.071c0-.036-1.355-11.416-9.098-10.809-.572.036-.999.536-.964 1.141.036.572.536.999 1.142.964 5.458-.428 6.706 8.134 6.813 8.918l1.855 24.367z"/><path fill="#999" d="M177.849 313.073c-.892 0-1.642.608-1.642 1.319 0 .75.75 1.355 1.642 1.355s.821-.572.821-1.283c0-.75.071-1.391-.821-1.391m6.064 0c.892 0 1.641.608 1.641 1.319 0 .75-.749 1.355-1.641 1.355s-.857-.572-.857-1.283c0-.75-.035-1.391.857-1.391"/><path fill="#fff" d="m163.149 276.931-5.85 59.116s-2.605 5.136-12.628 5.815c-9.991.714-16.161-4.709-16.161-4.709l6.956-77.097s-.75-14.163 20.443-23.83c0 0 9.24 2.854 9.098 11.736l-1.855 28.969z"/><path fill="#99C3DB" d="M164.577 261.485a.396.396 0 0 0-.391-.465.447.447 0 0 0-.501.392l-5.171 58.01c-.036.249.142.462.391.5a.504.504 0 0 0 .501-.427z"/><path fill="#99C3DB" d="M169.323 262.448a.48.48 0 0 0-.392-.536c-.249-.036-.463.142-.501.391 0 .036-1.748 11.772-6.137 15.948a.453.453 0 0 0 0 .642c.178.178.463.214.643.036 4.602-4.424 6.387-16.481 6.387-16.481"/><path fill="#FDA77E" d="m216.163 333.3.321-2.246s5.1-3.462 8.955-4.567c3.889-1.106 19.373-.607 19.373-.607s1.962 1.248.428 3.032c-1.535 1.819-9.597 1.534-9.597 1.534l-2.211.356s-2.925 3.818-5.494 3.818l-11.772-1.32z"/><path fill="#99C3DB" d="m197.969 326.628 8.74.572s1.248-.285 1.535 5.53c.285 5.85-1.926 19.871-1.926 19.871s-.178 4.709-4.745 4.425c-4.567-.285-14.699-3.889-14.699-3.889l11.095-26.507z"/><path fill="#FDA77E" d="m218.163 330.804-23.297-3.21s-7.172 17.518-4.923 20.263c2.212 2.782 5.388 2.925 5.388 2.925l18.194-1.391z"/><path fill="#fff" d="M206.709 327.199s-3.888 1.535-4.994 8.74-2.068 17.053-.142 21.084l-59.937-3.746s-10.846-1.784-12.628-11.096c-1.82-9.311 1.784-16.803 5.136-19.157 3.319-2.353 15.127-5.136 15.127-5.136z"/><path fill="#99C3DB" d="M185.555 324.239c.249.035.462-.143.5-.392.036-.249-.142-.463-.391-.5l-43.062-6.672a.48.48 0 0 0-.536.392c-.036.249.142.463.392.5zm13.591 33.106a.504.504 0 0 0 .501-.427.5.5 0 0 0-.427-.5l-52.623-3.281a.5.5 0 0 0-.5.427c0 .249.178.462.427.5z"/><path fill="#571F0E" d="M290.87 302.513h-40.1c-1.606 0-3.462 1.319-4.102 2.925l-21.976 54.549c-.643 1.606.142 2.925 1.748 2.925h40.101c1.606 0 3.462-1.319 4.102-2.925l21.976-54.549c.643-1.606-.142-2.925-1.749-2.925"/><path fill="#BD7D71" d="M291.94 303.618h-40.101c-1.606 0-3.461 1.319-4.101 2.925l-21.976 54.549c-.643 1.606.142 2.925 1.748 2.925h40.137c1.57 0 3.425-1.319 4.066-2.925l21.976-54.549c.643-1.606-.143-2.925-1.749-2.925"/><path fill="#571F0E" d="M281.808 300.478h-20.657c-.571 0-1.141.213-1.677.607a3.07 3.07 0 0 0-1.106 1.39l-1.677 4.102c-.107.285-.178.572-.178.821 0 .356.107.678.285.963.178.249.427.463.75.607.249.107.5.143.749.143h20.621c.572 0 1.177-.214 1.677-.572.501-.356.928-.856 1.142-1.39l1.641-4.138c.143-.285.178-.571.178-.821 0-.356-.071-.678-.249-.927-.178-.285-.463-.501-.785-.643-.214-.071-.463-.142-.714-.142m-20.657 1.534h20.835c0 .036.035.036.035.036.036.036.036.071.036.142 0 .072-.036.178-.071.285l-1.642 4.102c-.107.285-.356.536-.607.714-.249.178-.572.32-.821.32h-20.621c-.071 0-.142-.035-.178-.035s-.036-.036-.071-.036v-.142c0-.071 0-.178.035-.249l1.678-4.138c.106-.249.32-.536.607-.714.249-.178.536-.285.785-.285"/><path fill="#FDA77E" d="M218.163 330.804s14.842 1.464 19.658 2.14c4.78.714 23.724.285 23.724.285s1.39.071 1.535 1.82c.142 1.712-1.177 2.353-1.177 2.353l-6.813 1.642s-.964 2.996-1.856 4.102c-.927 1.105-4.389 1.962-4.389 1.962s-.213 2.14-1.534 3.174c-1.322 1.034-3.746 1.39-3.746 1.39s-1.785 1.82-3.104 2.57-5.992 1.39-5.992 1.39-18.659-1.248-21.763-4.994c-3.138-3.746-1.319-9.99-1.319-9.99s1.035-7.777 6.778-7.848z"/><path fill="#AC5649" d="M234.751 333.015c.249.036.501-.142.501-.391.035-.249-.143-.463-.392-.501l-10.453-1.141c-.249-.036-.462.142-.5.392-.036.249.178.462.391.5zm5.21 5.246c-.249-.036-.501.142-.501.391a.45.45 0 0 0 .356.501c.036 0 9.739 1.283 15.34.356a.48.48 0 0 0 .392-.537c-.071-.213-.285-.391-.536-.355-5.495.892-15.056-.356-15.056-.356zm-3.39 10.702c-.249-.036-.463.178-.463.427s.178.462.427.462l7.027.285c.249 0 .463-.178.463-.427a.5.5 0 0 0-.427-.5l-7.027-.25zm1.39-4.461c-.249 0-.463.178-.463.428 0 .249.178.462.427.462.036 0 9.49.608 11.061.143a.47.47 0 0 0 .284-.572c-.071-.249-.32-.356-.571-.285-1.391.392-10.702-.178-10.738-.178z"/><path fill="#6F90C5" d="M456.593 640.72h124.58c3.21 0 5.815 2.605 5.815 5.779s-2.605 5.815-5.815 5.815h-124.58c-3.175 0-5.78-2.641-5.78-5.815s2.605-5.779 5.78-5.779"/><path fill="#2F3F4B" d="M569.401 630.445s3.461 10.918 5.209 15.912c1.713 4.994 2.105 12.344-10.595 11.952-12.699-.391-15.055-1.891-15.84-8.277-.75-6.422-.786-20.763-.786-20.763l-.749-15.699h19.228s2.427 8.491 3.533 16.875"/><path fill="#B3BBDF" d="M575.216 648.571c.963 4.709-.285 10.097-11.203 9.738-12.699-.391-15.055-1.89-15.84-8.277a30 30 0 0 1-.178-2.033c1.283 2.427 4.282 6.636 9.596 6.814 7.528.213 14.448.856 16.519-3.355.463-.963.821-1.962 1.106-2.889z"/><path fill="#898FAA" d="M554.023 642.362c-.178.107-.463.036-.572-.178-.142-.213-.071-.5.142-.607 0 0 5.172-3.032 15.554-.392.213.036.391.285.32.501a.388.388 0 0 1-.5.32c-10.026-2.533-14.913.356-14.949.356zm-.712-5.531c-.214.107-.501.036-.608-.178-.142-.214-.071-.463.143-.607 0 0 5.172-3.032 15.553-.392.25.036.392.285.356.536a.48.48 0 0 1-.536.321c-10.026-2.57-14.913.32-14.913.32z"/><path fill="#AC5649" d="M511.426 182.676s15.447-.785 26.044.643c10.631 1.464 15.627 11.309 17.409 19.338.892 4.066 4.496 5.743 7.848 8.241 12.486 9.276 6.885 23.547-8.384 27.008l-62.29-1.248c-7.421-7.35-6.422-15.627-3.355-21.727 2.854-5.672 7.208-7.385 8.992-11.522 1.428-3.391 2.462-8.491 4.389-12.773 1.855-4.138 4.566-7.493 9.347-7.955z"/><path fill="#9AAE3B" d="M493.054 261.45c-17.088 14.842-22.011 56.404-25.757 72.921l25.188.607s3.138.964 4.244-1.354a78131 78131 0 0 0 20.585-42.206s-12.773-29.396-24.26-29.968"/><path fill="#2F3F4B" d="M511.106 622.598s2.427 16.303 1.997 20.621c-.391 4.317-1.606 4.317-1.606 4.317l-13.52.036s-1.749-3.924-4.389-2.783c-2.605 1.141-4.567 3.461-8.064 3.461l-28.326-.963s-2.819-.75-3.175-3.497c-.32-2.783.214-4.602.214-4.602s1.141-.928 2.353-.785c1.213.142 17.874-4.603 21.513-6.28s9.561-8.028 9.561-8.028l3.711-12.664h18.481l1.247 11.167z"/><path fill="#B3BBDF" d="M512.89 644.789c-.501 2.748-1.391 2.748-1.391 2.748l-13.52.035s-1.748-3.924-4.389-2.783c-2.605 1.141-4.567 3.462-8.064 3.462l-28.326-.964s-2.712-.714-3.139-3.354l33.214 1.535s6.813-2.318 8.918-1.891 4.318 1.212 4.318 1.212z"/><path fill="#898FAA" d="M486.917 636.475c.178.178.213.463.035.643-.142.178-.427.178-.607.036 0 0-3.746-3.281-8.384-4.602-.214-.072-.356-.321-.285-.537.071-.249.321-.391.536-.32 4.816 1.39 8.705 4.78 8.705 4.78m5.245-3.852a.49.49 0 0 1 .036.643.446.446 0 0 1-.608.035c-.035-.035-3.746-3.281-8.384-4.602-.249-.071-.356-.32-.32-.536a.46.46 0 0 1 .572-.32c4.816 1.39 8.669 4.78 8.704 4.78"/><path fill="#9B6844" d="m511.926 362.734-25.472-.821s-4.318 8.242-5.922 16.733c-1.606 8.491 5.352 218.907 5.352 218.907l-1.819 23.759s0 1.5 3.497 2.427c3.532.964 15.662 6.885 27.399 2.712l1.212-22.654.821-14.413 4.46-211.237s.785-15.876-9.525-15.411z"/><path fill="#6F4525" d="m511.926 362.733-25.472-.821s-4.318 8.242-5.922 16.733c-.643 3.319.036 37.353 1.106 77.665l38.21-2.033 1.606-76.133s.785-15.876-9.525-15.411z"/><path fill="#9B6844" d="M546.495 362.27s5.993.785 10.918 13.736c4.922 12.951 7.136 25.081 7.136 25.081 1.748 29.645.32 96.645 3.067 115.804 4.209 29.432 7.243 82.09 5.424 111.558 0 0-10.595 7.101-31.43-2.462l-8.064-51.766-18.016-159.187s-3.853-9.098-5.065-19.764c-1.177-10.631-1.926-29.361-1.926-29.361l37.958-3.639z"/><path fill="#6F4525" d="M546.495 362.27s5.993.785 10.918 13.736c4.922 12.951 7.136 25.081 7.136 25.081.714 12.415.892 31.43 1.07 50.731l-45.629 2.463-4.46-39.244s-3.853-9.099-5.065-19.765c-1.177-10.631-1.926-29.361-1.926-29.361l37.958-3.639z"/><path fill="#6F4525" d="M508.145 369.119c0-.249.178-.427.427-.427.249.036.427.25.427.463 0 .107-.32 30.932 6.921 45.7l.035.142 12.486 110.346a.394.394 0 0 1-.391.463c-.214.035-.463-.143-.463-.392L515.101 415.14c-7.314-15.02-6.956-45.952-6.956-46.023z"/><path fill="#6F4525" d="M513.104 373.97c0-.213.178-.427.427-.427s.427.214.462.427l1.998 41.064a.41.41 0 0 1-.427.427c-.249 0-.463-.178-.463-.427z"/><path fill="#BEBF3D" d="m543.143 252.031 30.931 14.519s2.318 1.428 1.962 5.423c-.356 4.031-20.013 83.303-20.013 83.303s21.083 91.544 16.697 91.793l-95.326 5.101s-.501-82.519 5.601-97.11c2.033-4.745 2.569-63.86 2.569-63.86s-.427-12.88 2.033-17.803c2.463-4.923 6.029-11.916 6.029-11.916l21.94-11.025 27.577 1.571z"/><path fill="#FDA77E" d="M539.895 226.63s-.999 12.45-.999 15.556 4.245 9.845 4.245 9.845c-10.097 2.57-27.364 11.701-27.577-1.57-.071-6.493 1.962-17.803 1.962-17.803z"/><path fill="#D05F3C" d="M539.895 226.63s-.285 3.461-.536 7.207c-1.428 1.319-2.961 2.712-4.531 3.995-6.387 5.281-11.239 8.847-14.555 9.597-1.355.32-2.925-.285-4.354-1.141.643-6.636 1.607-13.628 1.607-13.628l22.369-6.028z"/><path fill="#2C4D80" d="M493.054 261.45c.107-.214.392-.285.607-.178.178.106.25.391.107.607 0 0-3.568 5.423-5.172 9.881a276 276 0 0 0-2.783 7.991c-.106.249-.355.391-.571.32-.214-.036-.356-.285-.285-.501 0-.035 1.141-3.497 2.818-8.063 1.642-4.567 5.246-10.062 5.281-10.062z"/><path fill="#BEBF3D" d="m578.603 272.83 9.347 68.89s.821 4.245-4.246 5.352l-18.301 3.568s-2.712.25-3.245-3.031c-.537-3.319-7.243-52.016-7.243-52.016s-1.571-4.389 1.463-9.667c3.035-5.279 17.696-19.373 17.696-19.373s4.209 2.498 4.531 6.279z"/><path fill="#668838" d="M554.488 295.662c-.036-.249.107-.462.356-.5.249-.036.462.142.5.391l5.957 42.81c.036.25-.142.463-.391.501a.445.445 0 0 1-.501-.392z"/><path fill="#668838" d="M551.133 297.161c0-.249.178-.427.427-.427s.427.214.427.463c0 0-.213 9.169 5.388 13.772a.41.41 0 0 1 .036.607.447.447 0 0 1-.608.071c-5.921-4.887-5.672-14.448-5.672-14.483z"/><path fill="#FDA77E" d="M509.535 187.421s-4.353 10.989-4.674 14.807c-.355 3.817-.106 26.151-.106 26.151s.213 2.64 1.354 3.639c1.142.963 5.673 6.778 9.099 8.099 3.39 1.319 6.099 1.284 9.774-.5 3.675-1.749 11.487-7.884 12.201-9.919.75-2.033 1.571-3.853 1.571-3.853s3.138 1.105 5.565-3.96c2.392-5.065 3.282-8.704-.106-10.239-3.39-1.499-5.137.643-6.245 2.282l1.177-13.342s.536-9.703-6.671-13.843c-7.207-4.173-18.123-3.103-22.939.678"/><path fill="#AC5649" d="M522.913 228.628c.214.142.463.071.608-.143.106-.213.035-.5-.178-.607 0 0-5.388-3.319-12.451-.178-.213.107-.32.356-.213.572.106.213.356.32.571.213l11.665.143z"/><path fill="#EE7353" d="m510.892 220.35 6.921-.32s1.641-.285 1.784.571c.178.857-2.997 1.429-3.533 2.069-.5.608-.536 1.106-1.819.501l-3.355-2.819z"/><path fill="#AC5649" d="M513.746 209.328c-.071-.249.071-.463.32-.536.214-.071.463.071.536.285 0 0 1.429 4.816-1.247 8.028-1.856 2.247-2.034 2.925-2.034 3.139.427.32 1.927 1.499 3.032 2.104.214.107.285.391.178.607-.142.214-.391.285-.607.143-1.319-.714-3.245-2.283-3.245-2.283l-.107-.142s-.572-.892 2.104-4.138c2.356-2.854 1.07-7.207 1.07-7.207m2.638 13.521c-.071.213-.32.355-.536.284-.249-.071-.356-.32-.284-.571 0 0 .249-.608 1.354-.964l.892-.284c.25-.072.501.035.572.284.071.214-.071.465-.285.536l-.927.321c-.679.213-.786.391-.786.391zm-2.353 9.311c-.213-.071-.356-.321-.249-.536a.416.416 0 0 1 .536-.285s2.961 1.07 6.564-.285a.485.485 0 0 1 .572.249c.071.249-.035.501-.249.572-3.924 1.464-7.172.285-7.172.285zm6.885-25.437c-.25 0-.428-.82-.392-1.07a.444.444 0 0 1 .501-.355s5.53.642 7.065 2.068a.456.456 0 0 1 0 .643c-.143.178-.428.75-.608.607-1.319-1.247-6.564-1.89-6.564-1.89zm-13.307 2.176c-.143.178-.608-.213-.75-.391a.454.454 0 0 1 0-.643s1.713-1.571 4.567-2.033c.249-.036.463.106.5.355.036.25.036.857-.213.893-2.569.427-4.066 1.819-4.102 1.819z"/><path fill="#7E3E35" d="m523.094 211.041-.072 3.246s.036.892.821.998c.75.107 1.284 0 1.5-.678.249-.679.178-3.924.178-3.924s-.107-.856-1.035-.892c-.892-.071-1.355.427-1.39 1.248zm-13.914-.109-.072 3.032s.036.821.75.928c.714.106 1.212 0 1.428-.643.214-.608.143-3.64.143-3.64s-.072-.82-.928-.856-1.284.392-1.319 1.177z"/><path fill="#AC5649" d="M545.105 215.569c-.036.249-.214.427-.463.427s-.427-.213-.427-.463c0-.284-.107-.571-.32-.82-.142-.214-.356-.356-.572-.463-.178-.071-.391-.107-.572-.036-.213.036-.427.178-.642.463-.536.678-1.106 1.962-1.606 3.281-.537 1.464-.964 2.925-.964 3.604 0 .999.999 1.428.999 1.428.214.107.32.356.249.572-.107.249-.356.32-.571.249-.036 0-1.535-.643-1.535-2.247 0-.75.427-2.353.998-3.924.501-1.39 1.142-2.747 1.749-3.497.32-.427.714-.678 1.07-.785q.642-.16 1.177.107c.356.142.678.391.892.714.32.391.536.892.536 1.39z"/><path fill="#AC5649" d="M543.677 219.174c.106.214 0 .463-.214.572-.214.071-.5 0-.572-.249 0 0-.142-.285-1.07-.643-.892-.356-1.819.214-1.819.214-.214.106-.463.035-.608-.178-.106-.178-.035-.463.143-.572.035 0 1.283-.821 2.605-.285 1.283.501 1.535 1.106 1.535 1.141m-34.249-35.713s-3.067.501-1.784 5.459c1.284 4.959 4.031 9.49 14.7 12.344 10.702 2.854 15.591 11.629 15.912 18.908 0 0 6.028-10.488 4.851-22.227-1.141-11.772-13.985-16.946-33.679-14.484m42.063 13.165c-.035-.32.214-.643.536-.678a.61.61 0 0 1 .679.536c0 .035.927 7.919 7.634 10.595 3.568 1.428 6.529 2.996 8.74 5.03 2.247 2.068 3.711 4.602 4.353 7.99.072.32-.142.643-.5.714-.32.036-.643-.178-.678-.501-.608-3.103-1.962-5.423-4.031-7.314-2.069-1.926-4.887-3.425-8.349-4.78-7.349-2.961-8.384-11.558-8.384-11.594z"/><path fill="#2C4D80" d="M485.562 291.204c0-.249.214-.427.427-.427.249 0 .463.214.427.463l-1.177 43.204a.43.43 0 0 1-.427.427c-.249 0-.427-.213-.427-.463z"/><path fill="#9AAE3B" d="m543.783 332.803-57.26 19.907c-15.091 5.281-23.653-15.376-18.194-23.226.963-1.39 1.319 1.606 3.319.963 6.244-2.104 67.07-8.028 67.07-8.028s8.918 3.532 5.065 10.382z"/><path fill="#BEBF3D" d="m570.184 332.515-65.251 6.743s-6.921.678-6.064 7.136c.856 6.422 6.493 6.636 6.493 6.636l72.707 1.855c11.345.035 14.949-25.01-7.883-22.37z"/><path fill="#EE7353" d="m489.236 333.016-1.212-1.748s-5.886-.356-8.491-3.139c-2.605-2.747-4.922-.999-3.746.927 1.177 1.927 4.102 5.066 7.314 5.424l6.138-1.464z"/><path fill="#FDA77E" d="m505.611 352.173-1.57.714s-1.571-.391-4.852-2.676c-3.281-2.282-3.959-3.354-3.959-3.354s-3.21-.537-7.742 2.033c-4.531 2.533-6.956 4.46-8.277 4.745-1.319.32-2.961-1.355-2.961-1.355s-2.676 1.784-5.387-.463c-3.533 1.784-5.602-1.177-4.247-2.854l1.962-2.462s-1.248-.107-2.033-.928c-.785-.856.284-1.855.284-1.855s7.635-7.063 9.633-8.992c1.997-1.89 5.28-3.103 7.848-3.209 2.569-.107 4.173-.75 6.422.462 2.282 1.177 11.772 7.528 11.772 7.528s8.846 9.347 3.103 12.664z"/><path fill="#AC5649" d="M490.948 341.72c.249-.071.462.072.536.321a.51.51 0 0 1-.321.536c-.035 0-7.883 1.926-14.59 9.99a.447.447 0 0 1-.607.071c-.178-.178-.214-.463-.072-.643 6.885-8.277 15.02-10.275 15.056-10.275zm-22.012 5.065a.447.447 0 0 1-.607.072.42.42 0 0 1-.107-.608c.036-.035 7.385-9.738 14.484-11.38.213-.071.462.071.536.32a.476.476 0 0 1-.356.536c-6.778 1.571-13.95 11.025-13.95 11.06m17.945-8.206c.249-.071.463.107.536.321a.485.485 0 0 1-.32.536c-.036 0-7.884 1.713-15.876 12.628a.42.42 0 0 1-.608.107.42.42 0 0 1-.106-.607c8.17-11.203 16.339-12.987 16.374-12.987z"/><path fill="#EE7353" d="m553.131 323.811 1.962-.857s5.245 2.747 8.882 1.749c3.637-.999 4.709 1.677 2.712 2.711-1.998 1.07-6.138 2.176-9.063.821l-4.496-4.424z"/><path fill="#FDA77E" d="m529.193 331.623.963 1.428s1.535.501 5.53.249c3.995-.249 5.137-.821 5.137-.821s3.032 1.248 5.565 5.78c2.534 4.531 3.604 7.42 4.567 8.384.963.963 3.246.391 3.246.391s1.319 2.89 4.851 2.391c2.069 3.355 5.388 1.891 5.101-.213l-.427-3.139s1.141.572 2.247.249c1.105-.284.714-1.677.714-1.677s-2.819-10.026-3.533-12.7c-.714-2.676-2.889-5.423-5.029-6.849-2.14-1.428-3.139-2.818-5.708-2.961-2.57-.177-13.986.285-13.986.285s-12.415 3.39-9.24 9.205z"/><path fill="#AC5649" d="M547.138 330.339c-.142-.178-.427-.178-.607 0s-.178.427 0 .607c0 .036 5.708 5.78 7.243 16.126a.443.443 0 0 0 .5.391.443.443 0 0 0 .356-.5c-1.57-10.667-7.456-16.626-7.492-16.626zm16.161 15.805c.036.249.249.392.5.392.214-.036.392-.249.392-.501-.036-.035-1.248-12.13-6.422-17.266a.49.49 0 0 0-.643.035c-.142.143-.142.427 0 .608 4.994 4.887 6.173 16.697 6.173 16.732m-11.06-16.374c-.143-.143-.427-.143-.607.035-.178.143-.178.427 0 .608.035 0 5.85 5.565 6.955 19.05a.5.5 0 0 0 .501.427c.214-.035.392-.249.392-.5-1.142-13.808-7.208-19.587-7.243-19.622z"/><path fill="#fff" d="M502.079 260.878s.462 5.388 8.775 6.029l37.102-2.212-16.374-9.632z"/><path fill="#fff" d="M529.729 260.7s-2.427 4.852-2.282 10.275c.142 5.388-.392 40.243-.392 40.243s-.462 5.637 2.676 5.495l20.977-.928s2.033-.32 1.428-3.604l-2.533-50.446-19.872-1.035z"/><path fill="#E6E6E6" d="m506.29 260.878 39.707 5.708s6.28-.142 8.704-1.034c2.427-.856 9.063-3.853 9.063-3.853l-21.335-10.846z"/><path fill="#fff" d="M515.815 245.218s2.783 1.784 10.844 1.07c8.064-.678 12.237-4.102 12.237-4.102l.107-2.783s3.639.392 4.424 2.819 3.032 11.345 3.032 11.345-.284 1.105-1.141 1.428c-.892.32-40.99 8.063-40.99 8.063s-5.459.572-4.389-4.851l13.022-11.203s1.248-1.39 2.854-1.784z"/><path fill="#668838" d="M513.424 354.135a.433.433 0 0 1-.427-.427c0-.249.213-.463.462-.463l43.169.463c.249 0 .427.213.427.427-.036.249-.214.463-.463.427z"/><path fill="#8CABE2" d="M9.367 143.664h55.44c.857 0 1.535.679 1.535 1.499v14.555c0 .821-.678 1.499-1.534 1.499H9.367c-.821 0-1.5-.678-1.5-1.499v-14.555c0-.82.679-1.499 1.5-1.499"/><path fill="#484F80" d="M14.968 153.403a.96.96 0 0 1-.963-.963c0-.536.427-.963.963-.963h44.274c.5 0 .928.427.928.963s-.428.963-.928.963z"/><path fill="#fff" d="M41.653 164.711h22.476a2.2 2.2 0 0 1 2.211 2.211v22.441c0 1.248-.999 2.246-2.211 2.246H41.653c-1.212 0-2.211-.998-2.211-2.246v-22.441a2.2 2.2 0 0 1 2.21-2.211"/><path fill="#8CABE2" d="M44.685 186.259c-.536 0-.963-.427-.963-.928 0-.536.427-.963.963-.963h16.374c.536 0 .964.427.964.963 0 .501-.428.928-.964.928zm0-7.172c-.536 0-.963-.427-.963-.928 0-.536.427-.963.963-.963h16.374c.536 0 .964.427.964.963 0 .501-.428.928-.964.928zM51 171.915a.96.96 0 0 1-.963-.963c0-.5.427-.928.963-.928h10.062c.536 0 .963.428.963.928a.96.96 0 0 1-.963.963z"/></g><path fill="#503DA0" d="M579.587 746.185h33.327V712.52h-33.327z"/><path fill="#fff" d="M577.952 747.833v-36.955h36.59v36.955zm3.257-33.664v30.373h30.076v-30.373z"/><path fill="#503DA0" d="M291.137 746.191h33.326v-33.664h-33.326z"/><path fill="#fff" d="M289.509 747.833v-36.955h36.59v36.955zm3.257-33.664v30.373h30.069v-30.373z"/><path fill="#503DA0" d="M291.137 36.156h33.326V2.492h-33.326z"/><path fill="#fff" d="M289.509 37.8V.843h36.59v36.955zm3.257-33.665v30.373h30.069V4.135z"/><path fill="#503DA0" d="M2.7 746.185h33.327V712.52H2.701z"/><path fill="#fff" d="M1.066 747.833v-36.955h36.59v36.955zm3.256-33.664v30.373h30.07v-30.373z"/><path fill="#503DA0" d="M579.581 390.774h33.326V357.11h-33.326z"/><path fill="#fff" d="M577.953 392.423v-36.955h36.589v36.955zm3.256-33.664v30.373h30.077v-30.373z"/><path fill="#503DA0" d="M2.694 390.774H36.02V357.11H2.694z"/><path fill="#fff" d="M1.065 392.423v-36.955h36.59v36.955zm3.257-33.664v30.373h30.07v-30.373z"/><path fill="#503DA0" d="M579.588 36.15h33.326V2.486h-33.326z"/><path fill="#fff" d="M577.953 37.8V.843h36.589v36.955zm3.263-33.665v30.373h30.07V4.135z"/><path fill="#503DA0" d="M2.7 36.15h33.327V2.486H2.7z"/><path fill="#fff" d="M1.065 37.8V.843h36.59v36.955zM4.322 4.134v30.373h30.07V4.135z"/><g clip-path="url(#b)"><path fill="#566491" d="m412.539 376.146-32.521 129.853s-1.298 9.943-11.83 9.073c-10.532-.857-17.734-1.297-21.346-5.619-3.601-4.322-4.763-7.347-4.763-7.347l21.132-130.869 49.33 4.91z"/><path fill="#3F4B74" d="M368.752 387.782a.46.46 0 0 0-.43-.497.477.477 0 0 0-.508.44c0 .057-1.219 20.596-11.684 25.675a.47.47 0 0 0-.214.633.457.457 0 0 0 .621.214c10.961-5.317 12.215-26.397 12.215-26.465"/><path fill="#FDA77E" d="m340.491 339.828 1.277 55.351s.933 5.806 6.055 6.908c5.117 1.091 7.396-1.15 7.396-1.15l6.7-58.234s-.356-6.166-3.649-8.483c-3.286-2.333-13.313-1.976-17.78 5.609z"/><path fill="#FDA77E" d="M356.231 397.262s-1.007 10.856-.821 14.363c.186 3.508-.56 9.402-.56 9.402l-2.724 13.468s-.335.896-1.568.784c-1.23-.112-1.568-.335-1.568-.335s-.635-1.454-.446-3.843c.223-2.386.746-7.199.746-7.199l-1.267-.895s-3.282 3.768-4.327 5.745c-1.081 1.977-1.23 3.768-1.23 3.768s-.447 3.431-.261 5.26c.223 1.791 1.156 3.768 1.156 3.768l2.65 2.349s2.5.858 2.686 2.538-.821 1.568-1.754 1.268c-.97-.298-8.02-3.208-9.102-4.178-1.081-.97-2.761-5.522-2.761-5.522s-2.798-2.575-3.17-4.515c-.372-1.903.933-13.205.933-13.205s1.193-4.775 2.424-7.946c1.267-3.207 5.894-11.974 5.894-11.974l1.94-15.297 14.249 2.461-1.119 9.737z"/><path fill="#AC5649" d="M338.028 424.794c.037-.261-.112-.524-.372-.561-.261-.037-.524.112-.561.372l-2.5 13.319c-.038.261.111.484.372.524a.45.45 0 0 0 .56-.372l2.501-13.28zm-3.657-.934c.037-.26-.149-.484-.409-.523-.261-.037-.484.149-.524.409l-1.342 11.191c-.037.26.149.484.409.523.224.037.484-.149.524-.409z"/><path fill="#566491" d="M386.361 371.17v42.975s-1.152 5.473 6.061 9.513l15.071 93.514s8.647 11.962 16.582 12.686c0 0 17.169 2.019 18.75-17.448l4.109-54.871s5.103-46.385 3.252-59.905c-1.852-13.53-5-19.107-5-19.107l-31.067-5.992z"/><path fill="#3F4B74" d="M405.393 507.105c.044.26.281.429.542.395a.47.47 0 0 0 .383-.542l-13.466-83.592-.193-.112c-.011-.011-5.284-3.217-5.555-6.06l-.281-22.966a.46.46 0 0 0-.475-.463.475.475 0 0 0-.463.474l.282 23.023c.26 2.967 4.831 6.049 5.824 6.681l13.399 83.165zm32.184-85.33a.47.47 0 0 0 .599-.271.476.476 0 0 0-.271-.61c-.045-.01-15.816-5.845-14.777-29.342a.467.467 0 0 0-.451-.485.457.457 0 0 0-.485.44c-1.06 24.174 15.33 30.246 15.387 30.268z"/><path fill="#FAB886" d="m373.085 645.354 4.651 3.285-.497 5.338s.282 1.445-2.89 1.581l-9.516.226s-2.087-2.46-3.895-2.46-3.827.146-5.046 1.592c-1.23 1.445-2.812 1.873-2.812 1.873l-37.545.248s-1.513-1.298-.677-3.488c.824-2.201 9.696-3.285 9.696-3.285z"/><path fill="#FEDBB8" d="m376.879 631.62.857 17.019s-6.92 3.024-26.538 4.186c-19.608 1.151-36.338.722-36.338.722l.101-3.363s.722-2.878 2.744-3.238c2.02-.362 24.519-7.495 32.025-15.281z"/><path fill="#FAB886" d="M353.23 636.27a.49.49 0 0 0-.023-.666c-.193-.17-.498-.17-.667.023-.011.011-3.544 3.735-8.749 6.195-5.227 2.46-8.693 2.844-8.703 2.844l-.057.011c-.011 0-1.84.417-2.721-.542-.903-.982-.745-1.761-.745-1.761a.46.46 0 0 0-.406-.518.47.47 0 0 0-.531.406s-.227 1.185.993 2.506c1.151 1.253 3.273.891 3.59.823.315-.033 3.849-.497 8.974-2.922 5.373-2.54 9.031-6.388 9.042-6.399z"/><path fill="#FDA77E" d="m343.254 320.006-2.384 19.529c-.002 19.295 23.334 20.729 25.876 10.022l3.45-27.961z"/><path fill="#9C6BFD" d="m370.083 245.143.464-10.066s-13.738 5.452-16.617 8.476c-2.889 3.036-3.895 12.403-3.895 12.403l-7.856 52.422 25.376 4.606 3.612.44 5.329-61.721-6.413-6.557z"/><path fill="#BA98FF" d="M373.898 307.937s-11.243-6.049-23.221-4.898c-11.965 1.152-10.487 5.012-10.487 5.012l.282 6.049s-1.366 2.889-1.366 4.254 1.366 3.035 1.366 3.035l26.043 5.767s2.879.644 4.538-1.591 1.728-5.406 1.728-5.406 2.02-8.362 1.117-12.222"/><path fill="#8353E3" d="M355.194 313.432a.48.48 0 0 0 .587-.316.485.485 0 0 0-.328-.586c-.023 0-6.819-1.964-15.657 1.015a.48.48 0 0 0-.305.599.476.476 0 0 0 .599.294c8.567-2.889 15.092-1.005 15.104-1.005z"/><path fill="#566491" d="M374.249 502.535s4.617 0 5.769 3.465l1.366 125.372s1.445 8.081-15.431 6.06c-16.877-2.019-18.604-5.914-18.604-5.914l3.747-9.513-9.302-107.068s-.463-8.226.282-12.832z"/><path fill="#3F4B74" d="M362.339 512.556a.47.47 0 0 0 .113-.654.484.484 0 0 0-.667-.102c-.011.011-6.525 4.853-16.481 1.095a.47.47 0 0 0-.599.27.47.47 0 0 0 .271.61c10.431 3.928 17.339-1.196 17.362-1.219z"/><path fill="#FAB886" d="m439.542 655.534 3.713-.068s.328 3.6-.396 5.903c-.722 2.302-3.815 4.402-12.259 4.615-8.432.214-15.647-1.805-16.944-3.678-1.298-1.873-.418-5.192-.418-5.192l26.302-1.58z"/><path fill="#FEDBB8" d="M439.258 633.753s.282 7.572 2.518 13.767c2.235 6.208 1.884 9.086 0 11.038-1.874 1.941-6.989 3.962-17.373 3.024-10.386-.937-11.254-2.516-11.175-5.259.067-2.743 3.815-25.302 3.815-25.302l22.215 2.73z"/><path fill="#FAB886" d="M434.8 643.287a.485.485 0 0 0-.44-.507.47.47 0 0 0-.498.44l-.485 7.403v.068c0 .011.237 2.449-3.939 2.279l-6.457-.575c-.011 0-3.239.078-2.992-2.561.294-3.262.667-8.363.667-8.375a.453.453 0 0 0-.43-.497.47.47 0 0 0-.508.429c0 .011-.383 5.27-.666 8.352-.339 3.701 3.916 3.589 3.929 3.589l6.423.576c4.956.203 4.932-2.9 4.911-3.262z"/><path fill="#9C6BFD" d="M428.241 227.581s19.913 9.086 22.792 11.252c2.89 2.155 4.471 3.17 5.046 7.494.576 4.322-7.496 47.726-6.626 56.958.384 4.21-3.95 26.6-.823 49.318 3.882 28.259 4.39 54.283 4.39 54.283s-.067 2.382-6.276 1.513l-58.768.214-30.095-4.085s-2.314.147-2.596-4.751c-.135-2.269 4.086-32.615 6.163-62.861 2.415-35.392 2.754-71.269 2.754-71.269l2.596-24.365s2.314-6.196 5.769-7.641c3.465-1.445 19.37-7.685 19.37-7.685z"/><path fill="#fff" d="M403.079 255.944a2.307 2.307 0 0 0-2.314 2.303 2.316 2.316 0 0 0 2.314 2.313 2.31 2.31 0 0 0 2.303-2.313 2.3 2.3 0 0 0-2.303-2.303m-8.648 119.832a2.31 2.31 0 0 0-2.303 2.313 2.3 2.3 0 0 0 2.303 2.303 2.307 2.307 0 0 0 2.314-2.303 2.316 2.316 0 0 0-2.314-2.313m2.506-34.026a2.306 2.306 0 0 0-2.314 2.302 2.31 2.31 0 0 0 2.314 2.303 2.3 2.3 0 0 0 2.304-2.303 2.297 2.297 0 0 0-2.304-2.302m1.231-43.699a2.3 2.3 0 0 0-2.304 2.303 2.307 2.307 0 0 0 2.304 2.313 2.316 2.316 0 0 0 2.313-2.313 2.31 2.31 0 0 0-2.313-2.303"/><path fill="#8353E3" d="M397.988 219.253s-4.256 4.109-6.051 6.704c-1.806 2.595-2.765 7.752-2.743 10.529l.091 11.467s.948.575 1.524-.362 7.022-9.841 7.022-9.841z"/><path fill="#FDA77E" d="M422.473 197.879s-.136 10.235.361 14.999c.508 4.762 3.895 11.173 3.895 11.173s-7.788 13.554-14.279 16.578a36 36 0 0 1-3.916 1.569c-4.685 1.568-6.83 2.404-6.83 2.404l-4.255-7.516s-.43-7.414-.711-12.459c-.295-5.046-.87-17.154-.87-17.154l26.606-9.593z"/><path fill="#D05F3C" d="M422.472 197.879s.868 4.067.902 7.52c-1.986 3.228-5.479 9.287-8.404 12.672-3.94 4.559-10.165 3.462-14.308 3.055-1.152-.112-2.619-.27-4.143-.463a3919 3919 0 0 1-.655-13.192z"/><path fill="#8353E3" d="M425.826 220.551s-2.45 6.997-5.689 10.021c-3.251 3.036-11.627 11.636-11.627 11.636s2.314 1.061 3.184 2.72 2.89 5.552 2.89 5.552.497.937 1.795.135c1.298-.789 10.894-12.538 13.343-17.808 2.461-5.259 1.378-6.049 1.378-6.049l-5.271-6.207zm-64.842 115.893c0 .26.204.474.464.474a.46.46 0 0 0 .474-.451c.011-.192 2.337-66.856 3.51-77.949a.47.47 0 0 0-.406-.519.47.47 0 0 0-.519.417c-1.186 11.116-3.51 77.837-3.523 78.03z"/><path fill="#8353E3" d="M360.951 258.956a.487.487 0 0 0-.441-.508.47.47 0 0 0-.497.44c0 .034-.654 9.401 3.612 15.122a.47.47 0 0 0 .654.091.46.46 0 0 0 .102-.654c-4.065-5.44-3.432-14.468-3.432-14.491zm41.179-14.164a.46.46 0 0 0-.237-.62.474.474 0 0 0-.62.237c0 .023-3.375 7.584-3.567 12.572-.193 4.887-11.616 151.047-11.65 151.374a.484.484 0 0 0 .43.518.47.47 0 0 0 .508-.429c.033-.328 11.457-146.51 11.649-151.431.181-4.808 3.477-12.199 3.489-12.222z"/><path fill="#9C6BFD" d="M480.563 320.124s-.282-22.786-3.747-36.046c-3.466-13.272-8.659-34.32-13.276-38.36-4.606-4.041-14.224-7.946-14.224-7.946s-11.446 24.096-12.022 34.761c-.576 10.676 1.446 15.292 1.446 15.292s6.412 19.829 7.574 24.872z"/><path fill="#8353E3" d="M445.061 309.787a.47.47 0 0 0 .576.316.47.47 0 0 0 .315-.587l-7.483-24.331c-.125-.789-2.541-16.003 2.347-25.404a.46.46 0 0 0-.203-.632.463.463 0 0 0-.633.203c-5.148 9.909-2.438 25.969-2.426 26.013l.011.068z"/><path fill="#8353E3" d="M434.122 261.767a.47.47 0 0 0-.417-.519.46.46 0 0 0-.519.407c0 .033-1.49 12.042 3.906 20.574.136.214.43.281.644.146a.474.474 0 0 0 .146-.654c-5.204-8.239-3.77-19.92-3.76-19.954"/><path fill="#BA98FF" d="m485 318.352-1.727 11.681s1.839 4.728.542 7.606c-1.298 2.889-3.828 5.7-3.828 5.7l-5.396 1.771s.565-7.832-2.1-10.574c-2.348-2.404-21.561-13.181-25.421-13.666l-4.865-1.558s-.294-1.93.214-2.798a5.7 5.7 0 0 1 1.219-1.433s-.146-3.035.655-4.04c.79-1.016.937-1.297.937-1.297s6.637-2.449 20.478-.214c13.851 2.234 17.666 6.048 17.666 6.048l1.626 2.777z"/><path fill="#8353E3" d="M474.784 325.396a.47.47 0 0 0 .654-.113.47.47 0 0 0-.125-.654c-.044-.034-13.716-9.592-31.664-10.563a.467.467 0 0 0-.485.451c-.01.248.18.474.441.485 17.677.959 31.134 10.371 31.179 10.394"/><path fill="#FDA77E" d="m392.073 311.548 2.053-6.75s-7.71-8.724-12.394-11.816c-4.696-3.103-10.319-2.743-10.319-2.743l-26.392 2.303s-1.298 1.377-.294 2.957c1.016 1.591 2.314 1.591 2.314 1.591l10.667.136s-.722 13.056-.214 14.637c.508 1.592 2.168 2.527 2.168 2.527s16.944 5.982 21.346 6.703c4.391.722 6.389.407 6.389.407l4.674-9.954z"/><path fill="#FDA77E" d="M357.711 297.316c-.057 1.107-.7 13.036-.214 14.547.508 1.592 2.168 2.527 2.168 2.527s2.697.949 6.22 2.144c-.316-2.245.667-7.324.667-7.324l3.194-12.957-12.033 1.06z"/><path fill="#AC5649" d="M366.979 309.743a.49.49 0 0 0 .509-.441.46.46 0 0 0-.441-.497l-9.696-.722a.46.46 0 0 0-.497.441.466.466 0 0 0 .429.497zm2.799-12.551a.465.465 0 0 0 .451-.485.47.47 0 0 0-.485-.451l-12.045.508a.467.467 0 0 0-.451.485c.011.26.226.463.485.451zm-.756 5.992a.473.473 0 0 0 .485-.451.48.48 0 0 0-.451-.497l-11.559-.451a.468.468 0 1 0-.034.936z"/><path fill="#FDA77E" d="M477.211 336.094s-1.581 11.827-8.218 16.432c-6.637 4.616-17.892-.281-17.892-.281l-66.343-32.018s-1.727-1.005 0-5.045c1.728-4.041 4.323-9.368 4.323-9.368s.722-1.445 5.047-1.016c4.335.441 53.666 16.297 53.666 16.297s5.768-.429 14.268 2.889c8.512 3.306 13.704 5.327 15.149 12.11"/><path fill="#747B85" d="m404.733 331.249-6.455-3.114c2.333-.998 4.069-2.516 5.314-4.307 1.36-1.946 2.178-4.254 2.578-6.602a22 22 0 0 0-.013-7.134c-.221-1.284-.518-2.439-.869-3.424 1.802.48 4.069 1.129 6.649 1.894q.062.273.104.545c.48 2.828.531 5.994.013 9.092-.531 3.192-1.672 6.33-3.564 9.042a18.3 18.3 0 0 1-3.759 4.008z"/><path fill="#747B85" d="M412.78 311.557c-3.746-2.18-8.385-1.193-10.369 2.218-1.97 3.399-.544 7.926 3.202 10.106 3.746 2.191 8.385 1.206 10.368-2.205 1.984-3.399.544-7.926-3.201-10.117z"/><path fill="#ABB3C8" d="M412.275 313.334c-2.682-1.674-6.065-1.051-7.582 1.374-1.504 2.426-.57 5.746 2.112 7.406 2.669 1.673 6.065 1.051 7.569-1.374 1.517-2.426.57-5.746-2.099-7.408z"/><path fill="#566491" d="M423.14 502.681s17.215 2.72 19.427 11.952l.654 116.987.79 4.695s-1.873 5.405-14.99 4.897c-13.128-.508-16.087-5.191-16.087-5.191l1.151-7.427-6.592-111.423s2.913-14.096 15.647-14.491z"/><path fill="#3F4B74" d="M434.902 516.743a.47.47 0 0 0-.011-.667.464.464 0 0 0-.654 0c-.023.023-7.439 7.81-21.934-.654a.476.476 0 0 0-.644.169c-.124.227-.057.519.17.644 15.126 8.836 23.051.531 23.073.508"/><path fill="#FDA77E" d="M390.29 164.801s-1.558 8.743-1.138 12.159c.434 3.404.434 10.938.434 10.938s-.54 11.196-.398 15.327c.152 4.119 2.205 7.03 3.341 8.532 1.137 1.49 4.832 6.396 6.18 6.959 1.348.574 9.591.282 9.591.282s1.63 0 3.411-1.28c1.77-1.279 8.947-8.672 8.947-8.672s.996-1.35 2.204-3.404c1.208-2.067 2.053-5.481 2.053-5.481s3.341 1.502 5.615-2.769c2.275-4.26 3.693-10.739.997-12.512-2.709-1.772-4.338.283-4.338.283l.891-12.265s1.136-17.768-15.489-18.403c-16.615-.645-22.301 10.305-22.301 10.305z"/><path fill="#10203A" d="M416.274 179.144a.46.46 0 0 0 .398-.516.465.465 0 0 0-.528-.399l-6.742.915a.466.466 0 0 0-.398.529c.036.246.27.423.528.387zm-19.44.692a.458.458 0 0 0 .211-.891l-6.086-1.456a.457.457 0 0 0-.551.352.457.457 0 0 0 .341.551z"/><path fill="#AC5649" d="M410.635 203.742a.465.465 0 0 0 .094-.645.47.47 0 0 0-.657-.094s-.844.727-2.814.787l-11.104-.282c-.012 0-1.466-.024-1.806-.611a.464.464 0 0 0-.632-.176.445.445 0 0 0-.164.623c.586 1.045 2.59 1.091 2.602 1.091l11.128.282c2.286-.07 3.341-.973 3.353-.973zm-6.508 4.613a.45.45 0 0 0 .468-.447.46.46 0 0 0-.434-.481l-6.074-.246a.46.46 0 0 0-.48.447.47.47 0 0 0 .446.48zm26.862-20.244a.453.453 0 0 0 .586-.283.45.45 0 0 0-.282-.586s-2.463-.869-3.833 1.091c-.575.833-1.185 2.313-1.643 3.803-.528 1.666-.89 3.38-.856 4.167.094 1.69 1.724 2.288 1.724 2.288a.464.464 0 0 0 .599-.27.47.47 0 0 0-.282-.599s-1.055-.386-1.115-1.467c-.036-.681.304-2.265.809-3.849.446-1.408.996-2.793 1.524-3.544.972-1.374 2.767-.751 2.767-.751z"/><path fill="#AC5649" d="M429.276 193.92a.456.456 0 0 0 .622.211.466.466 0 0 0 .2-.623s-.294-.657-1.665-1.115c-1.406-.469-2.708.434-2.72.434a.47.47 0 0 0-.129.645.47.47 0 0 0 .645.128s.95-.656 1.91-.328c.997.328 1.137.645 1.137.645zm-8.653 1.314a.475.475 0 0 0 .036-.657.463.463 0 0 0-.656-.024l-4.255 3.837a.45.45 0 0 0-.036.644.45.45 0 0 0 .644.036zm-29.617 1.409c.188.177.48.177.656 0a.46.46 0 0 0 0-.656l-2.016-1.995a.45.45 0 0 0-.645.012.44.44 0 0 0 0 .645z"/><path fill="#10203A" d="M423.11 157.515s7.598-.212 9.333 4.624c1.747 4.836-3.155 22.029-3.155 22.029s-4.807 6.69-7.292 9.317c0 0 2.521-16.466.152-22.709-2.369-6.256-2.755-8.873-2.755-8.873s-3.213 1.55-14.012 1.255c-10.787-.282-16.861 2.253-16.133 14.634l.246 4.636s-3.939-4.353-2.484-11.606c0 0-2.907.422-4.398-1.49 0 0 2.639-.058 3.389-2.219 0 0-1.242-1.349-3.869-.54 0 0-.282-4.764 5.112-6.925 0 0-1.817-.857-2.029-2.817 0 0 1.525.927 2.885 1.103 0 0-2.263-2.571-2.087-5.985 0 0 .927-.751 3.201-.387 2.275.353 6.108 3.228 11.784.599 5.685-2.629 19.251-6.971 22.112 5.352z"/><path fill="#3B4D6A" d="M406.531 161.422a.45.45 0 0 0 .294-.575.46.46 0 0 0-.575-.304c-.023.012-7.598 2.535-14.938-2.641a.465.465 0 0 0-.644.118.467.467 0 0 0 .118.644c7.714 5.445 15.723 2.77 15.746 2.758z"/><path fill="#3B4D6A" d="M385.778 164.193a.45.45 0 0 0-.058.645c.164.2.458.222.656.058.012-.012 4.595-3.909 10.553-3.392a.47.47 0 0 0 .504-.422.48.48 0 0 0-.434-.505c-6.32-.541-11.209 3.602-11.221 3.614zm25.993-6.407a.464.464 0 0 0-.258-.891c-.024.012-6.53 2.03-11.747-1.232a.47.47 0 0 0-.633.152.455.455 0 0 0 .14.633c5.582 3.486 12.488 1.338 12.5 1.338z"/><path fill="#3F342E" d="m411.901 184.295.07 3.204s-.046.869-.808.974c-.75.118-1.278-.012-1.501-.669-.222-.669-.152-3.873-.152-3.873s.106-.833 1.009-.881c.89-.046 1.348.423 1.384 1.244zm-16.568-.151-.035 3.203s-.082.869-.845.952c-.75.094-1.278-.047-1.476-.727-.2-.669-.024-3.873-.024-3.873s.128-.833 1.032-.845 1.337.468 1.348 1.291z"/><path fill="#EE7353" d="M403.681 196.689s-3.177 1.538-5.172.681c-1.981-.857-1.23 1.304.294 2.323 1.513 1.021 6.812-.14 4.878-3.004"/><path fill="#AC5649" d="M400.023 188.522a.467.467 0 0 0-.48-.435.46.46 0 0 0-.446.481c0 .012.164 2.746-1.279 4.566-.012 0-.094.106-.106.118-.786 1.033-1.22 2.112-1.196 3.145.036 1.056.528 2.055 1.571 2.9l.082.07c.2.152.492.118.644-.082a.453.453 0 0 0-.07-.645l-.082-.07c-.82-.645-1.196-1.408-1.22-2.195-.024-.809.34-1.69.996-2.547l.094-.118c1.677-2.1 1.489-5.176 1.489-5.186zm4.443 9.377a.46.46 0 0 0 .235-.611.46.46 0 0 0-.599-.246c-.012 0-1.898.857-2.298 1.644a.484.484 0 0 0 .21.623.47.47 0 0 0 .622-.211c.246-.493 1.817-1.197 1.829-1.197z"/></g><defs><clipPath id="b"><path fill="#fff" d="M485 144H287v522h198z"/></clipPath></defs></svg>