<svg xmlns="http://www.w3.org/2000/svg" width="885" height="668" fill="none" viewBox="0 0 885 668"><g filter="url(#a)"><path fill="#000" fill-opacity="0.4" d="M823.614 93.719v-48.61c0-11.253-9.245-20.404-20.612-20.404H573.003c-15.872 0-31.067 5.843-42.778 16.456L512.25 57.448c-11.291 10.23-25.94 15.866-41.248 15.866H45.467a20.8 20.8 0 0 0-8.015 1.607 20.5 20.5 0 0 0-5.868 3.734c-4.13 3.735-6.728 9.107-6.728 15.07v528.98q-.002.529.025 1.048c.515 10.073 8.448 18.238 18.484 19.255q1.037.105 2.102.107H803.01q1.065-.002 2.102-.107c10.036-1.01 17.963-9.182 18.484-19.255q.026-.52.025-1.048V93.719z"/></g><path fill="#8353E3" d="M791.837 60.09H26.098c-8.066 0-14.604 6.54-14.604 14.605v536.813c0 8.066 6.538 14.605 14.604 14.605h765.739c8.066 0 14.604-6.539 14.604-14.605V74.696c0-8.067-6.538-14.605-14.604-14.605" class="hover"/><path fill="#8353E3" d="M11.494 547.415H806.44v56.628c0 12.178-6.546 22.069-14.604 22.069H26.098c-8.058 0-14.604-9.891-14.604-22.069zM787.738 11.481H557.739c-15.357 0-30.163 5.693-41.492 15.96L498.272 43.73c-11.617 10.525-26.787 16.362-42.534 16.362H30.203c-10.33 0-18.703 8.29-18.703 18.515v83.561h794.948V30.003c0-10.23-8.373-18.522-18.703-18.522z"/><path fill="url(#b)" d="M791.768 627.594H26.174c-8.919 0-16.174-7.18-16.174-16.011V74.62c0-8.83 7.255-16.01 16.174-16.01h429.564c15.408 0 30.158-5.674 41.524-15.974l17.975-16.286C526.873 15.805 541.967 10 557.74 10h229.999c11.14 0 20.203 8.975 20.203 20.002v581.581c0 8.831-7.256 16.011-16.174 16.011M26.174 61.572c-7.268 0-13.18 5.855-13.18 13.048v536.963c0 7.193 5.912 13.049 13.18 13.049h765.594c7.268 0 13.18-5.856 13.18-13.049V30.003c0-9.396-7.72-17.034-17.209-17.034H557.74c-15.026 0-29.398 5.529-40.482 15.571l-17.975 16.287c-11.919 10.801-27.384 16.751-43.545 16.751H26.174z"/><defs><linearGradient id="b" x1="408.971" x2="408.971" y1="10" y2="627.594" gradientUnits="userSpaceOnUse"><stop stop-color="#fff"/><stop offset="1" stop-color="#5930AB"/></linearGradient><filter id="a" width="846.764" height="666.41" x="0.855957" y="0.704987" color-interpolation-filters="sRGB" filterUnits="userSpaceOnUse"><feFlood flood-opacity="0" result="BackgroundImageFix"/><feBlend in="SourceGraphic" in2="BackgroundImageFix" result="shape"/><feGaussianBlur result="effect1_foregroundBlur_4006_270" stdDeviation="12"/></filter></defs></svg>