<svg xmlns="http://www.w3.org/2000/svg" width="848" height="668" fill="none" viewBox="0 0 848 668"><g filter="url(#a)"><path fill="#000" fill-opacity="0.4" d="M823.599 93.814v-48.61c0-11.253-9.245-20.403-20.611-20.403H572.989c-15.872 0-31.067 5.843-42.778 16.456l-17.976 16.287c-11.291 10.23-25.939 15.866-41.247 15.866H45.453a20.8 20.8 0 0 0-8.015 1.607 20.5 20.5 0 0 0-5.868 3.734c-4.13 3.735-6.728 9.107-6.728 15.07V622.8q-.002.53.025 1.048c.515 10.074 8.448 18.239 18.483 19.256.69.069 1.394.107 2.103.107h757.541q1.067-.002 2.103-.107c10.036-1.011 17.963-9.182 18.484-19.256q.026-.519.025-1.048V93.814z"/></g><path fill="#10203A" d="M791.822 60.186H26.084c-8.066 0-14.604 6.54-14.604 14.605v536.813c0 8.066 6.538 14.605 14.604 14.605h765.738c8.066 0 14.605-6.539 14.605-14.605V74.791c0-8.066-6.539-14.605-14.605-14.605"/><path fill="#06D0A0" d="M11.48 547.511h794.947v56.628c0 12.177-6.546 22.069-14.605 22.069H26.084c-8.058 0-14.604-9.892-14.604-22.069z"/><path fill="#fff" d="M321.096 590.847h-5v-15h5zm15-25v35h-10v-25h-5v-10zm-25 25h5v10h-15v-35h10zm59.991-25v5h-20v30h-10v-35zm29.98 5h5v10h-5v5h-15v15h-10v-35h25zm-5 10v-10h-10v10zm24.981-10v-5h10v5h5v10h5v20h-10v-10h-10v10h-10v-20h5v-10zm0 15h10v-10h-10zm34.98 15v-30h-10v-5h30v5h-10v30zm49.981-15h5v10h-5v5h-25v-35h10v15h15zm-5 10v-10h-10v10z"/><path fill="#F0F0F0" d="M761.345 188.724H56.562c-8.066 0-14.605 6.103-14.605 13.632v307.63c0 7.529 6.539 13.632 14.605 13.632h704.783c8.066 0 14.605-6.103 14.605-13.632v-307.63c0-7.529-6.539-13.632-14.605-13.632"/><mask id="b" width="735" height="336" x="41" y="188" maskUnits="userSpaceOnUse" style="mask-type:alpha"><path fill="#F0F0F0" d="M761.345 188.724H56.562c-8.066 0-14.605 6.103-14.605 13.632v307.63c0 7.529 6.539 13.632 14.605 13.632h704.783c8.066 0 14.605-6.103 14.605-13.632v-307.63c0-7.529-6.539-13.632-14.605-13.632"/></mask><g mask="url(#b)"><path fill="#03303C" fill-opacity="0.4" fill-rule="evenodd" d="M-335.927 15.295a2 2 0 0 0-2 2v553.58a2 2 0 0 0 2 2H831.345a2 2 0 0 0 2-2V17.295a2 2 0 0 0-2-2zm2 92.263V65.427h44.352v42.131zm0-46.132h44.352V19.295h-44.352zm48.352 46.132V65.427h44.352v42.131zm0-46.132h44.352V19.295h-44.352zm48.352 46.132V65.427h44.351v42.131zm0-46.132h44.351V19.295h-44.351zm48.351 46.132V65.427h44.352v42.131zm0-46.132h44.352V19.295h-44.352zm48.352 46.132V65.427h44.352v42.131zm0-46.132h44.352V19.295h-44.352zm48.352 46.132V65.427h47.766v42.131zm0-46.132h47.766V19.295h-47.766zm51.766 46.132V65.427H3.95v42.131zm0-46.132H3.95V19.295h-44.352zM7.95 107.559V65.427h44.352v42.131zm0-46.132h44.352V19.295H7.95zm48.352 46.132V65.427h44.351v42.131zm0-46.132h44.351V19.295H56.302zm48.351 46.132V65.427h44.352v42.131zm0-46.132h44.352V19.295h-44.352zm48.352 46.132V65.427h44.352v42.131zm0-46.132h44.352V19.295h-44.352zm48.352 46.132V65.427h44.352v42.131zm0-46.132h44.352V19.295h-44.352zm0 50.132h44.352v42.132h-44.352zm0 46.132h44.352v42.131h-44.352zm0 46.131h44.352v42.132h-44.352zm0 46.132h44.352v42.132h-44.352zm0 46.132h44.352v42.131h-44.352zm0 46.131h44.352v42.132h-44.352zm0 46.132h44.352v42.132h-44.352zm0 46.132h44.352v42.131h-44.352zm0 46.131h44.352v42.132h-44.352zm0 46.132h44.352v42.132h-44.352zm-4 0v42.132h-44.352v-42.132zm-48.352 0v42.132h-44.352v-42.132zm-48.352 0v42.132H56.302v-42.132zm-48.351 0v42.132H7.95v-42.132zm-48.352 0v42.132h-44.352v-42.132zm-48.352 0v42.132h-47.766v-42.132zm-51.766 0v42.132h-44.352v-42.132zm-48.352 0v42.132h-44.352v-42.132zm-48.352 0v42.132h-44.351v-42.132zm-48.351 0v42.132h-44.352v-42.132zm-48.352 0v42.132h-44.352v-42.132zm0-4h-44.352v-42.132h44.352zm0-46.132h-44.352V434.48h44.352zm0-46.131h-44.352v-42.132h44.352zm0-46.132h-44.352v-42.132h44.352zm0-46.132h-44.352v-42.131h44.352zm0-46.131h-44.352v-42.132h44.352zm0-46.132h-44.352v-42.132h44.352zm0-46.132h-44.352V157.69h44.352zm0-46.131h-44.352v-42.132h44.352zm4 0v-42.132h44.352v42.132zm48.352 0v-42.132h44.351v42.132zm48.351 0v-42.132h44.352v42.132zm48.352 0v-42.132h44.352v42.132zm48.352 0v-42.132h47.766v42.132zm51.766 0v-42.132H3.95v42.132zm48.352 0v-42.132h44.352v42.132zm48.352 0v-42.132h44.351v42.132zm48.351 0v-42.132h44.352v42.132zm48.352 0v-42.132h44.352v42.132zm0 4h44.352v42.131h-44.352zm0 46.131h44.352v42.132h-44.352zm0 46.132h44.352v42.132h-44.352zm0 46.132h44.352v42.131h-44.352zm0 46.131h44.352v42.132h-44.352zm0 46.132h44.352v42.132h-44.352zm0 46.132h44.352v42.131h-44.352zm0 46.131h44.352v42.132h-44.352zm-4 0v42.132h-44.352v-42.132zm-48.352 0v42.132H56.302v-42.132zm-48.351 0v42.132H7.95v-42.132zm-48.352 0v42.132h-44.352v-42.132zm-48.352 0v42.132h-47.766v-42.132zm-51.766 0v42.132h-44.352v-42.132zm-48.352 0v42.132h-44.352v-42.132zm-48.352 0v42.132h-44.351v-42.132zm-48.351 0v42.132h-44.352v-42.132zm0-4h-44.352V434.48h44.352zm0-46.131h-44.352v-42.132h44.352zm0-46.132h-44.352v-42.132h44.352zm0-46.132h-44.352v-42.131h44.352zm0-46.131h-44.352v-42.132h44.352zm0-46.132h-44.352v-42.132h44.352zm0-46.132h-44.352V157.69h44.352zm4 0V157.69h44.351v42.131zm48.351 0V157.69h44.352v42.131zm48.352 0V157.69h44.352v42.131zm48.352 0V157.69h47.766v42.131zm51.766 0V157.69H3.95v42.131zm48.352 0V157.69h44.352v42.131zm48.352 0V157.69h44.351v42.131zm48.351 0V157.69h44.352v42.131zm0 4h44.352v42.132h-44.352zm0 46.132h44.352v42.132h-44.352zm0 46.132h44.352v42.131h-44.352zm0 46.131h44.352v42.132h-44.352zm0 46.132h44.352v42.132h-44.352zm0 46.132h44.352v42.131h-44.352zm-4 0v42.131H56.302V434.48zm-48.351 0v42.131H7.95V434.48zm-48.352 0v42.131h-44.352V434.48zm-48.352 0v42.131h-47.766V434.48zm-51.766 0v42.131h-44.352V434.48zm-48.352 0v42.131h-44.352V434.48zm-48.352 0v42.131h-44.351V434.48zm0-4h-44.351v-42.132h44.351zm0-46.132h-44.351v-42.132h44.351zm0-46.132h-44.351v-42.131h44.351zm0-46.131h-44.351v-42.132h44.351zm0-46.132h-44.351v-42.132h44.351zm4 0v-42.132h44.352v42.132zm48.352 0v-42.132h44.352v42.132zm48.352 0v-42.132h47.766v42.132zm51.766 0v-42.132H3.95v42.132zm48.352 0v-42.132h44.352v42.132zm48.352 0v-42.132h44.351v42.132zm0 4h44.351v42.132H56.302zm0 46.132h44.351v42.131H56.302zm0 46.131h44.351v42.132H56.302zm0 46.132h44.351v42.132H56.302zm-4 0v42.132H7.95v-42.132zm-48.352 0v42.132h-44.352v-42.132zm-48.352 0v42.132h-47.766v-42.132zm-51.766 0v42.132h-44.352v-42.132zm-48.352 0v42.132h-44.352v-42.132zm0-4h-44.352v-42.132h44.352zm0-46.132h-44.352v-42.131h44.352zm0-46.131h-44.352v-42.132h44.352zm4 0v-42.132h44.352v42.132zm48.352 0v-42.132h47.766v42.132zm51.766 0v-42.132H3.95v42.132zm48.352 0v-42.132h44.352v42.132zm0 4h44.352v42.131H7.95zm0 46.131h44.352v42.132H7.95zm-4 0v42.132h-44.352v-42.132zm-48.352 0v42.132h-47.766v-42.132zm-51.766 0v42.132h-44.352v-42.132zm0-4h-44.352v-42.131h44.352zm4 0v-42.131h47.766v42.131zm51.766 0v-42.131H3.95v42.131zm334.463-230.658h-44.352V65.427h44.352zm-44.352-46.132h44.352V19.295h-44.352zm92.704 46.132h-44.352V65.427h44.352zm-44.352-46.132h44.352V19.295h-44.352zm92.703 46.132h-44.351V65.427h44.351zm-44.351-46.132h44.351V19.295h-44.351zm92.703 46.132h-44.352V65.427h44.352zm-44.352-46.132h44.352V19.295h-44.352zm92.704 46.132h-44.352V65.427h44.352zm-44.352-46.132h44.352V19.295h-44.352zm96.118 46.132h-47.766V65.427h47.766zm-47.766-46.132h47.766V19.295h-47.766zm96.118 46.132h-44.352V65.427h44.352zm-44.352-46.132h44.352V19.295h-44.352zm92.704 46.132h-44.352V65.427h44.352zm-44.352-46.132h44.352V19.295h-44.352zm92.703 46.132h-44.351V65.427h44.351zm-44.351-46.132h44.351V19.295h-44.351zm92.703 46.132h-44.352V65.427h44.352zm-44.352-46.132h44.352V19.295h-44.352zm92.704 46.132h-44.352V65.427h44.352zm-44.352-46.132h44.352V19.295h-44.352zm92.704 46.132h-44.352V65.427h44.352zm-44.352-46.132h44.352V19.295h-44.352zm0 50.132h44.352v42.132h-44.352zm0 46.132h44.352v42.131h-44.352zm0 46.131h44.352v42.132h-44.352zm0 46.132h44.352v42.132h-44.352zm0 46.132h44.352v42.131h-44.352zm0 46.131h44.352v42.132h-44.352zm0 46.132h44.352v42.132h-44.352zm0 46.132h44.352v42.131h-44.352zm0 46.131h44.352v42.132h-44.352zm0 46.132h44.352v42.132h-44.352zm-48.352 0h44.352v42.132h-44.352zm-48.352 0h44.352v42.132h-44.352zm-48.351 0h44.351v42.132h-44.351zm-48.352 0h44.352v42.132h-44.352zm-48.352 0h44.352v42.132h-44.352zm-51.766 0h47.766v42.132h-47.766zm-48.352 0h44.352v42.132h-44.352zm-48.352 0h44.352v42.132h-44.352zm-48.351 0h44.351v42.132h-44.351zm-48.352 0h44.352v42.132h-44.352zm-48.352 0h44.352v42.132h-44.352zm44.352-4h-44.352v-42.132h44.352zm0-46.132h-44.352V434.48h44.352zm0-46.131h-44.352v-42.132h44.352zm0-46.132h-44.352v-42.132h44.352zm0-46.132h-44.352v-42.131h44.352zm0-46.131h-44.352v-42.132h44.352zm0-46.132h-44.352v-42.132h44.352zm0-46.132h-44.352V157.69h44.352zm0-46.131h-44.352v-42.132h44.352zm4 0v-42.132h44.352v42.132zm48.352 0v-42.132h44.351v42.132zm48.351 0v-42.132h44.352v42.132zm48.352 0v-42.132h44.352v42.132zm48.352 0v-42.132h47.766v42.132zm51.766 0v-42.132h44.352v42.132zm48.352 0v-42.132h44.352v42.132zm48.352 0v-42.132h44.351v42.132zm48.351 0v-42.132h44.352v42.132zm48.352 0v-42.132h44.352v42.132zm0 4h44.352v42.131h-44.352zm0 46.131h44.352v42.132h-44.352zm0 46.132h44.352v42.132h-44.352zm0 46.132h44.352v42.131h-44.352zm0 46.131h44.352v42.132h-44.352zm0 46.132h44.352v42.132h-44.352zm0 46.132h44.352v42.131h-44.352zm0 46.131h44.352v42.132h-44.352zm-4 0v42.132h-44.352v-42.132zm-48.352 0v42.132h-44.351v-42.132zm-48.351 0v42.132h-44.352v-42.132zm-48.352 0v42.132h-44.352v-42.132zm-48.352 0v42.132h-47.766v-42.132zm-51.766 0v42.132h-44.352v-42.132zm-48.352 0v42.132h-44.352v-42.132zm-48.352 0v42.132h-44.351v-42.132zm-48.351 0v42.132h-44.352v-42.132zm0-4h-44.352V434.48h44.352zm0-46.131h-44.352v-42.132h44.352zm0-46.132h-44.352v-42.132h44.352zm0-46.132h-44.352v-42.131h44.352zm0-46.131h-44.352v-42.132h44.352zm0-46.132h-44.352v-42.132h44.352zm0-46.132h-44.352V157.69h44.352zm4 0V157.69h44.351v42.131zm48.351 0V157.69h44.352v42.131zm48.352 0V157.69h44.352v42.131zm48.352 0V157.69h47.766v42.131zm51.766 0V157.69h44.352v42.131zm48.352 0V157.69h44.352v42.131zm48.352 0V157.69h44.351v42.131zm48.351 0V157.69h44.352v42.131zm0 4h44.352v42.132h-44.352zm0 46.132h44.352v42.132h-44.352zm0 46.132h44.352v42.131h-44.352zm0 46.131h44.352v42.132h-44.352zm0 46.132h44.352v42.132h-44.352zm0 46.132h44.352v42.131h-44.352zm-4 0v42.131h-44.351V434.48zm-48.351 0v42.131h-44.352V434.48zm-48.352 0v42.131h-44.352V434.48zm-48.352 0v42.131h-47.766V434.48zm-51.766 0v42.131h-44.352V434.48zm-48.352 0v42.131h-44.352V434.48zm-48.352 0v42.131h-44.351V434.48zm0-4h-44.351v-42.132h44.351zm0-46.132h-44.351v-42.132h44.351zm0-46.132h-44.351v-42.131h44.351zm0-46.131h-44.351v-42.132h44.351zm0-46.132h-44.351v-42.132h44.351zm4 0v-42.132h44.352v42.132zm48.352 0v-42.132h44.352v42.132zm48.352 0v-42.132h47.766v42.132zm51.766 0v-42.132h44.352v42.132zm48.352 0v-42.132h44.352v42.132zm48.352 0v-42.132h44.351v42.132zm0 4h44.351v42.132h-44.351zm0 46.132h44.351v42.131h-44.351zm0 46.131h44.351v42.132h-44.351zm0 46.132h44.351v42.132h-44.351zm-4 0v42.132h-44.352v-42.132zm-48.352 0v42.132h-44.352v-42.132zm-48.352 0v42.132h-47.766v-42.132zm-51.766 0v42.132h-44.352v-42.132zm-48.352 0v42.132h-44.352v-42.132zm0-4h-44.352v-42.132h44.352zm0-46.132h-44.352v-42.131h44.352zm0-46.131h-44.352v-42.132h44.352zm4 0v-42.132h44.352v42.132zm48.352 0v-42.132h47.766v42.132zm51.766 0v-42.132h44.352v42.132zm48.352 0v-42.132h44.352v42.132zm0 4h44.352v42.131h-44.352zm0 46.131h44.352v42.132h-44.352zm-4 0v42.132h-44.352v-42.132zm-48.352 0v42.132h-47.766v-42.132zm-51.766 0v42.132h-44.352v-42.132zm0-4h-44.352v-42.131h44.352zm4 0v-42.131h47.766v42.131zm51.766 0v-42.131h44.352v42.131z" clip-rule="evenodd" opacity="0.2"/><g clip-path="url(#c)"><path fill="#9C6BFD" d="m331.842 456.426-1.085-23.5s32.065 12.709 38.792 19.803c6.723 7.066 9.084 28.981 9.084 28.981l18.339 122.46-59.241 10.792-8.42 1.001-12.45-144.209 14.977-15.324z"/><path fill="#9C6BFD" d="M196.103 415.401s-46.459 21.222-53.186 26.281c-6.723 5.064-10.449 7.427-11.782 17.521-1.361 10.094 17.505 111.531 15.476 133.085-.916 9.734 6.585 51.623 2.418 94.343l-6.671 68.587h213.797c-2.28-66.082-10.587-250.871-10.587-250.871l-6.059-56.932s-5.39-14.489-13.474-17.858c-8.084-3.365-45.183-17.938-45.183-17.938z"/><path fill="#fff" d="M254.846 481.682c2.973 0 5.39 2.392 5.39 5.367a5.4 5.4 0 0 1-5.39 5.396 5.4 5.4 0 0 1-5.391-5.396c0-2.975 2.418-5.367 5.391-5.367m21.534 251.122a5.4 5.4 0 0 1 5.391 5.396 5.4 5.4 0 0 1-5.391 5.396c-2.973 0-5.362-2.42-5.362-5.396s2.389-5.396 5.362-5.396m-5.836-67.833a5.4 5.4 0 0 1 5.391 5.395 5.4 5.4 0 0 1-5.391 5.396c-2.973 0-5.362-2.42-5.362-5.396s2.389-5.395 5.362-5.395m-4.253-84.913a5.4 5.4 0 0 1 5.391 5.396 5.4 5.4 0 0 1-5.391 5.395 5.4 5.4 0 0 1-5.39-5.395 5.4 5.4 0 0 1 5.39-5.396"/><path fill="#8353E3" d="M266.713 395.963s9.918 9.595 14.143 15.66c4.196 6.064 6.447 18.08 6.391 24.587l-.223 26.784s-2.195 1.362-3.528-.835c-1.361-2.198-16.395-23.002-16.395-23.002z"/><path fill="#FDA77E" d="M209.582 346.011s.332 23.918-.863 35.017c-1.166 11.124-9.084 26.115-9.084 26.115s18.173 31.677 33.344 38.743c3.168 1.5 6.254 2.7 9.141 3.673 10.92 3.673 15.921 5.619 15.921 5.619l9.919-17.578s1.029-17.298 1.697-29.091c.668-11.792 2.029-40.105 2.029-40.105l-62.104-22.389z"/><path fill="#D05F3C" d="M209.582 346.011s.085 6.843 0 14.906c4.641 7.536 14.475 23.083 21.283 30.984 9.198 10.682 19.951 9.372 29.623 8.428 2.669-.28 6.111-.669 9.671-1.087.697-13.24 1.527-30.846 1.527-30.846l-62.104-22.389z"/><path fill="#8353E3" d="M201.745 398.991s5.723 16.325 13.28 23.391c7.586 7.09 27.148 27.201 27.148 27.201s-5.419 2.477-7.448 6.341c-2.029 3.867-6.723 12.96-6.723 12.96s-1.167 2.197-4.225.332c-3.029-1.836-25.398-29.313-31.121-41.609-5.722-12.291-3.195-14.156-3.195-14.156l12.28-14.464zM353.073 669.75a1.09 1.09 0 0 1-1.057 1.139 1.09 1.09 0 0 1-1.138-1.058c0-.446-5.419-156.225-8.197-182.145a1.137 1.137 0 0 1 .972-1.224c.611-.057 1.138.389 1.223 1.001 2.75 25.949 8.197 181.841 8.197 182.287"/><path fill="#8353E3" d="M353.182 488.716a1.073 1.073 0 0 1 1.001-1.168 1.07 1.07 0 0 1 1.166 1.001c0 .086 1.527 21.972-8.42 35.322a1.11 1.11 0 0 1-1.555.223c-.474-.361-.583-1.058-.223-1.528 9.502-12.709 8.031-33.794 8.031-33.85m-96.141-33.096c-.251-.556 0-1.225.555-1.448a1.09 1.09 0 0 1 1.446.556c.028.028 7.889 17.687 8.335 29.37.36 9.069 18.452 194.802 25.896 271.12h-2.195c-7.477-76.484-25.536-261.913-25.868-271.035-.446-11.265-8.141-28.535-8.169-28.563"/><path fill="#FDA77E" d="M287.664 256.367s3.694 20.719 2.697 28.815c-1.028 8.067-1.028 25.921-1.028 25.921s1.279 26.532.943 36.322c-.36 9.762-5.224 16.662-7.918 20.221-2.693 3.531-11.449 15.158-14.645 16.491-3.195 1.363-22.729.669-22.729.669s-3.864 0-8.084-3.032c-4.196-3.032-21.202-20.553-21.202-20.553s-2.362-3.199-5.225-8.067c-2.863-4.898-4.864-12.989-4.864-12.989s-7.918 3.559-13.309-6.563c-5.391-10.095-8.752-25.451-2.361-29.651 6.419-4.199 10.279.669 10.279.669l-2.11-29.066s-2.693-42.108 36.706-43.612c39.375-1.528 52.85 24.421 52.85 24.421z"/><path fill="#10203A" d="M226.086 290.355a1.09 1.09 0 0 1-.944-1.225 1.1 1.1 0 0 1 1.252-.944l15.978 2.169c.611.085 1.028.64.943 1.252a1.1 1.1 0 0 1-1.251.917zm46.07 1.642a1.085 1.085 0 0 1-.498-2.113l14.422-3.449a1.08 1.08 0 0 1 1.305.835 1.085 1.085 0 0 1-.806 1.305z"/><path fill="#AC5649" d="M239.451 348.65c-.473-.361-.583-1.058-.222-1.529a1.113 1.113 0 0 1 1.555-.223s2.001 1.723 6.67 1.865l26.314-.669c.028 0 3.475-.056 4.281-1.447a1.1 1.1 0 0 1 1.499-.417c.526.279.696.944.388 1.475-1.389 2.477-6.14 2.587-6.168 2.587l-26.37.668c-5.419-.166-7.918-2.306-7.947-2.306zm15.423 10.933a1.067 1.067 0 0 1-1.109-1.058 1.086 1.086 0 0 1 1.028-1.139l14.394-.584a1.093 1.093 0 0 1 1.139 1.058c.028.584-.446 1.111-1.058 1.139zm-63.659-47.978c-.584.195-1.195-.085-1.39-.669-.222-.555.085-1.196.669-1.39 0 0 5.836-2.06 9.084 2.586 1.361 1.974 2.807 5.481 3.892 9.012 1.252 3.949 2.11 8.011 2.029 9.875-.222 4.006-4.086 5.424-4.086 5.424-.583.223-1.195-.085-1.418-.64a1.12 1.12 0 0 1 .668-1.419s2.499-.916 2.641-3.478c.085-1.614-.721-5.368-1.916-9.121-1.057-3.337-2.361-6.62-3.612-8.4-2.305-3.255-6.557-1.78-6.557-1.78z"/><path fill="#AC5649" d="M195.273 325.372c-.28.556-.916.779-1.474.499a1.1 1.1 0 0 1-.474-1.476s.696-1.556 3.945-2.643c3.333-1.111 6.419 1.03 6.447 1.03.498.361.64 1.029.304 1.528a1.11 1.11 0 0 1-1.527.304s-2.252-1.557-4.528-.778c-2.361.778-2.693 1.528-2.693 1.528zm20.505 3.114c-.445-.39-.473-1.087-.085-1.557a1.1 1.1 0 0 1 1.556-.057l10.084 9.093c.446.389.499 1.087.085 1.528a1.066 1.066 0 0 1-1.526.086zm70.189 3.34c-.446.418-1.138.418-1.555 0a1.1 1.1 0 0 1 0-1.557l4.779-4.726a1.06 1.06 0 0 1 1.527.028 1.04 1.04 0 0 1 0 1.528z"/><path fill="#10203A" d="M209.886 239.097s-18.007-.502-22.118 10.958c-4.139 11.46 7.477 52.206 7.477 52.206s11.393 15.855 17.281 22.082c0 0-5.974-39.023-.36-53.82 5.613-14.825 6.529-21.027 6.529-21.027s7.614 3.672 33.207 2.975c25.564-.669 39.958 5.339 38.233 34.681l-.584 10.986s9.336-10.317 5.889-27.505c0 0 6.889 1.001 10.421-3.531 0 0-6.253-.138-8.031-5.258 0 0 2.944-3.199 9.169-1.281 0 0 .669-11.29-12.114-16.41 0 0 4.306-2.031 4.808-6.677 0 0-3.613 2.197-6.837 2.615 0 0 5.363-6.093 4.945-14.185 0 0-2.195-1.78-7.585-.916-5.391.835-14.476 7.65-27.926 1.419-13.475-6.231-45.624-16.52-52.404 12.684z"/><path fill="#3B4D6A" d="M249.176 248.356a1.07 1.07 0 0 1-.697-1.362c.166-.583.806-.892 1.361-.721.057.028 18.007 6.008 35.402-6.259a1.107 1.107 0 0 1 1.527.279 1.11 1.11 0 0 1-.28 1.529c-18.282 12.903-37.261 6.563-37.317 6.534z"/><path fill="#3B4D6A" d="M298.36 254.924c.474.389.527 1.058.138 1.528a1.1 1.1 0 0 1-1.555.138c-.029-.028-10.891-9.263-25.01-8.039-.611.057-1.138-.418-1.194-1.001a1.14 1.14 0 0 1 1.028-1.196c14.978-1.281 26.565 8.537 26.593 8.566zm-61.602-15.186a1.1 1.1 0 0 1 .612-2.112c.056.028 15.475 4.812 27.84-2.919a1.114 1.114 0 0 1 1.499.361 1.077 1.077 0 0 1-.332 1.5c-13.228 8.262-29.595 3.17-29.623 3.17z"/><path fill="#3F342E" d="m236.45 302.565-.166 7.593s.11 2.059 1.916 2.307c1.778.279 3.029-.029 3.556-1.585.526-1.585.36-9.178.36-9.178s-.251-1.975-2.389-2.088c-2.11-.11-3.196 1.001-3.281 2.947zm39.262-.361.085 7.593s.195 2.06 2.001 2.254c1.778.223 3.029-.109 3.499-1.723.474-1.585.057-9.178.057-9.178s-.304-1.974-2.446-2.002c-2.143-.029-3.167 1.11-3.196 3.06z"/><path fill="#EE7353" d="M255.931 331.935s7.53 3.645 12.256 1.614c4.694-2.031 2.916 3.089-.697 5.505-3.584 2.42-16.143-.332-11.559-7.119"/><path fill="#AC5649" d="M264.599 312.578a1.105 1.105 0 0 1 1.138-1.03 1.093 1.093 0 0 1 1.057 1.14c0 .028-.389 6.506 3.029 10.819.029 0 .223.252.251.28 1.863 2.449 2.892 5.007 2.835 7.455-.085 2.502-1.251 4.869-3.722 6.872l-.194.166a1.095 1.095 0 0 1-1.527-.195 1.07 1.07 0 0 1 .166-1.528l.195-.166c1.944-1.529 2.835-3.337 2.891-5.201.057-1.918-.806-4.006-2.361-6.037l-.223-.279c-3.973-4.979-3.527-12.267-3.527-12.292zm-10.531 22.224a1.09 1.09 0 0 1-.554-1.448c.222-.555.862-.806 1.417-.583.028 0 4.5 2.031 5.447 3.895.252.527.029 1.196-.498 1.476a1.115 1.115 0 0 1-1.474-.499c-.583-1.167-4.305-2.837-4.334-2.837z"/><path fill="#9C6BFD" d="M74.009 631.648s.668-53.26 8.752-84.244c8.06-31.013 20.173-80.186 30.955-89.64 10.781-9.429 33.207-18.522 33.207-18.522s26.73 56.264 28.063 81.212c1.332 24.919-3.362 35.71-3.362 35.71s-14.977 46.336-17.67 58.129l-79.941 17.355z"/><path fill="#8353E3" d="M156.87 607.478a1.06 1.06 0 0 1-1.361.722 1.06 1.06 0 0 1-.721-1.362l17.452-56.824c.304-1.864 5.917-37.409-5.476-59.381-.279-.527-.057-1.196.474-1.476a1.08 1.08 0 0 1 1.474.475c12.033 23.168 5.695 60.687 5.67 60.8l-.028.138-17.476 56.904z"/><path fill="#8353E3" d="M182.406 495.279c-.085-.612.36-1.168.943-1.224.612-.086 1.167.36 1.223.944 0 .085 3.475 28.146-9.112 48.059-.304.527-1.001.669-1.499.361a1.093 1.093 0 0 1-.36-1.5c12.17-19.276 8.809-46.559 8.809-46.644z"/></g></g><path fill="#06D0A0" d="M787.724 11.577H557.725c-15.358 0-30.163 5.693-41.492 15.96l-17.975 16.287c-11.617 10.526-26.787 16.363-42.534 16.363H30.189c-10.33 0-18.703 8.29-18.703 18.514v83.562h794.948V30.098c0-10.23-8.373-18.52-18.704-18.52z"/><path fill="#10203A" d="M782.689 24.939h-38.614a4 4 0 0 0-4 4v38.149a4 4 0 0 0 4 4h38.614a4 4 0 0 0 4-4v-38.15a4 4 0 0 0-4-4"/><path fill="#fff" d="m774.896 61.51-25.149-24.9 2.121-2.096 25.143 24.898z"/><path fill="#fff" d="m751.868 61.51-2.121-2.097 25.149-24.898 2.115 2.096z"/><path fill="#10203A" d="M717.679 24.939h-38.613a4 4 0 0 0-4 4v38.149a4 4 0 0 0 4 4h38.613a4 4 0 0 0 4-4v-38.15a4 4 0 0 0-4-4"/><path fill="#fff" d="M710.953 60.468h-25.161v-24.91h25.161zm-22.167-2.962h19.173V38.52h-19.173z"/><path fill="#10203A" d="M650.618 24.939h-38.614a4 4 0 0 0-4 4v38.149a4 4 0 0 0 4 4h38.614a4 4 0 0 0 4-4v-38.15a4 4 0 0 0-4-4"/><path fill="#fff" d="M645.561 57.305h-28.488v2.962h28.488z"/><path fill="#10203A" d="M779.703 96.676H204.38a9.276 9.276 0 0 0-9.277 9.276v24.27a9.276 9.276 0 0 0 9.277 9.277h575.323a9.276 9.276 0 0 0 9.276-9.277v-24.27a9.276 9.276 0 0 0-9.276-9.276"/><path fill="#fff" d="M207.824 126.524h-3.334v-16.667h3.334v-3.333h13.333v3.333h3.333v16.667h-3.333v3.333h-13.333zm10 0v-16.667h-6.667v16.667zm9.987 3.333v-3.333h3.333v-20h16.667v23.333h-6.667v-20h-3.333v16.667h-3.334v3.333zm23.32 0v-23.333h20v3.333h-13.333v6.667h10v3.333h-10v6.667h13.333v3.333zm43.32-23.333v3.333h-13.333v20h-6.667v-23.333zm16.651 6.667v-3.334h3.333v-3.333h13.333v3.333h3.334v6.667h-3.334v3.333h-3.333v3.334h-3.333v3.333h10v3.333h-20v-3.333h3.333v-3.333h3.333v-3.334h3.334v-3.333h3.333v-6.667h-6.667v3.334zm26.653 13.333h-3.333v-3.333h6.667v3.333h6.666v-6.667h-10v-3.333h-3.333v-6.667h3.333v-3.333h13.334v3.333h3.333v16.667h-3.333v3.333h-13.334zm10-16.667h-6.666v6.667h6.666zm23.318 20v-3.333h3.333v-20h16.667v23.333h-6.667v-20h-3.333v16.667h-3.334v3.333zm23.32 0v-23.333h20v3.333h-13.334v6.667h10v3.333h-10v6.667h13.334v3.333zm29.987 0v-20h-6.667v-3.333h20v3.333h-6.667v20z"/><path fill="#10203A" d="M57.102 134.698c-.308 0-.616-.094-.88-.283L38.31 121.543a1.46 1.46 0 0 1-.615-1.199c0-.477.233-.923.615-1.199l17.913-12.872a1.505 1.505 0 0 1 2.09.326 1.474 1.474 0 0 1-.333 2.071l-16.243 11.674 16.243 11.674c.672.483.816 1.406.333 2.071a1.49 1.49 0 0 1-1.212.609m31.545-.001a1.5 1.5 0 0 1-1.212-.608 1.475 1.475 0 0 1 .333-2.072l16.243-11.673-16.243-11.674a1.474 1.474 0 0 1-.332-2.071 1.5 1.5 0 0 1 2.09-.327l17.912 12.873c.389.276.615.722.615 1.199s-.232.922-.615 1.198l-17.912 12.873a1.5 1.5 0 0 1-.88.282m54.497-9.921c-3.627 0-7.035-1.4-9.602-3.935-5.291-5.241-5.291-13.77 0-19.011 2.567-2.542 5.975-3.935 9.602-3.935s7.036 1.4 9.603 3.935c5.291 5.241 5.291 13.77 0 19.011-2.567 2.541-5.975 3.935-9.603 3.935m0-23.919a10.57 10.57 0 0 0-7.481 3.069 10.42 10.42 0 0 0 0 14.818 10.57 10.57 0 0 0 7.481 3.069c2.825 0 5.486-1.092 7.482-3.069a10.42 10.42 0 0 0 0-14.818 10.57 10.57 0 0 0-7.482-3.069"/><path fill="#10203A" d="M167.94 136.827c-.383 0-.766-.145-1.061-.433l-15.157-15.007a1.473 1.473 0 0 1 0-2.096 1.507 1.507 0 0 1 2.115 0l15.157 15.006a1.474 1.474 0 0 1 0 2.097 1.52 1.52 0 0 1-1.061.433z"/><path fill="url(#d)" d="M791.754 627.69H26.16c-8.919 0-16.174-7.18-16.174-16.011V74.716c0-8.83 7.255-16.01 16.174-16.01h429.564c15.408 0 30.157-5.675 41.524-15.974l17.975-16.287c11.636-10.544 26.73-16.35 42.502-16.35h229.999c11.141 0 20.204 8.976 20.204 20.003V611.68c0 8.831-7.256 16.011-16.174 16.011M26.16 61.668c-7.268 0-13.18 5.855-13.18 13.048v536.963c0 7.193 5.912 13.048 13.18 13.048h765.594c7.268 0 13.18-5.855 13.18-13.048V30.099c0-9.396-7.72-17.035-17.21-17.035H557.725c-15.025 0-29.397 5.53-40.481 15.572l-17.975 16.287c-11.919 10.8-27.384 16.75-43.545 16.75H26.16z"/><path fill="#102039" d="M453.598 339.637V322.97h-5.556v16.667h-5.555v-19.445h16.666v19.445zm11.1-2.778h-2.778V322.97h2.778v-2.778h11.111v2.778h2.778v13.889h-2.778v2.778h-11.111zm8.333 0V322.97h-5.555v13.889zm11.101 0h-2.778V322.97h2.778v-2.778h11.111v2.778h2.777v2.778h-5.555v-2.778h-5.556v13.889h5.556v-2.778h5.555v2.778h-2.777v2.778h-11.111zm16.655 2.778v-2.778h2.778v-16.667h13.889v19.445h-5.556V322.97h-2.777v13.889h-2.778v2.778zm19.434 0v-19.445h16.667v2.778h-11.111v5.556h8.333v2.777h-8.333v5.556h11.111v2.778zm41.653 0v-8.334h-5.556v8.334h-5.555v-19.445h5.555v8.334h5.556v-8.334h5.556v19.445zm11.1-2.778h-2.777V322.97h2.777v-2.778h11.111v2.778h2.778v13.889h-2.778v2.778h-11.111zm8.334 0V322.97h-5.556v13.889zm11.1-11.111h-2.778v-5.556h5.556v5.556h2.777v-5.556h5.556v5.556h2.778v-5.556h5.555v5.556h-2.777v2.778h-2.778v2.777h2.778v2.778h2.777v5.556h-5.555v-5.556h-2.778v5.556h-5.556v-5.556h-2.777v5.556h-5.556v-5.556h2.778v-2.778h2.778v-2.777h-2.778zm22.222 13.889v-19.445h16.667v2.778h-11.111v5.556h8.333v2.777h-8.333v5.556h11.111v2.778zm24.989-11.111h5.556v-5.556h-5.556zm5.556 2.777h-5.556v5.556h5.556zm-11.111 8.334v-19.445h13.889v2.778h2.777v5.556h-2.777v2.777h2.777v5.556h-2.777v2.778zm22.211-2.778h-2.778V322.97h2.778v-2.778h11.111v2.778h2.778v13.889h-2.778v2.778h-11.111zm8.333 0V322.97h-5.555v13.889zm24.99-16.667v2.778h-11.112v16.667h-5.555v-19.445zm5.544 16.667h-2.777V322.97h2.777v-2.778h11.111v2.778h2.778v13.889h-2.778v2.778h-11.111zm8.334 0V322.97h-5.556v13.889zM456.375 356.97h2.778v5.556h-2.778v2.777h-8.333v8.334h-5.555v-19.445h13.888zm-2.777 5.556v-5.556h-5.556v5.556zm13.878-5.556v-2.778h5.555v2.778h2.778v5.556h2.778v11.111h-5.556v-5.556h-5.555v5.556h-5.556v-11.111h2.778v-5.556zm0 8.333h5.555v-5.555h-5.555zm24.989 8.334v-8.334h-5.556v8.334h-5.555v-19.445h5.555v8.334h5.556v-8.334h5.555v19.445zm8.322 0v-19.445h16.667v2.778h-11.111v5.556h8.333v2.777h-8.333v5.556h11.111v2.778zm30.545 0v-8.334h-5.555v8.334h-5.556v-19.445h5.556v8.334h5.555v-8.334h5.556v19.445zm19.434-5.556h-2.778v-8.333h2.778zm8.333-13.889v19.445h-5.556v-13.889h-2.777v-5.556zm-13.889 13.889h2.778v5.556h-8.333v-19.445h5.555zm19.439-5.555h-2.778v-5.556h2.778v-2.778h13.889v19.445h-5.556v-8.334h-2.777v2.778h-2.778v5.556h-5.556v-5.556h2.778zm2.778 0h5.555v-5.556h-5.555zm-119.385 34h5.556v-5.556h-5.556zm5.556 2.777h-5.556v5.556h5.556zm-11.111 8.334v-19.445h13.888v2.778h2.778v5.556h-2.778v2.777h2.778v5.556h-2.778v2.778zm33.319-2.778h-2.777V390.97h2.777v-2.778h11.111v2.778h2.778v13.889h-2.778v2.778h-11.111zm8.334 0V390.97h-5.556v13.889zm8.322 2.778v-19.445h13.889v2.778h-8.333v5.556h8.333v2.777h2.778v5.556h-2.778v2.778zm11.111-8.334h-5.555v5.556h5.555zm8.323 8.334v-2.778h2.778v-16.667h13.888v19.445h-5.555V390.97h-2.778v13.889h-2.778v2.778zm24.989-16.667v-2.778h5.555v2.778h2.778v5.556h2.778v11.111h-5.556v-5.556h-5.555v5.556h-5.556v-11.111h2.778v-5.556zm0 8.333h5.555v-5.555h-5.555zm16.656 5.556h-2.778V390.97h2.778v-2.778h11.111v2.778h2.778v2.778h-5.556v-2.778h-5.556v13.889h5.556v-2.778h5.556v2.778h-2.778v2.778h-11.111zm22.211 2.778V390.97h-5.555v-2.778h16.666v2.778h-5.555v16.667zm27.767-8.334h2.778v5.556h-2.778v2.778H589.63v-19.445h5.556v8.334h8.333zm-2.778 5.556v-5.556h-5.555v5.556zm-155.477 22.889h-2.777v-5.556h5.555v5.556h2.778v-5.556h5.555v5.556h2.778v-5.556h5.556v5.556h-2.778v2.778h-2.778v2.777h2.778v2.778h2.778v5.556h-5.556v-5.556h-2.778v5.556h-5.555v-5.556h-2.778v5.556h-5.555v-5.556h2.777v-2.778h2.778v-2.777h-2.778zm33.334 8.333h-2.778v-8.333h2.778zm8.333-13.889v19.445h-5.556v-13.889h-2.777v-5.556zm-13.889 13.889h2.778v5.556h-8.333v-19.445h5.555zm22.217-5.555h5.555v-5.556h-5.555zm5.555 2.777h-5.555v5.556h5.555zm-11.111 8.334v-19.445h13.889v2.778h2.778v5.556h-2.778v2.777h2.778v5.556h-2.778v2.778zm22.212-2.778h-2.778V424.97h2.778v-2.778h11.111v2.778h2.778v13.889h-2.778v2.778h-11.111zm8.333 0V424.97h-5.555v13.889zm13.878 2.778V424.97h-5.555v-2.778h16.666v2.778h-5.555v16.667zm19.434-16.667v-2.778h5.555v2.778h2.778v5.556h2.778v11.111h-5.556v-5.556h-5.555v5.556h-5.556v-11.111h2.778v-5.556zm0 8.333h5.555v-5.555h-5.555z"/><path fill="#06D0A0" d="M455.82 292.035v-20h-6.667v20h-6.666v-23.333h20v23.333zm16.654-20v-3.333h6.666v3.333h3.334v6.667h3.333v13.333h-6.667v-6.667h-6.666v6.667h-6.667v-13.333h3.333v-6.667zm0 10h6.666v-6.667h-6.666zm16.653 10v-23.333h6.667v20h6.667v-20h6.666v26.666h-6.666v-3.333zm36.654-6.667h-3.333v-10h3.333zm10-16.666v23.333h-6.667v-16.667h-3.333v-6.666zm-16.667 16.666h3.334v6.667h-10v-23.333h6.666zm19.994 6.667v-23.333h20v3.333h-13.334v6.667h10v3.333h-10v6.667h13.334v3.333zm36.653 0v-10h-6.666v10h-6.667v-23.333h6.667v10h6.666v-10h6.667v23.333zm16.654 0v-20h-6.667v-3.333h20v3.333h-6.666v20zm36.65-13.333h6.667v-6.667h-6.667zm6.667 3.333h-6.667v6.667h6.667zm-13.333 10v-23.333h16.666v3.333h3.334v6.667h-3.334v3.333h3.334v6.667h-3.334v3.333z"/><defs><linearGradient id="d" x1="408.957" x2="408.957" y1="10.0957" y2="627.69" gradientUnits="userSpaceOnUse"><stop stop-color="#fff"/><stop offset="1" stop-color="#0B7A60"/></linearGradient><clipPath id="c"><path fill="#fff" d="M63.644 219.452h352.797v535.766H63.644z"/></clipPath><filter id="a" width="846.764" height="666.41" x="0.841797" y="0.80069" color-interpolation-filters="sRGB" filterUnits="userSpaceOnUse"><feFlood flood-opacity="0" result="BackgroundImageFix"/><feBlend in="SourceGraphic" in2="BackgroundImageFix" result="shape"/><feGaussianBlur result="effect1_foregroundBlur_2350_1533" stdDeviation="12"/></filter></defs></svg>