<svg xmlns="http://www.w3.org/2000/svg" width="848" height="668" fill="none" viewBox="0 0 848 668"><g filter="url(#a)"><path fill="#000" fill-opacity="0.4" d="M823.614 93.719v-48.61c0-11.253-9.245-20.404-20.612-20.404H573.003c-15.872 0-31.067 5.843-42.778 16.456L512.25 57.448c-11.291 10.23-25.94 15.866-41.248 15.866H45.467a20.8 20.8 0 0 0-8.015 1.607 20.5 20.5 0 0 0-5.868 3.734c-4.13 3.735-6.728 9.107-6.728 15.07v528.98q-.002.529.025 1.048c.515 10.073 8.448 18.238 18.484 19.255q1.037.105 2.102.107H803.01q1.065-.002 2.102-.107c10.036-1.01 17.963-9.182 18.484-19.255q.026-.52.025-1.048V93.719z"/></g><path fill="#10203A" d="M791.837 60.09H26.098c-8.066 0-14.604 6.54-14.604 14.605v536.813c0 8.066 6.538 14.605 14.604 14.605h765.739c8.066 0 14.604-6.539 14.604-14.605V74.696c0-8.067-6.538-14.605-14.604-14.605"/><path fill="#8353E3" d="M11.494 547.415H806.44v56.628c0 12.178-6.546 22.069-14.604 22.069H26.098c-8.058 0-14.604-9.891-14.604-22.069z"/><path fill="#fff" d="M321.524 590.751h-5v-15h5zm15-25v35h-10v-25h-5v-10zm-25 25h5v10h-15v-35h10zm59.991-25v5h-20v30h-10v-35zm29.98 5h5v10h-5v5h-15v15h-10v-35h25zm-5 10v-10h-10v10zm24.981-10v-5h10v5h5v10h5v20h-10v-10h-10v10h-10v-20h5v-10zm0 15h10v-10h-10zm34.98 15v-30h-10v-5h30v5h-10v30zm49.981-15h5v10h-5v5h-25v-35h10v15h15zm-5 10v-10h-10v10z"/><path fill="#F0F0F0" d="M761.359 188.628H56.576c-8.066 0-14.605 6.103-14.605 13.632v307.63c0 7.529 6.539 13.632 14.605 13.632h704.783c8.067 0 14.605-6.103 14.605-13.632V202.26c0-7.529-6.538-13.632-14.605-13.632"/><mask id="b" width="735" height="336" x="41" y="188" maskUnits="userSpaceOnUse" style="mask-type:alpha"><path fill="#F0F0F0" d="M761.359 188.628H56.576c-8.066 0-14.605 6.104-14.605 13.632v307.63c0 7.529 6.539 13.633 14.605 13.633h704.783c8.067 0 14.605-6.104 14.605-13.633V202.26c0-7.528-6.538-13.632-14.605-13.632"/></mask><g mask="url(#b)"><path fill="#03303C" fill-opacity="0.4" fill-rule="evenodd" d="M-335.499 15.2a2 2 0 0 0-2 2v553.579a2 2 0 0 0 2 2H831.773a2 2 0 0 0 2-2V17.199a2 2 0 0 0-2-2H-335.499m2 92.263V65.331h44.352v42.132zm0-46.132h44.352V19.2h-44.352zm48.352 46.132V65.331h44.352v42.132zm0-46.132h44.352V19.2h-44.352zm48.352 46.132V65.331h44.352v42.132zm0-46.132h44.352V19.2h-44.352zm48.352 46.132V65.331h44.351v42.132zm0-46.132h44.351V19.2h-44.351zm48.351 46.132V65.331h44.352v42.132zm0-46.132h44.352V19.2h-44.352zm48.352 46.132V65.331h47.766v42.132zm0-46.132h47.766V19.2H-91.74zm51.766 46.132V65.331H4.378v42.132zm0-46.132H4.378V19.2h-44.352zm48.352 46.132V65.331H52.73v42.132zm0-46.132H52.73V19.2H8.378zm48.352 46.132V65.331h44.352v42.132zm0-46.132h44.352V19.2H56.73zm48.352 46.132V65.331h44.351v42.132zm0-46.132h44.351V19.2h-44.351zm48.351 46.132V65.331h44.352v42.132zm0-46.132h44.352V19.2h-44.352zm48.352 46.132V65.331h44.352v42.132zm0-46.132h44.352V19.2h-44.352zm0 50.132h44.352v42.131h-44.352zm0 46.131h44.352v42.132h-44.352zm0 46.132h44.352v42.132h-44.352zm0 46.132h44.352v42.131h-44.352zm0 46.131h44.352v42.132h-44.352zm0 46.132h44.352v42.132h-44.352zm0 46.132h44.352v42.131h-44.352zm0 46.131h44.352v42.132h-44.352zm0 46.132h44.352v42.131h-44.352zm0 46.131h44.352v42.132h-44.352zm-4 0v42.132h-44.352v-42.132zm-48.352 0v42.132h-44.351v-42.132zm-48.351 0v42.132H56.73v-42.132zm-48.352 0v42.132H8.378v-42.132zm-48.352 0v42.132h-44.352v-42.132zm-48.352 0v42.132H-91.74v-42.132zm-51.766 0v42.132h-44.352v-42.132zm-48.352 0v42.132h-44.351v-42.132zm-48.351 0v42.132h-44.352v-42.132zm-48.352 0v42.132h-44.352v-42.132zm-48.352 0v42.132h-44.352v-42.132zm0-4h-44.352v-42.131h44.352zm0-46.131h-44.352v-42.132h44.352zm0-46.132h-44.352v-42.131h44.352zm0-46.131h-44.352V342.12h44.352zm0-46.132h-44.352v-42.132h44.352zm0-46.132h-44.352v-42.131h44.352zm0-46.131h-44.352v-42.132h44.352zm0-46.132h-44.352v-42.132h44.352zm0-46.132h-44.352v-42.131h44.352zm4 0v-42.131h44.352v42.131zm48.352 0v-42.131h44.352v42.131zm48.352 0v-42.131h44.351v42.131zm48.351 0v-42.131h44.352v42.131zm48.352 0v-42.131h47.766v42.131zm51.766 0v-42.131H4.378v42.131zm48.352 0v-42.131H52.73v42.131zm48.352 0v-42.131h44.352v42.131zm48.352 0v-42.131h44.351v42.131zm48.351 0v-42.131h44.352v42.131zm0 4h44.352v42.132h-44.352zm0 46.132h44.352v42.132h-44.352zm0 46.132h44.352v42.131h-44.352zm0 46.131h44.352v42.132h-44.352zm0 46.132h44.352v42.132h-44.352zm0 46.132h44.352v42.131h-44.352zm0 46.131h44.352v42.132h-44.352zm0 46.132h44.352v42.131h-44.352zm-4 0v42.131h-44.351v-42.131zm-48.351 0v42.131H56.73v-42.131zm-48.352 0v42.131H8.378v-42.131zm-48.352 0v42.131h-44.352v-42.131zm-48.352 0v42.131H-91.74v-42.131zm-51.766 0v42.131h-44.352v-42.131zm-48.352 0v42.131h-44.351v-42.131zm-48.351 0v42.131h-44.352v-42.131zm-48.352 0v42.131h-44.352v-42.131zm0-4h-44.352v-42.132h44.352zm0-46.132h-44.352v-42.131h44.352zm0-46.131h-44.352V342.12h44.352zm0-46.132h-44.352v-42.132h44.352zm0-46.132h-44.352v-42.131h44.352zm0-46.131h-44.352v-42.132h44.352zm0-46.132h-44.352v-42.132h44.352zm4 0v-42.132h44.352v42.132zm48.352 0v-42.132h44.351v42.132zm48.351 0v-42.132h44.352v42.132zm48.352 0v-42.132h47.766v42.132zm51.766 0v-42.132H4.378v42.132zm48.352 0v-42.132H52.73v42.132zm48.352 0v-42.132h44.352v42.132zm48.352 0v-42.132h44.351v42.132zm0 4h44.351v42.132h-44.351zm0 46.132h44.351v42.131h-44.351zm0 46.131h44.351v42.132h-44.351zm0 46.132h44.351v42.132h-44.351zm0 46.132h44.351v42.131h-44.351zm0 46.131h44.351v42.132h-44.351zm-4 0v42.132H56.73v-42.132zm-48.352 0v42.132H8.378v-42.132zm-48.352 0v42.132h-44.352v-42.132zm-48.352 0v42.132H-91.74v-42.132zm-51.766 0v42.132h-44.352v-42.132zm-48.352 0v42.132h-44.351v-42.132zm-48.351 0v42.132h-44.352v-42.132zm0-4h-44.352v-42.131h44.352zm0-46.131h-44.352V342.12h44.352zm0-46.132h-44.352v-42.132h44.352zm0-46.132h-44.352v-42.131h44.352zm0-46.131h-44.352v-42.132h44.352zm4 0v-42.132h44.351v42.132zm48.351 0v-42.132h44.352v42.132zm48.352 0v-42.132h47.766v42.132zm51.766 0v-42.132H4.378v42.132zm48.352 0v-42.132H52.73v42.132zm48.352 0v-42.132h44.352v42.132zm0 4h44.352v42.131H56.73zm0 46.131h44.352v42.132H56.73zm0 46.132h44.352v42.132H56.73zm0 46.132h44.352v42.131H56.73zm-4 0v42.131H8.378v-42.131zm-48.352 0v42.131h-44.352v-42.131zm-48.352 0v42.131H-91.74v-42.131zm-51.766 0v42.131h-44.352v-42.131zm-48.352 0v42.131h-44.351v-42.131zm0-4h-44.351V342.12h44.351zm0-46.132h-44.351v-42.132h44.351zm0-46.132h-44.351v-42.131h44.351zm4 0v-42.131h44.352v42.131zm48.352 0v-42.131h47.766v42.131zm51.766 0v-42.131H4.378v42.131zm48.352 0v-42.131H52.73v42.131zm0 4H52.73v42.132H8.378zm0 46.132H52.73v42.132H8.378zm-4 0v42.132h-44.352V342.12zm-48.352 0v42.132H-91.74V342.12zm-51.766 0v42.132h-44.352V342.12zm0-4h-44.352v-42.132h44.352zm4 0v-42.132h47.766v42.132zm51.766 0v-42.132H4.378v42.132zM294.49 107.463h-44.352V65.331h44.352zm-44.352-46.132h44.352V19.2h-44.352zm92.704 46.132H298.49V65.331h44.352zM298.49 61.331h44.352V19.2H298.49zm92.704 46.132h-44.352V65.331h44.352zm-44.352-46.132h44.352V19.2h-44.352zm92.703 46.132h-44.351V65.331h44.351zm-44.351-46.132h44.351V19.2h-44.351zm92.703 46.132h-44.352V65.331h44.352zm-44.352-46.132h44.352V19.2h-44.352zm96.118 46.132h-47.766V65.331h47.766zm-47.766-46.132h47.766V19.2h-47.766zm96.118 46.132h-44.352V65.331h44.352zm-44.352-46.132h44.352V19.2h-44.352zm92.704 46.132h-44.352V65.331h44.352zm-44.352-46.132h44.352V19.2h-44.352zm92.704 46.132h-44.352V65.331h44.352zm-44.352-46.132h44.352V19.2h-44.352zm92.703 46.132h-44.351V65.331h44.351zm-44.351-46.132h44.351V19.2h-44.351zm92.703 46.132H737.07V65.331h44.352zM737.07 61.331h44.352V19.2H737.07zm92.704 46.132h-44.352V65.331h44.352zm-44.352-46.132h44.352V19.2h-44.352zm0 50.132h44.352v42.131h-44.352zm0 46.131h44.352v42.132h-44.352zm0 46.132h44.352v42.132h-44.352zm0 46.132h44.352v42.131h-44.352zm0 46.131h44.352v42.132h-44.352zm0 46.132h44.352v42.132h-44.352zm0 46.132h44.352v42.131h-44.352zm0 46.131h44.352v42.132h-44.352zm0 46.132h44.352v42.131h-44.352zm0 46.131h44.352v42.132h-44.352zm-48.352 0h44.352v42.132H737.07zm-48.351 0h44.351v42.132h-44.351zm-48.352 0h44.352v42.132h-44.352zm-48.352 0h44.352v42.132h-44.352zm-48.352 0h44.352v42.132h-44.352zm-51.766 0h47.766v42.132h-47.766zm-48.352 0h44.352v42.132h-44.352zm-48.351 0h44.351v42.132h-44.351zm-48.352 0h44.352v42.132h-44.352zm-48.352 0h44.352v42.132H298.49zm-48.352 0h44.352v42.132h-44.352zm44.352-4h-44.352v-42.131h44.352zm0-46.131h-44.352v-42.132h44.352zm0-46.132h-44.352v-42.131h44.352zm0-46.131h-44.352v-42.132h44.352zm0-46.132h-44.352v-42.132h44.352zm0-46.132h-44.352v-42.131h44.352zm0-46.131h-44.352v-42.132h44.352zm0-46.132h-44.352v-42.132h44.352zm0-46.132h-44.352v-42.131h44.352zm4 0v-42.131h44.352v42.131zm48.352 0v-42.131h44.352v42.131zm48.352 0v-42.131h44.351v42.131zm48.351 0v-42.131h44.352v42.131zm48.352 0v-42.131h47.766v42.131zm51.766 0v-42.131h44.352v42.131zm48.352 0v-42.131h44.352v42.131zm48.352 0v-42.131h44.352v42.131zm48.352 0v-42.131h44.351v42.131zm48.351 0v-42.131h44.352v42.131zm0 4h44.352v42.132H737.07zm0 46.132h44.352v42.132H737.07zm0 46.132h44.352v42.131H737.07zm0 46.131h44.352v42.132H737.07zm0 46.132h44.352v42.132H737.07zm0 46.132h44.352v42.131H737.07zm0 46.131h44.352v42.132H737.07zm0 46.132h44.352v42.131H737.07zm-4 0v42.131h-44.351v-42.131zm-48.351 0v42.131h-44.352v-42.131zm-48.352 0v42.131h-44.352v-42.131zm-48.352 0v42.131h-44.352v-42.131zm-48.352 0v42.131h-47.766v-42.131zm-51.766 0v42.131h-44.352v-42.131zm-48.352 0v42.131h-44.351v-42.131zm-48.351 0v42.131h-44.352v-42.131zm-48.352 0v42.131H298.49v-42.131zm0-4H298.49v-42.132h44.352zm0-46.132H298.49v-42.131h44.352zm0-46.131H298.49v-42.132h44.352zm0-46.132H298.49v-42.132h44.352zm0-46.132H298.49v-42.131h44.352zm0-46.131H298.49v-42.132h44.352zm0-46.132H298.49v-42.132h44.352zm4 0v-42.132h44.352v42.132zm48.352 0v-42.132h44.351v42.132zm48.351 0v-42.132h44.352v42.132zm48.352 0v-42.132h47.766v42.132zm51.766 0v-42.132h44.352v42.132zm48.352 0v-42.132h44.352v42.132zm48.352 0v-42.132h44.352v42.132zm48.352 0v-42.132h44.351v42.132zm0 4h44.351v42.132h-44.351zm0 46.132h44.351v42.131h-44.351zm0 46.131h44.351v42.132h-44.351zm0 46.132h44.351v42.132h-44.351zm0 46.132h44.351v42.131h-44.351zm0 46.131h44.351v42.132h-44.351zm-4 0v42.132h-44.352v-42.132zm-48.352 0v42.132h-44.352v-42.132zm-48.352 0v42.132h-44.352v-42.132zm-48.352 0v42.132h-47.766v-42.132zm-51.766 0v42.132h-44.352v-42.132zm-48.352 0v42.132h-44.351v-42.132zm-48.351 0v42.132h-44.352v-42.132zm0-4h-44.352v-42.131h44.352zm0-46.131h-44.352v-42.132h44.352zm0-46.132h-44.352v-42.132h44.352zm0-46.132h-44.352v-42.131h44.352zm0-46.131h-44.352v-42.132h44.352zm4 0v-42.132h44.351v42.132zm48.351 0v-42.132h44.352v42.132zm48.352 0v-42.132h47.766v42.132zm51.766 0v-42.132h44.352v42.132zm48.352 0v-42.132h44.352v42.132zm48.352 0v-42.132h44.352v42.132zm0 4h44.352v42.131h-44.352zm0 46.131h44.352v42.132h-44.352zm0 46.132h44.352v42.132h-44.352zm0 46.132h44.352v42.131h-44.352zm-4 0v42.131h-44.352v-42.131zm-48.352 0v42.131h-44.352v-42.131zm-48.352 0v42.131h-47.766v-42.131zm-51.766 0v42.131h-44.352v-42.131zm-48.352 0v42.131h-44.351v-42.131zm0-4h-44.351v-42.132h44.351zm0-46.132h-44.351v-42.132h44.351zm0-46.132h-44.351v-42.131h44.351zm4 0v-42.131h44.352v42.131zm48.352 0v-42.131h47.766v42.131zm51.766 0v-42.131h44.352v42.131zm48.352 0v-42.131h44.352v42.131zm0 4h44.352v42.132h-44.352zm0 46.132h44.352v42.132h-44.352zm-4 0v42.132h-44.352v-42.132zm-48.352 0v42.132h-47.766v-42.132zm-51.766 0v42.132h-44.352v-42.132zm0-4h-44.352v-42.132h44.352zm4 0v-42.132h47.766v42.132zm51.766 0v-42.132h44.352v42.132z" clip-rule="evenodd" opacity="0.2"/><path fill="#566491" d="m408.742 638.202-27.587-161.468s-12.439-51.23-39.472-57.694c-27.034-6.46-37.208 42.435-29.987 60.155L344.369 651s10.838 26.248 31.196 26.582c20.361.324 35.473-16.738 33.174-39.38z"/><path fill="#C9DDE2" d="M287.402 407.328H182.31v184.109h105.092z"/><path fill="#06D0A0" d="m261.902 430.01-11.409 10.668 18.799 139.808h-41.377l11.169-140.381-11.578-12.801 8.826-21.861 18.884-1.313z"/><path fill="#fff" d="m255.749 386.691 20.855 10.831s1.641 4.11 1.477 7.552c-.164 3.443-10.511 33.146-10.511 33.146s-2.459 3.606-4.761 1.64l-17.486-26.667-21.81 26.503s-2.79 3.282-7.885-.164c0 0-16.853-21.335-24.243-31.015-7.391-9.68-8.046-17.89-8.046-17.89l21.344-10.498 51.069 6.558z"/><path fill="#566491" d="m278.937 396.745-2.295.878s-.904 37.847-5.171 75.59c-4.267 37.737-19.378 94.188-19.378 94.188s-35.139-82.699-43.348-106.329-19.867-73.164-19.867-73.164l-11.333 3.588-50.899 21.659s-9.856 7.88-7.885 18.708c1.971 10.832 19.379 220.531 19.379 220.531s-10.345 63.837-12.313 93.701c-1.971 29.863-3.284 68.255-3.284 68.255s.123.214.409.591h228.804c-2.223-29.545-14.441-159.101-14.441-159.101s6.074-97.631 7.715-122.9c1.647-25.275 1.647-44.632 1.647-44.632l-1.313-64.655s-.696-3.892-5.627-5.453c-4.925-1.561-60.793-21.452-60.793-21.452z"/><path fill="#313763" d="M178.522 391.917a1.06 1.06 0 0 0-.548-1.403 1.07 1.07 0 0 0-1.405.554l-14.038 32.107c-.012.025-3.416 8.034 3.266 12.241l42.378 26.563a1.07 1.07 0 0 0 1.14-1.807l-42.378-26.562c-4.995-3.147-2.576-9.271-2.434-9.62l14.019-32.066z"/><path fill="#313763" d="m258.208 814.941-6.043-242.184-.245-.658-75.562-90.827s-4.279-4.849.325-9.834c5.255-5.689 17.952-18.89 17.986-18.928a1.06 1.06 0 0 0-.019-1.507 1.07 1.07 0 0 0-1.508.018c-.038.038-12.782 13.293-18.031 18.976-5.718 6.19-.696 12.285-.359 12.682l75.288 90.5 6.036 241.762h2.135zm30.129-415.842a1.06 1.06 0 0 0-1.508-.104 1.074 1.074 0 0 0-.104 1.507l17.193 19.75c.365.572 3.546 5.941-.69 9.827L271.66 463.92a1.07 1.07 0 0 0 .054 1.508 1.075 1.075 0 0 0 1.515-.054l31.482-33.756c5.75-5.337.958-12.603.945-12.625l-.079-.104-17.237-19.794z"/><path fill="#313763" d="M256.677 565.714a1.065 1.065 0 1 0 1.88 1.004l44.831-84.137c.715-.884 5.01-6.69-.434-12.584-5.249-5.68-17.993-18.938-18.031-18.976a1.067 1.067 0 0 0-1.527 1.489c.031.038 12.731 13.242 17.993 18.928 4.597 4.985.331 9.821.318 9.834l-.151.208zm90.517-104.383a1.07 1.07 0 0 0-1.08-1.055 1.063 1.063 0 0 0-1.055 1.073c0 .129.623 44.113-1.672 80.49-2.258 35.793-6.953 110.958-6.966 111.172a1.06 1.06 0 0 0 1.002 1.13 1.067 1.067 0 0 0 1.124-1.001c.012-.214 4.638-74.177 6.971-111.172 2.296-36.402 1.673-80.515 1.673-80.641z"/><path fill="#313763" d="M356.599 471.3a1.065 1.065 0 0 0-1.055-1.073 1.064 1.064 0 0 0-1.08 1.054c0 .066-.324 23.271-9.056 35.48a1.07 1.07 0 0 0 1.745 1.243c9.113-12.747 9.443-36.629 9.443-36.701z"/><path fill="#566491" d="M143.228 489.372 113.515 658.55s-4.931 19.359-31.196 15.425c-26.275-3.94-27.588-26.257-27.588-26.257l26.76-185.585s2.629-38.561 45.155-48.981c0 0 24.798 4.019 16.582 76.22"/><path fill="#313763" d="M127.317 573.777a1.067 1.067 0 0 0 .878 1.233 1.064 1.064 0 0 0 1.228-.871l15.131-87.07a1.064 1.064 0 0 0-.872-1.234 1.07 1.07 0 0 0-1.235.878z"/><path fill="#313763" d="M153.525 490.401a1.063 1.063 0 0 0-.872-1.234 1.073 1.073 0 0 0-1.235.872c0 .032-1.672 9.736-14.362 28.303a1.06 1.06 0 0 0 .281 1.482c.481.33 1.152.208 1.483-.28 12.957-18.95 14.708-29.115 14.708-29.143z"/><path fill="#FDA77E" d="m262.072 358.718.658 39.707s.324 15.426-17.407 14.768-36.78-16.407-36.78-16.407l-6.902-12.144s4.931-11.162 4.273-19.69c-.658-8.534-3.618-40.695-3.618-40.695s3.618-9.849 22.662-9.192c19.048.658 40.908 12.411 37.11 43.65z"/><path fill="#D05F3C" d="m262.072 358.718.554 33.479c-2.258 1.782-5.218 3.531-8.723 4.264-8.319 1.756-41.21-24.642-44.884-31.503-.75-1.403-2.063-3.836-3.675-6.819-1.08-12.527-3.045-33.882-3.045-33.882s3.618-9.849 22.663-9.192c19.047.658 40.907 12.411 37.11 43.65z"/><path fill="#FDA77E" d="m288.957 255.892 5.627 25.65-2.705 69.07s-1.751 8.814-7.844 14.866c-6.102 6.051-18.175 14.223-18.175 14.223s-5.848 3.27-12.231 2.417-36.682-19.995-36.682-19.995-5.183-5.667-7.862-14.944l-2.343-6.716s-9.841-.469-14.558-12.76c-4.717-12.285-3.602-20.366 3.089-24.265 6.689-3.899 11.469 4.849 12.612 10.302l-.879-49.528s9.145-19.749 32.551-22.317c23.406-2.574 45.155 2.209 49.397 13.997z"/><path fill="#AC5649" d="M273.515 349.589a1.066 1.066 0 1 0-.469-2.08c-.032.006-12.495 3.024-25.466-1.847a1.065 1.065 0 1 0-.749 1.995c13.575 5.098 26.643 1.939 26.684 1.932m-24.681-60.507c.585.085.957-3.758 1.042-4.343a1.067 1.067 0 0 0-.904-1.208c-.038 0-13.439-2.008-17.952.39-.519.28-.715.922-.441 1.444.281.52 1.099 4.16 1.619 3.88 3.889-2.067 16.607-.17 16.639-.163zm39.08-.356c.555.195 1.386-2.508 1.581-3.062a1.07 1.07 0 0 0-.652-1.366c-.012 0-5.353-1.834-12.176-.037-.567.151-.91.733-.762 1.306.151.572.513 3.323 1.086 3.172 6.2-1.634 10.908-.019 10.92-.013zm-78.395-24.721 3.492-3.915s3.798 1.841 9.542-3.245c5.737-5.075 30.585-1.041 42.853.812 12.262 1.854 23.548-1.768 23.548-1.768s2.27.749 5.548-4.409c3.278-5.148 3.187-29.124-17.054-33.347-20.245-4.233-31.763 7.404-45.26 8.308s-59.228 21.848-41.37 47.498l18.701-9.941z"/><path fill="#BC6D58" d="M214.756 283.616c-1.014 6.369-6.868 30.124-6.868 30.124-5.646-14.503-17.432-10.271-18.553-.044 0 0-3.326-13.877-2.368-23.702.957-9.815-.136-17.238 6.225-21.146 6.361-3.915 19.819-8.758 19.819-8.758 3.407 1.834 2.258 20.341 1.745 23.526"/><path fill="#AC5649" d="M192.801 316.041a1.068 1.068 0 0 0 2.135-.032c-.012-.689.293-1.438.788-2.055.365-.462.831-.846 1.347-1.073.463-.201.964-.273 1.446-.141.5.135 1.02.487 1.521 1.123 1.287 1.652 2.745 4.79 3.936 7.984 1.332 3.593 2.308 7.196 2.308 8.776 0 2.496-2.393 3.518-2.4 3.525a1.065 1.065 0 1 0 .825 1.963c.013 0 3.707-1.586 3.716-5.485 0-1.819-1.033-5.714-2.447-9.516-1.25-3.367-2.824-6.721-4.26-8.562-.8-1.026-1.716-1.618-2.642-1.866-.995-.268-1.978-.142-2.862.245-.832.365-1.587.976-2.167 1.709-.781.982-1.263 2.215-1.244 3.405"/><path fill="#AC5649" d="M196.237 324.792a1.06 1.06 0 0 0 .548 1.404 1.07 1.07 0 0 0 1.404-.554s.274-.749 2.551-1.633c2.192-.86 4.437.531 4.443.538a1.08 1.08 0 0 0 1.471-.372 1.077 1.077 0 0 0-.372-1.469c-.012-.007-3.114-1.939-6.317-.683-3.123 1.215-3.728 2.757-3.728 2.763z"/><path fill="#7E3E35" d="M269.629 227.775a1.06 1.06 0 0 0 .702-1.331 1.073 1.073 0 0 0-1.341-.702c-.073.025-24.329 7.351-22.827 32.438a1.066 1.066 0 0 0 1.124 1 1.07 1.07 0 0 0 1.002-1.129c-1.399-23.397 21.271-30.248 21.337-30.273zm-61.725 16.798a1.067 1.067 0 1 0-2.101-.362c-.006.031-2.16 12.26 3.389 17.786a1.07 1.07 0 0 0 1.508-.006 1.074 1.074 0 0 0 0-1.514c-4.761-4.733-2.803-15.866-2.796-15.901zm16.314-7.436a1.06 1.06 0 0 0-.286-1.476 1.07 1.07 0 0 0-1.483.286c-.019.032-7.879 11.511-.769 21.518a1.07 1.07 0 0 0 1.49.262 1.07 1.07 0 0 0 .255-1.489c-6.245-8.802.774-19.067.793-19.098zm17.159-4.887a1.074 1.074 0 0 0-.013-1.508 1.074 1.074 0 0 0-1.508.013c-.032.031-11.059 11.278-7.384 25.046.151.566.733.909 1.306.755.573-.151.91-.733.762-1.306-3.363-12.591 6.812-22.966 6.837-23m2.415 68.925.17 7.892s-.129 2.14-1.99 2.427c-1.855.28-3.162-.032-3.716-1.671-.554-1.646-.365-9.551-.365-9.551s.249-2.055 2.466-2.171c2.216-.111 3.331 1.041 3.435 3.074m40.051 1.073.157 7.386s-.116 2.007-1.854 2.269c-1.745.261-2.96-.026-3.48-1.567-.513-1.536-.343-8.931-.343-8.931s.233-1.932 2.308-2.036 3.118.975 3.212 2.879"/><path fill="#EE7353" d="M275.12 326.551s-5.101 1.026-8.417.428-11.701 4.752-11.701 4.752-1.124 4.783 1.042 4.251c2.173-.525 16.372.343 16.372.343l2.704-9.777z"/><path fill="#AC5649" d="M270.3 293.497a1.067 1.067 0 1 0-2.041-.617c-.012.031-3.356 10.809-2.33 16.511.91 5.02 6.733 15.011 8.046 17.233l-3.54 8.918c-.22.547.044 1.17.599 1.384a1.064 1.064 0 0 0 1.379-.598l3.93-9.893-.262-.45c-.019-.032-7.104-11.729-8.051-16.968-.936-5.195 2.257-15.498 2.27-15.523zm-7.838 42.385a1.063 1.063 0 1 0 1.146-1.794c-.006-.006-2.484-1.548-5.901-.708l-2.979.733a1.067 1.067 0 1 0 .507 2.074l2.979-.727c2.545-.623 4.242.422 4.248.422m5.164 21.996c.58-.116.951-.683.832-1.262a1.06 1.06 0 0 0-1.257-.831c-.025 0-8.54 1.722-15.174-1.274a1.066 1.066 0 0 0-1.405.532c-.239.538 0 1.17.532 1.409 7.259 3.276 16.444 1.423 16.469 1.423z"/></g><path fill="#8353E3" d="M787.738 11.481H557.739c-15.357 0-30.163 5.693-41.492 15.96L498.272 43.73c-11.617 10.525-26.787 16.362-42.534 16.362H30.203c-10.33 0-18.703 8.29-18.703 18.515v83.561h794.948V30.003c0-10.23-8.373-18.522-18.703-18.522z"/><path fill="#10203A" d="M782.703 24.843h-38.614a4 4 0 0 0-4 4v38.149a4 4 0 0 0 4 4h38.614a4 4 0 0 0 4-4v-38.15a4 4 0 0 0-4-4"/><path fill="#fff" d="m774.91 61.414-25.149-24.898 2.122-2.096 25.142 24.897z"/><path fill="#fff" d="m751.883 61.414-2.122-2.097L774.91 34.42l2.115 2.096z"/><path fill="#10203A" d="M717.694 24.843H679.08a4 4 0 0 0-4 4v38.15a4 4 0 0 0 4 4h38.614a4 4 0 0 0 4-4v-38.15a4 4 0 0 0-4-4"/><path fill="#fff" d="M710.968 60.372h-25.162v-24.91h25.162zM688.8 57.41h19.174V38.424H688.8z"/><path fill="#10203A" d="M650.632 24.843h-38.613a4 4 0 0 0-4 4v38.149a4 4 0 0 0 4 4h38.613a4 4 0 0 0 4-4v-38.15a4 4 0 0 0-4-4"/><path fill="#fff" d="M645.576 57.21h-28.488v2.962h28.488z"/><path fill="#10203A" d="M779.717 96.58H204.393a9.276 9.276 0 0 0-9.276 9.277v24.27a9.276 9.276 0 0 0 9.276 9.276h575.324a9.276 9.276 0 0 0 9.276-9.276v-24.27a9.276 9.276 0 0 0-9.276-9.277"/><path fill="#fff" d="M219.944 123.095h-3.334v-10h3.334zm10-16.667v23.334h-6.667v-16.667h-3.333v-6.667zm-16.667 16.667h3.333v6.667h-10v-23.334h6.667zm26.66-6.667h6.667v-6.666h-6.667zm6.667 3.334h-6.667v6.666h6.667zm-13.333 10v-23.334h16.666v3.334h3.334v6.666h-3.334v3.334h3.334v6.666h-3.334v3.334zm29.986-20v-3.334h6.667v3.334h3.333v6.666h3.334v13.334h-6.667v-6.667h-6.667v6.667h-6.666v-13.334h3.333v-6.666zm0 10h6.667v-6.667h-6.667zm29.987 10v-10h-6.666v10h-6.667v-23.334h6.667v10h6.666v-10h6.667v23.334zm23.318-16.667v-3.333h3.333v-3.334h13.333v3.334h3.334v6.666h-3.334v3.334h3.334v6.666h-3.334v3.334h-13.333v-3.334h-3.333v-3.333h6.666v3.333h6.667v-6.666h-6.667v-3.334h6.667v-6.666h-6.667v3.333zm36.653 6.667v-6.667h-3.333v3.333h-3.333v3.334zm3.334 0h3.333v3.333h-3.333v6.667h-6.667v-6.667h-10v-6.667h3.333v-3.333h3.334v-3.333h3.333v-3.334h6.667zm39.983-13.334v3.334h-13.333v20h-6.667v-23.334zm6.654 20h-3.333v-16.666h3.333v-3.334h13.333v3.334h3.334v16.666h-3.334v3.334h-13.333zm10 0v-16.666h-6.667v16.666zm26.654 6.667v-3.333h-10v3.333h-6.667v-6.667h3.333v-16.666h3.334v-3.334h10v3.334h3.333v16.666h3.333v6.667zm-6.667-6.667h3.333v-16.666h-3.333zm23.327-16.666v-3.334h6.666v3.334h3.334v6.666h3.333v13.334h-6.667v-6.667H456.5v6.667h-6.667v-13.334h3.333v-6.666zm0 10h6.666v-6.667H456.5z"/><path fill="#10203A" d="M57.116 134.602c-.308 0-.615-.094-.88-.282l-17.911-12.873a1.46 1.46 0 0 1-.616-1.199c0-.477.233-.922.616-1.199l17.912-12.872a1.506 1.506 0 0 1 2.09.326 1.474 1.474 0 0 1-.333 2.071l-16.243 11.674 16.243 11.674c.672.483.816 1.406.333 2.071a1.49 1.49 0 0 1-1.211.609m31.544 0a1.5 1.5 0 0 1-1.211-.609 1.474 1.474 0 0 1 .332-2.071l16.243-11.674-16.243-11.674a1.474 1.474 0 0 1-.332-2.071 1.5 1.5 0 0 1 2.09-.326l17.912 12.872c.389.276.615.722.615 1.199s-.232.923-.615 1.199l-17.912 12.872a1.5 1.5 0 0 1-.879.283m54.497-9.922a13.58 13.58 0 0 1-9.603-3.935c-5.291-5.241-5.291-13.77 0-19.011 2.567-2.542 5.975-3.935 9.603-3.935 3.627 0 7.035 1.4 9.602 3.935 5.291 5.241 5.291 13.77 0 19.011-2.567 2.542-5.975 3.935-9.602 3.935m0-23.919a10.57 10.57 0 0 0-7.482 3.069 10.423 10.423 0 0 0 0 14.819 10.57 10.57 0 0 0 7.482 3.069 10.57 10.57 0 0 0 7.481-3.069 10.423 10.423 0 0 0 0-14.819 10.57 10.57 0 0 0-7.481-3.069"/><path fill="#10203A" d="M167.954 136.731c-.383 0-.766-.144-1.061-.433l-15.157-15.007a1.473 1.473 0 0 1 0-2.096 1.51 1.51 0 0 1 2.115 0l15.157 15.007a1.473 1.473 0 0 1 0 2.096 1.5 1.5 0 0 1-1.06.433z"/><path fill="#102039" d="M414.692 336.763h-2.777v-13.889h2.777v-2.777h11.111v2.777h2.778v2.778h-5.555v-2.778h-5.556v13.889h5.556v-2.778h5.555v2.778h-2.778v2.778h-11.111zm30.542 0h-2.777v-13.889h2.777v-2.777h11.111v2.777h2.778v13.889h-2.778v2.778h-11.111zm8.334 0v-13.889h-5.556v13.889zm11.1 0h-2.778v-13.889h2.778v-2.777h11.111v2.777h2.778v2.778h-5.556v-2.778h-5.555v13.889h5.555v-2.778h5.556v2.778h-2.778v2.778h-11.111zm22.211 2.778v-16.667h-5.555v-2.777h16.666v2.777h-5.555v16.667zm27.767-16.667h2.778v5.556h-2.778v2.778h-8.333v8.333h-5.556v-19.444h13.889zm-2.778 5.556v-5.556h-5.555v5.556zm19.434 2.778h2.778v5.555h-2.778v2.778h-11.111v-19.444h5.555v8.333h5.556zm5.556 8.333v-19.444h5.555v19.444zm-8.334-2.778v-5.555h-2.778v5.555zm22.222-13.889h2.778v2.778h5.556v-2.778h2.778v-2.777h5.555v19.444h-5.555V328.43h-2.778v2.778h-5.556v-2.778h-2.778v11.111h-5.555v-19.444h5.555zM417.47 373.541v-16.667h-5.555v-2.777h16.666v2.777h-5.555v16.667zm27.767-16.667h2.778v5.556h-2.778v2.778h-8.333v8.333h-5.556v-19.444h13.889zm-2.778 5.556v-5.556h-5.555v5.556zm11.101 8.333h-2.778v-13.889h2.778v-2.777h11.111v2.777h2.777v13.889h-2.777v2.778H453.56zm8.333 0v-13.889h-5.556v13.889zm13.878-13.889h2.778v2.778h5.555v-2.778h2.778v-2.777h5.556v19.444h-5.556V362.43h-2.778v2.778h-5.555v-2.778h-2.778v11.111h-5.556v-19.444h5.556zm19.444 16.667v-19.444h13.889v2.777h-8.333v5.556h8.333v2.778h2.778v5.555h-2.778v2.778zm11.111-8.333h-5.555v5.555h5.555zm11.101 5.555h-2.778v-13.889h2.778v-2.777h11.111v2.777h2.778v13.889h-2.778v2.778h-11.111zm8.333 0v-13.889h-5.556v13.889zm8.323-11.111v-2.778h2.777v-2.777h11.111v2.777h2.778v2.778h-2.778v2.778h-2.777v2.778h2.777v2.777h2.778v2.778h-2.778v2.778H536.86v-2.778h-2.777v-2.778h5.555v2.778h5.556v-2.778h-2.778v-2.777h-2.778v-2.778h2.778v-2.778h2.778v-2.778h-5.556v2.778zm22.211 11.111h-2.778v-13.889h2.778v-2.777h11.111v2.777h2.778v13.889h-2.778v2.778h-11.111zm8.333 0v-13.889h-5.555v13.889zm13.878-13.889h2.778v2.778h5.556v-2.778h2.777v-2.777h5.556v19.444h-5.556V362.43h-2.777v2.778h-5.556v-2.778h-2.778v11.111h-5.555v-19.444h5.555zM417.47 396.43h5.556v-5.556h-5.556zm5.556 2.778h-5.556v5.555h5.556zm-11.111 8.333v-19.444h13.888v2.777h2.778v5.556h-2.778v2.778h2.778v5.555h-2.778v2.778zm19.433 0v-19.444h16.667v2.777h-11.111v5.556h8.333v2.778h-8.333v5.555h11.111v2.778zm33.323-16.667h2.777v5.556h-2.777v2.778h-8.334v8.333h-5.555v-19.444h13.889zm-2.778 5.556v-5.556h-5.556v5.556zm11.1-2.778h-2.778v-5.555h5.556v5.555h5.555v-5.555h5.556v5.555h-2.778v2.778h-2.778v2.778h2.778v2.777h2.778v5.556h-5.556v-5.556h-5.555v5.556h-5.556v-5.556h2.778v-2.777h2.778v-2.778h-2.778zm27.767 13.889v-8.333h-5.556v8.333h-5.555v-19.444h5.555v8.333h5.556v-8.333h5.556v19.444zm8.323 0v-19.444h16.666v2.777h-11.111v5.556h8.333v2.778h-8.333v5.555h11.111v2.778zm19.433 0v-19.444h13.889v2.777h-8.333v5.556h8.333v2.778h2.778v5.555h-2.778v2.778zm11.111-8.333h-5.555v5.555h5.555zm22.212-8.334h2.777v5.556h-2.777v2.778h-8.334v8.333h-5.555v-19.444h13.889zm-2.778 5.556v-5.556h-5.556v5.556zm19.433 2.778h2.778v5.555h-2.778v2.778h-11.111v-19.444h5.556v8.333h5.555zm5.556 8.333v-19.444h5.556v19.444zm-8.333-2.778v-5.555h-2.778v5.555zm19.444-11.111h-2.778v-5.555h5.556v5.555h2.778v-5.555h5.555v5.555h2.778v-5.555h5.556v5.555h-2.778v2.778h-2.778v2.778h2.778v2.777h2.778v5.556h-5.556v-5.556h-2.778v5.556h-5.555v-5.556h-2.778v5.556h-5.556v-5.556h2.778v-2.777h2.778v-2.778h-2.778zm22.222 13.889v-19.444h16.667v2.777h-11.111v5.556h8.333v2.778h-8.333v5.555h11.111v2.778zm19.434 0v-19.444h16.667v2.777h-11.112v5.556h8.334v2.778h-8.334v5.555h11.112v2.778zm22.211-11.111h-2.778v-8.333h5.556v8.333h5.556v-8.333h5.555v19.444h-5.555v-8.333h-8.334zm27.767 11.111v-8.333h-5.555v8.333h-5.556v-19.444h5.556v8.333h5.555v-8.333h5.556v19.444zm11.1-2.778h-2.777v-13.889h2.777v-2.777h11.112v2.777h2.777v13.889h-2.777v2.778h-11.112zm8.334 0v-13.889h-5.556v13.889zm19.433-2.778h-2.777v-8.333h2.777zm8.334-13.888v19.444h-5.556v-13.889h-2.778v-5.555zm-13.889 13.888h2.778v5.556h-8.334v-19.444h5.556zm0-16.666h-2.778v-2.778h2.778zm8.333 0h-2.778v-2.778h2.778zm-2.778 2.778h-5.555v-2.778h5.555zM417.47 430.43h5.556v-5.556h-5.556zm5.556 2.778h-5.556v5.555h5.556zm-11.111 8.333v-19.444h13.888v2.777h2.778v5.556h-2.778v2.778h2.778v5.555h-2.778v2.778zm19.433 0v-19.444h16.667v2.777h-11.111v5.556h8.333v2.778h-8.333v5.555h11.111v2.778zm30.545 0v-8.333h-5.556v8.333h-5.555v-19.444h5.555v8.333h5.556v-8.333h5.555v19.444zm19.433-8.333h2.778v5.555h-2.778v2.778h-11.111v-19.444h5.556v8.333h5.555zm5.556 8.333v-19.444h5.556v19.444zm-8.333-2.778v-5.555h-2.778v5.555zm38.886-2.778h-2.778v-8.333h2.778zm8.333-13.888v19.444h-5.555v-13.889h-2.778v-5.555zm-13.889 13.888h2.778v5.556h-8.333v-19.444h5.555zm27.77 5.556v-19.444h16.667v2.777h-11.112v5.556h8.334v2.778h-8.334v5.555h11.112v2.778zm19.434 0v-19.444h16.666v2.777h-11.111v5.556h8.333v2.778h-8.333v5.555h11.111v2.778zm36.097-11.111h5.556v-5.556h-5.556zm5.556 2.778h-5.556v5.555h5.556zm-11.111 8.333v-19.444h13.888v2.777h2.778v5.556h-2.778v2.778h2.778v5.555h-2.778v2.778zm19.433 0v-19.444h16.667v2.777h-11.111v5.556h8.333v2.778h-8.333v5.555h11.111v2.778zm24.989 0v-16.667h-5.555v-2.777h16.666v2.777h-5.555v16.667zm19.434-11.111h5.555v-5.556h-5.555zm5.555 2.778h-5.555v5.555h5.555zm-11.111 8.333v-19.444h13.889v2.777h2.778v5.556h-2.778v2.778h2.778v5.555h-2.778v2.778zm19.434 0v-19.444h16.667v2.777h-11.112v5.556h8.334v2.778h-8.334v5.555h11.112v2.778zm30.545-5.556h-2.778v-8.333h2.778zm8.333-13.888v19.444h-5.556v-13.889h-2.777v-5.555zm-13.889 13.888h2.778v5.556h-8.334v-19.444h5.556zm0-16.666h-2.778v-2.778h2.778zm8.333 0h-2.777v-2.778h2.777zm-2.777 2.778h-5.556v-2.778h5.556z"/><path fill="#8353E3" d="M425.248 291.939v-20h-6.667v20h-6.666v-23.333h20v23.333zm16.654-20v-3.333h6.666v3.333h3.334v6.667h3.333v13.333h-6.667v-6.666h-6.666v6.666h-6.667v-13.333h3.333v-6.667zm0 10h6.666v-6.666h-6.666zm16.653 10v-23.333h6.667v20h6.667v-20h6.666v26.667h-6.666v-3.334zm36.654-6.666h-3.334v-10h3.334zm10-16.667v23.333h-6.667v-16.666h-3.333v-6.667zm-16.667 16.667h3.333v6.666h-10v-23.333h6.667zm19.994 6.666v-23.333h20v3.333h-13.334v6.667h10v3.333h-10v6.667h13.334v3.333zm36.653 0v-10h-6.666v10h-6.667v-23.333h6.667v10h6.666v-10h6.667v23.333zm16.654 0v-20h-6.667v-3.333h20v3.333h-6.666v20zm36.65-20v-3.333h6.667v3.333h3.333v6.667h3.334v13.333h-6.667v-6.666h-6.667v6.666h-6.666v-13.333h3.333v-6.667zm0 10h6.667v-6.666h-6.667z"/><path fill="url(#c)" d="M791.768 627.594H26.174c-8.919 0-16.174-7.18-16.174-16.011V74.62c0-8.83 7.255-16.01 16.174-16.01h429.564c15.408 0 30.158-5.674 41.524-15.974l17.975-16.286C526.873 15.805 541.967 10 557.74 10h229.999c11.14 0 20.203 8.975 20.203 20.002v581.581c0 8.831-7.256 16.011-16.174 16.011M26.174 61.572c-7.268 0-13.18 5.855-13.18 13.048v536.963c0 7.193 5.912 13.049 13.18 13.049h765.594c7.268 0 13.18-5.856 13.18-13.049V30.003c0-9.396-7.72-17.034-17.209-17.034H557.74c-15.026 0-29.398 5.529-40.482 15.571l-17.975 16.287c-11.919 10.801-27.384 16.751-43.545 16.751H26.174z"/><defs><linearGradient id="c" x1="408.971" x2="408.971" y1="10" y2="627.594" gradientUnits="userSpaceOnUse"><stop stop-color="#fff"/><stop offset="1" stop-color="#5930AB"/></linearGradient><filter id="a" width="846.764" height="666.41" x="0.855957" y="0.704987" color-interpolation-filters="sRGB" filterUnits="userSpaceOnUse"><feFlood flood-opacity="0" result="BackgroundImageFix"/><feBlend in="SourceGraphic" in2="BackgroundImageFix" result="shape"/><feGaussianBlur result="effect1_foregroundBlur_4006_444" stdDeviation="12"/></filter></defs></svg>