<svg xmlns="http://www.w3.org/2000/svg" width="86" height="86" fill="none" viewBox="0 0 86 86"><path fill="#009975" d="M62.339 77.45h-7.7v7.703h7.7z"/><path fill="#009975" d="M54.64 77.45h-7.7v7.703h7.7zm-7.7 0h-7.7v7.703h7.7z"/><path fill="#009975" d="M39.24 77.45h-7.7v7.703h7.7zm-7.7 0h-7.7v7.703h7.7zm38.499-7.704h-7.7v7.704h7.7z"/><path fill="#02C194" d="M62.339 69.746h-7.7v7.704h7.7z"/><path fill="#02C194" d="M54.64 69.746h-7.7v7.704h7.7zm-7.7 0h-7.7v7.704h7.7z"/><path fill="#02C194" d="M39.24 69.746h-7.7v7.704h7.7zm-7.7 0h-7.7v7.704h7.7z"/><path fill="#009975" d="M23.84 69.746h-7.699v7.704h7.7zm53.898-7.703h-7.7v7.704h7.7z"/><path fill="#02C194" d="M70.039 62.043h-7.7v7.704h7.7z"/><path fill="#0BE1AE" d="M62.339 62.043h-7.7v7.704h7.7z"/><path fill="#06D0A0" d="M54.64 62.043h-7.7v7.704h7.7zm-7.7 0h-7.7v7.704h7.7z"/><path fill="#06D0A0" d="M39.24 62.043h-7.7v7.704h7.7zm-7.7 0h-7.7v7.704h7.7z"/><path fill="#02C194" d="M23.84 62.043h-7.699v7.704h7.7z"/><path fill="#009975" d="M16.14 62.043H8.442v7.704h7.7zm69.298-7.703h-7.7v7.704h7.7z"/><path fill="#02C194" d="M77.738 54.34h-7.7v7.704h7.7z"/><path fill="#0BE1AE" d="M70.039 54.34h-7.7v7.704h7.7z"/><path fill="#06D0A0" d="M62.339 54.34h-7.7v7.704h7.7z"/><path fill="#06D0A0" d="M54.64 54.34h-7.7v7.704h7.7z"/><path fill="#0BE1AE" d="M46.94 54.34h-7.7v7.704h7.7z"/><path fill="#0BE1AE" d="M39.24 54.34h-7.7v7.704h7.7zm-7.7 0h-7.7v7.704h7.7z"/><path fill="#06D0A0" d="M23.84 54.34h-7.699v7.704h7.7z"/><path fill="#06D0A0" d="M16.14 54.34H8.442v7.704h7.7z"/><path fill="#009975" d="M8.441 54.34h-7.7v7.704h7.7zm76.997-7.707h-7.7v7.704h7.7z"/><path fill="#02C194" d="M77.738 46.633h-7.7v7.704h7.7z"/><path fill="#06D0A0" d="M70.039 46.633h-7.7v7.704h7.7zm-7.7 0h-7.7v7.704h7.7z"/><path fill="#0BE1AE" d="M54.64 46.633h-7.7v7.704h7.7zm-7.7 0h-7.7v7.704h7.7z"/><path fill="#0BE1AE" d="M39.24 46.633h-7.7v7.704h7.7zm-7.7 0h-7.7v7.704h7.7z"/><path fill="#0BE1AE" d="M23.84 46.633h-7.699v7.704h7.7z"/><path fill="#06D0A0" d="M16.14 46.633H8.442v7.704h7.7z"/><path fill="#009975" d="M8.441 46.633h-7.7v7.704h7.7zm76.997-7.703h-7.7v7.704h7.7z"/><path fill="#02C194" d="M77.738 38.93h-7.7v7.704h7.7z"/><path fill="#06D0A0" d="M70.039 38.93h-7.7v7.704h7.7z"/><path fill="#0BE1AE" d="M62.339 38.93h-7.7v7.704h7.7z"/><path fill="#0BE1AE" d="M54.64 38.93h-7.7v7.704h7.7zm-7.7 0h-7.7v7.704h7.7z"/><path fill="#10E9B5" d="M39.24 38.93h-7.7v7.704h7.7zm-7.7 0h-7.7v7.704h7.7z"/><path fill="#10E9B5" d="M23.84 38.93h-7.699v7.704h7.7z"/><path fill="#06D0A0" d="M16.14 38.93H8.442v7.704h7.7z"/><path fill="#009975" d="M8.441 38.93h-7.7v7.704h7.7zm76.997-7.703h-7.7v7.704h7.7z"/><path fill="#02C194" d="M77.738 31.227h-7.7v7.704h7.7z"/><path fill="#06D0A0" d="M70.039 31.227h-7.7v7.704h7.7z"/><path fill="#0BE1AE" d="M62.339 31.227h-7.7v7.704h7.7z"/><path fill="#0BE1AE" d="M54.64 31.227h-7.7v7.704h7.7z"/><path fill="#10E9B5" d="M46.94 31.227h-7.7v7.704h7.7z"/><path fill="#1CFFC9" d="M39.24 31.227h-7.7v7.704h7.7zm-7.7 0h-7.7v7.704h7.7z"/><path fill="#10E9B5" d="M23.84 31.227h-7.699v7.704h7.7z"/><path fill="#06D0A0" d="M16.14 31.227H8.442v7.704h7.7z"/><path fill="#009975" d="M8.441 31.227h-7.7v7.704h7.7zm76.997-7.705h-7.7v7.704h7.7z"/><path fill="#02C194" d="M77.738 23.522h-7.7v7.704h7.7z"/><path fill="#06D0A0" d="M70.039 23.522h-7.7v7.704h7.7z"/><path fill="#0BE1AE" d="M62.339 23.522h-7.7v7.704h7.7z"/><path fill="#0BE1AE" d="M54.64 23.522h-7.7v7.704h7.7z"/><path fill="#10E9B5" d="M46.94 23.522h-7.7v7.704h7.7z"/><path fill="#1CFFC9" d="M39.24 23.522h-7.7v7.704h7.7zm-7.7 0h-7.7v7.704h7.7z"/><path fill="#10E9B5" d="M23.84 23.522h-7.699v7.704h7.7z"/><path fill="#06D0A0" d="M16.14 23.522H8.442v7.704h7.7z"/><path fill="#009975" d="M8.441 23.522h-7.7v7.704h7.7zm69.297-7.704h-7.7v7.705h7.7z"/><path fill="#02C194" d="M70.039 15.818h-7.7v7.705h7.7z"/><path fill="#06D0A0" d="M62.339 15.818h-7.7v7.705h7.7z"/><path fill="#0BE1AE" d="M54.64 15.818h-7.7v7.705h7.7z"/><path fill="#10E9B5" d="M46.94 15.818h-7.7v7.705h7.7z"/><path fill="#10E9B5" d="M39.24 15.818h-7.7v7.705h7.7zm-7.7 0h-7.7v7.705h7.7z"/><path fill="#06D0A0" d="M23.84 15.818h-7.699v7.705h7.7z"/><path fill="#009975" d="M16.14 15.818H8.442v7.705h7.7zm53.899-7.705h-7.7v7.704h7.7z"/><path fill="#06D0A0" d="M62.339 8.113h-7.7v7.704h7.7z"/><path fill="#06D0A0" d="M54.64 8.113h-7.7v7.704h7.7zm-7.7 0h-7.7v7.704h7.7z"/><path fill="#06D0A0" d="M39.24 8.113h-7.7v7.704h7.7zm-7.7 0h-7.7v7.704h7.7z"/><path fill="#009975" d="M23.84 8.113h-7.699v7.704h7.7zM62.339.41h-7.7v7.704h7.7z"/><path fill="#009975" d="M54.64.41h-7.7v7.704h7.7zm-7.7 0h-7.7v7.704h7.7z"/><path fill="#009975" d="M39.24.41h-7.7v7.704h7.7zm-7.7 0h-7.7v7.704h7.7z"/><path stroke="#fff" stroke-width="6" d="m25.148 39.212 14.775 14.635 22.448-25.841"/></svg>