<svg xmlns="http://www.w3.org/2000/svg" width="373" height="267" fill="none" viewBox="0 0 373 267"><path fill="#CB7330" d="M84.366 40.523H71.83V53.06h12.536zm12.536 0H84.366V53.06h12.536zm12.536 0H96.902V53.06h12.536zm12.536 0h-12.536V53.06h12.536z"/><path fill="#CB7330" d="M134.51 40.523h-12.536V53.06h12.536zm12.536 0H134.51V53.06h12.536zm12.542 0h-12.536V53.06h12.536zM71.83 53.065H59.294V65.6H71.83z"/><path fill="#DCAF5B" d="M84.366 53.065H71.83V65.6h12.536zm12.536 0H84.366V65.6h12.536zm12.536 0H96.902V65.6h12.536zm12.536 0h-12.536V65.6h12.536z"/><path fill="#DCAF5B" d="M134.51 53.065h-12.536V65.6h12.536zm12.536 0H134.51V65.6h12.536zm12.542 0h-12.536V65.6h12.536z"/><path fill="#CB7330" d="M172.124 53.065h-12.536V65.6h12.536zM71.83 65.602H59.294v12.536H71.83z"/><path fill="#DCAF5B" d="M84.366 65.602H71.83v12.536h12.536z"/><path fill="#EED57A" d="M96.902 65.602H84.366v12.536h12.536zm12.536 0H96.902v12.536h12.536zm12.536 0h-12.536v12.536h12.536z"/><path fill="#EED57A" d="M134.51 65.602h-12.536v12.536h12.536zm12.536 0H134.51v12.536h12.536zm12.542 0h-12.536v12.536h12.536z"/><path fill="#DCAF5B" d="M172.124 65.602h-12.536v12.536h12.536z"/><path fill="#CB7330" d="M184.661 65.602h-12.536v12.536h12.536zm12.536 0h-12.536v12.536h12.536zm12.536 0h-12.536v12.536h12.536zm12.536 0h-12.536v12.536h12.536zm12.536 0h-12.536v12.536h12.536zm12.536 0h-12.536v12.536h12.536zm12.536 0h-12.536v12.536h12.536zm12.537 0h-12.537v12.536h12.537zm12.536 0h-12.536v12.536h12.536zm12.536 0H284.95v12.536h12.536zm12.536 0h-12.536v12.536h12.536zM71.83 78.137H59.294v12.536H71.83z"/><path fill="#DCAF5B" d="M84.366 78.137H71.83v12.536h12.536z"/><path fill="#EED57A" d="M96.902 78.137H84.366v12.536h12.536zm12.536 0H96.902v12.536h12.536zm12.536 0h-12.536v12.536h12.536z"/><path fill="#DCAF5B" d="M134.51 78.137h-12.536v12.536h12.536zm12.536 0H134.51v12.536h12.536zm12.542 0h-12.536v12.536h12.536zm12.536 0h-12.536v12.536h12.536zm12.537 0h-12.536v12.536h12.536zm12.536 0h-12.536v12.536h12.536zm12.536 0h-12.536v12.536h12.536zm12.536 0h-12.536v12.536h12.536zm12.536 0h-12.536v12.536h12.536zm12.536 0h-12.536v12.536h12.536zm12.536 0h-12.536v12.536h12.536zm12.537 0h-12.537v12.536h12.537zm12.536 0h-12.536v12.536h12.536zm12.536 0H284.95v12.536h12.536zm12.536 0h-12.536v12.536h12.536z"/><path fill="#CB7330" d="M322.558 78.137h-12.536v12.536h12.536zM71.83 90.674H59.294v12.536H71.83z"/><path fill="#DCAF5B" d="M84.366 90.674H71.83v12.536h12.536z"/><path fill="#EED57A" d="M96.902 90.674H84.366v12.536h12.536zm12.536 0H96.902v12.536h12.536z"/><path fill="#DCAF5B" d="M121.974 90.674h-12.536v12.536h12.536z"/><path fill="#FFFDFF" d="M134.51 90.674h-12.536v12.536h12.536z"/><path fill="#DBE4F2" d="M147.046 90.674H134.51v12.536h12.536z"/><path fill="#FFFDFF" d="M159.588 90.674h-12.536v12.536h12.536zm12.536 0h-12.536v12.536h12.536zm12.537 0h-12.536v12.536h12.536zm12.536 0h-12.536v12.536h12.536zm12.536 0h-12.536v12.536h12.536zm12.536 0h-12.536v12.536h12.536zm12.536 0h-12.536v12.536h12.536zm12.536 0h-12.536v12.536h12.536zm12.536 0h-12.536v12.536h12.536zm12.537 0h-12.537v12.536h12.537zm12.536 0h-12.536v12.536h12.536z"/><path fill="#EED57A" d="M297.486 90.674H284.95v12.536h12.536z"/><path fill="#DCAF5B" d="M310.022 90.674h-12.536v12.536h12.536z"/><path fill="#CB7330" d="M322.558 90.674h-12.536v12.536h12.536zM71.83 103.209H59.294v12.536H71.83z"/><path fill="#DCAF5B" d="M84.366 103.209H71.83v12.536h12.536z"/><path fill="#EED57A" d="M96.902 103.209H84.366v12.536h12.536z"/><path fill="#DCAF5B" d="M109.438 103.209H96.902v12.536h12.536z"/><path fill="#FFFDFF" d="M121.974 103.209h-12.536v12.536h12.536z"/><path fill="#FFFDFF" d="M134.51 103.209h-12.536v12.536h12.536z"/><path fill="#DBE4F2" d="M147.046 103.209H134.51v12.536h12.536z"/><path fill="#FFFDFF" d="M159.588 103.209h-12.536v12.536h12.536zm12.536 0h-12.536v12.536h12.536zm12.537 0h-12.536v12.536h12.536zm12.536 0h-12.536v12.536h12.536zm12.536 0h-12.536v12.536h12.536zm12.536 0h-12.536v12.536h12.536zm12.536 0h-12.536v12.536h12.536zm12.536 0h-12.536v12.536h12.536zm12.536 0h-12.536v12.536h12.536zm12.537 0h-12.537v12.536h12.537zm12.536 0h-12.536v12.536h12.536zm12.536 0H284.95v12.536h12.536z"/><path fill="#DCAF5B" d="M310.022 103.209h-12.536v12.536h12.536z"/><path fill="#CB7330" d="M322.558 103.209h-12.536v12.536h12.536zM71.83 115.746H59.294v12.536H71.83z"/><path fill="#DCAF5B" d="M84.366 115.746H71.83v12.536h12.536zm12.536 0H84.366v12.536h12.536z"/><path fill="#FFFDFF" d="M109.438 115.746H96.902v12.536h12.536zm12.536 0h-12.536v12.536h12.536z"/><path fill="#FFFDFF" d="M134.51 115.746h-12.536v12.536h12.536z"/><path fill="#DBE4F2" d="M147.046 115.746H134.51v12.536h12.536z"/><path fill="#FFFDFF" d="M159.588 115.746h-12.536v12.536h12.536zm12.536 0h-12.536v12.536h12.536zm12.537 0h-12.536v12.536h12.536zm12.536 0h-12.536v12.536h12.536zm12.536 0h-12.536v12.536h12.536zm12.536 0h-12.536v12.536h12.536zm12.536 0h-12.536v12.536h12.536zm12.536 0h-12.536v12.536h12.536zm12.536 0h-12.536v12.536h12.536zm12.537 0h-12.537v12.536h12.537zm12.536 0h-12.536v12.536h12.536zm12.536 0H284.95v12.536h12.536z"/><path fill="#DCAF5B" d="M310.022 115.746h-12.536v12.536h12.536z"/><path fill="#CB7330" d="M322.558 115.746h-12.536v12.536h12.536zM71.83 128.281H59.294v12.536H71.83z"/><path fill="#DCAF5B" d="M84.366 128.281H71.83v12.536h12.536z"/><path fill="#DBE4F2" d="M96.902 128.281H84.366v12.536h12.536zm12.536 0H96.902v12.536h12.536zm12.536 0h-12.536v12.536h12.536z"/><path fill="#DBE4F2" d="M134.51 128.281h-12.536v12.536h12.536z"/><path fill="#FFFDFF" d="M147.046 128.281H134.51v12.536h12.536zm12.542 0h-12.536v12.536h12.536zm12.536 0h-12.536v12.536h12.536zm12.537 0h-12.536v12.536h12.536zm12.536 0h-12.536v12.536h12.536zm12.536 0h-12.536v12.536h12.536zm12.536 0h-12.536v12.536h12.536zm12.536 0h-12.536v12.536h12.536zm12.536 0h-12.536v12.536h12.536z"/><path fill="#CB7330" d="M259.877 128.281h-12.536v12.536h12.536zm12.537 0h-12.537v12.536h12.537zm12.536 0h-12.536v12.536h12.536zm12.536 0H284.95v12.536h12.536zm12.536 0h-12.536v12.536h12.536zm12.536 0h-12.536v12.536h12.536zm12.542 0h-12.536v12.536H335.1zm12.536 0H335.1v12.536h12.536zm12.536 0h-12.536v12.536h12.536zM71.83 140.818H59.294v12.537H71.83z"/><path fill="#DCAF5B" d="M84.366 140.818H71.83v12.537h12.536z"/><path fill="#FFFDFF" d="M96.902 140.818H84.366v12.537h12.536zm12.536 0H96.902v12.537h12.536zm12.536 0h-12.536v12.537h12.536z"/><path fill="#FFFDFF" d="M134.51 140.818h-12.536v12.537h12.536zm12.536 0H134.51v12.537h12.536zm12.542 0h-12.536v12.537h12.536zm12.536 0h-12.536v12.537h12.536zm12.537 0h-12.536v12.537h12.536zm12.536 0h-12.536v12.537h12.536zm12.536 0h-12.536v12.537h12.536zm12.536 0h-12.536v12.537h12.536zm12.536 0h-12.536v12.537h12.536z"/><path fill="#CB7330" d="M247.341 140.818h-12.536v12.537h12.536z"/><path fill="#DCAF5B" d="M259.877 140.818h-12.536v12.537h12.536zm12.537 0h-12.537v12.537h12.537zm12.536 0h-12.536v12.537h12.536zm12.536 0H284.95v12.537h12.536zm12.536 0h-12.536v12.537h12.536zm12.536 0h-12.536v12.537h12.536zm12.542 0h-12.536v12.537H335.1zm12.536 0H335.1v12.537h12.536zm12.536 0h-12.536v12.537h12.536z"/><path fill="#CB7330" d="M372.709 140.818h-12.537v12.537h12.537zM71.83 153.354H59.294v12.536H71.83z"/><path fill="#DCAF5B" d="M84.366 153.354H71.83v12.536h12.536z"/><path fill="#FFFDFF" d="M96.902 153.354H84.366v12.536h12.536zm12.536 0H96.902v12.536h12.536zm12.536 0h-12.536v12.536h12.536z"/><path fill="#CB7330" d="M134.51 153.354h-12.536v12.536h12.536zm12.536 0H134.51v12.536h12.536zm12.542 0h-12.536v12.536h12.536zm12.536 0h-12.536v12.536h12.536zm12.537 0h-12.536v12.536h12.536zm12.536 0h-12.536v12.536h12.536zm12.536 0h-12.536v12.536h12.536zm12.536 0h-12.536v12.536h12.536zm12.536 0h-12.536v12.536h12.536z"/><path fill="#DCAF5B" d="M247.341 153.354h-12.536v12.536h12.536z"/><path fill="#EED57A" d="M259.877 153.354h-12.536v12.536h12.536zm12.537 0h-12.537v12.536h12.537zm12.536 0h-12.536v12.536h12.536zm12.536 0H284.95v12.536h12.536zm12.536 0h-12.536v12.536h12.536zm12.536 0h-12.536v12.536h12.536zm12.542 0h-12.536v12.536H335.1zm12.536 0H335.1v12.536h12.536z"/><path fill="#DCAF5B" d="M360.172 153.354h-12.536v12.536h12.536z"/><path fill="#CB7330" d="M372.709 153.354h-12.537v12.536h12.537zM71.83 165.891H59.294v12.536H71.83z"/><path fill="#DCAF5B" d="M84.366 165.891H71.83v12.536h12.536z"/><path fill="#FFFDFF" d="M96.902 165.891H84.366v12.536h12.536zm12.536 0H96.902v12.536h12.536z"/><path fill="#CB7330" d="M121.974 165.891h-12.536v12.536h12.536z"/><path fill="#DCAF5B" d="M134.51 165.891h-12.536v12.536h12.536zm12.536 0H134.51v12.536h12.536zm12.542 0h-12.536v12.536h12.536zm12.536 0h-12.536v12.536h12.536zm12.537 0h-12.536v12.536h12.536zm12.536 0h-12.536v12.536h12.536zm12.536 0h-12.536v12.536h12.536zm12.536 0h-12.536v12.536h12.536zm12.536 0h-12.536v12.536h12.536z"/><path fill="#EED57A" d="M247.341 165.891h-12.536v12.536h12.536zm12.536 0h-12.536v12.536h12.536zm12.537 0h-12.537v12.536h12.537zm12.536 0h-12.536v12.536h12.536zm12.536 0H284.95v12.536h12.536zm12.536 0h-12.536v12.536h12.536zm12.536 0h-12.536v12.536h12.536zm12.542 0h-12.536v12.536H335.1z"/><path fill="#DCAF5B" d="M347.636 165.891H335.1v12.536h12.536z"/><path fill="#CB7330" d="M360.172 165.891h-12.536v12.536h12.536zM71.83 178.426H59.294v12.536H71.83z"/><path fill="#DCAF5B" d="M84.366 178.426H71.83v12.536h12.536z"/><path fill="#FFFDFF" d="M96.902 178.426H84.366v12.536h12.536zm12.536 0H96.902v12.536h12.536z"/><path fill="#CB7330" d="M121.974 178.426h-12.536v12.536h12.536z"/><path fill="#DCAF5B" d="M134.51 178.426h-12.536v12.536h12.536z"/><path fill="#EED57A" d="M147.046 178.426H134.51v12.536h12.536zm12.542 0h-12.536v12.536h12.536zm12.536 0h-12.536v12.536h12.536zm12.537 0h-12.536v12.536h12.536zm12.536 0h-12.536v12.536h12.536zm12.536 0h-12.536v12.536h12.536zm12.536 0h-12.536v12.536h12.536zm12.536 0h-12.536v12.536h12.536zm12.536 0h-12.536v12.536h12.536zm12.536 0h-12.536v12.536h12.536z"/><path fill="#AF3C55" d="M272.414 178.426h-12.537v12.536h12.537zm12.536 0h-12.536v12.536h12.536z"/><path fill="#EED57A" d="M297.486 178.426H284.95v12.536h12.536zm12.536 0h-12.536v12.536h12.536zm12.536 0h-12.536v12.536h12.536z"/><path fill="#AF3C55" d="M335.1 178.426h-12.536v12.536H335.1zm12.536 0H335.1v12.536h12.536z"/><path fill="#CB7330" d="M360.172 178.426h-12.536v12.536h12.536zM71.83 190.963H59.294v12.536H71.83z"/><path fill="#DCAF5B" d="M84.366 190.963H71.83v12.536h12.536z"/><path fill="#FFFDFF" d="M96.902 190.963H84.366v12.536h12.536z"/><path fill="#CB7330" d="M109.438 190.963H96.902v12.536h12.536z"/><path fill="#DCAF5B" d="M121.974 190.963h-12.536v12.536h12.536z"/><path fill="#EED57A" d="M134.51 190.963h-12.536v12.536h12.536zm12.536 0H134.51v12.536h12.536zm12.542 0h-12.536v12.536h12.536zm12.536 0h-12.536v12.536h12.536zm12.537 0h-12.536v12.536h12.536zm12.536 0h-12.536v12.536h12.536zm12.536 0h-12.536v12.536h12.536zm12.536 0h-12.536v12.536h12.536zm12.536 0h-12.536v12.536h12.536zm12.536 0h-12.536v12.536h12.536z"/><path fill="#AF3C55" d="M259.877 190.963h-12.536v12.536h12.536z"/><path fill="#D05D60" d="M272.414 190.963h-12.537v12.536h12.537zm12.536 0h-12.536v12.536h12.536z"/><path fill="#AF3C55" d="M297.486 190.963H284.95v12.536h12.536z"/><path fill="#EED57A" d="M310.022 190.963h-12.536v12.536h12.536z"/><path fill="#AF3C55" d="M322.558 190.963h-12.536v12.536h12.536z"/><path fill="#D05D60" d="M335.1 190.963h-12.536v12.536H335.1zm12.536 0H335.1v12.536h12.536z"/><path fill="#AF3C55" d="M360.172 190.963h-12.536v12.536h12.536z"/><path fill="#CB7330" d="M71.83 203.5H59.294v12.536H71.83z"/><path fill="#DCAF5B" d="M84.366 203.5H71.83v12.536h12.536z"/><path fill="#FFFDFF" d="M96.902 203.5H84.366v12.536h12.536z"/><path fill="#CB7330" d="M109.438 203.5H96.902v12.536h12.536z"/><path fill="#DCAF5B" d="M121.974 203.5h-12.536v12.536h12.536z"/><path fill="#EED57A" d="M134.51 203.5h-12.536v12.536h12.536zm12.536 0H134.51v12.536h12.536zm12.542 0h-12.536v12.536h12.536zm12.536 0h-12.536v12.536h12.536zm12.537 0h-12.536v12.536h12.536zm12.536 0h-12.536v12.536h12.536zm12.536 0h-12.536v12.536h12.536zm12.536 0h-12.536v12.536h12.536zm12.536 0h-12.536v12.536h12.536zm12.536 0h-12.536v12.536h12.536z"/><path fill="#AF3C55" d="M259.877 203.5h-12.536v12.536h12.536z"/><path fill="#D05D60" d="M272.414 203.5h-12.537v12.536h12.537zm12.536 0h-12.536v12.536h12.536zm12.536 0H284.95v12.536h12.536z"/><path fill="#AF3C55" d="M310.022 203.5h-12.536v12.536h12.536z"/><path fill="#D05D60" d="M322.558 203.5h-12.536v12.536h12.536zm12.542 0h-12.536v12.536H335.1zm12.536 0H335.1v12.536h12.536z"/><path fill="#AF3C55" d="M360.172 203.5h-12.536v12.536h12.536z"/><path fill="#CB7330" d="M71.83 216.035H59.294v12.536H71.83z"/><path fill="#DCAF5B" d="M84.366 216.035H71.83v12.536h12.536z"/><path fill="#CB7330" d="M96.902 216.035H84.366v12.536h12.536z"/><path fill="#DCAF5B" d="M109.438 216.035H96.902v12.536h12.536zm12.536 0h-12.536v12.536h12.536z"/><path fill="#EED57A" d="M134.51 216.035h-12.536v12.536h12.536z"/><path fill="#DCAF5B" d="M147.046 216.035H134.51v12.536h12.536z"/><path fill="#EED57A" d="M159.588 216.035h-12.536v12.536h12.536z"/><path fill="#DCAF5B" d="M172.124 216.035h-12.536v12.536h12.536z"/><path fill="#EED57A" d="M184.661 216.035h-12.536v12.536h12.536z"/><path fill="#DCAF5B" d="M197.197 216.035h-12.536v12.536h12.536z"/><path fill="#EED57A" d="M209.733 216.035h-12.536v12.536h12.536z"/><path fill="#DCAF5B" d="M222.269 216.035h-12.536v12.536h12.536z"/><path fill="#EED57A" d="M234.805 216.035h-12.536v12.536h12.536z"/><path fill="#DCAF5B" d="M247.341 216.035h-12.536v12.536h12.536z"/><path fill="#AF3C55" d="M259.877 216.035h-12.536v12.536h12.536z"/><path fill="#D05D60" d="M272.414 216.035h-12.537v12.536h12.537zm12.536 0h-12.536v12.536h12.536zm12.536 0H284.95v12.536h12.536zm12.536 0h-12.536v12.536h12.536zm12.536 0h-12.536v12.536h12.536zm12.542 0h-12.536v12.536H335.1zm12.536 0H335.1v12.536h12.536z"/><path fill="#AF3C55" d="M360.172 216.035h-12.536v12.536h12.536z"/><path fill="#CB7330" d="M71.83 228.576H59.294v12.536H71.83z"/><path fill="#DCAF5B" d="M84.366 228.576H71.83v12.536h12.536z"/><path fill="#CB7330" d="M96.902 228.576H84.366v12.536h12.536z"/><path fill="#DCAF5B" d="M109.438 228.576H96.902v12.536h12.536z"/><path fill="#EED57A" d="M121.974 228.576h-12.536v12.536h12.536z"/><path fill="#DCAF5B" d="M134.51 228.576h-12.536v12.536h12.536z"/><path fill="#EED57A" d="M147.046 228.576H134.51v12.536h12.536z"/><path fill="#DCAF5B" d="M159.588 228.576h-12.536v12.536h12.536z"/><path fill="#EED57A" d="M172.124 228.576h-12.536v12.536h12.536z"/><path fill="#DCAF5B" d="M184.661 228.576h-12.536v12.536h12.536z"/><path fill="#EED57A" d="M197.197 228.576h-12.536v12.536h12.536z"/><path fill="#DCAF5B" d="M209.733 228.576h-12.536v12.536h12.536z"/><path fill="#EED57A" d="M222.269 228.576h-12.536v12.536h12.536z"/><path fill="#DCAF5B" d="M234.805 228.576h-12.536v12.536h12.536z"/><path fill="#EED57A" d="M247.341 228.576h-12.536v12.536h12.536z"/><path fill="#DCAF5B" d="M259.877 228.576h-12.536v12.536h12.536z"/><path fill="#AF3C55" d="M272.414 228.576h-12.537v12.536h12.537z"/><path fill="#D05D60" d="M284.95 228.576h-12.536v12.536h12.536zm12.536 0H284.95v12.536h12.536zm12.536 0h-12.536v12.536h12.536zm12.536 0h-12.536v12.536h12.536zm12.542 0h-12.536v12.536H335.1z"/><path fill="#AF3C55" d="M347.636 228.576H335.1v12.536h12.536z"/><path fill="#CB7330" d="M71.83 241.113H59.294v12.537H71.83zm12.536 0H71.83v12.537h12.536z"/><path fill="#DCAF5B" d="M96.902 241.113H84.366v12.537h12.536zm12.536 0H96.902v12.537h12.536zm12.536 0h-12.536v12.537h12.536z"/><path fill="#DCAF5B" d="M134.51 241.113h-12.536v12.537h12.536zm12.536 0H134.51v12.537h12.536zm12.542 0h-12.536v12.537h12.536zm12.536 0h-12.536v12.537h12.536zm12.537 0h-12.536v12.537h12.536zm12.536 0h-12.536v12.537h12.536zm12.536 0h-12.536v12.537h12.536zm12.536 0h-12.536v12.537h12.536zm12.536 0h-12.536v12.537h12.536zm12.536 0h-12.536v12.537h12.536zm12.536 0h-12.536v12.537h12.536zm12.537 0h-12.537v12.537h12.537z"/><path fill="#AF3C55" d="M284.95 241.113h-12.536v12.537h12.536z"/><path fill="#D05D60" d="M297.486 241.113H284.95v12.537h12.536zm12.536 0h-12.536v12.537h12.536zm12.536 0h-12.536v12.537h12.536z"/><path fill="#AF3C55" d="M335.1 241.113h-12.536v12.537H335.1z"/><path fill="#CB7330" d="M84.366 253.648H71.83v12.537h12.536zm12.536 0H84.366v12.537h12.536zm12.536 0H96.902v12.537h12.536zm12.536 0h-12.536v12.537h12.536z"/><path fill="#CB7330" d="M134.51 253.648h-12.536v12.537h12.536zm12.536 0H134.51v12.537h12.536zm12.542 0h-12.536v12.537h12.536zm12.536 0h-12.536v12.537h12.536zm12.537 0h-12.536v12.537h12.536zm12.536 0h-12.536v12.537h12.536zm12.536 0h-12.536v12.537h12.536zm12.536 0h-12.536v12.537h12.536zm12.536 0h-12.536v12.537h12.536zm12.536 0h-12.536v12.537h12.536zm12.536 0h-12.536v12.537h12.536zm12.537 0h-12.537v12.537h12.537zm12.536 0h-12.536v12.537h12.536z"/><path fill="#5E6DD2" d="M13.615.844H.82v12.795h12.795zm12.795 0H13.617v12.795H26.41z"/><path fill="#DBE4F2" d="M39.206.844H26.41v12.795h12.795zm12.795 0H39.206v12.795h12.795z"/><path fill="#5E6DD2" d="M64.797.844H52.002v12.795h12.795z"/><path fill="#DBE4F2" d="M77.592.844H64.797v12.795h12.795z"/><path fill="#5E6DD2" d="M13.615 13.639H.82v12.795h12.795zm12.795 0H13.617v12.795H26.41z"/><path fill="#DBE4F2" d="M39.206 13.639H26.41v12.795h12.795zm12.795 0H39.206v12.795h12.795z"/><path fill="#5E6DD2" d="M64.797 13.639H52.002v12.795h12.795z"/><path fill="#DBE4F2" d="M77.592 13.639H64.797v12.795h12.795z"/><path fill="#5E6DD2" d="M90.387 13.639H77.592v12.795h12.795zM13.615 26.434H.82v12.795h12.795zm12.795 0H13.617v12.795H26.41z"/><path fill="#DBE4F2" d="M39.206 26.434H26.41v12.795h12.795zm12.795 0H39.206v12.795h12.795zm12.796 0H52.002v12.795h12.795zm12.795 0H64.797v12.795h12.795z"/><path fill="#5E6DD2" d="M90.387 26.434H77.592v12.795h12.795zm12.795 0H90.387v12.795h12.795zM13.615 39.229H.82v12.795h12.795zm12.795 0H13.617v12.795H26.41zm12.796 0H26.41v12.795h12.795zm12.795 0H39.206v12.795h12.795zm12.796 0H52.002v12.795h12.795zm12.795 0H64.797v12.795h12.795zm12.795 0H77.592v12.795h12.795zm12.795 0H90.387v12.795h12.795zM13.615 52.025H.82V64.82h12.795zm12.795 0H13.617V64.82H26.41z"/><path fill="#DBE4F2" d="M39.206 52.025H26.41V64.82h12.795zm12.795 0H39.206V64.82h12.795zm12.796 0H52.002V64.82h12.795zm12.795 0H64.797V64.82h12.795z"/><path fill="#5E6DD2" d="M90.387 52.025H77.592V64.82h12.795zm12.795 0H90.387V64.82h12.795zM13.615 64.826H.82v12.795h12.795zm12.795 0H13.617v12.795H26.41z"/><path fill="#DBE4F2" d="M39.206 64.826H26.41v12.795h12.795z"/><path fill="#5E6DD2" d="M52.001 64.826H39.206v12.795h12.795zm12.796 0H52.002v12.795h12.795z"/><path fill="#DBE4F2" d="M77.592 64.826H64.797v12.795h12.795z"/><path fill="#5E6DD2" d="M90.387 64.826H77.592v12.795h12.795zm12.795 0H90.387v12.795h12.795zM13.615 77.621H.82v12.795h12.795zm12.795 0H13.617v12.795H26.41z"/><path fill="#DBE4F2" d="M39.206 77.621H26.41v12.795h12.795zm12.795 0H39.206v12.795h12.795zm12.796 0H52.002v12.795h12.795zm12.795 0H64.797v12.795h12.795z"/><path fill="#5E6DD2" d="M90.387 77.621H77.592v12.795h12.795zm12.795 0H90.387v12.795h12.795zM13.615 90.416H.82v12.795h12.795zm12.795 0H13.617v12.795H26.41zm12.796 0H26.41v12.795h12.795zm12.795 0H39.206v12.795h12.795zm12.796 0H52.002v12.795h12.795zm12.795 0H64.797v12.795h12.795zm12.795 0H77.592v12.795h12.795zm12.795 0H90.387v12.795h12.795z"/><path fill="#AF3C55" d="M297.486 253.648H284.95v12.537h12.536zm12.536 0h-12.536v12.537h12.536zm12.536 0h-12.536v12.537h12.536z"/></svg>