<svg xmlns="http://www.w3.org/2000/svg" width="86" height="85" fill="none" viewBox="0 0 86 85"><path fill="#D73810" d="M62.339 77.054h-7.7v7.704h7.7z"/><path fill="#D73810" d="M54.64 77.054h-7.7v7.704h7.7zm-7.7 0h-7.7v7.704h7.7z"/><path fill="#D73810" d="M39.24 77.054h-7.7v7.704h7.7zm-7.7 0h-7.7v7.704h7.7zm38.499-7.704h-7.7v7.705h7.7z"/><path fill="#E15E3D" d="M62.339 69.35h-7.7v7.705h7.7z"/><path fill="#E15E3D" d="M54.64 69.35h-7.7v7.705h7.7zm-7.7 0h-7.7v7.705h7.7z"/><path fill="#E15E3D" d="M39.24 69.35h-7.7v7.705h7.7zm-7.7 0h-7.7v7.705h7.7z"/><path fill="#D73810" d="M23.84 69.35h-7.699v7.705h7.7zm53.899-7.703h-7.7v7.704h7.7z"/><path fill="#E15E3D" d="M70.039 61.647h-7.7v7.704h7.7z"/><path fill="#FF724F" d="M62.339 61.647h-7.7v7.704h7.7z"/><path fill="#F36845" d="M54.64 61.647h-7.7v7.704h7.7zm-7.7 0h-7.7v7.704h7.7z"/><path fill="#F36845" d="M39.24 61.647h-7.7v7.704h7.7zm-7.7 0h-7.7v7.704h7.7z"/><path fill="#E15E3D" d="M23.84 61.647h-7.699v7.704h7.7z"/><path fill="#D73810" d="M16.14 61.647H8.442v7.704h7.7zm69.298-7.704h-7.7v7.705h7.7z"/><path fill="#E15E3D" d="M77.739 53.943h-7.7v7.705h7.7z"/><path fill="#FF724F" d="M70.039 53.943h-7.7v7.705h7.7z"/><path fill="#F36845" d="M62.339 53.943h-7.7v7.705h7.7z"/><path fill="#F36845" d="M54.64 53.943h-7.7v7.705h7.7z"/><path fill="#FF724F" d="M46.94 53.943h-7.7v7.705h7.7z"/><path fill="#FF724F" d="M39.24 53.943h-7.7v7.705h7.7zm-7.7 0h-7.7v7.705h7.7z"/><path fill="#F36845" d="M23.84 53.943h-7.699v7.705h7.7z"/><path fill="#F36845" d="M16.14 53.943H8.442v7.705h7.7z"/><path fill="#D73810" d="M8.441 53.943h-7.7v7.705h7.7zm76.997-7.707h-7.7v7.705h7.7z"/><path fill="#E15E3D" d="M77.739 46.236h-7.7v7.705h7.7z"/><path fill="#F36845" d="M70.039 46.236h-7.7v7.705h7.7zm-7.7 0h-7.7v7.705h7.7z"/><path fill="#FF724F" d="M54.64 46.236h-7.7v7.705h7.7zm-7.7 0h-7.7v7.705h7.7z"/><path fill="#FF724F" d="M39.24 46.236h-7.7v7.705h7.7zm-7.7 0h-7.7v7.705h7.7z"/><path fill="#FF724F" d="M23.84 46.236h-7.699v7.705h7.7z"/><path fill="#F36845" d="M16.14 46.236H8.442v7.705h7.7z"/><path fill="#D73810" d="M8.441 46.236h-7.7v7.705h7.7zm76.997-7.704h-7.7v7.704h7.7z"/><path fill="#E15E3D" d="M77.739 38.532h-7.7v7.704h7.7z"/><path fill="#F36845" d="M70.039 38.532h-7.7v7.704h7.7z"/><path fill="#FF724F" d="M62.339 38.532h-7.7v7.704h7.7z"/><path fill="#FF724F" d="M54.64 38.532h-7.7v7.704h7.7zm-7.7 0H28.777v7.704H46.94z"/><path fill="#FF724F" d="M39.24 38.532h-7.7v7.704h7.7zm-7.7 0h-7.7v7.704h7.7z"/><path fill="#FF724F" d="M23.84 38.532h-7.699v7.704h7.7z"/><path fill="#F36845" d="M16.14 38.532H8.442v7.704h7.7z"/><path fill="#D73810" d="M8.441 38.532h-7.7v7.704h7.7zm76.997-7.701h-7.7v7.704h7.7z"/><path fill="#E15E3D" d="M77.739 30.831h-7.7v7.704h7.7z"/><path fill="#F36845" d="M70.039 30.831h-7.7v7.704h7.7z"/><path fill="#FF724F" d="M62.339 30.831h-7.7v7.704h7.7z"/><path fill="#FF724F" d="M54.64 30.831h-7.7v7.704h7.7z"/><path fill="#FF8B6D" d="M46.94 30.831H28.777v7.704H46.94z"/><path fill="#FF8B6D" d="M39.24 30.831h-7.7v7.704h7.7zm-7.7 0h-7.7v7.704h7.7z"/><path fill="#FF724F" d="M23.84 30.831h-7.699v7.704h7.7z"/><path fill="#F36845" d="M16.14 30.831H8.442v7.704h7.7z"/><path fill="#D73810" d="M8.441 30.831h-7.7v7.704h7.7zm76.997-7.706h-7.7v7.704h7.7z"/><path fill="#E15E3D" d="M77.739 23.125h-7.7v7.704h7.7z"/><path fill="#F36845" d="M70.039 23.125h-7.7v7.704h7.7z"/><path fill="#FF724F" d="M62.339 23.125h-7.7v7.704h7.7z"/><path fill="#FF724F" d="M54.64 23.125h-7.7v7.704h7.7z"/><path fill="#FF8B6D" d="M46.94 23.125H28.777v7.704H46.94z"/><path fill="#FF8B6D" d="M39.24 23.125h-7.7v7.704h7.7zm-7.7 0h-7.7v7.704h7.7z"/><path fill="#FF724F" d="M23.84 23.125h-7.699v7.704h7.7z"/><path fill="#F36845" d="M16.14 23.125H8.442v7.704h7.7z"/><path fill="#D73810" d="M8.441 23.125h-7.7v7.704h7.7zm69.298-7.703h-7.7v7.704h7.7z"/><path fill="#E15E3D" d="M70.039 15.422h-7.7v7.704h7.7z"/><path fill="#F36845" d="M62.339 15.422h-7.7v7.704h7.7z"/><path fill="#FF724F" d="M54.64 15.422h-7.7v7.704h7.7zm-7.7 0H28.777v7.704H46.94z"/><path fill="#FF724F" d="M39.24 15.422h-7.7v7.704h7.7zm-7.7 0h-7.7v7.704h7.7z"/><path fill="#F36845" d="M23.84 15.422h-7.699v7.704h7.7z"/><path fill="#D73810" d="M16.14 15.422H8.442v7.704h7.7zm53.899-7.705h-7.7v7.704h7.7z"/><path fill="#F36845" d="M62.339 7.717h-7.7v7.704h7.7z"/><path fill="#F36845" d="M54.64 7.717h-7.7v7.704h7.7zm-7.7 0h-7.7v7.704h7.7z"/><path fill="#F36845" d="M39.24 7.717h-7.7v7.704h7.7zm-7.7 0h-7.7v7.704h7.7z"/><path fill="#D73810" d="M23.84 7.717h-7.699v7.704h7.7zM62.339.014h-7.7v7.704h7.7z"/><path fill="#D73810" d="M54.64.014h-7.7v7.704h7.7zm-7.7 0h-7.7v7.704h7.7z"/><path fill="#D73810" d="M39.24.014h-7.7v7.704h7.7zm-7.7 0h-7.7v7.704h7.7z"/><path stroke="#fff" stroke-width="6" d="m26.689 26.766 31.8 31.8m-31.8 0 31.8-31.8"/></svg>