<svg xmlns="http://www.w3.org/2000/svg" width="85" height="85" fill="none" viewBox="0 0 85 85"><path fill="#009975" d="M61.749 77.04h-7.7v7.704h7.7z"/><path fill="#009975" d="M54.05 77.04h-7.7v7.704h7.7z"/><path fill="#009975" d="M46.35 77.04h-7.7v7.704h7.7zm-7.7 0h-7.7v7.704h7.7zm-7.7 0h-7.7v7.704h7.7zm38.499-7.703h-7.7v7.704h7.7z"/><path fill="#02C194" d="M61.749 69.337h-7.7v7.704h7.7z"/><path fill="#02C194" d="M54.05 69.337h-7.7v7.704h7.7z"/><path fill="#02C194" d="M46.35 69.337h-7.7v7.704h7.7zm-7.7 0h-7.7v7.704h7.7zm-7.7 0h-7.7v7.704h7.7z"/><path fill="#009975" d="M23.25 69.337h-7.699v7.704h7.7zm53.899-7.704h-7.7v7.704h7.7z"/><path fill="#02C194" d="M69.449 61.633h-7.7v7.704h7.7z"/><path fill="#0BE1AE" d="M61.749 61.633h-7.7v7.704h7.7z"/><path fill="#06D0A0" d="M54.05 61.633h-7.7v7.704h7.7z"/><path fill="#06D0A0" d="M46.35 61.633h-7.7v7.704h7.7zm-7.7 0h-7.7v7.704h7.7zm-7.7 0h-7.7v7.704h7.7z"/><path fill="#02C194" d="M23.25 61.633h-7.699v7.704h7.7z"/><path fill="#009975" d="M15.551 61.633h-7.7v7.704h7.7zm69.297-7.703h-7.7v7.704h7.7z"/><path fill="#02C194" d="M77.149 53.93h-7.7v7.704h7.7z"/><path fill="#0BE1AE" d="M69.449 53.93h-7.7v7.704h7.7z"/><path fill="#06D0A0" d="M61.749 53.93h-7.7v7.704h7.7z"/><path fill="#06D0A0" d="M54.05 53.93h-7.7v7.704h7.7z"/><path fill="#0BE1AE" d="M46.35 53.93h-7.7v7.704h7.7zm-7.7 0h-7.7v7.704h7.7zm-7.7 0h-7.7v7.704h7.7z"/><path fill="#06D0A0" d="M23.25 53.93h-7.699v7.704h7.7zm-7.699 0h-7.7v7.704h7.7z"/><path fill="#009975" d="M7.851 53.93h-7.7v7.704h7.7zm76.997-7.707h-7.7v7.704h7.7z"/><path fill="#02C194" d="M77.149 46.223h-7.7v7.704h7.7z"/><path fill="#06D0A0" d="M69.449 46.223h-7.7v7.704h7.7z"/><path fill="#06D0A0" d="M61.749 46.223h-7.7v7.704h7.7z"/><path fill="#0BE1AE" d="M54.05 46.223h-7.7v7.704h7.7z"/><path fill="#0BE1AE" d="M46.35 46.223h-7.7v7.704h7.7zm-7.7 0h-7.7v7.704h7.7zm-7.7 0h-7.7v7.704h7.7z"/><path fill="#0BE1AE" d="M23.25 46.223h-7.699v7.704h7.7z"/><path fill="#06D0A0" d="M15.551 46.223h-7.7v7.704h7.7z"/><path fill="#009975" d="M7.851 46.223h-7.7v7.704h7.7zm76.997-7.704h-7.7v7.704h7.7z"/><path fill="#02C194" d="M77.149 38.519h-7.7v7.704h7.7z"/><path fill="#06D0A0" d="M69.449 38.519h-7.7v7.704h7.7z"/><path fill="#0BE1AE" d="M61.749 38.519h-7.7v7.704h7.7z"/><path fill="#0BE1AE" d="M54.05 38.519h-7.7v7.704h7.7z"/><path fill="#0BE1AE" d="M46.35 38.519h-7.7v7.704h7.7z"/><path fill="#10E9B5" d="M38.65 38.519h-7.7v7.704h7.7zm-7.7 0h-7.7v7.704h7.7z"/><path fill="#10E9B5" d="M23.25 38.519h-7.699v7.704h7.7z"/><path fill="#06D0A0" d="M15.551 38.519h-7.7v7.704h7.7z"/><path fill="#009975" d="M7.851 38.519h-7.7v7.704h7.7zm76.997-7.702h-7.7v7.705h7.7z"/><path fill="#02C194" d="M77.149 30.817h-7.7v7.705h7.7z"/><path fill="#06D0A0" d="M69.449 30.817h-7.7v7.705h7.7z"/><path fill="#0BE1AE" d="M61.749 30.817h-7.7v7.705h7.7z"/><path fill="#0BE1AE" d="M54.05 30.817h-7.7v7.705h7.7z"/><path fill="#10E9B5" d="M46.35 30.817h-7.7v7.705h7.7z"/><path fill="#1CFFC9" d="M38.65 30.817h-7.7v7.705h7.7zm-7.7 0h-7.7v7.705h7.7z"/><path fill="#10E9B5" d="M23.25 30.817h-7.699v7.705h7.7z"/><path fill="#06D0A0" d="M15.551 30.817h-7.7v7.705h7.7z"/><path fill="#009975" d="M7.851 30.817h-7.7v7.705h7.7zm76.997-7.706h-7.7v7.704h7.7z"/><path fill="#02C194" d="M77.149 23.111h-7.7v7.704h7.7z"/><path fill="#06D0A0" d="M69.449 23.111h-7.7v7.704h7.7z"/><path fill="#0BE1AE" d="M61.749 23.111h-7.7v7.704h7.7z"/><path fill="#0BE1AE" d="M54.05 23.111h-7.7v7.704h7.7z"/><path fill="#10E9B5" d="M46.35 23.111h-7.7v7.704h7.7z"/><path fill="#1CFFC9" d="M38.65 23.111h-7.7v7.704h7.7zm-7.7 0h-7.7v7.704h7.7z"/><path fill="#10E9B5" d="M23.25 23.111h-7.699v7.704h7.7z"/><path fill="#06D0A0" d="M15.551 23.111h-7.7v7.704h7.7z"/><path fill="#009975" d="M7.851 23.111h-7.7v7.704h7.7zm69.298-7.703h-7.7v7.704h7.7z"/><path fill="#02C194" d="M69.449 15.408h-7.7v7.704h7.7z"/><path fill="#06D0A0" d="M61.749 15.408h-7.7v7.704h7.7z"/><path fill="#0BE1AE" d="M54.05 15.408h-7.7v7.704h7.7z"/><path fill="#10E9B5" d="M46.35 15.408h-7.7v7.704h7.7zm-7.7 0h-7.7v7.704h7.7zm-7.7 0h-7.7v7.704h7.7z"/><path fill="#06D0A0" d="M23.25 15.408h-7.699v7.704h7.7z"/><path fill="#009975" d="M15.551 15.408h-7.7v7.704h7.7zm53.898-7.705h-7.7v7.704h7.7z"/><path fill="#06D0A0" d="M61.749 7.703h-7.7v7.704h7.7z"/><path fill="#06D0A0" d="M54.05 7.703h-7.7v7.704h7.7z"/><path fill="#06D0A0" d="M46.35 7.703h-7.7v7.704h7.7zm-7.7 0h-7.7v7.704h7.7zm-7.7 0h-7.7v7.704h7.7z"/><path fill="#009975" d="M23.25 7.703h-7.699v7.704h7.7zM61.749 0h-7.7v7.704h7.7z"/><path fill="#009975" d="M54.05 0h-7.7v7.704h7.7z"/><path fill="#009975" d="M46.35 0h-7.7v7.704h7.7zm-7.7 0h-7.7v7.704h7.7zm-7.7 0h-7.7v7.704h7.7z"/><path stroke="#fff" stroke-width="6" d="m23.738 40.793 14.775 14.635 22.448-25.841"/></svg>