<svg xmlns="http://www.w3.org/2000/svg" width="112" height="41" fill="none" viewBox="0 0 112 41"><path fill="#ED1C24" stroke="#fff" stroke-width="2" d="m2.472 28.247-.83-.581.592-.822.812.584c-.812-.584-.811-.585-.811-.585l.001-.002.004-.005.012-.016.044-.06q.058-.08.17-.225c.149-.195.369-.476.66-.832a54 54 0 0 1 2.595-2.935 71 71 0 0 1 10.22-8.867C24.962 7.455 38.377 1 55.908 1S86.92 7.45 96.01 13.89a72 72 0 0 1 10.314 8.859 55 55 0 0 1 2.626 2.932 35 35 0 0 1 .886 1.116l.012.016.004.005.001.002-.806.591.807-.59.605.827-.842.585-7.504 5.207-1.039.721-.462-1.177-.001-.003-.006-.016-.015-.036-.013-.033-.122-.287a30 30 0 0 0-.514-1.108 40 40 0 0 0-.717-1.4c-1.034 4.705-3.843 7.176-6.534 8.434a14 14 0 0 1-5.538 1.285H24.873q-.13-.001-.36-.011a13.8 13.8 0 0 1-5.117-1.293c-2.668-1.272-5.448-3.761-6.47-8.484a40 40 0 0 0-.758 1.49 30 30 0 0 0-.645 1.436l-.03.072-.005.016-.002.003-.46 1.194-1.047-.734z"/><path fill="#fff" d="M97.752 28.31s-1.358 8.28-10.106 8.28H25.418c-8.747 0-9.978-8.357-9.978-8.357-.337-2.218.073-3.737.727-4.787 6.3-8.676 18.763-20.33 40.312-20.33 21.732 0 34.301 11.822 40.598 20.5.727.967 1 2.546.675 4.694"/><path fill="#ED1C24" d="m37.715 19.899 1.036-2.278H25.47l-1.042 2.278h5.146L24.246 31.01h3.44l5.324-11.112zm47.702 7.375c-.99 1.41-2.395 2.125-3.139 1.592-.741-.534-.537-2.108.455-3.519.99-1.41 2.398-2.127 3.138-1.594.745.536.538 2.11-.454 3.52m-11.67-.055c-.998 1.414-2.402 2.126-3.144 1.593-.737-.533-.54-2.107.454-3.52.996-1.41 2.403-2.125 3.14-1.593.738.533.54 2.11-.45 3.52m-14.505-1.025s.646-2.19 2.736-3.066c0 0 .595-.204.913.06 0 0 .447.434-.084 1.239-.477.718-1.622 2.017-2.864 2.455 0 0-1.127.497-.7-.688m-20.36 1.025c-.997 1.414-2.398 2.126-3.139 1.593s-.543-2.107.449-3.52c.994-1.41 2.401-2.125 3.141-1.593.745.533.538 2.11-.45 3.52m49.858 1.716s-.673.316-.962.011c-.29-.302-.031-.865-.031-.865l2.817-5.985h-2.872l-.44.8c-1.678-1.492-4.834-.722-6.788 1.343-1.13 1.19-1.769 2.601-1.855 3.83a8.4 8.4 0 0 1-1.542.813s-.674.32-.966.011c-.29-.302-.028-.867-.028-.867l5.001-10.4h-2.87L75.58 22.84c-1.678-1.489-4.831-.72-6.79 1.344q-.593.636-1.005 1.322l.003-.01-.058.111a5 5 0 0 0-.176.318c-1.561 2.732-3.503 3.186-3.503 3.186-4.103 1.239-4.571-.791-4.571-.791 4.595-1.717 6.322-3.75 6.163-5.306-.155-1.557-2.27-1.638-2.27-1.638-3.476-.211-6.485 2.245-7.215 4.649-.22.732-.29 1.484-.154 2.17-1.392.749-2.193.868-2.193.868-1.156.37-1.3-.185-1.437-.522-.14-.347-.664-3.337-.664-3.337l4.88-3.226h-2.985l-3.666 2.297c-.826.346-.506-.532-.506-.532l2.994-6.123h-2.876l-4.856 9.942c-.558.339-1.676.994-2.492 1.32 0 0-.672.318-.961.01-.295-.302-.033-.867-.033-.867l2.82-5.984h-2.873l-.44.8c-1.677-1.49-4.834-.722-6.788 1.343-1.959 2.066-2.458 4.79-1.119 6.085 1.07 1.036 2.997.842 4.726-.334 0 0 .435-.379.672.064.244.462 1.234 1.505 3.514.596a16 16 0 0 0 1.95-.936l-.595 1.217h2.87l1.44-2.94 1.25-.805s.384-.304.535.347c0 0 .621 2.474.861 2.794.243.323.722 1.054 2.741.468a35 35 0 0 0 3.751-1.333c.676.943 1.971 1.58 4.106 1.58 3.148 0 5.374-1.519 6.313-2.31.068.63.308 1.183.732 1.592 1.069 1.036 2.994.842 4.72-.334 0 0 .438-.379.678.064.245.462 1.23 1.505 3.514.596 1.047-.417 1.747-.816 2.206-1.127q.184.492.553.856c1.075 1.032 2.997.841 4.724-.337 0 0 .438-.38.678.067.241.461 1.234 1.506 3.511.594 2.283-.908 2.936-1.731 2.936-1.731l-.575-1.026c-.08.046-.783.608-1.878 1.043"/></svg>