<svg xmlns="http://www.w3.org/2000/svg" width="307" height="54" fill="none" viewBox="0 0 307 54"><path fill="#fff" d="M301.344 9.445v35.62H6.733V9.444z"/><path fill="#fff" d="M301.344 9.445v35.62H6.733V9.444z"/><path fill="#fff" d="M301.344 9.445v35.62H6.733V9.444z"/><path fill="#8353E3" d="M32.006 13.414h-21v28h21zm24.264 0h-21v28h21zm24.058 0h-21v28h21z"/><path fill="#E6E5E8" d="M104.386 13.414h-21v28h21zm24.058 0h-21v28h21zm24.058 0h-21v28h21zm24.059 0h-21v28h21zm24.057 0h-21v28h21zm24.059 0h-21v28h21zm24.058 0h-21v28h21zm24.058 0h-21v28h21zm24.059 0h-21v28h21z"/><path fill="#06D0A0" d="M301.344 45.065H6.939v5h294.405zM6.94 9.445h-5v35.62h5zm299.404 0h-5v35.62h5zm-5-5H6.939v5h294.405z"/></svg>