<svg xmlns="http://www.w3.org/2000/svg" width="50" height="51" fill="none" viewBox="0 0 50 51"><path fill="#fff" d="M45.185 14.672v23.002H4.815V14.672z"/><path fill="#fff" d="M45.185 14.672v23.002H4.815V14.672z"/><path fill="#fff" d="M45.185 14.672v23.002H4.815V14.672z"/><path fill="#fff" d="M41.004 9.841v32.664H8.996V9.84z"/><path fill="#fff" d="M41.004 9.841v32.664H8.996V9.84z"/><path fill="#fff" d="M41.004 9.841v32.664H8.996V9.84z"/><path fill="#fff" d="M13.493 5.999h23.014v40.349H13.493z"/><path fill="#fff" d="M13.493 5.999h23.014v40.349H13.493z"/><path fill="#fff" d="M13.493 5.999h23.014v40.349H13.493z"/><path fill="#06D0A0" d="M36.507 45.825h-5.023v5.02h5.023z"/><path fill="#06D0A0" d="M32.01 45.825h-5.023v5.02h5.022z"/><path fill="#06D0A0" d="M27.511 45.825H22.49v5.02h5.022z"/><path fill="#06D0A0" d="M23.014 45.825H17.99v5.02h5.023z"/><path fill="#06D0A0" d="M18.516 45.825h-5.023v5.02h5.023zm22.489-4.498h-5.023v5.02h5.023z"/><path fill="#06D0A0" d="M14.018 41.327H8.996v5.02h5.022zm31.484-4.498H40.48v5.02h5.023z"/><path fill="#06D0A0" d="M9.52 36.829H4.498v5.02H9.52z"/><path fill="#06D0A0" d="M5.023 32.333H0v5.02h5.023z"/><path fill="#06D0A0" d="M5.023 27.832H0v5.02h5.023z"/><path fill="#06D0A0" d="M5.023 23.334H0v5.02h5.023z"/><path fill="#06D0A0" d="M5.023 18.838H0v5.02h5.023zM50 32.333h-5.023v5.02H50z"/><path fill="#06D0A0" d="M50 27.832h-5.023v5.02H50z"/><path fill="#06D0A0" d="M50 23.334h-5.023v5.02H50z"/><path fill="#06D0A0" d="M50 18.838h-5.023v5.02H50z"/><path fill="#06D0A0" d="M50 14.339h-5.023v5.02H50zm-44.977 0H0v5.02h5.023z"/><path fill="#06D0A0" d="M45.502 9.84H40.48v5.021h5.023zm-35.982 0H4.498v5.021H9.52z"/><path fill="#06D0A0" d="M41.005 5.342h-5.023v5.02h5.023zm-26.987 0H8.996v5.02h5.022z"/><path fill="#06D0A0" d="M36.507.845h-5.023v5.02h5.023z"/><path fill="#06D0A0" d="M32.01.845h-5.023v5.02h5.022z"/><path fill="#06D0A0" d="M27.511.845H22.49v5.02h5.022z"/><path fill="#06D0A0" d="M23.014.845H17.99v5.02h5.023z"/><path fill="#06D0A0" d="M18.516.845h-5.023v5.02h5.023z"/><path fill="#503DA0" d="M25.693 31.596h2.038v4.075h-2.038v2.037h-6.112v-2.037h-2.037v-4.075h2.037V29.56h4.075V15.297h2.037v-2.038h6.112v2.038h2.038v2.037h-2.038v2.037h-6.112z" opacity="0.5"/></svg>